# Blender v3.1.0 OBJ File: 'convert_meshes_orientation.blend'
# www.blender.org
mtllib txt_s.mtl
o txt_s
v 0.423440 0.000000 1.009504
v 0.478712 0.000000 1.009289
v 0.448288 0.000000 1.009769
v 0.399489 0.000000 1.008711
v 0.507910 0.000000 1.007845
v 0.376438 0.000000 1.007388
v 0.535876 0.000000 1.005440
v 0.354283 0.000000 1.005534
v 0.333025 0.000000 1.003153
v 0.562616 0.000000 1.002074
v 0.312665 0.000000 1.000243
v 0.588127 0.000000 0.997745
v 0.293203 0.000000 0.996801
v 0.612407 0.000000 0.992455
v 0.274638 0.000000 0.992831
v 0.256971 0.000000 0.988333
v 0.635460 0.000000 0.986202
v 0.240202 0.000000 0.983305
v 0.657283 0.000000 0.978987
v 0.224330 0.000000 0.977746
v 0.677876 0.000000 0.970810
v 0.209355 0.000000 0.971660
v 0.195134 0.000000 0.965109
v 0.697242 0.000000 0.961672
v 0.181519 0.000000 0.958165
v 0.715379 0.000000 0.951573
v 0.168513 0.000000 0.950824
v 0.732288 0.000000 0.940508
v 0.156113 0.000000 0.943087
v 0.144321 0.000000 0.934954
v 0.748031 0.000000 0.928397
v 0.133136 0.000000 0.926426
v 0.762674 0.000000 0.915148
v 0.122560 0.000000 0.917502
v 0.112589 0.000000 0.908180
v 0.776217 0.000000 0.900764
v 0.103228 0.000000 0.898465
v 0.788661 0.000000 0.885242
v 0.094475 0.000000 0.888352
v 0.086328 0.000000 0.877844
v 0.800002 0.000000 0.868583
v 0.078787 0.000000 0.866940
v 0.810246 0.000000 0.850785
v 0.071853 0.000000 0.855781
v 0.065524 0.000000 0.844508
v 0.819390 0.000000 0.831853
v 0.059795 0.000000 0.833118
v 0.054670 0.000000 0.821613
v 0.409915 0.000000 0.828678
v 0.418462 0.000000 0.828830
v 0.428875 0.000000 0.828624
v 0.827433 0.000000 0.811784
v 0.401726 0.000000 0.828214
v 0.438906 0.000000 0.828003
v 0.393899 0.000000 0.827443
v 0.448557 0.000000 0.826967
v 0.386428 0.000000 0.826365
v 0.457824 0.000000 0.825517
v 0.379316 0.000000 0.824977
v 0.466708 0.000000 0.823654
v 0.372565 0.000000 0.823280
v 0.475212 0.000000 0.821374
v 0.366171 0.000000 0.821276
v 0.050148 0.000000 0.809995
v 0.483333 0.000000 0.818682
v 0.360137 0.000000 0.818963
v 0.354462 0.000000 0.816342
v 0.491072 0.000000 0.815575
v 0.349146 0.000000 0.813412
v 0.498430 0.000000 0.812055
v 0.344188 0.000000 0.810173
v 0.505406 0.000000 0.808119
v 0.834375 0.000000 0.790576
v 0.339592 0.000000 0.806627
v 0.046230 0.000000 0.798261
v 0.511998 0.000000 0.803769
v 0.335357 0.000000 0.802860
v 0.518209 0.000000 0.799006
v 0.331491 0.000000 0.798960
v 0.524057 0.000000 0.793787
v 0.327993 0.000000 0.794926
v 0.042913 0.000000 0.786412
v 0.324863 0.000000 0.790759
v 0.529559 0.000000 0.788070
v 0.322101 0.000000 0.786458
v 0.840218 0.000000 0.768232
v 0.534718 0.000000 0.781857
v 0.319708 0.000000 0.782022
v 0.040200 0.000000 0.774447
v 0.317684 0.000000 0.777453
v 0.539529 0.000000 0.775146
v 0.316025 0.000000 0.772753
v 0.543995 0.000000 0.767939
v 0.038089 0.000000 0.762367
v 0.314738 0.000000 0.767917
v 0.844961 0.000000 0.744752
v 0.548118 0.000000 0.760234
v 0.313816 0.000000 0.762949
v 0.313264 0.000000 0.757847
v 0.036581 0.000000 0.750172
v 0.551895 0.000000 0.752031
v 0.313081 0.000000 0.752611
v 0.313232 0.000000 0.748778
v 0.555325 0.000000 0.743332
v 0.035678 0.000000 0.737862
v 0.313688 0.000000 0.745009
v 0.314447 0.000000 0.741304
v 0.848604 0.000000 0.720135
v 0.558411 0.000000 0.734137
v 0.315511 0.000000 0.737663
v 0.035376 0.000000 0.725438
v 0.316876 0.000000 0.734087
v 0.561152 0.000000 0.724444
v 0.318547 0.000000 0.730575
v 0.320523 0.000000 0.727127
v 0.322800 0.000000 0.723743
v 0.035965 0.000000 0.706719
v 0.563548 0.000000 0.714253
v 0.325383 0.000000 0.720426
v 0.328268 0.000000 0.717171
v 0.565598 0.000000 0.703566
v 0.331459 0.000000 0.713982
v 0.334951 0.000000 0.710857
v 0.338891 0.000000 0.707672
v 0.343642 0.000000 0.704524
v 0.037732 0.000000 0.688561
v 0.349203 0.000000 0.701411
v 0.355572 0.000000 0.698337
v 0.362751 0.000000 0.695301
v 0.370741 0.000000 0.692298
v 0.379543 0.000000 0.689335
v 0.389151 0.000000 0.686407
v 0.040678 0.000000 0.670967
v 0.399573 0.000000 0.683517
v 0.410803 0.000000 0.680664
v 0.422843 0.000000 0.677846
v 0.435695 0.000000 0.675067
v 0.467726 0.000000 0.667991
v 0.044802 0.000000 0.653932
v 0.498207 0.000000 0.660900
v 0.527137 0.000000 0.653795
v 0.050104 0.000000 0.637458
v 0.554515 0.000000 0.646677
v 0.580344 0.000000 0.639546
v 0.604619 0.000000 0.632401
v 0.056586 0.000000 0.621548
v 0.627345 0.000000 0.625240
v 0.648520 0.000000 0.618068
v 0.064245 0.000000 0.606198
v 0.668143 0.000000 0.610881
v 0.686214 0.000000 0.603680
v 0.073080 0.000000 0.591410
v 0.702737 0.000000 0.596464
v 0.717707 0.000000 0.589237
v 0.083097 0.000000 0.577183
v 0.731579 0.000000 0.581856
v 0.744806 0.000000 0.574187
v 0.094290 0.000000 0.563518
v 0.757391 0.000000 0.566227
v 0.769329 0.000000 0.557975
v 0.106662 0.000000 0.550413
v 0.780624 0.000000 0.549435
v 0.120212 0.000000 0.537872
v 0.791275 0.000000 0.540605
v 0.801281 0.000000 0.531485
v 0.135028 0.000000 0.525812
v 0.810643 0.000000 0.522075
v 0.151418 0.000000 0.514159
v 0.819360 0.000000 0.512376
v 0.169382 0.000000 0.502910
v 0.827433 0.000000 0.502386
v 0.188919 0.000000 0.492066
v 0.834861 0.000000 0.492106
v 0.841646 0.000000 0.481536
v 0.210032 0.000000 0.481628
v 0.232717 0.000000 0.471593
v 0.847839 0.000000 0.470714
v 0.256979 0.000000 0.461965
v 0.853492 0.000000 0.459682
v 0.282813 0.000000 0.452742
v 0.858608 0.000000 0.448438
v 0.310222 0.000000 0.443922
v 0.863185 0.000000 0.436982
v 0.339204 0.000000 0.435510
v 0.867225 0.000000 0.425315
v 0.369761 0.000000 0.427500
v 0.401893 0.000000 0.419897
v 0.870725 0.000000 0.413435
v 0.421389 0.000000 0.415455
v 0.439671 0.000000 0.410967
v 0.873687 0.000000 0.401345
v 0.456738 0.000000 0.406435
v 0.472590 0.000000 0.401855
v 0.487224 0.000000 0.397230
v 0.876109 0.000000 0.389041
v 0.500647 0.000000 0.392557
v 0.512852 0.000000 0.387840
v 0.877994 0.000000 0.376527
v 0.523844 0.000000 0.383077
v 0.533619 0.000000 0.378266
v 0.542180 0.000000 0.373410
v 0.879342 0.000000 0.363799
v 0.549525 0.000000 0.368508
v 0.555656 0.000000 0.363560
v 0.880149 0.000000 0.350863
v 0.560949 0.000000 0.358534
v -0.001076 -0.000000 0.343016
v 0.286261 0.000000 0.349542
v 0.284580 0.000000 0.360910
v 0.565783 0.000000 0.353397
v 0.570154 0.000000 0.348152
v 0.880418 0.000000 0.337712
v 0.288207 0.000000 0.338634
v 0.574066 0.000000 0.342795
v 0.001598 0.000000 0.318850
v 0.577520 0.000000 0.337327
v 0.290422 0.000000 0.328186
v 0.880059 0.000000 0.322238
v 0.580510 0.000000 0.331748
v 0.583042 0.000000 0.326059
v 0.292902 0.000000 0.318198
v 0.585113 0.000000 0.320260
v 0.878982 0.000000 0.306966
v 0.586725 0.000000 0.314350
v 0.005422 0.000000 0.295406
v 0.295651 0.000000 0.308669
v 0.587876 0.000000 0.308330
v 0.298665 0.000000 0.299603
v 0.588565 0.000000 0.302199
v 0.877187 0.000000 0.291898
v 0.588796 0.000000 0.295958
v 0.301946 0.000000 0.290996
v 0.588555 0.000000 0.289396
v 0.010398 0.000000 0.272678
v 0.874673 0.000000 0.277032
v 0.305495 0.000000 0.282849
v 0.587830 0.000000 0.282970
v 0.586621 0.000000 0.276674
v 0.309310 0.000000 0.275162
v 0.871442 0.000000 0.262367
v 0.584930 0.000000 0.270514
v 0.313392 0.000000 0.267937
v 0.016525 0.000000 0.250668
v 0.582755 0.000000 0.264487
v 0.317742 0.000000 0.261172
v 0.580097 0.000000 0.258594
v 0.867494 0.000000 0.247907
v 0.322358 0.000000 0.254865
v 0.576956 0.000000 0.252832
v 0.330367 0.000000 0.245445
v 0.573331 0.000000 0.247206
v 0.023800 0.000000 0.229376
v 0.862827 0.000000 0.233647
v 0.569223 0.000000 0.241714
v 0.338929 0.000000 0.236842
v 0.564632 0.000000 0.236354
v 0.348042 0.000000 0.229059
v 0.559558 0.000000 0.231127
v 0.857442 0.000000 0.219590
v 0.553999 0.000000 0.226034
v 0.032228 0.000000 0.208803
v 0.357707 0.000000 0.222095
v 0.547995 0.000000 0.221217
v 0.367926 0.000000 0.215950
v 0.541581 0.000000 0.216819
v 0.851339 0.000000 0.205737
v 0.534758 0.000000 0.212841
v 0.378695 0.000000 0.210624
v 0.527525 0.000000 0.209281
v 0.390017 0.000000 0.206118
v 0.519882 0.000000 0.206140
v 0.041806 0.000000 0.188947
v 0.511832 0.000000 0.203417
v 0.401893 0.000000 0.202431
v 0.844518 0.000000 0.192086
v 0.503370 0.000000 0.201114
v 0.414319 0.000000 0.199566
v 0.494498 0.000000 0.199228
v 0.427299 0.000000 0.197518
v 0.485216 0.000000 0.197763
v 0.475525 0.000000 0.196716
v 0.440830 0.000000 0.196289
v 0.465425 0.000000 0.196088
v 0.454914 0.000000 0.195879
v 0.836979 0.000000 0.178638
v 0.052536 0.000000 0.169808
v 0.828722 0.000000 0.165390
v 0.064413 0.000000 0.151390
v 0.819820 0.000000 0.152510
v 0.810348 0.000000 0.140159
v 0.077444 0.000000 0.133688
v 0.800306 0.000000 0.128337
v 0.091625 0.000000 0.116704
v 0.789691 0.000000 0.117043
v 0.778506 0.000000 0.106282
v 0.106957 0.000000 0.100439
v 0.766752 0.000000 0.096047
v 0.123921 0.000000 0.085195
v 0.754427 0.000000 0.086342
v 0.741529 0.000000 0.077167
v 0.143004 0.000000 0.071275
v 0.728063 0.000000 0.068522
v 0.164203 0.000000 0.058682
v 0.714024 0.000000 0.060405
v 0.699415 0.000000 0.052817
v 0.187521 0.000000 0.047417
v 0.684236 0.000000 0.045758
v 0.212954 0.000000 0.037475
v 0.668434 0.000000 0.039248
v 0.651962 0.000000 0.033304
v 0.240507 0.000000 0.028858
v 0.634817 0.000000 0.027926
v 0.270174 0.000000 0.021567
v 0.617001 0.000000 0.023113
v 0.598513 0.000000 0.018868
v 0.301960 0.000000 0.015603
v 0.579352 0.000000 0.015189
v 0.335863 0.000000 0.010964
v 0.559518 0.000000 0.012075
v 0.539013 0.000000 0.009526
v 0.371884 0.000000 0.007649
v 0.517838 0.000000 0.007546
v 0.410022 0.000000 0.005661
v 0.495988 0.000000 0.006131
v 0.473467 0.000000 0.005281
v 0.450276 0.000000 0.004998
vt 0.406154 0.000000
vt 0.412308 0.000000
vt 0.409231 0.000000
vt 0.403077 0.000000
vt 0.415385 0.000000
vt 0.400000 0.000000
vt 0.418462 0.000000
vt 0.396923 0.000000
vt 0.393846 0.000000
vt 0.421538 0.000000
vt 0.390769 0.000000
vt 0.424615 0.000000
vt 0.387692 0.000000
vt 0.427692 0.000000
vt 0.384615 0.000000
vt 0.381538 0.000000
vt 0.430769 0.000000
vt 0.378462 0.000000
vt 0.433846 0.000000
vt 0.375385 0.000000
vt 0.436923 0.000000
vt 0.372308 0.000000
vt 0.369231 0.000000
vt 0.440000 0.000000
vt 0.366154 0.000000
vt 0.443077 0.000000
vt 0.363077 0.000000
vt 0.446154 0.000000
vt 0.360000 0.000000
vt 0.356923 0.000000
vt 0.449231 0.000000
vt 0.353846 0.000000
vt 0.452308 0.000000
vt 0.350769 0.000000
vt 0.347692 0.000000
vt 0.455385 0.000000
vt 0.344615 0.000000
vt 0.458462 0.000000
vt 0.341538 0.000000
vt 0.338462 0.000000
vt 0.461538 0.000000
vt 0.335385 0.000000
vt 0.464615 0.000000
vt 0.332308 0.000000
vt 0.329231 0.000000
vt 0.467692 0.000000
vt 0.326154 0.000000
vt 0.323077 0.000000
vt 0.563077 0.000000
vt 0.560000 0.000000
vt 0.556923 0.000000
vt 0.470769 0.000000
vt 0.566154 0.000000
vt 0.553846 0.000000
vt 0.569231 0.000000
vt 0.550769 0.000000
vt 0.572308 0.000000
vt 0.547692 0.000000
vt 0.575385 0.000000
vt 0.544615 0.000000
vt 0.578462 0.000000
vt 0.541538 0.000000
vt 0.581538 0.000000
vt 0.320000 0.000000
vt 0.538462 0.000000
vt 0.584615 0.000000
vt 0.587692 0.000000
vt 0.535385 0.000000
vt 0.590769 0.000000
vt 0.532308 0.000000
vt 0.593846 0.000000
vt 0.529231 0.000000
vt 0.473846 0.000000
vt 0.596923 0.000000
vt 0.316923 0.000000
vt 0.526154 0.000000
vt 0.600000 0.000000
vt 0.523077 0.000000
vt 0.603077 0.000000
vt 0.520000 0.000000
vt 0.606154 0.000000
vt 0.313846 0.000000
vt 0.609231 0.000000
vt 0.516923 0.000000
vt 0.612308 0.000000
vt 0.476923 0.000000
vt 0.513846 0.000000
vt 0.615385 0.000000
vt 0.310769 0.000000
vt 0.618462 0.000000
vt 0.510769 0.000000
vt 0.621538 0.000000
vt 0.507692 0.000000
vt 0.307692 0.000000
vt 0.624615 0.000000
vt 0.480000 0.000000
vt 0.504615 0.000000
vt 0.627692 0.000000
vt 0.630769 0.000000
vt 0.304615 0.000000
vt 0.501538 0.000000
vt 0.633846 0.000000
vt 0.636923 0.000000
vt 0.498462 0.000000
vt 0.301538 0.000000
vt 0.640000 0.000000
vt 0.643077 0.000000
vt 0.483077 0.000000
vt 0.495385 0.000000
vt 0.646154 0.000000
vt 0.298462 0.000000
vt 0.649231 0.000000
vt 0.492308 0.000000
vt 0.652308 0.000000
vt 0.655385 0.000000
vt 0.658462 0.000000
vt 0.295385 0.000000
vt 0.489231 0.000000
vt 0.661538 0.000000
vt 0.664615 0.000000
vt 0.486154 0.000000
vt 0.667692 0.000000
vt 0.670769 0.000000
vt 0.673846 0.000000
vt 0.676923 0.000000
vt 0.292308 0.000000
vt 0.680000 0.000000
vt 0.683077 0.000000
vt 0.686154 0.000000
vt 0.689231 0.000000
vt 0.692308 0.000000
vt 0.695385 0.000000
vt 0.289231 0.000000
vt 0.698462 0.000000
vt 0.701538 0.000000
vt 0.704615 0.000000
vt 0.707692 0.000000
vt 0.710769 0.000000
vt 0.286154 0.000000
vt 0.713846 0.000000
vt 0.716923 0.000000
vt 0.283077 0.000000
vt 0.720000 0.000000
vt 0.723077 0.000000
vt 0.726154 0.000000
vt 0.280000 0.000000
vt 0.729231 0.000000
vt 0.732308 0.000000
vt 0.276923 0.000000
vt 0.735385 0.000000
vt 0.738462 0.000000
vt 0.273846 0.000000
vt 0.741538 0.000000
vt 0.744615 0.000000
vt 0.270769 0.000000
vt 0.747692 0.000000
vt 0.750769 0.000000
vt 0.267692 0.000000
vt 0.753846 0.000000
vt 0.756923 0.000000
vt 0.264615 0.000000
vt 0.760000 0.000000
vt 0.261538 0.000000
vt 0.763077 0.000000
vt 0.766154 0.000000
vt 0.258462 0.000000
vt 0.769231 0.000000
vt 0.255385 0.000000
vt 0.772308 0.000000
vt 0.252308 0.000000
vt 0.775385 0.000000
vt 0.249231 0.000000
vt 0.778462 0.000000
vt 0.781538 0.000000
vt 0.246154 0.000000
vt 0.243077 0.000000
vt 0.784615 0.000000
vt 0.240000 0.000000
vt 0.787692 0.000000
vt 0.236923 0.000000
vt 0.790769 0.000000
vt 0.233846 0.000000
vt 0.793846 0.000000
vt 0.230769 0.000000
vt 0.796923 0.000000
vt 0.227692 0.000000
vt 0.224615 0.000000
vt 0.800000 0.000000
vt 0.221538 0.000000
vt 0.218462 0.000000
vt 0.803077 0.000000
vt 0.215385 0.000000
vt 0.212308 0.000000
vt 0.209231 0.000000
vt 0.806154 0.000000
vt 0.206154 0.000000
vt 0.203077 0.000000
vt 0.809231 0.000000
vt 0.200000 0.000000
vt 0.196923 0.000000
vt 0.193846 0.000000
vt 0.812308 0.000000
vt 0.190769 0.000000
vt 0.187692 0.000000
vt 0.815385 0.000000
vt 0.184615 0.000000
vt 0.000000 0.000000
vt 0.006154 0.000000
vt 0.003077 0.000000
vt 0.181538 0.000000
vt 0.178462 0.000000
vt 0.818462 0.000000
vt 0.009231 0.000000
vt 0.175385 0.000000
vt 1.000000 0.000000
vt 0.172308 0.000000
vt 0.012308 0.000000
vt 0.821538 0.000000
vt 0.169231 0.000000
vt 0.166154 0.000000
vt 0.015385 0.000000
vt 0.163077 0.000000
vt 0.824615 0.000000
vt 0.160000 0.000000
vt 0.996923 0.000000
vt 0.018462 0.000000
vt 0.156923 0.000000
vt 0.021538 0.000000
vt 0.153846 0.000000
vt 0.827692 0.000000
vt 0.150769 0.000000
vt 0.024615 0.000000
vt 0.147692 0.000000
vt 0.993846 0.000000
vt 0.830769 0.000000
vt 0.027692 0.000000
vt 0.144615 0.000000
vt 0.141538 0.000000
vt 0.030769 0.000000
vt 0.833846 0.000000
vt 0.138462 0.000000
vt 0.033846 0.000000
vt 0.990769 0.000000
vt 0.135385 0.000000
vt 0.036923 0.000000
vt 0.132308 0.000000
vt 0.836923 0.000000
vt 0.040000 0.000000
vt 0.129231 0.000000
vt 0.043077 0.000000
vt 0.126154 0.000000
vt 0.987692 0.000000
vt 0.840000 0.000000
vt 0.123077 0.000000
vt 0.046154 0.000000
vt 0.120000 0.000000
vt 0.049231 0.000000
vt 0.116923 0.000000
vt 0.843077 0.000000
vt 0.113846 0.000000
vt 0.984615 0.000000
vt 0.052308 0.000000
vt 0.110769 0.000000
vt 0.055385 0.000000
vt 0.107692 0.000000
vt 0.846154 0.000000
vt 0.104615 0.000000
vt 0.058462 0.000000
vt 0.101538 0.000000
vt 0.061538 0.000000
vt 0.098462 0.000000
vt 0.981538 0.000000
vt 0.095385 0.000000
vt 0.064615 0.000000
vt 0.849231 0.000000
vt 0.092308 0.000000
vt 0.067692 0.000000
vt 0.089231 0.000000
vt 0.070769 0.000000
vt 0.086154 0.000000
vt 0.083077 0.000000
vt 0.073846 0.000000
vt 0.080000 0.000000
vt 0.076923 0.000000
vt 0.852308 0.000000
vt 0.978462 0.000000
vt 0.855385 0.000000
vt 0.975385 0.000000
vt 0.858462 0.000000
vt 0.861538 0.000000
vt 0.972308 0.000000
vt 0.864615 0.000000
vt 0.969231 0.000000
vt 0.867692 0.000000
vt 0.870769 0.000000
vt 0.966154 0.000000
vt 0.873846 0.000000
vt 0.963077 0.000000
vt 0.876923 0.000000
vt 0.880000 0.000000
vt 0.960000 0.000000
vt 0.883077 0.000000
vt 0.956923 0.000000
vt 0.886154 0.000000
vt 0.889231 0.000000
vt 0.953846 0.000000
vt 0.892308 0.000000
vt 0.950769 0.000000
vt 0.895385 0.000000
vt 0.898462 0.000000
vt 0.947692 0.000000
vt 0.901538 0.000000
vt 0.944615 0.000000
vt 0.904615 0.000000
vt 0.907692 0.000000
vt 0.941538 0.000000
vt 0.910769 0.000000
vt 0.938462 0.000000
vt 0.913846 0.000000
vt 0.916923 0.000000
vt 0.935385 0.000000
vt 0.920000 0.000000
vt 0.932308 0.000000
vt 0.923077 0.000000
vt 0.926154 0.000000
vt 0.929231 0.000000
vn 0.0000 -1.0000 0.0000
usemtl txt_s
s 1
f 1/1/1 2/2/1 3/3/1
f 4/4/1 2/2/1 1/1/1
f 4/4/1 5/5/1 2/2/1
f 6/6/1 5/5/1 4/4/1
f 6/6/1 7/7/1 5/5/1
f 8/8/1 7/7/1 6/6/1
f 9/9/1 7/7/1 8/8/1
f 9/9/1 10/10/1 7/7/1
f 11/11/1 10/10/1 9/9/1
f 11/11/1 12/12/1 10/10/1
f 13/13/1 12/12/1 11/11/1
f 13/13/1 14/14/1 12/12/1
f 15/15/1 14/14/1 13/13/1
f 16/16/1 14/14/1 15/15/1
f 16/16/1 17/17/1 14/14/1
f 18/18/1 17/17/1 16/16/1
f 18/18/1 19/19/1 17/17/1
f 20/20/1 19/19/1 18/18/1
f 20/20/1 21/21/1 19/19/1
f 22/22/1 21/21/1 20/20/1
f 23/23/1 21/21/1 22/22/1
f 23/23/1 24/24/1 21/21/1
f 25/25/1 24/24/1 23/23/1
f 25/25/1 26/26/1 24/24/1
f 27/27/1 26/26/1 25/25/1
f 27/27/1 28/28/1 26/26/1
f 29/29/1 28/28/1 27/27/1
f 30/30/1 28/28/1 29/29/1
f 30/30/1 31/31/1 28/28/1
f 32/32/1 31/31/1 30/30/1
f 32/32/1 33/33/1 31/31/1
f 34/34/1 33/33/1 32/32/1
f 35/35/1 33/33/1 34/34/1
f 35/35/1 36/36/1 33/33/1
f 37/37/1 36/36/1 35/35/1
f 37/37/1 38/38/1 36/36/1
f 39/39/1 38/38/1 37/37/1
f 40/40/1 38/38/1 39/39/1
f 40/40/1 41/41/1 38/38/1
f 42/42/1 41/41/1 40/40/1
f 42/42/1 43/43/1 41/41/1
f 44/44/1 43/43/1 42/42/1
f 45/45/1 43/43/1 44/44/1
f 45/45/1 46/46/1 43/43/1
f 47/47/1 46/46/1 45/45/1
f 48/48/1 49/49/1 47/47/1
f 49/49/1 50/50/1 47/47/1
f 50/50/1 46/46/1 47/47/1
f 50/50/1 51/51/1 46/46/1
f 51/51/1 52/52/1 46/46/1
f 48/48/1 53/53/1 49/49/1
f 54/54/1 52/52/1 51/51/1
f 48/48/1 55/55/1 53/53/1
f 56/56/1 52/52/1 54/54/1
f 48/48/1 57/57/1 55/55/1
f 58/58/1 52/52/1 56/56/1
f 48/48/1 59/59/1 57/57/1
f 60/60/1 52/52/1 58/58/1
f 48/48/1 61/61/1 59/59/1
f 62/62/1 52/52/1 60/60/1
f 48/48/1 63/63/1 61/61/1
f 64/64/1 63/63/1 48/48/1
f 65/65/1 52/52/1 62/62/1
f 64/64/1 66/66/1 63/63/1
f 64/64/1 67/67/1 66/66/1
f 68/68/1 52/52/1 65/65/1
f 64/64/1 69/69/1 67/67/1
f 70/70/1 52/52/1 68/68/1
f 64/64/1 71/71/1 69/69/1
f 72/72/1 52/52/1 70/70/1
f 72/72/1 73/73/1 52/52/1
f 64/64/1 74/74/1 71/71/1
f 75/75/1 74/74/1 64/64/1
f 76/76/1 73/73/1 72/72/1
f 75/75/1 77/77/1 74/74/1
f 78/78/1 73/73/1 76/76/1
f 75/75/1 79/79/1 77/77/1
f 80/80/1 73/73/1 78/78/1
f 75/75/1 81/81/1 79/79/1
f 82/82/1 81/81/1 75/75/1
f 82/82/1 83/83/1 81/81/1
f 84/84/1 73/73/1 80/80/1
f 82/82/1 85/85/1 83/83/1
f 84/84/1 86/86/1 73/73/1
f 87/87/1 86/86/1 84/84/1
f 82/82/1 88/88/1 85/85/1
f 89/89/1 88/88/1 82/82/1
f 89/89/1 90/90/1 88/88/1
f 91/91/1 86/86/1 87/87/1
f 89/89/1 92/92/1 90/90/1
f 93/93/1 86/86/1 91/91/1
f 94/94/1 92/92/1 89/89/1
f 94/94/1 95/95/1 92/92/1
f 93/93/1 96/96/1 86/86/1
f 97/97/1 96/96/1 93/93/1
f 94/94/1 98/98/1 95/95/1
f 94/94/1 99/99/1 98/98/1
f 100/100/1 99/99/1 94/94/1
f 101/101/1 96/96/1 97/97/1
f 100/100/1 102/102/1 99/99/1
f 100/100/1 103/103/1 102/102/1
f 104/104/1 96/96/1 101/101/1
f 105/105/1 103/103/1 100/100/1
f 105/105/1 106/106/1 103/103/1
f 105/105/1 107/107/1 106/106/1
f 104/104/1 108/108/1 96/96/1
f 109/109/1 108/108/1 104/104/1
f 105/105/1 110/110/1 107/107/1
f 111/111/1 110/110/1 105/105/1
f 111/111/1 112/112/1 110/110/1
f 113/113/1 108/108/1 109/109/1
f 111/111/1 114/114/1 112/112/1
f 111/111/1 115/115/1 114/114/1
f 111/111/1 116/116/1 115/115/1
f 117/117/1 116/116/1 111/111/1
f 118/118/1 108/108/1 113/113/1
f 117/117/1 119/119/1 116/116/1
f 117/117/1 120/120/1 119/119/1
f 118/118/1 121/121/1 108/108/1
f 117/117/1 122/122/1 120/120/1
f 117/117/1 123/123/1 122/122/1
f 117/117/1 124/124/1 123/123/1
f 117/117/1 125/125/1 124/124/1
f 126/126/1 125/125/1 117/117/1
f 126/126/1 127/127/1 125/125/1
f 126/126/1 128/128/1 127/127/1
f 126/126/1 129/129/1 128/128/1
f 126/126/1 130/130/1 129/129/1
f 126/126/1 131/131/1 130/130/1
f 126/126/1 132/132/1 131/131/1
f 133/133/1 132/132/1 126/126/1
f 133/133/1 134/134/1 132/132/1
f 133/133/1 135/135/1 134/134/1
f 133/133/1 136/136/1 135/135/1
f 133/133/1 137/137/1 136/136/1
f 133/133/1 138/138/1 137/137/1
f 139/139/1 138/138/1 133/133/1
f 139/139/1 140/140/1 138/138/1
f 139/139/1 141/141/1 140/140/1
f 142/142/1 141/141/1 139/139/1
f 142/142/1 143/143/1 141/141/1
f 142/142/1 144/144/1 143/143/1
f 142/142/1 145/145/1 144/144/1
f 146/146/1 145/145/1 142/142/1
f 146/146/1 147/147/1 145/145/1
f 146/146/1 148/148/1 147/147/1
f 149/149/1 148/148/1 146/146/1
f 149/149/1 150/150/1 148/148/1
f 149/149/1 151/151/1 150/150/1
f 152/152/1 151/151/1 149/149/1
f 152/152/1 153/153/1 151/151/1
f 152/152/1 154/154/1 153/153/1
f 155/155/1 154/154/1 152/152/1
f 155/155/1 156/156/1 154/154/1
f 155/155/1 157/157/1 156/156/1
f 158/158/1 157/157/1 155/155/1
f 158/158/1 159/159/1 157/157/1
f 158/158/1 160/160/1 159/159/1
f 161/161/1 160/160/1 158/158/1
f 161/161/1 162/162/1 160/160/1
f 163/163/1 162/162/1 161/161/1
f 163/163/1 164/164/1 162/162/1
f 163/163/1 165/165/1 164/164/1
f 166/166/1 165/165/1 163/163/1
f 166/166/1 167/167/1 165/165/1
f 168/168/1 167/167/1 166/166/1
f 168/168/1 169/169/1 167/167/1
f 170/170/1 169/169/1 168/168/1
f 170/170/1 171/171/1 169/169/1
f 172/172/1 171/171/1 170/170/1
f 172/172/1 173/173/1 171/171/1
f 172/172/1 174/174/1 173/173/1
f 175/175/1 174/174/1 172/172/1
f 176/176/1 174/174/1 175/175/1
f 176/176/1 177/177/1 174/174/1
f 178/178/1 177/177/1 176/176/1
f 178/178/1 179/179/1 177/177/1
f 180/180/1 179/179/1 178/178/1
f 180/180/1 181/181/1 179/179/1
f 182/182/1 181/181/1 180/180/1
f 182/182/1 183/183/1 181/181/1
f 184/184/1 183/183/1 182/182/1
f 184/184/1 185/185/1 183/183/1
f 186/186/1 185/185/1 184/184/1
f 187/187/1 185/185/1 186/186/1
f 187/187/1 188/188/1 185/185/1
f 189/189/1 188/188/1 187/187/1
f 190/190/1 188/188/1 189/189/1
f 190/190/1 191/191/1 188/188/1
f 192/192/1 191/191/1 190/190/1
f 193/193/1 191/191/1 192/192/1
f 194/194/1 191/191/1 193/193/1
f 194/194/1 195/195/1 191/191/1
f 196/196/1 195/195/1 194/194/1
f 197/197/1 195/195/1 196/196/1
f 197/197/1 198/198/1 195/195/1
f 199/199/1 198/198/1 197/197/1
f 200/200/1 198/198/1 199/199/1
f 201/201/1 198/198/1 200/200/1
f 201/201/1 202/202/1 198/198/1
f 203/203/1 202/202/1 201/201/1
f 204/204/1 202/202/1 203/203/1
f 204/204/1 205/205/1 202/202/1
f 206/206/1 205/205/1 204/204/1
f 207/207/1 208/208/1 209/209/1
f 210/210/1 205/205/1 206/206/1
f 211/211/1 205/205/1 210/210/1
f 211/211/1 212/212/1 205/205/1
f 207/207/1 213/213/1 208/208/1
f 214/214/1 212/212/1 211/211/1
f 215/215/1 213/213/1 207/207/1
f 216/216/1 212/212/1 214/214/1
f 215/215/1 217/217/1 213/213/1
f 216/216/1 218/218/1 212/212/1
f 219/219/1 218/218/1 216/216/1
f 220/220/1 218/218/1 219/219/1
f 215/215/1 221/221/1 217/217/1
f 222/222/1 218/218/1 220/220/1
f 222/222/1 223/223/1 218/218/1
f 224/224/1 223/223/1 222/222/1
f 225/225/1 221/221/1 215/215/1
f 225/225/1 226/226/1 221/221/1
f 227/227/1 223/223/1 224/224/1
f 225/225/1 228/228/1 226/226/1
f 229/229/1 223/223/1 227/227/1
f 229/229/1 230/230/1 223/223/1
f 231/231/1 230/230/1 229/229/1
f 225/225/1 232/232/1 228/228/1
f 233/233/1 230/230/1 231/231/1
f 234/234/1 232/232/1 225/225/1
f 233/233/1 235/235/1 230/230/1
f 234/234/1 236/236/1 232/232/1
f 237/237/1 235/235/1 233/233/1
f 238/238/1 235/235/1 237/237/1
f 234/234/1 239/239/1 236/236/1
f 238/238/1 240/240/1 235/235/1
f 241/241/1 240/240/1 238/238/1
f 234/234/1 242/242/1 239/239/1
f 243/243/1 242/242/1 234/234/1
f 244/244/1 240/240/1 241/241/1
f 243/243/1 245/245/1 242/242/1
f 246/246/1 240/240/1 244/244/1
f 246/246/1 247/247/1 240/240/1
f 243/243/1 248/248/1 245/245/1
f 249/249/1 247/247/1 246/246/1
f 243/243/1 250/250/1 248/248/1
f 251/251/1 247/247/1 249/249/1
f 252/252/1 250/250/1 243/243/1
f 251/251/1 253/253/1 247/247/1
f 254/254/1 253/253/1 251/251/1
f 252/252/1 255/255/1 250/250/1
f 256/256/1 253/253/1 254/254/1
f 252/252/1 257/257/1 255/255/1
f 258/258/1 253/253/1 256/256/1
f 258/258/1 259/259/1 253/253/1
f 260/260/1 259/259/1 258/258/1
f 261/261/1 257/257/1 252/252/1
f 261/261/1 262/262/1 257/257/1
f 263/263/1 259/259/1 260/260/1
f 261/261/1 264/264/1 262/262/1
f 265/265/1 259/259/1 263/263/1
f 265/265/1 266/266/1 259/259/1
f 267/267/1 266/266/1 265/265/1
f 261/261/1 268/268/1 264/264/1
f 269/269/1 266/266/1 267/267/1
f 261/261/1 270/270/1 268/268/1
f 271/271/1 266/266/1 269/269/1
f 272/272/1 270/270/1 261/261/1
f 273/273/1 266/266/1 271/271/1
f 272/272/1 274/274/1 270/270/1
f 273/273/1 275/275/1 266/266/1
f 276/276/1 275/275/1 273/273/1
f 272/272/1 277/277/1 274/274/1
f 278/278/1 275/275/1 276/276/1
f 272/272/1 279/279/1 277/277/1
f 280/280/1 275/275/1 278/278/1
f 281/281/1 275/275/1 280/280/1
f 272/272/1 282/282/1 279/279/1
f 283/283/1 275/275/1 281/281/1
f 272/272/1 284/284/1 282/282/1
f 284/284/1 275/275/1 283/283/1
f 272/272/1 275/275/1 284/284/1
f 272/272/1 285/285/1 275/275/1
f 286/286/1 285/285/1 272/272/1
f 286/286/1 287/287/1 285/285/1
f 288/288/1 287/287/1 286/286/1
f 288/288/1 289/289/1 287/287/1
f 288/288/1 290/290/1 289/289/1
f 291/291/1 290/290/1 288/288/1
f 291/291/1 292/292/1 290/290/1
f 293/293/1 292/292/1 291/291/1
f 293/293/1 294/294/1 292/292/1
f 293/293/1 295/295/1 294/294/1
f 296/296/1 295/295/1 293/293/1
f 296/296/1 297/297/1 295/295/1
f 298/298/1 297/297/1 296/296/1
f 298/298/1 299/299/1 297/297/1
f 298/298/1 300/300/1 299/299/1
f 301/301/1 300/300/1 298/298/1
f 301/301/1 302/302/1 300/300/1
f 303/303/1 302/302/1 301/301/1
f 303/303/1 304/304/1 302/302/1
f 303/303/1 305/305/1 304/304/1
f 306/306/1 305/305/1 303/303/1
f 306/306/1 307/307/1 305/305/1
f 308/308/1 307/307/1 306/306/1
f 308/308/1 309/309/1 307/307/1
f 308/308/1 310/310/1 309/309/1
f 311/311/1 310/310/1 308/308/1
f 311/311/1 312/312/1 310/310/1
f 313/313/1 312/312/1 311/311/1
f 313/313/1 314/314/1 312/312/1
f 313/313/1 315/315/1 314/314/1
f 316/316/1 315/315/1 313/313/1
f 316/316/1 317/317/1 315/315/1
f 318/318/1 317/317/1 316/316/1
f 318/318/1 319/319/1 317/317/1
f 318/318/1 320/320/1 319/319/1
f 321/321/1 320/320/1 318/318/1
f 321/321/1 322/322/1 320/320/1
f 323/323/1 322/322/1 321/321/1
f 323/323/1 324/324/1 322/322/1
f 323/323/1 325/325/1 324/324/1
f 326/326/1 325/325/1 323/323/1
