# Blender v3.1.0 OBJ File: 'convert_meshes_orientation.blend'
# www.blender.org
mtllib txt_r.mtl
o txt_r
v 0.001232 0.000000 0.000000
v 0.311707 0.000000 0.798362
v 0.001232 0.000000 1.000341
v 0.516415 0.000000 1.000341
v 0.539828 0.000000 1.000170
v 0.562304 0.000000 0.999659
v 0.583841 0.000000 0.998806
v 0.604439 0.000000 0.997612
v 0.624100 0.000000 0.996076
v 0.642822 0.000000 0.994200
v 0.660606 0.000000 0.991982
v 0.677452 0.000000 0.989423
v 0.693359 0.000000 0.986523
v 0.708329 0.000000 0.983282
v 0.722360 0.000000 0.979699
v 0.735453 0.000000 0.975776
v 0.747873 0.000000 0.971390
v 0.759885 0.000000 0.966422
v 0.771490 0.000000 0.960871
v 0.782687 0.000000 0.954737
v 0.793477 0.000000 0.948020
v 0.803859 0.000000 0.940720
v 0.813834 0.000000 0.932837
v 0.823401 0.000000 0.924371
v 0.832561 0.000000 0.915323
v 0.841313 0.000000 0.905692
v 0.849658 0.000000 0.895478
v 0.857595 0.000000 0.884681
v 0.865007 0.000000 0.873391
v 0.871773 0.000000 0.861699
v 0.877896 0.000000 0.849603
v 0.883373 0.000000 0.837105
v 0.888207 0.000000 0.824204
v 0.892396 0.000000 0.810901
v 0.447496 0.000000 0.798362
v 0.895940 0.000000 0.797194
v 0.311707 0.000000 0.595019
v 0.461224 0.000000 0.798182
v 0.474203 0.000000 0.797642
v 0.486434 0.000000 0.796742
v 0.898840 0.000000 0.783085
v 0.497915 0.000000 0.795481
v 0.508648 0.000000 0.793861
v 0.518632 0.000000 0.791880
v 0.527868 0.000000 0.789539
v 0.536355 0.000000 0.786838
v 0.544093 0.000000 0.783777
v 0.551083 0.000000 0.780355
v 0.901096 0.000000 0.768573
v 0.557323 0.000000 0.776574
v 0.562815 0.000000 0.772432
v 0.567720 0.000000 0.767954
v 0.902707 0.000000 0.753658
v 0.572198 0.000000 0.763164
v 0.576249 0.000000 0.758060
v 0.579874 0.000000 0.752644
v 0.903673 0.000000 0.738340
v 0.583073 0.000000 0.746915
v 0.585845 0.000000 0.740873
v 0.588191 0.000000 0.734519
v 0.903996 0.000000 0.722620
v 0.590110 0.000000 0.727851
v 0.591602 0.000000 0.720872
v 0.903749 0.000000 0.708904
v 0.592669 0.000000 0.713579
v 0.593308 0.000000 0.705973
v 0.903010 0.000000 0.695506
v 0.593522 0.000000 0.698055
v 0.593386 0.000000 0.692648
v 0.901778 0.000000 0.682425
v 0.592981 0.000000 0.687346
v 0.592306 0.000000 0.682148
v 0.900053 0.000000 0.669661
v 0.591361 0.000000 0.677054
v 0.590145 0.000000 0.672064
v 0.588660 0.000000 0.667178
v 0.897836 0.000000 0.657215
v 0.586904 0.000000 0.662397
v 0.584878 0.000000 0.657720
v 0.582582 0.000000 0.653147
v 0.895125 0.000000 0.645087
v 0.580016 0.000000 0.648679
v 0.577180 0.000000 0.644314
v 0.891922 0.000000 0.633276
v 0.574074 0.000000 0.640054
v 0.570755 0.000000 0.635979
v 0.567279 0.000000 0.632169
v 0.888226 0.000000 0.621782
v 0.563647 0.000000 0.628625
v 0.559859 0.000000 0.625346
v 0.555914 0.000000 0.622332
v 0.551812 0.000000 0.619584
v 0.884037 0.000000 0.610606
v 0.547555 0.000000 0.617101
v 0.543141 0.000000 0.614883
v 0.538570 0.000000 0.612931
v 0.533844 0.000000 0.611244
v 0.528960 0.000000 0.609822
v 0.879355 0.000000 0.599748
v 0.523921 0.000000 0.608666
v 0.514074 0.000000 0.606486
v 0.504777 0.000000 0.604496
v 0.496029 0.000000 0.602695
v 0.487831 0.000000 0.601084
v 0.480183 0.000000 0.599662
v 0.874181 0.000000 0.589207
v 0.473085 0.000000 0.598430
v 0.466536 0.000000 0.597388
v 0.460537 0.000000 0.596535
v 0.455088 0.000000 0.595872
v 0.450188 0.000000 0.595398
v 0.445838 0.000000 0.595113
v 0.442037 0.000000 0.595019
v 0.311707 0.000000 0.406005
v 0.868513 0.000000 0.578983
v 0.862414 0.000000 0.569077
v 0.855946 0.000000 0.559488
v 0.849109 0.000000 0.550217
v 0.841901 0.000000 0.541264
v 0.834324 0.000000 0.532628
v 0.826377 0.000000 0.524309
v 0.818061 0.000000 0.516308
v 0.809375 0.000000 0.508624
v 0.800320 0.000000 0.501258
v 0.790894 0.000000 0.494209
v 0.781100 0.000000 0.487478
v 0.770935 0.000000 0.481064
v 0.764136 0.000000 0.477141
v 0.756928 0.000000 0.473331
v 0.749313 0.000000 0.469635
v 0.741291 0.000000 0.466052
v 0.732861 0.000000 0.462584
v 0.724023 0.000000 0.459229
v 0.714778 0.000000 0.455988
v 0.705126 0.000000 0.452860
v 0.695065 0.000000 0.449846
v 0.684598 0.000000 0.446946
v 0.673723 0.000000 0.444160
v 0.662440 0.000000 0.441487
v 0.671443 0.000000 0.438417
v 0.680030 0.000000 0.435346
v 0.688199 0.000000 0.432276
v 0.695951 0.000000 0.429205
v 0.703287 0.000000 0.426134
v 0.710205 0.000000 0.423064
v 0.716707 0.000000 0.419993
v 0.722791 0.000000 0.416922
v 0.728458 0.000000 0.413852
v 0.733709 0.000000 0.410781
v 0.738542 0.000000 0.407711
v 0.339001 0.000000 0.406005
v 0.742959 0.000000 0.404640
v 0.311707 0.000000 0.000000
v 0.345991 0.000000 0.405844
v 0.352857 0.000000 0.405360
v 0.359600 0.000000 0.404555
v 0.745908 0.000000 0.402399
v 0.366220 0.000000 0.403427
v 0.372716 0.000000 0.401977
v 0.749071 0.000000 0.399769
v 0.379090 0.000000 0.400205
v 0.385340 0.000000 0.398110
v 0.752448 0.000000 0.396750
v 0.391467 0.000000 0.395693
v 0.756037 0.000000 0.393343
v 0.397471 0.000000 0.392955
v 0.759840 0.000000 0.389548
v 0.403351 0.000000 0.389893
v 0.409109 0.000000 0.386510
v 0.763856 0.000000 0.385363
v 0.414743 0.000000 0.382804
v 0.768085 0.000000 0.380791
v 0.418885 0.000000 0.379558
v 0.772528 0.000000 0.375829
v 0.423121 0.000000 0.375734
v 0.777183 0.000000 0.370479
v 0.427452 0.000000 0.371332
v 0.431878 0.000000 0.366352
v 0.782052 0.000000 0.364741
v 0.436399 0.000000 0.360794
v 0.787134 0.000000 0.358614
v 0.441014 0.000000 0.354657
v 0.792430 0.000000 0.352098
v 0.445724 0.000000 0.347942
v 0.797683 0.000000 0.345516
v 0.450529 0.000000 0.340650
v 0.802637 0.000000 0.339190
v 0.455429 0.000000 0.332779
v 0.807292 0.000000 0.333120
v 0.811650 0.000000 0.327306
v 0.460423 0.000000 0.324330
v 0.815708 0.000000 0.321747
v 0.465513 0.000000 0.315303
v 0.819468 0.000000 0.316445
v 0.822930 0.000000 0.311398
v 0.470697 0.000000 0.305698
v 0.826093 0.000000 0.306607
v 0.828957 0.000000 0.302073
v 0.635828 0.000000 0.000000
v 0.831523 0.000000 0.297794
v 0.833791 0.000000 0.293771
v 0.835760 0.000000 0.290003
v 0.985197 0.000000 0.000000
vt 0.000000 0.000000
vt 1.000000 0.000000
vt 0.004950 0.000000
vt 0.009901 0.000000
vt 0.014851 0.000000
vt 0.019802 0.000000
vt 0.024752 0.000000
vt 0.029703 0.000000
vt 0.034653 0.000000
vt 0.039604 0.000000
vt 0.044554 0.000000
vt 0.049505 0.000000
vt 0.054455 0.000000
vt 0.059406 0.000000
vt 0.064356 0.000000
vt 0.069307 0.000000
vt 0.074257 0.000000
vt 0.079208 0.000000
vt 0.084158 0.000000
vt 0.089109 0.000000
vt 0.094059 0.000000
vt 0.099010 0.000000
vt 0.103960 0.000000
vt 0.108911 0.000000
vt 0.113861 0.000000
vt 0.118812 0.000000
vt 0.123762 0.000000
vt 0.128713 0.000000
vt 0.133663 0.000000
vt 0.138614 0.000000
vt 0.143564 0.000000
vt 0.148515 0.000000
vt 0.153465 0.000000
vt 0.158416 0.000000
vt 0.995049 0.000000
vt 0.163366 0.000000
vt 0.693069 0.000000
vt 0.990099 0.000000
vt 0.985148 0.000000
vt 0.980198 0.000000
vt 0.168317 0.000000
vt 0.975248 0.000000
vt 0.970297 0.000000
vt 0.965347 0.000000
vt 0.960396 0.000000
vt 0.955446 0.000000
vt 0.950495 0.000000
vt 0.945545 0.000000
vt 0.173267 0.000000
vt 0.940594 0.000000
vt 0.935644 0.000000
vt 0.930693 0.000000
vt 0.178218 0.000000
vt 0.925743 0.000000
vt 0.920792 0.000000
vt 0.915842 0.000000
vt 0.183168 0.000000
vt 0.910891 0.000000
vt 0.905941 0.000000
vt 0.900990 0.000000
vt 0.188119 0.000000
vt 0.896040 0.000000
vt 0.891089 0.000000
vt 0.193069 0.000000
vt 0.886139 0.000000
vt 0.881188 0.000000
vt 0.198020 0.000000
vt 0.876238 0.000000
vt 0.871287 0.000000
vt 0.202970 0.000000
vt 0.866337 0.000000
vt 0.861386 0.000000
vt 0.207921 0.000000
vt 0.856436 0.000000
vt 0.851485 0.000000
vt 0.846535 0.000000
vt 0.212871 0.000000
vt 0.841584 0.000000
vt 0.836634 0.000000
vt 0.831683 0.000000
vt 0.217822 0.000000
vt 0.826733 0.000000
vt 0.821782 0.000000
vt 0.222772 0.000000
vt 0.816832 0.000000
vt 0.811881 0.000000
vt 0.806931 0.000000
vt 0.227723 0.000000
vt 0.801980 0.000000
vt 0.797030 0.000000
vt 0.792079 0.000000
vt 0.787129 0.000000
vt 0.232673 0.000000
vt 0.782178 0.000000
vt 0.777228 0.000000
vt 0.772277 0.000000
vt 0.767327 0.000000
vt 0.762376 0.000000
vt 0.237624 0.000000
vt 0.757426 0.000000
vt 0.752475 0.000000
vt 0.747525 0.000000
vt 0.742574 0.000000
vt 0.737624 0.000000
vt 0.732673 0.000000
vt 0.242574 0.000000
vt 0.727723 0.000000
vt 0.722772 0.000000
vt 0.717822 0.000000
vt 0.712871 0.000000
vt 0.707921 0.000000
vt 0.702970 0.000000
vt 0.698020 0.000000
vt 0.683168 0.000000
vt 0.247525 0.000000
vt 0.252475 0.000000
vt 0.257426 0.000000
vt 0.262376 0.000000
vt 0.267327 0.000000
vt 0.272277 0.000000
vt 0.277228 0.000000
vt 0.282178 0.000000
vt 0.287129 0.000000
vt 0.292079 0.000000
vt 0.297030 0.000000
vt 0.301980 0.000000
vt 0.306931 0.000000
vt 0.311881 0.000000
vt 0.316832 0.000000
vt 0.321782 0.000000
vt 0.326733 0.000000
vt 0.331683 0.000000
vt 0.336634 0.000000
vt 0.341584 0.000000
vt 0.346535 0.000000
vt 0.351485 0.000000
vt 0.356436 0.000000
vt 0.361386 0.000000
vt 0.366337 0.000000
vt 0.371287 0.000000
vt 0.376238 0.000000
vt 0.381188 0.000000
vt 0.386139 0.000000
vt 0.391089 0.000000
vt 0.396040 0.000000
vt 0.400990 0.000000
vt 0.405941 0.000000
vt 0.410891 0.000000
vt 0.415842 0.000000
vt 0.420792 0.000000
vt 0.678218 0.000000
vt 0.425743 0.000000
vt 0.688119 0.000000
vt 0.673267 0.000000
vt 0.668317 0.000000
vt 0.663366 0.000000
vt 0.430693 0.000000
vt 0.658416 0.000000
vt 0.653465 0.000000
vt 0.435644 0.000000
vt 0.648515 0.000000
vt 0.643564 0.000000
vt 0.440594 0.000000
vt 0.638614 0.000000
vt 0.445545 0.000000
vt 0.633663 0.000000
vt 0.450495 0.000000
vt 0.628713 0.000000
vt 0.623762 0.000000
vt 0.455446 0.000000
vt 0.618812 0.000000
vt 0.460396 0.000000
vt 0.613861 0.000000
vt 0.465347 0.000000
vt 0.608911 0.000000
vt 0.470297 0.000000
vt 0.603960 0.000000
vt 0.599010 0.000000
vt 0.475248 0.000000
vt 0.594059 0.000000
vt 0.480198 0.000000
vt 0.589109 0.000000
vt 0.485149 0.000000
vt 0.584158 0.000000
vt 0.490099 0.000000
vt 0.579208 0.000000
vt 0.495050 0.000000
vt 0.574257 0.000000
vt 0.500000 0.000000
vt 0.504951 0.000000
vt 0.569307 0.000000
vt 0.509901 0.000000
vt 0.564356 0.000000
vt 0.514852 0.000000
vt 0.519802 0.000000
vt 0.559406 0.000000
vt 0.524752 0.000000
vt 0.529703 0.000000
vt 0.554455 0.000000
vt 0.534653 0.000000
vt 0.539604 0.000000
vt 0.544554 0.000000
vt 0.549505 0.000000
vn 0.0000 -1.0000 0.0000
usemtl txt_r
s 1
f 1/1/1 2/2/1 3/3/1
f 2/2/1 4/4/1 3/3/1
f 2/2/1 5/5/1 4/4/1
f 2/2/1 6/6/1 5/5/1
f 2/2/1 7/7/1 6/6/1
f 2/2/1 8/8/1 7/7/1
f 2/2/1 9/9/1 8/8/1
f 2/2/1 10/10/1 9/9/1
f 2/2/1 11/11/1 10/10/1
f 2/2/1 12/12/1 11/11/1
f 2/2/1 13/13/1 12/12/1
f 2/2/1 14/14/1 13/13/1
f 2/2/1 15/15/1 14/14/1
f 2/2/1 16/16/1 15/15/1
f 2/2/1 17/17/1 16/16/1
f 2/2/1 18/18/1 17/17/1
f 2/2/1 19/19/1 18/18/1
f 2/2/1 20/20/1 19/19/1
f 2/2/1 21/21/1 20/20/1
f 2/2/1 22/22/1 21/21/1
f 2/2/1 23/23/1 22/22/1
f 2/2/1 24/24/1 23/23/1
f 2/2/1 25/25/1 24/24/1
f 2/2/1 26/26/1 25/25/1
f 2/2/1 27/27/1 26/26/1
f 2/2/1 28/28/1 27/27/1
f 2/2/1 29/29/1 28/28/1
f 2/2/1 30/30/1 29/29/1
f 2/2/1 31/31/1 30/30/1
f 2/2/1 32/32/1 31/31/1
f 2/2/1 33/33/1 32/32/1
f 2/2/1 34/34/1 33/33/1
f 2/2/1 35/35/1 34/34/1
f 35/35/1 36/36/1 34/34/1
f 1/1/1 37/37/1 2/2/1
f 38/38/1 36/36/1 35/35/1
f 39/39/1 36/36/1 38/38/1
f 40/40/1 36/36/1 39/39/1
f 40/40/1 41/41/1 36/36/1
f 42/42/1 41/41/1 40/40/1
f 43/43/1 41/41/1 42/42/1
f 44/44/1 41/41/1 43/43/1
f 45/45/1 41/41/1 44/44/1
f 46/46/1 41/41/1 45/45/1
f 47/47/1 41/41/1 46/46/1
f 48/48/1 41/41/1 47/47/1
f 48/48/1 49/49/1 41/41/1
f 50/50/1 49/49/1 48/48/1
f 51/51/1 49/49/1 50/50/1
f 52/52/1 49/49/1 51/51/1
f 52/52/1 53/53/1 49/49/1
f 54/54/1 53/53/1 52/52/1
f 55/55/1 53/53/1 54/54/1
f 56/56/1 53/53/1 55/55/1
f 56/56/1 57/57/1 53/53/1
f 58/58/1 57/57/1 56/56/1
f 59/59/1 57/57/1 58/58/1
f 60/60/1 57/57/1 59/59/1
f 60/60/1 61/61/1 57/57/1
f 62/62/1 61/61/1 60/60/1
f 63/63/1 61/61/1 62/62/1
f 63/63/1 64/64/1 61/61/1
f 65/65/1 64/64/1 63/63/1
f 66/66/1 64/64/1 65/65/1
f 66/66/1 67/67/1 64/64/1
f 68/68/1 67/67/1 66/66/1
f 69/69/1 67/67/1 68/68/1
f 69/69/1 70/70/1 67/67/1
f 71/71/1 70/70/1 69/69/1
f 72/72/1 70/70/1 71/71/1
f 72/72/1 73/73/1 70/70/1
f 74/74/1 73/73/1 72/72/1
f 75/75/1 73/73/1 74/74/1
f 76/76/1 73/73/1 75/75/1
f 76/76/1 77/77/1 73/73/1
f 78/78/1 77/77/1 76/76/1
f 79/79/1 77/77/1 78/78/1
f 80/80/1 77/77/1 79/79/1
f 80/80/1 81/81/1 77/77/1
f 82/82/1 81/81/1 80/80/1
f 83/83/1 81/81/1 82/82/1
f 83/83/1 84/84/1 81/81/1
f 85/85/1 84/84/1 83/83/1
f 86/86/1 84/84/1 85/85/1
f 87/87/1 84/84/1 86/86/1
f 87/87/1 88/88/1 84/84/1
f 89/89/1 88/88/1 87/87/1
f 90/90/1 88/88/1 89/89/1
f 91/91/1 88/88/1 90/90/1
f 92/92/1 88/88/1 91/91/1
f 92/92/1 93/93/1 88/88/1
f 94/94/1 93/93/1 92/92/1
f 95/95/1 93/93/1 94/94/1
f 96/96/1 93/93/1 95/95/1
f 97/97/1 93/93/1 96/96/1
f 98/98/1 93/93/1 97/97/1
f 98/98/1 99/99/1 93/93/1
f 100/100/1 99/99/1 98/98/1
f 101/101/1 99/99/1 100/100/1
f 102/102/1 99/99/1 101/101/1
f 103/103/1 99/99/1 102/102/1
f 104/104/1 99/99/1 103/103/1
f 105/105/1 99/99/1 104/104/1
f 105/105/1 106/106/1 99/99/1
f 107/107/1 106/106/1 105/105/1
f 108/108/1 106/106/1 107/107/1
f 109/109/1 106/106/1 108/108/1
f 110/110/1 106/106/1 109/109/1
f 111/111/1 106/106/1 110/110/1
f 112/112/1 106/106/1 111/111/1
f 113/113/1 106/106/1 112/112/1
f 1/1/1 113/113/1 37/37/1
f 1/1/1 114/114/1 113/113/1
f 114/114/1 106/106/1 113/113/1
f 114/114/1 115/115/1 106/106/1
f 114/114/1 116/116/1 115/115/1
f 114/114/1 117/117/1 116/116/1
f 114/114/1 118/118/1 117/117/1
f 114/114/1 119/119/1 118/118/1
f 114/114/1 120/120/1 119/119/1
f 114/114/1 121/121/1 120/120/1
f 114/114/1 122/122/1 121/121/1
f 114/114/1 123/123/1 122/122/1
f 114/114/1 124/124/1 123/123/1
f 114/114/1 125/125/1 124/124/1
f 114/114/1 126/126/1 125/125/1
f 114/114/1 127/127/1 126/126/1
f 114/114/1 128/128/1 127/127/1
f 114/114/1 129/129/1 128/128/1
f 114/114/1 130/130/1 129/129/1
f 114/114/1 131/131/1 130/130/1
f 114/114/1 132/132/1 131/131/1
f 114/114/1 133/133/1 132/132/1
f 114/114/1 134/134/1 133/133/1
f 114/114/1 135/135/1 134/134/1
f 114/114/1 136/136/1 135/135/1
f 114/114/1 137/137/1 136/136/1
f 114/114/1 138/138/1 137/137/1
f 114/114/1 139/139/1 138/138/1
f 114/114/1 140/140/1 139/139/1
f 114/114/1 141/141/1 140/140/1
f 114/114/1 142/142/1 141/141/1
f 114/114/1 143/143/1 142/142/1
f 114/114/1 144/144/1 143/143/1
f 114/114/1 145/145/1 144/144/1
f 114/114/1 146/146/1 145/145/1
f 114/114/1 147/147/1 146/146/1
f 114/114/1 148/148/1 147/147/1
f 114/114/1 149/149/1 148/148/1
f 114/114/1 150/150/1 149/149/1
f 114/114/1 151/151/1 150/150/1
f 151/151/1 152/152/1 150/150/1
f 1/1/1 153/153/1 114/114/1
f 154/154/1 152/152/1 151/151/1
f 155/155/1 152/152/1 154/154/1
f 156/156/1 152/152/1 155/155/1
f 156/156/1 157/157/1 152/152/1
f 158/158/1 157/157/1 156/156/1
f 159/159/1 157/157/1 158/158/1
f 159/159/1 160/160/1 157/157/1
f 161/161/1 160/160/1 159/159/1
f 162/162/1 160/160/1 161/161/1
f 162/162/1 163/163/1 160/160/1
f 164/164/1 163/163/1 162/162/1
f 164/164/1 165/165/1 163/163/1
f 166/166/1 165/165/1 164/164/1
f 166/166/1 167/167/1 165/165/1
f 168/168/1 167/167/1 166/166/1
f 169/169/1 167/167/1 168/168/1
f 169/169/1 170/170/1 167/167/1
f 171/171/1 170/170/1 169/169/1
f 171/171/1 172/172/1 170/170/1
f 173/173/1 172/172/1 171/171/1
f 173/173/1 174/174/1 172/172/1
f 175/175/1 174/174/1 173/173/1
f 175/175/1 176/176/1 174/174/1
f 177/177/1 176/176/1 175/175/1
f 178/178/1 176/176/1 177/177/1
f 178/178/1 179/179/1 176/176/1
f 180/180/1 179/179/1 178/178/1
f 180/180/1 181/181/1 179/179/1
f 182/182/1 181/181/1 180/180/1
f 182/182/1 183/183/1 181/181/1
f 184/184/1 183/183/1 182/182/1
f 184/184/1 185/185/1 183/183/1
f 186/186/1 185/185/1 184/184/1
f 186/186/1 187/187/1 185/185/1
f 188/188/1 187/187/1 186/186/1
f 188/188/1 189/189/1 187/187/1
f 188/188/1 190/190/1 189/189/1
f 191/191/1 190/190/1 188/188/1
f 191/191/1 192/192/1 190/190/1
f 193/193/1 192/192/1 191/191/1
f 193/193/1 194/194/1 192/192/1
f 193/193/1 195/195/1 194/194/1
f 196/196/1 195/195/1 193/193/1
f 196/196/1 197/197/1 195/195/1
f 196/196/1 198/198/1 197/197/1
f 199/199/1 198/198/1 196/196/1
f 199/199/1 200/200/1 198/198/1
f 199/199/1 201/201/1 200/200/1
f 199/199/1 202/202/1 201/201/1
f 199/199/1 203/203/1 202/202/1
