# Blender v3.1.0 OBJ File: 'convert_meshes_orientation.blend'
# www.blender.org
mtllib txt_v.mtl
o txt_v
v 0.383166 0.000000 0.000000
v 0.328330 0.000000 1.004870
v 0.003428 0.000000 1.004870
v 0.554529 0.000000 0.281720
v 1.092607 0.000000 1.004870
v 0.777301 0.000000 1.004870
v 0.719722 0.000000 0.000000
vt 1.000000 0.000000
vt 0.166667 0.000000
vt 0.000000 0.000000
vt 0.333333 0.000000
vt 0.666667 0.000000
vt 0.500000 0.000000
vt 0.833333 0.000000
vn 0.0000 -1.0000 0.0000
usemtl txt_v
s 1
f 1/1/1 2/2/1 3/3/1
f 1/1/1 4/4/1 2/2/1
f 4/4/1 5/5/1 6/6/1
f 4/4/1 7/7/1 5/5/1
f 1/1/1 7/7/1 4/4/1
