# Blender v3.1.0 OBJ File: 'convert_meshes_orientation.blend'
# www.blender.org
mtllib txt_b.mtl
o txt_b
v 0.000335 0.000000 0.000000
v 0.313210 0.000000 0.800328
v 0.000335 0.000000 1.003661
v 0.580898 0.000000 1.003661
v 0.604621 0.000000 1.003163
v 0.627406 0.000000 1.001665
v 0.649255 0.000000 0.999169
v 0.670166 0.000000 0.995675
v 0.690142 0.000000 0.991180
v 0.709180 0.000000 0.985690
v 0.727281 0.000000 0.979199
v 0.744448 0.000000 0.971713
v 0.760678 0.000000 0.963226
v 0.775970 0.000000 0.953742
v 0.790325 0.000000 0.943257
v 0.803743 0.000000 0.931776
v 0.816156 0.000000 0.919558
v 0.827488 0.000000 0.906862
v 0.837740 0.000000 0.893692
v 0.846914 0.000000 0.880049
v 0.855009 0.000000 0.865927
v 0.862023 0.000000 0.851332
v 0.867960 0.000000 0.836260
v 0.872815 0.000000 0.820715
v 0.876593 0.000000 0.804691
v 0.450135 0.000000 0.800328
v 0.461595 0.000000 0.800157
v 0.879290 0.000000 0.788194
v 0.313210 0.000000 0.610001
v 0.472472 0.000000 0.799643
v 0.482762 0.000000 0.798787
v 0.492467 0.000000 0.797588
v 0.501589 0.000000 0.796048
v 0.510125 0.000000 0.794166
v 0.518078 0.000000 0.791941
v 0.525444 0.000000 0.789373
v 0.532226 0.000000 0.786463
v 0.880910 0.000000 0.771221
v 0.538423 0.000000 0.783212
v 0.544036 0.000000 0.779617
v 0.549064 0.000000 0.775681
v 0.553601 0.000000 0.771440
v 0.557746 0.000000 0.766933
v 0.881449 0.000000 0.753774
v 0.561493 0.000000 0.762160
v 0.564849 0.000000 0.757119
v 0.567807 0.000000 0.751814
v 0.881065 0.000000 0.739116
v 0.570373 0.000000 0.746243
v 0.572542 0.000000 0.740403
v 0.574319 0.000000 0.734300
v 0.879908 0.000000 0.724809
v 0.575699 0.000000 0.727928
v 0.576687 0.000000 0.721291
v 0.877984 0.000000 0.710856
v 0.577277 0.000000 0.714389
v 0.577476 0.000000 0.707218
v 0.875287 0.000000 0.697253
v 0.577277 0.000000 0.699500
v 0.576687 0.000000 0.692090
v 0.871821 0.000000 0.684003
v 0.575699 0.000000 0.684989
v 0.574319 0.000000 0.678197
v 0.867586 0.000000 0.671104
v 0.572542 0.000000 0.671715
v 0.570373 0.000000 0.665542
v 0.862580 0.000000 0.658557
v 0.567807 0.000000 0.659678
v 0.564849 0.000000 0.654123
v 0.856802 0.000000 0.646363
v 0.561493 0.000000 0.648876
v 0.557746 0.000000 0.643937
v 0.850255 0.000000 0.634519
v 0.553601 0.000000 0.639311
v 0.549064 0.000000 0.634991
v 0.544022 0.000000 0.630999
v 0.842939 0.000000 0.623028
v 0.538367 0.000000 0.627356
v 0.532097 0.000000 0.624058
v 0.525215 0.000000 0.621108
v 0.834852 0.000000 0.611889
v 0.517720 0.000000 0.618506
v 0.509611 0.000000 0.616248
v 0.500890 0.000000 0.614341
v 0.491556 0.000000 0.612778
v 0.481607 0.000000 0.611563
v 0.825994 0.000000 0.601101
v 0.471044 0.000000 0.610696
v 0.459870 0.000000 0.610176
v 0.448080 0.000000 0.610001
v 0.313210 0.000000 0.418992
v 0.819596 0.000000 0.594150
v 0.812720 0.000000 0.587447
v 0.805370 0.000000 0.580991
v 0.797544 0.000000 0.574781
v 0.789244 0.000000 0.568819
v 0.780466 0.000000 0.563104
v 0.771215 0.000000 0.557637
v 0.761487 0.000000 0.552416
v 0.751285 0.000000 0.547444
v 0.740606 0.000000 0.542718
v 0.729452 0.000000 0.538240
v 0.717823 0.000000 0.534009
v 0.735455 0.000000 0.529412
v 0.752294 0.000000 0.524299
v 0.768337 0.000000 0.518668
v 0.783585 0.000000 0.512519
v 0.798042 0.000000 0.505850
v 0.811704 0.000000 0.498665
v 0.824570 0.000000 0.490959
v 0.836644 0.000000 0.482738
v 0.847924 0.000000 0.473996
v 0.858411 0.000000 0.464738
v 0.868102 0.000000 0.454960
v 0.876998 0.000000 0.444664
v 0.885146 0.000000 0.433884
v 0.892584 0.000000 0.422653
v 0.470674 0.000000 0.418992
v 0.483912 0.000000 0.418803
v 0.899313 0.000000 0.410969
v 0.313210 0.000000 0.215658
v 0.496472 0.000000 0.418241
v 0.508350 0.000000 0.417301
v 0.519548 0.000000 0.415985
v 0.530067 0.000000 0.414296
v 0.539907 0.000000 0.412230
v 0.549066 0.000000 0.409788
v 0.905336 0.000000 0.398833
v 0.557545 0.000000 0.406973
v 0.565345 0.000000 0.403780
v 0.572464 0.000000 0.400211
v 0.578904 0.000000 0.396267
v 0.910648 0.000000 0.386246
v 0.584664 0.000000 0.391949
v 0.589859 0.000000 0.387320
v 0.594600 0.000000 0.382448
v 0.915252 0.000000 0.373207
v 0.598892 0.000000 0.377336
v 0.602731 0.000000 0.371980
v 0.919148 0.000000 0.359716
v 0.606117 0.000000 0.366381
v 0.609053 0.000000 0.360541
v 0.611537 0.000000 0.354458
v 0.922337 0.000000 0.345775
v 0.613569 0.000000 0.348132
v 0.615152 0.000000 0.341564
v 0.924816 0.000000 0.331380
v 0.616281 0.000000 0.334754
v 0.616957 0.000000 0.327701
v 0.926587 0.000000 0.316536
v 0.617184 0.000000 0.320405
v 0.616955 0.000000 0.312553
v 0.927649 0.000000 0.301237
v 0.616271 0.000000 0.304972
v 0.615130 0.000000 0.297663
v 0.928005 0.000000 0.285489
v 0.613533 0.000000 0.290624
v 0.611479 0.000000 0.283856
v 0.927751 0.000000 0.272590
v 0.608969 0.000000 0.277360
v 0.606001 0.000000 0.271132
v 0.926996 0.000000 0.259911
v 0.602579 0.000000 0.265178
v 0.598699 0.000000 0.259495
v 0.925735 0.000000 0.247450
v 0.594363 0.000000 0.254083
v 0.589570 0.000000 0.248940
v 0.584322 0.000000 0.244070
v 0.923972 0.000000 0.235208
v 0.578517 0.000000 0.239531
v 0.572056 0.000000 0.235388
v 0.564939 0.000000 0.231639
v 0.921705 0.000000 0.223183
v 0.557165 0.000000 0.228285
v 0.548735 0.000000 0.225325
v 0.539650 0.000000 0.222761
v 0.918934 0.000000 0.211378
v 0.529908 0.000000 0.220590
v 0.519510 0.000000 0.218815
v 0.508457 0.000000 0.217433
v 0.496747 0.000000 0.216447
v 0.484380 0.000000 0.215855
v 0.471359 0.000000 0.215658
v 0.915656 0.000000 0.199791
v 0.911877 0.000000 0.188425
v 0.907593 0.000000 0.177275
v 0.902806 0.000000 0.166345
v 0.897514 0.000000 0.155633
v 0.891718 0.000000 0.145140
v 0.885485 0.000000 0.134939
v 0.878882 0.000000 0.125096
v 0.871908 0.000000 0.115616
v 0.864562 0.000000 0.106497
v 0.856846 0.000000 0.097741
v 0.848759 0.000000 0.089345
v 0.840301 0.000000 0.081310
v 0.831473 0.000000 0.073634
v 0.822271 0.000000 0.066323
v 0.812702 0.000000 0.059372
v 0.802759 0.000000 0.052783
v 0.792447 0.000000 0.046554
v 0.785668 0.000000 0.042875
v 0.778338 0.000000 0.039367
v 0.770454 0.000000 0.036029
v 0.762019 0.000000 0.032862
v 0.753035 0.000000 0.029866
v 0.743498 0.000000 0.027042
v 0.733409 0.000000 0.024390
v 0.722769 0.000000 0.021907
v 0.711577 0.000000 0.019598
v 0.699833 0.000000 0.017457
v 0.687539 0.000000 0.015489
v 0.674693 0.000000 0.013692
v 0.657724 0.000000 0.011505
v 0.641734 0.000000 0.009509
v 0.626725 0.000000 0.007701
v 0.612696 0.000000 0.006085
v 0.599645 0.000000 0.004659
v 0.587573 0.000000 0.003424
v 0.576482 0.000000 0.002378
v 0.566369 0.000000 0.001522
v 0.557236 0.000000 0.000855
v 0.549082 0.000000 0.000380
v 0.541909 0.000000 0.000094
v 0.535714 0.000000 0.000000
vt 0.544643 0.000000
vt 0.772321 0.000000
vt 0.000000 0.000000
vt 0.004464 0.000000
vt 0.008929 0.000000
vt 0.013393 0.000000
vt 0.017857 0.000000
vt 0.022321 0.000000
vt 0.026786 0.000000
vt 0.031250 0.000000
vt 0.035714 0.000000
vt 0.040179 0.000000
vt 0.044643 0.000000
vt 0.049107 0.000000
vt 0.053571 0.000000
vt 0.058036 0.000000
vt 0.062500 0.000000
vt 0.066964 0.000000
vt 0.071429 0.000000
vt 0.075893 0.000000
vt 0.080357 0.000000
vt 0.084821 0.000000
vt 0.089286 0.000000
vt 0.093750 0.000000
vt 0.098214 0.000000
vt 0.767857 0.000000
vt 0.763393 0.000000
vt 0.102679 0.000000
vt 0.549107 0.000000
vt 0.758929 0.000000
vt 0.754464 0.000000
vt 0.750000 0.000000
vt 0.745536 0.000000
vt 0.741071 0.000000
vt 0.736607 0.000000
vt 0.732143 0.000000
vt 0.727679 0.000000
vt 0.107143 0.000000
vt 0.723214 0.000000
vt 0.718750 0.000000
vt 0.714286 0.000000
vt 0.709821 0.000000
vt 0.705357 0.000000
vt 0.111607 0.000000
vt 0.700893 0.000000
vt 0.696429 0.000000
vt 0.691964 0.000000
vt 0.116071 0.000000
vt 0.687500 0.000000
vt 0.683036 0.000000
vt 0.678571 0.000000
vt 0.120536 0.000000
vt 0.674107 0.000000
vt 0.669643 0.000000
vt 0.125000 0.000000
vt 0.665179 0.000000
vt 0.660714 0.000000
vt 0.129464 0.000000
vt 0.656250 0.000000
vt 0.651786 0.000000
vt 0.133929 0.000000
vt 0.647321 0.000000
vt 0.642857 0.000000
vt 0.138393 0.000000
vt 0.638393 0.000000
vt 0.633929 0.000000
vt 0.142857 0.000000
vt 0.629464 0.000000
vt 0.625000 0.000000
vt 0.147321 0.000000
vt 0.620536 0.000000
vt 0.616071 0.000000
vt 0.151786 0.000000
vt 0.611607 0.000000
vt 0.607143 0.000000
vt 0.602679 0.000000
vt 0.156250 0.000000
vt 0.598214 0.000000
vt 0.593750 0.000000
vt 0.589286 0.000000
vt 0.160714 0.000000
vt 0.584821 0.000000
vt 0.580357 0.000000
vt 0.575893 0.000000
vt 0.571429 0.000000
vt 0.566964 0.000000
vt 0.165179 0.000000
vt 0.562500 0.000000
vt 0.558036 0.000000
vt 0.553571 0.000000
vt 1.000000 0.000000
vt 0.169643 0.000000
vt 0.174107 0.000000
vt 0.178571 0.000000
vt 0.183036 0.000000
vt 0.187500 0.000000
vt 0.191964 0.000000
vt 0.196429 0.000000
vt 0.200893 0.000000
vt 0.205357 0.000000
vt 0.209821 0.000000
vt 0.214286 0.000000
vt 0.218750 0.000000
vt 0.223214 0.000000
vt 0.227679 0.000000
vt 0.232143 0.000000
vt 0.236607 0.000000
vt 0.241071 0.000000
vt 0.245536 0.000000
vt 0.250000 0.000000
vt 0.254464 0.000000
vt 0.258929 0.000000
vt 0.263393 0.000000
vt 0.267857 0.000000
vt 0.272321 0.000000
vt 0.276786 0.000000
vt 0.281250 0.000000
vt 0.995536 0.000000
vt 0.991071 0.000000
vt 0.285714 0.000000
vt 0.776786 0.000000
vt 0.986607 0.000000
vt 0.982143 0.000000
vt 0.977679 0.000000
vt 0.973214 0.000000
vt 0.968750 0.000000
vt 0.964286 0.000000
vt 0.290179 0.000000
vt 0.959821 0.000000
vt 0.955357 0.000000
vt 0.950893 0.000000
vt 0.946429 0.000000
vt 0.294643 0.000000
vt 0.941964 0.000000
vt 0.937500 0.000000
vt 0.933036 0.000000
vt 0.299107 0.000000
vt 0.928571 0.000000
vt 0.924107 0.000000
vt 0.303571 0.000000
vt 0.919643 0.000000
vt 0.915179 0.000000
vt 0.910714 0.000000
vt 0.308036 0.000000
vt 0.906250 0.000000
vt 0.901786 0.000000
vt 0.312500 0.000000
vt 0.897321 0.000000
vt 0.892857 0.000000
vt 0.316964 0.000000
vt 0.888393 0.000000
vt 0.883929 0.000000
vt 0.321429 0.000000
vt 0.879464 0.000000
vt 0.875000 0.000000
vt 0.325893 0.000000
vt 0.870536 0.000000
vt 0.866071 0.000000
vt 0.330357 0.000000
vt 0.861607 0.000000
vt 0.857143 0.000000
vt 0.334821 0.000000
vt 0.852679 0.000000
vt 0.848214 0.000000
vt 0.339286 0.000000
vt 0.843750 0.000000
vt 0.839286 0.000000
vt 0.834821 0.000000
vt 0.343750 0.000000
vt 0.830357 0.000000
vt 0.825893 0.000000
vt 0.821429 0.000000
vt 0.348214 0.000000
vt 0.816964 0.000000
vt 0.812500 0.000000
vt 0.808036 0.000000
vt 0.352679 0.000000
vt 0.803571 0.000000
vt 0.799107 0.000000
vt 0.794643 0.000000
vt 0.790179 0.000000
vt 0.785714 0.000000
vt 0.781250 0.000000
vt 0.357143 0.000000
vt 0.361607 0.000000
vt 0.366071 0.000000
vt 0.370536 0.000000
vt 0.375000 0.000000
vt 0.379464 0.000000
vt 0.383929 0.000000
vt 0.388393 0.000000
vt 0.392857 0.000000
vt 0.397321 0.000000
vt 0.401786 0.000000
vt 0.406250 0.000000
vt 0.410714 0.000000
vt 0.415179 0.000000
vt 0.419643 0.000000
vt 0.424107 0.000000
vt 0.428571 0.000000
vt 0.433036 0.000000
vt 0.437500 0.000000
vt 0.441964 0.000000
vt 0.446429 0.000000
vt 0.450893 0.000000
vt 0.455357 0.000000
vt 0.459821 0.000000
vt 0.464286 0.000000
vt 0.468750 0.000000
vt 0.473214 0.000000
vt 0.477679 0.000000
vt 0.482143 0.000000
vt 0.486607 0.000000
vt 0.491071 0.000000
vt 0.495536 0.000000
vt 0.500000 0.000000
vt 0.504464 0.000000
vt 0.508929 0.000000
vt 0.513393 0.000000
vt 0.517857 0.000000
vt 0.522321 0.000000
vt 0.526786 0.000000
vt 0.531250 0.000000
vt 0.535714 0.000000
vt 0.540179 0.000000
vn 0.0000 -1.0000 0.0000
usemtl txt_b
s 1
f 1/1/1 2/2/1 3/3/1
f 2/2/1 4/4/1 3/3/1
f 2/2/1 5/5/1 4/4/1
f 2/2/1 6/6/1 5/5/1
f 2/2/1 7/7/1 6/6/1
f 2/2/1 8/8/1 7/7/1
f 2/2/1 9/9/1 8/8/1
f 2/2/1 10/10/1 9/9/1
f 2/2/1 11/11/1 10/10/1
f 2/2/1 12/12/1 11/11/1
f 2/2/1 13/13/1 12/12/1
f 2/2/1 14/14/1 13/13/1
f 2/2/1 15/15/1 14/14/1
f 2/2/1 16/16/1 15/15/1
f 2/2/1 17/17/1 16/16/1
f 2/2/1 18/18/1 17/17/1
f 2/2/1 19/19/1 18/18/1
f 2/2/1 20/20/1 19/19/1
f 2/2/1 21/21/1 20/20/1
f 2/2/1 22/22/1 21/21/1
f 2/2/1 23/23/1 22/22/1
f 2/2/1 24/24/1 23/23/1
f 2/2/1 25/25/1 24/24/1
f 2/2/1 26/26/1 25/25/1
f 26/26/1 27/27/1 25/25/1
f 27/27/1 28/28/1 25/25/1
f 1/1/1 29/29/1 2/2/1
f 30/30/1 28/28/1 27/27/1
f 31/31/1 28/28/1 30/30/1
f 32/32/1 28/28/1 31/31/1
f 33/33/1 28/28/1 32/32/1
f 34/34/1 28/28/1 33/33/1
f 35/35/1 28/28/1 34/34/1
f 36/36/1 28/28/1 35/35/1
f 37/37/1 28/28/1 36/36/1
f 37/37/1 38/38/1 28/28/1
f 39/39/1 38/38/1 37/37/1
f 40/40/1 38/38/1 39/39/1
f 41/41/1 38/38/1 40/40/1
f 42/42/1 38/38/1 41/41/1
f 43/43/1 38/38/1 42/42/1
f 43/43/1 44/44/1 38/38/1
f 45/45/1 44/44/1 43/43/1
f 46/46/1 44/44/1 45/45/1
f 47/47/1 44/44/1 46/46/1
f 47/47/1 48/48/1 44/44/1
f 49/49/1 48/48/1 47/47/1
f 50/50/1 48/48/1 49/49/1
f 51/51/1 48/48/1 50/50/1
f 51/51/1 52/52/1 48/48/1
f 53/53/1 52/52/1 51/51/1
f 54/54/1 52/52/1 53/53/1
f 54/54/1 55/55/1 52/52/1
f 56/56/1 55/55/1 54/54/1
f 57/57/1 55/55/1 56/56/1
f 57/57/1 58/58/1 55/55/1
f 59/59/1 58/58/1 57/57/1
f 60/60/1 58/58/1 59/59/1
f 60/60/1 61/61/1 58/58/1
f 62/62/1 61/61/1 60/60/1
f 63/63/1 61/61/1 62/62/1
f 63/63/1 64/64/1 61/61/1
f 65/65/1 64/64/1 63/63/1
f 66/66/1 64/64/1 65/65/1
f 66/66/1 67/67/1 64/64/1
f 68/68/1 67/67/1 66/66/1
f 69/69/1 67/67/1 68/68/1
f 69/69/1 70/70/1 67/67/1
f 71/71/1 70/70/1 69/69/1
f 72/72/1 70/70/1 71/71/1
f 72/72/1 73/73/1 70/70/1
f 74/74/1 73/73/1 72/72/1
f 75/75/1 73/73/1 74/74/1
f 76/76/1 73/73/1 75/75/1
f 76/76/1 77/77/1 73/73/1
f 78/78/1 77/77/1 76/76/1
f 79/79/1 77/77/1 78/78/1
f 80/80/1 77/77/1 79/79/1
f 80/80/1 81/81/1 77/77/1
f 82/82/1 81/81/1 80/80/1
f 83/83/1 81/81/1 82/82/1
f 84/84/1 81/81/1 83/83/1
f 85/85/1 81/81/1 84/84/1
f 86/86/1 81/81/1 85/85/1
f 86/86/1 87/87/1 81/81/1
f 88/88/1 87/87/1 86/86/1
f 89/89/1 87/87/1 88/88/1
f 90/90/1 87/87/1 89/89/1
f 1/1/1 90/90/1 29/29/1
f 1/1/1 91/91/1 90/90/1
f 91/91/1 87/87/1 90/90/1
f 91/91/1 92/92/1 87/87/1
f 91/91/1 93/93/1 92/92/1
f 91/91/1 94/94/1 93/93/1
f 91/91/1 95/95/1 94/94/1
f 91/91/1 96/96/1 95/95/1
f 91/91/1 97/97/1 96/96/1
f 91/91/1 98/98/1 97/97/1
f 91/91/1 99/99/1 98/98/1
f 91/91/1 100/100/1 99/99/1
f 91/91/1 101/101/1 100/100/1
f 91/91/1 102/102/1 101/101/1
f 91/91/1 103/103/1 102/102/1
f 91/91/1 104/104/1 103/103/1
f 91/91/1 105/105/1 104/104/1
f 91/91/1 106/106/1 105/105/1
f 91/91/1 107/107/1 106/106/1
f 91/91/1 108/108/1 107/107/1
f 91/91/1 109/109/1 108/108/1
f 91/91/1 110/110/1 109/109/1
f 91/91/1 111/111/1 110/110/1
f 91/91/1 112/112/1 111/111/1
f 91/91/1 113/113/1 112/112/1
f 91/91/1 114/114/1 113/113/1
f 91/91/1 115/115/1 114/114/1
f 91/91/1 116/116/1 115/115/1
f 91/91/1 117/117/1 116/116/1
f 91/91/1 118/118/1 117/117/1
f 118/118/1 119/119/1 117/117/1
f 119/119/1 120/120/1 117/117/1
f 1/1/1 121/121/1 91/91/1
f 122/122/1 120/120/1 119/119/1
f 123/123/1 120/120/1 122/122/1
f 124/124/1 120/120/1 123/123/1
f 125/125/1 120/120/1 124/124/1
f 126/126/1 120/120/1 125/125/1
f 127/127/1 120/120/1 126/126/1
f 127/127/1 128/128/1 120/120/1
f 129/129/1 128/128/1 127/127/1
f 130/130/1 128/128/1 129/129/1
f 131/131/1 128/128/1 130/130/1
f 132/132/1 128/128/1 131/131/1
f 132/132/1 133/133/1 128/128/1
f 134/134/1 133/133/1 132/132/1
f 135/135/1 133/133/1 134/134/1
f 136/136/1 133/133/1 135/135/1
f 136/136/1 137/137/1 133/133/1
f 138/138/1 137/137/1 136/136/1
f 139/139/1 137/137/1 138/138/1
f 139/139/1 140/140/1 137/137/1
f 141/141/1 140/140/1 139/139/1
f 142/142/1 140/140/1 141/141/1
f 143/143/1 140/140/1 142/142/1
f 143/143/1 144/144/1 140/140/1
f 145/145/1 144/144/1 143/143/1
f 146/146/1 144/144/1 145/145/1
f 146/146/1 147/147/1 144/144/1
f 148/148/1 147/147/1 146/146/1
f 149/149/1 147/147/1 148/148/1
f 149/149/1 150/150/1 147/147/1
f 151/151/1 150/150/1 149/149/1
f 152/152/1 150/150/1 151/151/1
f 152/152/1 153/153/1 150/150/1
f 154/154/1 153/153/1 152/152/1
f 155/155/1 153/153/1 154/154/1
f 155/155/1 156/156/1 153/153/1
f 157/157/1 156/156/1 155/155/1
f 158/158/1 156/156/1 157/157/1
f 158/158/1 159/159/1 156/156/1
f 160/160/1 159/159/1 158/158/1
f 161/161/1 159/159/1 160/160/1
f 161/161/1 162/162/1 159/159/1
f 163/163/1 162/162/1 161/161/1
f 164/164/1 162/162/1 163/163/1
f 164/164/1 165/165/1 162/162/1
f 166/166/1 165/165/1 164/164/1
f 167/167/1 165/165/1 166/166/1
f 168/168/1 165/165/1 167/167/1
f 168/168/1 169/169/1 165/165/1
f 170/170/1 169/169/1 168/168/1
f 171/171/1 169/169/1 170/170/1
f 172/172/1 169/169/1 171/171/1
f 172/172/1 173/173/1 169/169/1
f 174/174/1 173/173/1 172/172/1
f 175/175/1 173/173/1 174/174/1
f 176/176/1 173/173/1 175/175/1
f 176/176/1 177/177/1 173/173/1
f 178/178/1 177/177/1 176/176/1
f 179/179/1 177/177/1 178/178/1
f 180/180/1 177/177/1 179/179/1
f 181/181/1 177/177/1 180/180/1
f 182/182/1 177/177/1 181/181/1
f 183/183/1 177/177/1 182/182/1
f 1/1/1 183/183/1 121/121/1
f 1/1/1 177/177/1 183/183/1
f 1/1/1 184/184/1 177/177/1
f 1/1/1 185/185/1 184/184/1
f 1/1/1 186/186/1 185/185/1
f 1/1/1 187/187/1 186/186/1
f 1/1/1 188/188/1 187/187/1
f 1/1/1 189/189/1 188/188/1
f 1/1/1 190/190/1 189/189/1
f 1/1/1 191/191/1 190/190/1
f 1/1/1 192/192/1 191/191/1
f 1/1/1 193/193/1 192/192/1
f 1/1/1 194/194/1 193/193/1
f 1/1/1 195/195/1 194/194/1
f 1/1/1 196/196/1 195/195/1
f 1/1/1 197/197/1 196/196/1
f 1/1/1 198/198/1 197/197/1
f 1/1/1 199/199/1 198/198/1
f 1/1/1 200/200/1 199/199/1
f 1/1/1 201/201/1 200/200/1
f 1/1/1 202/202/1 201/201/1
f 1/1/1 203/203/1 202/202/1
f 1/1/1 204/204/1 203/203/1
f 1/1/1 205/205/1 204/204/1
f 1/1/1 206/206/1 205/205/1
f 1/1/1 207/207/1 206/206/1
f 1/1/1 208/208/1 207/207/1
f 1/1/1 209/209/1 208/208/1
f 1/1/1 210/210/1 209/209/1
f 1/1/1 211/211/1 210/210/1
f 1/1/1 212/212/1 211/211/1
f 1/1/1 213/213/1 212/212/1
f 1/1/1 214/214/1 213/213/1
f 1/1/1 215/215/1 214/214/1
f 1/1/1 216/216/1 215/215/1
f 1/1/1 217/217/1 216/216/1
f 1/1/1 218/218/1 217/217/1
f 1/1/1 219/219/1 218/218/1
f 1/1/1 220/220/1 219/219/1
f 1/1/1 221/221/1 220/220/1
f 1/1/1 222/222/1 221/221/1
f 1/1/1 223/223/1 222/222/1
f 1/1/1 224/224/1 223/223/1
f 1/1/1 225/225/1 224/224/1
