# Blender v3.1.0 OBJ File: 'convert_meshes_orientation.blend'
# www.blender.org
mtllib txt_axis.mtl
o txt_axis
v 0.843153 0.100341 0.000000
v -0.000289 0.100341 0.000000
v -0.000289 -0.100341 0.000000
v 0.843153 -0.100341 0.000000
v 2.530037 0.100341 0.000000
v 1.686595 0.100341 0.000000
v 1.686595 -0.100341 0.000000
v 2.530037 -0.100341 0.000000
v 4.216920 0.100341 0.000000
v 3.373479 0.100341 0.000000
v 3.373479 -0.100341 0.000000
v 4.216920 -0.100341 0.000000
v 5.903803 0.100343 0.000000
v 5.060361 0.100341 0.000000
v 5.060361 -0.100341 0.000000
v 5.903803 -0.100340 0.000000
v 7.590687 0.100343 0.000000
v 6.747245 0.100343 0.000000
v 6.747245 -0.100339 0.000000
v 7.590687 -0.100339 0.000000
v 9.277570 0.100343 0.000000
v 8.434128 0.100343 0.000000
v 8.434128 -0.100339 0.000000
v 9.277570 -0.100339 0.000000
v 10.964454 0.100343 0.000000
v 10.121011 0.100343 0.000000
v 10.121011 -0.100339 0.000000
v 10.964454 -0.100339 0.000000
v 12.651337 0.100343 0.000000
v 11.807896 0.100343 0.000000
v 11.807896 -0.100339 0.000000
v 12.651337 -0.100339 0.000000
v 14.338221 0.100343 0.000000
v 13.494778 0.100343 0.000000
v 13.494779 -0.100339 0.000000
v 14.338221 -0.100339 0.000000
v 16.025105 0.100343 0.000000
v 15.181661 0.100343 0.000000
v 15.181663 -0.100339 0.000000
v 16.025105 -0.100339 0.000000
v 17.711988 0.100344 0.000000
v 16.868544 0.100343 0.000000
v 16.868546 -0.100339 0.000000
v 17.711988 -0.100338 0.000000
v 19.398872 0.100345 0.000000
v 18.555428 0.100345 0.000000
v 18.555429 -0.100337 0.000000
v 19.398872 -0.100337 0.000000
v 21.085754 0.100345 0.000000
v 20.242311 0.100345 0.000000
v 20.242313 -0.100337 0.000000
v 21.085754 -0.100337 0.000000
v 22.772636 0.100345 0.000000
v 21.929195 0.100345 0.000000
v 21.929195 -0.100337 0.000000
v 22.772636 -0.100337 0.000000
v 24.459520 0.100345 0.000000
v 23.616079 0.100345 0.000000
v 23.616079 -0.100337 0.000000
v 24.459520 -0.100337 0.000000
v 26.146404 0.100345 0.000000
v 25.302961 0.100345 0.000000
v 25.302963 -0.100337 0.000000
v 26.146404 -0.100337 0.000000
v 27.833288 0.100345 0.000000
v 26.989843 0.100345 0.000000
v 26.989843 -0.100337 0.000000
v 27.833288 -0.100337 0.000000
v 29.520172 0.100346 0.000000
v 28.676727 0.100345 0.000000
v 28.676727 -0.100336 0.000000
v 29.520172 -0.100336 0.000000
v 31.207056 0.100347 0.000000
v 30.363611 0.100347 0.000000
v 30.363611 -0.100335 0.000000
v 31.207056 -0.100335 0.000000
v 32.893940 0.100347 0.000000
v 32.050495 0.100347 0.000000
v 32.050495 -0.100335 0.000000
v 32.893940 -0.100335 0.000000
v 34.580822 0.100347 0.000000
v 33.737377 0.100347 0.000000
v 33.737377 -0.100335 0.000000
v 34.580822 -0.100335 0.000000
v 36.267704 0.100347 0.000000
v 35.424259 0.100347 0.000000
v 35.424259 -0.100335 0.000000
v 36.267704 -0.100335 0.000000
v 37.954586 0.100347 0.000000
v 37.111145 0.100347 0.000000
v 37.111145 -0.100335 0.000000
v 37.954586 -0.100335 0.000000
v 39.641472 0.100347 0.000000
v 38.798027 0.100347 0.000000
v 38.798027 -0.100335 0.000000
v 39.641472 -0.100335 0.000000
v 41.328354 0.100348 0.000000
v 40.484913 0.100348 0.000000
v 40.484913 -0.100334 0.000000
v 41.328354 -0.100334 0.000000
v 43.015240 0.100349 0.000000
v 42.171795 0.100349 0.000000
v 42.171795 -0.100334 0.000000
v 43.015240 -0.100333 0.000000
vt 0.000000 0.000000
vt 1.000000 0.000000
vt 1.000000 1.000000
vt 0.000000 1.000000
vt 0.000000 0.000000
vt 1.000000 0.000000
vt 1.000000 1.000000
vt 0.000000 1.000000
vt 0.000000 0.000000
vt 1.000000 0.000000
vt 1.000000 1.000000
vt 0.000000 1.000000
vt 0.000000 0.000000
vt 1.000000 0.000000
vt 1.000000 1.000000
vt 0.000000 1.000000
vt 0.000000 0.000000
vt 1.000000 0.000000
vt 1.000000 1.000000
vt 0.000000 1.000000
vt 0.000000 0.000000
vt 1.000000 0.000000
vt 1.000000 1.000000
vt 0.000000 1.000000
vt 0.000000 0.000000
vt 1.000000 0.000000
vt 1.000000 1.000000
vt 0.000000 1.000000
vt 0.000000 0.000000
vt 1.000000 0.000000
vt 1.000000 1.000000
vt 0.000000 1.000000
vt 0.000000 0.000000
vt 1.000000 0.000000
vt 1.000000 1.000000
vt 0.000000 1.000000
vt 0.000000 0.000000
vt 1.000000 0.000000
vt 1.000000 1.000000
vt 0.000000 1.000000
vt 0.000000 0.000000
vt 1.000000 0.000000
vt 1.000000 1.000000
vt 0.000000 1.000000
vt 0.000000 0.000000
vt 1.000000 0.000000
vt 1.000000 1.000000
vt 0.000000 1.000000
vt 0.000000 0.000000
vt 1.000000 0.000000
vt 1.000000 1.000000
vt 0.000000 1.000000
vt 0.000000 0.000000
vt 1.000000 0.000000
vt 1.000000 1.000000
vt 0.000000 1.000000
vt 0.000000 0.000000
vt 1.000000 0.000000
vt 1.000000 1.000000
vt 0.000000 1.000000
vt 0.000000 0.000000
vt 1.000000 0.000000
vt 1.000000 1.000000
vt 0.000000 1.000000
vt 0.000000 0.000000
vt 1.000000 0.000000
vt 1.000000 1.000000
vt 0.000000 1.000000
vt 0.000000 0.000000
vt 1.000000 0.000000
vt 1.000000 1.000000
vt 0.000000 1.000000
vt 0.000000 0.000000
vt 1.000000 0.000000
vt 1.000000 1.000000
vt 0.000000 1.000000
vt 0.000000 0.000000
vt 1.000000 0.000000
vt 1.000000 1.000000
vt 0.000000 1.000000
vt 0.000000 0.000000
vt 1.000000 0.000000
vt 1.000000 1.000000
vt 0.000000 1.000000
vt 0.000000 0.000000
vt 1.000000 0.000000
vt 1.000000 1.000000
vt 0.000000 1.000000
vt 0.000000 0.000000
vt 1.000000 0.000000
vt 1.000000 1.000000
vt 0.000000 1.000000
vt 0.000000 0.000000
vt 1.000000 0.000000
vt 1.000000 1.000000
vt 0.000000 1.000000
vt 0.000000 0.000000
vt 1.000000 0.000000
vt 1.000000 1.000000
vt 0.000000 1.000000
vt 0.000000 0.000000
vt 1.000000 0.000000
vt 1.000000 1.000000
vt 0.000000 1.000000
vn 0.0000 0.0000 1.0000
usemtl txt_axis
s 1
f 1/1/1 2/2/1 3/3/1 4/4/1
f 5/5/1 6/6/1 7/7/1 8/8/1
f 9/9/1 10/10/1 11/11/1 12/12/1
f 13/13/1 14/14/1 15/15/1 16/16/1
f 17/17/1 18/18/1 19/19/1 20/20/1
f 21/21/1 22/22/1 23/23/1 24/24/1
f 25/25/1 26/26/1 27/27/1 28/28/1
f 29/29/1 30/30/1 31/31/1 32/32/1
f 33/33/1 34/34/1 35/35/1 36/36/1
f 37/37/1 38/38/1 39/39/1 40/40/1
f 41/41/1 42/42/1 43/43/1 44/44/1
f 45/45/1 46/46/1 47/47/1 48/48/1
f 49/49/1 50/50/1 51/51/1 52/52/1
f 53/53/1 54/54/1 55/55/1 56/56/1
f 57/57/1 58/58/1 59/59/1 60/60/1
f 61/61/1 62/62/1 63/63/1 64/64/1
f 65/65/1 66/66/1 67/67/1 68/68/1
f 69/69/1 70/70/1 71/71/1 72/72/1
f 73/73/1 74/74/1 75/75/1 76/76/1
f 77/77/1 78/78/1 79/79/1 80/80/1
f 81/81/1 82/82/1 83/83/1 84/84/1
f 85/85/1 86/86/1 87/87/1 88/88/1
f 89/89/1 90/90/1 91/91/1 92/92/1
f 93/93/1 94/94/1 95/95/1 96/96/1
f 97/97/1 98/98/1 99/99/1 100/100/1
f 101/101/1 102/102/1 103/103/1 104/104/1
