# Blender v3.1.0 OBJ File: 'convert_meshes_orientation.blend'
# www.blender.org
mtllib txt_h.mtl
o txt_h
v 0.000403 0.000000 0.000000
v 0.309995 0.000000 1.001907
v 0.000403 0.000000 1.001907
v 0.309995 0.000000 0.651307
v 0.648293 0.000000 0.651307
v 0.959254 0.000000 1.001907
v 0.648293 0.000000 1.001907
v 0.959254 0.000000 0.000000
v 0.309995 0.000000 0.405274
v 0.648293 0.000000 0.405274
v 0.309995 0.000000 0.000000
v 0.648293 0.000000 0.000000
vt 1.000000 0.000000
vt 0.090909 0.000000
vt 0.000000 0.000000
vt 0.181818 0.000000
vt 0.272727 0.000000
vt 0.454545 0.000000
vt 0.363636 0.000000
vt 0.545455 0.000000
vt 0.818182 0.000000
vt 0.727273 0.000000
vt 0.909091 0.000000
vt 0.636364 0.000000
vn 0.0000 -1.0000 0.0000
usemtl txt_h
s 1
f 1/1/1 2/2/1 3/3/1
f 1/1/1 4/4/1 2/2/1
f 5/5/1 6/6/1 7/7/1
f 5/5/1 8/8/1 6/6/1
f 1/1/1 9/9/1 4/4/1
f 9/9/1 5/5/1 4/4/1
f 9/9/1 10/10/1 5/5/1
f 10/10/1 8/8/1 5/5/1
f 1/1/1 11/11/1 9/9/1
f 12/12/1 8/8/1 10/10/1
