# Blender v3.1.0 OBJ File: 'convert_meshes_orientation.blend'
# www.blender.org
mtllib txt_g.mtl
o txt_g
v 0.496313 0.000000 1.005947
v 0.549820 0.000000 1.006071
v 0.523606 0.000000 1.006273
v 0.574906 0.000000 1.005464
v 0.469966 0.000000 1.004969
v 0.598868 0.000000 1.004454
v 0.444565 0.000000 1.003339
v 0.621707 0.000000 1.003041
v 0.420108 0.000000 1.001058
v 0.643418 0.000000 1.001222
v 0.664008 0.000000 0.999001
v 0.396598 0.000000 0.998124
v 0.683470 0.000000 0.996374
v 0.374034 0.000000 0.994537
v 0.701809 0.000000 0.993343
v 0.352415 0.000000 0.990301
v 0.719023 0.000000 0.989911
v 0.331743 0.000000 0.985411
v 0.735112 0.000000 0.986072
v 0.750076 0.000000 0.981830
v 0.312016 0.000000 0.979869
v 0.763915 0.000000 0.977184
v 0.293233 0.000000 0.973677
v 0.777005 0.000000 0.972113
v 0.275398 0.000000 0.966832
v 0.789716 0.000000 0.966597
v 0.258508 0.000000 0.959336
v 0.802053 0.000000 0.960635
v 0.814011 0.000000 0.954229
v 0.237886 0.000000 0.948805
v 0.825595 0.000000 0.947377
v 0.218107 0.000000 0.937490
v 0.836802 0.000000 0.940080
v 0.847630 0.000000 0.932337
v 0.199173 0.000000 0.925392
v 0.858085 0.000000 0.924150
v 0.181087 0.000000 0.912506
v 0.868162 0.000000 0.915516
v 0.877863 0.000000 0.906438
v 0.163842 0.000000 0.898838
v 0.887186 0.000000 0.896913
v 0.147443 0.000000 0.884382
v 0.896134 0.000000 0.886946
v 0.904712 0.000000 0.876525
v 0.131890 0.000000 0.869144
v 0.912929 0.000000 0.865653
v 0.117180 0.000000 0.853118
v 0.920781 0.000000 0.854324
v 0.928272 0.000000 0.842542
v 0.103316 0.000000 0.836309
v 0.935399 0.000000 0.830303
v 0.090296 0.000000 0.818713
v 0.942162 0.000000 0.817612
v 0.078120 0.000000 0.800334
v 0.948565 0.000000 0.804466
v 0.954605 0.000000 0.790866
v 0.066790 0.000000 0.781169
v 0.516995 0.000000 0.793399
v 0.500857 0.000000 0.792924
v 0.527852 0.000000 0.793197
v 0.538380 0.000000 0.792592
v 0.485272 0.000000 0.791498
v 0.548584 0.000000 0.791583
v 0.558461 0.000000 0.790167
v 0.470244 0.000000 0.789123
v 0.960281 0.000000 0.776811
v 0.568012 0.000000 0.788350
v 0.455770 0.000000 0.785797
v 0.577239 0.000000 0.786127
v 0.586139 0.000000 0.783502
v 0.441854 0.000000 0.781521
v 0.594712 0.000000 0.780472
v 0.428492 0.000000 0.776294
v 0.056336 0.000000 0.761326
v 0.602960 0.000000 0.777037
v 0.610880 0.000000 0.773200
v 0.965596 0.000000 0.762301
v 0.415686 0.000000 0.770118
v 0.618477 0.000000 0.768958
v 0.403434 0.000000 0.762990
v 0.625746 0.000000 0.764312
v 0.632682 0.000000 0.759285
v 0.391740 0.000000 0.754911
v 0.970547 0.000000 0.747337
v 0.046791 0.000000 0.740906
v 0.639271 0.000000 0.753900
v 0.380599 0.000000 0.745883
v 0.645517 0.000000 0.748156
v 0.651419 0.000000 0.742054
v 0.975135 0.000000 0.731918
v 0.370014 0.000000 0.735905
v 0.656977 0.000000 0.735595
v 0.038156 0.000000 0.719916
v 0.359987 0.000000 0.724977
v 0.662190 0.000000 0.728778
v 0.667058 0.000000 0.721602
v 0.671582 0.000000 0.714068
v 0.675762 0.000000 0.706177
v 0.679597 0.000000 0.697926
v 0.683090 0.000000 0.689318
v 0.686236 0.000000 0.680352
v 0.350640 0.000000 0.713018
v 0.030429 0.000000 0.698349
v 0.342109 0.000000 0.699955
v 0.334388 0.000000 0.685786
v 0.023612 0.000000 0.676209
v 0.327483 0.000000 0.670509
v 0.017704 0.000000 0.653496
v 0.321387 0.000000 0.654127
v 0.316106 0.000000 0.636637
v 0.012703 0.000000 0.630208
v 0.311635 0.000000 0.618042
v 0.008614 0.000000 0.606346
v 0.307981 0.000000 0.598339
v 0.005431 0.000000 0.581911
v 0.305135 0.000000 0.577531
v 0.003160 0.000000 0.556901
v 0.303104 0.000000 0.555618
v 0.525591 0.000000 0.371621
v 0.988357 0.000000 0.573255
v 0.525591 0.000000 0.573255
v 0.725902 0.000000 0.371621
v 0.988357 0.000000 0.160070
v 0.001796 0.000000 0.531319
v 0.301884 0.000000 0.532594
v 0.301480 0.000000 0.508468
v 0.001342 0.000000 0.505161
v 0.301890 0.000000 0.482869
v 0.001756 0.000000 0.480280
v 0.303122 0.000000 0.458518
v 0.003004 0.000000 0.455875
v 0.305177 0.000000 0.435417
v 0.005081 0.000000 0.431946
v 0.308053 0.000000 0.413563
v 0.007989 0.000000 0.408495
v 0.311752 0.000000 0.392959
v 0.011728 0.000000 0.385521
v 0.316272 0.000000 0.373603
v 0.016298 0.000000 0.363027
v 0.321613 0.000000 0.355497
v 0.725902 0.000000 0.280389
v 0.021699 0.000000 0.341009
v 0.327775 0.000000 0.338640
v 0.027932 0.000000 0.319468
v 0.334761 0.000000 0.323031
v 0.342567 0.000000 0.308669
v 0.034995 0.000000 0.298404
v 0.351197 0.000000 0.295558
v 0.042890 0.000000 0.277818
v 0.360648 0.000000 0.283696
v 0.370832 0.000000 0.272925
v 0.716189 0.000000 0.274692
v 0.051614 0.000000 0.257711
v 0.706658 0.000000 0.269280
v 0.381664 0.000000 0.263092
v 0.697309 0.000000 0.264151
v 0.688147 0.000000 0.259309
v 0.393144 0.000000 0.254194
v 0.679167 0.000000 0.254749
v 0.061171 0.000000 0.238080
v 0.670371 0.000000 0.250475
v 0.405270 0.000000 0.246233
v 0.661757 0.000000 0.246485
v 0.653330 0.000000 0.242780
v 0.418045 0.000000 0.239210
v 0.645082 0.000000 0.239360
v 0.637022 0.000000 0.236226
v 0.431468 0.000000 0.233121
v 0.071483 0.000000 0.219086
v 0.629143 0.000000 0.233374
v 0.621448 0.000000 0.230808
v 0.445537 0.000000 0.227970
v 0.613814 0.000000 0.228485
v 0.606116 0.000000 0.226364
v 0.460252 0.000000 0.223757
v 0.598351 0.000000 0.224444
v 0.590525 0.000000 0.222727
v 0.475615 0.000000 0.220478
v 0.582632 0.000000 0.221213
v 0.574677 0.000000 0.219899
v 0.491627 0.000000 0.218137
v 0.566656 0.000000 0.218788
v 0.082474 0.000000 0.200894
v 0.558572 0.000000 0.217879
v 0.508285 0.000000 0.216731
v 0.550422 0.000000 0.217172
v 0.542209 0.000000 0.216667
v 0.525591 0.000000 0.216262
v 0.533932 0.000000 0.216365
v 0.094143 0.000000 0.183498
v 0.106492 0.000000 0.166902
v 0.119522 0.000000 0.151104
v 0.966423 0.000000 0.145377
v 0.133230 0.000000 0.136106
v 0.944918 0.000000 0.131488
v 0.147618 0.000000 0.121905
v 0.923837 0.000000 0.118400
v 0.162686 0.000000 0.108505
v 0.903186 0.000000 0.106118
v 0.178433 0.000000 0.095902
v 0.882960 0.000000 0.094638
v 0.194860 0.000000 0.084100
v 0.863161 0.000000 0.083962
v 0.211965 0.000000 0.073095
v 0.843791 0.000000 0.074088
v 0.824846 0.000000 0.065020
v 0.229751 0.000000 0.062889
v 0.806329 0.000000 0.056753
v 0.248318 0.000000 0.053492
v 0.788238 0.000000 0.049291
v 0.267772 0.000000 0.044911
v 0.770574 0.000000 0.042632
v 0.288112 0.000000 0.037148
v 0.753337 0.000000 0.036776
v 0.309338 0.000000 0.030201
v 0.736051 0.000000 0.031549
v 0.718235 0.000000 0.026776
v 0.331450 0.000000 0.024073
v 0.699893 0.000000 0.022458
v 0.354449 0.000000 0.018761
v 0.681021 0.000000 0.018595
v 0.378334 0.000000 0.014267
v 0.661623 0.000000 0.015187
v 0.641696 0.000000 0.012233
v 0.403103 0.000000 0.010588
v 0.621240 0.000000 0.009733
v 0.428760 0.000000 0.007728
v 0.600258 0.000000 0.007688
v 0.455304 0.000000 0.005686
v 0.578747 0.000000 0.006096
v 0.556707 0.000000 0.004961
v 0.482731 0.000000 0.004460
v 0.534140 0.000000 0.004280
v 0.511047 0.000000 0.004051
vt 0.420601 0.000000
vt 0.429185 0.000000
vt 0.424893 0.000000
vt 0.433476 0.000000
vt 0.416309 0.000000
vt 0.437768 0.000000
vt 0.412017 0.000000
vt 0.442060 0.000000
vt 0.407725 0.000000
vt 0.446352 0.000000
vt 0.450644 0.000000
vt 0.403433 0.000000
vt 0.454936 0.000000
vt 0.399142 0.000000
vt 0.459227 0.000000
vt 0.394850 0.000000
vt 0.463519 0.000000
vt 0.390558 0.000000
vt 0.467811 0.000000
vt 0.472103 0.000000
vt 0.386266 0.000000
vt 0.476395 0.000000
vt 0.381974 0.000000
vt 0.480687 0.000000
vt 0.377682 0.000000
vt 0.484979 0.000000
vt 0.373391 0.000000
vt 0.489270 0.000000
vt 0.493562 0.000000
vt 0.369099 0.000000
vt 0.497854 0.000000
vt 0.364807 0.000000
vt 0.502146 0.000000
vt 0.506438 0.000000
vt 0.360515 0.000000
vt 0.510730 0.000000
vt 0.356223 0.000000
vt 0.515021 0.000000
vt 0.519313 0.000000
vt 0.351931 0.000000
vt 0.523605 0.000000
vt 0.347639 0.000000
vt 0.527897 0.000000
vt 0.532189 0.000000
vt 0.343348 0.000000
vt 0.536481 0.000000
vt 0.339056 0.000000
vt 0.540773 0.000000
vt 0.545064 0.000000
vt 0.334764 0.000000
vt 0.549356 0.000000
vt 0.330472 0.000000
vt 0.553648 0.000000
vt 0.326180 0.000000
vt 0.557940 0.000000
vt 0.562232 0.000000
vt 0.321888 0.000000
vt 0.686695 0.000000
vt 0.690987 0.000000
vt 0.682403 0.000000
vt 0.678112 0.000000
vt 0.695279 0.000000
vt 0.673820 0.000000
vt 0.669528 0.000000
vt 0.699571 0.000000
vt 0.566524 0.000000
vt 0.665236 0.000000
vt 0.703863 0.000000
vt 0.660944 0.000000
vt 0.656652 0.000000
vt 0.708154 0.000000
vt 0.652360 0.000000
vt 0.712446 0.000000
vt 0.317597 0.000000
vt 0.648069 0.000000
vt 0.643777 0.000000
vt 0.570815 0.000000
vt 0.716738 0.000000
vt 0.639485 0.000000
vt 0.721030 0.000000
vt 0.635193 0.000000
vt 0.630901 0.000000
vt 0.725322 0.000000
vt 0.575107 0.000000
vt 0.313305 0.000000
vt 0.626609 0.000000
vt 0.729614 0.000000
vt 0.622318 0.000000
vt 0.618026 0.000000
vt 0.579399 0.000000
vt 0.733906 0.000000
vt 0.613734 0.000000
vt 0.309013 0.000000
vt 0.738197 0.000000
vt 0.609442 0.000000
vt 0.605150 0.000000
vt 0.600858 0.000000
vt 0.596566 0.000000
vt 0.592275 0.000000
vt 0.587983 0.000000
vt 0.583691 0.000000
vt 0.742489 0.000000
vt 0.304721 0.000000
vt 0.746781 0.000000
vt 0.751073 0.000000
vt 0.300429 0.000000
vt 0.755365 0.000000
vt 0.296137 0.000000
vt 0.759657 0.000000
vt 0.763949 0.000000
vt 0.291846 0.000000
vt 0.768240 0.000000
vt 0.287554 0.000000
vt 0.772532 0.000000
vt 0.283262 0.000000
vt 0.776824 0.000000
vt 0.278970 0.000000
vt 0.781116 0.000000
vt 0.000000 0.000000
vt 0.008584 0.000000
vt 0.004292 0.000000
vt 1.000000 0.000000
vt 0.012876 0.000000
vt 0.274678 0.000000
vt 0.785408 0.000000
vt 0.789700 0.000000
vt 0.270386 0.000000
vt 0.793991 0.000000
vt 0.266094 0.000000
vt 0.798283 0.000000
vt 0.261803 0.000000
vt 0.802575 0.000000
vt 0.257511 0.000000
vt 0.806867 0.000000
vt 0.253219 0.000000
vt 0.811159 0.000000
vt 0.248927 0.000000
vt 0.815451 0.000000
vt 0.244635 0.000000
vt 0.819743 0.000000
vt 0.995708 0.000000
vt 0.240343 0.000000
vt 0.824034 0.000000
vt 0.236051 0.000000
vt 0.828326 0.000000
vt 0.832618 0.000000
vt 0.231760 0.000000
vt 0.836910 0.000000
vt 0.227468 0.000000
vt 0.841202 0.000000
vt 0.845494 0.000000
vt 0.991416 0.000000
vt 0.223176 0.000000
vt 0.987124 0.000000
vt 0.849785 0.000000
vt 0.982833 0.000000
vt 0.978541 0.000000
vt 0.854077 0.000000
vt 0.974249 0.000000
vt 0.218884 0.000000
vt 0.969957 0.000000
vt 0.858369 0.000000
vt 0.965665 0.000000
vt 0.961373 0.000000
vt 0.862661 0.000000
vt 0.957082 0.000000
vt 0.952790 0.000000
vt 0.866953 0.000000
vt 0.214592 0.000000
vt 0.948498 0.000000
vt 0.944206 0.000000
vt 0.871245 0.000000
vt 0.939914 0.000000
vt 0.935622 0.000000
vt 0.875537 0.000000
vt 0.931330 0.000000
vt 0.927039 0.000000
vt 0.879828 0.000000
vt 0.922747 0.000000
vt 0.918455 0.000000
vt 0.884120 0.000000
vt 0.914163 0.000000
vt 0.210300 0.000000
vt 0.909871 0.000000
vt 0.888412 0.000000
vt 0.905579 0.000000
vt 0.901288 0.000000
vt 0.892704 0.000000
vt 0.896996 0.000000
vt 0.206009 0.000000
vt 0.201717 0.000000
vt 0.197425 0.000000
vt 0.017167 0.000000
vt 0.193133 0.000000
vt 0.021459 0.000000
vt 0.188841 0.000000
vt 0.025751 0.000000
vt 0.184549 0.000000
vt 0.030043 0.000000
vt 0.180258 0.000000
vt 0.034335 0.000000
vt 0.175966 0.000000
vt 0.038627 0.000000
vt 0.171674 0.000000
vt 0.042918 0.000000
vt 0.047210 0.000000
vt 0.167382 0.000000
vt 0.051502 0.000000
vt 0.163090 0.000000
vt 0.055794 0.000000
vt 0.158798 0.000000
vt 0.060086 0.000000
vt 0.154506 0.000000
vt 0.064378 0.000000
vt 0.150215 0.000000
vt 0.068670 0.000000
vt 0.072961 0.000000
vt 0.145923 0.000000
vt 0.077253 0.000000
vt 0.141631 0.000000
vt 0.081545 0.000000
vt 0.137339 0.000000
vt 0.085837 0.000000
vt 0.090129 0.000000
vt 0.133047 0.000000
vt 0.094421 0.000000
vt 0.128755 0.000000
vt 0.098712 0.000000
vt 0.124464 0.000000
vt 0.103004 0.000000
vt 0.107296 0.000000
vt 0.120172 0.000000
vt 0.111588 0.000000
vt 0.115880 0.000000
vn 0.0000 -1.0000 -0.0000
usemtl txt_g
s 1
f 1/1/1 2/2/1 3/3/1
f 1/1/1 4/4/1 2/2/1
f 5/5/1 4/4/1 1/1/1
f 5/5/1 6/6/1 4/4/1
f 7/7/1 6/6/1 5/5/1
f 7/7/1 8/8/1 6/6/1
f 9/9/1 8/8/1 7/7/1
f 9/9/1 10/10/1 8/8/1
f 9/9/1 11/11/1 10/10/1
f 12/12/1 11/11/1 9/9/1
f 12/12/1 13/13/1 11/11/1
f 14/14/1 13/13/1 12/12/1
f 14/14/1 15/15/1 13/13/1
f 16/16/1 15/15/1 14/14/1
f 16/16/1 17/17/1 15/15/1
f 18/18/1 17/17/1 16/16/1
f 18/18/1 19/19/1 17/17/1
f 18/18/1 20/20/1 19/19/1
f 21/21/1 20/20/1 18/18/1
f 21/21/1 22/22/1 20/20/1
f 23/23/1 22/22/1 21/21/1
f 23/23/1 24/24/1 22/22/1
f 25/25/1 24/24/1 23/23/1
f 25/25/1 26/26/1 24/24/1
f 27/27/1 26/26/1 25/25/1
f 27/27/1 28/28/1 26/26/1
f 27/27/1 29/29/1 28/28/1
f 30/30/1 29/29/1 27/27/1
f 30/30/1 31/31/1 29/29/1
f 32/32/1 31/31/1 30/30/1
f 32/32/1 33/33/1 31/31/1
f 32/32/1 34/34/1 33/33/1
f 35/35/1 34/34/1 32/32/1
f 35/35/1 36/36/1 34/34/1
f 37/37/1 36/36/1 35/35/1
f 37/37/1 38/38/1 36/36/1
f 37/37/1 39/39/1 38/38/1
f 40/40/1 39/39/1 37/37/1
f 40/40/1 41/41/1 39/39/1
f 42/42/1 41/41/1 40/40/1
f 42/42/1 43/43/1 41/41/1
f 42/42/1 44/44/1 43/43/1
f 45/45/1 44/44/1 42/42/1
f 45/45/1 46/46/1 44/44/1
f 47/47/1 46/46/1 45/45/1
f 47/47/1 48/48/1 46/46/1
f 47/47/1 49/49/1 48/48/1
f 50/50/1 49/49/1 47/47/1
f 50/50/1 51/51/1 49/49/1
f 52/52/1 51/51/1 50/50/1
f 52/52/1 53/53/1 51/51/1
f 54/54/1 53/53/1 52/52/1
f 54/54/1 55/55/1 53/53/1
f 54/54/1 56/56/1 55/55/1
f 57/57/1 58/58/1 54/54/1
f 58/58/1 56/56/1 54/54/1
f 57/57/1 59/59/1 58/58/1
f 60/60/1 56/56/1 58/58/1
f 61/61/1 56/56/1 60/60/1
f 57/57/1 62/62/1 59/59/1
f 63/63/1 56/56/1 61/61/1
f 64/64/1 56/56/1 63/63/1
f 57/57/1 65/65/1 62/62/1
f 64/64/1 66/66/1 56/56/1
f 67/67/1 66/66/1 64/64/1
f 57/57/1 68/68/1 65/65/1
f 69/69/1 66/66/1 67/67/1
f 70/70/1 66/66/1 69/69/1
f 57/57/1 71/71/1 68/68/1
f 72/72/1 66/66/1 70/70/1
f 57/57/1 73/73/1 71/71/1
f 74/74/1 73/73/1 57/57/1
f 75/75/1 66/66/1 72/72/1
f 76/76/1 66/66/1 75/75/1
f 76/76/1 77/77/1 66/66/1
f 74/74/1 78/78/1 73/73/1
f 79/79/1 77/77/1 76/76/1
f 74/74/1 80/80/1 78/78/1
f 81/81/1 77/77/1 79/79/1
f 82/82/1 77/77/1 81/81/1
f 74/74/1 83/83/1 80/80/1
f 82/82/1 84/84/1 77/77/1
f 85/85/1 83/83/1 74/74/1
f 86/86/1 84/84/1 82/82/1
f 85/85/1 87/87/1 83/83/1
f 88/88/1 84/84/1 86/86/1
f 89/89/1 84/84/1 88/88/1
f 89/89/1 90/90/1 84/84/1
f 85/85/1 91/91/1 87/87/1
f 92/92/1 90/90/1 89/89/1
f 93/93/1 91/91/1 85/85/1
f 93/93/1 94/94/1 91/91/1
f 95/95/1 90/90/1 92/92/1
f 95/95/1 96/96/1 90/90/1
f 96/96/1 97/97/1 90/90/1
f 97/97/1 98/98/1 90/90/1
f 98/98/1 99/99/1 90/90/1
f 99/99/1 100/100/1 90/90/1
f 100/100/1 101/101/1 90/90/1
f 93/93/1 102/102/1 94/94/1
f 103/103/1 102/102/1 93/93/1
f 103/103/1 104/104/1 102/102/1
f 103/103/1 105/105/1 104/104/1
f 106/106/1 105/105/1 103/103/1
f 106/106/1 107/107/1 105/105/1
f 108/108/1 107/107/1 106/106/1
f 108/108/1 109/109/1 107/107/1
f 108/108/1 110/110/1 109/109/1
f 111/111/1 110/110/1 108/108/1
f 111/111/1 112/112/1 110/110/1
f 113/113/1 112/112/1 111/111/1
f 113/113/1 114/114/1 112/112/1
f 115/115/1 114/114/1 113/113/1
f 115/115/1 116/116/1 114/114/1
f 117/117/1 116/116/1 115/115/1
f 117/117/1 118/118/1 116/116/1
f 119/119/1 120/120/1 121/121/1
f 119/119/1 122/122/1 120/120/1
f 122/122/1 123/123/1 120/120/1
f 124/124/1 118/118/1 117/117/1
f 124/124/1 125/125/1 118/118/1
f 124/124/1 126/126/1 125/125/1
f 127/127/1 126/126/1 124/124/1
f 127/127/1 128/128/1 126/126/1
f 129/129/1 128/128/1 127/127/1
f 129/129/1 130/130/1 128/128/1
f 131/131/1 130/130/1 129/129/1
f 131/131/1 132/132/1 130/130/1
f 133/133/1 132/132/1 131/131/1
f 133/133/1 134/134/1 132/132/1
f 135/135/1 134/134/1 133/133/1
f 135/135/1 136/136/1 134/134/1
f 137/137/1 136/136/1 135/135/1
f 137/137/1 138/138/1 136/136/1
f 139/139/1 138/138/1 137/137/1
f 139/139/1 140/140/1 138/138/1
f 141/141/1 123/123/1 122/122/1
f 142/142/1 140/140/1 139/139/1
f 142/142/1 143/143/1 140/140/1
f 144/144/1 143/143/1 142/142/1
f 144/144/1 145/145/1 143/143/1
f 144/144/1 146/146/1 145/145/1
f 147/147/1 146/146/1 144/144/1
f 147/147/1 148/148/1 146/146/1
f 149/149/1 148/148/1 147/147/1
f 149/149/1 150/150/1 148/148/1
f 149/149/1 151/151/1 150/150/1
f 152/152/1 123/123/1 141/141/1
f 153/153/1 151/151/1 149/149/1
f 154/154/1 123/123/1 152/152/1
f 153/153/1 155/155/1 151/151/1
f 156/156/1 123/123/1 154/154/1
f 157/157/1 123/123/1 156/156/1
f 153/153/1 158/158/1 155/155/1
f 159/159/1 123/123/1 157/157/1
f 160/160/1 158/158/1 153/153/1
f 161/161/1 123/123/1 159/159/1
f 160/160/1 162/162/1 158/158/1
f 163/163/1 123/123/1 161/161/1
f 164/164/1 123/123/1 163/163/1
f 160/160/1 165/165/1 162/162/1
f 166/166/1 123/123/1 164/164/1
f 167/167/1 123/123/1 166/166/1
f 160/160/1 168/168/1 165/165/1
f 169/169/1 168/168/1 160/160/1
f 170/170/1 123/123/1 167/167/1
f 171/171/1 123/123/1 170/170/1
f 169/169/1 172/172/1 168/168/1
f 173/173/1 123/123/1 171/171/1
f 174/174/1 123/123/1 173/173/1
f 169/169/1 175/175/1 172/172/1
f 176/176/1 123/123/1 174/174/1
f 177/177/1 123/123/1 176/176/1
f 169/169/1 178/178/1 175/175/1
f 179/179/1 123/123/1 177/177/1
f 180/180/1 123/123/1 179/179/1
f 169/169/1 181/181/1 178/178/1
f 182/182/1 123/123/1 180/180/1
f 183/183/1 181/181/1 169/169/1
f 184/184/1 123/123/1 182/182/1
f 183/183/1 185/185/1 181/181/1
f 186/186/1 123/123/1 184/184/1
f 187/187/1 123/123/1 186/186/1
f 183/183/1 188/188/1 185/185/1
f 189/189/1 123/123/1 187/187/1
f 188/188/1 123/123/1 189/189/1
f 183/183/1 123/123/1 188/188/1
f 190/190/1 123/123/1 183/183/1
f 191/191/1 123/123/1 190/190/1
f 192/192/1 123/123/1 191/191/1
f 192/192/1 193/193/1 123/123/1
f 194/194/1 193/193/1 192/192/1
f 194/194/1 195/195/1 193/193/1
f 196/196/1 195/195/1 194/194/1
f 196/196/1 197/197/1 195/195/1
f 198/198/1 197/197/1 196/196/1
f 198/198/1 199/199/1 197/197/1
f 200/200/1 199/199/1 198/198/1
f 200/200/1 201/201/1 199/199/1
f 202/202/1 201/201/1 200/200/1
f 202/202/1 203/203/1 201/201/1
f 204/204/1 203/203/1 202/202/1
f 204/204/1 205/205/1 203/203/1
f 204/204/1 206/206/1 205/205/1
f 207/207/1 206/206/1 204/204/1
f 207/207/1 208/208/1 206/206/1
f 209/209/1 208/208/1 207/207/1
f 209/209/1 210/210/1 208/208/1
f 211/211/1 210/210/1 209/209/1
f 211/211/1 212/212/1 210/210/1
f 213/213/1 212/212/1 211/211/1
f 213/213/1 214/214/1 212/212/1
f 215/215/1 214/214/1 213/213/1
f 215/215/1 216/216/1 214/214/1
f 215/215/1 217/217/1 216/216/1
f 218/218/1 217/217/1 215/215/1
f 218/218/1 219/219/1 217/217/1
f 220/220/1 219/219/1 218/218/1
f 220/220/1 221/221/1 219/219/1
f 222/222/1 221/221/1 220/220/1
f 222/222/1 223/223/1 221/221/1
f 222/222/1 224/224/1 223/223/1
f 225/225/1 224/224/1 222/222/1
f 225/225/1 226/226/1 224/224/1
f 227/227/1 226/226/1 225/225/1
f 227/227/1 228/228/1 226/226/1
f 229/229/1 228/228/1 227/227/1
f 229/229/1 230/230/1 228/228/1
f 229/229/1 231/231/1 230/230/1
f 232/232/1 231/231/1 229/229/1
f 232/232/1 233/233/1 231/231/1
f 234/234/1 233/233/1 232/232/1
