# Blender v2.90.0 OBJ File: ''
# www.blender.org
mtllib Arrow.mtl
o Arrow
v -0.074730 0.501066 -0.107150
v -0.074730 -0.232037 -0.035717
v -0.074730 0.501066 0.100006
v -0.074730 -0.117700 0.164297
v -0.074730 -0.238763 0.028573
v -0.074730 -0.501066 -0.007144
v -0.074730 -0.110975 -0.164297
v 0.074730 0.501066 -0.107150
v 0.074730 0.501066 0.100006
v 0.074730 -0.232037 -0.035717
v 0.074730 -0.117700 0.164297
v 0.074730 -0.501066 -0.007144
v 0.074730 -0.238763 0.028573
v 0.074730 -0.110975 -0.164297
vn -1.0000 -0.0000 0.0000
vn 1.0000 -0.0000 0.0000
vn 0.0000 1.0000 0.0000
vn 0.0000 -0.0970 -0.9953
vn 0.0000 0.7281 0.6855
vn 0.0000 -0.3737 -0.9276
vn 0.0000 -0.4082 0.9129
vn 0.0000 0.7463 -0.6657
vn 0.0000 -0.0961 0.9954
usemtl Arrow
s 1
f 1//1 2//1 3//1
f 4//1 5//1 6//1
f 7//1 6//1 2//1
f 2//1 6//1 5//1
f 3//1 2//1 5//1
f 8//2 9//2 10//2
f 11//2 12//2 13//2
f 14//2 10//2 12//2
f 9//2 13//2 10//2
f 10//2 13//2 12//2
f 8//3 1//3 3//3
f 8//3 3//3 9//3
f 1//4 8//4 2//4
f 8//4 10//4 2//4
f 14//5 7//5 2//5
f 14//5 2//5 10//5
f 7//6 14//6 6//6
f 14//6 12//6 6//6
f 4//7 6//7 12//7
f 11//7 4//7 12//7
f 4//8 13//8 5//8
f 4//8 11//8 13//8
f 3//9 5//9 13//9
f 9//9 3//9 13//9
