# Blender v2.90.0 OBJ File: 'obj_debugging2.blend'
# www.blender.org
mtllib Atom.mtl
o Atom
v 0.147515 -0.000001 -0.061103
v 0.156601 -0.000001 -0.031150
v 0.153396 -0.031525 -0.031150
v 0.144495 -0.029696 -0.061103
v 0.088708 -0.000001 0.132760
v 0.061103 0.000000 0.147515
v 0.059852 -0.012300 0.147515
v 0.086892 -0.017857 0.132760
v 0.132760 -0.000001 -0.088708
v 0.130043 -0.026725 -0.088708
v 0.112903 -0.000001 0.112903
v 0.110592 -0.022728 0.112903
v 0.112903 -0.000001 -0.112903
v 0.110592 -0.022728 -0.112903
v 0.132760 -0.000001 0.088708
v 0.130043 -0.026725 0.088708
v 0.088708 -0.000001 -0.132760
v 0.086892 -0.017857 -0.132760
v 0.147515 -0.000001 0.061103
v 0.144495 -0.029696 0.061103
v 0.061103 0.000000 -0.147515
v 0.059852 -0.012300 -0.147515
v 0.156602 -0.000001 0.031150
v 0.153396 -0.031525 0.031150
v 0.031150 0.000000 -0.156602
v 0.030512 -0.006271 -0.156602
v 0.159670 -0.000001 0.000000
v 0.156400 -0.032142 0.000000
v 0.031150 0.000000 0.156602
v 0.000000 0.000000 0.159670
v 0.030512 -0.006271 0.156602
v 0.000000 0.000000 -0.159670
v 0.028626 -0.012285 0.156602
v 0.028626 -0.012284 -0.156602
v 0.146729 -0.062968 0.000000
v 0.143910 -0.061758 -0.031150
v 0.056151 -0.024097 0.147515
v 0.135560 -0.058175 -0.061103
v 0.081519 -0.034983 0.132760
v 0.122001 -0.052356 -0.088708
v 0.103753 -0.044525 0.112903
v 0.103753 -0.044525 -0.112903
v 0.122001 -0.052356 0.088708
v 0.081519 -0.034983 -0.132760
v 0.135560 -0.058175 0.061103
v 0.056151 -0.024097 -0.147515
v 0.143910 -0.061758 0.031150
v 0.092667 -0.064499 0.112903
v 0.108964 -0.075842 0.088708
v 0.092667 -0.064499 -0.112903
v 0.072807 -0.050677 -0.132760
v 0.121074 -0.084272 0.061103
v 0.050151 -0.034907 -0.147515
v 0.128532 -0.089462 0.031150
v 0.025567 -0.017795 -0.156602
v 0.131050 -0.091215 0.000000
v 0.025567 -0.017795 0.156602
v 0.128532 -0.089462 -0.031150
v 0.050151 -0.034907 0.147515
v 0.121074 -0.084272 -0.061103
v 0.072807 -0.050677 0.132760
v 0.108964 -0.075842 -0.088708
v 0.110006 -0.115728 0.000000
v 0.107892 -0.113504 -0.031150
v 0.021461 -0.022578 0.156602
v 0.042098 -0.044288 0.147515
v 0.101632 -0.106919 -0.061103
v 0.061116 -0.064295 0.132760
v 0.091466 -0.096225 -0.088708
v 0.077786 -0.081832 0.112903
v 0.077786 -0.081832 -0.112903
v 0.091466 -0.096225 0.088708
v 0.061116 -0.064295 -0.132760
v 0.101632 -0.106919 0.061103
v 0.042098 -0.044288 -0.147515
v 0.107892 -0.113504 0.031150
v 0.021461 -0.022578 -0.156602
v 0.059721 -0.095815 -0.112903
v 0.046922 -0.075282 -0.132760
v 0.070225 -0.112667 0.088708
v 0.078029 -0.125189 0.061103
v 0.032321 -0.051855 -0.147515
v 0.082836 -0.132900 0.031150
v 0.016477 -0.026435 -0.156602
v 0.084458 -0.135503 0.000000
v 0.016477 -0.026435 0.156602
v 0.082836 -0.132900 -0.031150
v 0.032321 -0.051855 0.147515
v 0.078029 -0.125189 -0.061103
v 0.046922 -0.075282 0.132760
v 0.070225 -0.112667 -0.088708
v 0.059721 -0.095815 0.112903
v 0.054387 -0.146854 -0.031150
v 0.051232 -0.138333 -0.061103
v 0.021221 -0.057300 0.147515
v 0.030808 -0.083186 0.132760
v 0.046107 -0.124497 -0.088708
v 0.039211 -0.105876 0.112903
v 0.039211 -0.105876 -0.112903
v 0.046107 -0.124497 0.088708
v 0.030808 -0.083186 -0.132760
v 0.051232 -0.138333 0.061103
v 0.021221 -0.057300 -0.147515
v 0.054387 -0.146854 0.031150
v 0.010818 -0.029211 -0.156602
v 0.055453 -0.149731 0.000000
v 0.010818 -0.029211 0.156602
v 0.013432 -0.087685 -0.132760
v 0.009252 -0.060398 -0.147515
v 0.022337 -0.145814 0.061103
v 0.023712 -0.154796 0.031150
v 0.004717 -0.030791 -0.156602
v 0.024177 -0.157828 0.000000
v 0.004717 -0.030791 0.156602
v 0.023712 -0.154796 -0.031150
v 0.009252 -0.060398 0.147515
v 0.022337 -0.145814 -0.061103
v 0.013432 -0.087685 0.132760
v 0.020102 -0.131230 -0.088708
v 0.017096 -0.111602 0.112903
v 0.017096 -0.111602 -0.112903
v 0.020102 -0.131230 0.088708
v -0.003095 -0.061024 0.147515
v -0.004494 -0.088594 0.132760
v -0.007473 -0.147326 -0.061103
v -0.006726 -0.132590 -0.088708
v -0.005719 -0.112758 0.112903
v -0.005719 -0.112758 -0.112903
v -0.006726 -0.132590 0.088708
v -0.004494 -0.088594 -0.132760
v -0.007473 -0.147326 0.061103
v -0.003095 -0.061024 -0.147515
v -0.007933 -0.156401 0.031150
v -0.001578 -0.031110 -0.156602
v -0.008089 -0.159465 0.000000
v -0.001578 -0.031110 0.156602
v -0.007933 -0.156401 -0.031150
v -0.036976 -0.142806 0.061103
v -0.039254 -0.151602 0.031150
v -0.015316 -0.059152 -0.147515
v -0.007808 -0.030155 -0.156602
v -0.040023 -0.154572 0.000000
v -0.007808 -0.030155 0.156602
v -0.039254 -0.151602 -0.031150
v -0.015316 -0.059152 0.147515
v -0.036976 -0.142806 -0.061103
v -0.022235 -0.085875 0.132760
v -0.033278 -0.128522 -0.088708
v -0.028301 -0.109299 0.112903
v -0.028301 -0.109299 -0.112903
v -0.033278 -0.128522 0.088708
v -0.022235 -0.085875 -0.132760
v -0.064966 -0.132439 -0.061103
v -0.058468 -0.119192 -0.088708
v -0.039067 -0.079642 0.132760
v -0.049723 -0.101365 0.112903
v -0.049723 -0.101365 -0.112903
v -0.058468 -0.119192 0.088708
v -0.039067 -0.079642 -0.132760
v -0.064966 -0.132439 0.061103
v -0.026910 -0.054858 -0.147515
v -0.068967 -0.140597 0.031150
v -0.013719 -0.027967 -0.156602
v -0.070319 -0.143352 0.000000
v -0.013719 -0.027967 0.156602
v -0.068967 -0.140597 -0.031150
v -0.026910 -0.054858 0.147515
v -0.037402 -0.048318 -0.147515
v -0.019067 -0.024633 -0.156602
v -0.095858 -0.123836 0.031150
v -0.097736 -0.126262 0.000000
v -0.019067 -0.024633 0.156602
v -0.095858 -0.123836 -0.031150
v -0.037402 -0.048318 0.147515
v -0.090296 -0.116651 -0.061103
v -0.054299 -0.070147 0.132760
v -0.081265 -0.104983 -0.088708
v -0.069109 -0.089280 0.112903
v -0.069109 -0.089280 -0.112903
v -0.081265 -0.104983 0.088708
v -0.054299 -0.070147 -0.132760
v -0.090296 -0.116651 0.061103
v -0.067308 -0.057781 0.132760
v -0.085667 -0.073541 0.112903
v -0.100734 -0.086476 -0.088708
v -0.085667 -0.073541 -0.112903
v -0.100734 -0.086476 0.088708
v -0.067308 -0.057781 -0.132760
v -0.111929 -0.096086 0.061103
v -0.046363 -0.039801 -0.147515
v -0.118823 -0.102005 0.031150
v -0.023635 -0.020290 -0.156602
v -0.121151 -0.104003 0.000000
v -0.023636 -0.020290 0.156602
v -0.118823 -0.102005 -0.031150
v -0.046363 -0.039801 0.147515
v -0.111929 -0.096086 -0.061103
v -0.136925 -0.075998 0.031150
v -0.139607 -0.077487 0.000000
v -0.027236 -0.015117 0.156602
v -0.027236 -0.015117 -0.156602
v -0.136925 -0.075998 -0.031150
v -0.053425 -0.029653 0.147515
v -0.128980 -0.071588 -0.061103
v -0.077562 -0.043049 0.132760
v -0.116079 -0.064428 -0.088708
v -0.098717 -0.054791 0.112903
v -0.098717 -0.054791 -0.112903
v -0.116079 -0.064428 0.088708
v -0.077562 -0.043049 -0.132760
v -0.128980 -0.071588 0.061103
v -0.053425 -0.029653 -0.147515
v -0.126672 -0.039743 -0.088708
v -0.107726 -0.033798 -0.112903
v -0.107726 -0.033798 0.112903
v -0.126672 -0.039743 0.088708
v -0.084640 -0.026555 -0.132760
v -0.140750 -0.044160 0.061103
v -0.058301 -0.018292 -0.147515
v -0.149420 -0.046879 0.031150
v -0.029721 -0.009325 -0.156602
v -0.152347 -0.047798 0.000000
v -0.029721 -0.009325 0.156602
v -0.149420 -0.046879 -0.031150
v -0.058301 -0.018292 0.147515
v -0.140750 -0.044160 -0.061103
v -0.084640 -0.026555 0.132760
v -0.030990 -0.003151 -0.156602
v -0.158850 -0.016153 0.000000
v -0.155798 -0.015842 -0.031150
v -0.030990 -0.003151 0.156602
v -0.060789 -0.006181 0.147515
v -0.146758 -0.014923 -0.061103
v -0.088252 -0.008974 0.132760
v -0.132079 -0.013430 -0.088708
v -0.112324 -0.011421 0.112903
v -0.112324 -0.011421 -0.112903
v -0.132079 -0.013430 0.088708
v -0.088252 -0.008974 -0.132760
v -0.146758 -0.014923 0.061103
v -0.060789 -0.006181 -0.147515
v -0.155798 -0.015842 0.031150
v -0.112324 0.011423 -0.112903
v -0.088252 0.008975 -0.132760
v -0.132079 0.013432 0.088708
v -0.146758 0.014925 0.061103
v -0.060789 0.006182 -0.147515
v -0.155798 0.015844 0.031150
v -0.030990 0.003152 -0.156602
v -0.158850 0.016155 0.000000
v -0.030990 0.003152 0.156602
v -0.155798 0.015844 -0.031150
v -0.060789 0.006182 0.147515
v -0.146758 0.014925 -0.061103
v -0.088252 0.008975 0.132760
v -0.132079 0.013432 -0.088708
v -0.112324 0.011423 0.112903
v -0.029721 0.009326 0.156602
v -0.058300 0.018293 0.147515
v -0.149419 0.046882 -0.031150
v -0.140750 0.044162 -0.061103
v -0.084639 0.026557 0.132760
v -0.126671 0.039745 -0.088708
v -0.107726 0.033800 0.112903
v -0.107726 0.033800 -0.112903
v -0.126671 0.039745 0.088708
v -0.084639 0.026557 -0.132760
v -0.140750 0.044161 0.061103
v -0.058300 0.018293 -0.147515
v -0.149419 0.046882 0.031150
v -0.029721 0.009326 -0.156602
v -0.152346 0.047800 0.000000
v -0.116078 0.064429 0.088708
v -0.128979 0.071590 0.061103
v -0.077561 0.043050 -0.132760
v -0.053425 0.029654 -0.147515
v -0.136923 0.076000 0.031150
v -0.027236 0.015118 -0.156602
v -0.139606 0.077489 0.000000
v -0.027236 0.015118 0.156602
v -0.136923 0.076000 -0.031150
v -0.053425 0.029654 0.147515
v -0.128979 0.071590 -0.061103
v -0.077561 0.043050 0.132760
v -0.116078 0.064429 -0.088708
v -0.098716 0.054793 0.112903
v -0.098716 0.054793 -0.112903
v -0.118822 0.102007 -0.031150
v -0.111928 0.096088 -0.061103
v -0.046362 0.039801 0.147515
v -0.067307 0.057782 0.132760
v -0.100733 0.086477 -0.088708
v -0.085666 0.073543 0.112903
v -0.085666 0.073543 -0.112903
v -0.100733 0.086477 0.088708
v -0.067307 0.057782 -0.132760
v -0.111928 0.096088 0.061103
v -0.046362 0.039801 -0.147515
v -0.118822 0.102007 0.031150
v -0.023635 0.020290 -0.156602
v -0.121150 0.104005 0.000000
v -0.023636 0.020290 0.156602
v -0.054298 0.070148 -0.132760
v -0.037401 0.048319 -0.147515
v -0.090294 0.116652 0.061103
v -0.095856 0.123837 0.031150
v -0.019067 0.024633 -0.156602
v -0.097733 0.126263 0.000000
v -0.019067 0.024633 0.156602
v -0.095856 0.123837 -0.031150
v -0.037401 0.048319 0.147515
v -0.090294 0.116652 -0.061103
v -0.054298 0.070148 0.132760
v -0.081262 0.104984 -0.088708
v -0.069108 0.089282 0.112903
v -0.069108 0.089282 -0.112903
v -0.081262 0.104984 0.088708
v -0.026909 0.054859 0.147515
v -0.039066 0.079642 0.132760
v -0.064964 0.132440 -0.061103
v -0.058466 0.119193 -0.088708
v -0.049721 0.101366 0.112903
v -0.049721 0.101366 -0.112903
v -0.058466 0.119193 0.088708
v -0.039065 0.079642 -0.132760
v -0.064964 0.132440 0.061103
v -0.026909 0.054859 -0.147515
v -0.068965 0.140598 0.031150
v -0.013718 0.027967 -0.156602
v -0.070317 0.143352 0.000000
v -0.013718 0.027967 0.156602
v -0.068965 0.140598 -0.031150
v -0.036974 0.142806 0.061103
v -0.039252 0.151602 0.031150
v -0.015315 0.059152 -0.147515
v -0.007808 0.030155 -0.156602
v -0.040021 0.154572 0.000000
v -0.007808 0.030155 0.156602
v -0.039252 0.151602 -0.031150
v -0.015315 0.059152 0.147515
v -0.036974 0.142806 -0.061103
v -0.022234 0.085876 0.132760
v -0.033276 0.128522 -0.088708
v -0.028299 0.109300 0.112903
v -0.028299 0.109300 -0.112903
v -0.033276 0.128522 0.088708
v -0.022234 0.085876 -0.132760
v -0.007471 0.147326 -0.061103
v -0.006724 0.132590 -0.088708
v -0.004493 0.088594 0.132760
v -0.005718 0.112758 0.112903
v -0.005718 0.112758 -0.112903
v -0.006724 0.132590 0.088708
v -0.004493 0.088594 -0.132760
v -0.007471 0.147326 0.061103
v -0.003095 0.061024 -0.147515
v -0.007930 0.156401 0.031150
v -0.001578 0.031110 -0.156602
v -0.008086 0.159465 0.000000
v -0.001578 0.031110 0.156602
v -0.007930 0.156401 -0.031150
v -0.003095 0.061024 0.147515
v 0.009253 0.060398 -0.147515
v 0.004717 0.030790 -0.156602
v 0.023715 0.154795 0.031150
v 0.024180 0.157828 0.000000
v 0.004717 0.030790 0.156602
v 0.023715 0.154795 -0.031150
v 0.009253 0.060398 0.147515
v 0.022339 0.145814 -0.061103
v 0.013434 0.087685 0.132760
v 0.020104 0.131229 -0.088708
v 0.017097 0.111601 0.112903
v 0.017097 0.111601 -0.112903
v 0.020104 0.131229 0.088708
v 0.013434 0.087685 -0.132760
v 0.022339 0.145814 0.061103
v 0.046109 0.124496 -0.088708
v 0.039212 0.105875 -0.112903
v 0.039212 0.105875 0.112903
v 0.046109 0.124496 0.088708
v 0.030809 0.083186 -0.132760
v 0.051234 0.138332 0.061103
v 0.021222 0.057299 -0.147515
v 0.054389 0.146853 0.031150
v 0.010819 0.029211 -0.156602
v 0.055455 0.149730 0.000000
v 0.010819 0.029211 0.156602
v 0.054389 0.146853 -0.031150
v 0.021222 0.057299 0.147515
v 0.051234 0.138332 -0.061103
v 0.030809 0.083186 0.132760
v 0.016477 0.026435 0.156602
v 0.016477 0.026435 -0.156602
v 0.084460 0.135502 0.000000
v 0.082838 0.132898 -0.031150
v 0.032321 0.051855 0.147515
v 0.078031 0.125188 -0.061103
v 0.046923 0.075281 0.132760
v 0.070226 0.112666 -0.088708
v 0.059722 0.095814 0.112903
v 0.059722 0.095814 -0.112903
v 0.070226 0.112666 0.088708
v 0.046923 0.075281 -0.132760
v 0.078031 0.125188 0.061103
v 0.032321 0.051855 -0.147515
v 0.082838 0.132898 0.031150
v 0.077787 0.081831 0.112903
v 0.091468 0.096223 0.088708
v 0.077787 0.081831 -0.112903
v 0.061117 0.064294 -0.132760
v 0.101634 0.106917 0.061103
v 0.042098 0.044287 -0.147515
v 0.107894 0.113503 0.031150
v 0.021461 0.022577 -0.156602
v 0.110007 0.115726 0.000000
v 0.021461 0.022577 0.156602
v 0.107894 0.113503 -0.031150
v 0.042098 0.044287 0.147515
v 0.101634 0.106917 -0.061103
v 0.061117 0.064294 0.132760
v 0.091468 0.096223 -0.088708
v 0.131052 0.091213 0.000000
v 0.128533 0.089460 -0.031150
v 0.025567 0.017795 0.156602
v 0.050151 0.034906 0.147515
v 0.121076 0.084270 -0.061103
v 0.072808 0.050676 0.132760
v 0.108966 0.075841 -0.088708
v 0.092668 0.064497 0.112903
v 0.092668 0.064497 -0.112903
v 0.108966 0.075841 0.088708
v 0.072808 0.050675 -0.132760
v 0.121076 0.084270 0.061103
v 0.050151 0.034906 -0.147515
v 0.128533 0.089460 0.031150
v 0.025567 0.017795 -0.156602
v 0.103754 0.044523 -0.112903
v 0.081518 0.034982 -0.132760
v 0.122002 0.052354 0.088708
v 0.135561 0.058173 0.061103
v 0.056151 0.024096 -0.147515
v 0.143911 0.061756 0.031150
v 0.028626 0.012284 -0.156602
v 0.146730 0.062965 0.000000
v 0.028626 0.012284 0.156602
v 0.143911 0.061756 -0.031150
v 0.056151 0.024096 0.147515
v 0.135561 0.058173 -0.061103
v 0.081519 0.034982 0.132760
v 0.122002 0.052354 -0.088708
v 0.103754 0.044523 0.112903
v 0.030512 0.006270 0.156602
v 0.059852 0.012300 0.147515
v 0.153396 0.031522 -0.031150
v 0.144496 0.029694 -0.061103
v 0.086892 0.017856 0.132760
v 0.130043 0.026723 -0.088708
v 0.110592 0.022727 0.112903
v 0.110592 0.022727 -0.112903
v 0.130043 0.026723 0.088708
v 0.086892 0.017856 -0.132760
v 0.144496 0.029694 0.061103
v 0.059852 0.012300 -0.147515
v 0.153396 0.031522 0.031150
v 0.030512 0.006270 -0.156602
v 0.156401 0.032140 0.000000
v 0.039528 -0.800200 -0.016376
v 0.041964 -0.800200 -0.008348
v 0.041104 -0.808649 -0.008348
v 0.038719 -0.808158 -0.016376
v 0.023768 -0.800200 0.035580
v 0.016370 -0.800200 0.039534
v 0.016034 -0.803496 0.039534
v 0.023281 -0.804985 0.035580
v 0.035574 -0.800200 -0.023774
v 0.034846 -0.807362 -0.023774
v 0.030253 -0.800200 0.030258
v 0.029633 -0.806291 0.030258
v 0.030253 -0.800200 -0.030258
v 0.029633 -0.806291 -0.030258
v 0.035574 -0.800200 0.023774
v 0.034846 -0.807362 0.023774
v 0.023768 -0.800200 -0.035580
v 0.023281 -0.804985 -0.035580
v 0.039528 -0.800200 0.016376
v 0.038719 -0.808158 0.016376
v 0.016370 -0.800200 -0.039534
v 0.016034 -0.803496 -0.039534
v 0.041964 -0.800200 0.008348
v 0.041104 -0.808649 0.008348
v 0.008342 -0.800200 -0.041970
v 0.008172 -0.801880 -0.041970
v 0.042786 -0.800200 0.000000
v 0.041910 -0.808814 0.000000
v 0.008342 -0.800200 0.041970
v -0.000006 -0.800199 0.042792
v 0.008172 -0.801880 0.041970
v -0.000006 -0.800199 -0.042792
v 0.007666 -0.803492 0.041970
v 0.007666 -0.803492 -0.041970
v 0.039318 -0.817076 0.000000
v 0.038562 -0.816751 -0.008348
v 0.015042 -0.806657 0.039534
v 0.036324 -0.815791 -0.016376
v 0.021841 -0.809575 0.035580
v 0.032690 -0.814231 -0.023774
v 0.027800 -0.812133 0.030258
v 0.027800 -0.812133 -0.030258
v 0.032690 -0.814231 0.023774
v 0.021841 -0.809575 -0.035580
v 0.036324 -0.815791 0.016376
v 0.015042 -0.806657 -0.039534
v 0.038562 -0.816751 0.008348
v 0.024829 -0.817486 0.030258
v 0.029197 -0.820526 0.023774
v 0.024829 -0.817486 -0.030258
v 0.019507 -0.813781 -0.035580
v 0.032442 -0.822785 0.016376
v 0.013435 -0.809555 -0.039534
v 0.034441 -0.824176 0.008348
v 0.006846 -0.804969 -0.041970
v 0.035116 -0.824646 0.000000
v 0.006846 -0.804969 0.041970
v 0.034441 -0.824176 -0.008348
v 0.013435 -0.809555 0.039534
v 0.032442 -0.822785 -0.016376
v 0.019507 -0.813781 0.035580
v 0.029197 -0.820526 -0.023774
v 0.029476 -0.831215 0.000000
v 0.028909 -0.830619 -0.008348
v 0.005746 -0.806250 0.041970
v 0.011276 -0.812069 0.039534
v 0.027232 -0.828854 -0.016376
v 0.016373 -0.817431 0.035580
v 0.024508 -0.825988 -0.023774
v 0.020841 -0.822131 0.030258
v 0.020841 -0.822131 -0.030258
v 0.024508 -0.825988 0.023774
v 0.016373 -0.817431 -0.035580
v 0.027232 -0.828854 0.016376
v 0.011276 -0.812069 -0.039534
v 0.028909 -0.830619 0.008348
v 0.005746 -0.806250 -0.041970
v 0.015999 -0.825878 -0.030258
v 0.012570 -0.820375 -0.035580
v 0.018814 -0.830395 0.023774
v 0.020906 -0.833751 0.016376
v 0.008656 -0.814097 -0.039534
v 0.022194 -0.835817 0.008348
v 0.004410 -0.807285 -0.041970
v 0.022629 -0.836515 0.000000
v 0.004410 -0.807285 0.041970
v 0.022194 -0.835817 -0.008348
v 0.008656 -0.814097 0.039534
v 0.020906 -0.833751 -0.016376
v 0.012570 -0.820375 0.035580
v 0.018814 -0.830395 -0.023774
v 0.015999 -0.825878 0.030258
v 0.014570 -0.839557 -0.008348
v 0.013724 -0.837273 -0.016376
v 0.005681 -0.815556 0.039534
v 0.008251 -0.822494 0.035580
v 0.012351 -0.833565 -0.023774
v 0.010503 -0.828575 0.030258
v 0.010503 -0.828575 -0.030258
v 0.012351 -0.833565 0.023774
v 0.008251 -0.822494 -0.035580
v 0.013724 -0.837273 0.016376
v 0.005681 -0.815556 -0.039534
v 0.014570 -0.839557 0.008348
v 0.002893 -0.808028 -0.041970
v 0.014855 -0.840328 0.000000
v 0.002893 -0.808028 0.041970
v 0.003594 -0.823699 -0.035580
v 0.002474 -0.816387 -0.039534
v 0.005980 -0.839279 0.016376
v 0.006349 -0.841686 0.008348
v 0.001258 -0.808452 -0.041970
v 0.006474 -0.842498 0.000000
v 0.001258 -0.808452 0.041970
v 0.006349 -0.841686 -0.008348
v 0.002474 -0.816387 0.039534
v 0.005980 -0.839279 -0.016376
v 0.003594 -0.823699 0.035580
v 0.005382 -0.835369 -0.023774
v 0.004576 -0.830109 0.030258
v 0.004576 -0.830109 -0.030258
v 0.005382 -0.835369 0.023774
v -0.000836 -0.816554 0.039534
v -0.001210 -0.823943 0.035580
v -0.002009 -0.839684 -0.016376
v -0.001808 -0.835734 -0.023774
v -0.001538 -0.830419 0.030258
v -0.001538 -0.830419 -0.030258
v -0.001808 -0.835734 0.023774
v -0.001210 -0.823943 -0.035580
v -0.002009 -0.839684 0.016376
v -0.000836 -0.816554 -0.039534
v -0.002132 -0.842115 0.008348
v -0.000429 -0.808538 -0.041970
v -0.002174 -0.842936 0.000000
v -0.000429 -0.808538 0.041970
v -0.002132 -0.842115 -0.008348
v -0.009916 -0.838472 0.016376
v -0.010526 -0.840829 0.008348
v -0.004111 -0.816052 -0.039534
v -0.002099 -0.808281 -0.041970
v -0.010732 -0.841626 0.000000
v -0.002099 -0.808281 0.041970
v -0.010526 -0.840829 -0.008348
v -0.004111 -0.816052 0.039534
v -0.009916 -0.838472 -0.016376
v -0.005965 -0.823215 0.035580
v -0.008925 -0.834644 -0.023774
v -0.007591 -0.829492 0.030258
v -0.007591 -0.829492 -0.030258
v -0.008925 -0.834644 0.023774
v -0.005965 -0.823215 -0.035580
v -0.017417 -0.835694 -0.016376
v -0.015675 -0.832143 -0.023774
v -0.010476 -0.821544 0.035580
v -0.013332 -0.827365 0.030258
v -0.013332 -0.827365 -0.030258
v -0.015675 -0.832143 0.023774
v -0.010476 -0.821544 -0.035580
v -0.017417 -0.835694 0.016376
v -0.007218 -0.814902 -0.039534
v -0.018490 -0.837880 0.008348
v -0.003683 -0.807695 -0.041970
v -0.018852 -0.838618 0.000000
v -0.003683 -0.807695 0.041970
v -0.018490 -0.837880 -0.008348
v -0.007218 -0.814902 0.039534
v -0.010030 -0.813149 -0.039534
v -0.005116 -0.806801 -0.041970
v -0.025696 -0.833388 0.008348
v -0.026200 -0.834038 0.000000
v -0.005116 -0.806801 0.041970
v -0.025696 -0.833388 -0.008348
v -0.010030 -0.813149 0.039534
v -0.024205 -0.831463 -0.016376
v -0.014558 -0.819000 0.035580
v -0.021785 -0.828335 -0.023774
v -0.018528 -0.824127 0.030258
v -0.018528 -0.824127 -0.030258
v -0.021785 -0.828335 0.023774
v -0.014558 -0.819000 -0.035580
v -0.024205 -0.831463 0.016376
v -0.018044 -0.815685 0.035580
v -0.022965 -0.819909 0.030258
v -0.027003 -0.823375 -0.023774
v -0.022965 -0.819909 -0.030258
v -0.027003 -0.823375 0.023774
v -0.018044 -0.815685 -0.035580
v -0.030003 -0.825951 0.016376
v -0.012431 -0.810867 -0.039534
v -0.031851 -0.827537 0.008348
v -0.006340 -0.805638 -0.041970
v -0.032475 -0.828073 0.000000
v -0.006340 -0.805638 0.041970
v -0.031851 -0.827537 -0.008348
v -0.012431 -0.810867 0.039534
v -0.030003 -0.825951 -0.016376
v -0.036702 -0.820567 0.008348
v -0.037421 -0.820967 0.000000
v -0.007305 -0.804251 0.041970
v -0.007305 -0.804251 -0.041970
v -0.036702 -0.820567 -0.008348
v -0.014324 -0.808146 0.039534
v -0.034573 -0.819385 -0.016376
v -0.020793 -0.811737 0.035580
v -0.031115 -0.817467 -0.023774
v -0.026462 -0.814884 0.030258
v -0.026462 -0.814884 -0.030258
v -0.031115 -0.817467 0.023774
v -0.020793 -0.811737 -0.035580
v -0.034573 -0.819385 0.016376
v -0.014324 -0.808146 -0.039534
v -0.033955 -0.810851 -0.023774
v -0.028877 -0.809257 -0.030258
v -0.028877 -0.809257 0.030258
v -0.033955 -0.810851 0.023774
v -0.022690 -0.807317 -0.035580
v -0.037727 -0.812035 0.016376
v -0.015631 -0.805102 -0.039534
v -0.040051 -0.812763 0.008348
v -0.007972 -0.802699 -0.041970
v -0.040836 -0.813010 0.000000
v -0.007972 -0.802699 0.041970
v -0.040051 -0.812763 -0.008348
v -0.015631 -0.805102 0.039534
v -0.037727 -0.812035 -0.016376
v -0.022690 -0.807317 0.035580
v -0.008311 -0.801044 -0.041970
v -0.042579 -0.804528 0.000000
v -0.041761 -0.804445 -0.008348
v -0.008311 -0.801044 0.041970
v -0.016297 -0.801856 0.039534
v -0.039337 -0.804199 -0.016376
v -0.023658 -0.802604 0.035580
v -0.035404 -0.803799 -0.023774
v -0.030109 -0.803261 0.030258
v -0.030109 -0.803261 -0.030258
v -0.035404 -0.803799 0.023774
v -0.023658 -0.802604 -0.035580
v -0.039337 -0.804199 0.016376
v -0.016297 -0.801856 -0.039534
v -0.041761 -0.804445 0.008348
v -0.030109 -0.797138 -0.030258
v -0.023658 -0.797794 -0.035580
v -0.035404 -0.796600 0.023774
v -0.039337 -0.796200 0.016376
v -0.016297 -0.798543 -0.039534
v -0.041760 -0.795953 0.008348
v -0.008311 -0.799355 -0.041970
v -0.042578 -0.795870 0.000000
v -0.008311 -0.799355 0.041970
v -0.041760 -0.795953 -0.008348
v -0.016297 -0.798543 0.039534
v -0.039337 -0.796200 -0.016376
v -0.023658 -0.797794 0.035580
v -0.035404 -0.796600 -0.023774
v -0.030109 -0.797138 0.030258
v -0.007972 -0.797700 0.041970
v -0.015631 -0.795297 0.039534
v -0.040051 -0.787635 -0.008348
v -0.037727 -0.788364 -0.016376
v -0.022690 -0.793083 0.035580
v -0.033954 -0.789548 -0.023774
v -0.028877 -0.791141 0.030258
v -0.028877 -0.791141 -0.030258
v -0.033954 -0.789548 0.023774
v -0.022690 -0.793083 -0.035580
v -0.037727 -0.788364 0.016376
v -0.015631 -0.795297 -0.039534
v -0.040051 -0.787635 0.008348
v -0.007972 -0.797700 -0.041970
v -0.040835 -0.787389 0.000000
v -0.031115 -0.782933 0.023774
v -0.034573 -0.781013 0.016376
v -0.020793 -0.788662 -0.035580
v -0.014324 -0.792252 -0.039534
v -0.036701 -0.779832 0.008348
v -0.007305 -0.796148 -0.041970
v -0.037421 -0.779432 0.000000
v -0.007305 -0.796148 0.041970
v -0.036701 -0.779832 -0.008348
v -0.014324 -0.792252 0.039534
v -0.034573 -0.781013 -0.016376
v -0.020793 -0.788662 0.035580
v -0.031115 -0.782933 -0.023774
v -0.026462 -0.785515 0.030258
v -0.026462 -0.785515 -0.030258
v -0.031851 -0.772862 -0.008348
v -0.030003 -0.774448 -0.016376
v -0.012431 -0.789533 0.039534
v -0.018044 -0.784714 0.035580
v -0.027002 -0.777024 -0.023774
v -0.022964 -0.780490 0.030258
v -0.022964 -0.780490 -0.030258
v -0.027002 -0.777024 0.023774
v -0.018044 -0.784714 -0.035580
v -0.030003 -0.774448 0.016376
v -0.012431 -0.789533 -0.039534
v -0.031851 -0.772862 0.008348
v -0.006340 -0.794762 -0.041970
v -0.032474 -0.772326 0.000000
v -0.006340 -0.794762 0.041970
v -0.014558 -0.781400 -0.035580
v -0.010029 -0.787250 -0.039534
v -0.024205 -0.768937 0.016376
v -0.025695 -0.767011 0.008348
v -0.005116 -0.793598 -0.041970
v -0.026199 -0.766361 0.000000
v -0.005116 -0.793598 0.041970
v -0.025695 -0.767011 -0.008348
v -0.010029 -0.787250 0.039534
v -0.024205 -0.768937 -0.016376
v -0.014558 -0.781400 0.035580
v -0.021784 -0.772064 -0.023774
v -0.018527 -0.776272 0.030258
v -0.018527 -0.776272 -0.030258
v -0.021784 -0.772064 0.023774
v -0.007217 -0.785498 0.039534
v -0.010476 -0.778856 0.035580
v -0.017417 -0.764706 -0.016376
v -0.015675 -0.768255 -0.023774
v -0.013331 -0.773033 0.030258
v -0.013331 -0.773033 -0.030258
v -0.015675 -0.768255 0.023774
v -0.010476 -0.778856 -0.035580
v -0.017417 -0.764706 0.016376
v -0.007217 -0.785498 -0.039534
v -0.018489 -0.762519 0.008348
v -0.003682 -0.792705 -0.041970
v -0.018851 -0.761781 0.000000
v -0.003682 -0.792705 0.041970
v -0.018489 -0.762519 -0.008348
v -0.009915 -0.761927 0.016376
v -0.010525 -0.759570 0.008348
v -0.004111 -0.784347 -0.039534
v -0.002099 -0.792118 -0.041970
v -0.010731 -0.758774 0.000000
v -0.002099 -0.792118 0.041970
v -0.010525 -0.759570 -0.008348
v -0.004111 -0.784347 0.039534
v -0.009915 -0.761927 -0.016376
v -0.005964 -0.777185 0.035580
v -0.008924 -0.765756 -0.023774
v -0.007590 -0.770907 0.030258
v -0.007590 -0.770907 -0.030258
v -0.008924 -0.765756 0.023774
v -0.005964 -0.777185 -0.035580
v -0.002008 -0.760716 -0.016376
v -0.001808 -0.764665 -0.023774
v -0.001210 -0.776456 0.035580
v -0.001538 -0.769980 0.030258
v -0.001538 -0.769980 -0.030258
v -0.001808 -0.764665 0.023774
v -0.001210 -0.776456 -0.035580
v -0.002008 -0.760716 0.016376
v -0.000835 -0.783845 -0.039534
v -0.002131 -0.758284 0.008348
v -0.000428 -0.791862 -0.041970
v -0.002173 -0.757463 0.000000
v -0.000428 -0.791862 0.041970
v -0.002131 -0.758284 -0.008348
v -0.000835 -0.783845 0.039534
v 0.002474 -0.784013 -0.039534
v 0.001259 -0.791948 -0.041970
v 0.006350 -0.758714 0.008348
v 0.006474 -0.757901 0.000000
v 0.001259 -0.791948 0.041970
v 0.006350 -0.758714 -0.008348
v 0.002474 -0.784013 0.039534
v 0.005981 -0.761121 -0.016376
v 0.003594 -0.776700 0.035580
v 0.005382 -0.765030 -0.023774
v 0.004577 -0.770290 0.030258
v 0.004577 -0.770290 -0.030258
v 0.005382 -0.765030 0.023774
v 0.003594 -0.776700 -0.035580
v 0.005981 -0.761121 0.016376
v 0.012352 -0.766835 -0.023774
v 0.010503 -0.771825 -0.030258
v 0.010503 -0.771825 0.030258
v 0.012352 -0.766835 0.023774
v 0.008251 -0.777906 -0.035580
v 0.013725 -0.763126 0.016376
v 0.005682 -0.784843 -0.039534
v 0.014571 -0.760842 0.008348
v 0.002893 -0.792371 -0.041970
v 0.014856 -0.760071 0.000000
v 0.002893 -0.792371 0.041970
v 0.014571 -0.760842 -0.008348
v 0.005682 -0.784843 0.039534
v 0.013725 -0.763126 -0.016376
v 0.008251 -0.777906 0.035580
v 0.004410 -0.793115 0.041970
v 0.004410 -0.793115 -0.041970
v 0.022630 -0.763885 0.000000
v 0.022195 -0.764583 -0.008348
v 0.008656 -0.786303 0.039534
v 0.020907 -0.766649 -0.016376
v 0.012570 -0.780024 0.035580
v 0.018815 -0.770005 -0.023774
v 0.016000 -0.774521 0.030258
v 0.016000 -0.774521 -0.030258
v 0.018815 -0.770005 0.023774
v 0.012570 -0.780024 -0.035580
v 0.020907 -0.766649 0.016376
v 0.008656 -0.786303 -0.039534
v 0.022195 -0.764583 0.008348
v 0.020842 -0.778269 0.030258
v 0.024508 -0.774411 0.023774
v 0.020842 -0.778269 -0.030258
v 0.016373 -0.782969 -0.035580
v 0.027232 -0.771546 0.016376
v 0.011276 -0.788330 -0.039534
v 0.028910 -0.769781 0.008348
v 0.005746 -0.794149 -0.041970
v 0.029477 -0.769184 0.000000
v 0.005746 -0.794149 0.041970
v 0.028910 -0.769781 -0.008348
v 0.011276 -0.788330 0.039534
v 0.027232 -0.771546 -0.016376
v 0.016373 -0.782969 0.035580
v 0.024508 -0.774411 -0.023774
v 0.035116 -0.775754 0.000000
v 0.034441 -0.776224 -0.008348
v 0.006846 -0.795431 0.041970
v 0.013435 -0.790845 0.039534
v 0.032443 -0.777615 -0.016376
v 0.019507 -0.786619 0.035580
v 0.029197 -0.779874 -0.023774
v 0.024829 -0.782914 0.030258
v 0.024829 -0.782914 -0.030258
v 0.029197 -0.779874 0.023774
v 0.019507 -0.786619 -0.035580
v 0.032443 -0.777615 0.016376
v 0.013435 -0.790845 -0.039534
v 0.034441 -0.776224 0.008348
v 0.006846 -0.795431 -0.041970
v 0.027800 -0.788267 -0.030258
v 0.021841 -0.790825 -0.035580
v 0.032691 -0.786168 0.023774
v 0.036325 -0.784609 0.016376
v 0.015043 -0.793742 -0.039534
v 0.038562 -0.783649 0.008348
v 0.007665 -0.796907 -0.041970
v 0.039318 -0.783325 0.000000
v 0.007666 -0.796907 0.041970
v 0.038562 -0.783649 -0.008348
v 0.015043 -0.793742 0.039534
v 0.036325 -0.784609 -0.016376
v 0.021841 -0.790825 0.035580
v 0.032691 -0.786168 -0.023774
v 0.027800 -0.788267 0.030258
v 0.008172 -0.798519 0.041970
v 0.016034 -0.796904 0.039534
v 0.041105 -0.791752 -0.008348
v 0.038719 -0.792242 -0.016376
v 0.023281 -0.795414 0.035580
v 0.034846 -0.793038 -0.023774
v 0.029633 -0.794109 0.030258
v 0.029633 -0.794109 -0.030258
v 0.034846 -0.793038 0.023774
v 0.023281 -0.795414 -0.035580
v 0.038719 -0.792242 0.016376
v 0.016034 -0.796904 -0.039534
v 0.041105 -0.791752 0.008348
v 0.008172 -0.798519 -0.041970
v 0.041910 -0.791586 0.000000
vn 0.9248 -0.0000 -0.3805
vn 0.9810 -0.0000 -0.1939
vn 0.9609 -0.1975 -0.1939
vn 0.9059 -0.1862 -0.3805
vn 0.5599 -0.0000 0.8286
vn 0.3881 -0.0000 0.9216
vn 0.3801 -0.0781 0.9216
vn 0.5485 -0.1127 0.8286
vn 0.8334 -0.0000 -0.5527
vn 0.8163 -0.1678 -0.5527
vn 0.7102 -0.0000 0.7040
vn 0.6957 -0.1430 0.7040
vn 0.7102 0.0000 -0.7040
vn 0.6957 -0.1430 -0.7040
vn 0.8334 -0.0000 0.5527
vn 0.8163 -0.1678 0.5527
vn 0.5599 -0.0000 -0.8286
vn 0.5485 -0.1127 -0.8286
vn 0.9248 -0.0000 0.3805
vn 0.9059 -0.1862 0.3805
vn 0.3881 0.0000 -0.9216
vn 0.3801 -0.0781 -0.9216
vn 0.9810 0.0000 0.1939
vn 0.9609 -0.1975 0.1939
vn 0.2012 0.0000 -0.9796
vn 0.1971 -0.0405 -0.9796
vn 1.0000 -0.0000 -0.0000
vn 0.9795 -0.2013 -0.0000
vn 0.2012 0.0000 0.9796
vn 0.0000 0.0000 1.0000
vn 0.1971 -0.0405 0.9796
vn -0.0000 0.0000 -1.0000
vn 0.1849 -0.0793 0.9796
vn 0.1849 -0.0793 -0.9796
vn 0.9190 -0.3944 0.0000
vn 0.9015 -0.3869 -0.1939
vn 0.3566 -0.1530 0.9216
vn 0.8498 -0.3647 -0.3805
vn 0.5145 -0.2208 0.8285
vn 0.7658 -0.3287 -0.5527
vn 0.6527 -0.2801 0.7040
vn 0.6527 -0.2801 -0.7040
vn 0.7659 -0.3287 0.5527
vn 0.5145 -0.2208 -0.8286
vn 0.8498 -0.3647 0.3805
vn 0.3566 -0.1530 -0.9216
vn 0.9015 -0.3869 0.1939
vn 0.5829 -0.4057 0.7040
vn 0.6840 -0.4761 0.5527
vn 0.5829 -0.4057 -0.7040
vn 0.4595 -0.3199 -0.8286
vn 0.7590 -0.5283 0.3805
vn 0.3185 -0.2217 -0.9216
vn 0.8052 -0.5604 0.1939
vn 0.1651 -0.1149 -0.9796
vn 0.8208 -0.5713 0.0000
vn 0.1651 -0.1149 0.9796
vn 0.8052 -0.5604 -0.1939
vn 0.3185 -0.2217 0.9216
vn 0.7590 -0.5283 -0.3805
vn 0.4595 -0.3199 0.8286
vn 0.6840 -0.4761 -0.5527
vn 0.6890 -0.7248 -0.0000
vn 0.6759 -0.7110 -0.1939
vn 0.1386 -0.1458 0.9796
vn 0.2674 -0.2813 0.9216
vn 0.6372 -0.6703 -0.3805
vn 0.3858 -0.4058 0.8286
vn 0.5742 -0.6040 -0.5527
vn 0.4893 -0.5148 0.7040
vn 0.4893 -0.5148 -0.7040
vn 0.5742 -0.6040 0.5527
vn 0.3858 -0.4058 -0.8285
vn 0.6372 -0.6703 0.3805
vn 0.2674 -0.2813 -0.9216
vn 0.6759 -0.7110 0.1939
vn 0.1386 -0.1458 -0.9796
vn 0.3757 -0.6027 -0.7040
vn 0.2962 -0.4752 -0.8286
vn 0.4408 -0.7073 0.5527
vn 0.4892 -0.7848 0.3805
vn 0.2053 -0.3293 -0.9216
vn 0.5189 -0.8325 0.1939
vn 0.1064 -0.1707 -0.9796
vn 0.5290 -0.8486 -0.0000
vn 0.1064 -0.1707 0.9796
vn 0.5189 -0.8325 -0.1939
vn 0.2053 -0.3293 0.9216
vn 0.4892 -0.7848 -0.3805
vn 0.2962 -0.4752 0.8286
vn 0.4408 -0.7073 -0.5527
vn 0.3757 -0.6027 0.7040
vn 0.3407 -0.9200 -0.1939
vn 0.3212 -0.8672 -0.3805
vn 0.1348 -0.3639 0.9216
vn 0.1945 -0.5251 0.8286
vn 0.2894 -0.7815 -0.5527
vn 0.2467 -0.6660 0.7040
vn 0.2467 -0.6660 -0.7040
vn 0.2894 -0.7815 0.5527
vn 0.1945 -0.5251 -0.8286
vn 0.3212 -0.8672 0.3805
vn 0.1348 -0.3639 -0.9216
vn 0.3407 -0.9200 0.1939
vn 0.0699 -0.1886 -0.9796
vn 0.3473 -0.9378 0.0000
vn 0.0699 -0.1886 0.9796
vn 0.0848 -0.5535 -0.8286
vn 0.0587 -0.3836 -0.9216
vn 0.1400 -0.9141 0.3805
vn 0.1485 -0.9697 0.1939
vn 0.0305 -0.1989 -0.9796
vn 0.1514 -0.9885 0.0000
vn 0.0305 -0.1989 0.9796
vn 0.1486 -0.9697 -0.1939
vn 0.0587 -0.3836 0.9216
vn 0.1400 -0.9141 -0.3805
vn 0.0848 -0.5534 0.8286
vn 0.1262 -0.8238 -0.5527
vn 0.1075 -0.7020 0.7040
vn 0.1075 -0.7020 -0.7040
vn 0.1262 -0.8238 0.5527
vn -0.0197 -0.3876 0.9216
vn -0.0284 -0.5592 0.8286
vn -0.0468 -0.9236 -0.3805
vn -0.0422 -0.8323 -0.5527
vn -0.0360 -0.7093 0.7040
vn -0.0360 -0.7093 -0.7040
vn -0.0422 -0.8323 0.5527
vn -0.0284 -0.5592 -0.8286
vn -0.0468 -0.9236 0.3805
vn -0.0197 -0.3876 -0.9216
vn -0.0497 -0.9798 0.1939
vn -0.0102 -0.2009 -0.9796
vn -0.0507 -0.9987 0.0000
vn -0.0102 -0.2009 0.9796
vn -0.0497 -0.9798 -0.1939
vn -0.2318 -0.8953 0.3805
vn -0.2459 -0.9497 0.1939
vn -0.0973 -0.3757 -0.9216
vn -0.0504 -0.1947 -0.9796
vn -0.2507 -0.9681 0.0000
vn -0.0504 -0.1947 0.9796
vn -0.2459 -0.9497 -0.1939
vn -0.0973 -0.3757 0.9216
vn -0.2318 -0.8953 -0.3805
vn -0.1403 -0.5420 0.8286
vn -0.2089 -0.8068 -0.5527
vn -0.1780 -0.6876 0.7040
vn -0.1780 -0.6876 -0.7040
vn -0.2089 -0.8068 0.5527
vn -0.1403 -0.5420 -0.8286
vn -0.4073 -0.8303 -0.3805
vn -0.3670 -0.7482 -0.5527
vn -0.2466 -0.5027 0.8286
vn -0.3128 -0.6376 0.7040
vn -0.3128 -0.6376 -0.7040
vn -0.3670 -0.7482 0.5527
vn -0.2466 -0.5027 -0.8286
vn -0.4073 -0.8303 0.3805
vn -0.1709 -0.3484 -0.9216
vn -0.4320 -0.8808 0.1939
vn -0.0886 -0.1806 -0.9796
vn -0.4404 -0.8978 -0.0000
vn -0.0886 -0.1806 0.9796
vn -0.4320 -0.8808 -0.1939
vn -0.1709 -0.3484 0.9216
vn -0.2375 -0.3069 -0.9216
vn -0.1231 -0.1591 -0.9796
vn -0.6005 -0.7758 0.1939
vn -0.6121 -0.7908 -0.0000
vn -0.1231 -0.1591 0.9796
vn -0.6005 -0.7758 -0.1939
vn -0.2375 -0.3069 0.9216
vn -0.5661 -0.7313 -0.3805
vn -0.3427 -0.4428 0.8285
vn -0.5101 -0.6590 -0.5527
vn -0.4347 -0.5616 0.7040
vn -0.4347 -0.5616 -0.7040
vn -0.5101 -0.6590 0.5527
vn -0.3427 -0.4428 -0.8286
vn -0.5661 -0.7313 0.3805
vn -0.4248 -0.3647 0.8286
vn -0.5389 -0.4626 0.7040
vn -0.6324 -0.5428 -0.5527
vn -0.5389 -0.4626 -0.7040
vn -0.6324 -0.5428 0.5527
vn -0.4248 -0.3647 -0.8286
vn -0.7017 -0.6024 0.3805
vn -0.2945 -0.2528 -0.9216
vn -0.7444 -0.6390 0.1939
vn -0.1526 -0.1310 -0.9796
vn -0.7588 -0.6514 -0.0000
vn -0.1526 -0.1310 0.9796
vn -0.7444 -0.6390 -0.1939
vn -0.2945 -0.2528 0.9216
vn -0.7017 -0.6024 -0.3805
vn -0.8578 -0.4761 0.1939
vn -0.8743 -0.4853 0.0000
vn -0.1759 -0.0976 0.9796
vn -0.1759 -0.0976 -0.9796
vn -0.8578 -0.4761 -0.1939
vn -0.3393 -0.1883 0.9216
vn -0.8086 -0.4488 -0.3805
vn -0.4896 -0.2717 0.8286
vn -0.7287 -0.4044 -0.5527
vn -0.6210 -0.3447 0.7040
vn -0.6210 -0.3447 -0.7040
vn -0.7287 -0.4044 0.5527
vn -0.4896 -0.2717 -0.8286
vn -0.8086 -0.4488 0.3805
vn -0.3393 -0.1883 -0.9216
vn -0.7952 -0.2495 -0.5527
vn -0.6777 -0.2126 -0.7040
vn -0.6777 -0.2126 0.7040
vn -0.7952 -0.2495 0.5527
vn -0.5342 -0.1676 -0.8286
vn -0.8824 -0.2768 0.3805
vn -0.3703 -0.1162 -0.9216
vn -0.9360 -0.2937 0.1939
vn -0.1919 -0.0602 -0.9796
vn -0.9541 -0.2994 0.0000
vn -0.1919 -0.0602 0.9796
vn -0.9360 -0.2937 -0.1939
vn -0.3703 -0.1162 0.9216
vn -0.8824 -0.2768 -0.3805
vn -0.5342 -0.1676 0.8286
vn -0.2001 -0.0204 -0.9796
vn -0.9949 -0.1012 0.0000
vn -0.9760 -0.0992 -0.1939
vn -0.2001 -0.0204 0.9796
vn -0.3861 -0.0392 0.9216
vn -0.9200 -0.0936 -0.3805
vn -0.5570 -0.0566 0.8286
vn -0.8291 -0.0843 -0.5527
vn -0.7066 -0.0718 0.7040
vn -0.7066 -0.0718 -0.7040
vn -0.8291 -0.0843 0.5527
vn -0.5570 -0.0566 -0.8286
vn -0.9200 -0.0936 0.3805
vn -0.3861 -0.0392 -0.9216
vn -0.9760 -0.0992 0.1939
vn -0.7066 0.0718 -0.7040
vn -0.5570 0.0566 -0.8286
vn -0.8291 0.0843 0.5527
vn -0.9200 0.0936 0.3805
vn -0.3861 0.0393 -0.9216
vn -0.9760 0.0993 0.1939
vn -0.2001 0.0204 -0.9796
vn -0.9949 0.1012 -0.0000
vn -0.2001 0.0204 0.9796
vn -0.9760 0.0993 -0.1939
vn -0.3861 0.0393 0.9216
vn -0.9200 0.0936 -0.3805
vn -0.5570 0.0566 0.8286
vn -0.8291 0.0843 -0.5527
vn -0.7066 0.0718 0.7040
vn -0.1919 0.0602 0.9796
vn -0.3703 0.1162 0.9216
vn -0.9360 0.2937 -0.1939
vn -0.8824 0.2769 -0.3805
vn -0.5342 0.1676 0.8286
vn -0.7952 0.2495 -0.5527
vn -0.6777 0.2126 0.7040
vn -0.6777 0.2126 -0.7040
vn -0.7952 0.2495 0.5527
vn -0.5342 0.1676 -0.8286
vn -0.8824 0.2769 0.3805
vn -0.3703 0.1162 -0.9216
vn -0.9360 0.2937 0.1939
vn -0.1919 0.0602 -0.9796
vn -0.9541 0.2994 0.0000
vn -0.7287 0.4044 0.5527
vn -0.8086 0.4488 0.3805
vn -0.4896 0.2717 -0.8286
vn -0.3393 0.1883 -0.9216
vn -0.8578 0.4761 0.1939
vn -0.1759 0.0976 -0.9796
vn -0.8743 0.4853 0.0000
vn -0.1759 0.0976 0.9796
vn -0.8578 0.4761 -0.1939
vn -0.3393 0.1883 0.9216
vn -0.8086 0.4488 -0.3805
vn -0.4896 0.2717 0.8286
vn -0.7287 0.4044 -0.5527
vn -0.6210 0.3447 0.7040
vn -0.6210 0.3447 -0.7040
vn -0.7444 0.6390 -0.1939
vn -0.7017 0.6024 -0.3805
vn -0.2944 0.2528 0.9216
vn -0.4248 0.3647 0.8286
vn -0.6323 0.5429 -0.5527
vn -0.5389 0.4626 0.7040
vn -0.5389 0.4626 -0.7040
vn -0.6323 0.5429 0.5527
vn -0.4248 0.3647 -0.8286
vn -0.7017 0.6024 0.3805
vn -0.2944 0.2528 -0.9216
vn -0.7444 0.6390 0.1939
vn -0.1526 0.1310 -0.9796
vn -0.7587 0.6514 -0.0000
vn -0.1526 0.1310 0.9796
vn -0.3427 0.4428 -0.8286
vn -0.2375 0.3069 -0.9216
vn -0.5661 0.7313 0.3805
vn -0.6005 0.7758 0.1939
vn -0.1231 0.1591 -0.9796
vn -0.6121 0.7908 0.0000
vn -0.1231 0.1591 0.9796
vn -0.6005 0.7758 -0.1939
vn -0.2375 0.3069 0.9216
vn -0.5661 0.7313 -0.3805
vn -0.3427 0.4428 0.8286
vn -0.5101 0.6590 -0.5527
vn -0.4347 0.5616 0.7040
vn -0.4347 0.5616 -0.7040
vn -0.5101 0.6590 0.5527
vn -0.1709 0.3484 0.9216
vn -0.2466 0.5027 0.8286
vn -0.4073 0.8303 -0.3805
vn -0.3670 0.7482 -0.5527
vn -0.3128 0.6377 0.7040
vn -0.3128 0.6377 -0.7040
vn -0.3670 0.7482 0.5527
vn -0.2466 0.5027 -0.8286
vn -0.4073 0.8303 0.3805
vn -0.1709 0.3484 -0.9216
vn -0.4320 0.8808 0.1939
vn -0.0886 0.1806 -0.9796
vn -0.4404 0.8978 0.0000
vn -0.0886 0.1806 0.9796
vn -0.4320 0.8808 -0.1939
vn -0.2318 0.8953 0.3805
vn -0.2459 0.9497 0.1939
vn -0.0973 0.3757 -0.9216
vn -0.0504 0.1947 -0.9796
vn -0.2507 0.9681 0.0000
vn -0.0504 0.1947 0.9796
vn -0.2459 0.9497 -0.1939
vn -0.0973 0.3757 0.9216
vn -0.2318 0.8953 -0.3805
vn -0.1403 0.5420 0.8286
vn -0.2089 0.8068 -0.5527
vn -0.1780 0.6876 0.7040
vn -0.1780 0.6876 -0.7040
vn -0.2089 0.8068 0.5527
vn -0.1403 0.5420 -0.8286
vn -0.0468 0.9236 -0.3805
vn -0.0422 0.8323 -0.5527
vn -0.0284 0.5592 0.8286
vn -0.0360 0.7093 0.7040
vn -0.0360 0.7093 -0.7040
vn -0.0422 0.8323 0.5527
vn -0.0284 0.5592 -0.8286
vn -0.0468 0.9236 0.3805
vn -0.0197 0.3876 -0.9216
vn -0.0497 0.9798 0.1939
vn -0.0102 0.2009 -0.9796
vn -0.0506 0.9987 0.0000
vn -0.0102 0.2009 0.9796
vn -0.0497 0.9798 -0.1939
vn -0.0197 0.3876 0.9216
vn 0.0588 0.3836 -0.9216
vn 0.0305 0.1988 -0.9796
vn 0.1486 0.9697 0.1939
vn 0.1514 0.9885 0.0000
vn 0.0305 0.1988 0.9796
vn 0.1486 0.9697 -0.1939
vn 0.0588 0.3836 0.9216
vn 0.1400 0.9141 -0.3805
vn 0.0848 0.5535 0.8286
vn 0.1262 0.8238 -0.5527
vn 0.1076 0.7020 0.7040
vn 0.1075 0.7020 -0.7040
vn 0.1262 0.8238 0.5527
vn 0.0848 0.5535 -0.8286
vn 0.1401 0.9141 0.3805
vn 0.2894 0.7815 -0.5527
vn 0.2467 0.6660 -0.7040
vn 0.2467 0.6660 0.7040
vn 0.2894 0.7815 0.5527
vn 0.1945 0.5251 -0.8286
vn 0.3212 0.8672 0.3805
vn 0.1348 0.3639 -0.9216
vn 0.3407 0.9200 0.1939
vn 0.0699 0.1887 -0.9796
vn 0.3473 0.9377 -0.0000
vn 0.0699 0.1887 0.9796
vn 0.3407 0.9200 -0.1939
vn 0.1348 0.3639 0.9216
vn 0.3212 0.8672 -0.3805
vn 0.1945 0.5251 0.8285
vn 0.1064 0.1707 0.9796
vn 0.1064 0.1707 -0.9796
vn 0.5290 0.8486 -0.0000
vn 0.5189 0.8325 -0.1939
vn 0.2053 0.3293 0.9216
vn 0.4892 0.7848 -0.3805
vn 0.2962 0.4752 0.8285
vn 0.4408 0.7072 -0.5527
vn 0.3757 0.6027 0.7040
vn 0.3757 0.6027 -0.7040
vn 0.4408 0.7073 0.5527
vn 0.2962 0.4752 -0.8286
vn 0.4892 0.7848 0.3805
vn 0.2053 0.3293 -0.9216
vn 0.5189 0.8325 0.1939
vn 0.4893 0.5148 0.7040
vn 0.5742 0.6040 0.5527
vn 0.4893 0.5148 -0.7040
vn 0.3858 0.4058 -0.8286
vn 0.6372 0.6703 0.3805
vn 0.2674 0.2813 -0.9216
vn 0.6759 0.7110 0.1939
vn 0.1386 0.1458 -0.9796
vn 0.6890 0.7248 0.0000
vn 0.1386 0.1458 0.9796
vn 0.6759 0.7110 -0.1939
vn 0.2674 0.2813 0.9216
vn 0.6372 0.6703 -0.3805
vn 0.3858 0.4058 0.8286
vn 0.5742 0.6040 -0.5527
vn 0.8208 0.5713 0.0000
vn 0.8052 0.5604 -0.1939
vn 0.1651 0.1149 0.9796
vn 0.3185 0.2217 0.9216
vn 0.7590 0.5283 -0.3805
vn 0.4595 0.3199 0.8286
vn 0.6840 0.4761 -0.5527
vn 0.5829 0.4057 0.7040
vn 0.5829 0.4057 -0.7040
vn 0.6840 0.4761 0.5527
vn 0.4596 0.3198 -0.8286
vn 0.7590 0.5283 0.3805
vn 0.3185 0.2217 -0.9216
vn 0.8052 0.5604 0.1939
vn 0.1651 0.1149 -0.9796
vn 0.6527 0.2801 -0.7040
vn 0.5145 0.2208 -0.8286
vn 0.7659 0.3286 0.5527
vn 0.8498 0.3647 0.3805
vn 0.3566 0.1530 -0.9216
vn 0.9015 0.3869 0.1939
vn 0.1849 0.0793 -0.9796
vn 0.9190 0.3943 -0.0000
vn 0.1849 0.0793 0.9796
vn 0.9015 0.3869 -0.1939
vn 0.3566 0.1530 0.9216
vn 0.8499 0.3647 -0.3805
vn 0.5145 0.2208 0.8286
vn 0.7659 0.3286 -0.5527
vn 0.6527 0.2801 0.7040
vn 0.1971 0.0405 0.9796
vn 0.3801 0.0781 0.9216
vn 0.9609 0.1975 -0.1939
vn 0.9059 0.1861 -0.3805
vn 0.5485 0.1127 0.8286
vn 0.8163 0.1677 -0.5527
vn 0.6957 0.1430 0.7040
vn 0.6957 0.1430 -0.7040
vn 0.8163 0.1677 0.5527
vn 0.5485 0.1127 -0.8286
vn 0.9059 0.1861 0.3805
vn 0.3801 0.0781 -0.9216
vn 0.9609 0.1975 0.1939
vn 0.1970 0.0405 -0.9796
vn 0.9795 0.2013 0.0000
vn 0.9059 -0.1861 -0.3804
vn 0.3801 -0.0782 0.9216
vn 0.5484 -0.1127 0.8286
vn 0.5484 -0.1127 -0.8286
vn 0.3801 -0.0782 -0.9216
vn 0.1971 -0.0405 -0.9795
vn 0.1971 -0.0405 0.9795
vn 0.1849 -0.0794 0.9795
vn 0.1849 -0.0794 -0.9796
vn 0.5145 -0.2208 0.8286
vn 0.7659 -0.3287 -0.5527
vn 0.7659 -0.3286 0.5527
vn 0.4596 -0.3198 -0.8286
vn 0.3186 -0.2217 -0.9216
vn 0.1651 -0.1150 -0.9796
vn 0.8207 -0.5713 -0.0000
vn 0.1651 -0.1150 0.9795
vn 0.6841 -0.4761 -0.5527
vn 0.6889 -0.7248 -0.0000
vn 0.6759 -0.7111 -0.1939
vn 0.6372 -0.6703 -0.3804
vn 0.3857 -0.4058 0.8286
vn 0.5742 -0.6041 0.5527
vn 0.3857 -0.4058 -0.8286
vn 0.6372 -0.6703 0.3804
vn 0.2673 -0.2813 -0.9216
vn 0.6759 -0.7111 0.1939
vn 0.2962 -0.4751 -0.8285
vn 0.4408 -0.7072 0.5527
vn 0.4892 -0.7848 0.3804
vn 0.1064 -0.1708 -0.9795
vn 0.1064 -0.1708 0.9795
vn 0.2053 -0.3294 0.9216
vn 0.2467 -0.6660 -0.7039
vn 0.1944 -0.5251 -0.8286
vn 0.3408 -0.9199 0.1939
vn 0.0698 -0.1887 -0.9796
vn 0.0700 -0.1885 0.9796
vn 0.0588 -0.3836 -0.9216
vn 0.1401 -0.9141 0.3805
vn 0.1485 -0.9697 0.1938
vn 0.0305 -0.1989 -0.9795
vn 0.1485 -0.9697 -0.1939
vn 0.0848 -0.5535 0.8286
vn 0.1075 -0.7021 0.7040
vn -0.0283 -0.5592 0.8286
vn -0.0469 -0.9236 -0.3805
vn -0.0283 -0.5592 -0.8285
vn -0.0469 -0.9236 0.3804
vn -0.0498 -0.9798 0.1938
vn -0.0102 -0.2010 -0.9795
vn -0.0102 -0.2010 0.9795
vn -0.2318 -0.8953 0.3804
vn -0.0505 -0.1947 -0.9796
vn -0.2506 -0.9681 -0.0000
vn -0.0505 -0.1948 0.9796
vn -0.0972 -0.3757 0.9216
vn -0.2318 -0.8953 -0.3804
vn -0.1781 -0.6876 -0.7040
vn -0.2466 -0.5027 0.8285
vn -0.3128 -0.6377 0.7040
vn -0.3128 -0.6377 -0.7039
vn -0.2466 -0.5027 -0.8285
vn -0.0886 -0.1807 -0.9795
vn -0.0886 -0.1806 0.9795
vn -0.2376 -0.3069 -0.9216
vn -0.1232 -0.1591 -0.9796
vn -0.1232 -0.1591 0.9796
vn -0.3428 -0.4428 0.8285
vn -0.4347 -0.5617 -0.7039
vn -0.3427 -0.4427 -0.8286
vn -0.1527 -0.1311 -0.9795
vn -0.1527 -0.1311 0.9796
vn -0.1759 -0.0977 0.9796
vn -0.1759 -0.0977 -0.9796
vn -0.4895 -0.2718 0.8286
vn -0.7287 -0.4045 -0.5527
vn -0.7286 -0.4045 0.5527
vn -0.4895 -0.2718 -0.8285
vn -0.8086 -0.4488 0.3804
vn -0.8824 -0.2768 0.3804
vn -0.1920 -0.0602 -0.9795
vn -0.1920 -0.0602 0.9795
vn -0.3703 -0.1161 0.9216
vn -0.8824 -0.2769 -0.3805
vn -0.2002 -0.0203 -0.9796
vn -0.9949 -0.1011 -0.0000
vn -0.2002 -0.0203 0.9796
vn -0.9201 -0.0935 -0.3805
vn -0.9760 -0.0992 0.1940
vn -0.8291 0.0843 0.5526
vn -0.3861 0.0392 -0.9216
vn -0.2002 0.0203 -0.9795
vn -0.2002 0.0203 0.9796
vn -0.3861 0.0392 0.9216
vn -0.9201 0.0935 -0.3804
vn -0.1920 0.0602 0.9795
vn -0.3703 0.1161 0.9216
vn -0.8824 0.2768 -0.3805
vn -0.6777 0.2126 0.7039
vn -0.6777 0.2126 -0.7039
vn -0.8824 0.2768 0.3805
vn -0.3703 0.1161 -0.9216
vn -0.1920 0.0602 -0.9795
vn -0.8086 0.4488 0.3804
vn -0.4895 0.2718 -0.8285
vn -0.3393 0.1884 -0.9216
vn -0.1759 0.0977 -0.9796
vn -0.1759 0.0977 0.9796
vn -0.8577 0.4761 -0.1939
vn -0.3393 0.1884 0.9216
vn -0.8086 0.4488 -0.3804
vn -0.4895 0.2718 0.8285
vn -0.7286 0.4045 -0.5527
vn -0.6210 0.3447 0.7039
vn -0.6210 0.3447 -0.7039
vn -0.5389 0.4627 -0.7040
vn -0.6323 0.5428 0.5527
vn -0.1527 0.1311 -0.9796
vn -0.1527 0.1310 0.9796
vn -0.1232 0.1591 -0.9795
vn -0.1232 0.1591 0.9795
vn -0.5102 0.6590 -0.5527
vn -0.4348 0.5616 0.7040
vn -0.4348 0.5616 -0.7040
vn -0.5102 0.6590 0.5527
vn -0.4073 0.8303 -0.3804
vn -0.3128 0.6376 0.7040
vn -0.3128 0.6376 -0.7040
vn -0.2465 0.5027 -0.8286
vn -0.0505 0.1948 -0.9795
vn -0.2506 0.9681 0.0000
vn -0.0505 0.1948 0.9795
vn -0.1404 0.5420 0.8286
vn -0.1404 0.5420 -0.8286
vn -0.0102 0.2009 -0.9795
vn -0.0507 0.9987 0.0000
vn -0.0102 0.2010 0.9795
vn 0.0305 0.1989 -0.9796
vn 0.1485 0.9697 0.1939
vn 0.0305 0.1989 0.9796
vn 0.1485 0.9697 -0.1939
vn 0.0587 0.3836 0.9216
vn 0.0848 0.5534 0.8286
vn 0.1076 0.7020 -0.7040
vn 0.0848 0.5534 -0.8286
vn 0.1400 0.9141 0.3805
vn 0.2895 0.7815 -0.5527
vn 0.1944 0.5251 -0.8285
vn 0.3407 0.9199 0.1939
vn 0.0699 0.1887 -0.9795
vn 0.3407 0.9199 -0.1939
vn 0.1945 0.5251 0.8286
vn 0.1064 0.1708 -0.9795
vn 0.5190 0.8325 -0.1939
vn 0.2962 0.4751 0.8286
vn 0.4408 0.7073 -0.5527
vn 0.3757 0.6028 -0.7040
vn 0.2962 0.4751 -0.8286
vn 0.4892 0.7848 0.3804
vn 0.5190 0.8325 0.1939
vn 0.4893 0.5147 0.7040
vn 0.4893 0.5147 -0.7040
vn 0.6372 0.6703 0.3804
vn 0.1386 0.1458 0.9795
vn 0.6372 0.6703 -0.3804
vn 0.5742 0.6041 -0.5527
vn 0.8208 0.5712 -0.0000
vn 0.7590 0.5283 -0.3804
vn 0.4596 0.3198 0.8286
vn 0.4596 0.3199 -0.8286
vn 0.7590 0.5283 0.3804
vn 0.7658 0.3286 0.5527
vn 0.8499 0.3647 0.3804
vn 0.1849 0.0794 -0.9796
vn 0.9190 0.3944 -0.0000
vn 0.1849 0.0794 0.9795
vn 0.3567 0.1530 0.9216
vn 0.8499 0.3647 -0.3804
vn 0.7658 0.3286 -0.5527
vn 0.1971 0.0405 0.9795
vn 0.5484 0.1127 0.8286
vn 0.5484 0.1127 -0.8286
vn 0.1971 0.0405 -0.9795
usemtl Atom
s 1
f 1//1 2//2 3//3
f 3//3 4//4 1//1
f 5//5 6//6 7//7
f 7//7 8//8 5//5
f 9//9 1//1 4//4
f 4//4 10//10 9//9
f 11//11 5//5 8//8
f 8//8 12//12 11//11
f 13//13 9//9 10//10
f 10//10 14//14 13//13
f 15//15 11//11 12//12
f 12//12 16//16 15//15
f 17//17 13//13 14//14
f 14//14 18//18 17//17
f 19//19 15//15 16//16
f 16//16 20//20 19//19
f 21//21 17//17 18//18
f 18//18 22//22 21//21
f 23//23 19//19 20//20
f 20//20 24//24 23//23
f 25//25 21//21 22//22
f 22//22 26//26 25//25
f 27//27 23//23 24//24
f 24//24 28//28 27//27
f 29//29 30//30 31//31
f 32//32 25//25 26//26
f 2//2 27//27 28//28
f 28//28 3//3 2//2
f 6//6 29//29 31//31
f 31//31 7//7 6//6
f 31//31 30//30 33//33
f 32//32 26//26 34//34
f 3//3 28//28 35//35
f 35//35 36//36 3//3
f 7//7 31//31 33//33
f 33//33 37//37 7//7
f 4//4 3//3 36//36
f 36//36 38//38 4//4
f 8//8 7//7 37//37
f 37//37 39//39 8//8
f 10//10 4//4 38//38
f 38//38 40//40 10//10
f 12//12 8//8 39//39
f 39//39 41//41 12//12
f 14//14 10//10 40//40
f 40//40 42//42 14//14
f 16//16 12//12 41//41
f 41//41 43//43 16//16
f 18//18 14//14 42//42
f 42//42 44//44 18//18
f 20//20 16//16 43//43
f 43//43 45//45 20//20
f 22//22 18//18 44//44
f 44//44 46//46 22//22
f 24//24 20//20 45//45
f 45//45 47//47 24//24
f 26//26 22//22 46//46
f 46//46 34//34 26//26
f 28//28 24//24 47//47
f 47//47 35//35 28//28
f 43//43 41//41 48//48
f 48//48 49//49 43//43
f 44//44 42//42 50//50
f 50//50 51//51 44//44
f 45//45 43//43 49//49
f 49//49 52//52 45//45
f 46//46 44//44 51//51
f 51//51 53//53 46//46
f 47//47 45//45 52//52
f 52//52 54//54 47//47
f 34//34 46//46 53//53
f 53//53 55//55 34//34
f 35//35 47//47 54//54
f 54//54 56//56 35//35
f 33//33 30//30 57//57
f 32//32 34//34 55//55
f 36//36 35//35 56//56
f 56//56 58//58 36//36
f 37//37 33//33 57//57
f 57//57 59//59 37//37
f 38//38 36//36 58//58
f 58//58 60//60 38//38
f 39//39 37//37 59//59
f 59//59 61//61 39//39
f 40//40 38//38 60//60
f 60//60 62//62 40//40
f 41//41 39//39 61//61
f 61//61 48//48 41//41
f 42//42 40//40 62//62
f 62//62 50//50 42//42
f 58//58 56//56 63//63
f 63//63 64//64 58//58
f 59//59 57//57 65//65
f 65//65 66//66 59//59
f 60//60 58//58 64//64
f 64//64 67//67 60//60
f 61//61 59//59 66//66
f 66//66 68//68 61//61
f 62//62 60//60 67//67
f 67//67 69//69 62//62
f 48//48 61//61 68//68
f 68//68 70//70 48//48
f 50//50 62//62 69//69
f 69//69 71//71 50//50
f 49//49 48//48 70//70
f 70//70 72//72 49//49
f 51//51 50//50 71//71
f 71//71 73//73 51//51
f 52//52 49//49 72//72
f 72//72 74//74 52//52
f 53//53 51//51 73//73
f 73//73 75//75 53//53
f 54//54 52//52 74//74
f 74//74 76//76 54//54
f 55//55 53//53 75//75
f 75//75 77//77 55//55
f 56//56 54//54 76//76
f 76//76 63//63 56//56
f 57//57 30//30 65//65
f 32//32 55//55 77//77
f 73//73 71//71 78//78
f 78//78 79//79 73//73
f 74//74 72//72 80//80
f 80//80 81//81 74//74
f 75//75 73//73 79//79
f 79//79 82//82 75//75
f 76//76 74//74 81//81
f 81//81 83//83 76//76
f 77//77 75//75 82//82
f 82//82 84//84 77//77
f 63//63 76//76 83//83
f 83//83 85//85 63//63
f 65//65 30//30 86//86
f 32//32 77//77 84//84
f 64//64 63//63 85//85
f 85//85 87//87 64//64
f 66//66 65//65 86//86
f 86//86 88//88 66//66
f 67//67 64//64 87//87
f 87//87 89//89 67//67
f 68//68 66//66 88//88
f 88//88 90//90 68//68
f 69//69 67//67 89//89
f 89//89 91//91 69//69
f 70//70 68//68 90//90
f 90//90 92//92 70//70
f 71//71 69//69 91//91
f 91//91 78//78 71//71
f 72//72 70//70 92//92
f 92//92 80//80 72//72
f 89//89 87//87 93//93
f 93//93 94//94 89//89
f 90//90 88//88 95//95
f 95//95 96//96 90//90
f 91//91 89//89 94//94
f 94//94 97//97 91//91
f 92//92 90//90 96//96
f 96//96 98//98 92//92
f 78//78 91//91 97//97
f 97//97 99//99 78//78
f 80//80 92//92 98//98
f 98//98 100//100 80//80
f 79//79 78//78 99//99
f 99//99 101//101 79//79
f 81//81 80//80 100//100
f 100//100 102//102 81//81
f 82//82 79//79 101//101
f 101//101 103//103 82//82
f 83//83 81//81 102//102
f 102//102 104//104 83//83
f 84//84 82//82 103//103
f 103//103 105//105 84//84
f 85//85 83//83 104//104
f 104//104 106//106 85//85
f 86//86 30//30 107//107
f 32//32 84//84 105//105
f 87//87 85//85 106//106
f 106//106 93//93 87//87
f 88//88 86//86 107//107
f 107//107 95//95 88//88
f 103//103 101//101 108//108
f 108//108 109//109 103//103
f 104//104 102//102 110//110
f 110//110 111//111 104//104
f 105//105 103//103 109//109
f 109//109 112//112 105//105
f 106//106 104//104 111//111
f 111//111 113//113 106//106
f 107//107 30//30 114//114
f 32//32 105//105 112//112
f 93//93 106//106 113//113
f 113//113 115//115 93//93
f 95//95 107//107 114//114
f 114//114 116//116 95//95
f 94//94 93//93 115//115
f 115//115 117//117 94//94
f 96//96 95//95 116//116
f 116//116 118//118 96//96
f 97//97 94//94 117//117
f 117//117 119//119 97//97
f 98//98 96//96 118//118
f 118//118 120//120 98//98
f 99//99 97//97 119//119
f 119//119 121//121 99//99
f 100//100 98//98 120//120
f 120//120 122//122 100//100
f 101//101 99//99 121//121
f 121//121 108//108 101//101
f 102//102 100//100 122//122
f 122//122 110//110 102//102
f 118//118 116//116 123//123
f 123//123 124//124 118//118
f 119//119 117//117 125//125
f 125//125 126//126 119//119
f 120//120 118//118 124//124
f 124//124 127//127 120//120
f 121//121 119//119 126//126
f 126//126 128//128 121//121
f 122//122 120//120 127//127
f 127//127 129//129 122//122
f 108//108 121//121 128//128
f 128//128 130//130 108//108
f 110//110 122//122 129//129
f 129//129 131//131 110//110
f 109//109 108//108 130//130
f 130//130 132//132 109//109
f 111//111 110//110 131//131
f 131//131 133//133 111//111
f 112//112 109//109 132//132
f 132//132 134//134 112//112
f 113//113 111//111 133//133
f 133//133 135//135 113//113
f 114//114 30//30 136//136
f 32//32 112//112 134//134
f 115//115 113//113 135//135
f 135//135 137//137 115//115
f 116//116 114//114 136//136
f 136//136 123//123 116//116
f 117//117 115//115 137//137
f 137//137 125//125 117//117
f 133//133 131//131 138//138
f 138//138 139//139 133//133
f 134//134 132//132 140//140
f 140//140 141//141 134//134
f 135//135 133//133 139//139
f 139//139 142//142 135//135
f 136//136 30//30 143//143
f 32//32 134//134 141//141
f 137//137 135//135 142//142
f 142//142 144//144 137//137
f 123//123 136//136 143//143
f 143//143 145//145 123//123
f 125//125 137//137 144//144
f 144//144 146//146 125//125
f 124//124 123//123 145//145
f 145//145 147//147 124//124
f 126//126 125//125 146//146
f 146//146 148//148 126//126
f 127//127 124//124 147//147
f 147//147 149//149 127//127
f 128//128 126//126 148//148
f 148//148 150//150 128//128
f 129//129 127//127 149//149
f 149//149 151//151 129//129
f 130//130 128//128 150//150
f 150//150 152//152 130//130
f 131//131 129//129 151//151
f 151//151 138//138 131//131
f 132//132 130//130 152//152
f 152//152 140//140 132//132
f 148//148 146//146 153//153
f 153//153 154//154 148//148
f 149//149 147//147 155//155
f 155//155 156//156 149//149
f 150//150 148//148 154//154
f 154//154 157//157 150//150
f 151//151 149//149 156//156
f 156//156 158//158 151//151
f 152//152 150//150 157//157
f 157//157 159//159 152//152
f 138//138 151//151 158//158
f 158//158 160//160 138//138
f 140//140 152//152 159//159
f 159//159 161//161 140//140
f 139//139 138//138 160//160
f 160//160 162//162 139//139
f 141//141 140//140 161//161
f 161//161 163//163 141//141
f 142//142 139//139 162//162
f 162//162 164//164 142//142
f 143//143 30//30 165//165
f 32//32 141//141 163//163
f 144//144 142//142 164//164
f 164//164 166//166 144//144
f 145//145 143//143 165//165
f 165//165 167//167 145//145
f 146//146 144//144 166//166
f 166//166 153//153 146//146
f 147//147 145//145 167//167
f 167//167 155//155 147//147
f 163//163 161//161 168//168
f 168//168 169//169 163//163
f 164//164 162//162 170//170
f 170//170 171//171 164//164
f 165//165 30//30 172//172
f 32//32 163//163 169//169
f 166//166 164//164 171//171
f 171//171 173//173 166//166
f 167//167 165//165 172//172
f 172//172 174//174 167//167
f 153//153 166//166 173//173
f 173//173 175//175 153//153
f 155//155 167//167 174//174
f 174//174 176//176 155//155
f 154//154 153//153 175//175
f 175//175 177//177 154//154
f 156//156 155//155 176//176
f 176//176 178//178 156//156
f 157//157 154//154 177//177
f 177//177 179//179 157//157
f 158//158 156//156 178//178
f 178//178 180//180 158//158
f 159//159 157//157 179//179
f 179//179 181//181 159//159
f 160//160 158//158 180//180
f 180//180 182//182 160//160
f 161//161 159//159 181//181
f 181//181 168//168 161//161
f 162//162 160//160 182//182
f 182//182 170//170 162//162
f 178//178 176//176 183//183
f 183//183 184//184 178//178
f 179//179 177//177 185//185
f 185//185 186//186 179//179
f 180//180 178//178 184//184
f 184//184 187//187 180//180
f 181//181 179//179 186//186
f 186//186 188//188 181//181
f 182//182 180//180 187//187
f 187//187 189//189 182//182
f 168//168 181//181 188//188
f 188//188 190//190 168//168
f 170//170 182//182 189//189
f 189//189 191//191 170//170
f 169//169 168//168 190//190
f 190//190 192//192 169//169
f 171//171 170//170 191//191
f 191//191 193//193 171//171
f 172//172 30//30 194//194
f 32//32 169//169 192//192
f 173//173 171//171 193//193
f 193//193 195//195 173//173
f 174//174 172//172 194//194
f 194//194 196//196 174//174
f 175//175 173//173 195//195
f 195//195 197//197 175//175
f 176//176 174//174 196//196
f 196//196 183//183 176//176
f 177//177 175//175 197//197
f 197//197 185//185 177//177
f 193//193 191//191 198//198
f 198//198 199//199 193//193
f 194//194 30//30 200//200
f 32//32 192//192 201//201
f 195//195 193//193 199//199
f 199//199 202//202 195//195
f 196//196 194//194 200//200
f 200//200 203//203 196//196
f 197//197 195//195 202//202
f 202//202 204//204 197//197
f 183//183 196//196 203//203
f 203//203 205//205 183//183
f 185//185 197//197 204//204
f 204//204 206//206 185//185
f 184//184 183//183 205//205
f 205//205 207//207 184//184
f 186//186 185//185 206//206
f 206//206 208//208 186//186
f 187//187 184//184 207//207
f 207//207 209//209 187//187
f 188//188 186//186 208//208
f 208//208 210//210 188//188
f 189//189 187//187 209//209
f 209//209 211//211 189//189
f 190//190 188//188 210//210
f 210//210 212//212 190//190
f 191//191 189//189 211//211
f 211//211 198//198 191//191
f 192//192 190//190 212//212
f 212//212 201//201 192//192
f 208//208 206//206 213//213
f 213//213 214//214 208//208
f 209//209 207//207 215//215
f 215//215 216//216 209//209
f 210//210 208//208 214//214
f 214//214 217//217 210//210
f 211//211 209//209 216//216
f 216//216 218//218 211//211
f 212//212 210//210 217//217
f 217//217 219//219 212//212
f 198//198 211//211 218//218
f 218//218 220//220 198//198
f 201//201 212//212 219//219
f 219//219 221//221 201//201
f 199//199 198//198 220//220
f 220//220 222//222 199//199
f 200//200 30//30 223//223
f 32//32 201//201 221//221
f 202//202 199//199 222//222
f 222//222 224//224 202//202
f 203//203 200//200 223//223
f 223//223 225//225 203//203
f 204//204 202//202 224//224
f 224//224 226//226 204//204
f 205//205 203//203 225//225
f 225//225 227//227 205//205
f 206//206 204//204 226//226
f 226//226 213//213 206//206
f 207//207 205//205 227//227
f 227//227 215//215 207//207
f 32//32 221//221 228//228
f 224//224 222//222 229//229
f 229//229 230//230 224//224
f 225//225 223//223 231//231
f 231//231 232//232 225//225
f 226//226 224//224 230//230
f 230//230 233//233 226//226
f 227//227 225//225 232//232
f 232//232 234//234 227//227
f 213//213 226//226 233//233
f 233//233 235//235 213//213
f 215//215 227//227 234//234
f 234//234 236//236 215//215
f 214//214 213//213 235//235
f 235//235 237//237 214//214
f 216//216 215//215 236//236
f 236//236 238//238 216//216
f 217//217 214//214 237//237
f 237//237 239//239 217//217
f 218//218 216//216 238//238
f 238//238 240//240 218//218
f 219//219 217//217 239//239
f 239//239 241//241 219//219
f 220//220 218//218 240//240
f 240//240 242//242 220//220
f 221//221 219//219 241//241
f 241//241 228//228 221//221
f 222//222 220//220 242//242
f 242//242 229//229 222//222
f 223//223 30//30 231//231
f 239//239 237//237 243//243
f 243//243 244//244 239//239
f 240//240 238//238 245//245
f 245//245 246//246 240//240
f 241//241 239//239 244//244
f 244//244 247//247 241//241
f 242//242 240//240 246//246
f 246//246 248//248 242//242
f 228//228 241//241 247//247
f 247//247 249//249 228//228
f 229//229 242//242 248//248
f 248//248 250//250 229//229
f 231//231 30//30 251//251
f 32//32 228//228 249//249
f 230//230 229//229 250//250
f 250//250 252//252 230//230
f 232//232 231//231 251//251
f 251//251 253//253 232//232
f 233//233 230//230 252//252
f 252//252 254//254 233//233
f 234//234 232//232 253//253
f 253//253 255//255 234//234
f 235//235 233//233 254//254
f 254//254 256//256 235//235
f 236//236 234//234 255//255
f 255//255 257//257 236//236
f 237//237 235//235 256//256
f 256//256 243//243 237//237
f 238//238 236//236 257//257
f 257//257 245//245 238//238
f 253//253 251//251 258//258
f 258//258 259//259 253//253
f 254//254 252//252 260//260
f 260//260 261//261 254//254
f 255//255 253//253 259//259
f 259//259 262//262 255//255
f 256//256 254//254 261//261
f 261//261 263//263 256//256
f 257//257 255//255 262//262
f 262//262 264//264 257//257
f 243//243 256//256 263//263
f 263//263 265//265 243//243
f 245//245 257//257 264//264
f 264//264 266//266 245//245
f 244//244 243//243 265//265
f 265//265 267//267 244//244
f 246//246 245//245 266//266
f 266//266 268//268 246//246
f 247//247 244//244 267//267
f 267//267 269//269 247//247
f 248//248 246//246 268//268
f 268//268 270//270 248//248
f 249//249 247//247 269//269
f 269//269 271//271 249//249
f 250//250 248//248 270//270
f 270//270 272//272 250//250
f 251//251 30//30 258//258
f 32//32 249//249 271//271
f 252//252 250//250 272//272
f 272//272 260//260 252//252
f 268//268 266//266 273//273
f 273//273 274//274 268//268
f 269//269 267//267 275//275
f 275//275 276//276 269//269
f 270//270 268//268 274//274
f 274//274 277//277 270//270
f 271//271 269//269 276//276
f 276//276 278//278 271//271
f 272//272 270//270 277//277
f 277//277 279//279 272//272
f 258//258 30//30 280//280
f 32//32 271//271 278//278
f 260//260 272//272 279//279
f 279//279 281//281 260//260
f 259//259 258//258 280//280
f 280//280 282//282 259//259
f 261//261 260//260 281//281
f 281//281 283//283 261//261
f 262//262 259//259 282//282
f 282//282 284//284 262//262
f 263//263 261//261 283//283
f 283//283 285//285 263//263
f 264//264 262//262 284//284
f 284//284 286//286 264//264
f 265//265 263//263 285//285
f 285//285 287//287 265//265
f 266//266 264//264 286//286
f 286//286 273//273 266//266
f 267//267 265//265 287//287
f 287//287 275//275 267//267
f 283//283 281//281 288//288
f 288//288 289//289 283//283
f 284//284 282//282 290//290
f 290//290 291//291 284//284
f 285//285 283//283 289//289
f 289//289 292//292 285//285
f 286//286 284//284 291//291
f 291//291 293//293 286//286
f 287//287 285//285 292//292
f 292//292 294//294 287//287
f 273//273 286//286 293//293
f 293//293 295//295 273//273
f 275//275 287//287 294//294
f 294//294 296//296 275//275
f 274//274 273//273 295//295
f 295//295 297//297 274//274
f 276//276 275//275 296//296
f 296//296 298//298 276//276
f 277//277 274//274 297//297
f 297//297 299//299 277//277
f 278//278 276//276 298//298
f 298//298 300//300 278//278
f 279//279 277//277 299//299
f 299//299 301//301 279//279
f 280//280 30//30 302//302
f 32//32 278//278 300//300
f 281//281 279//279 301//301
f 301//301 288//288 281//281
f 282//282 280//280 302//302
f 302//302 290//290 282//282
f 298//298 296//296 303//303
f 303//303 304//304 298//298
f 299//299 297//297 305//305
f 305//305 306//306 299//299
f 300//300 298//298 304//304
f 304//304 307//307 300//300
f 301//301 299//299 306//306
f 306//306 308//308 301//301
f 302//302 30//30 309//309
f 32//32 300//300 307//307
f 288//288 301//301 308//308
f 308//308 310//310 288//288
f 290//290 302//302 309//309
f 309//309 311//311 290//290
f 289//289 288//288 310//310
f 310//310 312//312 289//289
f 291//291 290//290 311//311
f 311//311 313//313 291//291
f 292//292 289//289 312//312
f 312//312 314//314 292//292
f 293//293 291//291 313//313
f 313//313 315//315 293//293
f 294//294 292//292 314//314
f 314//314 316//316 294//294
f 295//295 293//293 315//315
f 315//315 317//317 295//295
f 296//296 294//294 316//316
f 316//316 303//303 296//296
f 297//297 295//295 317//317
f 317//317 305//305 297//297
f 313//313 311//311 318//318
f 318//318 319//319 313//313
f 314//314 312//312 320//320
f 320//320 321//321 314//314
f 315//315 313//313 319//319
f 319//319 322//322 315//315
f 316//316 314//314 321//321
f 321//321 323//323 316//316
f 317//317 315//315 322//322
f 322//322 324//324 317//317
f 303//303 316//316 323//323
f 323//323 325//325 303//303
f 305//305 317//317 324//324
f 324//324 326//326 305//305
f 304//304 303//303 325//325
f 325//325 327//327 304//304
f 306//306 305//305 326//326
f 326//326 328//328 306//306
f 307//307 304//304 327//327
f 327//327 329//329 307//307
f 308//308 306//306 328//328
f 328//328 330//330 308//308
f 309//309 30//30 331//331
f 32//32 307//307 329//329
f 310//310 308//308 330//330
f 330//330 332//332 310//310
f 311//311 309//309 331//331
f 331//331 318//318 311//311
f 312//312 310//310 332//332
f 332//332 320//320 312//312
f 328//328 326//326 333//333
f 333//333 334//334 328//328
f 329//329 327//327 335//335
f 335//335 336//336 329//329
f 330//330 328//328 334//334
f 334//334 337//337 330//330
f 331//331 30//30 338//338
f 32//32 329//329 336//336
f 332//332 330//330 337//337
f 337//337 339//339 332//332
f 318//318 331//331 338//338
f 338//338 340//340 318//318
f 320//320 332//332 339//339
f 339//339 341//341 320//320
f 319//319 318//318 340//340
f 340//340 342//342 319//319
f 321//321 320//320 341//341
f 341//341 343//343 321//321
f 322//322 319//319 342//342
f 342//342 344//344 322//322
f 323//323 321//321 343//343
f 343//343 345//345 323//323
f 324//324 322//322 344//344
f 344//344 346//346 324//324
f 325//325 323//323 345//345
f 345//345 347//347 325//325
f 326//326 324//324 346//346
f 346//346 333//333 326//326
f 327//327 325//325 347//347
f 347//347 335//335 327//327
f 343//343 341//341 348//348
f 348//348 349//349 343//343
f 344//344 342//342 350//350
f 350//350 351//351 344//344
f 345//345 343//343 349//349
f 349//349 352//352 345//345
f 346//346 344//344 351//351
f 351//351 353//353 346//346
f 347//347 345//345 352//352
f 352//352 354//354 347//347
f 333//333 346//346 353//353
f 353//353 355//355 333//333
f 335//335 347//347 354//354
f 354//354 356//356 335//335
f 334//334 333//333 355//355
f 355//355 357//357 334//334
f 336//336 335//335 356//356
f 356//356 358//358 336//336
f 337//337 334//334 357//357
f 357//357 359//359 337//337
f 338//338 30//30 360//360
f 32//32 336//336 358//358
f 339//339 337//337 359//359
f 359//359 361//361 339//339
f 340//340 338//338 360//360
f 360//360 362//362 340//340
f 341//341 339//339 361//361
f 361//361 348//348 341//341
f 342//342 340//340 362//362
f 362//362 350//350 342//342
f 358//358 356//356 363//363
f 363//363 364//364 358//358
f 359//359 357//357 365//365
f 365//365 366//366 359//359
f 360//360 30//30 367//367
f 32//32 358//358 364//364
f 361//361 359//359 366//366
f 366//366 368//368 361//361
f 362//362 360//360 367//367
f 367//367 369//369 362//362
f 348//348 361//361 368//368
f 368//368 370//370 348//348
f 350//350 362//362 369//369
f 369//369 371//371 350//350
f 349//349 348//348 370//370
f 370//370 372//372 349//349
f 351//351 350//350 371//371
f 371//371 373//373 351//351
f 352//352 349//349 372//372
f 372//372 374//374 352//352
f 353//353 351//351 373//373
f 373//373 375//375 353//353
f 354//354 352//352 374//374
f 374//374 376//376 354//354
f 355//355 353//353 375//375
f 375//375 377//377 355//355
f 356//356 354//354 376//376
f 376//376 363//363 356//356
f 357//357 355//355 377//377
f 377//377 365//365 357//357
f 374//374 372//372 378//378
f 378//378 379//379 374//374
f 375//375 373//373 380//380
f 380//380 381//381 375//375
f 376//376 374//374 379//379
f 379//379 382//382 376//376
f 377//377 375//375 381//381
f 381//381 383//383 377//377
f 363//363 376//376 382//382
f 382//382 384//384 363//363
f 365//365 377//377 383//383
f 383//383 385//385 365//365
f 364//364 363//363 384//384
f 384//384 386//386 364//364
f 366//366 365//365 385//385
f 385//385 387//387 366//366
f 367//367 30//30 388//388
f 32//32 364//364 386//386
f 368//368 366//366 387//387
f 387//387 389//389 368//368
f 369//369 367//367 388//388
f 388//388 390//390 369//369
f 370//370 368//368 389//389
f 389//389 391//391 370//370
f 371//371 369//369 390//390
f 390//390 392//392 371//371
f 372//372 370//370 391//391
f 391//391 378//378 372//372
f 373//373 371//371 392//392
f 392//392 380//380 373//373
f 388//388 30//30 393//393
f 32//32 386//386 394//394
f 389//389 387//387 395//395
f 395//395 396//396 389//389
f 390//390 388//388 393//393
f 393//393 397//397 390//390
f 391//391 389//389 396//396
f 396//396 398//398 391//391
f 392//392 390//390 397//397
f 397//397 399//399 392//392
f 378//378 391//391 398//398
f 398//398 400//400 378//378
f 380//380 392//392 399//399
f 399//399 401//401 380//380
f 379//379 378//378 400//400
f 400//400 402//402 379//379
f 381//381 380//380 401//401
f 401//401 403//403 381//381
f 382//382 379//379 402//402
f 402//402 404//404 382//382
f 383//383 381//381 403//403
f 403//403 405//405 383//383
f 384//384 382//382 404//404
f 404//404 406//406 384//384
f 385//385 383//383 405//405
f 405//405 407//407 385//385
f 386//386 384//384 406//406
f 406//406 394//394 386//386
f 387//387 385//385 407//407
f 407//407 395//395 387//387
f 403//403 401//401 408//408
f 408//408 409//409 403//403
f 404//404 402//402 410//410
f 410//410 411//411 404//404
f 405//405 403//403 409//409
f 409//409 412//412 405//405
f 406//406 404//404 411//411
f 411//411 413//413 406//406
f 407//407 405//405 412//412
f 412//412 414//414 407//407
f 394//394 406//406 413//413
f 413//413 415//415 394//394
f 395//395 407//407 414//414
f 414//414 416//416 395//395
f 393//393 30//30 417//417
f 32//32 394//394 415//415
f 396//396 395//395 416//416
f 416//416 418//418 396//396
f 397//397 393//393 417//417
f 417//417 419//419 397//397
f 398//398 396//396 418//418
f 418//418 420//420 398//398
f 399//399 397//397 419//419
f 419//419 421//421 399//399
f 400//400 398//398 420//420
f 420//420 422//422 400//400
f 401//401 399//399 421//421
f 421//421 408//408 401//401
f 402//402 400//400 422//422
f 422//422 410//410 402//402
f 418//418 416//416 423//423
f 423//423 424//424 418//418
f 419//419 417//417 425//425
f 425//425 426//426 419//419
f 420//420 418//418 424//424
f 424//424 427//427 420//420
f 421//421 419//419 426//426
f 426//426 428//428 421//421
f 422//422 420//420 427//427
f 427//427 429//429 422//422
f 408//408 421//421 428//428
f 428//428 430//430 408//408
f 410//410 422//422 429//429
f 429//429 431//431 410//410
f 409//409 408//408 430//430
f 430//430 432//432 409//409
f 411//411 410//410 431//431
f 431//431 433//433 411//411
f 412//412 409//409 432//432
f 432//432 434//434 412//412
f 413//413 411//411 433//433
f 433//433 435//435 413//413
f 414//414 412//412 434//434
f 434//434 436//436 414//414
f 415//415 413//413 435//435
f 435//435 437//437 415//415
f 416//416 414//414 436//436
f 436//436 423//423 416//416
f 417//417 30//30 425//425
f 32//32 415//415 437//437
f 433//433 431//431 438//438
f 438//438 439//439 433//433
f 434//434 432//432 440//440
f 440//440 441//441 434//434
f 435//435 433//433 439//439
f 439//439 442//442 435//435
f 436//436 434//434 441//441
f 441//441 443//443 436//436
f 437//437 435//435 442//442
f 442//442 444//444 437//437
f 423//423 436//436 443//443
f 443//443 445//445 423//423
f 425//425 30//30 446//446
f 32//32 437//437 444//444
f 424//424 423//423 445//445
f 445//445 447//447 424//424
f 426//426 425//425 446//446
f 446//446 448//448 426//426
f 427//427 424//424 447//447
f 447//447 449//449 427//427
f 428//428 426//426 448//448
f 448//448 450//450 428//428
f 429//429 427//427 449//449
f 449//449 451//451 429//429
f 430//430 428//428 450//450
f 450//450 452//452 430//430
f 431//431 429//429 451//451
f 451//451 438//438 431//431
f 432//432 430//430 452//452
f 452//452 440//440 432//432
f 448//448 446//446 453//453
f 453//453 454//454 448//448
f 449//449 447//447 455//455
f 455//455 456//456 449//449
f 450//450 448//448 454//454
f 454//454 457//457 450//450
f 451//451 449//449 456//456
f 456//456 458//458 451//451
f 452//452 450//450 457//457
f 457//457 459//459 452//452
f 438//438 451//451 458//458
f 458//458 460//460 438//438
f 440//440 452//452 459//459
f 459//459 461//461 440//440
f 439//439 438//438 460//460
f 460//460 462//462 439//439
f 441//441 440//440 461//461
f 461//461 463//463 441//441
f 442//442 439//439 462//462
f 462//462 464//464 442//442
f 443//443 441//441 463//463
f 463//463 465//465 443//443
f 444//444 442//442 464//464
f 464//464 466//466 444//444
f 445//445 443//443 465//465
f 465//465 467//467 445//445
f 446//446 30//30 453//453
f 32//32 444//444 466//466
f 447//447 445//445 467//467
f 467//467 455//455 447//447
f 463//463 461//461 15//15
f 15//15 19//19 463//463
f 464//464 462//462 17//17
f 17//17 21//21 464//464
f 465//465 463//463 19//19
f 19//19 23//23 465//465
f 466//466 464//464 21//21
f 21//21 25//25 466//466
f 467//467 465//465 23//23
f 23//23 27//27 467//467
f 453//453 30//30 29//29
f 32//32 466//466 25//25
f 455//455 467//467 27//27
f 27//27 2//2 455//455
f 454//454 453//453 29//29
f 29//29 6//6 454//454
f 456//456 455//455 2//2
f 2//2 1//1 456//456
f 457//457 454//454 6//6
f 6//6 5//5 457//457
f 458//458 456//456 1//1
f 1//1 9//9 458//458
f 459//459 457//457 5//5
f 5//5 11//11 459//459
f 460//460 458//458 9//9
f 9//9 13//13 460//460
f 461//461 459//459 11//11
f 11//11 15//15 461//461
f 462//462 460//460 13//13
f 13//13 17//17 462//462
f 468//1 469//2 470//3
f 470//3 471//468 468//1
f 472//5 473//6 474//469
f 474//469 475//470 472//5
f 476//9 468//1 471//468
f 471//468 477//10 476//9
f 478//11 472//5 475//470
f 475//470 479//12 478//11
f 480//13 476//9 477//10
f 477//10 481//14 480//13
f 482//15 478//11 479//12
f 479//12 483//16 482//15
f 484//17 480//13 481//14
f 481//14 485//471 484//17
f 486//19 482//15 483//16
f 483//16 487//20 486//19
f 488//21 484//17 485//471
f 485//471 489//472 488//21
f 490//23 486//19 487//20
f 487//20 491//24 490//23
f 492//25 488//21 489//472
f 489//472 493//473 492//25
f 494//27 490//23 491//24
f 491//24 495//28 494//27
f 496//29 497//30 498//474
f 499//32 492//25 493//473
f 469//2 494//27 495//28
f 495//28 470//3 469//2
f 473//6 496//29 498//474
f 498//474 474//469 473//6
f 498//474 497//30 500//475
f 499//32 493//473 501//476
f 470//3 495//28 502//35
f 502//35 503//36 470//3
f 474//469 498//474 500//475
f 500//475 504//37 474//469
f 471//468 470//3 503//36
f 503//36 505//38 471//468
f 475//470 474//469 504//37
f 504//37 506//477 475//470
f 477//10 471//468 505//38
f 505//38 507//478 477//10
f 479//12 475//470 506//477
f 506//477 508//41 479//12
f 481//14 477//10 507//478
f 507//478 509//42 481//14
f 483//16 479//12 508//41
f 508//41 510//479 483//16
f 485//471 481//14 509//42
f 509//42 511//44 485//471
f 487//20 483//16 510//479
f 510//479 512//45 487//20
f 489//472 485//471 511//44
f 511//44 513//46 489//472
f 491//24 487//20 512//45
f 512//45 514//47 491//24
f 493//473 489//472 513//46
f 513//46 501//476 493//473
f 495//28 491//24 514//47
f 514//47 502//35 495//28
f 510//479 508//41 515//48
f 515//48 516//49 510//479
f 511//44 509//42 517//50
f 517//50 518//480 511//44
f 512//45 510//479 516//49
f 516//49 519//52 512//45
f 513//46 511//44 518//480
f 518//480 520//481 513//46
f 514//47 512//45 519//52
f 519//52 521//54 514//47
f 501//476 513//46 520//481
f 520//481 522//482 501//476
f 502//35 514//47 521//54
f 521//54 523//483 502//35
f 500//475 497//30 524//484
f 499//32 501//476 522//482
f 503//36 502//35 523//483
f 523//483 525//58 503//36
f 504//37 500//475 524//484
f 524//484 526//59 504//37
f 505//38 503//36 525//58
f 525//58 527//60 505//38
f 506//477 504//37 526//59
f 526//59 528//61 506//477
f 507//478 505//38 527//60
f 527//60 529//485 507//478
f 508//41 506//477 528//61
f 528//61 515//48 508//41
f 509//42 507//478 529//485
f 529//485 517//50 509//42
f 525//58 523//483 530//486
f 530//486 531//487 525//58
f 526//59 524//484 532//65
f 532//65 533//66 526//59
f 527//60 525//58 531//487
f 531//487 534//488 527//60
f 528//61 526//59 533//66
f 533//66 535//489 528//61
f 529//485 527//60 534//488
f 534//488 536//69 529//485
f 515//48 528//61 535//489
f 535//489 537//70 515//48
f 517//50 529//485 536//69
f 536//69 538//71 517//50
f 516//49 515//48 537//70
f 537//70 539//490 516//49
f 518//480 517//50 538//71
f 538//71 540//491 518//480
f 519//52 516//49 539//490
f 539//490 541//492 519//52
f 520//481 518//480 540//491
f 540//491 542//493 520//481
f 521//54 519//52 541//492
f 541//492 543//494 521//54
f 522//482 520//481 542//493
f 542//493 544//77 522//482
f 523//483 521//54 543//494
f 543//494 530//486 523//483
f 524//484 497//30 532//65
f 499//32 522//482 544//77
f 540//491 538//71 545//78
f 545//78 546//495 540//491
f 541//492 539//490 547//496
f 547//496 548//497 541//492
f 542//493 540//491 546//495
f 546//495 549//82 542//493
f 543//494 541//492 548//497
f 548//497 550//83 543//494
f 544//77 542//493 549//82
f 549//82 551//498 544//77
f 530//486 543//494 550//83
f 550//83 552//85 530//486
f 532//65 497//30 553//499
f 499//32 544//77 551//498
f 531//487 530//486 552//85
f 552//85 554//87 531//487
f 533//66 532//65 553//499
f 553//499 555//500 533//66
f 534//488 531//487 554//87
f 554//87 556//89 534//488
f 535//489 533//66 555//500
f 555//500 557//90 535//489
f 536//69 534//488 556//89
f 556//89 558//91 536//69
f 537//70 535//489 557//90
f 557//90 559//92 537//70
f 538//71 536//69 558//91
f 558//91 545//78 538//71
f 539//490 537//70 559//92
f 559//92 547//496 539//490
f 556//89 554//87 560//93
f 560//93 561//94 556//89
f 557//90 555//500 562//95
f 562//95 563//96 557//90
f 558//91 556//89 561//94
f 561//94 564//97 558//91
f 559//92 557//90 563//96
f 563//96 565//98 559//92
f 545//78 558//91 564//97
f 564//97 566//501 545//78
f 547//496 559//92 565//98
f 565//98 567//100 547//496
f 546//495 545//78 566//501
f 566//501 568//502 546//495
f 548//497 547//496 567//100
f 567//100 569//102 548//497
f 549//82 546//495 568//502
f 568//502 570//103 549//82
f 550//83 548//497 569//102
f 569//102 571//503 550//83
f 551//498 549//82 570//103
f 570//103 572//504 551//498
f 552//85 550//83 571//503
f 571//503 573//106 552//85
f 553//499 497//30 574//505
f 499//32 551//498 572//504
f 554//87 552//85 573//106
f 573//106 560//93 554//87
f 555//500 553//499 574//505
f 574//505 562//95 555//500
f 570//103 568//502 575//108
f 575//108 576//506 570//103
f 571//503 569//102 577//507
f 577//507 578//508 571//503
f 572//504 570//103 576//506
f 576//506 579//509 572//504
f 573//106 571//503 578//508
f 578//508 580//113 573//106
f 574//505 497//30 581//114
f 499//32 572//504 579//509
f 560//93 573//106 580//113
f 580//113 582//510 560//93
f 562//95 574//505 581//114
f 581//114 583//116 562//95
f 561//94 560//93 582//510
f 582//510 584//117 561//94
f 563//96 562//95 583//116
f 583//116 585//511 563//96
f 564//97 561//94 584//117
f 584//117 586//119 564//97
f 565//98 563//96 585//511
f 585//511 587//512 565//98
f 566//501 564//97 586//119
f 586//119 588//121 566//501
f 567//100 565//98 587//512
f 587//512 589//122 567//100
f 568//502 566//501 588//121
f 588//121 575//108 568//502
f 569//102 567//100 589//122
f 589//122 577//507 569//102
f 585//511 583//116 590//123
f 590//123 591//513 585//511
f 586//119 584//117 592//514
f 592//514 593//126 586//119
f 587//512 585//511 591//513
f 591//513 594//127 587//512
f 588//121 586//119 593//126
f 593//126 595//128 588//121
f 589//122 587//512 594//127
f 594//127 596//129 589//122
f 575//108 588//121 595//128
f 595//128 597//515 575//108
f 577//507 589//122 596//129
f 596//129 598//516 577//507
f 576//506 575//108 597//515
f 597//515 599//132 576//506
f 578//508 577//507 598//516
f 598//516 600//517 578//508
f 579//509 576//506 599//132
f 599//132 601//518 579//509
f 580//113 578//508 600//517
f 600//517 602//135 580//113
f 581//114 497//30 603//519
f 499//32 579//509 601//518
f 582//510 580//113 602//135
f 602//135 604//137 582//510
f 583//116 581//114 603//519
f 603//519 590//123 583//116
f 584//117 582//510 604//137
f 604//137 592//514 584//117
f 600//517 598//516 605//520
f 605//520 606//139 600//517
f 601//518 599//132 607//140
f 607//140 608//521 601//518
f 602//135 600//517 606//139
f 606//139 609//522 602//135
f 603//519 497//30 610//523
f 499//32 601//518 608//521
f 604//137 602//135 609//522
f 609//522 611//144 604//137
f 590//123 603//519 610//523
f 610//523 612//524 590//123
f 592//514 604//137 611//144
f 611//144 613//525 592//514
f 591//513 590//123 612//524
f 612//524 614//147 591//513
f 593//126 592//514 613//525
f 613//525 615//148 593//126
f 594//127 591//513 614//147
f 614//147 616//149 594//127
f 595//128 593//126 615//148
f 615//148 617//526 595//128
f 596//129 594//127 616//149
f 616//149 618//151 596//129
f 597//515 595//128 617//526
f 617//526 619//152 597//515
f 598//516 596//129 618//151
f 618//151 605//520 598//516
f 599//132 597//515 619//152
f 619//152 607//140 599//132
f 615//148 613//525 620//153
f 620//153 621//154 615//148
f 616//149 614//147 622//527
f 622//527 623//528 616//149
f 617//526 615//148 621//154
f 621//154 624//529 617//526
f 618//151 616//149 623//528
f 623//528 625//158 618//151
f 619//152 617//526 624//529
f 624//529 626//530 619//152
f 605//520 618//151 625//158
f 625//158 627//160 605//520
f 607//140 619//152 626//530
f 626//530 628//161 607//140
f 606//139 605//520 627//160
f 627//160 629//162 606//139
f 608//521 607//140 628//161
f 628//161 630//531 608//521
f 609//522 606//139 629//162
f 629//162 631//164 609//522
f 610//523 497//30 632//532
f 499//32 608//521 630//531
f 611//144 609//522 631//164
f 631//164 633//166 611//144
f 612//524 610//523 632//532
f 632//532 634//167 612//524
f 613//525 611//144 633//166
f 633//166 620//153 613//525
f 614//147 612//524 634//167
f 634//167 622//527 614//147
f 630//531 628//161 635//533
f 635//533 636//534 630//531
f 631//164 629//162 637//170
f 637//170 638//171 631//164
f 632//532 497//30 639//535
f 499//32 630//531 636//534
f 633//166 631//164 638//171
f 638//171 640//173 633//166
f 634//167 632//532 639//535
f 639//535 641//174 634//167
f 620//153 633//166 640//173
f 640//173 642//175 620//153
f 622//527 634//167 641//174
f 641//174 643//536 622//527
f 621//154 620//153 642//175
f 642//175 644//177 621//154
f 623//528 622//527 643//536
f 643//536 645//178 623//528
f 624//529 621//154 644//177
f 644//177 646//537 624//529
f 625//158 623//528 645//178
f 645//178 647//180 625//158
f 626//530 624//529 646//537
f 646//537 648//538 626//530
f 627//160 625//158 647//180
f 647//180 649//182 627//160
f 628//161 626//530 648//538
f 648//538 635//533 628//161
f 629//162 627//160 649//182
f 649//182 637//170 629//162
f 645//178 643//536 650//183
f 650//183 651//184 645//178
f 646//537 644//177 652//185
f 652//185 653//186 646//537
f 647//180 645//178 651//184
f 651//184 654//187 647//180
f 648//538 646//537 653//186
f 653//186 655//188 648//538
f 649//182 647//180 654//187
f 654//187 656//189 649//182
f 635//533 648//538 655//188
f 655//188 657//190 635//533
f 637//170 649//182 656//189
f 656//189 658//191 637//170
f 636//534 635//533 657//190
f 657//190 659//539 636//534
f 638//171 637//170 658//191
f 658//191 660//193 638//171
f 639//535 497//30 661//540
f 499//32 636//534 659//539
f 640//173 638//171 660//193
f 660//193 662//195 640//173
f 641//174 639//535 661//540
f 661//540 663//196 641//174
f 642//175 640//173 662//195
f 662//195 664//197 642//175
f 643//536 641//174 663//196
f 663//196 650//183 643//536
f 644//177 642//175 664//197
f 664//197 652//185 644//177
f 660//193 658//191 665//198
f 665//198 666//199 660//193
f 661//540 497//30 667//541
f 499//32 659//539 668//542
f 662//195 660//193 666//199
f 666//199 669//202 662//195
f 663//196 661//540 667//541
f 667//541 670//203 663//196
f 664//197 662//195 669//202
f 669//202 671//204 664//197
f 650//183 663//196 670//203
f 670//203 672//543 650//183
f 652//185 664//197 671//204
f 671//204 673//544 652//185
f 651//184 650//183 672//543
f 672//543 674//207 651//184
f 653//186 652//185 673//544
f 673//544 675//208 653//186
f 654//187 651//184 674//207
f 674//207 676//545 654//187
f 655//188 653//186 675//208
f 675//208 677//546 655//188
f 656//189 654//187 676//545
f 676//545 678//547 656//189
f 657//190 655//188 677//546
f 677//546 679//212 657//190
f 658//191 656//189 678//547
f 678//547 665//198 658//191
f 659//539 657//190 679//212
f 679//212 668//542 659//539
f 675//208 673//544 680//213
f 680//213 681//214 675//208
f 676//545 674//207 682//215
f 682//215 683//216 676//545
f 677//546 675//208 681//214
f 681//214 684//217 677//546
f 678//547 676//545 683//216
f 683//216 685//548 678//547
f 679//212 677//546 684//217
f 684//217 686//219 679//212
f 665//198 678//547 685//548
f 685//548 687//220 665//198
f 668//542 679//212 686//219
f 686//219 688//549 668//542
f 666//199 665//198 687//220
f 687//220 689//222 666//199
f 667//541 497//30 690//550
f 499//32 668//542 688//549
f 669//202 666//199 689//222
f 689//222 691//224 669//202
f 670//203 667//541 690//550
f 690//550 692//551 670//203
f 671//204 669//202 691//224
f 691//224 693//552 671//204
f 672//543 670//203 692//551
f 692//551 694//227 672//543
f 673//544 671//204 693//552
f 693//552 680//213 673//544
f 674//207 672//543 694//227
f 694//227 682//215 674//207
f 499//32 688//549 695//553
f 691//224 689//222 696//554
f 696//554 697//230 691//224
f 692//551 690//550 698//555
f 698//555 699//232 692//551
f 693//552 691//224 697//230
f 697//230 700//556 693//552
f 694//227 692//551 699//232
f 699//232 701//234 694//227
f 680//213 693//552 700//556
f 700//556 702//235 680//213
f 682//215 694//227 701//234
f 701//234 703//236 682//215
f 681//214 680//213 702//235
f 702//235 704//237 681//214
f 683//216 682//215 703//236
f 703//236 705//238 683//216
f 684//217 681//214 704//237
f 704//237 706//239 684//217
f 685//548 683//216 705//238
f 705//238 707//240 685//548
f 686//219 684//217 706//239
f 706//239 708//241 686//219
f 687//220 685//548 707//240
f 707//240 709//557 687//220
f 688//549 686//219 708//241
f 708//241 695//553 688//549
f 689//222 687//220 709//557
f 709//557 696//554 689//222
f 690//550 497//30 698//555
f 706//239 704//237 710//243
f 710//243 711//244 706//239
f 707//240 705//238 712//558
f 712//558 713//246 707//240
f 708//241 706//239 711//244
f 711//244 714//559 708//241
f 709//557 707//240 713//246
f 713//246 715//248 709//557
f 695//553 708//241 714//559
f 714//559 716//560 695//553
f 696//554 709//557 715//248
f 715//248 717//250 696//554
f 698//555 497//30 718//561
f 499//32 695//553 716//560
f 697//230 696//554 717//250
f 717//250 719//252 697//230
f 699//232 698//555 718//561
f 718//561 720//562 699//232
f 700//556 697//230 719//252
f 719//252 721//563 700//556
f 701//234 699//232 720//562
f 720//562 722//255 701//234
f 702//235 700//556 721//563
f 721//563 723//256 702//235
f 703//236 701//234 722//255
f 722//255 724//257 703//236
f 704//237 702//235 723//256
f 723//256 710//243 704//237
f 705//238 703//236 724//257
f 724//257 712//558 705//238
f 720//562 718//561 725//564
f 725//564 726//565 720//562
f 721//563 719//252 727//260
f 727//260 728//566 721//563
f 722//255 720//562 726//565
f 726//565 729//262 722//255
f 723//256 721//563 728//566
f 728//566 730//263 723//256
f 724//257 722//255 729//262
f 729//262 731//567 724//257
f 710//243 723//256 730//263
f 730//263 732//568 710//243
f 712//558 724//257 731//567
f 731//567 733//266 712//558
f 711//244 710//243 732//568
f 732//568 734//267 711//244
f 713//246 712//558 733//266
f 733//266 735//569 713//246
f 714//559 711//244 734//267
f 734//267 736//570 714//559
f 715//248 713//246 735//569
f 735//569 737//270 715//248
f 716//560 714//559 736//570
f 736//570 738//571 716//560
f 717//250 715//248 737//270
f 737//270 739//272 717//250
f 718//561 497//30 725//564
f 499//32 716//560 738//571
f 719//252 717//250 739//272
f 739//272 727//260 719//252
f 735//569 733//266 740//273
f 740//273 741//572 735//569
f 736//570 734//267 742//573
f 742//573 743//574 736//570
f 737//270 735//569 741//572
f 741//572 744//277 737//270
f 738//571 736//570 743//574
f 743//574 745//575 738//571
f 739//272 737//270 744//277
f 744//277 746//279 739//272
f 725//564 497//30 747//576
f 499//32 738//571 745//575
f 727//260 739//272 746//279
f 746//279 748//577 727//260
f 726//565 725//564 747//576
f 747//576 749//578 726//565
f 728//566 727//260 748//577
f 748//577 750//579 728//566
f 729//262 726//565 749//578
f 749//578 751//580 729//262
f 730//263 728//566 750//579
f 750//579 752//581 730//263
f 731//567 729//262 751//580
f 751//580 753//582 731//567
f 732//568 730//263 752//581
f 752//581 754//583 732//568
f 733//266 731//567 753//582
f 753//582 740//273 733//266
f 734//267 732//568 754//583
f 754//583 742//573 734//267
f 750//579 748//577 755//288
f 755//288 756//289 750//579
f 751//580 749//578 757//290
f 757//290 758//291 751//580
f 752//581 750//579 756//289
f 756//289 759//292 752//581
f 753//582 751//580 758//291
f 758//291 760//293 753//582
f 754//583 752//581 759//292
f 759//292 761//584 754//583
f 740//273 753//582 760//293
f 760//293 762//585 740//273
f 742//573 754//583 761//584
f 761//584 763//296 742//573
f 741//572 740//273 762//585
f 762//585 764//297 741//572
f 743//574 742//573 763//296
f 763//296 765//298 743//574
f 744//277 741//572 764//297
f 764//297 766//299 744//277
f 745//575 743//574 765//298
f 765//298 767//586 745//575
f 746//279 744//277 766//299
f 766//299 768//301 746//279
f 747//576 497//30 769//587
f 499//32 745//575 767//586
f 748//577 746//279 768//301
f 768//301 755//288 748//577
f 749//578 747//576 769//587
f 769//587 757//290 749//578
f 765//298 763//296 770//303
f 770//303 771//304 765//298
f 766//299 764//297 772//305
f 772//305 773//306 766//299
f 767//586 765//298 771//304
f 771//304 774//588 767//586
f 768//301 766//299 773//306
f 773//306 775//308 768//301
f 769//587 497//30 776//589
f 499//32 767//586 774//588
f 755//288 768//301 775//308
f 775//308 777//310 755//288
f 757//290 769//587 776//589
f 776//589 778//311 757//290
f 756//289 755//288 777//310
f 777//310 779//312 756//289
f 758//291 757//290 778//311
f 778//311 780//313 758//291
f 759//292 756//289 779//312
f 779//312 781//590 759//292
f 760//293 758//291 780//313
f 780//313 782//591 760//293
f 761//584 759//292 781//590
f 781//590 783//592 761//584
f 762//585 760//293 782//591
f 782//591 784//593 762//585
f 763//296 761//584 783//592
f 783//592 770//303 763//296
f 764//297 762//585 784//593
f 784//593 772//305 764//297
f 780//313 778//311 785//318
f 785//318 786//319 780//313
f 781//590 779//312 787//594
f 787//594 788//321 781//590
f 782//591 780//313 786//319
f 786//319 789//595 782//591
f 783//592 781//590 788//321
f 788//321 790//596 783//592
f 784//593 782//591 789//595
f 789//595 791//324 784//593
f 770//303 783//592 790//596
f 790//596 792//597 770//303
f 772//305 784//593 791//324
f 791//324 793//326 772//305
f 771//304 770//303 792//597
f 792//597 794//327 771//304
f 773//306 772//305 793//326
f 793//326 795//328 773//306
f 774//588 771//304 794//327
f 794//327 796//329 774//588
f 775//308 773//306 795//328
f 795//328 797//330 775//308
f 776//589 497//30 798//331
f 499//32 774//588 796//329
f 777//310 775//308 797//330
f 797//330 799//332 777//310
f 778//311 776//589 798//331
f 798//331 785//318 778//311
f 779//312 777//310 799//332
f 799//332 787//594 779//312
f 795//328 793//326 800//333
f 800//333 801//334 795//328
f 796//329 794//327 802//335
f 802//335 803//598 796//329
f 797//330 795//328 801//334
f 801//334 804//599 797//330
f 798//331 497//30 805//600
f 499//32 796//329 803//598
f 799//332 797//330 804//599
f 804//599 806//339 799//332
f 785//318 798//331 805//600
f 805//600 807//340 785//318
f 787//594 799//332 806//339
f 806//339 808//341 787//594
f 786//319 785//318 807//340
f 807//340 809//601 786//319
f 788//321 787//594 808//341
f 808//341 810//343 788//321
f 789//595 786//319 809//601
f 809//601 811//344 789//595
f 790//596 788//321 810//343
f 810//343 812//345 790//596
f 791//324 789//595 811//344
f 811//344 813//346 791//324
f 792//597 790//596 812//345
f 812//345 814//602 792//597
f 793//326 791//324 813//346
f 813//346 800//333 793//326
f 794//327 792//597 814//602
f 814//602 802//335 794//327
f 810//343 808//341 815//348
f 815//348 816//349 810//343
f 811//344 809//601 817//350
f 817//350 818//351 811//344
f 812//345 810//343 816//349
f 816//349 819//352 812//345
f 813//346 811//344 818//351
f 818//351 820//353 813//346
f 814//602 812//345 819//352
f 819//352 821//354 814//602
f 800//333 813//346 820//353
f 820//353 822//355 800//333
f 802//335 814//602 821//354
f 821//354 823//356 802//335
f 801//334 800//333 822//355
f 822//355 824//357 801//334
f 803//598 802//335 823//356
f 823//356 825//603 803//598
f 804//599 801//334 824//357
f 824//357 826//604 804//599
f 805//600 497//30 827//605
f 499//32 803//598 825//603
f 806//339 804//599 826//604
f 826//604 828//361 806//339
f 807//340 805//600 827//605
f 827//605 829//362 807//340
f 808//341 806//339 828//361
f 828//361 815//348 808//341
f 809//601 807//340 829//362
f 829//362 817//350 809//601
f 825//603 823//356 830//363
f 830//363 831//606 825//603
f 826//604 824//357 832//607
f 832//607 833//366 826//604
f 827//605 497//30 834//608
f 499//32 825//603 831//606
f 828//361 826//604 833//366
f 833//366 835//609 828//361
f 829//362 827//605 834//608
f 834//608 836//610 829//362
f 815//348 828//361 835//609
f 835//609 837//370 815//348
f 817//350 829//362 836//610
f 836//610 838//611 817//350
f 816//349 815//348 837//370
f 837//370 839//372 816//349
f 818//351 817//350 838//611
f 838//611 840//373 818//351
f 819//352 816//349 839//372
f 839//372 841//612 819//352
f 820//353 818//351 840//373
f 840//373 842//375 820//353
f 821//354 819//352 841//612
f 841//612 843//613 821//354
f 822//355 820//353 842//375
f 842//375 844//614 822//355
f 823//356 821//354 843//613
f 843//613 830//363 823//356
f 824//357 822//355 844//614
f 844//614 832//607 824//357
f 841//612 839//372 845//615
f 845//615 846//379 841//612
f 842//375 840//373 847//380
f 847//380 848//381 842//375
f 843//613 841//612 846//379
f 846//379 849//616 843//613
f 844//614 842//375 848//381
f 848//381 850//383 844//614
f 830//363 843//613 849//616
f 849//616 851//384 830//363
f 832//607 844//614 850//383
f 850//383 852//617 832//607
f 831//606 830//363 851//384
f 851//384 853//618 831//606
f 833//366 832//607 852//617
f 852//617 854//387 833//366
f 834//608 497//30 855//388
f 499//32 831//606 853//618
f 835//609 833//366 854//387
f 854//387 856//619 835//609
f 836//610 834//608 855//388
f 855//388 857//390 836//610
f 837//370 835//609 856//619
f 856//619 858//391 837//370
f 838//611 836//610 857//390
f 857//390 859//620 838//611
f 839//372 837//370 858//391
f 858//391 845//615 839//372
f 840//373 838//611 859//620
f 859//620 847//380 840//373
f 855//388 497//30 860//393
f 499//32 853//618 861//621
f 856//619 854//387 862//395
f 862//395 863//622 856//619
f 857//390 855//388 860//393
f 860//393 864//397 857//390
f 858//391 856//619 863//622
f 863//622 865//398 858//391
f 859//620 857//390 864//397
f 864//397 866//623 859//620
f 845//615 858//391 865//398
f 865//398 867//624 845//615
f 847//380 859//620 866//623
f 866//623 868//401 847//380
f 846//379 845//615 867//624
f 867//624 869//625 846//379
f 848//381 847//380 868//401
f 868//401 870//403 848//381
f 849//616 846//379 869//625
f 869//625 871//626 849//616
f 850//383 848//381 870//403
f 870//403 872//627 850//383
f 851//384 849//616 871//626
f 871//626 873//406 851//384
f 852//617 850//383 872//627
f 872//627 874//628 852//617
f 853//618 851//384 873//406
f 873//406 861//621 853//618
f 854//387 852//617 874//628
f 874//628 862//395 854//387
f 870//403 868//401 875//629
f 875//629 876//409 870//403
f 871//626 869//625 877//630
f 877//630 878//411 871//626
f 872//627 870//403 876//409
f 876//409 879//631 872//627
f 873//406 871//626 878//411
f 878//411 880//413 873//406
f 874//628 872//627 879//631
f 879//631 881//414 874//628
f 861//621 873//406 880//413
f 880//413 882//415 861//621
f 862//395 874//628 881//414
f 881//414 883//416 862//395
f 860//393 497//30 884//632
f 499//32 861//621 882//415
f 863//622 862//395 883//416
f 883//416 885//418 863//622
f 864//397 860//393 884//632
f 884//632 886//419 864//397
f 865//398 863//622 885//418
f 885//418 887//633 865//398
f 866//623 864//397 886//419
f 886//419 888//421 866//623
f 867//624 865//398 887//633
f 887//633 889//634 867//624
f 868//401 866//623 888//421
f 888//421 875//629 868//401
f 869//625 867//624 889//634
f 889//634 877//630 869//625
f 885//418 883//416 890//635
f 890//635 891//424 885//418
f 886//419 884//632 892//425
f 892//425 893//426 886//419
f 887//633 885//418 891//424
f 891//424 894//636 887//633
f 888//421 886//419 893//426
f 893//426 895//637 888//421
f 889//634 887//633 894//636
f 894//636 896//429 889//634
f 875//629 888//421 895//637
f 895//637 897//430 875//629
f 877//630 889//634 896//429
f 896//429 898//431 877//630
f 876//409 875//629 897//430
f 897//430 899//432 876//409
f 878//411 877//630 898//431
f 898//431 900//638 878//411
f 879//631 876//409 899//432
f 899//432 901//639 879//631
f 880//413 878//411 900//638
f 900//638 902//435 880//413
f 881//414 879//631 901//639
f 901//639 903//436 881//414
f 882//415 880//413 902//435
f 902//435 904//437 882//415
f 883//416 881//414 903//436
f 903//436 890//635 883//416
f 884//632 497//30 892//425
f 499//32 882//415 904//437
f 900//638 898//431 905//438
f 905//438 906//439 900//638
f 901//639 899//432 907//640
f 907//640 908//641 901//639
f 902//435 900//638 906//439
f 906//439 909//442 902//435
f 903//436 901//639 908//641
f 908//641 910//443 903//436
f 904//437 902//435 909//442
f 909//442 911//642 904//437
f 890//635 903//436 910//443
f 910//443 912//643 890//635
f 892//425 497//30 913//644
f 499//32 904//437 911//642
f 891//424 890//635 912//643
f 912//643 914//447 891//424
f 893//426 892//425 913//644
f 913//644 915//645 893//426
f 894//636 891//424 914//447
f 914//447 916//646 894//636
f 895//637 893//426 915//645
f 915//645 917//450 895//637
f 896//429 894//636 916//646
f 916//646 918//647 896//429
f 897//430 895//637 917//450
f 917//450 919//452 897//430
f 898//431 896//429 918//647
f 918//647 905//438 898//431
f 899//432 897//430 919//452
f 919//452 907//640 899//432
f 915//645 913//644 920//648
f 920//648 921//454 915//645
f 916//646 914//447 922//455
f 922//455 923//456 916//646
f 917//450 915//645 921//454
f 921//454 924//649 917//450
f 918//647 916//646 923//456
f 923//456 925//458 918//647
f 919//452 917//450 924//649
f 924//649 926//459 919//452
f 905//438 918//647 925//458
f 925//458 927//460 905//438
f 907//640 919//452 926//459
f 926//459 928//461 907//640
f 906//439 905//438 927//460
f 927//460 929//650 906//439
f 908//641 907//640 928//461
f 928//461 930//463 908//641
f 909//442 906//439 929//650
f 929//650 931//464 909//442
f 910//443 908//641 930//463
f 930//463 932//465 910//443
f 911//642 909//442 931//464
f 931//464 933//651 911//642
f 912//643 910//443 932//465
f 932//465 934//467 912//643
f 913//644 497//30 920//648
f 499//32 911//642 933//651
f 914//447 912//643 934//467
f 934//467 922//455 914//447
f 930//463 928//461 482//15
f 482//15 486//19 930//463
f 931//464 929//650 484//17
f 484//17 488//21 931//464
f 932//465 930//463 486//19
f 486//19 490//23 932//465
f 933//651 931//464 488//21
f 488//21 492//25 933//651
f 934//467 932//465 490//23
f 490//23 494//27 934//467
f 920//648 497//30 496//29
f 499//32 933//651 492//25
f 922//455 934//467 494//27
f 494//27 469//2 922//455
f 921//454 920//648 496//29
f 496//29 473//6 921//454
f 923//456 922//455 469//2
f 469//2 468//1 923//456
f 924//649 921//454 473//6
f 473//6 472//5 924//649
f 925//458 923//456 468//1
f 468//1 476//9 925//458
f 926//459 924//649 472//5
f 472//5 478//11 926//459
f 927//460 925//458 476//9
f 476//9 480//13 927//460
f 928//461 926//459 478//11
f 478//11 482//15 928//461
f 929//650 927//460 480//13
f 480//13 484//17 929//650
