# Blender v2.90.0 OBJ File: 'convert2obj.blend'
# www.blender.org
mtllib Blackkey.mtl
o Blackkey
v -0.092003 -0.658149 -0.006294
v -0.092003 -0.658149 0.237031
v -0.121663 0.529250 0.232972
v -0.121663 0.529250 -0.010353
v 0.121663 0.529250 0.232972
v 0.121663 0.529250 -0.010353
v 0.151323 -0.658149 0.237031
v 0.151323 -0.658149 -0.006294
vn -0.9997 -0.0250 0.0000
vn 0.0000 1.0000 0.0000
vn 0.9997 0.0250 0.0000
vn 0.0000 -1.0000 0.0000
vn 0.0000 -0.0034 -1.0000
vn 0.0000 0.0034 1.0000
usemtl Blackkey
s off
f 1//1 2//1 3//1
f 3//1 4//1 1//1
f 4//2 3//2 5//2
f 5//2 6//2 4//2
f 6//3 5//3 7//3
f 7//3 8//3 6//3
f 2//4 1//4 8//4
f 8//4 7//4 2//4
f 8//5 1//5 4//5
f 4//5 6//5 8//5
f 5//6 3//6 2//6
f 2//6 7//6 5//6
