# Blender v2.90.0 OBJ File: 'obj_debugging2.blend'
# www.blender.org
mtllib Blob.mtl
o Blob
v 0.301772 0.000000 0.145695
v 0.289161 0.033016 0.166100
v 0.268756 0.020405 0.199116
v 0.268756 -0.020405 0.199116
v 0.289161 -0.033016 0.166100
v 0.289161 -0.033016 -0.166100
v 0.268756 -0.020405 -0.199116
v 0.301772 0.000000 -0.145695
v 0.268756 0.020405 -0.199116
v 0.289161 0.033016 -0.166100
v -0.289161 -0.033016 0.166100
v -0.268756 -0.020405 0.199116
v -0.301772 0.000000 0.145695
v -0.268756 0.020405 0.199116
v -0.289161 0.033016 0.166100
v -0.301772 0.000000 -0.145695
v -0.289161 0.033016 -0.166100
v -0.268756 0.020405 -0.199116
v -0.268756 -0.020405 -0.199116
v -0.289161 -0.033016 -0.166100
v 0.000000 0.145695 0.301772
v 0.033016 0.166100 0.289161
v 0.020405 0.199116 0.268756
v -0.020405 0.199116 0.268756
v -0.033016 0.166100 0.289161
v -0.020405 -0.199116 0.268756
v 0.000000 -0.145695 0.301772
v -0.033016 -0.166100 0.289161
v 0.020405 -0.199116 0.268756
v 0.033016 -0.166100 0.289161
v 0.000000 0.145695 -0.301772
v -0.033016 0.166100 -0.289161
v -0.020405 0.199116 -0.268756
v 0.020405 0.199116 -0.268756
v 0.033016 0.166100 -0.289161
v 0.020405 -0.199116 -0.268756
v 0.000000 -0.145695 -0.301772
v 0.033016 -0.166100 -0.289161
v -0.020405 -0.199116 -0.268756
v -0.033016 -0.166100 -0.289161
v 0.199116 0.268756 0.020405
v 0.145695 0.301772 0.000000
v 0.166100 0.289161 0.033016
v 0.199116 0.268756 -0.020405
v 0.166100 0.289161 -0.033016
v -0.199116 0.268756 -0.020405
v -0.145695 0.301772 0.000000
v -0.166100 0.289161 -0.033016
v -0.199116 0.268756 0.020405
v -0.166100 0.289161 0.033016
v 0.145695 -0.301772 0.000000
v 0.166100 -0.289161 -0.033016
v 0.199116 -0.268756 -0.020405
v 0.199116 -0.268756 0.020405
v 0.166100 -0.289161 0.033016
v -0.145695 -0.301772 0.000000
v -0.166100 -0.289161 0.033016
v -0.199116 -0.268756 0.020405
v -0.199116 -0.268756 -0.020405
v -0.166100 -0.289161 -0.033016
v 0.381597 0.000000 0.097969
v 0.338993 -0.111541 0.166905
v 0.338993 0.111541 0.166905
v 0.270057 -0.068935 0.278444
v 0.270057 0.068935 0.278444
v 0.381597 0.000000 -0.097969
v 0.338993 0.111541 -0.166905
v 0.338993 -0.111541 -0.166905
v 0.270057 0.068935 -0.278444
v 0.270057 -0.068935 -0.278444
v -0.381597 0.000000 0.097969
v -0.338993 0.111541 0.166905
v -0.338993 -0.111541 0.166905
v -0.270057 0.068935 0.278444
v -0.270057 -0.068935 0.278444
v -0.381597 0.000000 -0.097969
v -0.338993 -0.111541 -0.166905
v -0.338993 0.111541 -0.166905
v -0.270057 -0.068935 -0.278444
v -0.270057 0.068935 -0.278444
v 0.000000 0.097969 0.381597
v -0.111541 0.166905 0.338993
v 0.111541 0.166905 0.338993
v -0.068935 0.278444 0.270057
v 0.068935 0.278444 0.270057
v 0.000000 -0.097969 0.381597
v 0.111541 -0.166905 0.338993
v -0.111541 -0.166905 0.338993
v 0.068935 -0.278444 0.270057
v -0.068935 -0.278444 0.270057
v 0.000000 0.097969 -0.381597
v 0.111541 0.166905 -0.338993
v -0.111541 0.166905 -0.338993
v 0.068935 0.278444 -0.270057
v -0.068935 0.278444 -0.270057
v 0.000000 -0.097969 -0.381597
v -0.111541 -0.166905 -0.338993
v 0.111541 -0.166905 -0.338993
v -0.068935 -0.278444 -0.270057
v 0.068935 -0.278444 -0.270057
v 0.097969 0.381597 0.000000
v 0.166905 0.338993 -0.111541
v 0.166905 0.338993 0.111541
v 0.278444 0.270057 -0.068935
v 0.278444 0.270057 0.068935
v -0.097969 0.381597 0.000000
v -0.166905 0.338993 0.111541
v -0.166905 0.338993 -0.111541
v -0.278444 0.270057 0.068935
v -0.278444 0.270057 -0.068935
v 0.097969 -0.381597 0.000000
v 0.166905 -0.338993 0.111541
v 0.166905 -0.338993 -0.111541
v 0.278444 -0.270057 0.068935
v 0.278444 -0.270057 -0.068935
v -0.097969 -0.381597 0.000000
v -0.166905 -0.338993 -0.111541
v -0.166905 -0.338993 0.111541
v -0.278444 -0.270057 -0.068935
v -0.278444 -0.270057 0.068935
v 0.502245 0.110827 0.000000
v 0.461739 0.216875 -0.065541
v 0.461739 0.216875 0.065541
v 0.461739 -0.216875 -0.065541
v 0.502245 -0.110827 0.000000
v 0.461739 -0.216875 0.065541
v -0.502245 0.110827 0.000000
v -0.461739 0.216875 0.065541
v -0.461739 0.216875 -0.065541
v -0.461739 -0.216875 -0.065541
v -0.461739 -0.216875 0.065541
v -0.502245 -0.110827 0.000000
v 0.216875 -0.065541 0.461739
v 0.216875 0.065541 0.461739
v 0.110827 0.000000 0.502245
v -0.216875 -0.065541 0.461739
v -0.110827 0.000000 0.502245
v -0.216875 0.065541 0.461739
v 0.216875 -0.065541 -0.461739
v 0.110827 0.000000 -0.502245
v 0.216875 0.065541 -0.461739
v -0.216875 -0.065541 -0.461739
v -0.216875 0.065541 -0.461739
v -0.110827 0.000000 -0.502245
v -0.065541 0.461739 0.216875
v 0.065541 0.461739 0.216875
v 0.000000 0.502245 0.110827
v 0.065541 0.461739 -0.216875
v -0.065541 0.461739 -0.216875
v 0.000000 0.502245 -0.110827
v 0.000000 -0.502245 0.110827
v 0.065541 -0.461739 0.216875
v -0.065541 -0.461739 0.216875
v 0.000000 -0.502245 -0.110827
v -0.065541 -0.461739 -0.216875
v 0.065541 -0.461739 -0.216875
v 0.285371 0.244863 0.350911
v 0.350911 0.285371 0.244863
v 0.244863 0.350911 0.285371
v 0.244863 -0.350911 0.285371
v 0.350911 -0.285371 0.244863
v 0.285371 -0.244863 0.350911
v 0.285371 0.244863 -0.350911
v 0.244863 0.350911 -0.285371
v 0.350911 0.285371 -0.244863
v 0.244863 -0.350911 -0.285371
v 0.285371 -0.244863 -0.350911
v 0.350911 -0.285371 -0.244863
v -0.285371 0.244863 0.350911
v -0.244863 0.350911 0.285371
v -0.350911 0.285371 0.244863
v -0.244863 -0.350911 0.285371
v -0.285371 -0.244863 0.350911
v -0.350911 -0.285371 0.244863
v -0.285371 0.244863 -0.350911
v -0.350911 0.285371 -0.244863
v -0.244863 0.350911 -0.285371
v -0.244863 -0.350911 -0.285371
v -0.350911 -0.285371 -0.244863
v -0.285371 -0.244863 -0.350911
v 0.390421 0.241294 -0.149127
v 0.482587 0.000000 0.000000
v 0.390421 0.241294 0.149127
v 0.390421 -0.241294 0.149127
v 0.390421 -0.241294 -0.149127
v -0.482587 0.000000 0.000000
v -0.390421 0.241294 0.149127
v -0.390421 0.241294 -0.149127
v -0.390421 -0.241294 -0.149127
v -0.390421 -0.241294 0.149127
v 0.241294 -0.149127 0.390421
v 0.000000 0.000000 0.482587
v 0.241294 0.149127 0.390421
v -0.241294 0.149127 0.390421
v -0.241294 -0.149127 0.390421
v 0.000000 0.000000 -0.482587
v 0.241294 0.149127 -0.390421
v 0.241294 -0.149127 -0.390421
v -0.241294 -0.149127 -0.390421
v -0.241294 0.149127 -0.390421
v -0.149127 0.390421 0.241294
v 0.000000 0.482587 0.000000
v 0.149127 0.390421 0.241294
v 0.149127 0.390421 -0.241294
v -0.149127 0.390421 -0.241294
v 0.000000 -0.482587 0.000000
v 0.149127 -0.390421 0.241294
v -0.149127 -0.390421 0.241294
v -0.149127 -0.390421 -0.241294
v 0.149127 -0.390421 -0.241294
v 0.495632 0.000000 0.059163
v 0.419257 0.199952 0.182740
v 0.419257 -0.199952 0.182740
v 0.295680 -0.123577 0.382693
v 0.295680 0.123577 0.382693
v 0.419257 -0.199952 -0.182740
v 0.495632 0.000000 -0.059163
v 0.419257 0.199952 -0.182740
v 0.295680 0.123577 -0.382693
v 0.295680 -0.123577 -0.382693
v -0.495632 0.000000 0.059163
v -0.419257 -0.199952 0.182740
v -0.419257 0.199952 0.182740
v -0.295680 0.123577 0.382693
v -0.295680 -0.123577 0.382693
v -0.495632 0.000000 -0.059163
v -0.419257 0.199952 -0.182740
v -0.419257 -0.199952 -0.182740
v -0.295680 -0.123577 -0.382693
v -0.295680 0.123577 -0.382693
v 0.000000 0.059163 0.495632
v 0.199952 0.182740 0.419257
v -0.199952 0.182740 0.419257
v -0.123577 0.382693 0.295680
v 0.123577 0.382693 0.295680
v -0.199952 -0.182740 0.419257
v 0.000000 -0.059163 0.495632
v 0.199952 -0.182740 0.419257
v 0.123577 -0.382693 0.295680
v -0.123577 -0.382693 0.295680
v 0.000000 0.059163 -0.495632
v -0.199952 0.182740 -0.419257
v 0.199952 0.182740 -0.419257
v 0.123577 0.382693 -0.295680
v -0.123577 0.382693 -0.295680
v 0.000000 -0.059163 -0.495632
v 0.199952 -0.182740 -0.419257
v -0.199952 -0.182740 -0.419257
v -0.123577 -0.382693 -0.295680
v 0.123577 -0.382693 -0.295680
v 0.059163 0.495632 0.000000
v 0.182740 0.419257 0.199952
v 0.182740 0.419257 -0.199952
v 0.382693 0.295680 -0.123577
v 0.382693 0.295680 0.123577
v -0.182740 0.419257 -0.199952
v -0.059163 0.495632 0.000000
v -0.182740 0.419257 0.199952
v -0.382693 0.295680 0.123577
v -0.382693 0.295680 -0.123577
v 0.059163 -0.495632 0.000000
v 0.182740 -0.419257 -0.199952
v 0.182740 -0.419257 0.199952
v 0.382693 -0.295680 0.123577
v 0.382693 -0.295680 -0.123577
v -0.059163 -0.495632 0.000000
v -0.182740 -0.419257 0.199952
v -0.182740 -0.419257 -0.199952
v -0.382693 -0.295680 -0.123577
v -0.382693 -0.295680 0.123577
v 0.425463 -0.158048 0.202581
v 0.485831 0.000000 0.104901
v 0.425463 0.158048 0.202581
v 0.327783 -0.097679 0.360630
v 0.327783 0.097679 0.360630
v 0.425463 0.158048 -0.202581
v 0.485831 0.000000 -0.104901
v 0.425463 -0.158048 -0.202581
v 0.327783 0.097679 -0.360630
v 0.327783 -0.097679 -0.360630
v -0.425463 0.158048 0.202581
v -0.485831 0.000000 0.104901
v -0.425463 -0.158048 0.202581
v -0.327783 0.097679 0.360630
v -0.327783 -0.097679 0.360630
v -0.425463 -0.158048 -0.202581
v -0.485831 0.000000 -0.104901
v -0.425463 0.158048 -0.202581
v -0.327783 -0.097679 -0.360630
v -0.327783 0.097679 -0.360630
v -0.158048 0.202581 0.425463
v 0.000000 0.104901 0.485831
v 0.158048 0.202581 0.425463
v -0.097679 0.360630 0.327783
v 0.097679 0.360630 0.327783
v 0.158048 -0.202581 0.425463
v 0.000000 -0.104901 0.485831
v -0.158048 -0.202581 0.425463
v 0.097679 -0.360630 0.327783
v -0.097679 -0.360630 0.327783
v 0.158048 0.202581 -0.425463
v 0.000000 0.104901 -0.485831
v -0.158048 0.202581 -0.425463
v 0.097679 0.360630 -0.327783
v -0.097679 0.360630 -0.327783
v -0.158048 -0.202581 -0.425463
v 0.000000 -0.104901 -0.485831
v 0.158048 -0.202581 -0.425463
v -0.097679 -0.360630 -0.327783
v 0.097679 -0.360630 -0.327783
v 0.202581 0.425463 -0.158048
v 0.104901 0.485831 0.000000
v 0.202581 0.425463 0.158048
v 0.360630 0.327783 -0.097679
v 0.360630 0.327783 0.097679
v -0.202581 0.425463 0.158048
v -0.104901 0.485831 0.000000
v -0.202581 0.425463 -0.158048
v -0.360630 0.327783 0.097679
v -0.360630 0.327783 -0.097679
v 0.202581 -0.425463 0.158048
v 0.104901 -0.485831 0.000000
v 0.202581 -0.425463 -0.158048
v 0.360630 -0.327783 0.097679
v 0.360630 -0.327783 -0.097679
v -0.202581 -0.425463 -0.158048
v -0.104901 -0.485831 0.000000
v -0.202581 -0.425463 0.158048
v -0.360630 -0.327783 -0.097679
v -0.360630 -0.327783 0.097679
vn 0.6366 0.0000 0.7712
vn 0.7533 -0.3056 0.5823
vn 0.9422 -0.1889 0.2767
vn 0.9422 0.1889 0.2767
vn 0.7533 0.3056 0.5823
vn 0.7533 0.3056 -0.5823
vn 0.9422 0.1889 -0.2767
vn 0.6366 0.0000 -0.7712
vn 0.9422 -0.1889 -0.2767
vn 0.7533 -0.3056 -0.5823
vn -0.7533 0.3056 0.5823
vn -0.9422 0.1889 0.2767
vn -0.6366 0.0000 0.7712
vn -0.9422 -0.1889 0.2767
vn -0.7533 -0.3056 0.5823
vn -0.6366 0.0000 -0.7712
vn -0.7533 -0.3056 -0.5823
vn -0.9422 -0.1889 -0.2767
vn -0.9422 0.1889 -0.2767
vn -0.7533 0.3056 -0.5823
vn 0.0000 0.7712 0.6366
vn -0.3056 0.5823 0.7533
vn -0.1889 0.2767 0.9422
vn 0.1889 0.2767 0.9422
vn 0.3056 0.5823 0.7533
vn 0.1889 -0.2767 0.9422
vn 0.0000 -0.7712 0.6366
vn 0.3056 -0.5823 0.7533
vn -0.1889 -0.2767 0.9422
vn -0.3056 -0.5823 0.7533
vn 0.0000 0.7712 -0.6366
vn 0.3056 0.5823 -0.7533
vn 0.1889 0.2767 -0.9422
vn -0.1889 0.2767 -0.9422
vn -0.3056 0.5823 -0.7533
vn -0.1889 -0.2767 -0.9422
vn 0.0000 -0.7712 -0.6366
vn -0.3056 -0.5823 -0.7533
vn 0.1889 -0.2767 -0.9422
vn 0.3056 -0.5823 -0.7533
vn 0.2767 0.9422 -0.1889
vn 0.7712 0.6366 0.0000
vn 0.5823 0.7533 -0.3056
vn 0.2767 0.9422 0.1889
vn 0.5823 0.7533 0.3056
vn -0.2767 0.9422 0.1889
vn -0.7712 0.6366 0.0000
vn -0.5823 0.7533 0.3056
vn -0.2767 0.9422 -0.1889
vn -0.5823 0.7533 -0.3056
vn 0.7712 -0.6366 0.0000
vn 0.5823 -0.7533 0.3056
vn 0.2767 -0.9422 0.1889
vn 0.2767 -0.9422 -0.1889
vn 0.5823 -0.7533 -0.3056
vn -0.7712 -0.6366 0.0000
vn -0.5823 -0.7533 -0.3056
vn -0.2767 -0.9422 -0.1889
vn -0.2767 -0.9422 0.1889
vn -0.5823 -0.7533 0.3056
vn 0.1630 -0.0000 0.9866
vn 0.4368 0.7167 0.5437
vn 0.4368 -0.7167 0.5437
vn 0.8797 0.4429 -0.1730
vn 0.8797 -0.4429 -0.1730
vn 0.1630 0.0000 -0.9866
vn 0.4368 -0.7167 -0.5437
vn 0.4368 0.7167 -0.5437
vn 0.8797 -0.4429 0.1730
vn 0.8797 0.4429 0.1730
vn -0.1630 0.0000 0.9866
vn -0.4368 -0.7167 0.5437
vn -0.4368 0.7167 0.5437
vn -0.8797 -0.4429 -0.1730
vn -0.8797 0.4429 -0.1730
vn -0.1630 -0.0000 -0.9866
vn -0.4368 0.7167 -0.5437
vn -0.4368 -0.7167 -0.5437
vn -0.8797 0.4429 0.1730
vn -0.8797 -0.4429 0.1730
vn 0.0000 0.9866 0.1630
vn 0.7167 0.5437 0.4368
vn -0.7167 0.5437 0.4368
vn 0.4429 -0.1730 0.8797
vn -0.4429 -0.1730 0.8797
vn -0.0000 -0.9866 0.1630
vn -0.7167 -0.5437 0.4368
vn 0.7167 -0.5437 0.4368
vn -0.4429 0.1730 0.8797
vn 0.4429 0.1730 0.8797
vn -0.0000 0.9866 -0.1630
vn -0.7167 0.5437 -0.4368
vn 0.7167 0.5437 -0.4368
vn -0.4429 -0.1730 -0.8797
vn 0.4429 -0.1730 -0.8797
vn 0.0000 -0.9866 -0.1630
vn 0.7167 -0.5437 -0.4368
vn -0.7167 -0.5437 -0.4368
vn 0.4429 0.1730 -0.8797
vn -0.4429 0.1730 -0.8797
vn 0.9866 0.1630 0.0000
vn 0.5437 0.4368 0.7167
vn 0.5437 0.4368 -0.7167
vn -0.1730 0.8797 0.4429
vn -0.1730 0.8797 -0.4429
vn -0.9866 0.1630 -0.0000
vn -0.5437 0.4368 -0.7167
vn -0.5437 0.4368 0.7167
vn 0.1730 0.8797 -0.4429
vn 0.1730 0.8797 0.4429
vn 0.9866 -0.1630 -0.0000
vn 0.5437 -0.4368 -0.7167
vn 0.5437 -0.4368 0.7167
vn -0.1730 -0.8797 -0.4429
vn -0.1730 -0.8797 0.4429
vn -0.9866 -0.1630 0.0000
vn -0.5437 -0.4368 0.7167
vn -0.5437 -0.4368 -0.7167
vn 0.1730 -0.8797 0.4429
vn 0.1730 -0.8797 -0.4429
vn 0.9984 -0.0562 0.0000
vn 0.7796 0.5166 -0.3540
vn 0.7796 0.5166 0.3540
vn 0.7796 -0.5166 -0.3540
vn 0.9984 0.0562 -0.0000
vn 0.7796 -0.5166 0.3540
vn -0.9984 -0.0562 -0.0000
vn -0.7796 0.5166 0.3540
vn -0.7796 0.5166 -0.3540
vn -0.7796 -0.5166 -0.3540
vn -0.7796 -0.5166 0.3540
vn -0.9984 0.0562 0.0000
vn 0.5166 -0.3540 0.7796
vn 0.5166 0.3540 0.7796
vn -0.0562 -0.0000 0.9984
vn -0.5166 -0.3540 0.7796
vn 0.0562 0.0000 0.9984
vn -0.5166 0.3540 0.7796
vn 0.5166 -0.3540 -0.7796
vn -0.0562 0.0000 -0.9984
vn 0.5166 0.3540 -0.7796
vn -0.5166 -0.3540 -0.7796
vn -0.5166 0.3540 -0.7796
vn 0.0562 0.0000 -0.9984
vn -0.3540 0.7796 0.5166
vn 0.3540 0.7796 0.5166
vn -0.0000 0.9984 -0.0562
vn 0.3540 0.7796 -0.5166
vn -0.3540 0.7796 -0.5166
vn 0.0000 0.9984 0.0562
vn 0.0000 -0.9984 -0.0562
vn 0.3540 -0.7796 0.5166
vn -0.3540 -0.7796 0.5166
vn -0.0000 -0.9984 0.0562
vn -0.3540 -0.7796 -0.5166
vn 0.3540 -0.7796 -0.5166
vn 0.4819 0.2631 0.8358
vn 0.8358 0.4819 0.2631
vn 0.2631 0.8358 0.4819
vn 0.2631 -0.8358 0.4819
vn 0.8358 -0.4819 0.2631
vn 0.4819 -0.2631 0.8358
vn 0.4819 0.2631 -0.8358
vn 0.2631 0.8358 -0.4819
vn 0.8358 0.4819 -0.2631
vn 0.2631 -0.8358 -0.4819
vn 0.4819 -0.2631 -0.8358
vn 0.8358 -0.4819 -0.2631
vn -0.4819 0.2631 0.8358
vn -0.2631 0.8358 0.4819
vn -0.8358 0.4819 0.2631
vn -0.2631 -0.8358 0.4819
vn -0.4819 -0.2631 0.8358
vn -0.8358 -0.4819 0.2631
vn -0.4819 0.2631 -0.8358
vn -0.8358 0.4819 -0.2631
vn -0.2631 0.8358 -0.4819
vn -0.2631 -0.8358 -0.4819
vn -0.8358 -0.4819 -0.2631
vn -0.4819 -0.2631 -0.8358
vn 0.8090 0.5000 -0.3090
vn 1.0000 0.0000 0.0000
vn 0.8090 0.5000 0.3090
vn 0.8090 -0.5000 0.3090
vn 0.8090 -0.5000 -0.3090
vn -1.0000 0.0000 0.0000
vn -0.8090 0.5000 0.3090
vn -0.8090 0.5000 -0.3090
vn -0.8090 -0.5000 -0.3090
vn -0.8090 -0.5000 0.3090
vn 0.5000 -0.3090 0.8090
vn 0.0000 0.0000 1.0000
vn 0.5000 0.3090 0.8090
vn -0.5000 0.3090 0.8090
vn -0.5000 -0.3090 0.8090
vn 0.0000 0.0000 -1.0000
vn 0.5000 0.3090 -0.8090
vn 0.5000 -0.3090 -0.8090
vn -0.5000 -0.3090 -0.8090
vn -0.5000 0.3090 -0.8090
vn -0.3090 0.8090 0.5000
vn 0.0000 1.0000 0.0000
vn 0.3090 0.8090 0.5000
vn 0.3090 0.8090 -0.5000
vn -0.3090 0.8090 -0.5000
vn 0.0000 -1.0000 0.0000
vn 0.3090 -0.8090 0.5000
vn -0.3090 -0.8090 0.5000
vn -0.3090 -0.8090 -0.5000
vn 0.3090 -0.8090 -0.5000
vn 0.9976 -0.0000 -0.0688
vn 0.7858 0.5545 0.2739
vn 0.7858 -0.5545 0.2739
vn 0.4431 -0.3427 0.8284
vn 0.4431 0.3427 0.8284
vn 0.7858 -0.5545 -0.2739
vn 0.9976 0.0000 0.0688
vn 0.7858 0.5545 -0.2739
vn 0.4431 0.3427 -0.8284
vn 0.4431 -0.3427 -0.8284
vn -0.9976 -0.0000 -0.0688
vn -0.7858 -0.5545 0.2739
vn -0.7858 0.5545 0.2739
vn -0.4431 0.3427 0.8284
vn -0.4431 -0.3427 0.8284
vn -0.9976 0.0000 0.0688
vn -0.7858 0.5545 -0.2739
vn -0.7858 -0.5545 -0.2739
vn -0.4431 -0.3427 -0.8284
vn -0.4431 0.3427 -0.8284
vn 0.0000 -0.0688 0.9976
vn 0.5545 0.2739 0.7858
vn -0.5545 0.2739 0.7858
vn -0.3427 0.8284 0.4431
vn 0.3427 0.8284 0.4431
vn -0.5545 -0.2739 0.7858
vn 0.0000 0.0688 0.9976
vn 0.5545 -0.2739 0.7858
vn 0.3427 -0.8284 0.4431
vn -0.3427 -0.8284 0.4431
vn 0.0000 -0.0688 -0.9976
vn -0.5545 0.2739 -0.7858
vn 0.5545 0.2739 -0.7858
vn 0.3427 0.8284 -0.4431
vn -0.3427 0.8284 -0.4431
vn 0.0000 0.0688 -0.9976
vn 0.5545 -0.2739 -0.7858
vn -0.5545 -0.2739 -0.7858
vn -0.3427 -0.8284 -0.4431
vn 0.3427 -0.8284 -0.4431
vn -0.0688 0.9976 0.0000
vn 0.2739 0.7858 0.5545
vn 0.2739 0.7858 -0.5545
vn 0.8284 0.4431 -0.3427
vn 0.8284 0.4431 0.3427
vn -0.2739 0.7858 -0.5545
vn 0.0688 0.9976 0.0000
vn -0.2739 0.7858 0.5545
vn -0.8284 0.4431 0.3427
vn -0.8284 0.4431 -0.3427
vn -0.0688 -0.9976 0.0000
vn 0.2739 -0.7858 -0.5545
vn 0.2739 -0.7858 0.5545
vn 0.8284 -0.4431 0.3427
vn 0.8284 -0.4431 -0.3427
vn 0.0688 -0.9976 -0.0000
vn -0.2739 -0.7858 0.5545
vn -0.2739 -0.7858 -0.5545
vn -0.8284 -0.4431 -0.3427
vn -0.8284 -0.4431 0.3427
vn 0.8294 0.0978 0.5500
vn 0.7921 -0.0000 0.6105
vn 0.8294 -0.0978 0.5500
vn 0.8899 0.0605 0.4521
vn 0.8899 -0.0605 0.4521
vn 0.8294 -0.0978 -0.5500
vn 0.7921 0.0000 -0.6105
vn 0.8294 0.0978 -0.5500
vn 0.8899 -0.0605 -0.4521
vn 0.8899 0.0605 -0.4521
vn -0.8294 -0.0978 0.5500
vn -0.7921 -0.0000 0.6105
vn -0.8294 0.0978 0.5500
vn -0.8899 -0.0605 0.4521
vn -0.8899 0.0605 0.4521
vn -0.8294 0.0978 -0.5500
vn -0.7921 0.0000 -0.6105
vn -0.8294 -0.0978 -0.5500
vn -0.8899 0.0605 -0.4521
vn -0.8899 -0.0605 -0.4521
vn 0.0978 0.5500 0.8294
vn 0.0000 0.6105 0.7921
vn -0.0978 0.5500 0.8294
vn 0.0605 0.4521 0.8899
vn -0.0605 0.4521 0.8899
vn -0.0978 -0.5500 0.8294
vn 0.0000 -0.6105 0.7921
vn 0.0978 -0.5500 0.8294
vn -0.0605 -0.4521 0.8899
vn 0.0605 -0.4521 0.8899
vn -0.0978 0.5500 -0.8294
vn 0.0000 0.6105 -0.7921
vn 0.0978 0.5500 -0.8294
vn -0.0605 0.4521 -0.8899
vn 0.0605 0.4521 -0.8899
vn 0.0978 -0.5500 -0.8294
vn 0.0000 -0.6105 -0.7921
vn -0.0978 -0.5500 -0.8294
vn 0.0605 -0.4521 -0.8899
vn -0.0605 -0.4521 -0.8899
vn 0.5500 0.8294 0.0978
vn 0.6105 0.7921 0.0000
vn 0.5500 0.8294 -0.0978
vn 0.4521 0.8899 0.0605
vn 0.4521 0.8899 -0.0605
vn -0.5500 0.8294 -0.0978
vn -0.6105 0.7921 0.0000
vn -0.5500 0.8294 0.0978
vn -0.4521 0.8899 -0.0605
vn -0.4521 0.8899 0.0605
vn 0.5500 -0.8294 -0.0978
vn 0.6105 -0.7921 0.0000
vn 0.5500 -0.8294 0.0978
vn 0.4521 -0.8899 -0.0605
vn 0.4521 -0.8899 0.0605
vn -0.5500 -0.8294 0.0978
vn -0.6105 -0.7921 0.0000
vn -0.5500 -0.8294 -0.0978
vn -0.4521 -0.8899 0.0605
vn -0.4521 -0.8899 -0.0605
usemtl Blob
s 1
f 1//1 2//2 3//3
f 4//4 1//1 3//3
f 5//5 1//1 4//4
f 6//6 7//7 8//8
f 7//7 9//9 8//8
f 8//8 9//9 10//10
f 11//11 12//12 13//13
f 12//12 14//14 13//13
f 13//13 14//14 15//15
f 16//16 17//17 18//18
f 19//19 16//16 18//18
f 20//20 16//16 19//19
f 21//21 22//22 23//23
f 21//21 23//23 24//24
f 21//21 24//24 25//25
f 26//26 27//27 28//28
f 26//26 29//29 27//27
f 29//29 30//30 27//27
f 31//31 32//32 33//33
f 31//31 33//33 34//34
f 31//31 34//34 35//35
f 36//36 37//37 38//38
f 36//36 39//39 37//37
f 39//39 40//40 37//37
f 41//41 42//42 43//43
f 44//44 42//42 41//41
f 44//44 45//45 42//42
f 46//46 47//47 48//48
f 46//46 49//49 47//47
f 49//49 50//50 47//47
f 51//51 52//52 53//53
f 51//51 53//53 54//54
f 51//51 54//54 55//55
f 56//56 57//57 58//58
f 56//56 58//58 59//59
f 56//56 59//59 60//60
f 5//5 61//61 1//1
f 62//62 61//61 5//5
f 61//61 2//2 1//1
f 61//61 63//63 2//2
f 62//62 5//5 4//4
f 62//62 4//4 64//64
f 64//64 4//4 3//3
f 64//64 3//3 65//65
f 3//3 2//2 63//63
f 3//3 63//63 65//65
f 8//8 10//10 66//66
f 66//66 10//10 67//67
f 6//6 8//8 66//66
f 68//68 6//6 66//66
f 9//9 67//67 10//10
f 9//9 69//69 67//67
f 7//7 69//69 9//9
f 70//70 69//69 7//7
f 68//68 7//7 6//6
f 68//68 70//70 7//7
f 71//71 13//13 15//15
f 71//71 15//15 72//72
f 11//11 13//13 71//71
f 73//73 11//11 71//71
f 14//14 72//72 15//15
f 14//14 74//74 72//72
f 12//12 74//74 14//14
f 75//75 74//74 12//12
f 73//73 12//12 11//11
f 73//73 75//75 12//12
f 20//20 76//76 16//16
f 77//77 76//76 20//20
f 16//16 76//76 17//17
f 76//76 78//78 17//17
f 77//77 20//20 19//19
f 77//77 19//19 79//79
f 79//79 19//19 18//18
f 79//79 18//18 80//80
f 18//18 17//17 78//78
f 18//18 78//78 80//80
f 81//81 21//21 25//25
f 81//81 25//25 82//82
f 81//81 22//22 21//21
f 81//81 83//83 22//22
f 25//25 24//24 82//82
f 82//82 24//24 84//84
f 24//24 23//23 84//84
f 23//23 85//85 84//84
f 22//22 83//83 23//23
f 83//83 85//85 23//23
f 30//30 86//86 27//27
f 87//87 86//86 30//30
f 28//28 27//27 86//86
f 88//88 28//28 86//86
f 29//29 87//87 30//30
f 89//89 87//87 29//29
f 89//89 29//29 26//26
f 90//90 89//89 26//26
f 26//26 28//28 88//88
f 90//90 26//26 88//88
f 91//91 31//31 35//35
f 91//91 35//35 92//92
f 91//91 32//32 31//31
f 91//91 93//93 32//32
f 35//35 34//34 92//92
f 92//92 34//34 94//94
f 34//34 33//33 94//94
f 33//33 95//95 94//94
f 32//32 93//93 33//33
f 93//93 95//95 33//33
f 40//40 96//96 37//37
f 97//97 96//96 40//40
f 38//38 37//37 96//96
f 98//98 38//38 96//96
f 39//39 97//97 40//40
f 99//99 97//97 39//39
f 99//99 39//39 36//36
f 100//100 99//99 36//36
f 36//36 38//38 98//98
f 100//100 36//36 98//98
f 45//45 101//101 42//42
f 45//45 102//102 101//101
f 43//43 42//42 101//101
f 43//43 101//101 103//103
f 44//44 102//102 45//45
f 44//44 104//104 102//102
f 44//44 41//41 104//104
f 41//41 105//105 104//104
f 41//41 43//43 103//103
f 41//41 103//103 105//105
f 50//50 106//106 47//47
f 50//50 107//107 106//106
f 48//48 47//47 106//106
f 48//48 106//106 108//108
f 49//49 107//107 50//50
f 49//49 109//109 107//107
f 46//46 109//109 49//49
f 46//46 110//110 109//109
f 46//46 48//48 108//108
f 46//46 108//108 110//110
f 111//111 51//51 55//55
f 111//111 55//55 112//112
f 111//111 52//52 51//51
f 111//111 113//113 52//52
f 112//112 55//55 54//54
f 112//112 54//54 114//114
f 114//114 54//54 53//53
f 115//115 114//114 53//53
f 113//113 53//53 52//52
f 113//113 115//115 53//53
f 116//116 56//56 60//60
f 116//116 60//60 117//117
f 116//116 57//57 56//56
f 116//116 118//118 57//57
f 117//117 60//60 59//59
f 117//117 59//59 119//119
f 119//119 59//59 58//58
f 119//119 58//58 120//120
f 118//118 58//58 57//57
f 118//118 120//120 58//58
f 121//121 122//122 123//123
f 124//124 125//125 126//126
f 127//127 128//128 129//129
f 130//130 131//131 132//132
f 133//133 134//134 135//135
f 136//136 137//137 138//138
f 139//139 140//140 141//141
f 142//142 143//143 144//144
f 145//145 146//146 147//147
f 148//148 149//149 150//150
f 151//151 152//152 153//153
f 154//154 155//155 156//156
f 157//157 158//158 159//159
f 160//160 161//161 162//162
f 163//163 164//164 165//165
f 166//166 167//167 168//168
f 169//169 170//170 171//171
f 172//172 173//173 174//174
f 175//175 176//176 177//177
f 178//178 179//179 180//180
f 121//121 181//181 122//122
f 182//182 181//181 121//121
f 182//182 121//121 183//183
f 121//121 123//123 183//183
f 122//122 181//181 183//183
f 122//122 183//183 123//123
f 184//184 125//125 182//182
f 184//184 126//126 125//125
f 185//185 182//182 125//125
f 185//185 125//125 124//124
f 185//185 124//124 184//184
f 184//184 124//124 126//126
f 186//186 187//187 127//127
f 127//127 187//187 128//128
f 186//186 127//127 188//188
f 127//127 129//129 188//188
f 129//129 187//187 188//188
f 129//129 128//128 187//187
f 189//189 130//130 132//132
f 189//189 132//132 186//186
f 190//190 132//132 131//131
f 190//190 186//186 132//132
f 189//189 190//190 130//130
f 190//190 131//131 130//130
f 191//191 133//133 135//135
f 191//191 135//135 192//192
f 192//192 135//135 193//193
f 135//135 134//134 193//193
f 191//191 193//193 133//133
f 133//133 193//193 134//134
f 137//137 194//194 138//138
f 192//192 194//194 137//137
f 195//195 192//192 137//137
f 195//195 137//137 136//136
f 195//195 136//136 194//194
f 136//136 138//138 194//194
f 140//140 196//196 197//197
f 140//140 197//197 141//141
f 198//198 140//140 139//139
f 198//198 196//196 140//140
f 198//198 139//139 141//141
f 198//198 141//141 197//197
f 199//199 144//144 196//196
f 199//199 142//142 144//144
f 144//144 143//143 200//200
f 144//144 200//200 196//196
f 199//199 143//143 142//142
f 199//199 200//200 143//143
f 201//201 147//147 202//202
f 201//201 145//145 147//147
f 203//203 202//202 147//147
f 203//203 147//147 146//146
f 201//201 146//146 145//145
f 201//201 203//203 146//146
f 204//204 148//148 150//150
f 204//204 150//150 202//202
f 205//205 202//202 150//150
f 205//205 150//150 149//149
f 204//204 205//205 149//149
f 204//204 149//149 148//148
f 151//151 206//206 207//207
f 151//151 207//207 152//152
f 151//151 208//208 206//206
f 151//151 153//153 208//208
f 153//153 152//152 207//207
f 153//153 207//207 208//208
f 154//154 209//209 155//155
f 154//154 206//206 209//209
f 154//154 210//210 206//206
f 154//154 156//156 210//210
f 156//156 209//209 210//210
f 156//156 155//155 209//209
f 183//183 203//203 159//159
f 183//183 159//159 158//158
f 193//193 183//183 158//158
f 193//193 158//158 157//157
f 193//193 157//157 203//203
f 157//157 159//159 203//203
f 161//161 184//184 191//191
f 161//161 191//191 162//162
f 160//160 184//184 161//161
f 207//207 184//184 160//160
f 207//207 160//160 162//162
f 207//207 162//162 191//191
f 197//197 163//163 165//165
f 197//197 165//165 181//181
f 181//181 164//164 204//204
f 181//181 165//165 164//164
f 197//197 204//204 163//163
f 163//163 204//204 164//164
f 166//166 168//168 185//185
f 210//210 166//166 185//185
f 168//168 198//198 185//185
f 168//168 167//167 198//198
f 210//210 198//198 167//167
f 210//210 167//167 166//166
f 194//194 171//171 187//187
f 194//194 169//169 171//171
f 187//187 171//171 170//170
f 187//187 170//170 201//201
f 169//169 201//201 170//170
f 194//194 201//201 169//169
f 208//208 172//172 190//190
f 172//172 174//174 190//190
f 174//174 195//195 190//190
f 174//174 173//173 195//195
f 208//208 195//195 173//173
f 208//208 173//173 172//172
f 188//188 177//177 176//176
f 188//188 205//205 177//177
f 200//200 188//188 176//176
f 200//200 176//176 175//175
f 200//200 175//175 205//205
f 175//175 177//177 205//205
f 179//179 199//199 180//180
f 179//179 189//189 199//199
f 209//209 189//189 178//178
f 178//178 189//189 179//179
f 209//209 180//180 199//199
f 209//209 178//178 180//180
f 182//182 183//183 211//211
f 211//211 183//183 212//212
f 184//184 182//182 211//211
f 184//184 211//211 213//213
f 184//184 213//213 214//214
f 184//184 214//214 191//191
f 191//191 214//214 215//215
f 191//191 215//215 193//193
f 215//215 183//183 193//193
f 215//215 212//212 183//183
f 185//185 216//216 217//217
f 185//185 217//217 182//182
f 217//217 218//218 181//181
f 217//217 181//181 182//182
f 219//219 197//197 181//181
f 219//219 181//181 218//218
f 198//198 197//197 220//220
f 220//220 197//197 219//219
f 185//185 198//198 220//220
f 185//185 220//220 216//216
f 190//190 221//221 186//186
f 190//190 222//222 221//221
f 186//186 221//221 187//187
f 221//221 223//223 187//187
f 224//224 187//187 223//223
f 224//224 194//194 187//187
f 195//195 224//224 225//225
f 195//195 194//194 224//224
f 190//190 195//195 225//225
f 190//190 225//225 222//222
f 226//226 188//188 227//227
f 226//226 186//186 188//188
f 189//189 226//226 228//228
f 189//189 186//186 226//226
f 189//189 229//229 199//199
f 189//189 228//228 229//229
f 199//199 229//229 200//200
f 229//229 230//230 200//200
f 230//230 188//188 200//200
f 230//230 227//227 188//188
f 231//231 193//193 232//232
f 192//192 193//193 231//231
f 192//192 231//231 194//194
f 231//231 233//233 194//194
f 194//194 234//234 201//201
f 194//194 233//233 234//234
f 234//234 203//203 201//201
f 234//234 235//235 203//203
f 193//193 203//203 235//235
f 193//193 235//235 232//232
f 236//236 237//237 195//195
f 195//195 237//237 192//192
f 191//191 192//192 237//237
f 238//238 191//191 237//237
f 207//207 191//191 239//239
f 239//239 191//191 238//238
f 208//208 207//207 239//239
f 208//208 239//239 240//240
f 208//208 240//240 195//195
f 240//240 236//236 195//195
f 196//196 200//200 241//241
f 241//241 200//200 242//242
f 241//241 243//243 197//197
f 196//196 241//241 197//197
f 197//197 243//243 244//244
f 197//197 244//244 204//204
f 244//244 245//245 205//205
f 244//244 205//205 204//204
f 200//200 245//245 242//242
f 200//200 205//205 245//245
f 198//198 246//246 196//196
f 247//247 246//246 198//198
f 248//248 199//199 246//246
f 199//199 196//196 246//246
f 249//249 199//199 248//248
f 209//209 199//199 249//249
f 210//210 249//249 250//250
f 210//210 209//209 249//249
f 250//250 247//247 198//198
f 210//210 250//250 198//198
f 203//203 251//251 202//202
f 203//203 252//252 251//251
f 204//204 202//202 251//251
f 204//204 251//251 253//253
f 254//254 204//204 253//253
f 181//181 204//204 254//254
f 181//181 254//254 183//183
f 183//183 254//254 255//255
f 255//255 252//252 203//203
f 183//183 255//255 203//203
f 205//205 256//256 257//257
f 205//205 257//257 202//202
f 201//201 202//202 257//257
f 201//201 257//257 258//258
f 187//187 201//201 259//259
f 259//259 201//201 258//258
f 188//188 187//187 260//260
f 187//187 259//259 260//260
f 188//188 260//260 205//205
f 260//260 256//256 205//205
f 261//261 210//210 262//262
f 261//261 206//206 210//210
f 261//261 263//263 207//207
f 261//261 207//207 206//206
f 207//207 264//264 184//184
f 263//263 264//264 207//207
f 265//265 185//185 184//184
f 265//265 184//184 264//264
f 210//210 185//185 265//265
f 262//262 210//210 265//265
f 266//266 206//206 208//208
f 266//266 208//208 267//267
f 266//266 209//209 206//206
f 266//266 268//268 209//209
f 268//268 269//269 209//209
f 209//209 269//269 189//189
f 269//269 190//190 189//189
f 269//269 270//270 190//190
f 267//267 208//208 270//270
f 208//208 190//190 270//270
f 213//213 211//211 271//271
f 271//271 211//211 272//272
f 211//211 212//212 273//273
f 211//211 273//273 272//272
f 213//213 271//271 214//214
f 271//271 274//274 214//214
f 214//214 275//275 215//215
f 214//214 274//274 275//275
f 215//215 273//273 212//212
f 275//275 273//273 215//215
f 217//217 276//276 218//218
f 277//277 276//276 217//217
f 216//216 278//278 217//217
f 278//278 277//277 217//217
f 219//219 218//218 276//276
f 279//279 219//219 276//276
f 220//220 219//219 280//280
f 280//280 219//219 279//279
f 216//216 220//220 278//278
f 278//278 220//220 280//280
f 221//221 281//281 223//223
f 221//221 282//282 281//281
f 222//222 283//283 221//221
f 283//283 282//282 221//221
f 224//224 223//223 281//281
f 284//284 224//224 281//281
f 225//225 224//224 285//285
f 285//285 224//224 284//284
f 222//222 225//225 283//283
f 283//283 225//225 285//285
f 228//228 226//226 286//286
f 286//286 226//226 287//287
f 226//226 227//227 288//288
f 287//287 226//226 288//288
f 228//228 286//286 229//229
f 286//286 289//289 229//229
f 229//229 290//290 230//230
f 229//229 289//289 290//290
f 230//230 288//288 227//227
f 290//290 288//288 230//230
f 231//231 291//291 233//233
f 231//231 292//292 291//291
f 231//231 232//232 293//293
f 231//231 293//293 292//292
f 233//233 291//291 234//234
f 291//291 294//294 234//234
f 295//295 235//235 234//234
f 294//294 295//295 234//234
f 232//232 235//235 293//293
f 293//293 235//235 295//295
f 296//296 238//238 237//237
f 296//296 237//237 297//297
f 298//298 237//237 236//236
f 298//298 297//297 237//237
f 239//239 238//238 296//296
f 239//239 296//296 299//299
f 240//240 239//239 300//300
f 239//239 299//299 300//300
f 240//240 298//298 236//236
f 240//240 300//300 298//298
f 241//241 301//301 243//243
f 241//241 302//302 301//301
f 241//241 242//242 303//303
f 241//241 303//303 302//302
f 243//243 301//301 244//244
f 301//301 304//304 244//244
f 305//305 245//245 244//244
f 304//304 305//305 244//244
f 242//242 245//245 303//303
f 303//303 245//245 305//305
f 306//306 248//248 246//246
f 306//306 246//246 307//307
f 308//308 246//246 247//247
f 308//308 307//307 246//246
f 249//249 248//248 306//306
f 249//249 306//306 309//309
f 250//250 249//249 310//310
f 249//249 309//309 310//310
f 250//250 308//308 247//247
f 250//250 310//310 308//308
f 253//253 251//251 311//311
f 311//311 251//251 312//312
f 252//252 313//313 251//251
f 313//313 312//312 251//251
f 254//254 253//253 311//311
f 254//254 311//311 314//314
f 254//254 315//315 255//255
f 254//254 314//314 315//315
f 255//255 313//313 252//252
f 255//255 315//315 313//313
f 258//258 257//257 316//316
f 316//316 257//257 317//317
f 256//256 318//318 257//257
f 318//318 317//317 257//257
f 259//259 258//258 316//316
f 259//259 316//316 319//319
f 260//260 259//259 320//320
f 259//259 319//319 320//320
f 260//260 318//318 256//256
f 260//260 320//320 318//318
f 261//261 321//321 263//263
f 261//261 322//322 321//321
f 261//261 262//262 323//323
f 261//261 323//323 322//322
f 321//321 264//264 263//263
f 321//321 324//324 264//264
f 325//325 265//265 264//264
f 325//325 264//264 324//324
f 323//323 262//262 265//265
f 323//323 265//265 325//325
f 266//266 326//326 268//268
f 266//266 327//327 326//326
f 266//266 267//267 328//328
f 266//266 328//328 327//327
f 326//326 269//269 268//268
f 326//326 329//329 269//269
f 330//330 270//270 269//269
f 329//329 330//330 269//269
f 328//328 267//267 270//270
f 328//328 270//270 330//330
f 61//61 272//272 273//273
f 61//61 273//273 63//63
f 271//271 61//61 62//62
f 271//271 272//272 61//61
f 271//271 62//62 64//64
f 271//271 64//64 274//274
f 274//274 64//64 65//65
f 274//274 65//65 275//275
f 65//65 63//63 273//273
f 65//65 273//273 275//275
f 278//278 68//68 66//66
f 278//278 66//66 277//277
f 277//277 66//66 276//276
f 66//66 67//67 276//276
f 69//69 279//279 276//276
f 69//69 276//276 67//67
f 280//280 279//279 70//70
f 70//70 279//279 69//69
f 278//278 280//280 70//70
f 278//278 70//70 68//68
f 283//283 71//71 282//282
f 283//283 73//73 71//71
f 71//71 72//72 281//281
f 71//71 281//281 282//282
f 74//74 281//281 72//72
f 74//74 284//284 281//281
f 285//285 74//74 75//75
f 285//285 284//284 74//74
f 283//283 75//75 73//73
f 283//283 285//285 75//75
f 76//76 288//288 78//78
f 287//287 288//288 76//76
f 286//286 287//287 76//76
f 286//286 76//76 77//77
f 286//286 79//79 289//289
f 286//286 77//77 79//79
f 289//289 79//79 290//290
f 79//79 80//80 290//290
f 80//80 288//288 290//290
f 80//80 78//78 288//288
f 81//81 293//293 83//83
f 81//81 292//292 293//293
f 81//81 82//82 291//291
f 81//81 291//291 292//292
f 291//291 84//84 294//294
f 82//82 84//84 291//291
f 84//84 85//85 295//295
f 84//84 295//295 294//294
f 83//83 293//293 85//85
f 293//293 295//295 85//85
f 298//298 88//88 86//86
f 298//298 86//86 297//297
f 296//296 86//86 87//87
f 296//296 297//297 86//86
f 299//299 296//296 89//89
f 89//89 296//296 87//87
f 300//300 89//89 90//90
f 300//300 299//299 89//89
f 90//90 88//88 298//298
f 300//300 90//90 298//298
f 91//91 302//302 303//303
f 91//91 303//303 93//93
f 91//91 301//301 302//302
f 91//91 92//92 301//301
f 92//92 94//94 301//301
f 301//301 94//94 304//304
f 94//94 305//305 304//304
f 94//94 95//95 305//305
f 303//303 305//305 95//95
f 93//93 303//303 95//95
f 308//308 96//96 307//307
f 308//308 98//98 96//96
f 306//306 307//307 96//96
f 306//306 96//96 97//97
f 99//99 306//306 97//97
f 309//309 306//306 99//99
f 310//310 309//309 99//99
f 310//310 99//99 100//100
f 310//310 100//100 308//308
f 100//100 98//98 308//308
f 101//101 312//312 313//313
f 103//103 101//101 313//313
f 101//101 311//311 312//312
f 102//102 311//311 101//101
f 104//104 311//311 102//102
f 104//104 314//314 311//311
f 104//104 315//315 314//314
f 104//104 105//105 315//315
f 105//105 103//103 313//313
f 105//105 313//313 315//315
f 108//108 106//106 318//318
f 106//106 317//317 318//318
f 107//107 316//316 106//106
f 106//106 316//316 317//317
f 109//109 319//319 316//316
f 109//109 316//316 107//107
f 110//110 320//320 319//319
f 110//110 319//319 109//109
f 110//110 318//318 320//320
f 110//110 108//108 318//318
f 323//323 113//113 111//111
f 322//322 323//323 111//111
f 322//322 111//111 321//321
f 321//321 111//111 112//112
f 321//321 114//114 324//324
f 321//321 112//112 114//114
f 325//325 324//324 115//115
f 324//324 114//114 115//115
f 323//323 325//325 115//115
f 323//323 115//115 113//113
f 327//327 328//328 116//116
f 328//328 118//118 116//116
f 327//327 116//116 326//326
f 326//326 116//116 117//117
f 326//326 117//117 119//119
f 326//326 119//119 329//329
f 329//329 119//119 330//330
f 330//330 119//119 120//120
f 328//328 120//120 118//118
f 328//328 330//330 120//120
