# Blender v2.90.0 OBJ File: ''
# www.blender.org
mtllib Cow.mtl
o Cow
v 0.036316 -0.209443 0.272660
v 0.043911 -0.259950 0.272932
v 0.002494 -0.178168 0.256798
v 0.136208 -0.210333 0.423878
v 0.129635 -0.169458 0.375240
v 0.118862 -0.167008 0.490058
v -0.068239 0.259941 0.332833
v -0.059508 0.252992 0.271330
v -0.115729 0.243883 0.374431
v -0.097184 0.244417 0.280286
v -0.052428 0.285153 0.226806
v -0.077855 0.287424 0.221594
v 0.037311 0.101758 0.287342
v -0.001271 0.091454 0.281156
v 0.003775 0.118043 0.233032
v 0.051705 -0.290059 0.277851
v 0.054092 -0.281695 0.154995
v 0.064510 -0.294025 0.248531
v -0.053741 -0.394352 0.523652
v -0.033339 -0.387169 0.559987
v -0.063303 -0.330773 0.538025
v 0.083341 0.083382 0.297026
v 0.066167 0.121143 0.281996
v 0.123069 0.094541 0.341247
v -0.030436 -0.210374 0.272661
v -0.036623 -0.261100 0.272936
v 0.089421 -0.154787 0.540874
v 0.118969 -0.093456 0.496405
v 0.081583 -0.089696 0.563968
v 0.027329 0.067621 0.262239
v 0.049551 0.247615 0.049983
v 0.028792 0.250410 0.191762
v 0.054885 0.265652 0.027252
v -0.085424 0.081026 0.296983
v -0.123987 0.091092 0.341167
v -0.069510 0.119249 0.281980
v -0.030420 0.034607 0.595924
v -0.080621 0.142548 0.586414
v -0.083386 0.090916 0.592018
v 0.032215 -0.667640 0.472884
v 0.044027 -0.596347 0.500683
v 0.028604 -0.615601 0.528899
v -0.108808 0.028568 0.279010
v -0.052206 -0.517105 0.591889
v -0.104606 -0.526439 0.595125
v -0.056618 -0.528349 0.581552
v 0.043031 0.231102 0.251670
v 0.053214 0.243532 0.322093
v 0.068170 0.188211 0.270836
v 0.000479 -0.033351 0.599339
v 0.002269 -0.161523 0.602848
v 0.063046 -0.061133 0.587363
v 0.053396 -0.575550 0.465909
v 0.042678 -0.645743 0.442338
v 0.035044 -0.576050 0.443007
v 0.039181 0.283778 0.224526
v 0.069813 0.289486 0.221590
v 0.060815 0.275970 0.068267
v -0.051448 -0.497531 0.581271
v 0.105597 -0.227705 0.519045
v 0.080021 -0.228785 0.558076
v -0.062771 -0.286998 0.049082
v -0.047059 -0.277045 0.038125
v -0.046262 -0.271393 0.111062
v -0.006745 -0.427411 0.578199
v 0.042387 -0.443884 0.573171
v 0.005433 -0.388148 0.572404
v -0.118481 -0.527664 0.554893
v -0.110583 -0.510122 0.567670
v -0.041646 -0.276983 0.004625
v -0.059051 -0.259616 0.027589
v -0.007785 -0.615295 0.433244
v -0.036595 -0.576095 0.465221
v -0.007148 -0.540473 0.436341
v 0.036044 0.221279 0.597055
v 0.076636 0.144741 0.586410
v 0.084799 0.202987 0.593932
v 0.037469 0.153034 0.231199
v 0.020155 0.168523 0.211557
v 0.034637 0.193073 0.224909
v 0.128501 0.196235 0.507026
v 0.108781 0.131071 0.538682
v 0.135523 0.202259 0.436660
v 0.060190 -0.582017 0.547770
v 0.026485 -0.363588 0.346891
v 0.040864 -0.339142 0.287175
v 0.075636 -0.370513 0.379259
v 0.053828 -0.269994 0.111063
v 0.079829 -0.273149 0.131671
v 0.078818 0.230708 0.209198
v 0.074861 0.266683 0.146373
v 0.081781 0.271631 0.213938
v 0.069563 0.186380 0.308010
v 0.057195 0.123264 0.302264
v -0.051125 -0.508733 0.567493
v -0.040772 -0.460909 0.565025
v -0.050049 -0.487447 0.514538
v -0.072159 -0.275270 0.131670
v -0.071390 -0.244272 0.136252
v -0.075113 -0.279821 0.051874
v -0.002710 0.195291 0.607708
v -0.116722 -0.318362 0.390095
v -0.108245 -0.311390 0.443512
v -0.131466 -0.276963 0.389037
v -0.111261 -0.309668 0.332218
v 0.065348 -0.495899 0.581269
v 0.066657 -0.515447 0.591888
v 0.108662 -0.161160 0.319958
v 0.097408 -0.211336 0.304189
v 0.004111 -0.409944 0.369651
v 0.045946 -0.364719 0.399308
v 0.087251 -0.344363 0.428065
v 0.127684 -0.311069 0.390605
v 0.057255 -0.279769 0.041547
v -0.007037 -0.547893 0.620813
v 0.008573 -0.613025 0.541296
v 0.028257 -0.579921 0.587448
v 0.100045 -0.282993 0.008033
v 0.082796 -0.278857 0.049919
v 0.075580 -0.329231 0.006322
v -0.104195 -0.164201 0.320008
v -0.045978 -0.113500 0.248096
v -0.075715 -0.348494 0.433219
v -0.040118 0.100678 0.287336
v -0.063113 -0.327593 0.006512
v -0.089153 -0.306360 0.007412
v -0.003674 0.264105 0.594025
v 0.119991 -0.113568 0.323759
v 0.001711 -0.122118 0.237168
v 0.049653 -0.111307 0.248038
v -0.023716 0.267898 0.292073
v -0.000934 0.257462 0.262133
v -0.054589 0.232590 0.262736
v 0.062726 -0.234886 0.276818
v 0.088998 -0.229903 0.268554
v 0.016853 -0.529020 0.626571
v 0.035300 -0.509205 0.615075
v 0.060876 0.145730 0.269527
v -0.077043 -0.260147 0.021154
v -0.064910 0.143960 0.269550
v -0.060593 0.121623 0.302265
v -0.073387 0.186232 0.270848
v -0.042909 -0.235114 0.598424
v 0.064550 0.196556 0.010411
v 0.039518 0.245529 0.003675
v -0.006805 -0.635088 0.449595
v -0.024677 -0.647376 0.439349
v 0.133488 0.076811 0.421794
v 0.147642 0.031546 0.335432
v -0.062437 -0.360601 0.366204
v -0.059501 -0.325207 0.293085
v 0.037742 -0.652506 0.438163
v -0.123684 -0.277632 0.325669
v -0.100828 -0.247256 0.255598
v -0.084616 -0.260697 0.170977
v 0.065336 -0.507106 0.567491
v 0.137209 0.141835 0.428712
v 0.130885 0.079591 0.488295
v 0.131105 -0.258776 0.445360
v 0.116918 -0.308245 0.443508
v 0.139171 -0.273184 0.389031
v 0.024746 -0.471215 0.435121
v 0.004872 -0.489890 0.426988
v 0.148046 0.025805 0.412403
v 0.150620 -0.051368 0.410008
v 0.074742 0.263473 0.027002
v -0.037716 0.039029 0.251123
v 0.016145 0.025305 0.240126
v -0.044880 -0.035614 0.237513
v -0.114361 -0.114840 0.494031
v -0.078885 -0.091882 0.564118
v -0.132939 -0.036128 0.484457
v 0.080843 0.093210 0.592015
v 0.111151 0.083788 0.550942
v -0.042206 0.220156 0.597062
v -0.114746 -0.116846 0.323764
v -0.124836 -0.173012 0.375264
v -0.130262 -0.214054 0.423884
v -0.129933 -0.131417 0.417393
v 0.119884 -0.306440 0.332212
v 0.106416 -0.290823 0.270385
v 0.130573 -0.270407 0.321521
v -0.102366 -0.007728 0.543588
v -0.069882 0.010126 0.577168
v 0.072542 -0.328878 0.538022
v 0.064762 -0.392692 0.523646
v 0.074454 -0.362101 0.497650
v -0.046352 0.244329 0.003679
v -0.070009 0.194676 0.010414
v -0.097547 0.235959 0.006553
v 0.102517 -0.005080 0.543601
v 0.069599 0.012054 0.577164
v -0.027086 0.211301 0.210115
v 0.004999 0.218386 0.224619
v 0.037332 0.170426 0.311148
v -0.091446 -0.213975 0.304168
v 0.029467 0.035429 0.595924
v 0.074624 -0.329275 0.310226
v 0.071377 -0.526564 0.581548
v 0.119289 -0.523307 0.595112
v 0.095344 -0.290389 0.511025
v -0.034979 0.165643 0.219606
v -0.024836 0.167895 0.211557
v -0.026636 0.118375 0.241885
v 0.090340 0.247032 0.280283
v 0.049805 -0.233912 0.598023
v 0.133195 -0.524149 0.554888
v 0.124807 -0.506834 0.567665
v 0.009019 -0.645180 0.422435
v 0.061173 -0.384937 0.452749
v -0.048864 -0.391148 0.452042
v -0.038740 -0.490240 0.475295
v 0.135923 -0.233884 0.364974
v 0.031016 0.222157 0.248437
v 0.051806 0.214846 0.224332
v 0.041634 0.168380 0.285091
v -0.021035 -0.509992 0.615077
v 0.004417 -0.366257 0.287464
v -0.042788 -0.161458 0.580795
v -0.061281 -0.062891 0.587367
v -0.005905 0.196769 0.223832
v -0.109184 -0.047204 0.273377
v 0.059747 -0.566264 0.568150
v 0.046292 -0.535238 0.608285
v 0.060885 -0.534171 0.592520
v -0.044622 -0.294263 0.276914
v 0.008918 -0.311106 0.262641
v -0.094380 -0.090751 0.274100
v -0.046193 -0.283095 0.155017
v -0.038748 -0.247531 0.142345
v 0.097516 -0.088072 0.274095
v 0.111839 -0.044118 0.273372
v 0.064875 -0.517811 0.523971
v 0.052457 -0.488993 0.475348
v -0.128834 -0.237432 0.362876
v -0.082530 -0.232298 0.268562
v 0.058125 -0.234754 0.142408
v 0.044162 -0.386087 0.559985
v -0.031034 -0.358675 0.385036
v -0.017453 -0.359722 0.340070
v 0.024972 0.269989 0.324289
v -0.003650 0.261983 0.369568
v 0.032276 0.269166 0.351129
v 0.072331 0.246222 0.053237
v -0.004158 0.281686 0.437164
v 0.032686 0.287232 0.425195
v 0.003697 -0.237207 0.611079
v 0.060970 0.261745 0.332830
v 0.112337 0.196800 0.558522
v 0.036192 0.230517 0.299347
v 0.078417 0.281208 0.484881
v -0.003741 0.268689 0.478164
v 0.052438 0.254556 0.271328
v -0.144199 0.027471 0.335439
v 0.108892 0.247019 0.374426
v -0.117453 -0.210545 0.336339
v 0.082104 0.283285 0.431413
v -0.123807 -0.262336 0.445365
v 0.111847 0.249139 0.487908
v 0.111041 0.222919 0.336690
v 0.132475 0.215290 0.386979
v 0.090924 0.238593 0.006553
v -0.099170 -0.230564 0.519049
v -0.087175 -0.292938 0.511029
v -0.073573 -0.230925 0.558084
v 0.108635 0.247157 0.549159
v 0.140037 0.150686 0.370957
v 0.073236 0.279951 0.523983
v -0.097108 -0.295613 0.264846
v 0.027802 0.307175 0.496449
v -0.004089 0.293648 0.478825
v 0.082936 0.248302 0.584623
v 0.057540 0.278280 0.560180
v 0.118274 0.184882 0.301497
v 0.074380 -0.253471 0.031650
v 0.045671 -0.246384 0.142230
v -0.004587 0.315830 0.530879
v 0.011945 0.308082 0.403457
v -0.004051 0.290737 0.337365
v 0.049373 -0.275693 0.004666
v -0.043051 0.285616 0.419883
v -0.039758 0.268160 0.351130
v -0.004493 0.324560 0.454285
v 0.002332 0.302380 0.203660
v 0.059809 0.245476 0.141179
v -0.031301 -0.536325 0.608286
v -0.081965 -0.542907 0.623155
v -0.045917 -0.535664 0.592524
v -0.020516 0.307625 0.403395
v -0.015175 0.303588 0.219264
v -0.056126 -0.236565 0.276815
v -0.089957 0.280882 0.431416
v -0.086211 0.278909 0.484884
v -0.085035 -0.157223 0.540878
v -0.007734 -0.667069 0.439969
v -0.005951 -0.678042 0.471598
v -0.042473 -0.565805 0.484547
v -0.036340 0.306280 0.496452
v 0.095575 0.158708 0.270929
v 0.045868 -0.034346 0.237511
v -0.080999 0.277797 0.523986
v 0.133213 -0.127743 0.417359
v 0.148441 -0.059379 0.330874
v 0.130507 0.021931 0.483390
v 0.133513 -0.032407 0.484451
v 0.047306 -0.160206 0.580795
v -0.061811 0.277223 0.559865
v -0.089811 0.245890 0.584628
v -0.115469 0.244027 0.549164
v -0.117758 0.193587 0.558527
v -0.090402 0.200539 0.593935
v -0.118734 0.245922 0.487909
v -0.112365 0.127923 0.538681
v -0.133907 0.192571 0.507032
v -0.056259 -0.295711 0.248534
v -0.150753 0.021633 0.412438
v -0.151176 -0.055582 0.410053
v -0.113417 0.080653 0.550947
v -0.141093 0.198396 0.436666
v -0.133140 0.075904 0.488301
v 0.109419 0.031615 0.279006
v -0.141097 0.137949 0.428718
v -0.138417 0.211508 0.386984
v 0.122215 -0.206604 0.335101
v -0.117207 0.219733 0.336695
v -0.042060 0.169317 0.311150
v -0.046306 0.167153 0.285092
v -0.042601 0.229416 0.299349
v -0.037191 0.221206 0.248437
v -0.039534 0.269156 0.211744
v -0.035761 0.249509 0.191762
v -0.131585 0.018271 0.483396
v -0.064291 -0.364038 0.497654
v -0.059979 0.241952 0.322093
v 0.107241 -0.244063 0.255190
v 0.078195 -0.242183 0.136250
v -0.068489 0.274164 0.068261
v -0.062273 0.264015 0.027253
v -0.056440 0.246133 0.049985
v 0.000503 -0.035655 0.229224
v -0.074721 0.184365 0.308013
v 0.091872 -0.258234 0.170974
v -0.136593 0.073040 0.421763
v -0.082266 0.264489 0.146375
v -0.082063 0.261284 0.027010
v -0.089318 0.269244 0.213935
v -0.079171 0.244103 0.053236
v -0.085217 0.228421 0.209199
v -0.123647 0.180754 0.302070
v -0.100927 0.153145 0.273304
v -0.144173 0.146717 0.370962
v -0.057772 0.213300 0.224351
v 0.017380 0.214591 0.197039
v -0.066627 0.243711 0.141183
v -0.051389 -0.236285 0.142429
v -0.142234 -0.063437 0.330880
v 0.097128 -0.540406 0.623153
v -0.004389 0.314367 0.211926
v -0.011376 -0.616167 0.528889
v -0.045025 -0.578334 0.541920
v -0.038401 -0.587995 0.557682
v -0.053369 -0.535200 0.543786
vn 0.4431 -0.0028 -0.8965
vn -0.4083 0.1029 -0.9070
vn 0.0031 -0.2164 -0.9763
vn 0.9896 0.0981 0.1054
vn 0.9883 0.0567 -0.1416
vn 0.9409 -0.0038 0.3386
vn -0.0481 0.9381 -0.3429
vn 0.4732 0.8290 0.2981
vn -0.7386 0.6524 -0.1698
vn -0.6844 0.7259 0.0681
vn 0.4792 0.8243 0.3016
vn -0.4086 0.8983 0.1614
vn 0.5129 -0.0544 -0.8567
vn 0.0236 -0.0886 -0.9958
vn 0.1493 -0.6552 -0.7405
vn -0.2909 -0.5422 -0.7883
vn -0.5387 -0.8287 -0.1519
vn -0.1791 -0.9622 -0.2053
vn -0.9331 -0.0740 0.3519
vn -0.6398 -0.0619 0.7661
vn -0.8590 -0.2401 0.4522
vn 0.4917 0.3303 -0.8057
vn -0.3120 -0.5912 -0.7437
vn 0.9111 0.0832 -0.4038
vn -0.4429 -0.0151 -0.8964
vn 0.4238 0.1057 -0.8996
vn 0.8028 -0.0372 0.5951
vn 0.9198 -0.1016 0.3789
vn 0.7761 -0.1013 0.6224
vn 0.1540 0.4909 -0.8575
vn -0.8706 -0.4476 0.2041
vn -0.9664 -0.1920 -0.1707
vn -0.4234 0.8359 -0.3494
vn -0.5082 0.3143 -0.8018
vn -0.9109 0.0370 -0.4110
vn 0.3269 -0.5832 -0.7436
vn -0.2430 -0.0567 0.9684
vn -0.5234 -0.0475 0.8507
vn -0.4622 0.0093 0.8867
vn 0.6060 -0.7724 0.1904
vn 0.8975 -0.4369 0.0605
vn 0.5780 -0.6869 0.4404
vn -0.6245 0.2325 -0.7456
vn -0.4150 0.0362 0.9091
vn -0.4527 -0.3864 0.8036
vn -0.8027 -0.5796 0.1403
vn 0.6546 0.5978 -0.4628
vn 0.5708 0.5850 -0.5762
vn 0.9490 0.0818 -0.3045
vn 0.0002 -0.0093 1.0000
vn -0.0003 0.0575 0.9983
vn 0.5355 -0.0169 0.8444
vn 0.9446 -0.0782 -0.3188
vn 0.8537 -0.2183 -0.4728
vn 0.5182 0.0627 -0.8530
vn -0.6256 0.7377 0.2539
vn 0.3421 0.9210 0.1861
vn 0.0361 0.9934 -0.1091
vn -0.6806 0.6337 0.3677
vn 0.8778 -0.0709 0.4738
vn 0.8096 -0.0384 0.5858
vn 0.1366 -0.9120 0.3869
vn 0.9889 -0.0853 0.1215
vn 0.7068 -0.7072 0.0157
vn -0.1882 0.2704 0.9442
vn 0.5724 0.3175 0.7560
vn 0.0078 -0.0277 0.9996
vn -0.6365 -0.4071 -0.6551
vn -0.5872 0.7963 -0.1454
vn 0.7268 0.2568 -0.6370
vn 0.4029 0.8877 -0.2231
vn -0.3614 0.1706 -0.9166
vn -0.8756 0.0059 -0.4830
vn -0.3555 -0.0010 -0.9347
vn 0.1730 0.2007 0.9643
vn 0.5246 -0.0328 0.8507
vn 0.4720 -0.0083 0.8815
vn 0.6971 -0.3199 -0.6416
vn 0.1155 -0.0768 -0.9903
vn 0.6244 0.0391 -0.7801
vn 0.9797 0.0655 0.1897
vn 0.9204 0.0121 0.3907
vn 0.9759 0.2114 0.0550
vn 0.8567 -0.4814 0.1855
vn 0.5186 -0.8034 -0.2926
vn 0.4859 -0.5632 -0.6684
vn 0.3860 -0.9221 -0.0260
vn -0.6809 -0.7323 -0.0031
vn 0.7196 -0.6715 -0.1765
vn 0.7451 -0.4890 -0.4535
vn 0.9915 0.0437 -0.1223
vn 0.9325 0.3465 -0.1018
vn 0.8441 -0.0830 0.5298
vn 0.0485 -0.6615 -0.7484
vn -0.8967 0.1804 -0.4041
vn -0.7579 0.2848 0.5869
vn -0.9859 -0.0760 -0.1488
vn -0.7032 -0.6901 -0.1708
vn -0.6408 0.7168 -0.2748
vn -0.8752 -0.4310 0.2195
vn -0.0007 0.0538 0.9986
vn -0.8239 -0.5666 0.0111
vn -0.8116 -0.5043 0.2949
vn -0.9827 -0.1842 0.0173
vn -0.7623 -0.6007 -0.2409
vn 0.6895 0.6726 0.2687
vn 0.4201 0.0370 0.9067
vn 0.8007 -0.0654 -0.5954
vn 0.6652 0.2958 -0.6855
vn -0.0374 -0.7109 -0.7022
vn 0.5522 -0.8134 -0.1832
vn 0.7311 -0.6743 0.1041
vn 0.8633 -0.5047 0.0020
vn -0.9132 -0.2851 0.2912
vn -0.2237 -0.4354 0.8720
vn -0.0127 -0.7902 0.6127
vn 0.2736 -0.7145 0.6439
vn 0.8742 0.1361 -0.4661
vn 0.8105 -0.4448 0.3810
vn 0.0215 -0.9559 -0.2928
vn -0.8026 -0.0704 -0.5923
vn -0.4353 -0.2387 -0.8680
vn -0.7222 -0.6915 0.0153
vn -0.5196 -0.1003 -0.8485
vn 0.1410 -0.9432 -0.3009
vn -0.8499 -0.3450 -0.3984
vn -0.0119 0.5157 0.8567
vn 0.8521 -0.2853 -0.4389
vn 0.0035 -0.2333 -0.9724
vn 0.4388 -0.2269 -0.8695
vn -0.2913 0.9200 -0.2620
vn 0.0568 0.8615 -0.5046
vn -0.7236 0.5633 -0.3989
vn -0.1129 0.7130 -0.6920
vn 0.2009 0.9539 -0.2231
vn 0.1625 -0.0580 0.9850
vn 0.4134 0.2890 0.8635
vn 0.8834 -0.3199 -0.3425
vn -0.5811 0.7071 -0.4029
vn -0.8806 -0.3232 -0.3466
vn -0.0293 -0.6626 -0.7484
vn -0.9474 0.0360 -0.3181
vn -0.5600 -0.0435 0.8273
vn -0.0095 -0.9738 -0.2272
vn -0.7508 0.2017 -0.6289
vn 0.4166 -0.7225 -0.5518
vn -0.7928 -0.3201 -0.5186
vn 0.9966 0.0736 0.0367
vn 0.9380 0.1966 -0.2855
vn -0.3268 -0.9376 -0.1190
vn -0.3279 -0.7753 -0.5398
vn 0.4900 -0.2711 -0.8285
vn -0.9639 -0.1601 -0.2128
vn -0.8158 0.5405 -0.2059
vn -0.9640 0.0778 -0.2542
vn 0.8860 0.2445 -0.3940
vn 0.9937 0.0098 0.1118
vn 0.9798 0.0329 0.1970
vn 0.9521 -0.1452 0.2690
vn 0.8149 -0.4979 0.2968
vn 0.9881 -0.1527 0.0152
vn 0.7203 -0.2420 -0.6501
vn -0.0217 -0.3952 -0.9183
vn 0.9829 0.1430 0.1163
vn 0.9893 -0.0958 0.1101
vn 0.5863 0.7478 -0.3116
vn -0.2516 0.3430 -0.9050
vn 0.1171 0.2942 -0.9485
vn -0.3429 0.0563 -0.9377
vn -0.9199 -0.1062 0.3775
vn -0.7738 -0.1248 0.6210
vn -0.9274 -0.0730 0.3668
vn 0.4618 0.0223 0.8867
vn 0.8853 0.0122 0.4649
vn -0.1779 0.1986 0.9638
vn -0.8538 -0.2817 -0.4378
vn -0.9812 -0.0005 -0.1928
vn -0.9964 0.0042 0.0845
vn -0.9913 -0.1239 0.0434
vn 0.7577 -0.6188 -0.2071
vn 0.6528 -0.6888 -0.3154
vn 0.9681 -0.1041 -0.2280
vn -0.8169 -0.1013 0.5678
vn -0.5577 -0.0996 0.8241
vn 0.8660 -0.2152 0.4514
vn 0.9229 -0.0365 0.3832
vn 0.9669 -0.2386 0.0906
vn 0.7449 0.2226 -0.6289
vn 0.0367 -0.9732 -0.2272
vn -0.8592 0.0420 -0.5099
vn 0.8212 -0.0781 0.5652
vn 0.5602 -0.0840 0.8241
vn -0.2178 0.2496 -0.9435
vn -0.0062 0.4973 -0.8675
vn -0.7769 -0.1478 0.6120
vn -0.6702 0.2806 -0.6871
vn 0.2445 -0.0499 0.9684
vn 0.5058 -0.7234 -0.4699
vn 0.8131 -0.5697 0.1199
vn 0.4634 -0.3736 0.8036
vn 0.8820 -0.2659 0.3890
vn -0.6672 -0.1235 -0.7346
vn -0.1766 0.0975 -0.9794
vn -0.4364 -0.6557 -0.6161
vn 0.6594 0.7491 0.0635
vn 0.5652 -0.0278 0.8245
vn 0.6476 -0.3892 -0.6550
vn 0.5646 0.8124 -0.1455
vn 0.0344 -0.5178 -0.8548
vn 0.8876 -0.3626 -0.2840
vn -0.8798 -0.3555 -0.3155
vn -0.8962 -0.1106 -0.4296
vn 0.9773 0.1061 -0.1836
vn -0.9852 -0.1422 -0.0954
vn -0.3676 -0.7406 -0.5624
vn -0.9410 -0.2807 -0.1890
vn -0.4053 0.2532 0.8784
vn -0.0035 -0.8022 -0.5971
vn -0.5842 -0.0028 0.8116
vn -0.5349 -0.0318 0.8443
vn 0.1955 -0.0352 -0.9801
vn -0.6900 -0.0662 -0.7208
vn 0.8408 -0.4192 0.3424
vn 0.6125 -0.2367 0.7542
vn 0.7185 -0.2959 0.6294
vn 0.3839 -0.4777 -0.7902
vn 0.0428 -0.2362 -0.9708
vn -0.6489 -0.3761 -0.6614
vn 0.5690 -0.8073 -0.1564
vn 0.8873 0.4269 -0.1747
vn 0.6464 -0.3639 -0.6706
vn 0.6734 -0.0486 -0.7377
vn 0.9923 -0.0441 -0.1159
vn 0.9007 -0.0625 -0.4299
vn -0.9740 0.1400 -0.1781
vn -0.2273 0.9477 -0.2241
vn -0.2619 0.8295 -0.4932
vn 0.6452 -0.0567 0.7619
vn -0.5165 -0.8344 -0.1921
vn -0.5854 -0.7689 -0.2573
vn 0.3256 0.9385 -0.1152
vn -0.0069 0.9933 -0.1157
vn 0.0216 0.9792 -0.2015
vn 0.7194 -0.6122 0.3283
vn -0.0182 0.9987 0.0478
vn -0.0557 0.9955 -0.0766
vn 0.0066 -0.0751 0.9972
vn 0.0218 0.9391 -0.3429
vn 0.8892 -0.0071 0.4575
vn -0.9223 0.1498 0.3564
vn 0.3259 0.9413 0.0885
vn -0.0134 0.9306 -0.3657
vn -0.4728 0.8327 0.2882
vn -0.9393 0.1602 -0.3034
vn 0.7201 0.6728 -0.1698
vn -0.8898 -0.0388 -0.4547
vn 0.4399 0.8948 -0.0768
vn -0.9476 -0.1706 0.2701
vn 0.8424 0.5336 0.0753
vn 0.9131 0.3469 -0.2141
vn 0.9215 0.3765 -0.0950
vn 0.8577 0.0660 -0.5099
vn -0.8795 -0.1094 0.4632
vn -0.8739 -0.2903 0.3899
vn -0.8053 -0.0642 0.5893
vn 0.8385 0.4594 0.2932
vn 0.9885 0.0111 -0.1506
vn 0.4719 0.8774 0.0865
vn -0.6060 -0.7325 -0.3102
vn 0.7172 0.6053 -0.3453
vn 0.0097 -0.6950 -0.7190
vn 0.4250 0.5058 0.7507
vn 0.3718 0.7695 0.5193
vn 0.9454 0.0759 -0.3168
vn 0.1082 0.9718 -0.2097
vn -0.8994 0.4014 -0.1733
vn -0.0186 0.9412 0.3375
vn 0.9974 0.0552 -0.0459
vn 0.0317 -0.9994 -0.0170
vn -0.7549 0.2756 -0.5952
vn 0.0162 0.9942 -0.1061
vn -0.0776 0.9768 -0.1995
vn -0.0133 0.9988 -0.0475
vn 0.4211 -0.2793 -0.8630
vn 0.3257 -0.9389 -0.1110
vn 0.0913 -0.9878 -0.1261
vn -0.9994 0.0102 -0.0338
vn -0.9063 -0.2855 -0.3116
vn 0.0934 0.7159 -0.6919
vn -0.4641 0.8828 -0.0721
vn -0.3507 0.9325 0.0866
vn -0.7987 -0.0486 0.5997
vn -0.2389 -0.6812 -0.6920
vn -0.3435 -0.9193 0.1922
vn -0.9770 -0.1623 -0.1386
vn -0.7368 0.5836 -0.3414
vn 0.6121 -0.3908 -0.6875
vn 0.3604 0.0738 -0.9299
vn -0.4894 0.8668 0.0958
vn 0.9849 -0.1585 0.0699
vn 0.9363 -0.1744 -0.3049
vn 0.9583 0.0243 0.2847
vn 0.9343 -0.0489 0.3531
vn 0.5836 0.0128 0.8119
vn -0.3730 0.7623 0.5289
vn -0.4401 0.4954 0.7489
vn -0.8510 0.4357 0.2932
vn -0.8886 -0.0319 0.4575
vn -0.4716 -0.0215 0.8815
vn -0.8569 0.5099 0.0753
vn -0.9203 -0.0131 0.3910
vn -0.9811 0.0382 0.1897
vn 0.1799 -0.9564 -0.2301
vn -0.9882 0.1276 0.0847
vn -0.9886 -0.1307 0.0744
vn -0.8846 -0.0116 0.4662
vn -0.9814 0.1840 0.0551
vn -0.9792 0.0114 0.2024
vn 0.6038 0.2582 -0.7542
vn -0.9932 -0.0131 0.1156
vn -0.9317 0.3507 -0.0949
vn 0.8701 -0.0228 -0.4923
vn -0.9225 0.3210 -0.2145
vn 0.7808 -0.1261 0.6120
vn 0.9485 -0.2543 -0.1890
vn 0.9177 0.1754 0.3564
vn 0.9896 -0.1102 -0.0929
vn 0.9010 0.4276 0.0731
vn 0.9576 -0.2250 -0.1801
vn -0.9551 0.0001 0.2961
vn -0.9584 -0.2712 0.0896
vn -0.5908 0.5787 -0.5622
vn 0.7889 0.5798 -0.2037
vn 0.6282 0.7317 -0.2645
vn -0.0218 0.9946 -0.1010
vn 0.3999 0.8477 -0.3485
vn 0.8827 -0.4232 0.2041
vn -0.0144 0.0445 -0.9989
vn -0.8414 -0.1066 0.5299
vn 0.9615 0.1063 -0.2533
vn -0.9983 0.0530 0.0238
vn -0.9924 0.0160 -0.1222
vn -0.6071 0.7311 -0.3114
vn -0.9418 0.3204 -0.1018
vn -0.7020 -0.6320 0.3284
vn -0.7311 -0.5094 -0.4539
vn -0.9480 0.0443 -0.3151
vn -0.6083 -0.4092 -0.6801
vn -0.9873 -0.0209 -0.1577
vn 0.3868 -0.7290 -0.5647
vn -0.1686 0.0717 -0.9831
vn -0.2994 -0.9477 -0.1110
vn 0.2420 0.8342 -0.4955
vn -0.9273 -0.1936 -0.3204
vn -0.0638 -0.9900 -0.1260
vn 0.0005 0.8590 -0.5119
vn -0.5982 -0.6751 0.4318
vn -0.9165 -0.3995 0.0213
vn -0.6693 -0.6553 0.3502
vn -0.9945 -0.0763 -0.0715
vn -0.6437 -0.2077 0.7366
vn -0.7122 -0.3171 0.6263
usemtl Cow
s 1
f 1//1 2//2 3//3
f 4//4 5//5 6//6
f 7//7 8//8 9//9
f 10//10 9//9 8//8
f 8//8 11//11 10//10
f 12//12 10//10 11//11
f 13//13 14//14 15//15
f 16//16 17//17 18//18
f 19//19 20//20 21//21
f 22//22 23//23 24//24
f 25//25 3//3 26//26
f 27//27 28//28 29//29
f 14//14 13//13 30//30
f 31//31 32//32 33//33
f 34//34 35//35 36//36
f 37//37 38//38 39//39
f 40//40 41//41 42//42
f 34//34 43//43 35//35
f 44//44 45//45 46//46
f 47//47 48//48 49//49
f 50//50 51//51 52//52
f 53//53 54//54 55//55
f 56//56 57//57 58//58
f 44//44 59//59 45//45
f 60//60 6//6 61//61
f 62//62 63//63 64//64
f 65//65 66//66 67//67
f 68//68 45//45 69//69
f 69//69 45//45 59//59
f 70//70 71//71 63//63
f 72//72 73//73 74//74
f 75//75 76//76 77//77
f 78//78 79//79 80//80
f 81//81 82//82 83//83
f 41//41 53//53 84//84
f 85//85 86//86 87//87
f 88//88 89//89 17//17
f 90//90 91//91 92//92
f 93//93 94//94 49//49
f 59//59 95//95 69//69
f 59//59 96//96 95//95
f 95//95 19//19 97//97
f 98//98 99//99 100//100
f 101//101 37//37 50//50
f 68//68 69//69 95//95
f 102//102 103//103 104//104
f 102//102 104//104 105//105
f 106//106 66//66 107//107
f 108//108 109//109 1//1
f 110//110 85//85 111//111
f 112//112 87//87 113//113
f 88//88 114//114 89//89
f 115//115 116//116 117//117
f 118//118 119//119 120//120
f 121//121 122//122 25//25
f 123//123 103//103 102//102
f 14//14 30//30 124//124
f 125//125 62//62 126//126
f 101//101 75//75 127//127
f 108//108 128//128 5//5
f 68//68 95//95 45//45
f 46//46 45//45 95//95
f 3//3 129//129 130//130
f 131//131 132//132 133//133
f 134//134 109//109 135//135
f 136//136 137//137 65//65
f 80//80 49//49 138//138
f 3//3 25//25 122//122
f 139//139 70//70 126//126
f 140//140 141//141 142//142
f 20//20 67//67 143//143
f 144//144 31//31 145//145
f 146//146 147//147 54//54
f 24//24 148//148 149//149
f 150//150 105//105 151//151
f 147//147 146//146 152//152
f 153//153 154//154 155//155
f 106//106 156//156 66//66
f 70//70 125//125 126//126
f 148//148 157//157 158//158
f 159//159 160//160 161//161
f 110//110 162//162 163//163
f 164//164 165//165 149//149
f 58//58 166//166 33//33
f 20//20 96//96 65//65
f 167//167 168//168 169//169
f 170//170 171//171 172//172
f 173//173 174//174 76//76
f 38//38 101//101 175//175
f 176//176 122//122 121//121
f 177//177 178//178 179//179
f 159//159 161//161 4//4
f 180//180 181//181 182//182
f 183//183 171//171 184//184
f 146//146 54//54 152//152
f 185//185 186//186 187//187
f 188//188 189//189 190//190
f 191//191 192//192 29//29
f 164//164 149//149 148//148
f 193//193 140//140 142//142
f 158//158 82//82 174//174
f 99//99 139//139 100//100
f 194//194 193//193 132//132
f 93//93 195//195 94//94
f 121//121 25//25 196//196
f 197//197 52//52 192//192
f 186//186 66//66 156//156
f 58//58 57//57 91//91
f 43//43 34//34 167//167
f 198//198 18//18 181//181
f 18//18 198//198 16//16
f 36//36 141//141 34//34
f 107//107 199//199 200//200
f 4//4 6//6 159//159
f 19//19 95//95 96//96
f 187//187 201//201 185//185
f 60//60 61//61 201//201
f 107//107 200//200 106//106
f 202//202 203//203 204//204
f 57//57 56//56 205//205
f 61//61 206//206 185//185
f 207//207 208//208 200//200
f 208//208 106//106 200//200
f 209//209 147//147 72//72
f 101//101 50//50 197//197
f 112//112 187//187 210//210
f 211//211 110//110 212//212
f 213//213 4//4 161//161
f 42//42 41//41 84//84
f 87//87 112//112 111//111
f 214//214 215//215 216//216
f 72//72 147//147 73//73
f 65//65 96//96 59//59
f 106//106 208//208 156//156
f 136//136 65//65 217//217
f 85//85 218//218 86//86
f 76//76 75//75 101//101
f 207//207 156//156 208//208
f 171//171 219//219 220//220
f 80//80 221//221 194//194
f 105//105 150//150 102//102
f 13//13 15//15 78//78
f 72//72 55//55 209//209
f 169//169 122//122 222//222
f 87//87 111//111 85//85
f 117//117 223//223 224//224
f 225//225 224//224 223//223
f 226//226 227//227 151//151
f 228//228 222//222 122//122
f 229//229 64//64 230//230
f 231//231 130//130 232//232
f 210//210 233//233 234//234
f 133//133 193//193 142//142
f 154//154 235//235 236//236
f 218//218 227//227 86//86
f 207//207 200//200 156//156
f 134//134 237//237 2//2
f 66//66 65//65 137//137
f 238//238 67//67 66//66
f 239//239 240//240 110//110
f 199//199 156//156 200//200
f 117//117 84//84 223//223
f 241//241 242//242 243//243
f 31//31 144//144 244//244
f 242//242 245//245 243//243
f 70//70 139//139 71//71
f 246//246 243//243 245//245
f 247//247 67//67 206//206
f 195//195 248//248 216//216
f 249//249 77//77 82//82
f 250//250 216//216 248//248
f 216//216 250//250 214//214
f 246//246 245//245 251//251
f 113//113 161//161 160//160
f 252//252 251//251 245//245
f 37//37 101//101 38//38
f 100//100 62//62 98//98
f 214//214 250//250 253//253
f 248//248 253//253 250//250
f 56//56 32//32 214//214
f 214//214 253//253 56//56
f 43//43 222//222 254//254
f 248//248 255//255 253//253
f 15//15 79//79 78//78
f 179//179 176//176 177//177
f 150//150 240//240 239//239
f 177//177 121//121 256//256
f 221//221 79//79 15//15
f 248//248 243//243 257//257
f 246//246 257//257 243//243
f 257//257 246//246 251//251
f 248//248 257//257 255//255
f 258//258 104//104 103//103
f 259//259 255//255 257//257
f 205//205 253//253 255//255
f 253//253 205//205 56//56
f 54//54 147//147 209//209
f 255//255 260//260 205//205
f 260//260 255//255 261//261
f 259//259 83//83 255//255
f 261//261 255//255 83//83
f 145//145 262//262 144//144
f 263//263 264//264 265//265
f 251//251 259//259 257//257
f 83//83 157//157 261//261
f 259//259 251//251 266//266
f 267//267 261//261 157//157
f 261//261 267//267 260//260
f 268//268 266//266 251//251
f 251//251 252//252 268//268
f 269//269 153//153 98//98
f 266//266 249//249 259//259
f 268//268 252//252 270//270
f 271//271 270//270 252//252
f 266//266 268//268 272//272
f 266//266 272//272 249//249
f 268//268 270//270 273//273
f 273//273 272//272 268//268
f 90//90 92//92 274//274
f 275//275 114//114 276//276
f 277//277 273//273 270//270
f 270//270 271//271 278//278
f 279//279 278//278 271//271
f 280//280 114//114 275//275
f 15//15 14//14 204//204
f 247//247 143//143 67//67
f 281//281 245//245 282//282
f 270//270 278//278 283//283
f 283//283 277//277 270//270
f 98//98 229//229 269//269
f 26//26 226//226 230//230
f 201//201 187//187 112//112
f 107//107 225//225 199//199
f 133//133 132//132 193//193
f 101//101 127//127 175//175
f 284//284 278//278 279//279
f 235//235 154//154 153//153
f 196//196 236//236 235//235
f 278//278 284//284 283//283
f 285//285 215//215 32//32
f 280//280 275//275 118//118
f 100//100 126//126 62//62
f 196//196 256//256 121//121
f 286//286 287//286 288//286
f 137//137 136//136 224//224
f 289//287 283//283 290//288
f 215//215 285//285 90//90
f 290//288 279//279 289//287
f 25//25 26//26 291//289
f 209//209 55//55 54//54
f 279//279 290//288 284//284
f 292//290 293//291 281//281
f 294//292 171//171 170//170
f 295//293 152//152 296//294
f 197//197 50//50 52//52
f 86//86 16//16 198//198
f 73//73 147//147 297//295
f 279//279 271//271 289//287
f 229//229 230//230 226//226
f 298//296 289//287 271//271
f 298//296 283//283 289//287
f 132//132 241//241 47//47
f 283//283 298//296 277//277
f 98//98 155//155 99//99
f 274//274 299//297 90//90
f 271//271 252//252 298//296
f 300//298 232//232 130//130
f 241//241 243//243 48//48
f 183//183 172//172 171//171
f 301//299 298//296 252//252
f 82//82 76//76 174//174
f 18//18 17//17 181//181
f 293//291 301//299 252//252
f 252//252 245//245 293//291
f 165//165 302//300 303//301
f 40//40 54//54 41//41
f 304//302 305//303 164//164
f 198//198 113//113 87//87
f 27//27 29//29 306//304
f 272//272 273//273 75//75
f 127//127 273//273 277//277
f 124//124 167//167 34//34
f 75//75 273//273 127//127
f 305//303 28//28 165//165
f 71//71 230//230 63//63
f 127//127 277//277 307//305
f 187//187 186//186 233//233
f 17//17 16//16 276//276
f 212//212 163//163 73//73
f 138//138 49//49 94//94
f 89//89 181//181 17//17
f 307//305 277//277 298//296
f 193//193 202//202 140//140
f 37//37 184//184 220//220
f 301//299 307//305 298//296
f 239//239 211//211 123//123
f 175//175 127//127 307//305
f 307//305 301//299 308//306
f 308//306 175//175 307//305
f 309//307 308//306 301//299
f 301//299 293//291 309//307
f 63//63 230//230 64//64
f 299//297 215//215 90//90
f 309//307 310//308 308//306
f 311//309 175//175 308//306
f 311//309 308//306 310//308
f 309//307 312//310 310//308
f 312//310 309//307 293//291
f 310//308 313//311 311//309
f 314//312 310//308 312//310
f 310//308 314//312 313//311
f 38//38 311//309 313//311
f 315//313 226//226 151//151
f 316//314 254//254 317//315
f 175//175 311//309 38//38
f 313//311 318//316 38//38
f 151//151 218//218 240//240
f 170//170 179//179 178//178
f 39//39 38//38 318//316
f 314//312 319//317 313//311
f 314//312 312//310 319//317
f 320//318 318//316 313//311
f 321//319 149//149 232//232
f 313//311 322//320 320//318
f 322//320 313//311 319//317
f 219//219 143//143 51//51
f 293//291 292//290 312//310
f 312//310 9//9 319//317
f 312//310 292//290 9//9
f 323//321 319//317 9//9
f 319//317 323//321 322//320
f 7//7 9//9 292//290
f 324//322 213//213 109//109
f 7//7 292//290 282//282
f 325//323 323//321 9//9
f 151//151 269//269 315//313
f 9//9 10//10 325//323
f 326//324 327//325 7//7
f 160//160 201//201 112//112
f 5//5 324//322 108//108
f 328//326 7//7 327//325
f 327//325 329//327 328//326
f 7//7 328//326 8//8
f 166//166 262//262 33//33
f 329//327 8//8 328//326
f 219//219 51//51 220//220
f 92//92 57//57 205//205
f 330//328 329//327 331//329
f 329//327 330//328 8//8
f 332//330 316//314 172//172
f 11//11 8//8 330//328
f 241//241 282//282 242//242
f 21//21 333//331 19//19
f 242//242 282//282 245//245
f 13//13 78//78 138//138
f 138//138 94//94 13//13
f 131//131 334//332 282//282
f 234//234 233//233 53//53
f 335//333 336//334 135//135
f 42//42 116//116 40//40
f 105//105 153//153 269//269
f 228//228 122//122 176//176
f 291//289 236//236 196//196
f 37//37 220//220 50//50
f 337//335 11//11 330//328
f 11//11 337//335 12//12
f 330//328 331//329 338//336
f 339//337 338//336 331//329
f 267//267 24//24 274//274
f 338//336 337//335 330//328
f 94//94 195//195 23//23
f 340//338 168//168 300//298
f 341//339 141//141 326//324
f 211//211 212//212 97//97
f 265//265 21//21 143//143
f 182//182 342//340 335//333
f 302//300 5//5 128//128
f 235//235 104//104 178//178
f 206//206 61//61 306//304
f 103//103 123//123 264//264
f 316//314 343//341 254//254
f 77//77 249//249 272//272
f 128//128 303//301 302//300
f 342//340 182//182 89//89
f 226//226 315//313 229//229
f 48//48 47//47 241//241
f 22//22 24//24 321//319
f 194//194 132//132 47//47
f 336//334 119//119 275//275
f 302//300 165//165 28//28
f 160//160 159//159 201//201
f 99//99 230//230 139//139
f 112//112 113//113 160//160
f 337//335 344//342 12//12
f 344//342 337//335 345//343
f 346//344 12//12 344//342
f 74//74 163//163 162//162
f 345//343 347//345 344//342
f 77//77 272//272 75//75
f 27//27 306//304 61//61
f 48//48 248//248 93//93
f 248//248 48//48 243//243
f 27//27 61//61 6//6
f 335//333 135//135 213//213
f 167//167 124//124 30//30
f 198//198 87//87 86//86
f 346//344 10//10 12//12
f 348//346 346//344 344//342
f 162//162 110//110 111//111
f 315//313 269//269 229//229
f 10//10 346//344 349//347
f 348//346 349//347 346//344
f 32//32 215//215 214//214
f 325//323 10//10 349//347
f 349//347 348//346 350//348
f 349//347 351//349 325//323
f 323//321 325//323 351//349
f 351//349 322//320 323//321
f 89//89 336//334 342//340
f 168//168 30//30 321//319
f 351//349 349//347 35//35
f 350//348 35//35 349//347
f 322//320 351//349 343//341
f 35//35 343//341 351//349
f 343//341 320//318 322//320
f 350//348 36//36 35//35
f 263//263 258//258 264//264
f 320//318 343//341 332//330
f 320//318 332//330 318//316
f 233//233 156//156 199//199
f 20//20 65//65 67//67
f 183//183 318//316 332//330
f 318//316 183//183 39//39
f 350//348 348//346 352//350
f 352//350 36//36 350//348
f 80//80 353//351 47//47
f 36//36 352//350 327//325
f 327//325 326//324 36//36
f 329//327 327//325 352//350
f 141//141 36//36 326//324
f 212//212 73//73 297//295
f 238//238 206//206 67//67
f 40//40 296//294 152//152
f 331//329 329//327 352//350
f 223//223 199//199 225//225
f 143//143 21//21 20//20
f 182//182 161//161 180//180
f 147//147 152//152 295//293
f 352//350 348//346 354//352
f 354//352 331//329 352//350
f 244//244 144//144 262//262
f 303//301 232//232 149//149
f 344//342 354//352 348//346
f 103//103 264//264 258//258
f 122//122 169//169 129//129
f 150//150 239//239 123//123
f 92//92 91//91 57//57
f 244//244 285//285 31//31
f 74//74 162//162 55//55
f 331//329 354//352 339//337
f 354//352 344//342 347//345
f 63//63 125//125 70//70
f 247//247 51//51 143//143
f 347//345 339//337 354//352
f 7//7 282//282 334//332
f 91//91 90//90 285//285
f 285//285 244//244 91//91
f 274//274 260//260 267//267
f 174//174 173//173 191//191
f 128//128 231//231 303//301
f 211//211 239//239 110//110
f 135//135 237//237 134//134
f 306//304 52//52 51//51
f 269//269 151//151 105//105
f 64//64 98//98 62//62
f 205//205 274//274 92//92
f 80//80 138//138 78//78
f 218//218 151//151 227//227
f 227//227 2//2 16//16
f 237//237 135//135 336//334
f 117//117 42//42 84//84
f 291//289 26//26 355//353
f 123//123 102//102 150//150
f 66//66 186//186 238//238
f 231//231 128//128 130//130
f 249//249 82//82 81//81
f 317//315 172//172 316//314
f 172//172 183//183 332//330
f 107//107 137//137 225//225
f 114//114 88//88 276//276
f 206//206 238//238 185//185
f 96//96 20//20 19//19
f 321//319 232//232 168//168
f 262//262 166//166 244//244
f 184//184 37//37 39//39
f 337//335 338//336 345//343
f 47//47 49//49 80//80
f 302//300 6//6 5//5
f 155//155 98//98 153//153
f 339//337 347//345 189//189
f 264//264 123//123 333//331
f 300//298 168//168 232//232
f 340//338 300//298 129//129
f 189//189 188//188 339//337
f 118//118 275//275 119//119
f 317//315 356//354 179//179
f 53//53 41//41 54//54
f 324//322 5//5 213//213
f 130//130 129//129 300//298
f 163//163 212//212 110//110
f 334//332 341//339 7//7
f 97//97 333//331 211//211
f 356//354 317//315 254//254
f 3//3 130//130 1//1
f 326//324 7//7 341//339
f 33//33 56//56 58//58
f 72//72 74//74 55//55
f 294//292 170//170 265//265
f 336//334 275//275 276//276
f 347//345 190//190 189//189
f 145//145 33//33 262//262
f 294//292 265//265 219//219
f 306//304 51//51 206//206
f 179//179 170//170 317//315
f 216//216 23//23 195//195
f 81//81 259//259 249//249
f 215//215 299//297 23//23
f 110//110 240//240 218//218
f 42//42 117//117 116//116
f 241//241 132//132 131//131
f 265//265 264//264 21//21
f 188//188 190//190 338//336
f 24//24 267//267 148//148
f 61//61 185//185 201//201
f 190//190 347//345 345//343
f 182//182 213//213 161//161
f 355//353 99//99 236//236
f 345//343 338//336 190//190
f 23//23 216//216 215//215
f 60//60 201//201 159//159
f 247//247 206//206 51//51
f 220//220 184//184 171//171
f 4//4 213//213 5//5
f 114//114 280//280 120//120
f 17//17 276//276 88//88
f 235//235 178//178 256//256
f 221//221 15//15 203//203
f 305//303 304//302 191//191
f 299//297 24//24 23//23
f 124//124 140//140 204//204
f 99//99 355//353 230//230
f 165//165 164//164 305//303
f 224//355 225//355 357//355
f 149//149 321//319 24//24
f 13//13 94//94 22//22
f 316//314 332//330 343//341
f 230//230 355//353 26//26
f 188//188 338//336 339//337
f 80//80 79//79 221//221
f 109//109 108//108 324//322
f 192//192 191//191 173//173
f 197//197 76//76 101//101
f 197//197 173//173 76//76
f 227//227 3//3 2//2
f 29//29 52//52 306//304
f 282//282 241//241 131//131
f 334//332 131//131 133//133
f 284//284 290//288 358//356
f 27//27 6//6 28//28
f 143//143 219//219 265//265
f 32//32 31//31 285//285
f 55//55 162//162 53//53
f 192//192 173//173 197//197
f 245//245 281//281 293//291
f 184//184 39//39 183//183
f 111//111 210//210 162//162
f 236//236 291//289 355//353
f 52//52 29//29 192//192
f 222//222 228//228 356//354
f 76//76 82//82 77//77
f 336//334 335//333 342//340
f 30//30 168//168 167//167
f 120//120 280//280 118//118
f 142//142 341//339 334//332
f 124//124 34//34 141//141
f 124//124 204//204 14//14
f 133//133 142//142 334//332
f 23//23 22//22 94//94
f 296//294 40//40 116//116
f 140//140 124//124 141//141
f 204//204 203//203 15//15
f 110//110 218//218 85//85
f 43//43 167//167 222//222
f 195//195 93//93 248//248
f 213//213 182//182 335//333
f 358//356 283//283 284//284
f 89//89 119//119 336//334
f 181//181 89//89 182//182
f 204//204 140//140 202//202
f 16//16 86//86 227//227
f 333//331 97//97 19//19
f 233//233 199//199 223//223
f 260//260 274//274 205//205
f 256//256 196//196 235//235
f 191//191 29//29 305//303
f 28//28 305//303 29//29
f 294//292 219//219 171//171
f 224//224 225//225 137//137
f 221//221 193//193 194//194
f 113//113 180//180 161//161
f 3//3 122//122 129//129
f 291//289 196//196 25//25
f 108//108 1//1 130//130
f 47//47 353//351 194//194
f 302//300 28//28 6//6
f 276//276 2//2 237//237
f 232//232 303//301 231//231
f 254//254 35//35 43//43
f 263//263 170//170 258//258
f 26//26 227//227 226//226
f 62//62 125//125 63//63
f 121//121 177//177 176//176
f 128//128 108//108 130//130
f 234//234 53//53 162//162
f 166//166 91//91 244//244
f 356//354 254//254 222//222
f 176//176 356//354 228//228
f 35//35 254//254 343//341
f 109//109 213//213 135//135
f 233//233 84//84 53//53
f 64//64 229//229 98//98
f 153//153 104//104 235//235
f 263//263 265//265 170//170
f 157//157 148//148 267//267
f 91//91 166//166 58//58
f 49//49 48//48 93//93
f 157//157 83//83 82//82
f 147//147 295//293 296//294
f 99//99 155//155 154//154
f 153//153 105//105 104//104
f 340//338 169//169 168//168
f 303//301 149//149 165//165
f 74//74 73//73 163//163
f 359//357 296//294 116//116
f 296//294 297//295 147//147
f 296//294 359//357 297//295
f 139//139 230//230 71//71
f 50//50 220//220 51//51
f 137//137 107//107 66//66
f 176//176 179//179 356//354
f 158//158 174//174 304//302
f 119//119 89//89 114//114
f 340//338 129//129 169//169
f 56//56 33//33 32//32
f 54//54 40//40 152//152
f 136//136 117//117 224//224
f 169//169 222//222 167//167
f 156//156 233//233 186//186
f 359//357 360//358 297//295
f 281//281 282//282 292//290
f 177//177 256//256 178//178
f 240//240 150//150 151//151
f 193//193 221//221 202//202
f 359//357 116//116 361//359
f 81//81 83//83 259//259
f 1//1 134//134 2//2
f 361//359 116//116 115//115
f 60//60 159//159 6//6
f 336//334 276//276 237//237
f 258//258 178//178 104//104
f 361//359 360//358 359//357
f 172//172 317//315 170//170
f 321//319 30//30 22//22
f 299//297 274//274 24//24
f 162//162 210//210 234//234
f 13//13 22//22 30//30
f 158//158 304//302 148//148
f 341//339 142//142 141//141
f 145//145 31//31 33//33
f 358//356 290//288 283//283
f 164//164 148//148 304//302
f 361//359 362//360 360//358
f 154//154 236//236 99//99
f 82//82 158//158 157//157
f 210//210 111//111 112//112
f 362//360 361//359 46//46
f 134//134 1//1 109//109
f 115//115 286//361 361//359
f 288//362 361//359 286//361
f 361//359 288//362 46//46
f 123//123 211//211 333//331
f 227//227 26//26 3//3
f 117//117 136//136 115//115
f 194//194 353//351 80//80
f 180//180 113//113 198//198
f 333//331 21//21 264//264
f 181//181 180//180 198//198
f 217//217 286//361 115//115
f 217//217 115//115 136//136
f 286//361 217//217 288//362
f 223//223 84//84 233//233
f 233//233 210//210 187//187
f 44//44 288//362 217//217
f 44//44 46//46 288//362
f 126//126 100//100 139//139
f 202//202 221//221 203//203
f 217//217 65//65 44//44
f 59//59 44//44 65//65
f 120//120 119//119 114//114
f 191//191 304//302 174//174
f 178//178 258//258 170//170
f 362//360 46//46 95//95
f 362//360 95//95 97//97
f 2//2 276//276 16//16
f 297//295 360//358 362//360
f 97//97 212//212 362//360
f 297//295 362//360 212//212
f 186//186 185//185 238//238
