# Blender v2.90.0 OBJ File: 'dtmo_x1.blend'
# www.blender.org
mtllib Cube.mtl
o Cube
v 0.494796 0.487725 0.499796
v 0.499796 0.494796 0.494796
v 0.494796 0.499796 0.487725
v 0.487725 0.499796 0.494796
v 0.487725 0.494796 0.499796
v 0.497242 0.489975 0.499060
v 0.493747 0.491196 0.499796
v 0.496073 0.494104 0.498681
v 0.499060 0.497242 0.492546
v 0.499060 0.492546 0.497242
v 0.497955 0.496138 0.496138
v 0.493747 0.499796 0.491196
v 0.497242 0.499060 0.489975
v 0.496073 0.498681 0.494104
v 0.487725 0.499054 0.497250
v 0.491196 0.499796 0.493747
v 0.492825 0.498701 0.496526
v 0.491196 0.493747 0.499796
v 0.487725 0.497250 0.499054
v 0.492825 0.496526 0.498701
v -0.494796 0.499796 0.494796
v -0.499796 0.494796 0.487725
v -0.499796 0.487725 0.494796
v -0.494796 0.494796 0.499796
v -0.497242 0.499060 0.492546
v -0.494796 0.499054 0.497250
v -0.497336 0.498094 0.495930
v -0.499796 0.493747 0.491196
v -0.499060 0.497242 0.489975
v -0.499016 0.496295 0.493899
v -0.499060 0.489975 0.497242
v -0.499796 0.491196 0.493747
v -0.499016 0.493899 0.496295
v -0.494796 0.497250 0.499054
v -0.497242 0.492546 0.499060
v -0.497336 0.495930 0.498094
v -0.487725 -0.494796 0.499796
v -0.494796 -0.487725 0.499796
v -0.499796 -0.494796 0.494796
v -0.494796 -0.499796 0.487725
v -0.487725 -0.499796 0.494796
v -0.491196 -0.493747 0.499796
v -0.487725 -0.497250 0.499054
v -0.492825 -0.496526 0.498701
v -0.497242 -0.489975 0.499060
v -0.493747 -0.491196 0.499796
v -0.496073 -0.494104 0.498681
v -0.499060 -0.497242 0.492546
v -0.499060 -0.492546 0.497242
v -0.497955 -0.496138 0.496138
v -0.493747 -0.499796 0.491196
v -0.497242 -0.499060 0.489975
v -0.496073 -0.498681 0.494104
v -0.487725 -0.499054 0.497250
v -0.491196 -0.499796 0.493747
v -0.492825 -0.498701 0.496526
v 0.499796 -0.487725 0.494796
v 0.494796 -0.494796 0.499796
v 0.494796 -0.499796 0.494796
v 0.499796 -0.494796 0.487725
v 0.499060 -0.489975 0.497242
v 0.499796 -0.491196 0.493747
v 0.499016 -0.493899 0.496295
v 0.494796 -0.497250 0.499054
v 0.497242 -0.492546 0.499060
v 0.497336 -0.495930 0.498094
v 0.497242 -0.499060 0.492546
v 0.494796 -0.499054 0.497250
v 0.497336 -0.498094 0.495930
v 0.499796 -0.493747 0.491196
v 0.499060 -0.497242 0.489975
v 0.499016 -0.496295 0.493899
v 0.487725 -0.499796 -0.494796
v 0.487725 -0.494796 -0.499796
v 0.494796 -0.487725 -0.499796
v 0.499796 -0.494796 -0.494796
v 0.494796 -0.499796 -0.487725
v 0.487725 -0.499054 -0.497250
v 0.491196 -0.499796 -0.493747
v 0.492825 -0.498701 -0.496526
v 0.491196 -0.493747 -0.499796
v 0.487725 -0.497250 -0.499054
v 0.492825 -0.496526 -0.498701
v 0.497242 -0.489975 -0.499060
v 0.493747 -0.491196 -0.499796
v 0.496073 -0.494104 -0.498681
v 0.499060 -0.497242 -0.492546
v 0.499060 -0.492546 -0.497242
v 0.497955 -0.496138 -0.496138
v 0.493747 -0.499796 -0.491196
v 0.497242 -0.499060 -0.489975
v 0.496073 -0.498681 -0.494104
v -0.494796 -0.494796 -0.499796
v -0.494796 -0.499796 -0.494796
v -0.499796 -0.494796 -0.487725
v -0.499796 -0.487725 -0.494796
v -0.494796 -0.497250 -0.499054
v -0.497242 -0.492546 -0.499060
v -0.497336 -0.495930 -0.498094
v -0.497242 -0.499060 -0.492546
v -0.494796 -0.499054 -0.497250
v -0.497336 -0.498094 -0.495930
v -0.499796 -0.493747 -0.491196
v -0.499060 -0.497242 -0.489975
v -0.499016 -0.496295 -0.493899
v -0.499060 -0.489975 -0.497242
v -0.499796 -0.491196 -0.493747
v -0.499016 -0.493899 -0.496295
v -0.494796 0.487725 -0.499796
v -0.499796 0.494796 -0.494796
v -0.494796 0.499796 -0.487725
v -0.487725 0.499796 -0.494796
v -0.487725 0.494796 -0.499796
v -0.497242 0.489975 -0.499060
v -0.493747 0.491196 -0.499796
v -0.496073 0.494104 -0.498681
v -0.499060 0.497242 -0.492546
v -0.499060 0.492546 -0.497242
v -0.497955 0.496138 -0.496138
v -0.493747 0.499796 -0.491196
v -0.497242 0.499060 -0.489975
v -0.496073 0.498681 -0.494104
v -0.487725 0.499054 -0.497250
v -0.491196 0.499796 -0.493747
v -0.492825 0.498701 -0.496526
v -0.491196 0.493747 -0.499796
v -0.487725 0.497250 -0.499054
v -0.492825 0.496526 -0.498701
v 0.494796 0.499796 -0.494796
v 0.499796 0.494796 -0.487725
v 0.499796 0.487725 -0.494796
v 0.494796 0.494796 -0.499796
v 0.497242 0.499060 -0.492546
v 0.494796 0.499054 -0.497250
v 0.497336 0.498094 -0.495930
v 0.499796 0.493747 -0.491196
v 0.499060 0.497242 -0.489975
v 0.499016 0.496295 -0.493899
v 0.499060 0.489975 -0.497242
v 0.499796 0.491196 -0.493747
v 0.499016 0.493899 -0.496295
v 0.494796 0.497250 -0.499054
v 0.497242 0.492546 -0.499060
v 0.497336 0.495930 -0.498094
vn 0.9889 0.1480 -0.0123
vn 1.0000 0.0000 0.0000
vn 0.9889 -0.0123 0.1480
vn 0.0303 0.1634 0.9861
vn 0.0000 0.0000 1.0000
vn -0.1511 -0.0218 0.9883
vn 0.0303 -0.9861 -0.1634
vn -0.1511 -0.9883 0.0218
vn 0.0000 -1.0000 0.0000
vn 0.9889 0.0123 -0.1480
vn 0.9889 -0.1480 0.0123
vn -0.9889 -0.0123 -0.1480
vn -0.9889 0.1480 0.0123
vn -1.0000 0.0000 0.0000
vn 0.1511 -0.9883 -0.0218
vn -0.0303 -0.9861 0.1634
vn -0.0303 0.1634 -0.9861
vn 0.0000 0.0000 -1.0000
vn 0.1511 -0.0218 -0.9883
vn -0.0303 0.9861 -0.1634
vn 0.1511 0.9883 0.0218
vn 0.0000 1.0000 0.0000
vn -0.1511 0.0218 -0.9883
vn 0.0303 -0.1634 -0.9861
vn -0.9889 -0.1480 -0.0123
vn -0.9889 0.0123 0.1480
vn -0.1511 0.9883 -0.0218
vn 0.0303 0.9861 0.1634
vn 0.1511 0.0218 0.9883
vn 0.4885 0.0897 0.8679
vn 0.3859 0.3642 0.8476
vn 0.1322 0.0958 0.9866
vn 0.7875 0.1857 0.5877
vn 0.5689 0.5815 0.5815
vn 0.8482 0.3746 0.3746
vn 0.7875 0.5877 0.1857
vn 0.4885 0.8679 0.0897
vn 0.3859 0.8476 0.3642
vn 0.1322 0.9866 0.0958
vn 0.0884 0.9839 0.1551
vn 0.2425 0.8222 0.5149
vn 0.0643 0.8513 0.5208
vn 0.0643 0.5208 0.8513
vn 0.2425 0.5149 0.8222
vn 0.0884 0.1551 0.9839
vn -0.2806 0.9343 0.2197
vn -0.5696 0.8166 0.0931
vn -0.6749 0.6429 0.3621
vn -0.2583 0.8238 0.5046
vn -0.8715 0.4882 0.0465
vn -0.9081 0.3711 0.1939
vn -0.9920 0.1122 0.0585
vn -0.9920 0.0585 0.1122
vn -0.9081 0.1939 0.3711
vn -0.8715 0.0465 0.4882
vn -0.5696 0.0931 0.8166
vn -0.6749 0.3621 0.6429
vn -0.2806 0.2197 0.9343
vn -0.2583 0.5046 0.8238
vn -0.0303 -0.1634 0.9861
vn -0.0884 -0.1551 0.9839
vn -0.2425 -0.5149 0.8222
vn -0.0643 -0.5208 0.8513
vn -0.1322 -0.0958 0.9866
vn -0.3859 -0.3642 0.8476
vn -0.4885 -0.0897 0.8679
vn -0.7875 -0.1857 0.5877
vn -0.5689 -0.5815 0.5815
vn -0.8482 -0.3746 0.3745
vn -0.7875 -0.5877 0.1857
vn -0.4885 -0.8679 0.0897
vn -0.3859 -0.8476 0.3642
vn -0.1322 -0.9866 0.0958
vn -0.0884 -0.9839 0.1551
vn -0.2425 -0.8222 0.5149
vn -0.0643 -0.8513 0.5208
vn 0.8715 -0.0465 0.4882
vn 0.9081 -0.1939 0.3711
vn 0.9920 -0.0585 0.1122
vn 0.5696 -0.0931 0.8166
vn 0.6749 -0.3621 0.6429
vn 0.2806 -0.2197 0.9343
vn 0.2583 -0.5045 0.8238
vn 0.2583 -0.8238 0.5046
vn 0.6749 -0.6429 0.3621
vn 0.2806 -0.9343 0.2197
vn 0.5696 -0.8166 0.0931
vn 0.8715 -0.4882 0.0465
vn 0.9081 -0.3711 0.1939
vn 0.9920 -0.1122 0.0585
vn 0.0643 -0.8513 -0.5208
vn 0.2425 -0.8222 -0.5149
vn 0.0884 -0.9839 -0.1551
vn 0.0643 -0.5208 -0.8513
vn 0.2425 -0.5149 -0.8222
vn 0.0884 -0.1551 -0.9839
vn 0.1322 -0.0958 -0.9866
vn 0.3859 -0.3642 -0.8476
vn 0.4885 -0.0897 -0.8679
vn 0.7875 -0.1857 -0.5877
vn 0.5689 -0.5815 -0.5815
vn 0.8482 -0.3746 -0.3745
vn 0.7875 -0.5877 -0.1857
vn 0.4885 -0.8679 -0.0897
vn 0.3859 -0.8476 -0.3642
vn 0.1322 -0.9866 -0.0958
vn -0.2806 -0.2197 -0.9343
vn -0.2583 -0.5045 -0.8238
vn -0.6749 -0.3621 -0.6429
vn -0.5696 -0.0931 -0.8166
vn -0.2583 -0.8238 -0.5045
vn -0.6749 -0.6429 -0.3621
vn -0.2806 -0.9343 -0.2197
vn -0.5696 -0.8166 -0.0931
vn -0.8715 -0.4882 -0.0465
vn -0.9081 -0.3711 -0.1939
vn -0.9920 -0.1122 -0.0585
vn -0.9920 -0.0585 -0.1122
vn -0.9081 -0.1939 -0.3711
vn -0.8715 -0.0465 -0.4882
vn -0.4885 0.0897 -0.8679
vn -0.3859 0.3642 -0.8476
vn -0.1322 0.0958 -0.9866
vn -0.7875 0.1857 -0.5877
vn -0.5689 0.5815 -0.5815
vn -0.8482 0.3746 -0.3746
vn -0.7875 0.5877 -0.1857
vn -0.4885 0.8679 -0.0897
vn -0.3859 0.8476 -0.3642
vn -0.1322 0.9866 -0.0958
vn -0.0884 0.9839 -0.1551
vn -0.2425 0.8222 -0.5149
vn -0.0643 0.8513 -0.5208
vn -0.0643 0.5208 -0.8513
vn -0.2425 0.5149 -0.8222
vn -0.0884 0.1551 -0.9839
vn 0.2806 0.9343 -0.2197
vn 0.5696 0.8166 -0.0931
vn 0.6749 0.6429 -0.3621
vn 0.2583 0.8238 -0.5045
vn 0.8715 0.4882 -0.0465
vn 0.9081 0.3711 -0.1939
vn 0.9920 0.1122 -0.0585
vn 0.9920 0.0585 -0.1122
vn 0.9081 0.1939 -0.3711
vn 0.8715 0.0465 -0.4882
vn 0.5696 0.0931 -0.8166
vn 0.6749 0.3621 -0.6429
vn 0.2806 0.2197 -0.9343
vn 0.2583 0.5045 -0.8238
usemtl Cube
s 1
f 130//1 2//2 57//3
f 5//4 24//5 38//6
f 73//7 40//8 94//9
f 131//10 60//11 76//2
f 96//12 22//13 110//14
f 77//15 59//9 41//16
f 113//17 132//18 75//19
f 112//20 3//21 129//22
f 109//23 74//24 93//18
f 95//25 39//14 23//26
f 111//27 21//22 4//28
f 1//29 6//30 8//31 7//32
f 6//30 10//33 11//34 8//31
f 2//35 9//36 11//34 10//33
f 9//36 13//37 14//38 11//34
f 3//21 12//39 14//38 13//37
f 12//39 16//40 17//41 14//38
f 4//28 15//42 17//41 16//40
f 15//42 19//43 20//44 17//41
f 5//4 18//45 20//44 19//43
f 18//45 7//32 8//31 20//44
f 8//31 11//34 14//38 17//41 20//44
f 21//46 25//47 27//48 26//49
f 25//47 29//50 30//51 27//48
f 22//13 28//52 30//51 29//50
f 28//52 32//53 33//54 30//51
f 23//26 31//55 33//54 32//53
f 31//55 35//56 36//57 33//54
f 24//58 34//59 36//57 35//56
f 34//59 26//49 27//48 36//57
f 27//48 30//51 33//54 36//57
f 37//60 42//61 44//62 43//63
f 42//61 46//64 47//65 44//62
f 38//6 45//66 47//65 46//64
f 45//66 49//67 50//68 47//65
f 39//69 48//70 50//68 49//67
f 48//70 52//71 53//72 50//68
f 40//8 51//73 53//72 52//71
f 51//73 55//74 56//75 53//72
f 41//16 54//76 56//75 55//74
f 54//76 43//63 44//62 56//75
f 44//62 47//65 50//68 53//72 56//75
f 57//3 61//77 63//78 62//79
f 61//77 65//80 66//81 63//78
f 58//82 64//83 66//81 65//80
f 64//83 68//84 69//85 66//81
f 59//86 67//87 69//85 68//84
f 67//87 71//88 72//89 69//85
f 60//11 70//90 72//89 71//88
f 70//90 62//79 63//78 72//89
f 63//78 66//81 69//85 72//89
f 73//7 78//91 80//92 79//93
f 78//91 82//94 83//95 80//92
f 74//24 81//96 83//95 82//94
f 81//96 85//97 86//98 83//95
f 75//19 84//99 86//98 85//97
f 84//99 88//100 89//101 86//98
f 76//102 87//103 89//101 88//100
f 87//103 91//104 92//105 89//101
f 77//15 90//106 92//105 91//104
f 90//106 79//93 80//92 92//105
f 80//92 83//95 86//98 89//101 92//105
f 93//107 97//108 99//109 98//110
f 97//108 101//111 102//112 99//109
f 94//113 100//114 102//112 101//111
f 100//114 104//115 105//116 102//112
f 95//25 103//117 105//116 104//115
f 103//117 107//118 108//119 105//116
f 96//12 106//120 108//119 107//118
f 106//120 98//110 99//109 108//119
f 99//109 102//112 105//116 108//119
f 109//23 114//121 116//122 115//123
f 114//121 118//124 119//125 116//122
f 110//126 117//127 119//125 118//124
f 117//127 121//128 122//129 119//125
f 111//27 120//130 122//129 121//128
f 120//130 124//131 125//132 122//129
f 112//20 123//133 125//132 124//131
f 123//133 127//134 128//135 125//132
f 113//17 126//136 128//135 127//134
f 126//136 115//123 116//122 128//135
f 116//122 119//125 122//129 125//132 128//135
f 129//137 133//138 135//139 134//140
f 133//138 137//141 138//142 135//139
f 130//1 136//143 138//142 137//141
f 136//143 140//144 141//145 138//142
f 131//10 139//146 141//145 140//144
f 139//146 143//147 144//148 141//145
f 132//149 142//150 144//148 143//147
f 142//150 134//140 135//139 144//148
f 135//139 138//142 141//145 144//148
f 5//4 38//6 46//64 18//45
f 18//45 46//64 42//61 7//32
f 7//32 42//61 37//60 1//29
f 4//28 21//46 26//49 15//42
f 15//42 26//49 34//59 19//43
f 19//43 34//59 24//58 5//4
f 23//26 39//69 49//67 31//55
f 31//55 49//67 45//66 35//56
f 35//56 45//66 38//6 24//58
f 1//29 58//82 65//80 6//30
f 6//30 65//80 61//77 10//33
f 10//33 61//77 57//3 2//35
f 41//16 59//86 68//84 54//76
f 54//76 68//84 64//83 43//63
f 43//63 64//83 58//82 37//60
f 40//8 73//7 79//93 51//73
f 51//73 79//93 90//106 55//74
f 55//74 90//106 77//15 41//16
f 59//86 77//15 91//104 67//87
f 67//87 91//104 87//103 71//88
f 71//88 87//103 76//102 60//11
f 73//7 94//113 101//111 78//91
f 78//91 101//111 97//108 82//94
f 82//94 97//108 93//107 74//24
f 39//69 95//25 104//115 48//70
f 48//70 104//115 100//114 52//71
f 52//71 100//114 94//113 40//8
f 22//13 96//12 107//118 28//52
f 28//52 107//118 103//117 32//53
f 32//53 103//117 95//25 23//26
f 96//12 110//126 118//124 106//120
f 106//120 118//124 114//121 98//110
f 98//110 114//121 109//23 93//107
f 21//46 111//27 121//128 25//47
f 25//47 121//128 117//127 29//50
f 29//50 117//127 110//126 22//13
f 74//24 109//23 115//123 81//96
f 81//96 115//123 126//136 85//97
f 85//97 126//136 113//17 75//19
f 112//20 129//137 134//140 123//133
f 123//133 134//140 142//150 127//134
f 127//134 142//150 132//149 113//17
f 75//19 132//149 143//147 84//99
f 84//99 143//147 139//146 88//100
f 88//100 139//146 131//10 76//102
f 60//11 131//10 140//144 70//90
f 70//90 140//144 136//143 62//79
f 62//79 136//143 130//1 57//3
f 2//35 130//1 137//141 9//36
f 9//36 137//141 133//138 13//37
f 13//37 133//138 129//137 3//21
f 3//21 112//20 124//131 12//39
f 12//39 124//131 120//130 16//40
f 16//40 120//130 111//27 4//28
f 1//29 37//60 58//5
