# Blender v3.1.2 OBJ File: ''
# www.blender.org
mtllib Cuboctahedron.mtl
o Cuboctahedron
v 0.138659 0.250164 0.404434
v 0.139433 0.241504 0.408517
v 0.147319 0.245164 0.404434
v 0.146099 0.253051 0.399089
v 0.138827 0.246213 0.407321
v 0.143484 0.248522 0.405835
v 0.143814 0.243334 0.407321
v 0.147400 0.249545 0.402250
v 0.142413 0.252425 0.402250
v -0.285978 0.005000 0.404434
v -0.292198 0.000000 0.399089
v -0.285978 -0.005000 0.404434
v -0.278865 0.000000 0.408517
v -0.289813 0.002879 0.402250
v -0.286969 0.000000 0.405835
v -0.289813 -0.002879 0.402250
v -0.282640 -0.002879 0.407321
v -0.282640 0.002879 0.407321
v 0.138659 -0.250164 0.404434
v 0.146099 -0.253051 0.399089
v 0.147319 -0.245164 0.404434
v 0.139433 -0.241504 0.408517
v 0.142413 -0.252425 0.402250
v 0.143484 -0.248522 0.405835
v 0.147400 -0.249545 0.402250
v 0.143814 -0.243334 0.407321
v 0.138827 -0.246213 0.407321
v 0.424964 0.253051 0.004714
v 0.430411 0.245164 0.004082
v 0.431631 0.241504 -0.004714
v 0.427524 0.250164 -0.004083
v 0.428378 0.249545 0.004886
v 0.430453 0.248522 -0.000000
v 0.431964 0.243334 -0.000185
v 0.430302 0.246213 -0.004886
v 0.426716 0.252425 0.000185
v 0.430411 -0.245164 0.004082
v 0.424964 -0.253051 0.004714
v 0.427524 -0.250164 -0.004083
v 0.431631 -0.241504 -0.004714
v 0.428378 -0.249545 0.004886
v 0.430453 -0.248522 -0.000000
v 0.426716 -0.252425 0.000185
v 0.430302 -0.246213 -0.004886
v 0.431964 -0.243334 -0.000185
v 0.292198 0.000000 -0.399089
v 0.285978 -0.005000 -0.404434
v 0.278865 0.000000 -0.408517
v 0.285978 0.005000 -0.404434
v 0.289813 -0.002879 -0.402250
v 0.286969 -0.000000 -0.405835
v 0.282640 -0.002879 -0.407321
v 0.282640 0.002879 -0.407321
v 0.289813 0.002879 -0.402250
v 0.006667 0.494555 0.004714
v 0.002887 0.495329 -0.004083
v -0.006667 0.494555 -0.004714
v -0.002887 0.495329 0.004082
v 0.005248 0.495759 0.000185
v 0.000000 0.497044 -0.000000
v -0.001924 0.495759 -0.004886
v -0.005248 0.495759 -0.000185
v 0.001924 0.495759 0.004886
v -0.138659 0.250164 -0.404434
v -0.139433 0.241504 -0.408517
v -0.147319 0.245164 -0.404434
v -0.146099 0.253051 -0.399089
v -0.138827 0.246213 -0.407321
v -0.143484 0.248522 -0.405835
v -0.143814 0.243334 -0.407321
v -0.147400 0.249545 -0.402250
v -0.142413 0.252425 -0.402250
v -0.424964 0.253051 -0.004714
v -0.430411 0.245164 -0.004082
v -0.431631 0.241504 0.004714
v -0.427524 0.250164 0.004082
v -0.428378 0.249545 -0.004886
v -0.430453 0.248522 -0.000000
v -0.431964 0.243334 0.000185
v -0.430302 0.246213 0.004886
v -0.426716 0.252425 -0.000185
v -0.427524 -0.250164 0.004082
v -0.431631 -0.241504 0.004714
v -0.430411 -0.245164 -0.004083
v -0.424964 -0.253051 -0.004714
v -0.430302 -0.246213 0.004886
v -0.430453 -0.248522 -0.000000
v -0.431964 -0.243334 0.000185
v -0.428378 -0.249545 -0.004886
v -0.426716 -0.252425 -0.000185
v -0.147319 -0.245164 -0.404434
v -0.139433 -0.241504 -0.408517
v -0.138659 -0.250164 -0.404434
v -0.146099 -0.253051 -0.399089
v -0.143814 -0.243334 -0.407321
v -0.143484 -0.248522 -0.405835
v -0.138827 -0.246213 -0.407321
v -0.142413 -0.252425 -0.402250
v -0.147400 -0.249545 -0.402250
v -0.006667 -0.494555 -0.004714
v 0.002887 -0.495329 -0.004083
v 0.006667 -0.494555 0.004714
v -0.002887 -0.495329 0.004082
v -0.001924 -0.495759 -0.004886
v -0.000000 -0.497044 -0.000000
v 0.005248 -0.495759 0.000185
v 0.001924 -0.495759 0.004886
v -0.005248 -0.495759 -0.000185
vn 0.4714 0.8165 0.3333
vn 0.4082 0.7071 -0.5774
vn -0.8165 0.0000 -0.5774
vn -0.4082 -0.7071 0.5774
vn 0.4082 -0.7071 -0.5774
vn 0.0000 0.0000 1.0000
vn -0.4714 -0.8165 -0.3333
vn 0.0000 0.0000 -1.0000
vn -0.9428 -0.0000 0.3333
vn 0.8165 0.0000 0.5774
vn 0.4714 -0.8165 0.3333
vn 0.9428 0.0000 -0.3333
vn -0.4714 0.8165 -0.3333
vn -0.0080 0.6352 0.7723
vn 0.1571 0.2721 0.9494
vn 0.5541 0.3107 0.7723
vn 0.3952 0.6844 0.6127
vn -0.5461 0.3245 0.7723
vn -0.7903 0.0000 0.6127
vn -0.5461 -0.3245 0.7723
vn -0.3142 0.0000 0.9494
vn -0.0080 -0.6352 0.7723
vn 0.3952 -0.6844 0.6127
vn 0.5541 -0.3107 0.7723
vn 0.1571 -0.2721 0.9494
vn 0.7094 0.6845 0.1683
vn 0.9128 0.3107 0.2650
vn 0.9474 0.2721 -0.1683
vn 0.7255 0.6352 -0.2650
vn 0.9128 -0.3107 0.2650
vn 0.7094 -0.6844 0.1684
vn 0.7255 -0.6352 -0.2650
vn 0.9474 -0.2721 -0.1683
vn 0.7903 0.0000 -0.6127
vn 0.5461 -0.3245 -0.7723
vn 0.3142 0.0000 -0.9494
vn 0.5461 0.3245 -0.7723
vn 0.2381 0.9565 0.1683
vn 0.1874 0.9459 -0.2650
vn -0.2381 0.9565 -0.1683
vn -0.1874 0.9459 0.2650
vn 0.0080 0.6352 -0.7723
vn -0.1571 0.2721 -0.9494
vn -0.5541 0.3107 -0.7723
vn -0.3952 0.6844 -0.6127
vn -0.7094 0.6844 -0.1683
vn -0.9128 0.3107 -0.2650
vn -0.9474 0.2721 0.1683
vn -0.7255 0.6352 0.2650
vn -0.7255 -0.6352 0.2650
vn -0.9474 -0.2721 0.1683
vn -0.9128 -0.3107 -0.2650
vn -0.7094 -0.6845 -0.1683
vn -0.5541 -0.3107 -0.7723
vn -0.1571 -0.2721 -0.9494
vn 0.0080 -0.6352 -0.7723
vn -0.3952 -0.6845 -0.6127
vn -0.2381 -0.9565 -0.1683
vn 0.1873 -0.9459 -0.2650
vn 0.2381 -0.9565 0.1683
vn -0.1874 -0.9459 0.2650
vn -0.4987 -0.8637 -0.0733
vn -0.4699 -0.8138 0.3420
vn -0.3178 0.5505 0.7720
vn -0.1317 0.2280 0.9647
vn -0.3178 -0.5505 0.7720
vn -0.1317 -0.2280 0.9647
vn 0.7877 0.2633 0.5570
vn 0.6303 0.6357 0.4457
vn 0.9397 0.0000 0.3420
vn 0.9973 -0.0000 -0.0733
vn 0.6219 -0.5505 -0.5570
vn 0.8657 -0.2280 -0.4457
vn 0.4699 0.8138 -0.3420
vn 0.4987 0.8637 0.0733
vn 0.1658 0.8138 -0.5570
vn -0.2353 0.8637 -0.4457
vn -0.7877 0.2633 -0.5570
vn -0.6303 0.6357 -0.4457
vn -0.9397 0.0000 -0.3420
vn -0.9973 -0.0000 0.0733
vn -0.7877 -0.2633 -0.5570
vn -0.6303 -0.6357 -0.4457
vn 0.2633 0.0000 0.9647
vn 0.6357 -0.0000 0.7720
vn 0.1316 0.2280 -0.9647
vn 0.3178 0.5505 -0.7720
vn 0.4987 -0.8637 0.0733
vn 0.4699 -0.8138 -0.3420
vn -0.4987 0.8637 -0.0733
vn -0.4699 0.8138 0.3420
vn 0.3178 -0.5505 -0.7720
vn 0.1316 -0.2280 -0.9647
vn 0.2354 0.8637 0.4457
vn -0.1658 0.8138 0.5570
vn 0.6303 -0.6357 0.4457
vn 0.7877 -0.2633 0.5570
vn -0.1658 -0.8138 0.5570
vn 0.2354 -0.8637 0.4457
vn 0.1658 -0.8138 -0.5570
vn -0.2353 -0.8637 -0.4457
vn -0.6219 0.5505 0.5570
vn -0.8657 0.2280 0.4457
vn 0.8657 0.2280 -0.4457
vn 0.6219 0.5505 -0.5570
vn -0.8657 -0.2280 0.4457
vn -0.6219 -0.5505 0.5570
vn -0.2633 0.0000 -0.9647
vn -0.6357 -0.0000 -0.7720
vn -0.4082 0.7071 0.5774
usemtl dtmo_base_mat
s off
f 4//1 28//1 55//1
f 64//2 56//2 31//2 49//2
f 91//3 84//3 74//3 66//3
f 82//4 103//4 19//4 12//4
f 101//5 93//5 47//5 39//5
f 13//6 22//6 2//6
f 94//7 100//7 85//7
f 48//8 92//8 65//8
f 11//9 75//9 83//9
f 37//10 29//10 3//10 21//10
f 20//11 102//11 38//11
f 40//12 46//12 30//12
f 67//13 73//13 57//13
f 1//14 5//14 6//14 9//14
f 2//15 7//15 6//15 5//15
f 3//16 8//16 6//16 7//16
f 4//17 9//17 6//17 8//17
f 10//18 14//18 15//18 18//18
f 11//19 16//19 15//19 14//19
f 12//20 17//20 15//20 16//20
f 13//21 18//21 15//21 17//21
f 19//22 23//22 24//22 27//22
f 20//23 25//23 24//23 23//23
f 21//24 26//24 24//24 25//24
f 22//25 27//25 24//25 26//25
f 28//26 32//26 33//26 36//26
f 29//27 34//27 33//27 32//27
f 30//28 35//28 33//28 34//28
f 31//29 36//29 33//29 35//29
f 37//30 41//30 42//30 45//30
f 38//31 43//31 42//31 41//31
f 39//32 44//32 42//32 43//32
f 40//33 45//33 42//33 44//33
f 46//34 50//34 51//34 54//34
f 47//35 52//35 51//35 50//35
f 48//36 53//36 51//36 52//36
f 49//37 54//37 51//37 53//37
f 55//38 59//38 60//38 63//38
f 56//39 61//39 60//39 59//39
f 57//40 62//40 60//40 61//40
f 58//41 63//41 60//41 62//41
f 64//42 68//42 69//42 72//42
f 65//43 70//43 69//43 68//43
f 66//44 71//44 69//44 70//44
f 67//45 72//45 69//45 71//45
f 73//46 77//46 78//46 81//46
f 74//47 79//47 78//47 77//47
f 75//48 80//48 78//48 79//48
f 76//49 81//49 78//49 80//49
f 82//50 86//50 87//50 90//50
f 83//51 88//51 87//51 86//51
f 84//52 89//52 87//52 88//52
f 85//53 90//53 87//53 89//53
f 91//54 95//54 96//54 99//54
f 92//55 97//55 96//55 95//55
f 93//56 98//56 96//56 97//56
f 94//57 99//57 96//57 98//57
f 100//58 104//58 105//58 108//58
f 101//59 106//59 105//59 104//59
f 102//60 107//60 105//60 106//60
f 103//61 108//61 105//61 107//61
f 85//62 100//62 108//62 90//62
f 90//63 108//63 103//63 82//63
f 1//64 10//64 18//64 5//64
f 5//65 18//65 13//65 2//65
f 12//66 19//66 27//66 17//66
f 17//67 27//67 22//67 13//67
f 3//68 29//68 32//68 8//68
f 8//69 32//69 28//69 4//69
f 29//70 37//70 45//70 34//70
f 34//71 45//71 40//71 30//71
f 39//72 47//72 50//72 44//72
f 44//73 50//73 46//73 40//73
f 31//74 56//74 59//74 36//74
f 36//75 59//75 55//75 28//75
f 56//76 64//76 72//76 61//76
f 61//77 72//77 67//77 57//77
f 66//78 74//78 77//78 71//78
f 71//79 77//79 73//79 67//79
f 74//80 84//80 88//80 79//80
f 79//81 88//81 83//81 75//81
f 84//82 91//82 99//82 89//82
f 89//83 99//83 94//83 85//83
f 2//84 22//84 26//84 7//84
f 7//85 26//85 21//85 3//85
f 48//86 65//86 68//86 53//86
f 53//87 68//87 64//87 49//87
f 38//88 102//88 106//88 43//88
f 43//89 106//89 101//89 39//89
f 57//90 73//90 81//90 62//90
f 62//91 81//91 76//91 58//91
f 47//92 93//92 97//92 52//92
f 52//93 97//93 92//93 48//93
f 4//94 55//94 63//94 9//94
f 9//95 63//95 58//95 1//95
f 20//96 38//96 41//96 25//96
f 25//97 41//97 37//97 21//97
f 19//98 103//98 107//98 23//98
f 23//99 107//99 102//99 20//99
f 93//100 101//100 104//100 98//100
f 98//101 104//101 100//101 94//101
f 10//102 76//102 80//102 14//102
f 14//103 80//103 75//103 11//103
f 30//104 46//104 54//104 35//104
f 35//105 54//105 49//105 31//105
f 11//106 83//106 86//106 16//106
f 16//107 86//107 82//107 12//107
f 65//108 92//108 95//108 70//108
f 70//109 95//109 91//109 66//109
f 58//110 76//110 10//110 1//110
