# Blender v2.90.0 OBJ File: ''
# www.blender.org
mtllib Dag.mtl
o Dag
v -0.141793 -0.032518 -0.159816
v -0.142800 -0.008686 -0.153740
v -0.113858 -0.028630 -0.159363
v -0.130938 0.001461 -0.149886
v -0.136589 -0.046684 -0.124621
v -0.113508 -0.055750 -0.111366
v -0.151269 -0.028095 -0.141529
v -0.133595 -0.041301 -0.076730
v -0.122342 -0.059326 -0.084877
v -0.122296 -0.024852 -0.066665
v 0.469214 0.066836 0.096091
v 0.442666 0.064414 0.091516
v 0.451723 0.090114 0.106151
v 0.458558 0.046574 0.115563
v 0.429484 0.063350 -0.051858
v 0.480518 0.087862 -0.045622
v 0.480922 0.058550 -0.043547
v 0.471075 0.081002 0.121989
v 0.440393 0.066476 0.155469
v 0.454284 0.052741 0.140376
v 0.451566 0.085132 -0.032416
v 0.429299 0.042728 -0.059056
v 0.153649 -0.048212 -0.141835
v 0.181579 -0.058516 -0.114556
v 0.153068 -0.076484 -0.106560
v 0.148300 -0.048703 -0.084539
v 0.175467 -0.033997 -0.117415
v 0.144300 -0.032120 -0.118684
v 0.444585 0.026892 -0.104096
v 0.426495 0.021033 -0.033760
v 0.417757 0.005569 -0.062369
v -0.403888 0.071793 0.173509
v -0.327053 0.027151 0.175169
v -0.391242 0.056091 0.154520
v 0.201487 -0.014723 -0.077413
v 0.198667 -0.036909 -0.091014
v 0.177230 -0.022848 0.004845
v 0.181587 -0.045696 -0.046822
v 0.195712 -0.029942 0.087336
v 0.172993 -0.041381 0.004922
v 0.125889 -0.058609 -0.050884
v 0.130733 -0.081486 -0.064943
v -0.233428 -0.003380 0.002178
v -0.228811 0.018178 0.022441
v -0.223322 -0.000793 0.024316
v -0.386585 0.082088 -0.194316
v -0.381962 0.053174 -0.190975
v -0.405591 0.059487 -0.214164
v -0.398083 0.035103 -0.172067
v 0.199652 -0.058587 -0.050473
v 0.236303 -0.047130 -0.117232
v -0.279171 -0.042423 0.135446
v -0.241959 -0.041373 0.095355
v -0.205725 -0.065710 0.065536
v -0.122891 -0.056346 0.001420
v -0.103871 -0.033720 0.020463
v -0.106734 -0.014971 -0.114408
v -0.106823 -0.071279 -0.022584
v -0.092979 -0.038119 0.052842
v -0.087000 -0.048829 0.121142
v -0.066506 -0.049947 0.097818
v -0.037951 -0.078634 0.009693
v -0.089882 -0.073973 0.007011
v -0.076878 -0.053242 -0.004711
v -0.099618 -0.072975 0.112125
v -0.078720 -0.085885 0.130075
v -0.069523 -0.062574 0.150415
v -0.083345 -0.074836 0.026236
v -0.105960 -0.077373 0.057708
v -0.071300 -0.083403 0.094259
v -0.070995 -0.054422 0.042820
v 0.071471 -0.054723 0.020773
v 0.054874 -0.057560 0.051961
v 0.100988 -0.061273 0.002241
v 0.077769 -0.098021 0.037910
v 0.059268 -0.098889 0.083289
v 0.057582 -0.096655 0.037663
v 0.070441 -0.064181 0.074325
v 0.058222 -0.088742 0.014680
v -0.199943 -0.052652 0.018613
v -0.182578 -0.067490 0.037723
v -0.180358 -0.044274 -0.110760
v -0.160873 -0.057621 -0.041623
v -0.203623 -0.034207 -0.132059
v -0.187520 -0.017134 -0.151604
v -0.201752 -0.006450 -0.103039
v -0.179951 -0.013516 -0.057254
v -0.194890 0.008881 -0.129359
v -0.197052 -0.036347 0.007105
v -0.192829 -0.025609 0.051135
v -0.177829 -0.029537 0.056342
v -0.167284 -0.006926 -0.101344
v -0.197871 -0.034403 -0.087707
v -0.164891 -0.054907 0.036132
v -0.313712 0.062462 -0.168885
v -0.371707 0.067122 -0.150943
v -0.312663 0.043566 -0.150917
v -0.307026 0.024611 -0.193975
v -0.326254 0.022530 -0.168666
v -0.354898 0.060717 0.027663
v -0.322232 0.045579 0.005459
v -0.371469 0.036958 0.009243
v -0.410730 0.098552 -0.177642
v -0.328105 0.059150 -0.191563
v -0.317846 -0.001786 0.192486
v -0.330029 0.021810 0.191853
v -0.351874 0.012051 0.199325
v -0.364150 -0.001799 0.181529
v -0.303935 -0.032664 0.163291
v -0.349860 -0.002712 0.160262
v -0.312414 -0.020607 0.148674
v -0.346868 0.048225 0.045727
v -0.310566 0.042377 0.022554
v -0.307051 0.016798 -0.010964
v -0.298552 -0.024690 0.181219
v -0.334904 0.015301 0.033957
v -0.336112 0.007573 0.009261
v -0.091782 -0.052675 -0.077194
v -0.084763 -0.039020 -0.003840
v -0.110122 -0.053815 0.071757
v -0.090622 -0.040595 -0.087685
v 0.010081 -0.068075 0.009389
v -0.049330 -0.090713 0.133380
v -0.026311 -0.068336 0.126826
v -0.018582 -0.086902 0.134782
v 0.005370 -0.046432 0.021257
v -0.059913 -0.051883 0.041431
v -0.055109 -0.066173 0.103839
v -0.047238 -0.046987 0.141647
v -0.038053 -0.082096 0.165702
v -0.018890 -0.059507 0.168494
v 0.278037 0.008968 0.189208
v 0.231128 -0.014870 0.153565
v 0.240980 -0.034924 0.147413
v 0.235165 -0.010105 -0.091641
v 0.254244 -0.034017 -0.095078
v 0.252212 -0.012312 -0.098851
v 0.243414 -0.009008 -0.136172
v 0.276174 0.000834 -0.125907
v 0.223714 -0.002671 0.101331
v 0.243253 0.010081 0.153391
v 0.239697 -0.017438 0.088428
v 0.220598 -0.005405 0.126959
v 0.287085 -0.016774 0.163536
v 0.236617 -0.043350 0.100720
v 0.216518 -0.016136 0.049240
v 0.294606 -0.030656 -0.156832
v 0.234513 -0.031825 -0.133059
v 0.265987 0.008452 0.136208
v 0.289909 -0.011701 0.184346
v -0.156796 -0.035248 0.015405
v -0.149931 -0.031660 -0.067038
v -0.255878 -0.012381 0.160059
v -0.253670 -0.028501 0.162615
v -0.199772 -0.043573 0.112391
v -0.258170 -0.043217 0.158797
v -0.282538 0.027016 -0.004930
v -0.197748 -0.066340 0.090225
v -0.243336 0.004766 0.042090
v -0.199148 0.010485 -0.153946
v -0.252115 0.034219 -0.181340
v -0.242598 -0.015813 0.116062
v -0.253198 0.018088 -0.144698
v -0.243976 -0.015813 0.037219
v -0.226632 -0.005813 -0.128889
v -0.232798 -0.019581 -0.155966
v -0.409263 0.037657 -0.014539
v -0.400244 0.055193 -0.029267
v -0.400910 0.045076 -0.083169
v -0.357675 0.042263 -0.055704
v -0.379365 0.059496 0.018483
v -0.414351 0.065636 -0.159338
v -0.451585 0.073895 -0.198900
v -0.416370 0.043766 -0.182591
v -0.441828 0.094079 -0.183889
v 0.196761 -0.012385 0.065335
v 0.108499 -0.068679 -0.101529
v 0.097456 -0.092530 -0.051473
v 0.077672 -0.072021 -0.043782
v 0.391704 0.010966 -0.066043
v 0.361610 0.024371 -0.037483
v 0.398438 0.031612 -0.086019
v 0.521954 0.100000 -0.035019
v 0.499831 0.078966 -0.001468
v 0.471293 0.051793 -0.017080
v 0.518740 0.079364 -0.016282
v 0.493609 0.102881 0.000731
v 0.514765 0.130640 -0.008475
v 0.513840 0.121265 -0.027284
v 0.449765 0.058330 -0.011156
v 0.339852 0.027697 0.191422
v 0.284610 0.027357 0.173222
v 0.377787 0.048568 0.184209
v 0.349993 0.017621 -0.137784
v 0.351031 -0.002547 -0.132799
v 0.298710 -0.012660 -0.168397
v 0.391763 0.005074 -0.169630
v 0.398742 0.028340 0.172220
v 0.388554 -0.006897 -0.157146
v 0.304367 -0.033609 -0.138135
v 0.401598 -0.001200 -0.142575
v 0.385275 0.035406 -0.149009
v 0.297873 0.021543 0.155471
v 0.376817 0.061947 0.153117
v -0.429292 0.031224 0.075719
v -0.448295 0.056481 0.086196
v 0.128632 -0.074284 -0.114621
v -0.412376 0.075756 0.118642
v -0.417406 0.046092 0.137441
v -0.357963 0.049064 -0.095449
v -0.371179 0.020849 -0.072508
v -0.367731 0.045211 -0.153438
v 0.548091 0.126178 -0.018040
v 0.541914 0.131836 0.005360
v 0.551295 0.105521 -0.002368
v -0.239318 0.000895 -0.185823
v 0.086795 -0.058938 -0.058827
v 0.058742 -0.071117 0.007948
v 0.368201 0.001902 -0.043327
v 0.385440 -0.000905 -0.021375
v -0.396695 0.023521 0.002342
v 0.100046 -0.050943 -0.039805
v -0.418794 0.059289 0.186172
v -0.429082 0.038131 0.165815
v -0.399737 0.032758 0.192926
v -0.438330 0.067755 0.073796
v -0.432414 0.042906 0.118740
v -0.389534 0.049784 0.082977
v -0.435428 0.069418 -0.222001
v -0.416361 0.088223 -0.219967
v -0.429215 0.103524 -0.207383
v -0.435858 0.083927 0.149383
v -0.413785 0.080973 0.083175
v 0.398690 0.009036 -0.120685
v 0.408620 0.012983 -0.098625
v 0.428102 0.010528 -0.128992
v 0.402447 0.066147 0.167977
v 0.422168 0.080617 0.137355
v 0.416935 0.048661 -0.128542
v 0.401394 0.031883 -0.161674
v 0.407553 0.047987 -0.060941
v 0.383295 0.044159 -0.033020
v 0.442297 0.070832 -0.015598
v 0.393714 0.028631 -0.015815
v 0.406675 0.063022 0.128655
v 0.091369 -0.079630 0.040603
v 0.402515 0.026634 0.153938
v 0.421984 0.044334 0.125976
v 0.024699 -0.086686 0.083653
v 0.033426 -0.078506 0.054565
v 0.036181 -0.060028 0.050987
v 0.014661 -0.064940 0.099235
v 0.008377 -0.049968 0.137898
v 0.048392 -0.073639 0.121293
v 0.008447 -0.083878 0.154725
v 0.535295 0.112148 0.013971
v -0.290570 0.002692 0.147657
v -0.305193 0.026666 0.032939
v -0.341298 0.024798 0.158408
v 0.208316 -0.053299 0.064945
v 0.217069 -0.043119 0.107412
v 0.186387 -0.052775 0.036171
v 0.225785 -0.039488 0.055925
v 0.214241 -0.022011 -0.030628
v 0.217397 -0.038708 -0.004916
v 0.223317 -0.050906 -0.061449
v -0.239893 -0.021376 0.018554
v 0.385499 0.027120 -0.124685
v 0.258244 -0.044033 -0.112520
v 0.290032 -0.021423 -0.117656
v -0.452899 0.061145 0.136603
v 0.279923 -0.007621 0.142391
v 0.304635 0.006336 -0.161402
v -0.404526 0.039486 -0.131103
v -0.383130 0.025841 -0.119720
v 0.106148 -0.087809 -0.010992
v -0.381655 0.041827 -0.173223
v -0.393759 0.035946 0.153544
v -0.390977 0.066072 0.006984
v -0.378409 0.027415 0.052471
v -0.391486 0.062092 -0.092574
v -0.395305 0.077085 -0.153128
v -0.386900 0.028249 0.027242
v -0.402458 0.071015 0.051276
v 0.319111 0.012510 0.151151
v 0.389146 0.040713 0.136442
v 0.437223 0.044073 -0.111578
vn -0.4308 -0.4161 -0.8008
vn -0.6577 0.6066 -0.4466
vn 0.5880 -0.1513 -0.7946
vn -0.0450 0.9425 -0.3312
vn -0.5534 -0.8222 -0.1331
vn 0.2376 -0.9109 -0.3374
vn -0.9989 -0.0452 -0.0087
vn -0.9840 -0.0426 0.1731
vn -0.5038 -0.8613 -0.0654
vn -0.4882 0.8367 0.2483
vn 0.7303 -0.0984 -0.6760
vn -0.3079 -0.1128 -0.9447
vn -0.0261 0.9241 -0.3812
vn 0.5361 -0.8222 -0.1913
vn -0.1889 0.6422 -0.7429
vn -0.0411 0.3648 -0.9302
vn 0.4850 -0.5680 -0.6650
vn 0.8358 0.4808 0.2650
vn 0.4708 0.3532 0.8085
vn 0.7254 -0.4533 0.5179
vn -0.4908 0.8635 -0.1164
vn 0.7603 0.3638 -0.5381
vn 0.0008 0.0593 -0.9982
vn 0.9309 -0.3652 -0.0040
vn 0.4493 -0.8929 -0.0289
vn 0.6547 0.4194 0.6289
vn 0.6889 0.7229 -0.0530
vn -0.3033 0.9221 -0.2403
vn 0.9825 -0.1544 -0.1044
vn 0.5717 -0.7343 0.3660
vn 0.3560 -0.9345 0.0041
vn 0.3074 0.8678 0.3903
vn 0.4748 0.8801 -0.0001
vn 0.6340 0.4430 -0.6339
vn -0.5977 0.7830 -0.1723
vn -0.8335 -0.2136 -0.5096
vn -0.8082 0.5889 -0.0007
vn -0.9232 -0.2856 -0.2571
vn -0.9145 -0.1374 0.3806
vn -0.9565 -0.2914 0.0169
vn 0.7631 0.3843 0.5197
vn 0.6867 -0.6921 0.2225
vn 0.5558 -0.1918 -0.8089
vn 0.7170 0.6945 0.0596
vn 0.9729 -0.1358 0.1872
vn 0.5062 0.5782 -0.6399
vn 0.1939 -0.5411 -0.8183
vn 0.3256 -0.4910 -0.8080
vn -0.0490 -0.9625 -0.2668
vn -0.1477 -0.9846 -0.0935
vn -0.1225 -0.9419 -0.3129
vn -0.5222 -0.7211 -0.4553
vn -0.7538 0.1181 -0.6464
vn -0.4000 -0.9043 -0.1492
vn -0.9855 -0.1238 0.1159
vn -0.3207 0.9333 0.1619
vn 0.6707 0.7416 -0.0120
vn -0.2748 -0.9566 -0.0966
vn 0.0552 0.9941 0.0936
vn -0.5261 0.7602 0.3812
vn 0.6544 0.7225 -0.2232
vn -0.0375 -0.7868 -0.6160
vn 0.1235 -0.9597 -0.2523
vn 0.6229 -0.1264 -0.7720
vn -0.8555 -0.3934 0.3367
vn -0.5273 -0.7813 0.3340
vn -0.5763 0.2381 0.7818
vn 0.0794 -0.9942 0.0723
vn -0.6119 -0.7894 0.0490
vn 0.3743 -0.8790 -0.2954
vn 0.6343 0.3845 0.6707
vn 0.0871 0.9960 -0.0217
vn 0.0348 0.9834 0.1782
vn 0.7481 0.5790 0.3243
vn 0.3572 -0.9305 0.0808
vn 0.3643 -0.8910 0.2710
vn -0.1706 -0.9767 -0.1302
vn 0.6696 0.6658 0.3292
vn -0.3328 -0.8066 -0.4885
vn -0.9053 -0.3795 -0.1908
vn 0.1128 -0.9927 -0.0416
vn 0.2352 -0.9084 -0.3457
vn 0.5349 -0.8386 -0.1032
vn -0.3210 -0.9137 -0.2493
vn 0.6774 -0.2638 -0.6867
vn -0.6306 0.5875 0.5071
vn -0.2934 0.9326 0.2101
vn 0.3387 0.9331 0.1210
vn -0.9353 0.3539 -0.0033
vn -0.2383 0.9631 -0.1252
vn 0.6433 0.7088 0.2894
vn 0.7523 0.6475 -0.1221
vn -0.9028 -0.3989 0.1606
vn 0.8611 -0.4373 0.2593
vn 0.3467 0.9156 0.2035
vn 0.4701 0.7146 0.5181
vn 0.0329 0.1165 0.9926
vn -0.1032 -0.4891 -0.8661
vn -0.3198 -0.9152 0.2452
vn 0.2777 0.9389 -0.2031
vn 0.1081 0.8079 -0.5793
vn 0.5279 -0.4452 -0.7232
vn 0.0791 0.9160 0.3934
vn 0.2234 0.5442 -0.8086
vn 0.1916 -0.1744 0.9659
vn 0.3959 0.5495 0.7358
vn -0.0567 -0.1943 0.9793
vn -0.4430 -0.8677 0.2253
vn -0.4451 -0.8826 0.1511
vn -0.3787 -0.6102 -0.6958
vn -0.5111 -0.3609 -0.7801
vn 0.5214 0.3722 0.7679
vn 0.3054 0.8325 0.4623
vn -0.1216 -0.1789 -0.9763
vn 0.0342 -0.5723 0.8193
vn 0.0643 -0.6530 0.7546
vn -0.3444 -0.8856 -0.3115
vn 0.8103 -0.5466 -0.2113
vn 0.4567 0.8599 -0.2280
vn -0.9131 0.3410 0.2237
vn 0.9768 0.0460 -0.2091
vn 0.0665 0.1356 -0.9885
vn 0.1176 -0.9801 -0.1598
vn -0.0385 0.1925 -0.9805
vn -0.1952 -0.9370 -0.2899
vn 0.1178 0.9421 -0.3139
vn 0.0302 0.6771 0.7353
vn 0.7289 0.0241 -0.6842
vn 0.0102 0.9933 0.1151
vn -0.1856 -0.5533 0.8120
vn 0.1345 0.4331 0.8913
vn -0.3809 0.1729 0.9083
vn -0.7312 -0.0893 0.6763
vn -0.2062 -0.8384 0.5046
vn 0.2265 0.9203 0.3191
vn 0.6627 -0.3792 0.6458
vn 0.4237 0.4394 0.7921
vn -0.5458 0.6336 -0.5483
vn -0.0338 0.8951 0.4446
vn 0.0245 0.9835 -0.1794
vn -0.5654 0.7979 0.2088
vn 0.6184 0.6303 -0.4694
vn -0.7834 0.5618 0.2657
vn 0.4462 -0.8897 -0.0970
vn 0.3933 -0.9193 -0.0142
vn 0.3665 0.9044 -0.2187
vn -0.0233 -0.7811 -0.6239
vn -0.5821 -0.2893 -0.7599
vn 0.2013 0.7617 -0.6158
vn 0.0643 -0.7048 0.7065
vn 0.9188 0.3547 0.1733
vn 0.9896 0.0142 -0.1429
vn 0.5665 0.6156 0.5478
vn 0.5393 -0.0644 0.8397
vn 0.7825 -0.0074 0.6226
vn 0.1841 -0.7755 0.6040
vn 0.2692 0.5733 -0.7739
vn 0.3754 -0.8616 0.3416
vn 0.2397 0.1598 0.9576
vn 0.6500 0.6694 -0.3596
vn 0.4214 0.6702 -0.6109
vn -0.2143 0.8807 -0.4224
vn -0.1429 0.2181 0.9654
vn 0.1318 -0.6772 0.7239
vn -0.6928 -0.0660 0.7181
vn -0.3713 -0.9240 -0.0913
vn -0.9011 -0.3451 -0.2624
vn -0.8139 0.5703 -0.1109
vn -0.9692 0.2405 0.0524
vn 0.9957 -0.0130 0.0922
vn 0.4693 0.8463 -0.2520
vn -0.8239 0.1629 0.5428
vn -0.9837 -0.1723 -0.0515
vn -0.5519 -0.8301 -0.0798
vn -0.7011 0.5468 0.4577
vn -0.5709 0.8187 0.0621
vn -0.7745 -0.1549 -0.6133
vn -0.2426 -0.9361 -0.2545
vn -0.8945 -0.1671 -0.4147
vn -0.5070 -0.6714 -0.5406
vn -0.9712 0.2141 0.1049
vn -0.9938 0.0671 -0.0881
vn 0.4904 -0.0981 -0.8659
vn 0.1382 -0.5207 0.8425
vn 0.3713 -0.7913 0.4859
vn 0.6200 -0.7846 -0.0060
vn -0.5032 0.4314 0.7488
vn -0.4480 0.8868 0.1139
vn -0.2239 0.7418 -0.6321
vn -0.1236 -0.1481 0.9812
vn 0.0292 0.1143 0.9930
vn -0.3700 0.9088 0.1929
vn 0.0962 0.4430 0.8913
vn -0.1071 0.4324 0.8953
vn 0.0596 -0.1785 0.9821
vn -0.2104 -0.0747 -0.9748
vn 0.3636 -0.2408 -0.8999
vn 0.4829 -0.5735 0.6618
vn 0.3812 -0.8622 -0.3335
vn 0.2988 -0.9296 0.2158
vn 0.2839 -0.9376 0.2008
vn -0.3229 0.9271 -0.1901
vn -0.1676 0.6311 -0.7574
vn -0.4469 0.8611 -0.2425
vn -0.4697 -0.8817 0.0436
vn -0.9891 -0.0561 -0.1360
vn -0.2778 -0.7395 -0.6132
vn 0.7484 0.6491 0.1360
vn 0.4595 -0.8199 -0.3414
vn 0.9889 0.1441 -0.0355
vn 0.4138 -0.9094 -0.0422
vn 0.4580 -0.7894 0.4088
vn 0.7049 0.4996 -0.5035
vn 0.3609 0.7637 0.5353
vn 0.9003 -0.3997 0.1721
vn 0.1848 -0.3638 -0.9130
vn -0.7689 0.5526 -0.3216
vn -0.5739 0.2971 -0.7631
vn -0.7130 -0.6703 -0.2059
vn -0.1313 -0.7341 0.6662
vn -0.1301 -0.9913 -0.0215
vn -0.0332 0.9946 0.0980
vn -0.4267 0.3016 0.8526
vn -0.7026 -0.6662 0.2502
vn -0.3898 -0.2859 0.8754
vn -0.6675 0.6789 -0.3058
vn -0.2940 -0.9530 0.0728
vn 0.7563 -0.2724 0.5948
vn -0.4634 -0.2925 -0.8365
vn 0.2708 0.4269 -0.8628
vn -0.2182 0.8931 -0.3934
vn -0.3989 0.8741 0.2772
vn 0.0027 0.9928 -0.1197
vn -0.4329 -0.7248 0.5360
vn -0.4774 -0.8773 0.0500
vn 0.7665 -0.5058 -0.3958
vn 0.0485 0.6757 0.7356
vn -0.2469 0.9683 0.0376
vn 0.1726 0.9313 -0.3206
vn 0.3556 0.5011 -0.7889
vn -0.3228 0.8939 -0.3110
vn -0.6037 0.7571 0.2496
vn -0.4742 0.4870 0.7335
vn -0.1872 0.0737 0.9796
vn -0.5652 0.3228 -0.7592
vn 0.9122 -0.1419 0.3844
vn 0.2881 -0.9359 -0.2027
vn -0.2892 -0.6547 -0.6984
vn -0.6742 -0.6288 -0.3875
vn -0.8317 -0.3809 0.4039
vn -0.0789 0.2003 0.9765
vn -0.6189 0.5575 -0.5533
vn 0.2331 0.9540 0.1883
vn 0.7724 0.0831 0.6297
vn 0.4147 -0.5387 0.7334
vn 0.1735 -0.0410 0.9840
vn 0.0774 0.7597 -0.6457
vn -0.0375 0.4325 0.9009
vn 0.2220 0.4382 -0.8710
vn -0.0290 -0.9841 0.1754
vn -0.4207 -0.8231 0.3815
vn -0.6084 -0.7672 0.2033
vn 0.7856 -0.5988 -0.1559
vn 0.7691 0.6296 0.1097
vn 0.9801 -0.1870 -0.0658
vn 0.6256 -0.7379 0.2530
vn 0.2802 -0.9446 -0.1707
vn -0.7304 0.3744 0.5713
vn 0.3691 -0.9225 -0.1124
vn 0.4234 -0.1895 0.8859
vn -0.9910 -0.0401 0.1278
vn 0.7115 -0.1446 -0.6876
vn -0.2917 0.7130 -0.6375
vn -0.8084 -0.5860 0.0562
vn 0.0222 -0.9866 -0.1614
vn 0.7773 -0.5812 0.2409
vn 0.1064 -0.9351 -0.3381
vn 0.3168 -0.1737 -0.9325
vn 0.1390 0.9847 -0.1050
vn 0.1581 -0.8863 0.4353
vn -0.4750 0.8710 0.1253
vn -0.1008 0.8609 0.4987
vn -0.0456 -0.9985 -0.0309
vn -0.0473 0.9715 -0.2324
vn 0.0161 -0.2435 -0.9698
vn -0.2557 -0.2797 -0.9254
vn 0.7116 0.6604 -0.2398
usemtl Dag
s 1
f 1//1 2//2 3//3
f 3//3 2//2 4//4
f 5//5 1//1 6//6
f 7//7 1//1 5//5
f 6//6 1//1 3//3
f 8//8 5//5 9//9
f 4//4 8//8 10//10
f 11//11 12//12 13//13
f 11//11 14//14 12//12
f 15//15 16//16 17//17
f 18//18 19//19 20//20
f 21//21 16//16 15//15
f 15//15 17//17 22//22
f 23//23 24//24 25//25
f 26//26 24//24 27//27
f 24//24 23//23 27//27
f 26//26 27//27 28//28
f 28//28 27//27 23//23
f 29//29 22//22 30//30
f 31//31 29//29 30//30
f 32//32 33//33 34//34
f 35//35 36//36 37//37
f 37//37 36//36 38//38
f 39//39 37//37 40//40
f 26//26 41//41 42//42
f 43//43 44//44 45//45
f 46//46 47//47 48//48
f 48//48 47//47 49//49
f 50//50 36//36 51//51
f 52//52 53//53 54//54
f 25//25 26//26 42//42
f 10//10 55//55 56//56
f 5//5 6//6 9//9
f 4//4 10//10 57//57
f 58//58 9//9 6//6
f 8//8 9//9 55//55
f 59//59 60//60 61//61
f 62//62 63//63 64//64
f 65//65 66//66 67//67
f 63//63 68//68 69//69
f 67//67 60//60 65//65
f 69//69 68//68 70//70
f 71//71 59//59 61//61
f 56//56 59//59 71//71
f 65//65 70//70 66//66
f 69//69 70//70 65//65
f 72//72 73//73 74//74
f 75//75 76//76 77//77
f 74//74 73//73 78//78
f 75//75 77//77 79//79
f 7//7 2//2 1//1
f 80//80 81//81 54//54
f 80//80 82//82 81//81
f 81//81 82//82 83//83
f 84//84 85//85 82//82
f 86//86 87//87 88//88
f 89//89 90//90 87//87
f 87//87 90//90 91//91
f 92//92 88//88 87//87
f 84//84 82//82 93//93
f 94//94 81//81 83//83
f 95//95 96//96 97//97
f 47//47 98//98 99//99
f 100//100 101//101 102//102
f 103//103 95//95 104//104
f 105//105 106//106 107//107
f 105//105 107//107 108//108
f 109//109 110//110 111//111
f 98//98 47//47 104//104
f 100//100 112//112 113//113
f 102//102 101//101 114//114
f 115//115 108//108 110//110
f 105//105 108//108 115//115
f 113//113 112//112 116//116
f 115//115 110//110 109//109
f 102//102 114//114 117//117
f 101//101 100//100 113//113
f 58//58 69//69 55//55
f 63//63 69//69 58//58
f 118//118 6//6 3//3
f 119//119 10//10 56//56
f 55//55 120//120 56//56
f 56//56 120//120 59//59
f 69//69 65//65 120//120
f 58//58 6//6 63//63
f 63//63 6//6 118//118
f 118//118 3//3 121//121
f 59//59 120//120 60//60
f 3//3 4//4 57//57
f 9//9 58//58 55//55
f 62//62 64//64 122//122
f 123//123 124//124 125//125
f 73//73 126//126 127//127
f 124//124 128//128 129//129
f 130//130 123//123 125//125
f 130//130 131//131 67//67
f 67//67 131//131 129//129
f 132//132 133//133 134//134
f 135//135 136//136 137//137
f 138//138 135//135 139//139
f 140//140 141//141 142//142
f 143//143 141//141 140//140
f 144//144 134//134 145//145
f 140//140 142//142 146//146
f 147//147 51//51 148//148
f 142//142 141//141 149//149
f 132//132 134//134 150//150
f 87//87 151//151 92//92
f 91//91 151//151 87//87
f 83//83 151//151 94//94
f 152//152 92//92 151//151
f 153//153 154//154 155//155
f 155//155 154//154 156//156
f 157//157 44//44 43//43
f 155//155 156//156 158//158
f 44//44 159//159 45//45
f 160//160 161//161 95//95
f 53//53 162//162 90//90
f 163//163 160//160 95//95
f 45//45 159//159 164//164
f 160//160 163//163 88//88
f 88//88 163//163 165//165
f 84//84 165//165 166//166
f 167//167 168//168 169//169
f 170//170 171//171 102//102
f 65//65 60//60 120//120
f 66//66 130//130 67//67
f 172//172 173//173 174//174
f 175//175 173//173 172//172
f 39//39 176//176 37//37
f 121//121 57//57 119//119
f 141//141 133//133 132//132
f 151//151 91//91 155//155
f 177//177 178//178 179//179
f 180//180 181//181 182//182
f 17//17 16//16 183//183
f 184//184 185//185 186//186
f 186//186 185//185 17//17
f 187//187 188//188 189//189
f 21//21 189//189 16//16
f 187//187 189//189 21//21
f 190//190 184//184 187//187
f 185//185 184//184 190//190
f 30//30 17//17 185//185
f 132//132 191//191 192//192
f 193//193 192//192 191//191
f 194//194 139//139 195//195
f 147//147 196//196 197//197
f 191//191 150//150 198//198
f 147//147 199//199 200//200
f 195//195 200//200 201//201
f 201//201 200//200 199//199
f 199//199 147//147 197//197
f 194//194 202//202 139//139
f 203//203 192//192 204//204
f 144//144 198//198 150//150
f 205//205 206//206 167//167
f 50//50 40//40 38//38
f 207//207 177//177 23//23
f 23//23 177//177 28//28
f 208//208 34//34 209//209
f 210//210 211//211 212//212
f 213//213 214//214 215//215
f 216//216 166//166 99//99
f 216//216 160//160 85//85
f 72//72 217//217 218//218
f 181//181 219//219 220//220
f 93//93 82//82 80//80
f 221//221 167//167 169//169
f 25//25 207//207 23//23
f 222//222 26//26 28//28
f 223//223 224//224 225//225
f 226//226 167//167 206//206
f 209//209 227//227 228//228
f 225//225 224//224 108//108
f 205//205 167//167 221//221
f 48//48 229//229 230//230
f 231//231 175//175 103//103
f 173//173 229//229 174//174
f 174//174 229//229 48//48
f 208//208 232//232 32//32
f 231//231 230//230 229//229
f 32//32 232//232 223//223
f 232//232 233//233 226//226
f 233//233 232//232 208//208
f 227//227 209//209 224//224
f 30//30 220//220 31//31
f 234//234 201//201 235//235
f 235//235 201//201 236//236
f 237//237 193//193 198//198
f 197//197 236//236 199//199
f 199//199 236//236 201//201
f 19//19 237//237 198//198
f 204//204 237//237 238//238
f 239//239 240//240 202//202
f 241//241 239//239 202//202
f 242//242 241//241 182//182
f 235//235 31//31 180//180
f 31//31 235//235 236//236
f 243//243 242//242 190//190
f 239//239 241//241 22//22
f 244//244 220//220 30//30
f 242//242 15//15 241//241
f 204//204 238//238 245//245
f 190//190 242//242 244//244
f 19//19 198//198 20//20
f 141//141 143//143 133//133
f 234//234 235//235 182//182
f 230//230 46//46 48//48
f 78//78 246//246 74//74
f 42//42 41//41 74//74
f 152//152 151//151 83//83
f 88//88 85//85 160//160
f 20//20 14//14 18//18
f 18//18 14//14 11//11
f 71//71 61//61 70//70
f 70//70 61//61 128//128
f 87//87 86//86 93//93
f 89//89 87//87 93//93
f 247//247 248//248 14//14
f 122//122 126//126 218//218
f 218//218 126//126 72//72
f 77//77 249//249 250//250
f 79//79 122//122 218//218
f 73//73 251//251 250//250
f 73//73 250//250 252//252
f 77//77 76//76 249//249
f 73//73 253//253 78//78
f 254//254 255//255 76//76
f 73//73 72//72 126//126
f 253//253 73//73 252//252
f 184//184 186//186 215//215
f 215//215 256//256 184//184
f 256//256 188//188 187//187
f 214//214 188//188 256//256
f 184//184 256//256 187//187
f 110//110 257//257 111//111
f 258//258 116//116 159//159
f 116//116 117//117 159//159
f 101//101 157//157 114//114
f 33//33 257//257 259//259
f 116//116 258//258 113//113
f 259//259 257//257 110//110
f 63//63 62//62 68//68
f 56//56 127//127 126//126
f 61//61 129//129 128//128
f 128//128 124//124 123//123
f 119//119 126//126 64//64
f 56//56 126//126 119//119
f 68//68 250//250 71//71
f 71//71 250//250 127//127
f 39//39 260//260 261//261
f 50//50 260//260 262//262
f 263//263 260//260 50//50
f 37//37 176//176 35//35
f 262//262 260//260 39//39
f 264//264 35//35 176//176
f 265//265 50//50 266//266
f 85//85 84//84 166//166
f 216//216 161//161 160//160
f 88//88 165//165 86//86
f 43//43 45//45 267//267
f 53//53 90//90 80//80
f 89//89 80//80 90//90
f 166//166 216//216 85//85
f 182//182 268//268 234//234
f 202//202 268//268 182//182
f 41//41 222//222 74//74
f 139//139 135//135 137//137
f 45//45 164//164 267//267
f 100//100 208//208 228//228
f 82//82 152//152 83//83
f 182//182 241//241 202//202
f 105//105 115//115 153//153
f 70//70 68//68 71//71
f 146//146 265//265 264//264
f 120//120 55//55 69//69
f 238//238 12//12 245//245
f 210//210 171//171 170//170
f 53//53 52//52 162//162
f 136//136 269//269 270//270
f 103//103 175//175 172//172
f 271//271 226//226 206//206
f 249//249 252//252 250//250
f 264//264 266//266 136//136
f 3//3 57//57 121//121
f 264//264 176//176 146//146
f 141//141 203//203 149//149
f 203//203 272//272 149//149
f 203//203 141//141 192//192
f 138//138 273//273 196//196
f 137//137 270//270 139//139
f 136//136 270//270 137//137
f 274//274 275//275 221//221
f 210//210 170//170 211//211
f 33//33 106//106 153//153
f 145//145 263//263 144//144
f 10//10 8//8 55//55
f 274//274 49//49 275//275
f 39//39 261//261 133//133
f 133//133 261//261 134//134
f 178//178 177//177 207//207
f 217//217 28//28 177//177
f 42//42 207//207 25//25
f 178//178 207//207 42//42
f 222//222 28//28 217//217
f 178//178 42//42 276//276
f 275//275 49//49 277//277
f 107//107 223//223 225//225
f 209//209 278//278 108//108
f 34//34 278//278 209//209
f 226//226 279//279 168//168
f 46//46 231//231 103//103
f 230//230 231//231 46//46
f 209//209 108//108 224//224
f 280//280 228//228 227//227
f 281//281 282//282 172//172
f 174//174 49//49 274//274
f 205//205 221//221 283//283
f 274//274 221//221 169//169
f 48//48 49//49 174//174
f 277//277 49//49 47//47
f 205//205 280//280 227//227
f 172//172 282//282 103//103
f 284//284 279//279 226//226
f 280//280 205//205 283//283
f 100//100 284//284 233//233
f 285//285 286//286 247//247
f 237//237 204//204 193//193
f 234//234 195//195 201//201
f 202//202 240//240 273//273
f 196//196 240//240 197//197
f 268//268 194//194 195//195
f 144//144 247//247 198//198
f 282//282 95//95 103//103
f 271//271 206//206 227//227
f 227//227 206//206 205//205
f 57//57 10//10 119//119
f 54//54 53//53 80//80
f 169//169 168//168 281//281
f 178//178 79//79 179//179
f 167//167 226//226 168//168
f 183//183 186//186 17//17
f 32//32 34//34 208//208
f 151//151 155//155 94//94
f 94//94 155//155 158//158
f 174//174 274//274 172//172
f 22//22 17//17 30//30
f 238//238 18//18 13//13
f 19//19 18//18 238//238
f 244//244 185//185 190//190
f 248//248 12//12 14//14
f 245//245 12//12 248//248
f 238//238 13//13 12//12
f 14//14 20//20 247//247
f 237//237 19//19 238//238
f 244//244 30//30 185//185
f 142//142 149//149 272//272
f 74//74 276//276 42//42
f 29//29 240//240 287//287
f 172//172 274//274 169//169
f 217//217 177//177 179//179
f 261//261 145//145 134//134
f 35//35 135//135 138//138
f 51//51 269//269 136//136
f 51//51 136//136 266//266
f 39//39 40//40 262//262
f 89//89 93//93 80//80
f 26//26 222//222 41//41
f 153//153 155//155 91//91
f 93//93 86//86 165//165
f 85//85 88//88 92//92
f 11//11 13//13 18//18
f 187//187 21//21 243//243
f 187//187 243//243 190//190
f 178//178 276//276 75//75
f 275//275 212//212 211//211
f 221//221 211//211 102//102
f 112//112 228//228 280//280
f 107//107 106//106 223//223
f 223//223 106//106 32//32
f 278//278 34//34 259//259
f 279//279 171//171 281//281
f 110//110 278//278 259//259
f 283//283 102//102 117//117
f 281//281 171//171 96//96
f 96//96 171//171 210//210
f 221//221 102//102 283//283
f 277//277 212//212 275//275
f 102//102 171//171 100//100
f 108//108 107//107 225//225
f 104//104 47//47 46//46
f 100//100 171//171 284//284
f 284//284 171//171 279//279
f 278//278 110//110 108//108
f 112//112 100//100 228//228
f 99//99 212//212 277//277
f 33//33 32//32 106//106
f 280//280 283//283 117//117
f 112//112 280//280 116//116
f 281//281 96//96 282//282
f 150//150 191//191 132//132
f 138//138 202//202 273//273
f 139//139 202//202 138//138
f 270//270 195//195 139//139
f 200//200 195//195 270//270
f 121//121 119//119 118//118
f 118//118 119//119 64//64
f 264//264 136//136 135//135
f 85//85 92//92 152//152
f 123//123 70//70 128//128
f 196//196 148//148 138//138
f 85//85 152//152 82//82
f 286//286 248//248 247//247
f 182//182 235//235 180//180
f 204//204 245//245 286//286
f 231//231 173//173 175//175
f 229//229 173//173 231//231
f 165//165 84//84 93//93
f 133//133 143//143 39//39
f 96//96 210//210 212//212
f 265//265 146//146 142//142
f 117//117 267//267 164//164
f 162//162 153//153 91//91
f 105//105 153//153 106//106
f 8//8 4//4 7//7
f 7//7 4//4 2//2
f 16//16 189//189 183//183
f 40//40 50//50 262//262
f 100//100 233//233 208//208
f 263//263 272//272 144//144
f 142//142 272//272 263//263
f 218//218 217//217 179//179
f 276//276 74//74 246//246
f 142//142 263//263 265//265
f 75//75 79//79 178//178
f 222//222 72//72 74//74
f 246//246 254//254 76//76
f 217//217 72//72 222//222
f 246//246 76//76 75//75
f 246//246 75//75 276//276
f 282//282 96//96 95//95
f 117//117 116//116 280//280
f 33//33 259//259 34//34
f 103//103 104//104 46//46
f 99//99 97//97 212//212
f 212//212 97//97 96//96
f 147//147 200//200 51//51
f 51//51 200//200 270//270
f 141//141 132//132 192//192
f 134//134 144//144 150//150
f 51//51 270//270 269//269
f 232//232 271//271 223//223
f 36//36 50//50 38//38
f 264//264 265//265 266//266
f 176//176 39//39 143//143
f 35//35 138//138 36//36
f 36//36 138//138 148//148
f 170//170 102//102 211//211
f 37//37 38//38 40//40
f 281//281 172//172 169//169
f 186//186 183//183 215//215
f 215//215 183//183 213//213
f 189//189 188//188 213//213
f 213//213 188//188 214//214
f 183//183 189//189 213//213
f 214//214 256//256 215//215
f 286//286 285//285 203//203
f 285//285 247//247 144//144
f 204//204 286//286 203//203
f 192//192 193//193 204//204
f 273//273 240//240 196//196
f 228//228 208//208 209//209
f 52//52 109//109 111//111
f 166//166 165//165 163//163
f 118//118 64//64 63//63
f 123//123 130//130 66//66
f 71//71 127//127 56//56
f 67//67 129//129 60//60
f 60//60 129//129 61//61
f 70//70 123//123 66//66
f 24//24 26//26 25//25
f 158//158 54//54 81//81
f 91//91 90//90 162//162
f 232//232 226//226 271//271
f 224//224 223//223 271//271
f 271//271 227//227 224//224
f 127//127 251//251 73//73
f 253//253 131//131 254//254
f 254//254 131//131 255//255
f 62//62 122//122 79//79
f 251//251 127//127 250//250
f 68//68 62//62 77//77
f 77//77 62//62 79//79
f 76//76 125//125 249//249
f 68//68 77//77 250//250
f 31//31 236//236 29//29
f 15//15 22//22 241//241
f 242//242 243//243 21//21
f 22//22 287//287 239//239
f 21//21 15//15 242//242
f 247//247 20//20 198//198
f 117//117 164//164 159//159
f 257//257 162//162 111//111
f 153//153 115//115 154//154
f 154//154 115//115 156//156
f 113//113 258//258 159//159
f 95//95 97//97 163//163
f 216//216 98//98 161//161
f 117//117 114//114 267//267
f 156//156 109//109 52//52
f 153//153 257//257 33//33
f 113//113 44//44 101//101
f 111//111 162//162 52//52
f 99//99 163//163 97//97
f 104//104 161//161 98//98
f 44//44 113//113 159//159
f 109//109 156//156 115//115
f 254//254 246//246 78//78
f 99//99 277//277 47//47
f 7//7 5//5 8//8
f 254//254 78//78 253//253
f 51//51 266//266 50//50
f 143//143 140//140 176//176
f 140//140 146//146 176//176
f 264//264 135//135 35//35
f 148//148 51//51 36//36
f 263//263 145//145 260//260
f 260//260 145//145 261//261
f 272//272 285//285 144//144
f 203//203 285//285 272//272
f 158//158 81//81 94//94
f 104//104 95//95 161//161
f 226//226 233//233 284//284
f 252//252 249//249 124//124
f 124//124 249//249 125//125
f 130//130 76//76 255//255
f 125//125 76//76 130//130
f 124//124 253//253 252//252
f 198//198 193//193 191//191
f 195//195 234//234 268//268
f 181//181 244//244 242//242
f 180//180 31//31 219//219
f 181//181 242//242 182//182
f 194//194 268//268 202//202
f 219//219 31//31 220//220
f 44//44 157//157 101//101
f 99//99 98//98 216//216
f 267//267 114//114 43//43
f 166//166 163//163 99//99
f 180//180 219//219 181//181
f 79//79 218//218 179//179
f 196//196 147//147 148//148
f 29//29 287//287 22//22
f 168//168 279//279 281//281
f 275//275 211//211 221//221
f 64//64 126//126 122//122
f 255//255 131//131 130//130
f 253//253 124//124 129//129
f 129//129 131//131 253//253
f 43//43 114//114 157//157
f 162//162 257//257 153//153
f 158//158 156//156 52//52
f 158//158 52//52 54//54
f 244//244 181//181 220//220
f 239//239 287//287 240//240
f 240//240 29//29 197//197
f 197//197 29//29 236//236
f 245//245 248//248 286//286
f 50//50 265//265 263//263
