# Blender v3.1.2 OBJ File: ''
# www.blender.org
mtllib Dodecahedron.mtl
o Dodecahedron
v 0.303097 0.310410 0.308480
v 0.308480 0.303097 0.310410
v 0.310410 0.308480 0.303097
v 0.306056 0.307457 0.310364
v 0.308278 0.308278 0.308278
v 0.310364 0.306056 0.307457
v 0.307457 0.310364 0.306056
v 0.303518 0.309673 -0.309673
v 0.311575 0.306596 -0.304693
v 0.306596 0.304693 -0.311575
v 0.308184 0.309166 -0.307577
v 0.308211 0.307993 -0.309133
v 0.310152 0.305999 -0.308254
v 0.305300 0.307577 -0.311262
v 0.309673 -0.309673 0.303518
v 0.306596 -0.304693 0.311575
v 0.304693 -0.311575 0.306596
v 0.309166 -0.307577 0.308184
v 0.307993 -0.309133 0.308211
v 0.305999 -0.308254 0.310152
v 0.307577 -0.311262 0.305300
v 0.308480 -0.303097 -0.310410
v 0.309673 -0.309673 -0.303518
v 0.305357 -0.310410 -0.308480
v 0.310014 -0.306623 -0.307664
v 0.308585 -0.308546 -0.308330
v 0.307919 -0.310683 -0.306235
v 0.307077 -0.307605 -0.310137
v -0.310410 0.308480 0.303097
v -0.309673 0.303518 0.309673
v -0.304693 0.311575 0.306596
v -0.310803 0.306026 0.307193
v -0.308890 0.308604 0.307679
v -0.307577 0.308184 0.309166
v -0.307808 0.310877 0.305245
v -0.308480 0.305357 -0.310410
v -0.311575 0.306596 -0.304693
v -0.303518 0.309673 -0.309673
v -0.310675 0.306223 -0.307939
v -0.308604 0.308142 -0.308890
v -0.308184 0.309166 -0.307577
v -0.306235 0.307919 -0.310683
v -0.310410 -0.308480 0.305357
v -0.303097 -0.310410 0.308480
v -0.309673 -0.303518 0.309673
v -0.307605 -0.310136 0.307077
v -0.308546 -0.308330 0.308585
v -0.306623 -0.307664 0.310014
v -0.310683 -0.306235 0.307919
v -0.311109 -0.307350 -0.303529
v -0.307350 -0.303529 -0.311109
v -0.303529 -0.311109 -0.307350
v -0.310242 -0.305859 -0.307777
v -0.308278 -0.308278 -0.308278
v -0.305859 -0.307777 -0.310242
v -0.307777 -0.310242 -0.305859
v 0.194905 0.495373 0.000699
v 0.186892 0.498433 -0.004253
v 0.186409 0.499160 0.003078
v 0.191532 0.497929 -0.002169
v 0.190152 0.499053 -0.000082
v 0.186628 0.499735 -0.000333
v 0.191393 0.498143 0.002223
v -0.186892 0.498433 -0.004253
v -0.194905 0.495373 0.000699
v -0.188721 0.499132 0.003123
v -0.191532 0.497929 -0.002169
v -0.190663 0.499047 -0.000071
v -0.192062 0.498133 0.002258
v -0.187889 0.499726 -0.000320
v 0.193774 -0.497202 0.000000
v 0.188721 -0.499132 0.003123
v 0.189486 -0.497984 -0.004980
v 0.191648 -0.498814 0.001808
v 0.190987 -0.499290 -0.000394
v 0.189053 -0.499595 -0.000526
v 0.192021 -0.498236 -0.002744
v -0.194466 -0.496082 0.001902
v -0.188023 -0.498001 -0.004952
v -0.186409 -0.499160 0.003078
v -0.191726 -0.498016 -0.002017
v -0.190314 -0.499076 0.000046
v -0.187107 -0.499609 -0.000532
v -0.191350 -0.498224 0.002773
v 0.495373 0.000699 0.194905
v 0.498433 -0.004253 0.186892
v 0.499160 0.003078 0.186409
v 0.497929 -0.002169 0.191532
v 0.499053 -0.000082 0.190152
v 0.499735 -0.000333 0.186628
v 0.498143 0.002223 0.191393
v 0.498433 -0.004253 -0.186892
v 0.495373 -0.000699 -0.194905
v 0.499132 0.003123 -0.188721
v 0.497796 -0.002785 -0.191618
v 0.499040 -0.000383 -0.190667
v 0.498234 0.001693 -0.191995
v 0.499726 -0.000320 -0.187889
v -0.497202 0.000000 0.193774
v -0.499160 0.003078 0.186409
v -0.497984 -0.004980 0.189486
v -0.498870 0.001700 0.190951
v -0.499306 -0.000420 0.190459
v -0.499604 -0.000541 0.187738
v -0.498236 -0.002744 0.192021
v -0.498001 -0.004952 -0.188023
v -0.499132 0.003123 -0.188721
v -0.496082 0.001902 -0.194466
v -0.499600 -0.000518 -0.188418
v -0.499075 0.000047 -0.190832
v -0.498243 0.002757 -0.192000
v -0.498016 -0.002017 -0.191726
v 0.000699 0.194905 0.495373
v -0.004253 0.186892 0.498433
v 0.003078 0.186409 0.499160
v -0.002169 0.191532 0.497929
v -0.000082 0.190152 0.499053
v -0.000333 0.186628 0.499735
v 0.002223 0.191393 0.498143
v 0.003123 -0.188721 0.499132
v -0.004253 -0.186892 0.498433
v -0.000699 -0.194905 0.495373
v -0.000320 -0.187889 0.499726
v -0.000383 -0.190667 0.499040
v -0.002785 -0.191618 0.497796
v 0.001693 -0.191995 0.498234
v 0.000000 0.193774 -0.497202
v 0.003123 0.188721 -0.499132
v -0.004980 0.189486 -0.497984
v 0.001808 0.191648 -0.498814
v -0.000394 0.190987 -0.499290
v -0.000526 0.189053 -0.499595
v -0.002744 0.192021 -0.498236
v 0.001902 -0.194466 -0.496082
v -0.004952 -0.188023 -0.498001
v 0.003078 -0.186409 -0.499160
v -0.002017 -0.191726 -0.498016
v 0.000046 -0.190314 -0.499076
v -0.000532 -0.187107 -0.499609
v 0.002773 -0.191350 -0.498224
vn 0.0000 0.8507 -0.5257
vn -0.8507 0.5257 -0.0000
vn 0.5257 -0.0000 0.8507
vn 0.5257 0.0000 -0.8507
vn -0.0000 0.8507 0.5257
vn 0.0000 -0.8507 0.5257
vn 0.8507 0.5257 -0.0000
vn 0.0000 -0.8507 -0.5257
vn 0.8507 -0.5257 0.0000
vn -0.5257 0.0000 -0.8507
vn -0.5257 0.0000 0.8507
vn -0.8507 -0.5257 0.0000
vn 0.3247 0.7317 0.5993
vn 0.5993 0.3247 0.7317
vn 0.7317 0.5993 0.3247
vn 0.3329 0.7429 -0.5808
vn 0.7421 0.5445 -0.3909
vn 0.5706 0.2895 -0.7685
vn 0.7429 -0.5808 0.3329
vn 0.5445 -0.3909 0.7421
vn 0.2895 -0.7685 0.5706
vn 0.6713 -0.2530 -0.6966
vn 0.7996 -0.5190 -0.3023
vn 0.4150 -0.6686 -0.6170
vn -0.7788 0.5784 0.2428
vn -0.6505 0.3620 0.6677
vn -0.3909 0.7478 0.5366
vn -0.5865 0.3680 -0.7215
vn -0.7177 0.6410 -0.2720
vn -0.3188 0.7934 -0.5186
vn -0.6686 -0.6170 0.4150
vn -0.2530 -0.6966 0.6713
vn -0.5189 -0.3023 0.7996
vn -0.7504 -0.5691 -0.3362
vn -0.5691 -0.3362 -0.7504
vn -0.3362 -0.7504 -0.5691
vn 0.6141 0.7890 -0.0191
vn 0.2233 0.9235 -0.3118
vn 0.2057 0.9555 0.2114
vn -0.2574 0.8954 -0.3634
vn -0.6621 0.7408 -0.1133
vn -0.2754 0.9508 0.1420
vn 0.6034 -0.7957 -0.0516
vn 0.1612 -0.9758 0.1477
vn 0.1831 -0.9281 -0.3241
vn -0.5818 -0.8133 0.0104
vn -0.2227 -0.9271 -0.3014
vn -0.1680 -0.9674 0.1896
vn 0.7890 -0.0191 0.6141
vn 0.9235 -0.3118 0.2233
vn 0.9555 0.2114 0.2057
vn 0.9034 -0.3635 -0.2274
vn 0.7546 -0.1280 -0.6435
vn 0.9506 0.1312 -0.2812
vn -0.8447 0.0081 0.5351
vn -0.9802 0.1659 0.1080
vn -0.9417 -0.3038 0.1446
vn -0.8976 -0.3462 -0.2730
vn -0.9617 0.1427 -0.2338
vn -0.7511 -0.0734 -0.6560
vn -0.0191 0.6141 0.7890
vn -0.3118 0.2233 0.9235
vn 0.2114 0.2056 0.9555
vn 0.1312 -0.2812 0.9506
vn -0.3635 -0.2274 0.9034
vn -0.1280 -0.6435 0.7546
vn -0.0516 0.6034 -0.7958
vn 0.1477 0.1612 -0.9758
vn -0.3241 0.1831 -0.9281
vn 0.0104 -0.5818 -0.8133
vn -0.3014 -0.2227 -0.9271
vn 0.1896 -0.1680 -0.9674
vn -0.1754 0.6850 -0.7071
vn -0.4234 0.2838 -0.8604
vn -0.8559 -0.4073 -0.3185
vn -0.6891 -0.1555 -0.7078
vn 0.6591 0.7258 0.1968
vn 0.2517 0.8633 0.4374
vn -0.0000 0.9495 -0.3137
vn -0.0000 0.9858 0.1682
vn 0.2837 -0.8604 0.4233
vn 0.6850 -0.7071 0.1753
vn -0.5970 -0.7641 0.2443
vn -0.1941 -0.8659 0.4610
vn 0.7258 0.1968 0.6591
vn 0.8633 0.4374 0.2517
vn 0.9495 -0.3137 -0.0000
vn 0.9858 0.1682 -0.0000
vn -0.8659 0.4610 0.1942
vn -0.7642 0.2442 0.5970
vn -0.7071 0.1754 -0.6850
vn -0.8604 0.4233 -0.2838
vn 0.1968 0.6591 0.7258
vn 0.4374 0.2517 0.8633
vn -0.3137 -0.0000 0.9495
vn 0.1682 -0.0000 0.9858
vn 0.4233 0.2837 -0.8604
vn 0.1753 0.6850 -0.7071
vn 0.2443 -0.5970 -0.7641
vn 0.4610 -0.1941 -0.8659
vn -0.4073 -0.3185 -0.8559
vn -0.1555 -0.7078 -0.6891
vn -0.1968 -0.6591 0.7258
vn -0.4374 -0.2517 0.8633
vn 0.0000 -0.9922 0.1248
vn 0.0000 -0.9401 -0.3410
vn 0.2837 0.8604 -0.4234
vn 0.6850 0.7071 -0.1754
vn -0.3185 -0.8559 -0.4073
vn -0.7078 -0.6891 -0.1555
vn -0.9922 0.1247 -0.0000
vn -0.9401 -0.3410 -0.0000
vn 0.8413 0.3689 -0.3952
vn 0.6551 0.1200 -0.7459
vn 0.6850 -0.7071 -0.1754
vn 0.2838 -0.8604 -0.4234
vn 0.8604 -0.4234 0.2837
vn 0.7071 -0.1754 0.6850
vn -0.3568 0.8495 0.3887
vn -0.7285 0.6713 0.1366
vn -0.6850 0.7071 -0.1754
vn -0.2837 0.8604 -0.4234
vn 0.7258 -0.1968 -0.6591
vn 0.8633 -0.4374 -0.2517
vn 0.3689 -0.3952 0.8413
vn 0.1200 -0.7459 0.6551
vn 0.1248 0.0000 -0.9922
vn -0.3410 0.0000 -0.9401
vn -0.4234 0.2837 0.8604
vn -0.1754 0.6850 0.7071
vn -0.7071 -0.1754 0.6850
vn -0.8604 -0.4234 0.2838
usemtl dtmo_base_mat
s off
f 8//1 127//1 38//1
f 65//2 37//2 100//2 29//2
f 2//3 115//3 16//3 85//3
f 22//4 136//4 10//4 93//4
f 1//5 59//5 31//5 113//5
f 44//6 80//6 17//6 122//6
f 80//6 72//6 17//6
f 87//7 94//7 9//7
f 134//8 24//8 73//8
f 86//9 15//9 23//9 92//9
f 108//10 36//10 129//10
f 59//5 66//5 31//5
f 114//11 30//11 45//11 121//11
f 78//12 43//12 101//12
f 15//9 71//9 23//9
f 115//3 120//3 16//3
f 136//4 128//4 10//4
f 58//1 8//1 38//1 64//1
f 52//8 134//8 73//8 79//8
f 37//2 107//2 100//2
f 51//10 108//10 129//10 135//10
f 50//12 78//12 101//12 106//12
f 30//11 99//11 45//11
f 1//13 4//13 5//13 7//13
f 2//14 6//14 5//14 4//14
f 3//15 7//15 5//15 6//15
f 8//16 11//16 12//16 14//16
f 9//17 13//17 12//17 11//17
f 10//18 14//18 12//18 13//18
f 15//19 18//19 19//19 21//19
f 16//20 20//20 19//20 18//20
f 17//21 21//21 19//21 20//21
f 22//22 25//22 26//22 28//22
f 23//23 27//23 26//23 25//23
f 24//24 28//24 26//24 27//24
f 29//25 32//25 33//25 35//25
f 30//26 34//26 33//26 32//26
f 31//27 35//27 33//27 34//27
f 36//28 39//28 40//28 42//28
f 37//29 41//29 40//29 39//29
f 38//30 42//30 40//30 41//30
f 43//31 46//31 47//31 49//31
f 44//32 48//32 47//32 46//32
f 45//33 49//33 47//33 48//33
f 50//34 53//34 54//34 56//34
f 51//35 55//35 54//35 53//35
f 52//36 56//36 54//36 55//36
f 57//37 60//37 61//37 63//37
f 58//38 62//38 61//38 60//38
f 59//39 63//39 61//39 62//39
f 64//40 67//40 68//40 70//40
f 65//41 69//41 68//41 67//41
f 66//42 70//42 68//42 69//42
f 71//43 74//43 75//43 77//43
f 72//44 76//44 75//44 74//44
f 73//45 77//45 75//45 76//45
f 78//46 81//46 82//46 84//46
f 79//47 83//47 82//47 81//47
f 80//48 84//48 82//48 83//48
f 85//49 88//49 89//49 91//49
f 86//50 90//50 89//50 88//50
f 87//51 91//51 89//51 90//51
f 92//52 95//52 96//52 98//52
f 93//53 97//53 96//53 95//53
f 94//54 98//54 96//54 97//54
f 99//55 102//55 103//55 105//55
f 100//56 104//56 103//56 102//56
f 101//57 105//57 103//57 104//57
f 106//58 109//58 110//58 112//58
f 107//59 111//59 110//59 109//59
f 108//60 112//60 110//60 111//60
f 113//61 116//61 117//61 119//61
f 114//62 118//62 117//62 116//62
f 115//63 119//63 117//63 118//63
f 120//64 123//64 124//64 126//64
f 121//65 125//65 124//65 123//65
f 122//66 126//66 124//66 125//66
f 127//67 130//67 131//67 133//67
f 128//68 132//68 131//68 130//68
f 129//69 133//69 131//69 132//69
f 134//70 137//70 138//70 140//70
f 135//71 139//71 138//71 137//71
f 136//72 140//72 138//72 139//72
f 38//73 127//73 133//73 42//73
f 42//74 133//74 129//74 36//74
f 50//75 106//75 112//75 53//75
f 53//76 112//76 108//76 51//76
f 3//77 57//77 63//77 7//77
f 7//78 63//78 59//78 1//78
f 58//79 64//79 70//79 62//79
f 62//80 70//80 66//80 59//80
f 17//81 72//81 74//81 21//81
f 21//82 74//82 71//82 15//82
f 43//83 78//83 84//83 46//83
f 46//84 84//84 80//84 44//84
f 2//85 85//85 91//85 6//85
f 6//86 91//86 87//86 3//86
f 86//87 92//87 98//87 90//87
f 90//88 98//88 94//88 87//88
f 29//89 100//89 102//89 32//89
f 32//90 102//90 99//90 30//90
f 36//91 108//91 111//91 39//91
f 39//92 111//92 107//92 37//92
f 1//93 113//93 119//93 4//93
f 4//94 119//94 115//94 2//94
f 114//95 121//95 123//95 118//95
f 118//96 123//96 120//96 115//96
f 10//97 128//97 130//97 14//97
f 14//98 130//98 127//98 8//98
f 24//99 134//99 140//99 28//99
f 28//100 140//100 136//100 22//100
f 51//101 135//101 137//101 55//101
f 55//102 137//102 134//102 52//102
f 44//103 122//103 125//103 48//103
f 48//104 125//104 121//104 45//104
f 72//105 80//105 83//105 76//105
f 76//106 83//106 79//106 73//106
f 8//107 58//107 60//107 11//107
f 11//108 60//108 57//108 9//108
f 52//109 79//109 81//109 56//109
f 56//110 81//110 78//110 50//110
f 100//111 107//111 109//111 104//111
f 104//112 109//112 106//112 101//112
f 9//113 94//113 97//113 13//113
f 13//114 97//114 93//114 10//114
f 23//115 71//115 77//115 27//115
f 27//116 77//116 73//116 24//116
f 15//117 86//117 88//117 18//117
f 18//118 88//118 85//118 16//118
f 31//119 66//119 69//119 35//119
f 35//120 69//120 65//120 29//120
f 37//121 65//121 67//121 41//121
f 41//122 67//122 64//122 38//122
f 22//123 93//123 95//123 25//123
f 25//124 95//124 92//124 23//124
f 16//125 120//125 126//125 20//125
f 20//126 126//126 122//126 17//126
f 128//127 136//127 139//127 132//127
f 132//128 139//128 135//128 129//128
f 30//129 114//129 116//129 34//129
f 34//130 116//130 113//130 31//130
f 45//131 99//131 105//131 49//131
f 49//132 105//132 101//132 43//132
f 3//7 87//7 9//7 57//7
