# Blender v2.90.0 OBJ File: ''
# www.blender.org
mtllib Dtmo.mtl
o Dtmo
v 0.045138 -0.070829 -0.031123
v 0.063604 -0.067855 -0.053766
v 0.073169 -0.090179 -0.043940
v 0.040152 -0.081184 -0.000478
v 0.064545 -0.078121 0.000486
v 0.078919 -0.095405 -0.008385
v 0.043728 -0.049768 -0.014541
v 0.080840 -0.057353 -0.044087
v 0.034391 -0.052481 0.049109
v 0.071474 -0.058456 -0.005512
v 0.047345 -0.043780 0.016504
v -0.484590 0.085251 0.057263
v -0.492035 0.059801 0.025201
v -0.503949 0.067082 0.067067
v -0.478375 0.033775 0.014283
v -0.485443 0.047757 0.067800
v -0.489540 0.062133 0.085599
v -0.195469 -0.048370 0.023811
v -0.216145 -0.055013 0.083470
v -0.211928 -0.066467 -0.067533
v -0.224826 -0.025731 0.024526
v -0.217690 -0.017428 0.091770
v -0.216501 -0.032820 -0.078770
v -0.198016 -0.031021 -0.067379
v -0.199580 -0.026441 0.095094
v -0.206162 -0.047902 -0.086361
v -0.226022 -0.047157 -0.071816
v -0.192512 -0.057906 -0.067698
v -0.196854 -0.043481 0.086023
v -0.207158 -0.058311 0.092647
v -0.218361 -0.029807 0.114452
v -0.241546 -0.047551 0.117805
v -0.174022 -0.033826 0.125802
v -0.354150 -0.027140 -0.025177
v -0.369949 -0.011411 0.028223
v -0.377753 -0.039302 0.011074
v 0.161592 -0.120518 -0.011190
v 0.122980 -0.108213 0.053801
v 0.127090 -0.100632 0.049585
v -0.018128 -0.008857 -0.017193
v -0.025832 -0.010582 0.066987
v -0.015322 -0.019157 0.066325
v -0.354193 0.008302 -0.119773
v -0.347633 -0.013290 -0.066678
v -0.357811 -0.009418 -0.121512
v -0.400232 0.012526 0.064894
v -0.391495 -0.019045 0.055203
v 0.367343 0.050330 -0.081385
v 0.343470 0.041079 -0.050349
v 0.357065 0.020781 -0.061231
v 0.348782 0.009157 -0.026812
v -0.445434 0.059547 0.071126
v -0.431856 0.036614 0.083479
v -0.417345 0.026123 0.055416
v -0.022903 -0.037911 0.055265
v -0.030313 -0.039018 0.037815
v -0.021354 -0.022472 -0.019842
v 0.377462 0.017585 0.075802
v 0.408340 0.034927 0.088828
v 0.370463 0.034221 0.098346
v 0.480188 0.108754 -0.077162
v 0.497240 0.130362 -0.019814
v 0.484044 0.110784 0.035216
v 0.237053 -0.126687 -0.094592
v 0.214772 -0.117988 -0.042871
v 0.221033 -0.141174 -0.072625
v 0.119019 -0.099851 0.107671
v 0.100776 -0.082265 0.071498
v 0.105035 -0.111542 0.098092
v 0.432430 0.109214 0.062007
v 0.451766 0.115196 0.029132
v 0.437131 0.091634 0.070949
v -0.454197 0.046200 -0.063513
v -0.453969 0.022897 -0.048721
v 0.087256 -0.068225 0.027380
v 0.080255 -0.094340 0.035524
v -0.385631 -0.013839 -0.076625
v -0.395590 0.022838 -0.131314
v -0.397439 0.010876 -0.152688
v 0.099324 -0.080769 -0.016210
v 0.094819 -0.062688 -0.015023
v -0.124683 -0.050057 0.099765
v -0.123245 -0.030088 0.094754
v -0.110816 -0.029798 0.108352
v 0.124123 -0.122301 0.094148
v 0.101014 -0.096768 0.005592
v 0.116882 -0.084373 0.028517
v 0.103030 -0.114451 0.058700
v 0.107751 -0.072431 0.039239
v 0.121347 -0.087123 0.093065
v 0.122293 -0.119622 0.073290
v 0.020123 -0.032864 0.034348
v -0.015449 -0.044566 0.094625
v 0.007475 -0.066603 0.054021
v 0.010476 -0.042473 0.022673
v 0.006669 -0.030605 0.075024
v 0.009951 -0.063996 0.024896
v -0.129635 -0.019415 0.118358
v -0.120506 -0.035160 0.129837
v -0.125566 -0.053769 0.118137
v 0.159579 -0.091573 0.064049
v 0.170542 -0.086429 0.021640
v 0.166476 -0.122450 0.029463
v 0.176579 -0.106176 0.038945
v 0.140389 -0.106827 0.092657
v 0.359941 0.024200 0.025156
v 0.370379 0.050234 -0.128325
v 0.356958 0.061561 -0.111771
v 0.411495 0.093422 -0.134704
v 0.410517 0.071608 -0.137806
v 0.377397 0.047851 0.060464
v 0.356134 0.015538 0.071982
v 0.385901 0.065153 0.097758
v 0.397834 0.065530 0.081837
v -0.045923 -0.021461 -0.071986
v -0.030833 -0.003342 -0.096004
v -0.028649 -0.019093 -0.082607
v -0.057969 -0.006299 -0.085859
v -0.039120 -0.044065 0.069507
v -0.024733 0.006419 -0.046228
v -0.037626 0.016023 -0.081760
v -0.043205 -0.011636 0.096036
v -0.051196 0.009679 -0.073187
v -0.051810 -0.040556 0.097585
v -0.029282 -0.019498 0.103995
v -0.028288 -0.052477 0.084952
v -0.048561 -0.030353 -0.000294
v -0.235552 -0.037614 0.081135
v -0.302761 -0.047827 0.075464
v -0.295974 -0.027685 0.084582
v -0.226195 -0.055458 0.085210
v -0.297541 -0.063376 0.095890
v -0.295513 -0.031984 0.107685
v -0.207928 -0.060577 0.112380
v 0.128325 -0.088158 0.058944
v 0.224322 -0.108633 -0.093753
v 0.206950 -0.102708 -0.054878
v -0.189131 -0.042577 -0.061754
v 0.415578 0.055704 0.086270
v 0.411518 0.047269 0.104953
v 0.458796 0.125296 -0.013141
v 0.439645 0.126598 0.064318
v 0.214939 -0.140189 -0.099838
v -0.056514 -0.027407 0.072597
v -0.055832 -0.011509 -0.026004
v 0.458446 0.108814 0.091202
v 0.429716 0.111368 0.100388
v 0.432116 0.090673 0.109936
v 0.450703 0.130198 0.075425
v 0.451171 0.128717 -0.095526
v 0.461521 0.122100 -0.104022
v 0.418630 0.108585 -0.115090
v 0.454478 0.096077 -0.115932
v 0.448102 0.115874 -0.057491
v 0.417516 0.097141 -0.099044
v 0.437043 0.092633 -0.087032
v 0.460808 0.092871 -0.093688
v 0.431890 0.071514 -0.118234
v 0.454606 0.092286 0.085443
v 0.463631 0.102204 0.040380
v -0.371798 -0.020558 -0.112964
v -0.355966 -0.035156 -0.067733
v -0.378273 -0.035431 -0.064912
v -0.386190 0.044818 -0.147888
v -0.363932 0.029083 -0.153319
v -0.376164 0.035983 -0.164865
v -0.384560 0.011934 -0.166141
v -0.372440 0.010557 -0.090899
v -0.367941 -0.003189 -0.046785
v -0.385745 -0.010019 -0.029894
v -0.389014 0.004334 0.025320
v 0.472446 0.129395 0.061665
v 0.332758 0.026723 0.055830
v -0.309306 -0.042350 0.099485
v -0.439337 -0.000206 0.070813
v -0.466104 0.025971 0.075708
v -0.471309 0.044906 0.055487
v -0.449835 0.036363 0.092135
v 0.465730 0.141215 -0.058403
v 0.489859 0.140023 -0.034054
v 0.409122 0.101790 0.087827
v -0.424082 0.042748 -0.043331
v -0.462483 0.051296 0.051473
v -0.436206 0.022035 -0.036183
v -0.425094 0.017104 -0.090666
v -0.432435 0.025659 -0.133139
v -0.411936 0.017649 -0.161790
v -0.480517 0.085438 0.084543
v -0.414008 0.003321 0.079833
v -0.422208 -0.013332 0.063150
v -0.435741 0.000060 0.052779
v -0.423379 0.052530 -0.074321
v -0.456810 0.063584 -0.011598
v -0.472581 0.088013 0.068681
v -0.462862 0.067299 0.049111
v -0.425699 0.017582 0.046760
v -0.227041 -0.051726 -0.021009
v 0.340144 0.030061 -0.101826
v 0.314825 0.011942 0.010140
v 0.335016 0.040341 0.027841
v 0.202250 -0.131218 -0.100289
v 0.198557 -0.138553 -0.054376
v 0.342562 0.001252 0.030412
v 0.342334 0.030325 -0.008182
v 0.375971 0.033060 -0.091813
v 0.211972 -0.110476 -0.097856
v 0.323719 0.037573 -0.070840
v 0.360305 0.064229 -0.099082
v 0.331436 -0.002221 -0.026761
v 0.345232 0.010249 -0.076248
v 0.324834 0.012334 -0.069298
v 0.349767 0.049451 -0.073412
v 0.369254 0.027313 -0.107871
v 0.315530 0.025760 -0.004282
v -0.421510 0.035005 -0.176674
v 0.312383 0.006215 -0.024602
v -0.423999 0.047771 -0.162723
v 0.407231 0.069036 -0.101463
v 0.388316 0.053259 0.112125
v 0.408374 0.080342 0.115904
v 0.173065 -0.108093 -0.043335
v 0.464140 0.141065 0.030535
v 0.481678 0.140720 0.028305
v 0.473250 0.110535 -0.020218
v 0.459193 0.101029 -0.063579
v -0.408944 -0.025559 0.032819
v -0.422704 0.054038 -0.118802
v -0.398375 0.052282 -0.161431
v -0.398812 0.034013 -0.177322
v -0.406040 -0.005116 0.020765
v -0.400508 0.027884 -0.122358
v -0.232892 -0.025417 0.098536
v -0.382930 -0.019394 -0.097728
vn -0.8011 -0.1995 -0.5643
vn -0.2399 0.1237 -0.9629
vn 0.0959 -0.7715 -0.6289
vn -0.3234 -0.9462 -0.0131
vn -0.3270 -0.7174 0.6151
vn -0.2570 -0.9541 -0.1538
vn -0.3191 0.8183 -0.4781
vn 0.4940 0.6132 -0.6164
vn 0.7595 0.0012 0.6505
vn 0.4186 0.8237 0.3825
vn 0.5208 0.8396 0.1542
vn -0.2725 0.9240 -0.2684
vn -0.9025 0.2034 -0.3796
vn -0.9860 0.0583 0.1564
vn -0.5556 -0.8314 -0.0001
vn -0.6716 -0.7320 0.1144
vn -0.5975 -0.1671 0.7843
vn 0.8537 -0.5139 0.0839
vn 0.1905 -0.9691 -0.1567
vn -0.1972 -0.9310 -0.3071
vn -0.6987 0.7080 -0.1024
vn -0.0834 0.9883 0.1280
vn -0.3738 0.6864 -0.6238
vn 0.5025 0.7919 -0.3470
vn 0.3265 0.9363 -0.1297
vn 0.1551 -0.1127 -0.9815
vn -0.9066 -0.1069 -0.4083
vn 0.7600 -0.5645 -0.3219
vn 0.6588 -0.3048 -0.6878
vn 0.0701 -0.9112 -0.4061
vn -0.1045 0.7330 0.6721
vn -0.1337 -0.1924 0.9722
vn -0.1093 0.2081 0.9720
vn 0.9155 -0.3448 0.2075
vn 0.9107 0.1778 0.3728
vn 0.2541 -0.9331 0.2545
vn -0.7684 -0.5966 -0.2316
vn -0.1330 -0.8169 -0.5612
vn -0.1769 0.0704 -0.9817
vn 0.9859 0.1663 -0.0201
vn 0.4439 0.8808 0.1644
vn 0.5798 0.8140 -0.0344
vn 0.9375 0.3475 -0.0187
vn 0.9686 0.2436 0.0505
vn 0.7195 -0.5387 -0.4382
vn 0.7823 0.4507 0.4300
vn 0.4569 -0.6004 0.6564
vn 0.4740 0.4792 0.7387
vn 0.2551 0.8701 0.4216
vn 0.9032 -0.3157 0.2907
vn 0.9144 -0.4047 -0.0136
vn 0.7325 0.6782 0.0597
vn 0.5554 0.4449 0.7026
vn 0.4764 0.7450 -0.4669
vn 0.0048 -0.4288 -0.9034
vn 0.2230 -0.9610 -0.1638
vn 0.8589 -0.5001 -0.1103
vn 0.3323 -0.9201 0.2076
vn 0.7037 -0.7097 -0.0328
vn -0.4223 -0.3824 0.8219
vn 0.9083 -0.3253 -0.2631
vn 0.9977 0.0671 -0.0043
vn 0.8511 -0.4979 0.1664
vn 0.9097 -0.0804 -0.4075
vn 0.8856 -0.0264 0.4637
vn 0.4814 -0.8405 0.2488
vn -0.0352 0.2168 0.9756
vn -0.5526 0.7107 0.4354
vn -0.7038 -0.3747 0.6035
vn -0.7587 0.0353 -0.6505
vn -0.7981 -0.5063 -0.3268
vn 0.1003 -0.7114 -0.6956
vn -0.8160 0.4698 -0.3369
vn -0.6270 -0.7671 -0.1360
vn -0.3957 0.8324 0.3881
vn -0.9021 -0.3800 0.2045
vn -0.9984 0.0178 0.0536
vn -0.6774 0.0295 0.7351
vn -0.5955 -0.7804 -0.1907
vn 0.8339 -0.2781 -0.4768
vn 0.6686 0.7303 -0.1401
vn 0.4911 -0.6621 -0.5661
vn 0.4001 0.5110 -0.7608
vn 0.9232 0.3451 -0.1692
vn 0.0803 -0.8684 0.4893
vn 0.4209 -0.8293 -0.3675
vn 0.9181 0.2192 -0.3302
vn -0.3320 -0.9289 -0.1643
vn 0.3979 0.9124 0.0965
vn 0.0966 0.8510 0.5161
vn -0.1806 -0.9580 -0.2228
vn 0.2000 0.9709 -0.1316
vn 0.3613 -0.4446 0.8196
vn -0.0080 -0.9475 0.3197
vn -0.6099 0.4974 -0.6169
vn 0.6770 0.5359 0.5044
vn -0.7466 -0.5218 -0.4127
vn 0.1955 0.9626 0.1877
vn 0.5169 0.0326 0.8554
vn 0.4299 -0.8272 0.3619
vn 0.6699 0.5904 0.4502
vn 0.3311 0.9436 -0.0008
vn 0.2281 -0.9481 0.2216
vn 0.8951 -0.0959 0.4354
vn 0.7051 -0.1282 0.6974
vn 0.8917 0.0761 -0.4461
vn -0.3218 -0.2058 -0.9242
vn -0.6980 0.5786 -0.4219
vn -0.1529 0.5157 -0.8430
vn 0.2008 -0.2997 -0.9327
vn 0.4303 0.6518 -0.6246
vn -0.3428 -0.7688 0.5398
vn -0.6766 0.6532 0.3399
vn -0.2781 0.4451 -0.8512
vn -0.3992 -0.8711 -0.2860
vn 0.4226 0.0065 -0.9063
vn 0.5270 -0.6633 -0.5314
vn -0.7969 -0.1354 -0.5887
vn -0.5389 -0.8196 -0.1947
vn 0.7692 0.6390 -0.0071
vn 0.1490 0.8983 -0.4133
vn -0.3757 0.7569 0.5347
vn -0.6987 0.7106 -0.0822
vn -0.6860 -0.4534 0.5690
vn 0.2325 0.4229 0.8758
vn -0.2319 -0.9297 0.2861
vn -0.6026 -0.7897 -0.1150
vn -0.6048 0.4049 -0.6858
vn -0.5615 -0.1814 -0.8074
vn -0.3702 0.8253 -0.4265
vn -0.1465 -0.9350 -0.3230
vn -0.4385 -0.8780 0.1920
vn -0.4139 0.5097 0.7543
vn -0.0013 -0.8863 0.4631
vn 0.2574 0.9507 -0.1732
vn 0.4826 0.7743 -0.4093
vn 0.3346 0.9424 -0.0007
vn 0.9586 0.1942 -0.2084
vn 0.6311 -0.4716 -0.6159
vn 0.4769 -0.5497 0.6858
vn -0.9953 -0.0904 -0.0354
vn -0.6792 0.7264 -0.1047
vn 0.0385 -0.7017 -0.7115
vn -0.9973 -0.0648 0.0350
vn -0.9995 -0.0302 0.0076
vn 0.6875 0.1491 0.7107
vn -0.1662 0.7279 0.6652
vn 0.4396 0.0160 0.8980
vn -0.0182 0.8906 0.4545
vn -0.2582 0.9284 -0.2673
vn 0.4999 0.5471 -0.6714
vn -0.4733 0.8637 -0.1733
vn 0.6846 -0.1836 -0.7054
vn -0.9358 -0.0350 0.3507
vn -0.6242 0.3731 0.6864
vn -0.1361 -0.6449 0.7520
vn 0.5250 -0.8472 0.0807
vn 0.5998 -0.7776 -0.1887
vn 0.7235 -0.6567 0.2128
vn 0.0061 -0.9606 -0.2778
vn -0.0515 -0.9045 -0.4234
vn 0.5575 -0.8155 -0.1552
vn -0.5510 -0.8203 -0.1534
vn 0.1872 0.9026 0.3876
vn 0.8869 0.3297 -0.3234
vn 0.6483 0.4307 -0.6279
vn 0.1170 -0.6144 -0.7803
vn -0.0314 0.9092 0.4152
vn 0.2535 0.9529 0.1662
vn -0.7997 0.5369 -0.2687
vn 0.2616 0.9426 -0.2076
vn 0.6890 0.5553 0.4657
vn -0.8762 0.0089 0.4819
vn -0.9180 0.0480 0.3936
vn -0.5574 -0.7415 0.3736
vn -0.6745 -0.7022 0.2280
vn -0.2012 -0.9511 -0.2344
vn 0.0303 -0.0463 0.9985
vn -0.2423 0.9554 -0.1688
vn 0.6258 0.7540 -0.1997
vn -0.7813 0.6212 -0.0607
vn 0.9283 0.1803 0.3253
vn 0.8755 -0.1713 -0.4518
vn 0.4539 -0.8445 0.2843
vn 0.1309 -0.9904 0.0447
vn -0.8211 -0.5207 -0.2338
vn -0.2958 -0.8744 -0.3846
vn -0.1204 0.7341 0.6683
vn 0.3218 -0.2878 0.9020
vn -0.3761 -0.8758 0.3025
vn -0.6785 -0.5270 -0.5118
vn 0.4416 0.8926 0.0915
vn 0.0731 0.9807 -0.1812
vn 0.3634 0.9306 -0.0435
vn 0.8301 0.5327 -0.1651
vn -0.2180 0.3754 -0.9009
vn -0.9229 -0.3850 -0.0010
vn -0.6424 -0.3264 -0.6934
vn -0.8971 -0.3332 0.2901
vn -0.3397 0.9393 -0.0473
vn -0.5640 -0.2466 -0.7881
vn -0.0821 -0.9797 0.1830
vn 0.0614 -0.9797 0.1908
vn 0.7201 0.6821 -0.1273
vn 0.7236 -0.5747 0.3822
vn -0.1992 0.6361 -0.7454
vn -0.8427 0.5136 -0.1614
vn -0.3649 0.8828 0.2958
vn 0.0180 -0.9978 -0.0643
vn 0.1806 -0.9350 -0.3053
vn -0.6878 -0.5892 -0.4240
vn -0.1252 0.9186 0.3748
vn 0.2372 -0.8644 -0.4433
vn -0.8851 0.4553 0.0967
vn -0.5260 -0.0018 -0.8505
vn -0.8704 -0.4895 -0.0524
vn -0.6130 0.6582 -0.4370
vn 0.2807 -0.2397 0.9294
vn -0.1257 0.2089 0.9698
vn -0.3014 0.1686 0.9385
vn -0.7545 0.4775 -0.4503
vn -0.3041 0.9512 0.0525
vn 0.6020 0.7562 0.2566
vn -0.3080 -0.9488 0.0706
vn -0.4915 -0.8375 0.2389
vn -0.7133 -0.7007 -0.0125
vn -0.1527 0.9873 -0.0431
vn 0.2452 0.9261 -0.2866
vn 0.1140 0.0407 -0.9926
vn -0.7704 0.3581 -0.5274
vn 0.8930 -0.3318 0.3041
vn -0.2159 0.9764 -0.0068
vn -0.7426 -0.6469 -0.1735
usemtl Dtmo
s 1
f 1//1 2//2 3//3
f 4//4 3//3 5//5
f 5//5 3//3 6//6
f 2//2 7//7 8//8
f 9//9 5//5 10//10
f 8//8 11//11 10//10
f 11//11 8//8 7//7
f 12//12 13//13 14//14
f 14//14 15//15 16//16
f 14//14 16//16 17//17
f 18//18 19//19 20//20
f 21//21 22//22 23//23
f 23//23 22//22 24//24
f 24//24 22//22 25//25
f 26//26 20//20 27//27
f 28//28 20//20 26//26
f 26//26 23//23 24//24
f 29//29 30//30 19//19
f 25//25 22//22 31//31
f 27//27 23//23 26//26
f 29//29 19//19 18//18
f 32//32 33//33 31//31
f 18//18 20//20 28//28
f 34//34 35//35 36//36
f 37//37 38//38 39//39
f 40//40 41//41 42//42
f 43//43 44//44 45//45
f 35//35 46//46 47//47
f 48//48 49//49 50//50
f 50//50 49//49 51//51
f 46//46 52//52 53//53
f 54//54 52//52 46//46
f 55//55 56//56 57//57
f 18//18 25//25 29//29
f 58//58 59//59 60//60
f 61//61 62//62 63//63
f 64//64 65//65 66//66
f 67//67 68//68 69//69
f 70//70 71//71 72//72
f 73//73 74//74 13//13
f 42//42 57//57 40//40
f 75//75 76//76 68//68
f 77//77 78//78 79//79
f 8//8 80//80 3//3
f 81//81 80//80 8//8
f 82//82 83//83 84//84
f 6//6 76//76 5//5
f 3//3 2//2 8//8
f 8//8 10//10 81//81
f 67//67 69//69 85//85
f 38//38 86//86 87//87
f 80//80 81//81 87//87
f 86//86 38//38 88//88
f 89//89 81//81 75//75
f 90//90 68//68 67//67
f 91//91 88//88 38//38
f 87//87 81//81 89//89
f 68//68 89//89 75//75
f 89//89 68//68 90//90
f 88//88 85//85 69//69
f 91//91 85//85 88//88
f 87//87 86//86 80//80
f 1//1 7//7 2//2
f 11//11 7//7 92//92
f 93//93 94//94 9//9
f 7//7 95//95 92//92
f 42//42 96//96 92//92
f 4//4 94//94 97//97
f 9//9 96//96 93//93
f 1//1 97//97 95//95
f 98//98 99//99 84//84
f 100//100 84//84 99//99
f 82//82 84//84 100//100
f 80//80 6//6 3//3
f 86//86 6//6 80//80
f 86//86 76//76 6//6
f 88//88 76//76 86//86
f 5//5 75//75 10//10
f 81//81 10//10 75//75
f 90//90 101//101 102//102
f 38//38 37//37 103//103
f 85//85 104//104 105//105
f 59//59 58//58 106//106
f 107//107 108//108 109//109
f 110//110 107//107 109//109
f 106//106 111//111 59//59
f 112//112 58//58 60//60
f 111//111 113//113 114//114
f 95//95 7//7 1//1
f 1//1 4//4 97//97
f 94//94 5//5 9//9
f 4//4 5//5 94//94
f 115//115 116//116 117//117
f 118//118 116//116 115//115
f 119//119 56//56 55//55
f 120//120 121//121 122//122
f 122//122 121//121 123//123
f 123//123 121//121 118//118
f 124//124 93//93 125//125
f 119//119 126//126 124//124
f 121//121 116//116 118//118
f 115//115 56//56 127//127
f 124//124 125//125 122//122
f 127//127 56//56 119//119
f 117//117 56//56 115//115
f 57//57 56//56 117//117
f 126//126 93//93 124//124
f 120//120 122//122 41//41
f 128//128 129//129 130//130
f 129//129 131//131 132//132
f 132//132 32//32 133//133
f 32//32 132//132 134//134
f 135//135 37//37 39//39
f 65//65 136//136 137//137
f 93//93 126//126 94//94
f 138//138 25//25 18//18
f 24//24 25//25 138//138
f 59//59 139//139 140//140
f 141//141 71//71 142//142
f 143//143 64//64 66//66
f 144//144 145//145 127//127
f 13//13 74//74 15//15
f 138//138 28//28 26//26
f 146//146 147//147 148//148
f 142//142 147//147 149//149
f 149//149 147//147 146//146
f 150//150 151//151 152//152
f 151//151 109//109 152//152
f 153//153 109//109 151//151
f 110//110 109//109 153//153
f 154//154 155//155 156//156
f 153//153 157//157 158//158
f 159//159 72//72 160//160
f 71//71 70//70 142//142
f 154//154 156//156 157//157
f 161//161 45//45 162//162
f 163//163 162//162 36//36
f 164//164 165//165 166//166
f 165//165 45//45 167//167
f 167//167 45//45 161//161
f 44//44 168//168 169//169
f 36//36 162//162 34//34
f 161//161 162//162 163//163
f 34//34 162//162 44//44
f 170//170 169//169 168//168
f 44//44 169//169 35//35
f 171//171 35//35 169//169
f 166//166 165//165 167//167
f 168//168 165//165 164//164
f 146//146 63//63 172//172
f 60//60 173//173 112//112
f 174//174 129//129 132//132
f 140//140 146//146 148//148
f 159//159 146//146 140//140
f 160//160 72//72 71//71
f 46//46 35//35 171//171
f 175//175 176//176 177//177
f 178//178 176//176 175//175
f 179//179 180//180 151//151
f 181//181 142//142 70//70
f 111//111 114//114 139//139
f 182//182 183//183 184//184
f 185//185 186//186 187//187
f 134//134 33//33 32//32
f 98//98 31//31 33//33
f 188//188 178//178 52//52
f 178//178 175//175 189//189
f 190//190 175//175 191//191
f 177//177 184//184 183//183
f 191//191 177//177 183//183
f 192//192 73//73 193//193
f 177//177 191//191 175//175
f 52//52 194//194 188//188
f 15//15 74//74 184//184
f 182//182 193//193 195//195
f 196//196 191//191 183//183
f 74//74 186//186 185//185
f 27//27 20//20 197//197
f 57//57 42//42 55//55
f 108//108 107//107 198//198
f 199//199 173//173 200//200
f 201//201 143//143 202//202
f 51//51 106//106 203//203
f 204//204 106//106 51//51
f 55//55 97//97 119//119
f 119//119 97//97 126//126
f 50//50 205//205 48//48
f 67//67 85//85 105//105
f 13//13 15//15 14//14
f 152//152 154//154 150//150
f 64//64 143//143 201//201
f 143//143 66//66 202//202
f 206//206 64//64 201//201
f 91//91 103//103 85//85
f 38//38 103//103 91//91
f 101//101 90//90 67//67
f 105//105 101//101 67//67
f 90//90 102//102 135//135
f 108//108 207//207 208//208
f 209//209 51//51 203//203
f 198//198 210//210 211//211
f 211//211 210//210 209//209
f 212//212 207//207 49//49
f 198//198 207//207 108//108
f 208//208 207//207 212//212
f 210//210 51//51 209//209
f 204//204 49//49 207//207
f 200//200 204//204 207//207
f 203//203 112//112 173//173
f 210//210 198//198 213//213
f 40//40 120//120 41//41
f 97//97 94//94 126//126
f 125//125 41//41 122//122
f 42//42 41//41 125//125
f 96//96 125//125 93//93
f 40//40 57//57 117//117
f 189//189 47//47 46//46
f 61//61 180//180 62//62
f 151//151 180//180 61//61
f 54//54 183//183 52//52
f 200//200 214//214 199//199
f 215//215 187//187 186//186
f 197//197 128//128 21//21
f 216//216 199//199 214//214
f 186//186 73//73 217//217
f 87//87 89//89 135//135
f 44//44 162//162 45//45
f 101//101 104//104 102//102
f 179//179 151//151 150//150
f 51//51 49//49 204//204
f 213//213 110//110 158//158
f 155//155 152//152 108//108
f 208//208 218//218 155//155
f 111//111 139//139 59//59
f 219//219 140//140 113//113
f 113//113 140//140 220//220
f 181//181 113//113 220//220
f 77//77 168//168 78//78
f 27//27 197//197 21//21
f 220//220 140//140 148//148
f 28//28 138//138 18//18
f 104//104 65//65 137//137
f 37//37 135//135 221//221
f 77//77 163//163 170//170
f 100//100 134//134 30//30
f 99//99 33//33 134//134
f 98//98 25//25 31//31
f 29//29 25//25 83//83
f 142//142 222//222 141//141
f 172//172 222//222 149//149
f 149//149 222//222 142//142
f 223//223 222//222 172//172
f 160//160 224//224 63//63
f 224//224 160//160 71//71
f 222//222 179//179 141//141
f 179//179 222//222 223//223
f 146//146 172//172 149//149
f 159//159 63//63 146//146
f 157//157 224//224 225//225
f 61//61 224//224 157//157
f 63//63 224//224 61//61
f 61//61 157//157 153//153
f 225//225 224//224 141//141
f 36//36 47//47 226//226
f 227//227 228//228 217//217
f 46//46 171//171 54//54
f 187//187 79//79 78//78
f 215//215 229//229 187//187
f 192//192 228//228 227//227
f 217//217 228//228 229//229
f 217//217 229//229 215//215
f 170//170 163//163 230//230
f 187//187 78//78 231//231
f 167//167 79//79 229//229
f 187//187 229//229 79//79
f 71//71 141//141 224//224
f 106//106 58//58 203//203
f 19//19 197//197 20//20
f 182//182 195//195 183//183
f 50//50 51//51 210//210
f 9//9 10//10 11//11
f 62//62 223//223 63//63
f 203//203 173//173 199//199
f 40//40 117//117 120//120
f 120//120 117//117 116//116
f 182//182 231//231 192//192
f 192//192 231//231 228//228
f 110//110 153//153 158//158
f 144//144 124//124 122//122
f 193//193 13//13 12//12
f 194//194 12//12 188//188
f 188//188 12//12 14//14
f 14//14 17//17 188//188
f 16//16 176//176 17//17
f 64//64 136//136 65//65
f 178//178 17//17 176//176
f 134//134 132//132 131//131
f 158//158 218//218 205//205
f 212//212 48//48 208//208
f 111//111 106//106 200//200
f 173//173 219//219 113//113
f 60//60 219//219 173//173
f 213//213 205//205 210//210
f 198//198 107//107 213//213
f 130//130 133//133 232//232
f 131//131 129//129 128//128
f 128//128 130//130 232//232
f 184//184 74//74 185//185
f 183//183 195//195 52//52
f 123//123 118//118 145//145
f 115//115 127//127 145//145
f 39//39 87//87 135//135
f 30//30 82//82 100//100
f 82//82 29//29 83//83
f 100//100 99//99 134//134
f 29//29 82//82 30//30
f 114//114 70//70 72//72
f 181//181 70//70 114//114
f 218//218 156//156 155//155
f 147//147 142//142 181//181
f 218//218 158//158 157//157
f 72//72 159//159 139//139
f 139//139 159//159 140//140
f 148//148 147//147 220//220
f 218//218 157//157 156//156
f 220//220 147//147 181//181
f 168//168 44//44 43//43
f 27//27 21//21 23//23
f 144//144 122//122 145//145
f 43//43 165//165 168//168
f 42//42 125//125 96//96
f 52//52 195//195 194//194
f 43//43 45//45 165//165
f 186//186 74//74 73//73
f 48//48 205//205 218//218
f 87//87 39//39 38//38
f 217//217 73//73 227//227
f 54//54 196//196 183//183
f 175//175 190//190 189//189
f 178//178 53//53 52//52
f 182//182 192//192 193//193
f 227//227 73//73 192//192
f 53//53 178//178 189//189
f 197//197 131//131 128//128
f 230//230 191//191 196//196
f 187//187 231//231 185//185
f 206//206 221//221 136//136
f 9//9 11//11 92//92
f 144//144 127//127 119//119
f 1//1 3//3 4//4
f 211//211 209//209 216//216
f 209//209 203//203 199//199
f 200//200 207//207 214//214
f 211//211 207//207 198//198
f 216//216 209//209 199//199
f 134//134 131//131 19//19
f 30//30 134//134 19//19
f 131//131 197//197 19//19
f 22//22 232//232 31//31
f 201//201 37//37 221//221
f 202//202 37//37 201//201
f 65//65 104//104 202//202
f 106//106 204//204 200//200
f 152//152 109//109 108//108
f 101//101 105//105 104//104
f 63//63 223//223 172//172
f 226//226 190//190 230//230
f 230//230 190//190 191//191
f 207//207 211//211 216//216
f 33//33 99//99 98//98
f 84//84 83//83 25//25
f 98//98 84//84 25//25
f 48//48 218//218 208//208
f 107//107 110//110 213//213
f 60//60 59//59 140//140
f 60//60 140//140 219//219
f 213//213 158//158 205//205
f 208//208 155//155 108//108
f 130//130 129//129 174//174
f 133//133 174//174 132//132
f 130//130 174//174 133//133
f 115//115 145//145 118//118
f 102//102 104//104 137//137
f 223//223 62//62 180//180
f 96//96 9//9 92//92
f 154//154 157//157 225//225
f 159//159 160//160 63//63
f 154//154 225//225 141//141
f 154//154 179//179 150//150
f 141//141 179//179 154//154
f 78//78 228//228 231//231
f 164//164 228//228 78//78
f 168//168 77//77 170//170
f 161//161 233//233 79//79
f 47//47 36//36 35//35
f 229//229 228//228 166//166
f 167//167 229//229 166//166
f 163//163 36//36 226//226
f 161//161 79//79 167//167
f 169//169 170//170 230//230
f 169//169 230//230 171//171
f 233//233 163//163 77//77
f 164//164 78//78 168//168
f 166//166 228//228 164//164
f 163//163 233//233 161//161
f 195//195 12//12 194//194
f 92//92 55//55 42//42
f 95//95 55//55 92//92
f 138//138 26//26 24//24
f 69//69 68//68 76//76
f 221//221 137//137 136//136
f 102//102 137//137 221//221
f 65//65 202//202 66//66
f 177//177 16//16 15//15
f 16//16 177//177 176//176
f 193//193 12//12 195//195
f 177//177 15//15 184//184
f 188//188 17//17 178//178
f 35//35 34//34 44//44
f 76//76 88//88 69//69
f 113//113 181//181 114//114
f 221//221 206//206 201//201
f 210//210 205//205 50//50
f 206//206 136//136 64//64
f 173//173 113//113 200//200
f 200//200 113//113 111//111
f 203//203 58//58 112//112
f 232//232 133//133 31//31
f 31//31 133//133 32//32
f 207//207 216//216 214//214
f 189//189 46//46 53//53
f 120//120 116//116 121//121
f 114//114 72//72 139//139
f 151//151 61//61 153//153
f 215//215 186//186 217//217
f 103//103 202//202 104//104
f 223//223 180//180 179//179
f 171//171 230//230 196//196
f 189//189 190//190 47//47
f 184//184 185//185 231//231
f 190//190 226//226 47//47
f 171//171 196//196 54//54
f 22//22 21//21 128//128
f 232//232 22//22 128//128
f 77//77 79//79 233//233
f 89//89 90//90 135//135
f 97//97 55//55 95//95
f 202//202 103//103 37//37
f 102//102 221//221 135//135
f 124//124 144//144 119//119
f 123//123 145//145 122//122
f 103//103 104//104 85//85
f 13//13 193//193 73//73
f 5//5 76//76 75//75
f 48//48 212//212 49//49
f 152//152 155//155 154//154
f 230//230 163//163 226//226
f 182//182 184//184 231//231
