# Blender v3.1.2 OBJ File: ''
# www.blender.org
mtllib Gear.mtl
o Gear
v 0.196669 0.083690 -0.000000
v 0.194986 0.083690 0.025670
v 0.189967 0.083690 0.050901
v 0.181698 0.083690 0.075262
v 0.363768 0.083690 0.097471
v 0.404187 0.083690 0.108301
v 0.196669 -0.083688 -0.000000
v 0.194986 -0.083688 0.025670
v 0.189967 -0.083688 0.050901
v 0.181698 -0.083688 0.075262
v 0.363768 -0.083688 0.097471
v 0.404187 -0.083688 0.108301
v 0.170320 0.083690 0.098334
v 0.156028 0.083690 0.119724
v 0.139066 0.083690 0.139066
v 0.119724 0.083690 0.156028
v 0.266296 0.083690 0.266297
v 0.295885 0.083690 0.295885
v 0.170320 -0.083688 0.098334
v 0.156028 -0.083688 0.119724
v 0.139066 -0.083688 0.139066
v 0.119724 -0.083688 0.156028
v 0.266296 -0.083688 0.266297
v 0.295885 -0.083688 0.295885
v 0.098334 0.083690 0.170320
v 0.075262 0.083690 0.181698
v 0.050901 0.083690 0.189968
v 0.025670 0.083690 0.194986
v 0.097471 0.083690 0.363768
v 0.108301 0.083690 0.404187
v 0.098334 -0.083688 0.170320
v 0.075262 -0.083688 0.181698
v 0.050901 -0.083688 0.189968
v 0.025670 -0.083688 0.194986
v 0.097471 -0.083688 0.363768
v 0.108301 -0.083688 0.404187
v -0.000000 0.083690 0.196669
v -0.025671 0.083690 0.194986
v -0.050902 0.083690 0.189968
v -0.075263 0.083690 0.181698
v -0.097472 0.083690 0.363768
v -0.108302 0.083690 0.404187
v -0.000000 -0.083688 0.196669
v -0.025671 -0.083688 0.194986
v -0.050902 -0.083688 0.189968
v -0.075263 -0.083688 0.181698
v -0.097472 -0.083688 0.363768
v -0.108302 -0.083688 0.404187
v -0.098335 0.083690 0.170320
v -0.119725 0.083690 0.156028
v -0.139067 0.083690 0.139066
v -0.156029 0.083690 0.119724
v -0.266297 0.083690 0.266297
v -0.295886 0.083690 0.295885
v -0.098335 -0.083688 0.170320
v -0.119725 -0.083688 0.156028
v -0.139067 -0.083688 0.139066
v -0.156029 -0.083688 0.119724
v -0.266297 -0.083688 0.266297
v -0.295886 -0.083688 0.295885
v -0.170321 0.083690 0.098334
v -0.181699 0.083690 0.075262
v -0.189968 0.083690 0.050901
v -0.194987 0.083690 0.025670
v -0.363769 0.083690 0.097471
v -0.404187 0.083690 0.108301
v -0.170321 -0.083688 0.098334
v -0.181699 -0.083688 0.075262
v -0.189968 -0.083688 0.050901
v -0.194987 -0.083688 0.025670
v -0.363769 -0.083688 0.097471
v -0.404187 -0.083688 0.108301
v -0.196670 0.083690 -0.000000
v -0.194987 0.083690 -0.025671
v -0.189968 0.083690 -0.050902
v -0.181699 0.083690 -0.075262
v -0.363769 0.083690 -0.097472
v -0.404187 0.083690 -0.108302
v -0.196670 -0.083688 -0.000000
v -0.194987 -0.083688 -0.025671
v -0.189968 -0.083688 -0.050902
v -0.181699 -0.083688 -0.075262
v -0.363769 -0.083688 -0.097472
v -0.404187 -0.083688 -0.108302
v -0.170321 0.083690 -0.098335
v -0.156029 0.083690 -0.119725
v -0.139067 0.083690 -0.139066
v -0.119725 0.083690 -0.156028
v -0.266297 0.083690 -0.266297
v -0.295886 0.083690 -0.295886
v -0.170321 -0.083688 -0.098335
v -0.156029 -0.083688 -0.119725
v -0.139067 -0.083688 -0.139066
v -0.119725 -0.083688 -0.156029
v -0.266297 -0.083688 -0.266297
v -0.295886 -0.083688 -0.295886
v -0.098335 0.083690 -0.170321
v -0.075263 0.083690 -0.181699
v -0.050902 0.083690 -0.189968
v -0.025671 0.083690 -0.194987
v -0.097472 0.083690 -0.363769
v -0.108302 0.083690 -0.404187
v -0.098335 -0.083688 -0.170321
v -0.075263 -0.083688 -0.181699
v -0.050902 -0.083688 -0.189968
v -0.025671 -0.083688 -0.194987
v -0.097472 -0.083688 -0.363769
v -0.108302 -0.083688 -0.404187
v -0.000000 0.083690 -0.196670
v 0.025670 0.083690 -0.194987
v 0.050901 0.083690 -0.189968
v 0.075262 0.083690 -0.181699
v 0.097471 0.083690 -0.363769
v 0.108301 0.083690 -0.404187
v -0.000000 -0.083688 -0.196670
v 0.025670 -0.083688 -0.194987
v 0.050901 -0.083688 -0.189968
v 0.075262 -0.083688 -0.181699
v 0.097471 -0.083688 -0.363769
v 0.108301 -0.083688 -0.404187
v 0.098334 0.083690 -0.170321
v 0.119724 0.083690 -0.156028
v 0.139066 0.083690 -0.139066
v 0.156028 0.083690 -0.119725
v 0.266296 0.083690 -0.266297
v 0.295885 0.083690 -0.295886
v 0.098334 -0.083688 -0.170321
v 0.119724 -0.083688 -0.156029
v 0.139066 -0.083688 -0.139066
v 0.156028 -0.083688 -0.119725
v 0.266296 -0.083688 -0.266297
v 0.295885 -0.083688 -0.295886
v 0.170320 0.083690 -0.098335
v 0.181698 0.083690 -0.075262
v 0.189967 0.083690 -0.050902
v 0.194986 0.083690 -0.025671
v 0.363768 0.083690 -0.097472
v 0.404187 0.083690 -0.108302
v 0.170320 -0.083688 -0.098335
v 0.181698 -0.083688 -0.075262
v 0.189967 -0.083688 -0.050902
v 0.194986 -0.083688 -0.025671
v 0.363768 -0.083688 -0.097472
v 0.404187 -0.083688 -0.108302
v 0.376600 0.081598 -0.000000
v 0.374503 0.083690 -0.000000
v 0.375986 0.083077 -0.000000
v 0.373515 0.081598 0.047068
v 0.371161 0.083690 0.051002
v 0.375453 0.081598 0.049429
v 0.372770 0.083077 0.049063
v 0.373385 0.082806 0.049158
v 0.373375 0.083077 0.049782
v 0.374026 0.081598 0.048624
v 0.349866 0.081598 0.144919
v 0.346936 0.083690 0.141411
v 0.347008 0.081598 0.145995
v 0.348243 0.083077 0.143575
v 0.347940 0.082806 0.144121
v 0.347360 0.083077 0.143895
v 0.348228 0.081598 0.144903
v 0.414865 0.081598 0.054618
v 0.414450 0.083690 0.056702
v 0.414743 0.083077 0.055228
v 0.387275 0.083690 0.158119
v 0.386592 0.081598 0.160132
v 0.386792 0.083077 0.159542
v 0.499630 0.081598 0.094437
v 0.499114 0.083690 0.096475
v 0.501057 0.081598 0.097366
v 0.499469 0.083077 0.095034
v 0.500515 0.082806 0.095812
v 0.500478 0.083077 0.097105
v 0.500842 0.081598 0.095664
v 0.491085 0.083690 0.131586
v 0.493108 0.081598 0.132128
v 0.492515 0.083077 0.131969
v 0.479910 0.081598 0.168030
v 0.482611 0.081598 0.166207
v 0.480484 0.083690 0.166007
v 0.481565 0.081598 0.167569
v 0.481379 0.082806 0.167302
v 0.481962 0.083077 0.166234
v 0.480162 0.083078 0.167444
v 0.374503 -0.083688 -0.000000
v 0.376600 -0.081596 -0.000000
v 0.375986 -0.083075 -0.000000
v 0.373515 -0.081596 0.047068
v 0.375453 -0.081596 0.049429
v 0.371161 -0.083688 0.051002
v 0.374026 -0.081596 0.048624
v 0.373385 -0.082804 0.049158
v 0.373375 -0.083075 0.049782
v 0.372770 -0.083075 0.049063
v 0.349866 -0.081596 0.144919
v 0.347008 -0.081596 0.145995
v 0.346936 -0.083688 0.141411
v 0.348228 -0.081596 0.144903
v 0.347940 -0.082804 0.144121
v 0.347360 -0.083075 0.143895
v 0.348243 -0.083075 0.143575
v 0.414865 -0.081596 0.054618
v 0.414450 -0.083688 0.056702
v 0.414743 -0.083075 0.055228
v 0.386592 -0.081596 0.160132
v 0.387275 -0.083688 0.158119
v 0.386792 -0.083075 0.159542
v 0.499114 -0.083688 0.096475
v 0.499630 -0.081596 0.094437
v 0.501057 -0.081596 0.097366
v 0.499555 -0.083075 0.095070
v 0.500538 -0.082804 0.095802
v 0.500832 -0.081596 0.095663
v 0.500508 -0.083075 0.097017
v 0.493108 -0.081596 0.132128
v 0.491085 -0.083688 0.131586
v 0.492515 -0.083075 0.131969
v 0.479910 -0.081596 0.168030
v 0.480484 -0.083688 0.166007
v 0.482611 -0.081596 0.166207
v 0.480069 -0.083075 0.167432
v 0.481365 -0.082804 0.167281
v 0.481979 -0.083075 0.166143
v 0.481574 -0.081596 0.167574
v 0.326145 0.081598 0.188300
v 0.324329 0.083690 0.187252
v 0.325613 0.083077 0.187993
v 0.295933 0.083690 0.229749
v 0.300437 0.081598 0.230533
v 0.299939 0.081598 0.227520
v 0.298461 0.083077 0.229800
v 0.298782 0.082806 0.229265
v 0.299604 0.081598 0.229123
v 0.298297 0.083077 0.228875
v 0.230533 0.081598 0.300437
v 0.229749 0.083690 0.295934
v 0.227520 0.081598 0.299939
v 0.229800 0.083077 0.298462
v 0.229265 0.082806 0.298782
v 0.228875 0.083077 0.298297
v 0.229123 0.081598 0.299604
v 0.330573 0.083690 0.256331
v 0.331974 0.081598 0.254733
v 0.331564 0.083077 0.255201
v 0.254733 0.081598 0.331975
v 0.256331 0.083690 0.330573
v 0.255201 0.083077 0.331564
v 0.385473 0.081598 0.331600
v 0.384008 0.083690 0.333107
v 0.385245 0.081598 0.334850
v 0.385035 0.083077 0.332036
v 0.385553 0.082806 0.333234
v 0.384874 0.083077 0.334334
v 0.385910 0.081598 0.333268
v 0.360980 0.081598 0.360980
v 0.359499 0.083690 0.359499
v 0.360546 0.083077 0.360546
v 0.333107 0.083690 0.384008
v 0.331600 0.081598 0.385474
v 0.334850 0.081598 0.385245
v 0.332111 0.083078 0.385092
v 0.333235 0.082806 0.385578
v 0.333263 0.081598 0.385902
v 0.334273 0.083077 0.384944
v 0.326145 -0.081596 0.188300
v 0.324329 -0.083688 0.187252
v 0.325613 -0.083075 0.187993
v 0.300437 -0.081596 0.230533
v 0.295933 -0.083688 0.229749
v 0.299939 -0.081596 0.227520
v 0.298461 -0.083075 0.229800
v 0.298782 -0.082804 0.229265
v 0.298297 -0.083075 0.228875
v 0.299604 -0.081596 0.229123
v 0.230533 -0.081596 0.300437
v 0.227520 -0.081596 0.299939
v 0.229749 -0.083688 0.295934
v 0.229123 -0.081596 0.299604
v 0.229265 -0.082804 0.298782
v 0.228875 -0.083075 0.298297
v 0.229800 -0.083075 0.298462
v 0.330573 -0.083688 0.256331
v 0.331974 -0.081596 0.254733
v 0.331564 -0.083075 0.255201
v 0.256331 -0.083688 0.330573
v 0.254733 -0.081596 0.331975
v 0.255201 -0.083075 0.331564
v 0.385473 -0.081596 0.331600
v 0.385245 -0.081596 0.334850
v 0.384008 -0.083688 0.333107
v 0.385901 -0.081596 0.333263
v 0.385577 -0.082804 0.333236
v 0.384944 -0.083075 0.334274
v 0.385092 -0.083075 0.332111
v 0.360980 -0.081596 0.360980
v 0.359499 -0.083688 0.359499
v 0.360546 -0.083075 0.360546
v 0.334850 -0.081596 0.385245
v 0.331600 -0.081596 0.385474
v 0.333107 -0.083688 0.384008
v 0.333268 -0.081596 0.385910
v 0.333234 -0.082804 0.385553
v 0.332036 -0.083075 0.385036
v 0.334334 -0.083075 0.384874
v 0.187251 0.083690 0.324330
v 0.188300 0.081598 0.326145
v 0.187993 0.083077 0.325614
v 0.145995 0.081598 0.347008
v 0.141411 0.083690 0.346936
v 0.144919 0.081598 0.349866
v 0.143894 0.083077 0.347360
v 0.144120 0.082806 0.347940
v 0.143575 0.083077 0.348243
v 0.144902 0.081598 0.348228
v 0.049429 0.081598 0.375453
v 0.051002 0.083690 0.371161
v 0.047068 0.081598 0.373515
v 0.049781 0.083077 0.373375
v 0.049158 0.082806 0.373386
v 0.049063 0.083077 0.372770
v 0.048624 0.081598 0.374026
v 0.160132 0.081598 0.386593
v 0.158119 0.083690 0.387276
v 0.159542 0.083077 0.386793
v 0.056702 0.083690 0.414450
v 0.054618 0.081598 0.414865
v 0.055228 0.083077 0.414744
v 0.168030 0.081598 0.479911
v 0.166007 0.083690 0.480484
v 0.166206 0.081598 0.482611
v 0.167432 0.083077 0.480070
v 0.167281 0.082806 0.481366
v 0.166143 0.083077 0.481979
v 0.167573 0.081598 0.481574
v 0.131586 0.083690 0.491085
v 0.132127 0.081598 0.493108
v 0.131969 0.083077 0.492515
v 0.094437 0.081598 0.499630
v 0.097366 0.081598 0.501057
v 0.096475 0.083690 0.499115
v 0.095663 0.081598 0.500832
v 0.095801 0.082806 0.500538
v 0.097017 0.083077 0.500508
v 0.095070 0.083078 0.499555
v 0.188300 -0.081596 0.326145
v 0.187251 -0.083688 0.324330
v 0.187993 -0.083075 0.325614
v 0.145995 -0.081596 0.347008
v 0.144919 -0.081596 0.349866
v 0.141411 -0.083688 0.346936
v 0.144902 -0.081596 0.348229
v 0.144120 -0.082804 0.347940
v 0.143575 -0.083075 0.348243
v 0.143894 -0.083075 0.347360
v 0.049429 -0.081596 0.375453
v 0.047068 -0.081596 0.373515
v 0.051002 -0.083688 0.371161
v 0.048624 -0.081596 0.374026
v 0.049158 -0.082804 0.373386
v 0.049063 -0.083075 0.372770
v 0.049781 -0.083075 0.373375
v 0.160132 -0.081596 0.386593
v 0.158119 -0.083688 0.387276
v 0.159542 -0.083075 0.386793
v 0.054618 -0.081596 0.414865
v 0.056702 -0.083688 0.414450
v 0.055228 -0.083075 0.414744
v 0.166007 -0.083688 0.480484
v 0.168030 -0.081596 0.479911
v 0.166206 -0.081596 0.482611
v 0.167444 -0.083075 0.480162
v 0.167302 -0.082804 0.481379
v 0.167569 -0.081596 0.481565
v 0.166234 -0.083075 0.481962
v 0.132127 -0.081596 0.493108
v 0.131586 -0.083688 0.491085
v 0.131969 -0.083075 0.492515
v 0.094437 -0.081596 0.499630
v 0.096475 -0.083688 0.499115
v 0.097366 -0.081596 0.501057
v 0.095034 -0.083075 0.499469
v 0.095812 -0.082804 0.500516
v 0.097105 -0.083075 0.500478
v 0.095663 -0.081596 0.500842
v -0.000000 0.081598 0.376600
v -0.000000 0.083690 0.374504
v -0.000000 0.083077 0.375986
v -0.051003 0.083690 0.371161
v -0.049430 0.081598 0.375453
v -0.047069 0.081598 0.373515
v -0.049782 0.083077 0.373375
v -0.049159 0.082806 0.373386
v -0.048625 0.081598 0.374026
v -0.049064 0.083077 0.372770
v -0.144920 0.081598 0.349866
v -0.141412 0.083690 0.346936
v -0.145996 0.081598 0.347008
v -0.143576 0.083077 0.348243
v -0.144121 0.082806 0.347940
v -0.143895 0.083077 0.347360
v -0.144903 0.081598 0.348229
v -0.056703 0.083690 0.414450
v -0.054619 0.081598 0.414865
v -0.055229 0.083077 0.414744
v -0.160133 0.081598 0.386593
v -0.158120 0.083690 0.387276
v -0.159543 0.083077 0.386793
v -0.094438 0.081598 0.499630
v -0.096476 0.083690 0.499115
v -0.097367 0.081598 0.501057
v -0.095035 0.083077 0.499469
v -0.095813 0.082806 0.500516
v -0.097106 0.083077 0.500478
v -0.095664 0.081598 0.500842
v -0.132128 0.081598 0.493108
v -0.131586 0.083690 0.491085
v -0.131970 0.083077 0.492515
v -0.166008 0.083690 0.480484
v -0.168030 0.081598 0.479911
v -0.166207 0.081598 0.482611
v -0.167445 0.083078 0.480162
v -0.167303 0.082806 0.481379
v -0.167570 0.081598 0.481565
v -0.166235 0.083077 0.481962
v -0.000000 -0.081596 0.376600
v -0.000000 -0.083688 0.374504
v -0.000000 -0.083075 0.375986
v -0.049430 -0.081596 0.375453
v -0.051003 -0.083688 0.371161
v -0.047069 -0.081596 0.373515
v -0.049782 -0.083075 0.373375
v -0.049159 -0.082804 0.373386
v -0.049064 -0.083075 0.372770
v -0.048625 -0.081596 0.374026
v -0.144920 -0.081596 0.349866
v -0.145996 -0.081596 0.347008
v -0.141412 -0.083688 0.346936
v -0.144903 -0.081596 0.348228
v -0.144121 -0.082804 0.347940
v -0.143895 -0.083075 0.347360
v -0.143576 -0.083075 0.348243
v -0.056703 -0.083688 0.414450
v -0.054619 -0.081596 0.414865
v -0.055229 -0.083075 0.414744
v -0.158120 -0.083688 0.387276
v -0.160133 -0.081596 0.386593
v -0.159543 -0.083075 0.386793
v -0.094438 -0.081596 0.499630
v -0.097367 -0.081596 0.501057
v -0.096476 -0.083688 0.499115
v -0.095664 -0.081596 0.500832
v -0.095802 -0.082804 0.500538
v -0.097018 -0.083075 0.500508
v -0.095071 -0.083075 0.499555
v -0.132128 -0.081596 0.493108
v -0.131586 -0.083688 0.491085
v -0.131970 -0.083075 0.492515
v -0.166207 -0.081596 0.482611
v -0.168030 -0.081596 0.479911
v -0.166008 -0.083688 0.480484
v -0.167574 -0.081596 0.481574
v -0.167282 -0.082804 0.481366
v -0.167433 -0.083075 0.480070
v -0.166144 -0.083075 0.481979
v -0.187252 0.083690 0.324330
v -0.188301 0.081598 0.326145
v -0.187994 0.083077 0.325614
v -0.227521 0.081598 0.299939
v -0.229750 0.083690 0.295934
v -0.230534 0.081598 0.300437
v -0.228876 0.083077 0.298297
v -0.229266 0.082806 0.298782
v -0.229801 0.083077 0.298462
v -0.229124 0.081598 0.299604
v -0.300438 0.081598 0.230533
v -0.295934 0.083690 0.229749
v -0.299940 0.081598 0.227520
v -0.298462 0.083077 0.229800
v -0.298783 0.082806 0.229265
v -0.298297 0.083077 0.228875
v -0.299604 0.081598 0.229123
v -0.254734 0.081598 0.331975
v -0.256332 0.083690 0.330573
v -0.255202 0.083077 0.331564
v -0.330574 0.083690 0.256331
v -0.331975 0.081598 0.254733
v -0.331565 0.083077 0.255201
v -0.331601 0.081598 0.385474
v -0.333108 0.083690 0.384008
v -0.334851 0.081598 0.385245
v -0.332037 0.083077 0.385036
v -0.333235 0.082806 0.385553
v -0.334335 0.083077 0.384874
v -0.333269 0.081598 0.385910
v -0.359500 0.083690 0.359499
v -0.360981 0.081598 0.360980
v -0.360547 0.083077 0.360546
v -0.385474 0.081598 0.331600
v -0.385246 0.081598 0.334850
v -0.384009 0.083690 0.333107
v -0.385902 0.081598 0.333263
v -0.385578 0.082806 0.333236
v -0.384945 0.083077 0.334274
v -0.385093 0.083078 0.332111
v -0.188301 -0.081596 0.326145
v -0.187252 -0.083688 0.324330
v -0.187994 -0.083075 0.325614
v -0.227521 -0.081596 0.299939
v -0.230534 -0.081596 0.300437
v -0.229750 -0.083688 0.295934
v -0.229124 -0.081596 0.299604
v -0.229266 -0.082804 0.298782
v -0.229801 -0.083075 0.298462
v -0.228876 -0.083075 0.298297
v -0.300438 -0.081596 0.230533
v -0.299940 -0.081596 0.227520
v -0.295934 -0.083688 0.229749
v -0.299604 -0.081596 0.229123
v -0.298783 -0.082804 0.229265
v -0.298297 -0.083075 0.228875
v -0.298462 -0.083075 0.229800
v -0.254734 -0.081596 0.331975
v -0.256332 -0.083688 0.330573
v -0.255202 -0.083075 0.331564
v -0.331975 -0.081596 0.254733
v -0.330574 -0.083688 0.256331
v -0.331565 -0.083075 0.255201
v -0.333108 -0.083688 0.384008
v -0.331601 -0.081596 0.385474
v -0.334851 -0.081596 0.385245
v -0.332111 -0.083075 0.385092
v -0.333236 -0.082804 0.385578
v -0.333264 -0.081596 0.385902
v -0.334274 -0.083075 0.384944
v -0.360981 -0.081596 0.360980
v -0.359500 -0.083688 0.359499
v -0.360547 -0.083075 0.360546
v -0.385474 -0.081596 0.331600
v -0.384009 -0.083688 0.333107
v -0.385246 -0.081596 0.334850
v -0.385036 -0.083075 0.332036
v -0.385554 -0.082804 0.333234
v -0.384875 -0.083075 0.334334
v -0.385911 -0.081596 0.333268
v -0.326146 0.081598 0.188300
v -0.324330 0.083690 0.187252
v -0.325614 0.083077 0.187993
v -0.346936 0.083690 0.141411
v -0.349867 0.081598 0.144919
v -0.347009 0.081598 0.145995
v -0.348244 0.083077 0.143575
v -0.347941 0.082806 0.144121
v -0.348229 0.081598 0.144903
v -0.347361 0.083077 0.143895
v -0.375454 0.081598 0.049429
v -0.371161 0.083690 0.051002
v -0.373516 0.081598 0.047068
v -0.373376 0.083077 0.049782
v -0.373386 0.082806 0.049158
v -0.372771 0.083077 0.049063
v -0.374027 0.081598 0.048624
v -0.387276 0.083690 0.158119
v -0.386593 0.081598 0.160132
v -0.386793 0.083077 0.159542
v -0.414866 0.081598 0.054618
v -0.414451 0.083690 0.056702
v -0.414744 0.083077 0.055228
v -0.479911 0.081598 0.168030
v -0.480484 0.083690 0.166007
v -0.482612 0.081598 0.166207
v -0.480070 0.083077 0.167432
v -0.481366 0.082806 0.167282
v -0.481980 0.083077 0.166143
v -0.481575 0.081598 0.167574
v -0.493109 0.081598 0.132128
v -0.491086 0.083690 0.131586
v -0.492516 0.083077 0.131969
v -0.499115 0.083690 0.096475
v -0.499631 0.081598 0.094437
v -0.501058 0.081598 0.097366
v -0.499556 0.083078 0.095070
v -0.500539 0.082806 0.095802
v -0.500833 0.081598 0.095663
v -0.500509 0.083077 0.097017
v -0.326146 -0.081596 0.188300
v -0.324330 -0.083688 0.187252
v -0.325614 -0.083075 0.187993
v -0.349867 -0.081596 0.144919
v -0.346936 -0.083688 0.141411
v -0.347009 -0.081596 0.145995
v -0.348244 -0.083075 0.143575
v -0.347941 -0.082804 0.144121
v -0.347361 -0.083075 0.143895
v -0.348229 -0.081596 0.144903
v -0.375454 -0.081596 0.049429
v -0.373516 -0.081596 0.047068
v -0.371161 -0.083688 0.051002
v -0.374027 -0.081596 0.048624
v -0.373386 -0.082804 0.049158
v -0.372771 -0.083075 0.049063
v -0.373376 -0.083075 0.049782
v -0.387276 -0.083688 0.158119
v -0.386593 -0.081596 0.160132
v -0.386793 -0.083075 0.159542
v -0.414451 -0.083688 0.056702
v -0.414866 -0.081596 0.054618
v -0.414744 -0.083075 0.055228
v -0.479911 -0.081596 0.168030
v -0.482612 -0.081596 0.166207
v -0.480484 -0.083688 0.166007
v -0.481566 -0.081596 0.167569
v -0.481380 -0.082804 0.167302
v -0.481962 -0.083075 0.166234
v -0.480163 -0.083075 0.167444
v -0.493109 -0.081596 0.132128
v -0.491086 -0.083688 0.131586
v -0.492516 -0.083075 0.131969
v -0.501058 -0.081596 0.097366
v -0.499631 -0.081596 0.094437
v -0.499115 -0.083688 0.096475
v -0.500843 -0.081596 0.095664
v -0.500516 -0.082804 0.095812
v -0.499470 -0.083075 0.095034
v -0.500479 -0.083075 0.097105
v -0.374504 0.083690 -0.000000
v -0.376601 0.081598 -0.000000
v -0.375987 0.083077 -0.000000
v -0.373516 0.081598 -0.047069
v -0.371161 0.083690 -0.051002
v -0.375454 0.081598 -0.049430
v -0.372771 0.083077 -0.049064
v -0.373386 0.082806 -0.049158
v -0.373376 0.083077 -0.049782
v -0.374027 0.081598 -0.048625
v -0.349867 0.081598 -0.144920
v -0.346936 0.083690 -0.141412
v -0.347009 0.081598 -0.145996
v -0.348244 0.083077 -0.143576
v -0.347941 0.082806 -0.144121
v -0.347361 0.083078 -0.143895
v -0.348229 0.081598 -0.144903
v -0.414866 0.081598 -0.054618
v -0.414451 0.083690 -0.056703
v -0.414744 0.083077 -0.055229
v -0.387276 0.083690 -0.158120
v -0.386593 0.081598 -0.160132
v -0.386793 0.083078 -0.159543
v -0.499631 0.081598 -0.094438
v -0.499115 0.083690 -0.096476
v -0.501058 0.081598 -0.097367
v -0.499470 0.083078 -0.095034
v -0.500516 0.082806 -0.095813
v -0.500479 0.083078 -0.097106
v -0.500843 0.081598 -0.095664
v -0.491086 0.083690 -0.131586
v -0.493109 0.081598 -0.132128
v -0.492516 0.083078 -0.131969
v -0.479911 0.081598 -0.168030
v -0.482612 0.081598 -0.166207
v -0.480484 0.083690 -0.166007
v -0.481566 0.081598 -0.167569
v -0.481380 0.082806 -0.167303
v -0.481962 0.083078 -0.166235
v -0.480163 0.083078 -0.167444
v -0.376601 -0.081596 -0.000000
v -0.374504 -0.083688 -0.000000
v -0.375987 -0.083075 -0.000000
v -0.373516 -0.081596 -0.047069
v -0.375454 -0.081596 -0.049430
v -0.371161 -0.083688 -0.051003
v -0.374027 -0.081596 -0.048625
v -0.373386 -0.082804 -0.049158
v -0.373376 -0.083075 -0.049782
v -0.372771 -0.083075 -0.049064
v -0.349867 -0.081596 -0.144920
v -0.347009 -0.081596 -0.145996
v -0.346936 -0.083688 -0.141412
v -0.348229 -0.081596 -0.144903
v -0.347941 -0.082804 -0.144121
v -0.347361 -0.083075 -0.143895
v -0.348244 -0.083075 -0.143576
v -0.414866 -0.081596 -0.054618
v -0.414451 -0.083688 -0.056703
v -0.414744 -0.083075 -0.055229
v -0.386593 -0.081596 -0.160132
v -0.387276 -0.083688 -0.158120
v -0.386793 -0.083075 -0.159543
v -0.499115 -0.083688 -0.096476
v -0.499631 -0.081596 -0.094438
v -0.501058 -0.081596 -0.097367
v -0.499556 -0.083075 -0.095071
v -0.500539 -0.082804 -0.095802
v -0.500833 -0.081596 -0.095664
v -0.500509 -0.083075 -0.097018
v -0.493109 -0.081596 -0.132128
v -0.491086 -0.083688 -0.131586
v -0.492516 -0.083075 -0.131969
v -0.479911 -0.081596 -0.168030
v -0.480484 -0.083688 -0.166007
v -0.482612 -0.081596 -0.166207
v -0.480070 -0.083075 -0.167433
v -0.481366 -0.082803 -0.167282
v -0.481980 -0.083075 -0.166144
v -0.481575 -0.081596 -0.167574
v -0.326146 0.081598 -0.188301
v -0.324330 0.083690 -0.187252
v -0.325614 0.083078 -0.187994
v -0.295934 0.083690 -0.229750
v -0.300438 0.081598 -0.230534
v -0.299940 0.081598 -0.227521
v -0.298462 0.083077 -0.229800
v -0.298783 0.082806 -0.229265
v -0.299604 0.081598 -0.229124
v -0.298298 0.083078 -0.228876
v -0.230534 0.081598 -0.300438
v -0.229750 0.083690 -0.295934
v -0.227521 0.081598 -0.299940
v -0.229801 0.083077 -0.298462
v -0.229265 0.082806 -0.298783
v -0.228876 0.083078 -0.298297
v -0.229124 0.081598 -0.299604
v -0.330574 0.083690 -0.256331
v -0.331975 0.081598 -0.254734
v -0.331565 0.083078 -0.255202
v -0.254734 0.081598 -0.331975
v -0.256332 0.083690 -0.330574
v -0.255202 0.083078 -0.331565
v -0.385474 0.081598 -0.331600
v -0.384009 0.083690 -0.333108
v -0.385246 0.081598 -0.334851
v -0.385036 0.083078 -0.332037
v -0.385554 0.082806 -0.333234
v -0.384875 0.083078 -0.334335
v -0.385911 0.081598 -0.333269
v -0.360981 0.081598 -0.360980
v -0.359500 0.083690 -0.359500
v -0.360547 0.083078 -0.360547
v -0.333108 0.083690 -0.384009
v -0.331601 0.081598 -0.385474
v -0.334851 0.081598 -0.385246
v -0.332111 0.083078 -0.385093
v -0.333236 0.082806 -0.385578
v -0.333264 0.081598 -0.385902
v -0.334274 0.083078 -0.384945
v -0.326146 -0.081596 -0.188301
v -0.324330 -0.083688 -0.187252
v -0.325614 -0.083075 -0.187994
v -0.300438 -0.081596 -0.230534
v -0.295934 -0.083688 -0.229750
v -0.299940 -0.081596 -0.227521
v -0.298462 -0.083075 -0.229800
v -0.298783 -0.082804 -0.229265
v -0.298298 -0.083075 -0.228876
v -0.299604 -0.081596 -0.229124
v -0.230534 -0.081596 -0.300438
v -0.227521 -0.081596 -0.299940
v -0.229750 -0.083688 -0.295934
v -0.229124 -0.081596 -0.299604
v -0.229266 -0.082803 -0.298783
v -0.228876 -0.083075 -0.298297
v -0.229801 -0.083075 -0.298462
v -0.330574 -0.083688 -0.256331
v -0.331975 -0.081596 -0.254734
v -0.331565 -0.083075 -0.255202
v -0.256332 -0.083688 -0.330574
v -0.254734 -0.081596 -0.331975
v -0.255202 -0.083075 -0.331565
v -0.385474 -0.081596 -0.331600
v -0.385246 -0.081596 -0.334851
v -0.384009 -0.083688 -0.333108
v -0.385902 -0.081596 -0.333264
v -0.385578 -0.082803 -0.333236
v -0.384945 -0.083075 -0.334274
v -0.385093 -0.083075 -0.332111
v -0.360981 -0.081596 -0.360980
v -0.359500 -0.083688 -0.359500
v -0.360547 -0.083075 -0.360547
v -0.334851 -0.081596 -0.385246
v -0.331601 -0.081596 -0.385474
v -0.333108 -0.083688 -0.384009
v -0.333269 -0.081596 -0.385911
v -0.333235 -0.082803 -0.385554
v -0.332037 -0.083075 -0.385036
v -0.334335 -0.083075 -0.384875
v -0.187252 0.083690 -0.324330
v -0.188301 0.081598 -0.326146
v -0.187994 0.083078 -0.325614
v -0.145996 0.081598 -0.347009
v -0.141412 0.083690 -0.346936
v -0.144920 0.081598 -0.349867
v -0.143895 0.083078 -0.347361
v -0.144121 0.082806 -0.347941
v -0.143576 0.083077 -0.348244
v -0.144903 0.081598 -0.348229
v -0.047069 0.081598 -0.373516
v -0.049430 0.081598 -0.375453
v -0.051003 0.083690 -0.371161
v -0.048625 0.081598 -0.374027
v -0.049159 0.082806 -0.373386
v -0.049782 0.083077 -0.373376
v -0.049064 0.083078 -0.372771
v -0.160133 0.081598 -0.386593
v -0.158120 0.083690 -0.387276
v -0.159543 0.083078 -0.386793
v -0.056703 0.083690 -0.414451
v -0.054619 0.081598 -0.414866
v -0.055229 0.083078 -0.414744
v -0.168030 0.081598 -0.479911
v -0.166008 0.083690 -0.480484
v -0.166207 0.081598 -0.482612
v -0.167433 0.083078 -0.480070
v -0.167282 0.082806 -0.481366
v -0.166144 0.083078 -0.481980
v -0.167574 0.081598 -0.481575
v -0.131586 0.083690 -0.491086
v -0.132128 0.081598 -0.493108
v -0.131970 0.083078 -0.492516
v -0.094438 0.081598 -0.499630
v -0.097367 0.081598 -0.501058
v -0.096476 0.083690 -0.499115
v -0.095664 0.081598 -0.500833
v -0.095802 0.082806 -0.500538
v -0.097018 0.083078 -0.500509
v -0.095071 0.083078 -0.499555
v -0.188301 -0.081596 -0.326146
v -0.187252 -0.083688 -0.324330
v -0.187994 -0.083075 -0.325614
v -0.145996 -0.081596 -0.347009
v -0.144920 -0.081596 -0.349867
v -0.141412 -0.083688 -0.346936
v -0.144903 -0.081596 -0.348229
v -0.144121 -0.082803 -0.347941
v -0.143576 -0.083075 -0.348244
v -0.143895 -0.083075 -0.347361
v -0.047069 -0.081596 -0.373516
v -0.051003 -0.083688 -0.371161
v -0.049430 -0.081596 -0.375453
v -0.049064 -0.083075 -0.372771
v -0.049159 -0.082803 -0.373386
v -0.049782 -0.083075 -0.373376
v -0.048625 -0.081596 -0.374027
v -0.160133 -0.081596 -0.386593
v -0.158120 -0.083688 -0.387276
v -0.159543 -0.083075 -0.386793
v -0.054619 -0.081596 -0.414866
v -0.056703 -0.083688 -0.414451
v -0.055229 -0.083075 -0.414744
v -0.166008 -0.083688 -0.480484
v -0.168030 -0.081595 -0.479911
v -0.166207 -0.081595 -0.482612
v -0.167445 -0.083075 -0.480163
v -0.167303 -0.082803 -0.481380
v -0.167570 -0.081595 -0.481566
v -0.166235 -0.083075 -0.481962
v -0.132128 -0.081595 -0.493108
v -0.131586 -0.083688 -0.491086
v -0.131970 -0.083075 -0.492516
v -0.094438 -0.081595 -0.499630
v -0.096476 -0.083688 -0.499115
v -0.097367 -0.081595 -0.501058
v -0.095035 -0.083075 -0.499469
v -0.095813 -0.082803 -0.500516
v -0.097106 -0.083075 -0.500479
v -0.095664 -0.081595 -0.500843
v -0.000000 0.081598 -0.376601
v -0.000000 0.083690 -0.374504
v -0.000000 0.083078 -0.375987
v 0.047068 0.081598 -0.373516
v 0.051002 0.083690 -0.371161
v 0.049429 0.081598 -0.375453
v 0.049063 0.083078 -0.372771
v 0.049158 0.082806 -0.373386
v 0.049781 0.083077 -0.373376
v 0.048624 0.081598 -0.374027
v 0.144919 0.081598 -0.349867
v 0.141411 0.083690 -0.346936
v 0.145995 0.081598 -0.347009
v 0.143575 0.083077 -0.348244
v 0.144120 0.082806 -0.347941
v 0.143895 0.083078 -0.347361
v 0.144902 0.081598 -0.348229
v 0.056702 0.083690 -0.414451
v 0.054618 0.081598 -0.414866
v 0.055228 0.083078 -0.414744
v 0.160132 0.081598 -0.386593
v 0.158119 0.083690 -0.387276
v 0.159542 0.083078 -0.386793
v 0.094437 0.081598 -0.499630
v 0.096475 0.083690 -0.499115
v 0.097366 0.081598 -0.501058
v 0.095034 0.083078 -0.499469
v 0.095812 0.082806 -0.500516
v 0.097105 0.083078 -0.500479
v 0.095663 0.081598 -0.500843
v 0.132127 0.081598 -0.493108
v 0.131586 0.083690 -0.491086
v 0.131969 0.083078 -0.492516
v 0.168030 0.081598 -0.479911
v 0.166206 0.081598 -0.482612
v 0.166007 0.083690 -0.480484
v 0.167569 0.081598 -0.481566
v 0.167302 0.082806 -0.481380
v 0.166234 0.083078 -0.481962
v 0.167444 0.083078 -0.480163
v -0.000000 -0.081596 -0.376601
v -0.000000 -0.083688 -0.374504
v -0.000000 -0.083075 -0.375987
v 0.047068 -0.081596 -0.373516
v 0.049429 -0.081596 -0.375453
v 0.051002 -0.083688 -0.371161
v 0.048624 -0.081596 -0.374027
v 0.049158 -0.082803 -0.373386
v 0.049781 -0.083075 -0.373376
v 0.049063 -0.083075 -0.372771
v 0.141411 -0.083688 -0.346936
v 0.144919 -0.081596 -0.349867
v 0.145995 -0.081596 -0.347009
v 0.143575 -0.083075 -0.348244
v 0.144120 -0.082803 -0.347941
v 0.144902 -0.081596 -0.348229
v 0.143895 -0.083075 -0.347361
v 0.056702 -0.083688 -0.414451
v 0.054618 -0.081596 -0.414866
v 0.055228 -0.083075 -0.414744
v 0.158119 -0.083688 -0.387276
v 0.160132 -0.081596 -0.386593
v 0.159542 -0.083075 -0.386793
v 0.094437 -0.081595 -0.499630
v 0.097366 -0.081595 -0.501058
v 0.096475 -0.083688 -0.499115
v 0.095663 -0.081595 -0.500833
v 0.095801 -0.082803 -0.500538
v 0.097017 -0.083075 -0.500509
v 0.095070 -0.083075 -0.499555
v 0.132127 -0.081595 -0.493108
v 0.131586 -0.083688 -0.491086
v 0.131969 -0.083075 -0.492516
v 0.166206 -0.081595 -0.482612
v 0.168030 -0.081595 -0.479911
v 0.166007 -0.083688 -0.480484
v 0.167573 -0.081595 -0.481575
v 0.167281 -0.082803 -0.481366
v 0.167432 -0.083075 -0.480070
v 0.166143 -0.083075 -0.481980
v 0.187251 0.083690 -0.324330
v 0.188300 0.081598 -0.326146
v 0.187993 0.083078 -0.325614
v 0.230533 0.081598 -0.300438
v 0.227520 0.081598 -0.299940
v 0.229749 0.083690 -0.295934
v 0.229123 0.081598 -0.299604
v 0.229265 0.082806 -0.298783
v 0.228875 0.083078 -0.298297
v 0.229800 0.083077 -0.298462
v 0.300437 0.081598 -0.230534
v 0.295933 0.083690 -0.229750
v 0.299939 0.081598 -0.227521
v 0.298461 0.083077 -0.229800
v 0.298782 0.082806 -0.229265
v 0.298297 0.083078 -0.228876
v 0.299604 0.081598 -0.229124
v 0.254733 0.081598 -0.331975
v 0.256331 0.083690 -0.330574
v 0.255201 0.083078 -0.331565
v 0.330573 0.083690 -0.256331
v 0.331974 0.081598 -0.254734
v 0.331564 0.083078 -0.255202
v 0.331600 0.081598 -0.385474
v 0.333107 0.083690 -0.384009
v 0.334850 0.081598 -0.385246
v 0.332036 0.083078 -0.385036
v 0.333234 0.082806 -0.385554
v 0.334334 0.083078 -0.384875
v 0.333268 0.081598 -0.385911
v 0.359499 0.083690 -0.359500
v 0.360980 0.081598 -0.360980
v 0.360546 0.083078 -0.360547
v 0.384008 0.083690 -0.333108
v 0.385473 0.081598 -0.331600
v 0.385245 0.081598 -0.334851
v 0.385092 0.083078 -0.332111
v 0.385577 0.082806 -0.333236
v 0.385901 0.081598 -0.333264
v 0.384944 0.083078 -0.334274
v 0.188300 -0.081596 -0.326146
v 0.187251 -0.083688 -0.324330
v 0.187993 -0.083075 -0.325614
v 0.227520 -0.081596 -0.299940
v 0.230533 -0.081596 -0.300438
v 0.229749 -0.083688 -0.295934
v 0.229123 -0.081596 -0.299604
v 0.229265 -0.082803 -0.298783
v 0.229800 -0.083075 -0.298462
v 0.228875 -0.083075 -0.298297
v 0.299939 -0.081596 -0.227521
v 0.295933 -0.083688 -0.229750
v 0.300437 -0.081596 -0.230534
v 0.298297 -0.083075 -0.228876
v 0.298782 -0.082804 -0.229265
v 0.298461 -0.083075 -0.229800
v 0.299604 -0.081596 -0.229124
v 0.254733 -0.081596 -0.331975
v 0.256331 -0.083688 -0.330574
v 0.255201 -0.083075 -0.331565
v 0.331974 -0.081596 -0.254734
v 0.330573 -0.083688 -0.256331
v 0.331564 -0.083075 -0.255202
v 0.333107 -0.083688 -0.384009
v 0.331600 -0.081596 -0.385474
v 0.334850 -0.081596 -0.385246
v 0.332111 -0.083075 -0.385093
v 0.333235 -0.082803 -0.385578
v 0.333263 -0.081596 -0.385902
v 0.334273 -0.083075 -0.384945
v 0.360980 -0.081596 -0.360980
v 0.359499 -0.083688 -0.359500
v 0.360546 -0.083075 -0.360547
v 0.385473 -0.081596 -0.331600
v 0.384008 -0.083688 -0.333108
v 0.385245 -0.081596 -0.334851
v 0.385035 -0.083075 -0.332037
v 0.385553 -0.082803 -0.333234
v 0.384874 -0.083075 -0.334335
v 0.385910 -0.081596 -0.333269
v 0.326145 0.081598 -0.188301
v 0.324329 0.083690 -0.187252
v 0.325613 0.083078 -0.187994
v 0.349866 0.081598 -0.144920
v 0.347008 0.081598 -0.145996
v 0.346936 0.083690 -0.141412
v 0.348228 0.081598 -0.144903
v 0.347940 0.082806 -0.144121
v 0.347360 0.083078 -0.143895
v 0.348243 0.083077 -0.143576
v 0.371161 0.083690 -0.051002
v 0.373515 0.081598 -0.047069
v 0.375453 0.081598 -0.049430
v 0.372770 0.083077 -0.049064
v 0.373385 0.082806 -0.049158
v 0.374026 0.081598 -0.048625
v 0.373375 0.083077 -0.049782
v 0.387275 0.083690 -0.158120
v 0.386592 0.081598 -0.160132
v 0.386792 0.083078 -0.159543
v 0.414865 0.081598 -0.054618
v 0.414450 0.083690 -0.056703
v 0.414743 0.083077 -0.055229
v 0.479910 0.081598 -0.168030
v 0.480484 0.083690 -0.166007
v 0.482611 0.081598 -0.166207
v 0.480069 0.083078 -0.167433
v 0.481365 0.082806 -0.167282
v 0.481979 0.083078 -0.166144
v 0.481574 0.081598 -0.167574
v 0.493108 0.081598 -0.132128
v 0.491085 0.083690 -0.131586
v 0.492515 0.083078 -0.131969
v 0.499630 0.081598 -0.094438
v 0.501057 0.081598 -0.097367
v 0.499114 0.083690 -0.096476
v 0.500832 0.081598 -0.095664
v 0.500538 0.082806 -0.095802
v 0.500508 0.083078 -0.097018
v 0.499555 0.083078 -0.095071
v 0.326145 -0.081596 -0.188301
v 0.324329 -0.083688 -0.187252
v 0.325613 -0.083075 -0.187994
v 0.347008 -0.081596 -0.145996
v 0.349866 -0.081596 -0.144920
v 0.346936 -0.083688 -0.141412
v 0.348228 -0.081596 -0.144903
v 0.347940 -0.082804 -0.144121
v 0.348243 -0.083075 -0.143576
v 0.347360 -0.083075 -0.143895
v 0.375453 -0.081596 -0.049430
v 0.373515 -0.081596 -0.047069
v 0.371161 -0.083688 -0.051003
v 0.374026 -0.081596 -0.048625
v 0.373385 -0.082804 -0.049158
v 0.372770 -0.083075 -0.049064
v 0.373375 -0.083075 -0.049782
v 0.386592 -0.081596 -0.160132
v 0.387275 -0.083688 -0.158120
v 0.386792 -0.083075 -0.159543
v 0.414450 -0.083688 -0.056703
v 0.414865 -0.081596 -0.054618
v 0.414743 -0.083075 -0.055229
v 0.479910 -0.081596 -0.168030
v 0.482611 -0.081596 -0.166207
v 0.480484 -0.083688 -0.166007
v 0.481565 -0.081596 -0.167569
v 0.481379 -0.082804 -0.167303
v 0.481962 -0.083075 -0.166235
v 0.480162 -0.083075 -0.167444
v 0.493108 -0.081596 -0.132128
v 0.491085 -0.083688 -0.131586
v 0.492515 -0.083075 -0.131969
v 0.501057 -0.081596 -0.097367
v 0.499630 -0.081596 -0.094438
v 0.499114 -0.083688 -0.096476
v 0.500842 -0.081596 -0.095664
v 0.500515 -0.082804 -0.095813
v 0.499469 -0.083075 -0.095034
v 0.500478 -0.083075 -0.097106
vn 0.9979 -0.0000 0.0654
vn -0.0000 1.0000 0.0000
vn 0.1305 0.0000 -0.9914
vn -0.3827 -0.0000 0.9239
vn 0.4252 0.0000 -0.9051
vn -0.0843 -0.0000 0.9964
vn -0.0000 -1.0000 -0.0000
vn 0.8315 -0.0000 0.5556
vn 0.9979 0.0000 -0.0654
vn 0.9557 -0.0000 0.2944
vn 0.9748 -0.0000 0.2229
vn 0.8969 -0.0000 0.4423
vn 0.6088 0.0000 -0.7934
vn -0.7934 0.0000 0.6088
vn 0.8208 0.0000 -0.5713
vn -0.5713 0.0000 0.8208
vn 0.6805 0.0000 0.7328
vn 0.7328 0.0000 0.6805
vn 0.5556 0.0000 0.8315
vn 0.4423 0.0000 0.8969
vn 0.9239 0.0000 -0.3827
vn -0.9914 0.0000 0.1305
vn 0.9964 0.0000 -0.0843
vn -0.9051 0.0000 0.4252
vn -0.0654 0.0000 0.9979
vn 0.2229 0.0000 0.9748
vn 0.2944 0.0000 0.9557
vn 0.0654 0.0000 0.9979
vn 0.9914 0.0000 0.1305
vn -0.9239 0.0000 -0.3827
vn 0.9051 0.0000 0.4252
vn -0.9964 0.0000 -0.0843
vn -0.2944 0.0000 0.9557
vn -0.2229 0.0000 0.9748
vn -0.4423 0.0000 0.8969
vn -0.5556 0.0000 0.8315
vn 0.7934 0.0000 0.6088
vn -0.6088 0.0000 -0.7934
vn 0.5713 0.0000 0.8208
vn -0.8208 0.0000 -0.5713
vn -0.8969 -0.0000 0.4423
vn -0.7328 0.0000 0.6805
vn -0.6805 0.0000 0.7328
vn -0.8315 0.0000 0.5556
vn 0.3827 -0.0000 0.9239
vn -0.1305 0.0000 -0.9914
vn 0.0843 -0.0000 0.9964
vn -0.4252 0.0000 -0.9051
vn -0.9748 -0.0000 0.2229
vn -0.9557 0.0000 0.2944
vn -0.9979 0.0000 0.0654
vn -0.9979 0.0000 -0.0654
vn -0.1305 -0.0000 0.9914
vn 0.3827 0.0000 -0.9239
vn -0.4252 -0.0000 0.9051
vn 0.0843 0.0000 -0.9964
vn -0.8315 0.0000 -0.5556
vn -0.9557 0.0000 -0.2944
vn -0.9748 0.0000 -0.2229
vn -0.8969 0.0000 -0.4423
vn -0.6088 -0.0000 0.7934
vn 0.7934 0.0000 -0.6088
vn -0.8208 0.0000 0.5713
vn 0.5713 0.0000 -0.8208
vn -0.6805 0.0000 -0.7328
vn -0.7328 0.0000 -0.6805
vn -0.5556 0.0000 -0.8315
vn -0.4423 0.0000 -0.8969
vn -0.9239 0.0000 0.3827
vn 0.9914 0.0000 -0.1305
vn -0.9964 0.0000 0.0843
vn 0.9051 0.0000 -0.4252
vn 0.0654 0.0000 -0.9979
vn -0.2229 0.0000 -0.9748
vn -0.2944 0.0000 -0.9557
vn 0.4423 0.0000 -0.8969
vn -0.9914 0.0000 -0.1305
vn -0.9051 0.0000 -0.4252
vn 0.9964 0.0000 0.0843
vn 0.2944 0.0000 -0.9557
vn 0.2229 0.0000 -0.9748
vn -0.0654 0.0000 -0.9979
vn 0.5556 0.0000 -0.8315
vn -0.7934 0.0000 -0.6088
vn -0.5713 0.0000 -0.8208
vn 0.8208 0.0000 0.5713
vn 0.8969 0.0000 -0.4423
vn 0.7328 0.0000 -0.6805
vn 0.6805 0.0000 -0.7328
vn 0.8315 0.0000 -0.5556
vn 0.9239 0.0000 0.3827
vn 0.1305 -0.0000 0.9914
vn -0.3827 0.0000 -0.9239
vn -0.0843 0.0000 -0.9964
vn 0.4252 -0.0000 0.9051
vn 0.9748 0.0000 -0.2229
vn 0.9557 -0.0000 -0.2944
vn 0.6088 -0.0000 0.7934
vn 0.6634 0.6649 -0.3432
vn 0.2239 0.9562 -0.1883
vn 0.4646 0.6633 -0.5866
vn 0.1090 0.6633 0.7403
vn 0.0998 0.9562 0.2751
vn 0.4029 0.6649 0.6290
vn 0.6516 0.3103 -0.6922
vn 0.4455 0.8686 -0.2171
vn 0.9453 0.3151 -0.0845
vn 0.2228 0.2899 0.9308
vn 0.7792 0.2916 0.5548
vn 0.2733 0.8719 0.4063
vn 0.6634 -0.6649 -0.3432
vn 0.4646 -0.6633 -0.5866
vn 0.2239 -0.9562 -0.1883
vn 0.1091 -0.6633 0.7403
vn 0.4029 -0.6649 0.6290
vn 0.0998 -0.9562 0.2751
vn 0.4399 -0.8719 -0.2152
vn 0.6583 -0.2899 -0.6947
vn 0.9522 -0.2917 -0.0908
vn 0.2182 -0.3103 0.9253
vn 0.2773 -0.8686 0.4107
vn 0.7764 -0.3150 0.5458
vn 0.2881 0.9562 -0.0511
vn 0.6957 0.6633 -0.2757
vn 0.7461 0.6649 0.0345
vn -0.2757 0.6633 0.6957
vn -0.0511 0.9562 0.2881
vn 0.0345 0.6649 0.7461
vn 0.9104 0.3103 -0.2737
vn 0.4943 0.8686 0.0348
vn 0.8609 0.3151 0.3995
vn 0.0335 0.8719 0.4885
vn -0.2724 0.2899 0.9175
vn 0.3974 0.2917 0.8700
vn 0.6957 -0.6633 -0.2757
vn 0.2881 -0.9562 -0.0511
vn 0.7461 -0.6649 0.0345
vn -0.2757 -0.6633 0.6957
vn 0.0345 -0.6649 0.7461
vn -0.0511 -0.9562 0.2881
vn 0.9175 -0.2899 -0.2724
vn 0.8700 -0.2917 0.3974
vn 0.4885 -0.8719 0.0335
vn 0.3995 -0.3151 0.8609
vn -0.2736 -0.3103 0.9104
vn 0.0348 -0.8686 0.4943
vn 0.6289 0.6649 0.4029
vn 0.2751 0.9562 0.0998
vn 0.7404 0.6633 0.1090
vn -0.5866 0.6633 0.4646
vn -0.1883 0.9562 0.2239
vn -0.3432 0.6649 0.6634
vn 0.9253 0.3103 0.2182
vn 0.4107 0.8686 0.2773
vn 0.5458 0.3151 0.7764
vn -0.6947 0.2899 0.6583
vn -0.0908 0.2917 0.9522
vn -0.2152 0.8719 0.4398
vn 0.6289 -0.6649 0.4029
vn 0.7404 -0.6633 0.1090
vn 0.2751 -0.9562 0.0998
vn -0.5866 -0.6633 0.4646
vn -0.3432 -0.6649 0.6634
vn -0.1883 -0.9562 0.2240
vn 0.4063 -0.8719 0.2733
vn 0.9308 -0.2899 0.2228
vn 0.5548 -0.2916 0.7792
vn -0.6922 -0.3103 0.6516
vn -0.2171 -0.8686 0.4455
vn -0.0845 -0.3151 0.9453
vn 0.1883 0.9562 0.2239
vn 0.5866 0.6633 0.4646
vn 0.3432 0.6649 0.6634
vn -0.7403 0.6633 0.1090
vn -0.2751 0.9562 0.0998
vn -0.6289 0.6649 0.4029
vn 0.6922 0.3103 0.6516
vn 0.2171 0.8686 0.4455
vn 0.0845 0.3151 0.9453
vn -0.4063 0.8719 0.2733
vn -0.9308 0.2899 0.2228
vn -0.5548 0.2917 0.7792
vn 0.5866 -0.6633 0.4646
vn 0.1883 -0.9562 0.2240
vn 0.3432 -0.6649 0.6634
vn -0.7403 -0.6633 0.1090
vn -0.6289 -0.6649 0.4029
vn -0.2751 -0.9562 0.0998
vn 0.6947 -0.2899 0.6583
vn 0.0908 -0.2917 0.9522
vn 0.2152 -0.8719 0.4398
vn -0.5458 -0.3151 0.7764
vn -0.9253 -0.3103 0.2182
vn -0.4107 -0.8686 0.2773
vn -0.0345 0.6649 0.7461
vn 0.0511 0.9562 0.2881
vn 0.2757 0.6633 0.6957
vn -0.6957 0.6633 -0.2757
vn -0.2881 0.9562 -0.0511
vn -0.7461 0.6649 0.0345
vn 0.2736 0.3103 0.9104
vn -0.0348 0.8686 0.4943
vn -0.3995 0.3151 0.8609
vn -0.9175 0.2899 -0.2724
vn -0.8700 0.2917 0.3974
vn -0.4885 0.8719 0.0335
vn -0.0345 -0.6649 0.7461
vn 0.2757 -0.6633 0.6957
vn 0.0511 -0.9562 0.2881
vn -0.6957 -0.6633 -0.2757
vn -0.7461 -0.6649 0.0345
vn -0.2881 -0.9562 -0.0511
vn -0.0335 -0.8719 0.4885
vn 0.2724 -0.2899 0.9175
vn -0.3974 -0.2917 0.8700
vn -0.9104 -0.3103 -0.2737
vn -0.4943 -0.8686 0.0348
vn -0.8609 -0.3150 0.3995
vn -0.0998 0.9562 0.2751
vn -0.1091 0.6633 0.7403
vn -0.4029 0.6649 0.6289
vn -0.4646 0.6633 -0.5866
vn -0.2239 0.9562 -0.1883
vn -0.6634 0.6649 -0.3432
vn -0.2182 0.3103 0.9253
vn -0.2772 0.8686 0.4107
vn -0.7764 0.3150 0.5458
vn -0.4398 0.8719 -0.2152
vn -0.6584 0.2899 -0.6946
vn -0.9522 0.2916 -0.0909
vn -0.1091 -0.6633 0.7403
vn -0.0998 -0.9562 0.2751
vn -0.4029 -0.6649 0.6289
vn -0.4646 -0.6633 -0.5866
vn -0.6634 -0.6649 -0.3432
vn -0.2239 -0.9562 -0.1883
vn -0.2228 -0.2899 0.9308
vn -0.7792 -0.2917 0.5548
vn -0.2733 -0.8719 0.4063
vn -0.9453 -0.3151 -0.0844
vn -0.6516 -0.3103 -0.6922
vn -0.4455 -0.8686 -0.2171
vn -0.6634 0.6649 0.3432
vn -0.2239 0.9562 0.1883
vn -0.4646 0.6633 0.5866
vn -0.1091 0.6633 -0.7403
vn -0.0998 0.9562 -0.2751
vn -0.4029 0.6649 -0.6289
vn -0.6516 0.3103 0.6922
vn -0.4455 0.8686 0.2171
vn -0.9453 0.3151 0.0845
vn -0.2228 0.2899 -0.9308
vn -0.7792 0.2916 -0.5548
vn -0.2733 0.8719 -0.4063
vn -0.6634 -0.6649 0.3432
vn -0.4646 -0.6633 0.5866
vn -0.2240 -0.9562 0.1883
vn -0.1091 -0.6633 -0.7403
vn -0.4029 -0.6649 -0.6289
vn -0.0998 -0.9562 -0.2751
vn -0.4398 -0.8719 0.2152
vn -0.6584 -0.2899 0.6946
vn -0.9522 -0.2916 0.0909
vn -0.2182 -0.3103 -0.9253
vn -0.2773 -0.8686 -0.4107
vn -0.7765 -0.3150 -0.5458
vn -0.2881 0.9562 0.0511
vn -0.6957 0.6633 0.2757
vn -0.7461 0.6649 -0.0345
vn 0.2757 0.6633 -0.6957
vn 0.0511 0.9562 -0.2881
vn -0.0345 0.6649 -0.7461
vn -0.9104 0.3103 0.2737
vn -0.4943 0.8686 -0.0348
vn -0.8609 0.3150 -0.3995
vn -0.0335 0.8719 -0.4885
vn 0.2724 0.2899 -0.9175
vn -0.3974 0.2917 -0.8700
vn -0.6957 -0.6633 0.2757
vn -0.2881 -0.9562 0.0511
vn -0.7461 -0.6649 -0.0345
vn 0.2757 -0.6633 -0.6957
vn -0.0345 -0.6649 -0.7461
vn 0.0511 -0.9562 -0.2881
vn -0.9175 -0.2899 0.2724
vn -0.8700 -0.2917 -0.3974
vn -0.4885 -0.8719 -0.0335
vn -0.3995 -0.3151 -0.8609
vn 0.2736 -0.3103 -0.9104
vn -0.0348 -0.8686 -0.4943
vn -0.6289 0.6649 -0.4029
vn -0.2751 0.9562 -0.0998
vn -0.7404 0.6633 -0.1090
vn 0.3432 0.6649 -0.6634
vn 0.5866 0.6633 -0.4646
vn 0.1883 0.9562 -0.2239
vn -0.9253 0.3103 -0.2182
vn -0.4107 0.8686 -0.2772
vn -0.5458 0.3150 -0.7764
vn 0.6947 0.2899 -0.6584
vn 0.0909 0.2916 -0.9522
vn 0.2152 0.8719 -0.4398
vn -0.6289 -0.6649 -0.4029
vn -0.7404 -0.6633 -0.1090
vn -0.2751 -0.9562 -0.0998
vn 0.3432 -0.6649 -0.6634
vn 0.1883 -0.9562 -0.2239
vn 0.5866 -0.6633 -0.4646
vn -0.4063 -0.8719 -0.2733
vn -0.9308 -0.2899 -0.2228
vn -0.5548 -0.2917 -0.7792
vn 0.6922 -0.3103 -0.6516
vn 0.2171 -0.8686 -0.4455
vn 0.0844 -0.3151 -0.9453
vn -0.3432 0.6649 -0.6634
vn -0.1883 0.9562 -0.2239
vn -0.5866 0.6633 -0.4646
vn 0.7404 0.6633 -0.1090
vn 0.2751 0.9562 -0.0998
vn 0.6289 0.6649 -0.4029
vn -0.6922 0.3103 -0.6516
vn -0.2171 0.8686 -0.4455
vn -0.0845 0.3151 -0.9453
vn 0.9308 0.2899 -0.2228
vn 0.5548 0.2917 -0.7792
vn 0.4063 0.8719 -0.2733
vn -0.3432 -0.6649 -0.6634
vn -0.5866 -0.6633 -0.4646
vn -0.1883 -0.9562 -0.2240
vn 0.2751 -0.9562 -0.0998
vn 0.7404 -0.6633 -0.1090
vn 0.6289 -0.6649 -0.4029
vn -0.6947 -0.2898 -0.6584
vn -0.0909 -0.2917 -0.9522
vn -0.2152 -0.8719 -0.4398
vn 0.5458 -0.3151 -0.7764
vn 0.9253 -0.3103 -0.2182
vn 0.4107 -0.8686 -0.2773
vn -0.2757 0.6633 -0.6957
vn 0.0345 0.6649 -0.7461
vn -0.0511 0.9562 -0.2881
vn 0.6957 0.6633 0.2757
vn 0.2881 0.9562 0.0511
vn 0.7461 0.6649 -0.0345
vn -0.2737 0.3103 -0.9104
vn 0.0347 0.8686 -0.4943
vn 0.3995 0.3151 -0.8609
vn 0.4885 0.8719 -0.0335
vn 0.9175 0.2899 0.2724
vn 0.8701 0.2917 -0.3974
vn 0.0344 -0.6649 -0.7461
vn -0.2757 -0.6633 -0.6957
vn -0.0511 -0.9562 -0.2881
vn 0.7461 -0.6649 -0.0345
vn 0.2881 -0.9562 0.0511
vn 0.6957 -0.6633 0.2757
vn 0.0335 -0.8719 -0.4885
vn -0.2724 -0.2899 -0.9175
vn 0.3974 -0.2917 -0.8700
vn 0.9104 -0.3103 0.2736
vn 0.4943 -0.8686 -0.0348
vn 0.8609 -0.3151 -0.3995
vn 0.1091 0.6633 -0.7404
vn 0.4029 0.6649 -0.6289
vn 0.0998 0.9562 -0.2751
vn 0.2239 0.9562 0.1883
vn 0.6634 0.6649 0.3432
vn 0.4646 0.6633 0.5866
vn 0.2182 0.3103 -0.9253
vn 0.2773 0.8686 -0.4107
vn 0.7764 0.3151 -0.5458
vn 0.6583 0.2899 0.6947
vn 0.9522 0.2917 0.0908
vn 0.4398 0.8719 0.2152
vn 0.4029 -0.6649 -0.6290
vn 0.1091 -0.6633 -0.7404
vn 0.0998 -0.9562 -0.2751
vn 0.4646 -0.6633 0.5866
vn 0.6634 -0.6649 0.3432
vn 0.2239 -0.9562 0.1883
vn 0.2228 -0.2899 -0.9308
vn 0.7792 -0.2917 -0.5548
vn 0.2733 -0.8719 -0.4063
vn 0.9453 -0.3151 0.0845
vn 0.6516 -0.3103 0.6922
vn 0.4455 -0.8686 0.2171
vn 0.1648 0.9218 -0.3509
vn 0.3934 0.3793 -0.8375
vn -0.8710 0.0000 -0.4912
vn -0.3119 0.0000 -0.9501
vn -0.3752 0.9256 -0.0494
vn -0.9142 0.3870 -0.1204
vn 0.9639 0.0000 -0.2664
vn 0.6068 0.0000 -0.7949
vn -0.0327 -0.9218 0.3863
vn -0.0780 -0.3793 0.9220
vn 0.3182 0.9239 0.2126
vn 0.7682 0.3827 0.5133
vn 0.2604 0.9239 0.2804
vn 0.6287 0.3827 0.6770
vn 0.4086 -0.3827 -0.8286
vn 0.1693 -0.9239 -0.3432
vn 0.6287 -0.3827 -0.6770
vn 0.2604 -0.9239 -0.2804
vn 0.3863 0.9218 -0.0327
vn 0.9220 0.3793 -0.0780
vn -0.0101 0.0000 -0.9999
vn 0.6669 0.0000 -0.7452
vn 0.7126 0.0000 0.7016
vn 0.9918 0.0000 0.1280
vn -0.3509 -0.9218 0.1648
vn -0.8375 -0.3793 0.3934
vn -0.0250 0.9239 0.3819
vn -0.0604 0.3827 0.9219
vn -0.1126 0.9239 0.3657
vn -0.2720 0.3827 0.8830
vn 0.2215 0.9218 0.3182
vn 0.5286 0.3793 0.7595
vn -0.3182 -0.9218 -0.2215
vn -0.7595 -0.3793 -0.5286
vn -0.3432 0.9239 0.1693
vn -0.8286 0.3827 0.4086
vn -0.3730 0.9239 0.0853
vn -0.9006 0.3827 0.2060
vn -0.1648 0.9218 0.3509
vn -0.3934 0.3793 0.8375
vn 0.0327 -0.9218 -0.3863
vn 0.0780 -0.3793 -0.9220
vn -0.3182 0.9239 -0.2126
vn -0.7682 0.3827 -0.5133
vn -0.2604 0.9239 -0.2804
vn -0.6287 0.3827 -0.6770
vn 0.3496 -0.9256 0.1448
vn 0.8519 -0.3870 0.3529
vn -0.3863 0.9218 0.0327
vn -0.9220 0.3793 0.0780
vn 0.3509 -0.9218 -0.1648
vn 0.8375 -0.3793 -0.3934
vn 0.0250 0.9239 -0.3819
vn 0.0604 0.3827 -0.9219
vn 0.1126 0.9239 -0.3657
vn 0.2720 0.3827 -0.8829
vn 0.9006 -0.3827 0.2060
vn 0.3731 -0.9239 0.0853
vn -0.2215 0.9218 -0.3182
vn -0.5286 0.3793 -0.7595
vn 0.2304 0.9256 -0.3002
vn 0.5613 0.3870 -0.7315
vn 0.8609 0.0000 -0.5087
vn 0.9788 -0.0000 0.2050
vn 0.3182 -0.9218 0.2215
vn 0.7595 -0.3793 0.5286
vn -0.3002 -0.9256 0.2304
vn -0.7315 -0.3870 0.5613
vn -0.2513 0.0000 0.9679
vn 0.3850 0.0000 0.9229
vn 0.3432 0.9239 -0.1693
vn 0.8286 0.3827 -0.4086
vn 0.3731 0.9239 -0.0853
vn 0.9006 0.3827 -0.2060
vn 0.5133 -0.3827 0.7682
vn 0.2126 -0.9239 0.3182
vn 0.2720 -0.3827 0.8830
vn 0.1126 -0.9239 0.3657
vn 0.3752 0.9256 0.0494
vn 0.9142 0.3870 0.1204
vn 0.8710 -0.0000 0.4912
vn 0.3119 -0.0000 0.9501
vn -0.3496 -0.9256 -0.1448
vn -0.8519 -0.3870 -0.3529
vn -0.9639 0.0000 0.2664
vn -0.6068 0.0000 0.7949
vn 0.1204 0.3870 0.9142
vn 0.0494 0.9256 0.3752
vn -0.4086 -0.3827 0.8286
vn -0.1693 -0.9239 0.3432
vn -0.6287 -0.3827 0.6770
vn -0.2604 -0.9239 0.2804
vn 0.1448 0.9256 0.3496
vn 0.3529 0.3870 0.8519
vn 0.0101 -0.0000 0.9999
vn -0.6669 -0.0000 0.7452
vn -0.0494 -0.9256 -0.3752
vn -0.1204 -0.3870 -0.9142
vn -0.3529 -0.3870 -0.8519
vn -0.1448 -0.9256 -0.3496
vn -0.7126 0.0000 -0.7015
vn -0.9918 0.0000 -0.1281
vn -0.9219 -0.3827 0.0604
vn -0.3819 -0.9239 0.0250
vn -0.9006 -0.3827 -0.2060
vn -0.3730 -0.9239 -0.0853
vn -0.2304 0.9256 0.3002
vn -0.5613 0.3870 0.7315
vn -0.8609 -0.0000 0.5087
vn -0.9788 0.0000 -0.2050
vn 0.3002 -0.9256 -0.2304
vn 0.7315 -0.3870 -0.5613
vn 0.2513 0.0000 -0.9679
vn -0.3850 0.0000 -0.9229
vn -0.5133 -0.3827 -0.7682
vn -0.2126 -0.9239 -0.3182
vn -0.2719 -0.3827 -0.8830
vn -0.1126 -0.9239 -0.3657
vn -0.0781 0.3783 0.9224
vn -0.0327 0.9220 0.3858
vn 0.7451 -0.0000 -0.6669
vn 0.9999 0.0000 0.0101
vn 0.9219 -0.3827 0.0604
vn 0.3819 -0.9239 0.0250
vn 0.8819 -0.3853 0.2717
vn 0.3668 -0.9234 0.1130
vn 0.1693 0.9239 -0.3432
vn 0.4086 0.3827 -0.8286
vn 0.2611 0.9234 -0.2813
vn 0.6278 0.3853 -0.6763
vn 0.8519 0.3870 0.3529
vn 0.3496 0.9256 0.1448
vn 0.3850 -0.0000 -0.9229
vn -0.2513 -0.0000 -0.9679
vn 0.7598 -0.3783 -0.5288
vn 0.3178 -0.9220 -0.2212
vn -0.8378 0.3783 0.3936
vn -0.3504 0.9220 0.1646
vn 0.9501 -0.0000 0.3119
vn 0.4912 -0.0000 0.8710
vn 0.4086 -0.3827 0.8286
vn 0.1693 -0.9239 0.3432
vn 0.2056 -0.3853 0.8996
vn 0.0855 -0.9234 0.3741
vn 0.8379 -0.3783 0.3936
vn 0.3504 -0.9220 0.1646
vn -0.7598 0.3783 -0.5288
vn -0.3178 0.9220 -0.2212
vn -0.5133 -0.3827 0.7682
vn -0.2126 -0.9239 0.3182
vn -0.6763 -0.3853 0.6278
vn -0.2813 -0.9234 0.2611
vn 0.0781 -0.3783 0.9224
vn 0.0327 -0.9220 0.3858
vn 0.0781 0.3783 -0.9224
vn 0.0327 0.9220 -0.3858
vn -0.9219 -0.3827 -0.0604
vn -0.3819 -0.9239 -0.0250
vn -0.8819 -0.3853 -0.2717
vn -0.3668 -0.9234 -0.1130
vn -0.7598 -0.3783 0.5288
vn -0.3178 -0.9220 0.2212
vn 0.8379 0.3783 -0.3936
vn 0.3504 0.9220 -0.1646
vn -0.1448 0.9256 -0.3496
vn -0.3529 0.3870 -0.8519
vn -0.4086 -0.3827 -0.8286
vn -0.1693 -0.9239 -0.3432
vn -0.2056 -0.3853 -0.8996
vn -0.0855 -0.9234 -0.3741
vn 0.3741 0.9234 0.0855
vn 0.8996 0.3853 0.2056
vn -0.8378 -0.3783 -0.3936
vn -0.3504 -0.9220 -0.1646
vn 0.1204 -0.3870 -0.9142
vn 0.0494 -0.9256 -0.3752
vn 0.9918 -0.0000 -0.1280
vn 0.7126 -0.0000 -0.7016
vn 0.7598 0.3783 0.5288
vn 0.3178 0.9220 0.2212
vn -0.7315 0.3870 0.5613
vn -0.3002 0.9256 0.2304
vn 0.5133 -0.3827 -0.7682
vn 0.2126 -0.9239 -0.3182
vn 0.2050 0.0000 0.9788
vn -0.5087 -0.0000 0.8609
vn 0.6763 -0.3853 -0.6278
vn 0.2813 -0.9234 -0.2611
vn 0.2126 0.9239 0.3182
vn 0.5133 0.3827 0.7682
vn 0.1130 0.9234 0.3668
vn 0.2718 0.3853 0.8819
vn 0.3819 -0.9239 -0.0250
vn 0.9219 -0.3827 -0.0604
vn -0.0781 -0.3783 -0.9224
vn -0.0327 -0.9220 -0.3858
vn 0.8519 -0.3870 -0.3529
vn 0.3496 -0.9256 -0.1448
vn 0.6068 -0.0000 0.7949
vn 0.9639 -0.0000 0.2664
vn -0.8519 0.3870 -0.3529
vn -0.3496 0.9256 -0.1448
vn -0.7452 -0.0000 0.6669
vn -0.9999 0.0000 -0.0101
vn -0.1693 0.9239 0.3432
vn -0.4086 0.3827 0.8286
vn -0.2611 0.9234 0.2813
vn -0.6278 0.3853 0.6763
vn 0.7315 -0.3870 0.5613
vn 0.3002 -0.9256 0.2304
vn -0.3850 -0.0000 0.9229
vn 0.2513 -0.0000 0.9679
vn -0.1204 0.3870 -0.9142
vn -0.0494 0.9256 -0.3752
vn -0.9501 0.0000 -0.3119
vn -0.4912 0.0000 -0.8710
vn -0.3819 0.9239 0.0250
vn -0.9219 0.3827 0.0604
vn -0.3741 0.9234 -0.0855
vn -0.8996 0.3853 -0.2056
vn -0.1204 -0.3870 0.9142
vn -0.0494 -0.9256 0.3752
vn 0.0494 -0.9256 0.3752
vn 0.1204 -0.3870 0.9142
vn -0.9918 -0.0000 0.1281
vn -0.7126 -0.0000 0.7015
vn 0.7315 0.3870 -0.5613
vn 0.3002 0.9256 -0.2304
vn -0.2050 0.0000 -0.9788
vn 0.5087 -0.0000 -0.8609
vn -0.2126 0.9239 -0.3182
vn -0.5133 0.3827 -0.7682
vn -0.1130 0.9234 -0.3668
vn -0.2717 0.3853 -0.8819
vn -0.8519 -0.3870 0.3529
vn -0.3496 -0.9256 0.1448
vn -0.6068 -0.0000 -0.7949
vn -0.9639 -0.0000 -0.2664
vn 0.3819 0.9239 0.0250
vn 0.9219 0.3827 0.0604
vn 0.3657 0.9239 0.1126
vn 0.8830 0.3826 0.2720
vn -0.0604 -0.3827 -0.9219
vn -0.0250 -0.9239 -0.3819
vn 0.2060 -0.3827 -0.9006
vn 0.0853 -0.9239 -0.3730
vn 0.3182 0.9218 -0.2215
vn 0.7595 0.3793 -0.5286
vn -0.5087 0.0000 -0.8609
vn 0.2050 -0.0000 -0.9788
vn 0.9679 0.0000 0.2512
vn 0.9229 0.0000 -0.3850
vn -0.2215 -0.9218 0.3182
vn -0.5286 -0.3793 0.7595
vn -0.7315 -0.3870 -0.5613
vn -0.3002 -0.9256 -0.2304
vn 0.1693 0.9239 0.3432
vn 0.4086 0.3827 0.8286
vn 0.0853 0.9239 0.3731
vn 0.2060 0.3827 0.9006
vn 0.7682 -0.3827 -0.5133
vn 0.3182 -0.9239 -0.2126
vn 0.8830 -0.3826 -0.2720
vn 0.3657 -0.9239 -0.1126
vn 0.3509 0.9218 0.1648
vn 0.8375 0.3793 0.3934
vn -0.3863 -0.9218 -0.0327
vn -0.9220 -0.3793 -0.0780
vn -0.2126 0.9239 0.3182
vn -0.5133 0.3827 0.7682
vn -0.2804 0.9239 0.2604
vn -0.6770 0.3827 0.6287
vn 0.0327 0.9218 0.3863
vn 0.0780 0.3793 0.9220
vn -0.1648 -0.9218 -0.3509
vn -0.3934 -0.3793 -0.8375
vn -0.3819 0.9239 -0.0250
vn -0.9219 0.3827 -0.0604
vn -0.3657 0.9239 -0.1126
vn -0.8829 0.3827 -0.2719
vn -0.3182 0.9218 0.2215
vn -0.7595 0.3793 0.5286
vn 0.2215 -0.9218 -0.3182
vn 0.5286 -0.3793 -0.7595
vn -0.1693 0.9239 -0.3432
vn -0.4086 0.3827 -0.8286
vn -0.0853 0.9239 -0.3730
vn -0.2060 0.3827 -0.9006
vn -0.3509 0.9218 -0.1648
vn -0.8375 0.3793 -0.3934
vn 0.0494 0.9256 -0.3752
vn 0.1204 0.3870 -0.9142
vn 0.4912 0.0000 -0.8710
vn 0.9501 0.0000 -0.3119
vn 0.3863 -0.9218 0.0327
vn 0.9220 -0.3793 0.0780
vn -0.1448 -0.9256 0.3496
vn -0.3529 -0.3870 0.8519
vn 0.2664 0.0000 0.9639
vn 0.7949 0.0000 0.6068
vn 0.2126 0.9239 -0.3182
vn 0.5133 0.3827 -0.7682
vn 0.2804 0.9239 -0.2604
vn 0.6770 0.3827 -0.6287
vn 0.8286 -0.3827 0.4086
vn 0.3432 -0.9239 0.1693
vn 0.6770 -0.3827 0.6287
vn 0.2804 -0.9239 0.2604
vn 0.9219 0.3827 -0.0604
vn 0.3819 0.9239 -0.0250
vn -0.0327 0.9218 -0.3863
vn -0.0780 0.3793 -0.9220
vn 0.3496 0.9256 -0.1448
vn 0.8519 0.3870 -0.3529
vn 0.9999 -0.0000 -0.0101
vn 0.7452 0.0000 0.6669
vn 0.1648 -0.9218 0.3509
vn 0.3934 -0.3793 0.8375
vn -0.3752 -0.9256 0.0494
vn -0.9142 -0.3870 0.1204
vn -0.7016 0.0000 0.7126
vn -0.1280 0.0000 0.9918
vn 0.0604 -0.3827 0.9219
vn 0.0250 -0.9239 0.3819
vn -0.2060 -0.3827 0.9006
vn -0.0853 -0.9239 0.3731
vn 0.3002 0.9256 0.2304
vn 0.7315 0.3870 0.5613
vn -0.3002 0.9256 -0.2304
vn -0.7315 0.3870 -0.5613
vn 0.5087 0.0000 0.8609
vn -0.2050 -0.0000 0.9788
vn -0.2304 -0.9256 -0.3002
vn -0.5613 -0.3870 -0.7315
vn -0.9679 0.0000 -0.2513
vn -0.9229 0.0000 0.3850
vn -0.7682 -0.3827 0.5133
vn -0.3182 -0.9239 0.2126
vn -0.8829 -0.3827 0.2719
vn -0.3657 -0.9239 0.1126
vn -0.0494 0.9256 0.3752
vn -0.1204 0.3870 0.9142
vn -0.4912 -0.0000 0.8710
vn -0.9501 0.0000 0.3119
vn 0.1448 -0.9256 -0.3496
vn 0.3529 -0.3870 -0.8519
vn -0.2664 0.0000 -0.9639
vn -0.7949 0.0000 -0.6068
vn -0.8286 -0.3827 -0.4086
vn -0.3432 -0.9239 -0.1693
vn -0.6770 -0.3827 -0.6287
vn -0.2804 -0.9239 -0.2604
vn -0.3496 0.9256 0.1448
vn -0.8519 0.3870 0.3529
vn -0.9999 -0.0000 0.0101
vn -0.7452 0.0000 -0.6669
vn 0.3752 -0.9256 -0.0494
vn 0.9142 -0.3870 -0.1204
vn 0.7015 0.0000 -0.7126
vn 0.1280 0.0000 -0.9918
vn -0.0250 0.9239 -0.3819
vn -0.0604 0.3827 -0.9219
vn 0.0855 0.9234 -0.3741
vn 0.2056 0.3853 -0.8996
vn -0.1280 -0.0000 -0.9918
vn -0.7015 -0.0000 -0.7126
vn 0.3936 -0.3783 -0.8378
vn 0.1646 -0.9220 -0.3504
vn -0.5288 0.3783 0.7598
vn -0.2212 0.9220 0.3178
vn 0.9788 -0.0000 -0.2050
vn 0.8609 -0.0000 0.5087
vn 0.7682 -0.3827 0.5133
vn 0.3182 -0.9239 0.2126
vn 0.6278 -0.3853 0.6763
vn 0.2611 -0.9234 0.2813
vn 0.3182 0.9239 -0.2126
vn 0.7682 0.3827 -0.5133
vn 0.3668 0.9234 -0.1130
vn 0.8819 0.3853 -0.2718
vn 0.7949 -0.0000 -0.6068
vn 0.2664 -0.0000 -0.9639
vn 0.9224 -0.3783 -0.0781
vn 0.3858 -0.9220 -0.0327
vn 0.2304 -0.9256 0.3002
vn 0.5613 -0.3870 0.7315
vn -0.9224 0.3783 -0.0781
vn -0.3858 0.9220 -0.0327
vn -0.0604 -0.3827 0.9219
vn -0.0250 -0.9239 0.3819
vn -0.2717 -0.3853 0.8819
vn -0.1130 -0.9234 0.3668
vn 0.5288 -0.3783 0.7598
vn 0.2212 -0.9220 0.3178
vn -0.3936 0.3783 -0.8378
vn -0.1646 0.9220 -0.3504
vn -0.8286 -0.3827 0.4086
vn -0.3432 -0.9239 0.1693
vn -0.8996 -0.3853 0.2056
vn -0.3741 -0.9234 0.0855
vn -0.3936 -0.3783 0.8379
vn -0.1646 -0.9220 0.3504
vn -0.9142 -0.3870 -0.1204
vn -0.3752 -0.9256 -0.0494
vn 0.5288 0.3783 -0.7598
vn 0.2212 0.9220 -0.3178
vn -0.7682 -0.3827 -0.5133
vn -0.3182 -0.9239 -0.2126
vn -0.6278 -0.3853 -0.6763
vn -0.2611 -0.9234 -0.2813
vn -0.9224 -0.3783 0.0781
vn -0.3858 -0.9220 0.0326
vn 0.9224 0.3783 0.0781
vn 0.3858 0.9220 0.0327
vn -0.3529 0.3870 0.8519
vn -0.1448 0.9256 0.3496
vn 0.0604 -0.3827 -0.9219
vn 0.0250 -0.9239 -0.3819
vn 0.6669 -0.0000 0.7452
vn -0.0101 -0.0000 0.9999
vn 0.2717 -0.3853 -0.8819
vn 0.1130 -0.9234 -0.3668
vn 0.3432 0.9239 0.1693
vn 0.8286 0.3827 0.4086
vn 0.2813 0.9234 0.2611
vn 0.6763 0.3853 0.6278
vn -0.5288 -0.3783 -0.7598
vn -0.2212 -0.9220 -0.3178
vn 0.5613 -0.3870 -0.7315
vn 0.2304 -0.9256 -0.3002
vn 0.9229 -0.0000 0.3850
vn 0.9679 -0.0000 -0.2512
vn 0.3936 0.3783 0.8379
vn 0.1646 0.9220 0.3504
vn -0.9142 0.3870 0.1204
vn -0.3752 0.9256 0.0494
vn 0.8286 -0.3827 -0.4086
vn 0.3432 -0.9239 -0.1693
vn -0.3119 0.0000 0.9501
vn -0.8710 0.0000 0.4912
vn 0.8996 -0.3853 -0.2056
vn 0.3741 -0.9234 -0.0855
vn 0.0250 0.9239 0.3819
vn 0.0604 0.3827 0.9219
vn -0.0855 0.9234 0.3741
vn -0.2056 0.3853 0.8996
vn 0.9142 -0.3870 0.1204
vn 0.3752 -0.9256 0.0494
vn 0.1280 -0.0000 0.9918
vn 0.7016 -0.0000 0.7126
vn -0.5613 0.3870 -0.7315
vn -0.2304 0.9256 -0.3002
vn -0.9788 0.0000 0.2050
vn -0.8609 -0.0000 -0.5087
vn -0.3182 0.9239 0.2126
vn -0.7682 0.3827 0.5133
vn -0.3668 0.9234 0.1130
vn -0.8819 0.3853 0.2717
vn 0.5613 0.3870 0.7315
vn 0.2304 0.9256 0.3002
vn 0.3529 -0.3870 0.8519
vn 0.1448 -0.9256 0.3496
vn -0.7949 -0.0000 0.6068
vn -0.2664 -0.0000 0.9639
vn 0.3529 0.3870 -0.8519
vn 0.1448 0.9256 -0.3496
vn -0.6669 0.0000 -0.7452
vn 0.0101 0.0000 -0.9999
vn -0.3432 0.9239 -0.1693
vn -0.8286 0.3827 -0.4086
vn -0.2813 0.9234 -0.2611
vn -0.6763 0.3853 -0.6279
vn -0.5613 -0.3870 0.7315
vn -0.2304 -0.9256 0.3002
vn -0.9229 -0.0000 -0.3850
vn -0.9679 -0.0000 0.2513
vn 0.9142 0.3870 -0.1204
vn 0.3752 0.9256 -0.0494
vn 0.3119 0.0000 -0.9501
vn 0.8710 0.0000 -0.4912
usemtl dtmo_base_mat
s off
f 186//1 145//1 148//1 188//1
f 163//2 149//2 5//2 6//2
f 6//2 5//2 156//2 165//2
f 189//3 150//3 162//3 202//3
f 205//4 166//4 155//4 195//4
f 202//5 162//5 168//5 209//5
f 218//6 178//6 166//6 205//6
f 1077//7 185//7 7//7 142//7
f 197//7 266//7 19//7 10//7
f 11//7 12//7 206//7 197//7
f 8//7 190//7 11//7 9//7
f 203//7 208//7 216//7 12//7
f 12//7 216//7 219//7 206//7
f 265//8 225//8 230//8 270//8
f 1036//9 145//9 186//9 1076//9
f 4//2 13//2 226//2 156//2
f 175//2 6//2 165//2 180//2
f 215//10 176//10 179//10 220//10
f 7//7 185//7 190//7 8//7
f 210//11 170//11 176//11 215//11
f 157//12 225//12 265//12 196//12
f 242//2 228//2 17//2 18//2
f 18//2 17//2 236//2 246//2
f 249//2 242//2 18//2 256//2
f 268//13 229//13 243//13 283//13
f 286//14 245//14 235//14 275//14
f 283//15 243//15 248//15 288//15
f 299//16 259//16 245//16 286//16
f 20//7 269//7 23//7 21//7
f 269//7 282//7 24//7 23//7
f 282//7 290//7 296//7 24//7
f 23//7 24//7 285//7 277//7
f 277//7 346//7 31//7 22//7
f 24//7 296//7 300//7 285//7
f 305//2 25//2 26//2 309//2
f 226//2 13//2 14//2 228//2
f 228//2 14//2 15//2 17//2
f 256//2 18//2 246//2 258//2
f 295//17 255//17 260//17 298//17
f 19//7 266//7 269//7 20//7
f 289//18 250//18 255//18 295//18
f 237//19 306//19 345//19 276//19
f 5//2 3//2 4//2 156//2
f 169//2 163//2 6//2 175//2
f 9//7 11//7 197//7 10//7
f 345//20 306//20 308//20 348//20
f 323//2 309//2 29//2 30//2
f 30//2 29//2 316//2 325//2
f 349//21 310//21 322//21 362//21
f 365//22 326//22 315//22 355//22
f 362//23 322//23 328//23 369//23
f 378//24 338//24 326//24 365//24
f 350//7 363//7 36//7 35//7
f 357//7 426//7 43//7 34//7
f 35//7 36//7 366//7 357//7
f 32//7 350//7 35//7 33//7
f 363//7 368//7 376//7 36//7
f 36//7 376//7 379//7 366//7
f 425//25 385//25 390//25 430//25
f 309//2 26//2 27//2 29//2
f 28//2 37//2 386//2 316//2
f 335//2 30//2 325//2 340//2
f 375//26 336//26 339//26 380//26
f 31//7 346//7 350//7 32//7
f 370//27 330//27 336//27 375//27
f 317//28 385//28 425//28 356//28
f 17//2 15//2 16//2 236//2
f 16//2 25//2 305//2 236//2
f 21//7 23//7 277//7 22//7
f 402//2 388//2 41//2 42//2
f 42//2 41//2 396//2 406//2
f 409//2 402//2 42//2 416//2
f 428//29 389//29 403//29 443//29
f 446//30 405//30 395//30 435//30
f 443//31 403//31 408//31 448//31
f 459//32 419//32 405//32 446//32
f 44//7 429//7 47//7 45//7
f 429//7 442//7 48//7 47//7
f 442//7 450//7 456//7 48//7
f 47//7 48//7 445//7 437//7
f 437//7 506//7 55//7 46//7
f 48//7 456//7 460//7 445//7
f 465//2 49//2 50//2 469//2
f 386//2 37//2 38//2 388//2
f 388//2 38//2 39//2 41//2
f 416//2 42//2 406//2 418//2
f 455//33 415//33 420//33 458//33
f 43//7 426//7 429//7 44//7
f 449//34 410//34 415//34 455//34
f 397//35 466//35 505//35 436//35
f 29//2 27//2 28//2 316//2
f 329//2 323//2 30//2 335//2
f 33//7 35//7 357//7 34//7
f 505//36 466//36 468//36 508//36
f 483//2 469//2 53//2 54//2
f 54//2 53//2 476//2 485//2
f 509//37 470//37 482//37 522//37
f 525//38 486//38 475//38 515//38
f 522//39 482//39 488//39 529//39
f 538//40 498//40 486//40 525//40
f 510//7 523//7 60//7 59//7
f 517//7 586//7 67//7 58//7
f 59//7 60//7 526//7 517//7
f 56//7 510//7 59//7 57//7
f 523//7 528//7 536//7 60//7
f 60//7 536//7 539//7 526//7
f 585//41 545//41 550//41 590//41
f 469//2 50//2 51//2 53//2
f 52//2 61//2 546//2 476//2
f 495//2 54//2 485//2 500//2
f 535//42 496//42 499//42 540//42
f 55//7 506//7 510//7 56//7
f 530//43 490//43 496//43 535//43
f 477//44 545//44 585//44 516//44
f 41//2 39//2 40//2 396//2
f 40//2 49//2 465//2 396//2
f 45//7 47//7 437//7 46//7
f 562//2 548//2 65//2 66//2
f 66//2 65//2 556//2 566//2
f 569//2 562//2 66//2 576//2
f 588//45 549//45 563//45 603//45
f 606//46 565//46 555//46 595//46
f 603//47 563//47 568//47 608//47
f 619//48 579//48 565//48 606//48
f 68//7 589//7 71//7 69//7
f 589//7 602//7 72//7 71//7
f 602//7 610//7 616//7 72//7
f 71//7 72//7 605//7 597//7
f 597//7 666//7 79//7 70//7
f 72//7 616//7 620//7 605//7
f 625//2 73//2 74//2 629//2
f 546//2 61//2 62//2 548//2
f 548//2 62//2 63//2 65//2
f 576//2 66//2 566//2 578//2
f 615//49 575//49 580//49 618//49
f 67//7 586//7 589//7 68//7
f 609//50 570//50 575//50 615//50
f 557//51 626//51 665//51 596//51
f 53//2 51//2 52//2 476//2
f 489//2 483//2 54//2 495//2
f 57//7 59//7 517//7 58//7
f 665//52 626//52 628//52 668//52
f 643//2 629//2 77//2 78//2
f 78//2 77//2 636//2 645//2
f 669//53 630//53 642//53 682//53
f 685//54 646//54 635//54 675//54
f 682//55 642//55 648//55 689//55
f 698//56 658//56 646//56 685//56
f 670//7 683//7 84//7 83//7
f 677//7 746//7 91//7 82//7
f 83//7 84//7 686//7 677//7
f 80//7 670//7 83//7 81//7
f 683//7 688//7 696//7 84//7
f 84//7 696//7 699//7 686//7
f 745//57 705//57 710//57 750//57
f 629//2 74//2 75//2 77//2
f 76//2 85//2 706//2 636//2
f 655//2 78//2 645//2 660//2
f 695//58 656//58 659//58 700//58
f 79//7 666//7 670//7 80//7
f 690//59 650//59 656//59 695//59
f 637//60 705//60 745//60 676//60
f 65//2 63//2 64//2 556//2
f 64//2 73//2 625//2 556//2
f 69//7 71//7 597//7 70//7
f 722//2 708//2 89//2 90//2
f 90//2 89//2 716//2 726//2
f 729//2 722//2 90//2 736//2
f 748//61 709//61 723//61 763//61
f 766//62 725//62 715//62 755//62
f 763//63 723//63 728//63 768//63
f 779//64 739//64 725//64 766//64
f 92//7 749//7 95//7 93//7
f 749//7 762//7 96//7 95//7
f 762//7 770//7 776//7 96//7
f 95//7 96//7 765//7 757//7
f 757//7 826//7 103//7 94//7
f 96//7 776//7 780//7 765//7
f 785//2 97//2 98//2 789//2
f 706//2 85//2 86//2 708//2
f 708//2 86//2 87//2 89//2
f 736//2 90//2 726//2 738//2
f 775//65 735//65 740//65 778//65
f 91//7 746//7 749//7 92//7
f 769//66 730//66 735//66 775//66
f 717//67 786//67 825//67 756//67
f 77//2 75//2 76//2 636//2
f 649//2 643//2 78//2 655//2
f 81//7 83//7 677//7 82//7
f 825//68 786//68 788//68 828//68
f 803//2 789//2 101//2 102//2
f 102//2 101//2 797//2 805//2
f 829//69 790//69 802//69 842//69
f 845//70 806//70 796//70 837//70
f 842//71 802//71 808//71 849//71
f 858//72 818//72 806//72 845//72
f 830//7 843//7 108//7 107//7
f 836//7 906//7 115//7 106//7
f 843//7 848//7 856//7 108//7
f 104//7 830//7 107//7 105//7
f 105//7 107//7 836//7 106//7
f 108//7 856//7 859//7 846//7
f 905//73 865//73 868//73 908//73
f 789//2 98//2 99//2 101//2
f 100//2 109//2 866//2 797//2
f 815//2 102//2 805//2 820//2
f 855//74 816//74 819//74 860//74
f 103//7 826//7 830//7 104//7
f 850//75 810//75 816//75 855//75
f 809//2 803//2 102//2 815//2
f 89//2 87//2 88//2 716//2
f 88//2 97//2 785//2 716//2
f 93//7 95//7 757//7 94//7
f 882//2 869//2 113//2 114//2
f 877//76 946//76 985//76 917//76
f 112//2 121//2 945//2 876//2
f 909//77 870//77 883//77 923//77
f 113//2 111//2 112//2 876//2
f 923//78 883//78 888//78 928//78
f 939//79 898//79 885//79 926//79
f 116//7 910//7 119//7 117//7
f 910//7 922//7 120//7 119//7
f 922//7 930//7 936//7 120//7
f 915//7 986//7 127//7 118//7
f 117//7 119//7 915//7 118//7
f 120//7 936//7 940//7 925//7
f 945//2 121//2 122//2 950//2
f 866//2 109//2 110//2 869//2
f 869//2 110//2 111//2 113//2
f 896//2 114//2 886//2 900//2
f 935//80 895//80 899//80 938//80
f 115//7 906//7 910//7 116//7
f 929//81 890//81 895//81 935//81
f 889//2 882//2 114//2 896//2
f 795//82 865//82 905//82 835//82
f 101//2 99//2 100//2 797//2
f 107//7 108//7 846//7 836//7
f 985//83 946//83 949//83 988//83
f 963//2 950//2 125//2 126//2
f 126//2 125//2 956//2 965//2
f 989//84 948//84 962//84 1002//84
f 969//2 963//2 126//2 975//2
f 1002//85 962//85 968//85 1009//85
f 1018//86 979//86 966//86 1005//86
f 990//7 1003//7 132//7 131//7
f 996//7 1066//7 139//7 130//7
f 1003//7 1008//7 1016//7 132//7
f 128//7 990//7 131//7 129//7
f 129//7 131//7 996//7 130//7
f 132//7 1016//7 1019//7 1006//7
f 1065//87 1025//87 1029//87 1068//87
f 950//2 122//2 123//2 125//2
f 124//2 133//2 1026//2 956//2
f 975//2 126//2 965//2 978//2
f 1015//88 976//88 980//88 1020//88
f 127//7 986//7 990//7 128//7
f 1010//89 970//89 976//89 1015//89
f 957//90 1025//90 1065//90 995//90
f 926//91 885//91 875//91 916//91
f 114//2 113//2 876//2 886//2
f 119//7 120//7 925//7 915//7
f 1042//2 1030//2 137//2 138//2
f 1086//92 1045//92 1037//92 1075//92
f 138//2 137//2 1035//2 1046//2
f 1069//93 1028//93 1043//93 1082//93
f 1049//2 1042//2 138//2 1056//2
f 1082//94 1043//94 1048//94 1088//94
f 1099//95 1058//95 1045//95 1086//95
f 1070//7 1083//7 144//7 143//7
f 143//7 144//7 1085//7 1077//7
f 1083//7 1090//7 1096//7 144//7
f 140//7 1070//7 143//7 141//7
f 141//7 143//7 1077//7 142//7
f 144//7 1096//7 1100//7 1085//7
f 1026//2 133//2 134//2 1030//2
f 1030//2 134//2 135//2 137//2
f 1056//2 138//2 1046//2 1060//2
f 1095//96 1055//96 1059//96 1098//96
f 139//7 1066//7 1070//7 140//7
f 1089//97 1050//97 1055//97 1095//97
f 137//2 135//2 136//2 1035//2
f 1005//98 966//98 955//98 997//98
f 125//2 123//2 124//2 956//2
f 131//7 132//7 1006//7 996//7
f 146//2 1//2 2//2 149//2
f 149//2 2//2 3//2 5//2
f 190//7 203//7 12//7 11//7
f 148//99 151//99 152//99 154//99
f 149//100 153//100 152//100 151//100
f 150//101 154//101 152//101 153//101
f 155//102 158//102 159//102 161//102
f 156//103 160//103 159//103 158//103
f 157//104 161//104 159//104 160//104
f 168//105 171//105 172//105 174//105
f 169//106 173//106 172//106 171//106
f 170//107 174//107 172//107 173//107
f 178//108 181//108 182//108 184//108
f 179//109 183//109 182//109 181//109
f 180//110 184//110 182//110 183//110
f 188//111 191//111 192//111 194//111
f 189//112 193//112 192//112 191//112
f 190//113 194//113 192//113 193//113
f 195//114 198//114 199//114 201//114
f 196//115 200//115 199//115 198//115
f 197//116 201//116 199//116 200//116
f 208//117 211//117 212//117 214//117
f 209//118 213//118 212//118 211//118
f 210//119 214//119 212//119 213//119
f 218//120 221//120 222//120 224//120
f 219//121 223//121 222//121 221//121
f 220//122 224//122 222//122 223//122
f 228//123 231//123 232//123 234//123
f 229//124 233//124 232//124 231//124
f 230//125 234//125 232//125 233//125
f 235//126 238//126 239//126 241//126
f 236//127 240//127 239//127 238//127
f 237//128 241//128 239//128 240//128
f 248//129 251//129 252//129 254//129
f 249//130 253//130 252//130 251//130
f 250//131 254//131 252//131 253//131
f 258//132 261//132 262//132 264//132
f 259//133 263//133 262//133 261//133
f 260//134 264//134 262//134 263//134
f 268//135 271//135 272//135 274//135
f 269//136 273//136 272//136 271//136
f 270//137 274//137 272//137 273//137
f 275//138 278//138 279//138 281//138
f 276//139 280//139 279//139 278//139
f 277//140 281//140 279//140 280//140
f 288//141 291//141 292//141 294//141
f 289//142 293//142 292//142 291//142
f 290//143 294//143 292//143 293//143
f 298//144 301//144 302//144 304//144
f 299//145 303//145 302//145 301//145
f 300//146 304//146 302//146 303//146
f 308//147 311//147 312//147 314//147
f 309//148 313//148 312//148 311//148
f 310//149 314//149 312//149 313//149
f 315//150 318//150 319//150 321//150
f 316//151 320//151 319//151 318//151
f 317//152 321//152 319//152 320//152
f 328//153 331//153 332//153 334//153
f 329//154 333//154 332//154 331//154
f 330//155 334//155 332//155 333//155
f 338//156 341//156 342//156 344//156
f 339//157 343//157 342//157 341//157
f 340//158 344//158 342//158 343//158
f 348//159 351//159 352//159 354//159
f 349//160 353//160 352//160 351//160
f 350//161 354//161 352//161 353//161
f 355//162 358//162 359//162 361//162
f 356//163 360//163 359//163 358//163
f 357//164 361//164 359//164 360//164
f 368//165 371//165 372//165 374//165
f 369//166 373//166 372//166 371//166
f 370//167 374//167 372//167 373//167
f 378//168 381//168 382//168 384//168
f 379//169 383//169 382//169 381//169
f 380//170 384//170 382//170 383//170
f 388//171 391//171 392//171 394//171
f 389//172 393//172 392//172 391//172
f 390//173 394//173 392//173 393//173
f 395//174 398//174 399//174 401//174
f 396//175 400//175 399//175 398//175
f 397//176 401//176 399//176 400//176
f 408//177 411//177 412//177 414//177
f 409//178 413//178 412//178 411//178
f 410//179 414//179 412//179 413//179
f 418//180 421//180 422//180 424//180
f 419//181 423//181 422//181 421//181
f 420//182 424//182 422//182 423//182
f 428//183 431//183 432//183 434//183
f 429//184 433//184 432//184 431//184
f 430//185 434//185 432//185 433//185
f 435//186 438//186 439//186 441//186
f 436//187 440//187 439//187 438//187
f 437//188 441//188 439//188 440//188
f 448//189 451//189 452//189 454//189
f 449//190 453//190 452//190 451//190
f 450//191 454//191 452//191 453//191
f 458//192 461//192 462//192 464//192
f 459//193 463//193 462//193 461//193
f 460//194 464//194 462//194 463//194
f 468//195 471//195 472//195 474//195
f 469//196 473//196 472//196 471//196
f 470//197 474//197 472//197 473//197
f 475//198 478//198 479//198 481//198
f 476//199 480//199 479//199 478//199
f 477//200 481//200 479//200 480//200
f 488//201 491//201 492//201 494//201
f 489//202 493//202 492//202 491//202
f 490//203 494//203 492//203 493//203
f 498//204 501//204 502//204 504//204
f 499//205 503//205 502//205 501//205
f 500//206 504//206 502//206 503//206
f 508//207 511//207 512//207 514//207
f 509//208 513//208 512//208 511//208
f 510//209 514//209 512//209 513//209
f 515//210 518//210 519//210 521//210
f 516//211 520//211 519//211 518//211
f 517//212 521//212 519//212 520//212
f 528//213 531//213 532//213 534//213
f 529//214 533//214 532//214 531//214
f 530//215 534//215 532//215 533//215
f 538//216 541//216 542//216 544//216
f 539//217 543//217 542//217 541//217
f 540//218 544//218 542//218 543//218
f 548//219 551//219 552//219 554//219
f 549//220 553//220 552//220 551//220
f 550//221 554//221 552//221 553//221
f 555//222 558//222 559//222 561//222
f 556//223 560//223 559//223 558//223
f 557//224 561//224 559//224 560//224
f 568//225 571//225 572//225 574//225
f 569//226 573//226 572//226 571//226
f 570//227 574//227 572//227 573//227
f 578//228 581//228 582//228 584//228
f 579//229 583//229 582//229 581//229
f 580//230 584//230 582//230 583//230
f 588//231 591//231 592//231 594//231
f 589//232 593//232 592//232 591//232
f 590//233 594//233 592//233 593//233
f 595//234 598//234 599//234 601//234
f 596//235 600//235 599//235 598//235
f 597//236 601//236 599//236 600//236
f 608//237 611//237 612//237 614//237
f 609//238 613//238 612//238 611//238
f 610//239 614//239 612//239 613//239
f 618//240 621//240 622//240 624//240
f 619//241 623//241 622//241 621//241
f 620//242 624//242 622//242 623//242
f 628//243 631//243 632//243 634//243
f 629//244 633//244 632//244 631//244
f 630//245 634//245 632//245 633//245
f 635//246 638//246 639//246 641//246
f 636//247 640//247 639//247 638//247
f 637//248 641//248 639//248 640//248
f 648//249 651//249 652//249 654//249
f 649//250 653//250 652//250 651//250
f 650//251 654//251 652//251 653//251
f 658//252 661//252 662//252 664//252
f 659//253 663//253 662//253 661//253
f 660//254 664//254 662//254 663//254
f 668//255 671//255 672//255 674//255
f 669//256 673//256 672//256 671//256
f 670//257 674//257 672//257 673//257
f 675//258 678//258 679//258 681//258
f 676//259 680//259 679//259 678//259
f 677//260 681//260 679//260 680//260
f 688//261 691//261 692//261 694//261
f 689//262 693//262 692//262 691//262
f 690//263 694//263 692//263 693//263
f 698//264 701//264 702//264 704//264
f 699//265 703//265 702//265 701//265
f 700//266 704//266 702//266 703//266
f 708//267 711//267 712//267 714//267
f 709//268 713//268 712//268 711//268
f 710//269 714//269 712//269 713//269
f 715//270 718//270 719//270 721//270
f 716//271 720//271 719//271 718//271
f 717//272 721//272 719//272 720//272
f 728//273 731//273 732//273 734//273
f 729//274 733//274 732//274 731//274
f 730//275 734//275 732//275 733//275
f 738//276 741//276 742//276 744//276
f 739//277 743//277 742//277 741//277
f 740//278 744//278 742//278 743//278
f 748//279 751//279 752//279 754//279
f 749//280 753//280 752//280 751//280
f 750//281 754//281 752//281 753//281
f 755//282 758//282 759//282 761//282
f 756//283 760//283 759//283 758//283
f 757//284 761//284 759//284 760//284
f 768//285 771//285 772//285 774//285
f 769//286 773//286 772//286 771//286
f 770//287 774//287 772//287 773//287
f 778//288 781//288 782//288 784//288
f 779//289 783//289 782//289 781//289
f 780//290 784//290 782//290 783//290
f 788//291 791//291 792//291 794//291
f 789//292 793//292 792//292 791//292
f 790//293 794//293 792//293 793//293
f 795//294 798//294 799//294 801//294
f 796//295 800//295 799//295 798//295
f 797//296 801//296 799//296 800//296
f 808//297 811//297 812//297 814//297
f 809//298 813//298 812//298 811//298
f 810//299 814//299 812//299 813//299
f 818//300 821//300 822//300 824//300
f 819//301 823//301 822//301 821//301
f 820//302 824//302 822//302 823//302
f 828//303 831//303 832//303 834//303
f 829//304 833//304 832//304 831//304
f 830//305 834//305 832//305 833//305
f 835//306 838//306 839//306 841//306
f 836//307 840//307 839//307 838//307
f 837//308 841//308 839//308 840//308
f 848//309 851//309 852//309 854//309
f 849//310 853//310 852//310 851//310
f 850//311 854//311 852//311 853//311
f 858//312 861//312 862//312 864//312
f 859//313 863//313 862//313 861//313
f 860//314 864//314 862//314 863//314
f 868//315 871//315 872//315 874//315
f 869//316 873//316 872//316 871//316
f 870//317 874//317 872//317 873//317
f 875//318 878//318 879//318 881//318
f 876//319 880//319 879//319 878//319
f 877//320 881//320 879//320 880//320
f 888//321 891//321 892//321 894//321
f 889//322 893//322 892//322 891//322
f 890//323 894//323 892//323 893//323
f 898//324 901//324 902//324 904//324
f 899//325 903//325 902//325 901//325
f 900//326 904//326 902//326 903//326
f 908//327 911//327 912//327 914//327
f 909//328 913//328 912//328 911//328
f 910//329 914//329 912//329 913//329
f 915//330 918//330 919//330 921//330
f 916//331 920//331 919//331 918//331
f 917//332 921//332 919//332 920//332
f 928//333 931//333 932//333 934//333
f 929//334 933//334 932//334 931//334
f 930//335 934//335 932//335 933//335
f 938//336 941//336 942//336 944//336
f 939//337 943//337 942//337 941//337
f 940//338 944//338 942//338 943//338
f 948//339 951//339 952//339 954//339
f 949//340 953//340 952//340 951//340
f 950//341 954//341 952//341 953//341
f 955//342 958//342 959//342 961//342
f 956//343 960//343 959//343 958//343
f 957//344 961//344 959//344 960//344
f 968//345 971//345 972//345 974//345
f 969//346 973//346 972//346 971//346
f 970//347 974//347 972//347 973//347
f 978//348 981//348 982//348 984//348
f 979//349 983//349 982//349 981//349
f 980//350 984//350 982//350 983//350
f 988//351 991//351 992//351 994//351
f 989//352 993//352 992//352 991//352
f 990//353 994//353 992//353 993//353
f 995//354 998//354 999//354 1001//354
f 996//355 1000//355 999//355 998//355
f 997//356 1001//356 999//356 1000//356
f 1008//357 1011//357 1012//357 1014//357
f 1009//358 1013//358 1012//358 1011//358
f 1010//359 1014//359 1012//359 1013//359
f 1018//360 1021//360 1022//360 1024//360
f 1019//361 1023//361 1022//361 1021//361
f 1020//362 1024//362 1022//362 1023//362
f 1028//363 1031//363 1032//363 1034//363
f 1029//364 1033//364 1032//364 1031//364
f 1030//365 1034//365 1032//365 1033//365
f 1035//366 1038//366 1039//366 1041//366
f 1036//367 1040//367 1039//367 1038//367
f 1037//368 1041//368 1039//368 1040//368
f 1048//369 1051//369 1052//369 1054//369
f 1049//370 1053//370 1052//370 1051//370
f 1050//371 1054//371 1052//371 1053//371
f 1058//372 1061//372 1062//372 1064//372
f 1059//373 1063//373 1062//373 1061//373
f 1060//374 1064//374 1062//374 1063//374
f 1068//375 1071//375 1072//375 1074//375
f 1069//376 1073//376 1072//376 1071//376
f 1070//377 1074//377 1072//377 1073//377
f 1075//378 1078//378 1079//378 1081//378
f 1076//379 1080//379 1079//379 1078//379
f 1077//380 1081//380 1079//380 1080//380
f 1088//381 1091//381 1092//381 1094//381
f 1089//382 1093//382 1092//382 1091//382
f 1090//383 1094//383 1092//383 1093//383
f 1098//384 1101//384 1102//384 1104//384
f 1099//385 1103//385 1102//385 1101//385
f 1100//386 1104//386 1102//386 1103//386
f 163//387 169//387 171//387 164//387
f 164//388 171//388 168//388 162//388
f 870//389 909//389 911//389 874//389
f 874//390 911//390 908//390 868//390
f 869//391 882//391 884//391 873//391
f 873//392 884//392 883//392 870//392
f 898//393 939//393 941//393 901//393
f 901//394 941//394 938//394 899//394
f 206//395 219//395 221//395 207//395
f 207//396 221//396 218//396 205//396
f 226//397 228//397 234//397 227//397
f 227//398 234//398 230//398 225//398
f 256//399 258//399 264//399 257//399
f 257//400 264//400 260//400 255//400
f 917//401 985//401 987//401 921//401
f 921//402 987//402 986//402 915//402
f 1010//403 1015//403 1017//403 1014//403
f 1014//404 1017//404 1016//404 1008//404
f 323//405 329//405 331//405 324//405
f 324//406 331//406 328//406 322//406
f 1028//407 1069//407 1071//407 1031//407
f 1031//408 1071//408 1068//408 1029//408
f 1058//409 1099//409 1101//409 1061//409
f 1061//410 1101//410 1098//410 1059//410
f 366//411 379//411 381//411 367//411
f 367//412 381//412 378//412 365//412
f 386//413 388//413 394//413 387//413
f 387//414 394//414 390//414 385//414
f 416//415 418//415 424//415 417//415
f 417//416 424//416 420//416 415//416
f 483//417 489//417 491//417 484//417
f 484//418 491//418 488//418 482//418
f 526//419 539//419 541//419 527//419
f 527//420 541//420 538//420 525//420
f 546//421 548//421 554//421 547//421
f 547//422 554//422 550//422 545//422
f 576//423 578//423 584//423 577//423
f 577//424 584//424 580//424 575//424
f 643//425 649//425 651//425 644//425
f 644//426 651//426 648//426 642//426
f 686//427 699//427 701//427 687//427
f 687//428 701//428 698//428 685//428
f 706//429 708//429 714//429 707//429
f 707//430 714//430 710//430 705//430
f 736//431 738//431 744//431 737//431
f 737//432 744//432 740//432 735//432
f 915//433 925//433 927//433 918//433
f 918//434 927//434 926//434 916//434
f 803//435 809//435 811//435 804//435
f 804//436 811//436 808//436 802//436
f 846//437 859//437 861//437 847//437
f 847//438 861//438 858//438 845//438
f 866//439 869//439 871//439 867//439
f 867//440 871//440 868//440 865//440
f 896//441 900//441 903//441 897//441
f 897//442 903//442 899//442 895//442
f 210//443 215//443 217//443 214//443
f 214//444 217//444 216//444 208//444
f 963//445 969//445 971//445 964//445
f 964//446 971//446 968//446 962//446
f 228//447 242//447 244//447 231//447
f 231//448 244//448 243//448 229//448
f 229//449 268//449 274//449 233//449
f 233//450 274//450 270//450 230//450
f 1006//451 1019//451 1021//451 1007//451
f 1007//452 1021//452 1018//452 1005//452
f 277//453 285//453 287//453 281//453
f 281//454 287//454 286//454 275//454
f 259//455 299//455 301//455 263//455
f 263//456 301//456 298//456 260//456
f 1026//457 1030//457 1033//457 1027//457
f 1027//458 1033//458 1029//458 1025//458
f 1056//459 1060//459 1063//459 1057//459
f 1057//460 1063//460 1059//460 1055//460
f 276//461 345//461 347//461 280//461
f 280//462 347//462 346//462 277//462
f 370//463 375//463 377//463 374//463
f 374//464 377//464 376//464 368//464
f 388//465 402//465 404//465 391//465
f 391//466 404//466 403//466 389//466
f 389//467 428//467 434//467 393//467
f 393//468 434//468 430//468 390//468
f 437//469 445//469 447//469 441//469
f 441//470 447//470 446//470 435//470
f 419//471 459//471 461//471 423//471
f 423//472 461//472 458//472 420//472
f 1037//473 1045//473 1047//473 1041//473
f 1041//474 1047//474 1046//474 1035//474
f 436//475 505//475 507//475 440//475
f 440//476 507//476 506//476 437//476
f 530//477 535//477 537//477 534//477
f 534//478 537//478 536//478 528//478
f 548//479 562//479 564//479 551//479
f 551//480 564//480 563//480 549//480
f 549//481 588//481 594//481 553//481
f 553//482 594//482 590//482 550//482
f 597//483 605//483 607//483 601//483
f 601//484 607//484 606//484 595//484
f 1069//485 1082//485 1084//485 1073//485
f 1073//486 1084//486 1083//486 1070//486
f 579//487 619//487 621//487 583//487
f 583//488 621//488 618//488 580//488
f 596//489 665//489 667//489 600//489
f 600//490 667//490 666//490 597//490
f 690//491 695//491 697//491 694//491
f 694//492 697//492 696//492 688//492
f 708//493 722//493 724//493 711//493
f 711//494 724//494 723//494 709//494
f 709//495 748//495 754//495 713//495
f 713//496 754//496 750//496 710//496
f 757//497 765//497 767//497 761//497
f 761//498 767//498 766//498 755//498
f 739//499 779//499 781//499 743//499
f 743//500 781//500 778//500 740//500
f 756//501 825//501 827//501 760//501
f 760//502 827//502 826//502 757//502
f 850//503 855//503 857//503 854//503
f 854//504 857//504 856//504 848//504
f 166//505 178//505 184//505 167//505
f 167//506 184//506 180//506 165//506
f 877//507 917//507 920//507 881//507
f 881//508 920//508 916//508 875//508
f 186//509 188//509 194//509 187//509
f 187//510 194//510 190//510 185//510
f 215//511 220//511 223//511 217//511
f 217//512 223//512 219//512 216//512
f 876//513 945//513 947//513 880//513
f 880//514 947//514 946//514 877//514
f 969//515 975//515 977//515 973//515
f 973//516 977//516 976//516 970//516
f 875//517 885//517 887//517 878//517
f 878//518 887//518 886//518 876//518
f 970//519 1010//519 1013//519 974//519
f 974//520 1013//520 1009//520 968//520
f 283//521 288//521 294//521 284//521
f 284//522 294//522 290//522 282//522
f 326//523 338//523 344//523 327//523
f 327//524 344//524 340//524 325//524
f 1036//525 1076//525 1078//525 1040//525
f 1040//526 1078//526 1075//526 1037//526
f 345//527 348//527 354//527 347//527
f 347//528 354//528 350//528 346//528
f 375//529 380//529 383//529 377//529
f 377//530 383//530 379//530 376//530
f 443//531 448//531 454//531 444//531
f 444//532 454//532 450//532 442//532
f 486//533 498//533 504//533 487//533
f 487//534 504//534 500//534 485//534
f 505//535 508//535 514//535 507//535
f 507//536 514//536 510//536 506//536
f 535//537 540//537 543//537 537//537
f 537//538 543//538 539//538 536//538
f 603//539 608//539 614//539 604//539
f 604//540 614//540 610//540 602//540
f 646//541 658//541 664//541 647//541
f 647//542 664//542 660//542 645//542
f 665//543 668//543 674//543 667//543
f 667//544 674//544 670//544 666//544
f 695//545 700//545 703//545 697//545
f 697//546 703//546 699//546 696//546
f 763//547 768//547 774//547 764//547
f 764//548 774//548 770//548 762//548
f 806//549 818//549 824//549 807//549
f 807//550 824//550 820//550 805//550
f 1030//551 1042//551 1044//551 1034//551
f 1034//552 1044//552 1043//552 1028//552
f 825//553 828//553 834//553 827//553
f 827//554 834//554 830//554 826//554
f 855//555 860//555 863//555 857//555
f 857//556 863//556 859//556 856//556
f 169//557 175//557 177//557 173//557
f 173//558 177//558 176//558 170//558
f 923//559 928//559 934//559 924//559
f 924//560 934//560 930//560 922//560
f 189//561 202//561 204//561 193//561
f 193//562 204//562 203//562 190//562
f 170//563 210//563 213//563 174//563
f 174//564 213//564 209//564 168//564
f 966//565 979//565 981//565 967//565
f 967//566 981//566 978//566 965//566
f 235//567 245//567 247//567 238//567
f 238//568 247//568 246//568 236//568
f 985//569 988//569 994//569 987//569
f 987//570 994//570 990//570 986//570
f 237//571 276//571 278//571 241//571
f 241//572 278//572 275//572 235//572
f 1015//573 1020//573 1023//573 1017//573
f 1017//574 1023//574 1019//574 1016//574
f 236//575 305//575 307//575 240//575
f 240//576 307//576 306//576 237//576
f 329//577 335//577 337//577 333//577
f 333//578 337//578 336//578 330//578
f 185//579 1077//579 1080//579 187//579
f 187//580 1080//580 1076//580 186//580
f 1082//581 1088//581 1094//581 1084//581
f 1084//582 1094//582 1090//582 1083//582
f 349//583 362//583 364//583 353//583
f 353//584 364//584 363//584 350//584
f 330//585 370//585 373//585 334//585
f 334//586 373//586 369//586 328//586
f 395//587 405//587 407//587 398//587
f 398//588 407//588 406//588 396//588
f 397//589 436//589 438//589 401//589
f 401//590 438//590 435//590 395//590
f 396//591 465//591 467//591 400//591
f 400//592 467//592 466//592 397//592
f 489//593 495//593 497//593 493//593
f 493//594 497//594 496//594 490//594
f 509//595 522//595 524//595 513//595
f 513//596 524//596 523//596 510//596
f 490//597 530//597 533//597 494//597
f 494//598 533//598 529//598 488//598
f 555//599 565//599 567//599 558//599
f 558//600 567//600 566//600 556//600
f 557//601 596//601 598//601 561//601
f 561//602 598//602 595//602 555//602
f 556//603 625//603 627//603 560//603
f 560//604 627//604 626//604 557//604
f 649//605 655//605 657//605 653//605
f 653//606 657//606 656//606 650//606
f 669//607 682//607 684//607 673//607
f 673//608 684//608 683//608 670//608
f 1077//609 1085//609 1087//609 1081//609
f 1081//610 1087//610 1086//610 1075//610
f 650//611 690//611 693//611 654//611
f 654//612 693//612 689//612 648//612
f 715//613 725//613 727//613 718//613
f 718//614 727//614 726//614 716//614
f 717//615 756//615 758//615 721//615
f 721//616 758//616 755//616 715//616
f 716//617 785//617 787//617 720//617
f 720//618 787//618 786//618 717//618
f 809//619 815//619 817//619 813//619
f 813//620 817//620 816//620 810//620
f 829//621 842//621 844//621 833//621
f 833//622 844//622 843//622 830//622
f 810//623 850//623 853//623 814//623
f 814//624 853//624 849//624 808//624
f 146//625 149//625 151//625 147//625
f 147//626 151//626 148//626 145//626
f 175//627 180//627 183//627 177//627
f 177//628 183//628 179//628 176//628
f 835//629 905//629 907//629 838//629
f 838//630 907//630 906//630 836//630
f 929//631 935//631 937//631 933//631
f 933//632 937//632 936//632 930//632
f 242//633 249//633 251//633 244//633
f 244//634 251//634 248//634 243//634
f 948//635 989//635 991//635 951//635
f 951//636 991//636 988//636 949//636
f 979//637 1018//637 1024//637 983//637
f 983//638 1024//638 1020//638 980//638
f 285//639 300//639 303//639 287//639
f 287//640 303//640 299//640 286//640
f 989//641 1002//641 1004//641 993//641
f 993//642 1004//642 1003//642 990//642
f 305//643 309//643 311//643 307//643
f 307//644 311//644 308//644 306//644
f 335//645 340//645 343//645 337//645
f 337//646 343//646 339//646 336//646
f 995//647 1065//647 1067//647 998//647
f 998//648 1067//648 1066//648 996//648
f 1089//649 1095//649 1097//649 1093//649
f 1093//650 1097//650 1096//650 1090//650
f 402//651 409//651 411//651 404//651
f 404//652 411//652 408//652 403//652
f 445//653 460//653 463//653 447//653
f 447//654 463//654 459//654 446//654
f 465//655 469//655 471//655 467//655
f 467//656 471//656 468//656 466//656
f 495//657 500//657 503//657 497//657
f 497//658 503//658 499//658 496//658
f 562//659 569//659 571//659 564//659
f 564//660 571//660 568//660 563//660
f 605//661 620//661 623//661 607//661
f 607//662 623//662 619//662 606//662
f 625//663 629//663 631//663 627//663
f 627//664 631//664 628//664 626//664
f 655//665 660//665 663//665 657//665
f 657//666 663//666 659//666 656//666
f 722//667 729//667 731//667 724//667
f 724//668 731//668 728//668 723//668
f 765//669 780//669 783//669 767//669
f 767//670 783//670 779//670 766//670
f 785//671 789//671 791//671 787//671
f 787//672 791//672 788//672 786//672
f 815//673 820//673 823//673 817//673
f 817//674 823//674 819//674 816//674
f 882//675 889//675 891//675 884//675
f 884//676 891//676 888//676 883//676
f 149//677 163//677 164//677 153//677
f 153//678 164//678 162//678 150//678
f 150//679 189//679 191//679 154//679
f 154//680 191//680 188//680 148//680
f 925//681 940//681 943//681 927//681
f 927//682 943//682 939//682 926//682
f 197//683 206//683 207//683 201//683
f 201//684 207//684 205//684 195//684
f 178//685 218//685 224//685 181//685
f 181//686 224//686 220//686 179//686
f 945//687 950//687 953//687 947//687
f 947//688 953//688 949//688 946//688
f 975//689 978//689 984//689 977//689
f 977//690 984//690 980//690 976//690
f 196//691 265//691 267//691 200//691
f 200//692 267//692 266//692 197//692
f 289//693 295//693 297//693 293//693
f 293//694 297//694 296//694 290//694
f 145//695 1036//695 1038//695 147//695
f 147//696 1038//696 1035//696 146//696
f 1042//697 1049//697 1051//697 1044//697
f 1044//698 1051//698 1048//698 1043//698
f 309//699 323//699 324//699 313//699
f 313//700 324//700 322//700 310//700
f 310//701 349//701 351//701 314//701
f 314//702 351//702 348//702 308//702
f 1085//703 1100//703 1103//703 1087//703
f 1087//704 1103//704 1099//704 1086//704
f 357//705 366//705 367//705 361//705
f 361//706 367//706 365//706 355//706
f 338//707 378//707 384//707 341//707
f 341//708 384//708 380//708 339//708
f 356//709 425//709 427//709 360//709
f 360//710 427//710 426//710 357//710
f 449//711 455//711 457//711 453//711
f 453//712 457//712 456//712 450//712
f 469//713 483//713 484//713 473//713
f 473//714 484//714 482//714 470//714
f 950//715 963//715 964//715 954//715
f 954//716 964//716 962//716 948//716
f 470//717 509//717 511//717 474//717
f 474//718 511//718 508//718 468//718
f 517//719 526//719 527//719 521//719
f 521//720 527//720 525//720 515//720
f 498//721 538//721 544//721 501//721
f 501//722 544//722 540//722 499//722
f 516//723 585//723 587//723 520//723
f 520//724 587//724 586//724 517//724
f 609//725 615//725 617//725 613//725
f 613//726 617//726 616//726 610//726
f 629//727 643//727 644//727 633//727
f 633//728 644//728 642//728 630//728
f 630//729 669//729 671//729 634//729
f 634//730 671//730 668//730 628//730
f 677//731 686//731 687//731 681//731
f 681//732 687//732 685//732 675//732
f 658//733 698//733 704//733 661//733
f 661//734 704//734 700//734 659//734
f 676//735 745//735 747//735 680//735
f 680//736 747//736 746//736 677//736
f 769//737 775//737 777//737 773//737
f 773//738 777//738 776//738 770//738
f 789//739 803//739 804//739 793//739
f 793//740 804//740 802//740 790//740
f 790//741 829//741 831//741 794//741
f 794//742 831//742 828//742 788//742
f 836//743 846//743 847//743 840//743
f 840//744 847//744 845//744 837//744
f 818//745 858//745 864//745 821//745
f 821//746 864//746 860//746 819//746
f 797//747 866//747 867//747 801//747
f 801//748 867//748 865//748 795//748
f 889//749 896//749 897//749 893//749
f 893//750 897//750 895//750 890//750
f 890//751 929//751 931//751 894//751
f 894//752 931//752 928//752 888//752
f 202//753 209//753 211//753 204//753
f 204//754 211//754 208//754 203//754
f 245//755 259//755 261//755 247//755
f 247//756 261//756 258//756 246//756
f 957//757 995//757 1001//757 961//757
f 961//758 1001//758 997//758 955//758
f 265//759 270//759 273//759 267//759
f 267//760 273//760 269//760 266//760
f 295//761 298//761 304//761 297//761
f 297//762 304//762 300//762 296//762
f 956//763 1026//763 1027//763 960//763
f 960//764 1027//764 1025//764 957//764
f 1049//765 1056//765 1057//765 1053//765
f 1053//766 1057//766 1055//766 1050//766
f 1050//767 1089//767 1091//767 1054//767
f 1054//768 1091//768 1088//768 1048//768
f 362//769 369//769 371//769 364//769
f 364//770 371//770 368//770 363//770
f 996//771 1006//771 1007//771 1000//771
f 1000//772 1007//772 1005//772 997//772
f 405//773 419//773 421//773 407//773
f 407//774 421//774 418//774 406//774
f 425//775 430//775 433//775 427//775
f 427//776 433//776 429//776 426//776
f 455//777 458//777 464//777 457//777
f 457//778 464//778 460//778 456//778
f 522//779 529//779 531//779 524//779
f 524//780 531//780 528//780 523//780
f 565//781 579//781 581//781 567//781
f 567//782 581//782 578//782 566//782
f 585//783 590//783 593//783 587//783
f 587//784 593//784 589//784 586//784
f 615//785 618//785 624//785 617//785
f 617//786 624//786 620//786 616//786
f 682//787 689//787 691//787 684//787
f 684//788 691//788 688//788 683//788
f 909//789 923//789 924//789 913//789
f 913//790 924//790 922//790 910//790
f 725//791 739//791 741//791 727//791
f 727//792 741//792 738//792 726//792
f 745//793 750//793 753//793 747//793
f 747//794 753//794 749//794 746//794
f 775//795 778//795 784//795 777//795
f 777//796 784//796 780//796 776//796
f 842//797 849//797 851//797 844//797
f 844//798 851//798 848//798 843//798
f 885//799 898//799 904//799 887//799
f 887//800 904//800 900//800 886//800
f 155//801 166//801 167//801 158//801
f 158//802 167//802 165//802 156//802
f 905//803 908//803 914//803 907//803
f 907//804 914//804 910//804 906//804
f 157//805 196//805 198//805 161//805
f 161//806 198//806 195//806 155//806
f 935//807 938//807 944//807 937//807
f 937//808 944//808 940//808 936//808
f 156//809 226//809 227//809 160//809
f 160//810 227//810 225//810 157//810
f 249//811 256//811 257//811 253//811
f 253//812 257//812 255//812 250//812
f 1002//813 1009//813 1011//813 1004//813
f 1004//814 1011//814 1008//814 1003//814
f 268//815 283//815 284//815 271//815
f 271//816 284//816 282//816 269//816
f 250//817 289//817 291//817 254//817
f 254//818 291//818 288//818 248//818
f 1045//819 1058//819 1064//819 1047//819
f 1047//820 1064//820 1060//820 1046//820
f 315//821 326//821 327//821 318//821
f 318//822 327//822 325//822 316//822
f 1065//823 1068//823 1074//823 1067//823
f 1067//824 1074//824 1070//824 1066//824
f 317//825 356//825 358//825 321//825
f 321//826 358//826 355//826 315//826
f 1095//827 1098//827 1104//827 1097//827
f 1097//828 1104//828 1100//828 1096//828
f 316//829 386//829 387//829 320//829
f 320//830 387//830 385//830 317//830
f 409//831 416//831 417//831 413//831
f 413//832 417//832 415//832 410//832
f 428//833 443//833 444//833 431//833
f 431//834 444//834 442//834 429//834
f 410//835 449//835 451//835 414//835
f 414//836 451//836 448//836 408//836
f 475//837 486//837 487//837 478//837
f 478//838 487//838 485//838 476//838
f 477//839 516//839 518//839 481//839
f 481//840 518//840 515//840 475//840
f 476//841 546//841 547//841 480//841
f 480//842 547//842 545//842 477//842
f 569//843 576//843 577//843 573//843
f 573//844 577//844 575//844 570//844
f 955//845 966//845 967//845 958//845
f 958//846 967//846 965//846 956//846
f 588//847 603//847 604//847 591//847
f 591//848 604//848 602//848 589//848
f 570//849 609//849 611//849 574//849
f 574//850 611//850 608//850 568//850
f 635//851 646//851 647//851 638//851
f 638//852 647//852 645//852 636//852
f 637//853 676//853 678//853 641//853
f 641//854 678//854 675//854 635//854
f 636//855 706//855 707//855 640//855
f 640//856 707//856 705//856 637//856
f 729//857 736//857 737//857 733//857
f 733//858 737//858 735//858 730//858
f 748//859 763//859 764//859 751//859
f 751//860 764//860 762//860 749//860
f 730//861 769//861 771//861 734//861
f 734//862 771//862 768//862 728//862
f 796//863 806//863 807//863 800//863
f 800//864 807//864 805//864 797//864
f 795//865 835//865 841//865 798//865
f 798//866 841//866 837//866 796//866
f 136//2 1//2 146//2 1035//2
