# Blender v3.1.2 OBJ File: ''
# www.blender.org
mtllib Icosahedron.mtl
o Icosahedron
v 0.504387 0.304170 -0.004671
v 0.499716 0.311728 -0.007558
v 0.496829 0.316399 0.000000
v 0.499716 0.311728 0.007558
v 0.504387 0.304170 0.004671
v 0.502649 0.308178 -0.006484
v 0.503173 0.310978 -0.000000
v 0.498642 0.314661 -0.004007
v 0.498642 0.314661 0.004007
v 0.502649 0.308178 0.006484
v 0.505126 0.304170 -0.000000
v -0.504387 0.304170 -0.004671
v -0.504387 0.304170 0.004671
v -0.499716 0.311728 0.007558
v -0.496829 0.316399 0.000000
v -0.499716 0.311728 -0.007558
v -0.505126 0.304170 0.000000
v -0.503173 0.310978 0.000000
v -0.502649 0.308178 0.006484
v -0.498642 0.314661 0.004007
v -0.498642 0.314661 -0.004007
v -0.502649 0.308178 -0.006484
v 0.504387 -0.304170 -0.004671
v 0.504387 -0.304170 0.004671
v 0.499716 -0.311728 0.007558
v 0.496829 -0.316399 0.000000
v 0.499716 -0.311728 -0.007558
v 0.505126 -0.304170 0.000000
v 0.503173 -0.310978 0.000000
v 0.502649 -0.308178 0.006484
v 0.498642 -0.314661 0.004007
v 0.498642 -0.314661 -0.004007
v 0.502649 -0.308178 -0.006484
v -0.504387 -0.304170 -0.004671
v -0.499716 -0.311728 -0.007558
v -0.496829 -0.316399 0.000000
v -0.499716 -0.311728 0.007558
v -0.504387 -0.304170 0.004671
v -0.502649 -0.308178 -0.006484
v -0.503173 -0.310978 -0.000000
v -0.498642 -0.314661 -0.004007
v -0.498642 -0.314661 0.004007
v -0.502649 -0.308178 0.006484
v -0.505126 -0.304170 -0.000000
v 0.311728 0.007558 0.499716
v 0.304170 0.004671 0.504387
v 0.304170 -0.004671 0.504387
v 0.311728 -0.007558 0.499716
v 0.316399 0.000000 0.496829
v 0.308178 0.006484 0.502649
v 0.310978 -0.000000 0.503173
v 0.304170 -0.000000 0.505126
v 0.308178 -0.006484 0.502649
v 0.314661 -0.004007 0.498642
v 0.314661 0.004007 0.498642
v 0.311728 0.007558 -0.499716
v 0.316399 0.000000 -0.496829
v 0.311728 -0.007558 -0.499716
v 0.304170 -0.004671 -0.504387
v 0.304170 0.004671 -0.504387
v 0.314661 0.004007 -0.498642
v 0.310978 0.000000 -0.503173
v 0.314661 -0.004007 -0.498642
v 0.308178 -0.006484 -0.502649
v 0.304170 0.000000 -0.505126
v 0.308178 0.006484 -0.502649
v -0.311728 0.007558 0.499716
v -0.316399 0.000000 0.496829
v -0.311728 -0.007558 0.499716
v -0.304170 -0.004671 0.504387
v -0.304170 0.004671 0.504387
v -0.314661 0.004007 0.498642
v -0.310978 0.000000 0.503173
v -0.314661 -0.004007 0.498642
v -0.308178 -0.006484 0.502649
v -0.304170 0.000000 0.505126
v -0.308178 0.006484 0.502649
v -0.311728 0.007558 -0.499716
v -0.304170 0.004671 -0.504387
v -0.304170 -0.004671 -0.504387
v -0.311728 -0.007558 -0.499716
v -0.316399 0.000000 -0.496829
v -0.308178 0.006484 -0.502649
v -0.310978 -0.000000 -0.503173
v -0.304170 -0.000000 -0.505126
v -0.308178 -0.006484 -0.502649
v -0.314661 -0.004007 -0.498642
v -0.314661 0.004007 -0.498642
v 0.004671 0.504387 0.304170
v -0.004671 0.504387 0.304170
v -0.007558 0.499716 0.311728
v 0.000000 0.496829 0.316399
v 0.007558 0.499716 0.311728
v -0.000000 0.505126 0.304170
v -0.000000 0.503173 0.310978
v -0.006484 0.502649 0.308178
v -0.004007 0.498642 0.314661
v 0.004007 0.498642 0.314661
v 0.006484 0.502649 0.308178
v -0.004671 -0.504387 0.304170
v 0.004671 -0.504387 0.304170
v 0.007558 -0.499716 0.311728
v 0.000000 -0.496829 0.316399
v -0.007558 -0.499716 0.311728
v 0.000000 -0.505126 0.304170
v 0.000000 -0.503173 0.310978
v 0.006484 -0.502649 0.308178
v 0.004007 -0.498642 0.314661
v -0.004007 -0.498642 0.314661
v -0.006484 -0.502649 0.308178
v 0.004671 0.504387 -0.304170
v 0.007558 0.499716 -0.311728
v 0.000000 0.496829 -0.316399
v -0.007558 0.499716 -0.311728
v -0.004671 0.504387 -0.304170
v 0.006484 0.502649 -0.308178
v 0.000000 0.503173 -0.310978
v 0.004007 0.498642 -0.314661
v -0.004007 0.498642 -0.314661
v -0.006484 0.502649 -0.308178
v 0.000000 0.505126 -0.304170
v -0.004671 -0.504387 -0.304170
v -0.007558 -0.499716 -0.311728
v 0.000000 -0.496829 -0.316399
v 0.007558 -0.499716 -0.311728
v 0.004671 -0.504387 -0.304170
v -0.006484 -0.502649 -0.308178
v -0.000000 -0.503173 -0.310978
v -0.004007 -0.498642 -0.314661
v 0.004007 -0.498642 -0.314661
v 0.006484 -0.502649 -0.308178
v -0.000000 -0.505126 -0.304170
vn 0.3568 0.9342 0.0000
vn 0.5774 0.5774 0.5774
vn -0.5774 -0.5774 0.5774
vn 0.5774 -0.5774 0.5774
vn 0.3568 -0.9342 -0.0000
vn -0.9342 -0.0000 0.3568
vn -0.3568 -0.9342 0.0000
vn -0.0000 -0.3568 0.9342
vn -0.9342 0.0000 -0.3568
vn -0.5774 0.5774 -0.5774
vn 0.5774 -0.5774 -0.5774
vn -0.5774 -0.5774 -0.5774
vn 0.5774 0.5774 -0.5774
vn 0.9342 0.0000 0.3568
vn -0.5774 0.5774 0.5774
vn -0.3568 0.9342 -0.0000
vn 0.0000 -0.3568 -0.9342
vn 0.0000 0.3568 0.9342
vn -0.0000 0.3568 -0.9342
vn 0.9399 0.2907 -0.1793
vn 0.7605 0.5809 -0.2902
vn 0.6497 0.7602 0.0000
vn 0.7605 0.5809 0.2902
vn 0.9399 0.2907 0.1794
vn -0.9399 0.2906 -0.1794
vn -0.9399 0.2907 0.1793
vn -0.7605 0.5809 0.2902
vn -0.6497 0.7602 0.0000
vn -0.7605 0.5809 -0.2902
vn 0.9399 -0.2906 -0.1794
vn 0.9399 -0.2907 0.1793
vn 0.7605 -0.5809 0.2902
vn 0.6497 -0.7602 0.0000
vn 0.7605 -0.5809 -0.2902
vn -0.9399 -0.2907 -0.1793
vn -0.7605 -0.5809 -0.2902
vn -0.6497 -0.7602 0.0000
vn -0.7605 -0.5809 0.2902
vn -0.9399 -0.2907 0.1794
vn 0.5809 0.2902 0.7605
vn 0.2907 0.1794 0.9399
vn 0.2907 -0.1793 0.9399
vn 0.5809 -0.2902 0.7605
vn 0.7602 -0.0000 0.6497
vn 0.5809 0.2902 -0.7605
vn 0.7602 0.0000 -0.6497
vn 0.5809 -0.2902 -0.7605
vn 0.2907 -0.1794 -0.9399
vn 0.2907 0.1793 -0.9399
vn -0.5809 0.2902 0.7605
vn -0.7602 0.0000 0.6497
vn -0.5809 -0.2902 0.7605
vn -0.2907 -0.1794 0.9399
vn -0.2907 0.1793 0.9399
vn -0.5809 0.2902 -0.7605
vn -0.2907 0.1794 -0.9399
vn -0.2907 -0.1793 -0.9399
vn -0.5809 -0.2902 -0.7605
vn -0.7602 -0.0000 -0.6497
vn 0.1794 0.9399 0.2906
vn -0.1793 0.9399 0.2907
vn -0.2902 0.7605 0.5809
vn 0.0000 0.6497 0.7602
vn 0.2902 0.7605 0.5809
vn -0.1794 -0.9399 0.2906
vn 0.1793 -0.9399 0.2907
vn 0.2902 -0.7605 0.5809
vn 0.0000 -0.6497 0.7602
vn -0.2902 -0.7605 0.5809
vn 0.1793 0.9399 -0.2907
vn 0.2902 0.7605 -0.5809
vn 0.0000 0.6497 -0.7602
vn -0.2902 0.7605 -0.5809
vn -0.1794 0.9399 -0.2907
vn -0.1793 -0.9399 -0.2907
vn -0.2902 -0.7605 -0.5809
vn 0.0000 -0.6497 -0.7602
vn 0.2902 -0.7605 -0.5809
vn 0.1794 -0.9399 -0.2907
vn -0.1563 -0.9877 0.0000
vn 0.1563 -0.9877 -0.0000
vn 0.9877 0.0000 0.1563
vn 0.9877 -0.0000 -0.1563
vn -0.9877 0.0000 -0.1563
vn -0.9877 -0.0000 0.1563
vn 0.7209 0.4316 0.5421
vn 0.8772 0.1788 0.4456
vn 0.8772 0.1788 -0.4456
vn 0.7209 0.4316 -0.5422
vn -0.8772 0.1788 0.4456
vn -0.7209 0.4316 0.5422
vn -0.7209 0.4316 -0.5421
vn -0.8772 0.1788 -0.4456
vn 0.4456 0.8772 0.1788
vn 0.5421 0.7209 0.4316
vn 0.5421 -0.7209 0.4316
vn 0.4456 -0.8772 0.1788
vn 0.5421 0.7209 -0.4316
vn 0.4456 0.8772 -0.1788
vn 0.4456 -0.8772 -0.1788
vn 0.5421 -0.7209 -0.4316
vn 0.8772 -0.1788 0.4456
vn 0.7209 -0.4316 0.5422
vn 0.7209 -0.4316 -0.5421
vn 0.8772 -0.1788 -0.4456
vn -0.5421 0.7209 0.4316
vn -0.4456 0.8772 0.1788
vn -0.7209 -0.4316 0.5421
vn -0.8772 -0.1788 0.4456
vn -0.4456 0.8772 -0.1788
vn -0.5421 0.7209 -0.4316
vn -0.8772 -0.1788 -0.4456
vn -0.7209 -0.4316 -0.5422
vn 0.0000 0.1563 0.9877
vn -0.0000 -0.1563 0.9877
vn -0.4456 -0.8772 0.1788
vn -0.5421 -0.7209 0.4316
vn 0.4316 0.5421 0.7209
vn 0.1788 0.4456 0.8772
vn 0.0000 -0.1563 -0.9877
vn -0.0000 0.1563 -0.9877
vn 0.1788 -0.4456 0.8772
vn 0.4316 -0.5422 0.7209
vn -0.5421 -0.7209 -0.4316
vn -0.4456 -0.8772 -0.1788
vn -0.1788 0.4456 0.8772
vn -0.4316 0.5422 0.7209
vn 0.1788 0.4456 -0.8772
vn 0.4316 0.5422 -0.7209
vn -0.4316 -0.5421 0.7209
vn -0.1788 -0.4456 0.8772
vn 0.4316 -0.5421 -0.7209
vn 0.1788 -0.4456 -0.8772
vn -0.4316 0.5421 -0.7209
vn -0.1788 0.4456 -0.8772
vn -0.1788 -0.4456 -0.8772
vn -0.4316 -0.5422 -0.7209
vn 0.1563 0.9877 0.0000
vn -0.1563 0.9877 -0.0000
vn 0.9342 -0.0000 -0.3568
usemtl dtmo_base_mat
s off
f 3//1 111//1 89//1
f 4//2 93//2 45//2
f 37//3 104//3 69//3
f 25//4 48//4 102//4
f 26//5 101//5 126//5
f 68//6 13//6 38//6
f 36//7 122//7 100//7
f 103//8 47//8 70//8
f 82//9 34//9 12//9
f 16//10 114//10 78//10
f 27//11 125//11 58//11
f 35//12 81//12 123//12
f 2//13 56//13 112//13
f 49//14 24//14 5//14
f 14//15 67//15 91//15
f 15//16 90//16 115//16
f 124//17 80//17 59//17
f 92//18 71//18 46//18
f 113//19 60//19 79//19
f 1//20 6//20 7//20 11//20
f 2//21 8//21 7//21 6//21
f 3//22 9//22 7//22 8//22
f 4//23 10//23 7//23 9//23
f 5//24 11//24 7//24 10//24
f 12//25 17//25 18//25 22//25
f 13//26 19//26 18//26 17//26
f 14//27 20//27 18//27 19//27
f 15//28 21//28 18//28 20//28
f 16//29 22//29 18//29 21//29
f 23//30 28//30 29//30 33//30
f 24//31 30//31 29//31 28//31
f 25//32 31//32 29//32 30//32
f 26//33 32//33 29//33 31//33
f 27//34 33//34 29//34 32//34
f 34//35 39//35 40//35 44//35
f 35//36 41//36 40//36 39//36
f 36//37 42//37 40//37 41//37
f 37//38 43//38 40//38 42//38
f 38//39 44//39 40//39 43//39
f 45//40 50//40 51//40 55//40
f 46//41 52//41 51//41 50//41
f 47//42 53//42 51//42 52//42
f 48//43 54//43 51//43 53//43
f 49//44 55//44 51//44 54//44
f 56//45 61//45 62//45 66//45
f 57//46 63//46 62//46 61//46
f 58//47 64//47 62//47 63//47
f 59//48 65//48 62//48 64//48
f 60//49 66//49 62//49 65//49
f 67//50 72//50 73//50 77//50
f 68//51 74//51 73//51 72//51
f 69//52 75//52 73//52 74//52
f 70//53 76//53 73//53 75//53
f 71//54 77//54 73//54 76//54
f 78//55 83//55 84//55 88//55
f 79//56 85//56 84//56 83//56
f 80//57 86//57 84//57 85//57
f 81//58 87//58 84//58 86//58
f 82//59 88//59 84//59 87//59
f 89//60 94//60 95//60 99//60
f 90//61 96//61 95//61 94//61
f 91//62 97//62 95//62 96//62
f 92//63 98//63 95//63 97//63
f 93//64 99//64 95//64 98//64
f 100//65 105//65 106//65 110//65
f 101//66 107//66 106//66 105//66
f 102//67 108//67 106//67 107//67
f 103//68 109//68 106//68 108//68
f 104//69 110//69 106//69 109//69
f 111//70 116//70 117//70 121//70
f 112//71 118//71 117//71 116//71
f 113//72 119//72 117//72 118//72
f 114//73 120//73 117//73 119//73
f 115//74 121//74 117//74 120//74
f 122//75 127//75 128//75 132//75
f 123//76 129//76 128//76 127//76
f 124//77 130//77 128//77 129//77
f 125//78 131//78 128//78 130//78
f 126//79 132//79 128//79 131//79
f 100//80 122//80 132//80 105//80
f 105//81 132//81 126//81 101//81
f 5//82 24//82 28//82 11//82
f 11//83 28//83 23//83 1//83
f 12//84 34//84 44//84 17//84
f 17//85 44//85 38//85 13//85
f 4//86 45//86 55//86 10//86
f 10//87 55//87 49//87 5//87
f 1//88 57//88 61//88 6//88
f 6//89 61//89 56//89 2//89
f 13//90 68//90 72//90 19//90
f 19//91 72//91 67//91 14//91
f 16//92 78//92 88//92 22//92
f 22//93 88//93 82//93 12//93
f 3//94 89//94 99//94 9//94
f 9//95 99//95 93//95 4//95
f 25//96 102//96 107//96 31//96
f 31//97 107//97 101//97 26//97
f 2//98 112//98 116//98 8//98
f 8//99 116//99 111//99 3//99
f 26//100 126//100 131//100 32//100
f 32//101 131//101 125//101 27//101
f 24//102 49//102 54//102 30//102
f 30//103 54//103 48//103 25//103
f 27//104 58//104 63//104 33//104
f 33//105 63//105 57//105 23//105
f 14//106 91//106 96//106 20//106
f 20//107 96//107 90//107 15//107
f 37//108 69//108 74//108 43//108
f 43//109 74//109 68//109 38//109
f 15//110 115//110 120//110 21//110
f 21//111 120//111 114//111 16//111
f 34//112 82//112 87//112 39//112
f 39//113 87//113 81//113 35//113
f 46//114 71//114 76//114 52//114
f 52//115 76//115 70//115 47//115
f 36//116 100//116 110//116 42//116
f 42//117 110//117 104//117 37//117
f 45//118 93//118 98//118 50//118
f 50//119 98//119 92//119 46//119
f 59//120 80//120 85//120 65//120
f 65//121 85//121 79//121 60//121
f 47//122 103//122 108//122 53//122
f 53//123 108//123 102//123 48//123
f 35//124 123//124 127//124 41//124
f 41//125 127//125 122//125 36//125
f 71//126 92//126 97//126 77//126
f 77//127 97//127 91//127 67//127
f 60//128 113//128 118//128 66//128
f 66//129 118//129 112//129 56//129
f 69//130 104//130 109//130 75//130
f 75//131 109//131 103//131 70//131
f 58//132 125//132 130//132 64//132
f 64//133 130//133 124//133 59//133
f 78//134 114//134 119//134 83//134
f 83//135 119//135 113//135 79//135
f 80//136 124//136 129//136 86//136
f 86//137 129//137 123//137 81//137
f 89//138 111//138 121//138 94//138
f 94//139 121//139 115//139 90//139
f 57//140 1//140 23//140
