# Blender v2.90.0 OBJ File: 'convert2obj.blend'
# www.blender.org
mtllib Kbdasharp.mtl
o Kbdasharp
v 0.213070 -0.003385 0.276090
v 0.158015 -0.003385 0.276090
v 0.158015 -0.660740 0.276090
v 0.213070 -0.660740 0.276090
v 0.232601 -0.003385 0.005195
v 0.232601 -0.003385 0.171395
v 0.232601 -0.696786 0.171395
v 0.232601 -0.696786 0.005195
v 0.139278 -0.694623 0.181147
v 0.154241 -0.662037 0.271304
v 0.154241 -0.003385 0.271304
v 0.139278 -0.003385 0.181147
v 0.229622 -0.700030 0.005195
v 0.229622 -0.700030 0.171395
v 0.141463 -0.700030 0.171395
v 0.141463 -0.700030 0.005195
v 0.141463 -0.000141 0.005195
v 0.141463 -0.000141 0.171395
v 0.229622 -0.000141 0.171395
v 0.229622 -0.000141 0.005195
v 0.228815 -0.698459 0.180706
v 0.213705 -0.665555 0.271745
v 0.157380 -0.665555 0.271745
v 0.142270 -0.698459 0.180706
v 0.231807 -0.003385 0.181147
v 0.216844 -0.003385 0.271304
v 0.216844 -0.662037 0.271304
v 0.231807 -0.694623 0.181147
v 0.142399 -0.000141 0.181326
v 0.157303 -0.000141 0.271124
v 0.213782 -0.000141 0.271124
v 0.228686 -0.000141 0.181326
v 0.141463 -0.003385 0.000230
v 0.229622 -0.003385 0.000230
v 0.229622 -0.696786 0.000230
v 0.141463 -0.696786 0.000230
v 0.138484 -0.696786 0.005195
v 0.138882 -0.696786 0.002716
v 0.139269 -0.698337 0.002821
v 0.138882 -0.698406 0.005195
v 0.139976 -0.696786 0.000893
v 0.140039 -0.698337 0.001538
v 0.141463 -0.698406 0.000893
v 0.141463 -0.699596 0.002716
v 0.140039 -0.699175 0.002821
v 0.139976 -0.699596 0.005195
v 0.157582 -0.664310 0.273868
v 0.156173 -0.663935 0.274035
v 0.155947 -0.664859 0.272164
v 0.157813 -0.662556 0.275451
v 0.156331 -0.662761 0.275058
v 0.156440 -0.661153 0.275385
v 0.155069 -0.661624 0.273646
v 0.155385 -0.663088 0.273964
v 0.154811 -0.663586 0.272005
v 0.139976 -0.003385 0.000893
v 0.140039 -0.001833 0.001538
v 0.141463 -0.001765 0.000893
v 0.138882 -0.003385 0.002716
v 0.139269 -0.001833 0.002821
v 0.138484 -0.003385 0.005195
v 0.138882 -0.001765 0.005195
v 0.139976 -0.000574 0.005195
v 0.140039 -0.000995 0.002821
v 0.141463 -0.000574 0.002716
v 0.155021 -0.003385 0.273727
v 0.155417 -0.001833 0.273569
v 0.154665 -0.001765 0.271247
v 0.156406 -0.003385 0.275483
v 0.156392 -0.001833 0.274806
v 0.157935 -0.001765 0.275394
v 0.157673 -0.000574 0.273571
v 0.156208 -0.000995 0.273523
v 0.155789 -0.000574 0.271181
v 0.231109 -0.696786 0.000893
v 0.231046 -0.698337 0.001538
v 0.229622 -0.698406 0.000893
v 0.232203 -0.696786 0.002716
v 0.231816 -0.698337 0.002821
v 0.232203 -0.698406 0.005195
v 0.231109 -0.699596 0.005195
v 0.231046 -0.699175 0.002821
v 0.229622 -0.699596 0.002716
v 0.216016 -0.661624 0.273646
v 0.215700 -0.663088 0.273964
v 0.216274 -0.663586 0.272005
v 0.214645 -0.661153 0.275384
v 0.214754 -0.662761 0.275058
v 0.213272 -0.662556 0.275451
v 0.213503 -0.664310 0.273868
v 0.214912 -0.663935 0.274035
v 0.215138 -0.664859 0.272164
v 0.229622 -0.001765 0.000893
v 0.231046 -0.001833 0.001538
v 0.231109 -0.003385 0.000893
v 0.229622 -0.000574 0.002716
v 0.231046 -0.000995 0.002821
v 0.231109 -0.000574 0.005195
v 0.232203 -0.001765 0.005195
v 0.231816 -0.001833 0.002821
v 0.232203 -0.003385 0.002716
v 0.213412 -0.000574 0.273571
v 0.214877 -0.000995 0.273523
v 0.215296 -0.000574 0.271181
v 0.213150 -0.001765 0.275394
v 0.214693 -0.001833 0.274806
v 0.214679 -0.003385 0.275483
v 0.216064 -0.003385 0.273727
v 0.215668 -0.001833 0.273569
v 0.216420 -0.001765 0.271247
v 0.138891 -0.695309 0.178086
v 0.139309 -0.697382 0.178086
v 0.139801 -0.696273 0.181566
v 0.138600 -0.696100 0.174517
v 0.139015 -0.698091 0.174661
v 0.138484 -0.696786 0.171395
v 0.138926 -0.698378 0.171395
v 0.140001 -0.699548 0.171395
v 0.140052 -0.699321 0.174637
v 0.141719 -0.699800 0.174454
v 0.142014 -0.699225 0.177859
v 0.140351 -0.698685 0.178010
v 0.140885 -0.697663 0.181406
v 0.138484 -0.003385 0.171395
v 0.138600 -0.003385 0.174518
v 0.139013 -0.001672 0.174664
v 0.138926 -0.001793 0.171395
v 0.138891 -0.003385 0.178086
v 0.139303 -0.001673 0.178053
v 0.139784 -0.001793 0.181431
v 0.140911 -0.000622 0.181496
v 0.140318 -0.000590 0.177994
v 0.141941 -0.000141 0.177929
v 0.141599 -0.000141 0.174294
v 0.140013 -0.000591 0.174584
v 0.140001 -0.000622 0.171395
v 0.229486 -0.000141 0.174294
v 0.231072 -0.000591 0.174584
v 0.231084 -0.000622 0.171395
v 0.229144 -0.000141 0.177929
v 0.230767 -0.000590 0.177994
v 0.230174 -0.000622 0.181496
v 0.231301 -0.001793 0.181431
v 0.231782 -0.001673 0.178053
v 0.232194 -0.003385 0.178086
v 0.232485 -0.003385 0.174518
v 0.232072 -0.001672 0.174664
v 0.232159 -0.001793 0.171395
v 0.232485 -0.696100 0.174517
v 0.232070 -0.698091 0.174661
v 0.232159 -0.698378 0.171395
v 0.232194 -0.695309 0.178086
v 0.231776 -0.697382 0.178086
v 0.231284 -0.696273 0.181566
v 0.230200 -0.697663 0.181406
v 0.230734 -0.698685 0.178010
v 0.229070 -0.699225 0.177859
v 0.229366 -0.699800 0.174454
v 0.231033 -0.699321 0.174637
v 0.231084 -0.699548 0.171395
vn 0.0000 0.0000 1.0000
vn 1.0000 0.0000 0.0000
vn -0.9865 0.0000 0.1637
vn 0.0000 -1.0000 0.0000
vn 0.0000 1.0000 0.0000
vn 0.0000 -0.9405 0.3399
vn 0.9865 0.0000 0.1637
vn 0.0000 0.0000 -1.0000
vn -0.9563 -0.2487 -0.1535
vn -0.9582 -0.2354 -0.1628
vn -0.8322 -0.2412 -0.4993
vn -0.4003 -0.3473 -0.8480
vn -0.3787 -0.3681 -0.8492
vn -0.2764 -0.8046 -0.5256
vn -0.2754 -0.9453 -0.1748
vn -0.2906 -0.9425 -0.1648
vn -0.7295 -0.6699 -0.1381
vn -0.6737 -0.6187 -0.4042
vn -0.1648 -0.8441 0.5102
vn -0.2786 -0.8471 0.4525
vn -0.1067 -0.6584 0.7451
vn -0.0834 -0.6484 0.7567
vn -0.3679 -0.1610 0.9158
vn -0.2048 -0.3043 0.9303
vn -0.7805 -0.0329 0.6243
vn -0.7412 -0.0848 0.6659
vn -0.9266 -0.1954 0.3212
vn -0.9284 -0.1243 0.3501
vn -0.7138 -0.5897 0.3778
vn -0.6972 -0.6189 0.3617
vn -0.5829 -0.4882 0.6495
vn -0.3787 0.3681 -0.8492
vn -0.4003 0.3473 -0.8480
vn -0.8322 0.2411 -0.4993
vn -0.8322 0.2412 -0.4993
vn -0.9582 0.2355 -0.1628
vn -0.9563 0.2487 -0.1535
vn -0.7295 0.6699 -0.1381
vn -0.2906 0.9425 -0.1647
vn -0.2754 0.9453 -0.1749
vn -0.2764 0.8045 -0.5256
vn -0.6737 0.6187 -0.4042
vn -0.9181 0.2642 0.2954
vn -0.9187 0.2511 0.3047
vn -0.7594 0.2545 0.5988
vn -0.3465 0.3559 0.8679
vn -0.3269 0.3757 0.8672
vn -0.2466 0.7947 0.5546
vn -0.2613 0.9408 0.2159
vn -0.2764 0.9383 0.2081
vn -0.6982 0.6724 0.2458
vn -0.6981 0.6725 0.2458
vn -0.6206 0.6127 0.4893
vn 0.3787 -0.3681 -0.8492
vn 0.4003 -0.3473 -0.8480
vn 0.8322 -0.2411 -0.4993
vn 0.9582 -0.2354 -0.1628
vn 0.9563 -0.2487 -0.1535
vn 0.7295 -0.6699 -0.1381
vn 0.2906 -0.9425 -0.1648
vn 0.2754 -0.9453 -0.1748
vn 0.2764 -0.8045 -0.5257
vn 0.2764 -0.8046 -0.5256
vn 0.6737 -0.6187 -0.4042
vn 0.9284 -0.1243 0.3501
vn 0.9266 -0.1954 0.3212
vn 0.7730 -0.0753 0.6299
vn 0.7536 -0.0199 0.6571
vn 0.2048 -0.3043 0.9303
vn 0.3680 -0.1610 0.9158
vn 0.0881 -0.6609 0.7452
vn 0.1117 -0.6443 0.7565
vn 0.2786 -0.8471 0.4525
vn 0.1648 -0.8441 0.5102
vn 0.7177 -0.5951 0.3616
vn 0.6912 -0.6112 0.3857
vn 0.5829 -0.4881 0.6495
vn 0.4003 0.3473 -0.8480
vn 0.3787 0.3681 -0.8492
vn 0.2764 0.8045 -0.5256
vn 0.2754 0.9453 -0.1749
vn 0.2906 0.9425 -0.1647
vn 0.7295 0.6699 -0.1381
vn 0.9563 0.2487 -0.1535
vn 0.9582 0.2354 -0.1628
vn 0.8322 0.2412 -0.4993
vn 0.6737 0.6187 -0.4042
vn 0.2764 0.9383 0.2081
vn 0.2613 0.9408 0.2159
vn 0.2466 0.7947 0.5546
vn 0.3269 0.3757 0.8672
vn 0.3465 0.3559 0.8679
vn 0.7594 0.2545 0.5988
vn 0.9187 0.2512 0.3047
vn 0.9181 0.2642 0.2955
vn 0.6982 0.6724 0.2458
vn 0.6981 0.6725 0.2458
vn 0.6206 0.6127 0.4893
vn -0.9667 -0.1947 0.1660
vn -0.9459 -0.2457 0.2121
vn -0.9733 -0.1940 0.1223
vn -0.9728 -0.1960 0.1239
vn -0.9624 -0.2672 0.0497
vn -0.9770 -0.1978 0.0798
vn -0.7352 -0.6753 0.0589
vn -0.7616 -0.6434 0.0773
vn -0.2651 -0.9596 0.0943
vn -0.3119 -0.9474 0.0714
vn -0.2887 -0.9397 0.1835
vn -0.2499 -0.9472 0.2008
vn -0.3454 -0.8823 0.3198
vn -0.2748 -0.9220 0.2729
vn -0.7358 -0.6082 0.2979
vn -0.7366 -0.6069 0.2984
vn -0.7480 -0.6343 0.1954
vn -0.7621 -0.6206 0.1847
vn -0.9723 0.2310 0.0362
vn -0.9634 0.2675 0.0157
vn -0.9689 0.2346 0.0789
vn -0.9704 0.2265 0.0831
vn -0.9502 0.2758 0.1452
vn -0.9645 0.2343 0.1221
vn -0.7183 0.6840 0.1277
vn -0.7200 0.6823 0.1269
vn -0.2655 0.9634 0.0358
vn -0.3008 0.9518 0.0595
vn -0.2689 0.9628 0.0253
vn -0.2660 0.9637 0.0236
vn -0.3127 0.9498 -0.0080
vn -0.2711 0.9625 0.0127
vn -0.7365 0.6764 -0.0054
vn -0.7341 0.6790 -0.0038
vn -0.7262 0.6847 0.0623
vn -0.7300 0.6803 0.0652
vn 0.2711 0.9625 0.0127
vn 0.3127 0.9498 -0.0080
vn 0.2660 0.9637 0.0250
vn 0.2691 0.9628 0.0238
vn 0.3008 0.9518 0.0595
vn 0.2655 0.9634 0.0358
vn 0.7183 0.6841 0.1267
vn 0.7198 0.6823 0.1279
vn 0.9645 0.2343 0.1221
vn 0.9502 0.2758 0.1452
vn 0.9707 0.2270 0.0791
vn 0.9686 0.2345 0.0829
vn 0.9634 0.2675 0.0157
vn 0.9723 0.2310 0.0362
vn 0.7365 0.6764 -0.0038
vn 0.7342 0.6789 -0.0056
vn 0.7260 0.6846 0.0648
vn 0.7302 0.6804 0.0626
vn 0.9770 -0.1978 0.0798
vn 0.9624 -0.2672 0.0497
vn 0.9729 -0.1960 0.1227
vn 0.9732 -0.1939 0.1235
vn 0.9459 -0.2457 0.2121
vn 0.9667 -0.1947 0.1660
vn 0.7356 -0.6081 0.2986
vn 0.7368 -0.6070 0.2977
vn 0.2748 -0.9220 0.2729
vn 0.3455 -0.8823 0.3198
vn 0.2528 -0.9502 0.1822
vn 0.2860 -0.9367 0.2020
vn 0.3119 -0.9474 0.0713
vn 0.2651 -0.9596 0.0943
vn 0.7342 -0.6743 0.0793
vn 0.7628 -0.6440 0.0572
vn 0.7605 -0.6199 0.1934
vn 0.7495 -0.6353 0.1863
vn -0.4073 0.0000 -0.9133
vn -0.8575 0.0000 -0.5145
vn -0.9874 0.0000 -0.1585
vn -0.3163 -0.8742 0.3684
vn -0.3162 -0.8742 0.3685
vn -0.7229 -0.6028 0.3378
vn -0.7229 -0.6027 0.3378
vn -0.9410 -0.2367 0.2417
vn -0.9411 -0.2366 0.2417
vn -0.3527 0.0000 0.9357
vn -0.4087 -0.0002 0.9127
vn -0.7853 -0.0001 0.6192
vn -0.7852 -0.0001 0.6192
vn -0.9519 -0.0001 0.3063
vn -0.9428 0.0000 0.3333
vn -0.2797 0.9601 0.0000
vn -0.3127 0.9499 0.0003
vn -0.7365 0.6764 0.0003
vn -0.9711 0.2386 0.0003
vn -0.9636 0.2675 0.0000
vn 0.0000 0.3790 -0.9254
vn 0.0000 0.8372 -0.5470
vn 0.0000 0.9851 -0.1722
vn 0.0000 0.3949 0.9187
vn 0.0000 0.8372 0.5470
vn 0.0000 0.9847 0.1744
vn 0.9711 0.2386 0.0000
vn 0.9636 0.2675 0.0003
vn 0.7365 0.6764 0.0003
vn 0.2797 0.9601 0.0003
vn 0.3127 0.9499 0.0000
vn 0.4073 0.0000 -0.9133
vn 0.8575 0.0000 -0.5145
vn 0.9874 0.0000 -0.1585
vn 0.4087 0.0000 0.9127
vn 0.3528 -0.0002 0.9357
vn 0.7852 -0.0001 0.6192
vn 0.7853 -0.0001 0.6192
vn 0.9428 -0.0001 0.3333
vn 0.9519 0.0000 0.3063
vn 0.2797 -0.9601 0.0000
vn 0.3127 -0.9499 0.0003
vn 0.7365 -0.6764 0.0003
vn 0.9711 -0.2386 0.0003
vn 0.9636 -0.2675 0.0000
vn 0.0000 -0.3790 -0.9254
vn 0.0000 -0.8372 -0.5470
vn 0.0000 -0.9851 -0.1721
vn 0.0000 -0.9851 -0.1722
vn 0.0000 -0.3317 0.9434
vn 0.0000 -0.6700 0.7424
vn 0.0000 -0.8628 0.5056
vn 0.0000 -0.8628 0.5055
vn -0.3126 -0.9499 0.0000
vn -0.2797 -0.9601 0.0003
vn -0.7365 -0.6764 0.0003
vn -0.9711 -0.2386 0.0000
vn -0.9636 -0.2675 0.0003
vn -0.3019 0.9520 0.0501
vn -0.2734 0.9608 0.0448
vn -0.7188 0.6850 0.1189
vn -0.7189 0.6849 0.1189
vn -0.9490 0.2733 0.1572
vn -0.9538 0.2552 0.1583
vn 0.9490 0.2732 0.1575
vn 0.9539 0.2552 0.1580
vn 0.7188 0.6850 0.1189
vn 0.7188 0.6849 0.1189
vn 0.3020 0.9520 0.0496
vn 0.2734 0.9608 0.0454
vn 0.3163 -0.8742 0.3685
vn 0.7229 -0.6027 0.3378
vn 0.7229 -0.6028 0.3378
vn 0.9411 -0.2366 0.2417
vn 0.9410 -0.2367 0.2417
vn -0.0000 -0.9656 0.2599
vn -0.0000 -0.9657 0.2598
vn -0.0000 -0.9861 0.1663
vn -0.0000 -0.9972 0.0750
vn 0.0000 -0.9972 0.0749
vn 0.9921 0.0000 0.1256
vn 0.9967 0.0000 0.0812
vn 0.9993 0.0000 0.0372
vn -0.9921 0.0000 0.1256
vn -0.9967 0.0000 0.0812
vn -0.9993 0.0000 0.0372
vn -1.0000 0.0000 0.0000
usemtl Kbdasharp
s off
f 1//1 2//1 3//1
f 3//1 4//1 1//1
f 5//2 6//2 7//2
f 7//2 8//2 5//2
f 9//3 10//3 11//3
f 11//3 12//3 9//3
f 13//4 14//4 15//4
f 15//4 16//4 13//4
f 17//5 18//5 19//5
f 19//5 20//5 17//5
f 21//6 22//6 23//6
f 23//6 24//6 21//6
f 25//7 26//7 27//7
f 27//7 28//7 25//7
f 29//5 30//5 31//5
f 31//5 32//5 29//5
f 33//8 34//8 35//8
f 35//8 36//8 33//8
f 37//9 38//9 39//9
f 39//10 40//10 37//10
f 38//11 41//11 42//11
f 42//11 39//11 38//11
f 36//12 43//12 42//12
f 42//13 41//13 36//13
f 43//14 44//14 45//14
f 45//14 42//14 43//14
f 16//15 46//15 45//15
f 45//16 44//16 16//16
f 46//17 40//17 39//17
f 39//17 45//17 46//17
f 39//18 42//18 45//18
f 23//19 47//19 48//19
f 48//20 49//20 23//20
f 47//21 50//21 51//21
f 51//22 48//22 47//22
f 3//23 52//23 51//23
f 51//24 50//24 3//24
f 52//25 53//25 54//25
f 54//26 51//26 52//26
f 10//27 55//27 54//27
f 54//28 53//28 10//28
f 55//29 49//29 48//29
f 48//30 54//30 55//30
f 48//31 51//31 54//31
f 33//32 56//32 57//32
f 57//33 58//33 33//33
f 56//34 59//34 60//34
f 60//35 57//35 56//35
f 61//36 62//36 60//36
f 60//37 59//37 61//37
f 62//38 63//38 64//38
f 64//38 60//38 62//38
f 17//39 65//39 64//39
f 64//40 63//40 17//40
f 65//41 58//41 57//41
f 57//41 64//41 65//41
f 57//42 60//42 64//42
f 11//43 66//43 67//43
f 67//44 68//44 11//44
f 66//45 69//45 70//45
f 70//45 67//45 66//45
f 2//46 71//46 70//46
f 70//47 69//47 2//47
f 71//48 72//48 73//48
f 73//48 70//48 71//48
f 30//49 74//49 73//49
f 73//50 72//50 30//50
f 74//51 68//51 67//51
f 67//52 73//52 74//52
f 67//53 70//53 73//53
f 35//54 75//54 76//54
f 76//55 77//55 35//55
f 75//56 78//56 79//56
f 79//56 76//56 75//56
f 8//57 80//57 79//57
f 79//58 78//58 8//58
f 80//59 81//59 82//59
f 82//59 79//59 80//59
f 13//60 83//60 82//60
f 82//61 81//61 13//61
f 83//62 77//62 76//62
f 76//63 82//63 83//63
f 76//64 79//64 82//64
f 27//65 84//65 85//65
f 85//66 86//66 27//66
f 84//67 87//67 88//67
f 88//68 85//68 84//68
f 4//69 89//69 88//69
f 88//70 87//70 4//70
f 89//71 90//71 91//71
f 91//72 88//72 89//72
f 22//73 92//73 91//73
f 91//74 90//74 22//74
f 92//75 86//75 85//75
f 85//76 91//76 92//76
f 85//77 88//77 91//77
f 34//78 93//78 94//78
f 94//79 95//79 34//79
f 93//80 96//80 97//80
f 97//80 94//80 93//80
f 20//81 98//81 97//81
f 97//82 96//82 20//82
f 98//83 99//83 100//83
f 100//83 97//83 98//83
f 5//84 101//84 100//84
f 100//85 99//85 5//85
f 101//86 95//86 94//86
f 94//86 100//86 101//86
f 94//87 97//87 100//87
f 31//88 102//88 103//88
f 103//89 104//89 31//89
f 102//90 105//90 106//90
f 106//90 103//90 102//90
f 1//91 107//91 106//91
f 106//92 105//92 1//92
f 107//93 108//93 109//93
f 109//93 106//93 107//93
f 26//94 110//94 109//94
f 109//95 108//95 26//95
f 110//96 104//96 103//96
f 103//97 109//97 110//97
f 103//98 106//98 109//98
f 9//99 111//99 112//99
f 112//100 113//100 9//100
f 111//101 114//101 115//101
f 115//102 112//102 111//102
f 116//103 117//103 115//103
f 115//104 114//104 116//104
f 117//105 118//105 119//105
f 119//106 115//106 117//106
f 15//107 120//107 119//107
f 119//108 118//108 15//108
f 120//109 121//109 122//109
f 122//110 119//110 120//110
f 24//111 123//111 122//111
f 122//112 121//112 24//112
f 123//113 113//113 112//113
f 112//114 122//114 123//114
f 112//115 115//115 119//115
f 119//116 122//116 112//116
f 124//117 125//117 126//117
f 126//118 127//118 124//118
f 125//119 128//119 129//119
f 129//120 126//120 125//120
f 12//121 130//121 129//121
f 129//122 128//122 12//122
f 130//123 131//123 132//123
f 132//124 129//124 130//124
f 29//125 133//125 132//125
f 132//126 131//126 29//126
f 133//127 134//127 135//127
f 135//128 132//128 133//128
f 18//129 136//129 135//129
f 135//130 134//130 18//130
f 136//131 127//131 126//131
f 126//132 135//132 136//132
f 126//133 129//133 132//133
f 132//134 135//134 126//134
f 19//135 137//135 138//135
f 138//136 139//136 19//136
f 137//137 140//137 141//137
f 141//138 138//138 137//138
f 32//139 142//139 141//139
f 141//140 140//140 32//140
f 142//141 143//141 144//141
f 144//142 141//142 142//142
f 25//143 145//143 144//143
f 144//144 143//144 25//144
f 145//145 146//145 147//145
f 147//146 144//146 145//146
f 6//147 148//147 147//147
f 147//148 146//148 6//148
f 148//149 139//149 138//149
f 138//150 147//150 148//150
f 138//151 141//151 144//151
f 144//152 147//152 138//152
f 7//153 149//153 150//153
f 150//154 151//154 7//154
f 149//155 152//155 153//155
f 153//156 150//156 149//156
f 28//157 154//157 153//157
f 153//158 152//158 28//158
f 154//159 155//159 156//159
f 156//160 153//160 154//160
f 21//161 157//161 156//161
f 156//162 155//162 21//162
f 157//163 158//163 159//163
f 159//164 156//164 157//164
f 14//165 160//165 159//165
f 159//166 158//166 14//166
f 160//167 151//167 150//167
f 150//168 159//168 160//168
f 150//169 153//169 156//169
f 156//170 159//170 150//170
f 33//171 36//171 41//171
f 41//171 56//171 33//171
f 56//172 41//172 38//172
f 38//172 59//172 56//172
f 37//173 61//173 59//173
f 59//173 38//173 37//173
f 24//174 23//174 49//174
f 49//175 123//175 24//175
f 123//176 49//176 55//176
f 55//177 113//177 123//177
f 113//178 55//178 10//178
f 10//179 9//179 113//179
f 3//180 2//180 69//180
f 69//181 52//181 3//181
f 52//182 69//182 66//182
f 66//183 53//183 52//183
f 53//184 66//184 11//184
f 11//185 10//185 53//185
f 18//186 17//186 63//186
f 63//187 136//187 18//187
f 136//188 63//188 62//188
f 62//188 127//188 136//188
f 127//189 62//189 61//189
f 61//190 124//190 127//190
f 34//191 33//191 58//191
f 58//191 93//191 34//191
f 93//192 58//192 65//192
f 65//192 96//192 93//192
f 96//193 65//193 17//193
f 17//193 20//193 96//193
f 2//194 1//194 105//194
f 105//194 71//194 2//194
f 71//195 105//195 102//195
f 102//195 72//195 71//195
f 72//196 102//196 31//196
f 31//196 30//196 72//196
f 6//197 5//197 99//197
f 99//198 148//198 6//198
f 148//199 99//199 98//199
f 98//199 139//199 148//199
f 139//200 98//200 20//200
f 20//201 19//201 139//201
f 35//202 34//202 95//202
f 95//202 75//202 35//202
f 75//203 95//203 101//203
f 101//203 78//203 75//203
f 78//204 101//204 5//204
f 5//204 8//204 78//204
f 1//205 4//205 87//205
f 87//206 107//206 1//206
f 107//207 87//207 84//207
f 84//208 108//208 107//208
f 108//209 84//209 27//209
f 27//210 26//210 108//210
f 14//211 13//211 81//211
f 81//212 160//212 14//212
f 160//213 81//213 80//213
f 80//213 151//213 160//213
f 151//214 80//214 8//214
f 8//215 7//215 151//215
f 36//216 35//216 77//216
f 77//216 43//216 36//216
f 43//217 77//217 83//217
f 83//217 44//217 43//217
f 44//218 83//218 13//218
f 13//219 16//219 44//219
f 4//220 3//220 50//220
f 50//220 89//220 4//220
f 89//221 50//221 47//221
f 47//221 90//221 89//221
f 90//222 47//222 23//222
f 23//223 22//223 90//223
f 16//224 15//224 118//224
f 118//225 46//225 16//225
f 46//226 118//226 117//226
f 117//226 40//226 46//226
f 116//227 37//227 40//227
f 40//228 117//228 116//228
f 30//229 29//229 131//229
f 131//230 74//230 30//230
f 74//231 131//231 130//231
f 130//232 68//232 74//232
f 68//233 130//233 12//233
f 12//234 11//234 68//234
f 26//235 25//235 143//235
f 143//236 110//236 26//236
f 110//237 143//237 142//237
f 142//238 104//238 110//238
f 104//239 142//239 32//239
f 32//240 31//240 104//240
f 22//241 21//241 155//241
f 155//241 92//241 22//241
f 92//242 155//242 154//242
f 154//243 86//243 92//243
f 86//244 154//244 28//244
f 28//245 27//245 86//245
f 21//246 24//246 121//246
f 121//247 157//247 21//247
f 157//248 121//248 120//248
f 120//248 158//248 157//248
f 158//249 120//249 15//249
f 15//250 14//250 158//250
f 25//251 28//251 152//251
f 152//251 145//251 25//251
f 145//252 152//252 149//252
f 149//252 146//252 145//252
f 146//253 149//253 7//253
f 7//253 6//253 146//253
f 29//5 32//5 140//5
f 140//5 133//5 29//5
f 133//5 140//5 137//5
f 137//5 134//5 133//5
f 134//5 137//5 19//5
f 19//5 18//5 134//5
f 9//254 12//254 128//254
f 128//254 111//254 9//254
f 111//255 128//255 125//255
f 125//255 114//255 111//255
f 114//256 125//256 124//256
f 124//256 116//256 114//256
f 37//257 116//257 124//257
f 124//257 61//257 37//257
