# Blender v2.90.0 OBJ File: 'convert2obj.blend'
# www.blender.org
mtllib Kbdbnat.mtl
o Kbdbnat
v 0.236193 -0.000183 0.000000
v 0.311750 -0.000183 0.000000
v 0.311750 -1.061082 0.000000
v 0.158237 -1.061082 0.000000
v 0.158237 -0.707712 0.000000
v 0.236193 -0.707712 -0.000000
v 0.158237 -1.066918 0.174813
v 0.158237 -1.061082 0.174813
v 0.311750 -1.061082 0.174813
v 0.311750 -1.066918 0.174813
v 0.311471 -1.068321 0.174813
v 0.310676 -1.069510 0.174813
v 0.309487 -1.070305 0.174813
v 0.308084 -1.070584 0.174813
v 0.161903 -1.070584 0.174813
v 0.160500 -1.070304 0.174813
v 0.159311 -1.069510 0.174813
v 0.158516 -1.068321 0.174813
v 0.311750 -1.061082 0.181466
v 0.311750 -1.066918 0.181466
v 0.160070 -1.061082 0.183299
v 0.160070 -1.066737 0.183299
v 0.160243 -1.067605 0.183299
v 0.160633 -1.068188 0.183299
v 0.161216 -1.068578 0.183299
v 0.162084 -1.068751 0.183299
v 0.307904 -1.068751 0.183299
v 0.308771 -1.068578 0.183299
v 0.309355 -1.068188 0.183299
v 0.309744 -1.067605 0.183299
v 0.309917 -1.066737 0.183299
v 0.309917 -1.061082 0.183299
v 0.309917 -0.002016 0.183299
v 0.238026 -0.002016 0.183299
v 0.238026 -0.709545 0.183299
v 0.160070 -0.709545 0.183299
v 0.158237 -1.061082 0.181466
v 0.158237 -0.707712 0.181466
v 0.159311 -1.069510 0.181466
v 0.158516 -1.068321 0.181466
v 0.309487 -1.070305 0.181466
v 0.308084 -1.070584 0.181466
v 0.160500 -1.070304 0.181466
v 0.161903 -1.070584 0.181466
v 0.158237 -1.066918 0.181466
v 0.310676 -1.069510 0.181466
v 0.236193 -0.707712 0.181466
v 0.311471 -1.068321 0.181466
v 0.236193 -0.000183 0.181466
v 0.311750 -0.000183 0.181466
v 0.311750 -0.000183 0.174813
v 0.310618 -1.061082 0.183159
v 0.310618 -0.001314 0.183159
v 0.311213 -1.061082 0.182762
v 0.311213 -0.000720 0.182762
v 0.311610 -1.061082 0.182167
v 0.311610 -0.000322 0.182167
v 0.160942 -1.069239 0.183159
v 0.162015 -1.069452 0.183159
v 0.160710 -1.069799 0.182762
v 0.161956 -1.070047 0.182762
v 0.160555 -1.070173 0.182167
v 0.161917 -1.070444 0.182167
v 0.160127 -1.068694 0.183159
v 0.159698 -1.069123 0.182762
v 0.159412 -1.069409 0.182167
v 0.159582 -1.067879 0.183159
v 0.159022 -1.068111 0.182762
v 0.158648 -1.068266 0.182167
v 0.159369 -1.066806 0.183159
v 0.158774 -1.066865 0.182762
v 0.158377 -1.066904 0.182167
v 0.159369 -1.061082 0.183159
v 0.158774 -1.061082 0.182762
v 0.158377 -1.061082 0.182167
v 0.310405 -1.067879 0.183159
v 0.310618 -1.066806 0.183159
v 0.310965 -1.068111 0.182762
v 0.311213 -1.066865 0.182762
v 0.311339 -1.068266 0.182167
v 0.311610 -1.066904 0.182167
v 0.309860 -1.068694 0.183159
v 0.310289 -1.069123 0.182762
v 0.310575 -1.069409 0.182167
v 0.309045 -1.069239 0.183159
v 0.309277 -1.069799 0.182762
v 0.309432 -1.070173 0.182167
v 0.307973 -1.069452 0.183159
v 0.308031 -1.070047 0.182762
v 0.308070 -1.070444 0.182167
v 0.158377 -0.707852 0.182167
v 0.236332 -0.707852 0.182167
v 0.158774 -0.708249 0.182762
v 0.236729 -0.708249 0.182762
v 0.159369 -0.708844 0.183159
v 0.237324 -0.708844 0.183159
v 0.237324 -0.001314 0.183159
v 0.236729 -0.000720 0.182762
v 0.236332 -0.000322 0.182167
vn 0.0000 0.0000 -1.0000
vn 1.0000 0.0000 0.0000
vn -0.0001 0.0000 1.0000
vn 0.0001 0.0000 1.0000
vn 0.0000 0.0000 1.0000
vn -0.0000 -1.0000 -0.0000
vn -1.0000 0.0000 -0.0000
vn -0.8314 -0.5556 0.0000
vn 0.1952 -0.9808 0.0000
vn -0.5556 -0.8315 0.0000
vn -0.9808 -0.1951 0.0000
vn 0.5555 -0.8315 0.0000
vn 0.5556 -0.8315 0.0000
vn 0.0000 1.0000 0.0000
vn 0.8315 -0.5556 0.0000
vn 0.9808 -0.1951 0.0000
vn -0.1952 -0.9808 0.0000
vn 0.1951 -0.0000 0.9808
vn 0.5556 -0.0000 0.8315
vn 0.5555 -0.0000 0.8315
vn 0.8315 -0.0000 0.5556
vn 0.9808 -0.0000 0.1951
vn -0.0381 -0.1914 0.9808
vn -0.0381 -0.1913 0.9808
vn -0.1084 -0.5450 0.8314
vn -0.1085 -0.5449 0.8314
vn -0.1623 -0.8154 0.5557
vn -0.1623 -0.8155 0.5556
vn -0.1914 -0.9620 0.1949
vn -0.1914 -0.9619 0.1952
vn -0.1084 -0.1622 0.9808
vn -0.3087 -0.4619 0.8315
vn -0.3087 -0.4621 0.8314
vn -0.4619 -0.6915 0.5555
vn -0.4619 -0.6913 0.5557
vn -0.5449 -0.8155 0.1951
vn -0.5449 -0.8155 0.1949
vn -0.1623 -0.1084 0.9808
vn -0.1622 -0.1084 0.9808
vn -0.4619 -0.3086 0.8315
vn -0.6914 -0.4619 0.5555
vn -0.6913 -0.4619 0.5557
vn -0.8155 -0.5449 0.1950
vn -0.1913 -0.0381 0.9808
vn -0.1914 -0.0381 0.9808
vn -0.5448 -0.1084 0.8315
vn -0.8154 -0.1622 0.5557
vn -0.8155 -0.1622 0.5555
vn -0.9619 -0.1914 0.1952
vn -0.9619 -0.1914 0.1951
vn -0.1951 0.0000 0.9808
vn -0.5556 0.0000 0.8315
vn -0.8315 -0.0000 0.5556
vn -0.9808 0.0000 0.1951
vn 0.1913 -0.0381 0.9808
vn 0.1914 -0.0381 0.9808
vn 0.5449 -0.1084 0.8315
vn 0.5448 -0.1084 0.8315
vn 0.8155 -0.1623 0.5556
vn 0.8155 -0.1622 0.5555
vn 0.9619 -0.1913 0.1951
vn 0.9620 -0.1914 0.1950
vn 0.1622 -0.1084 0.9808
vn 0.4619 -0.3087 0.8315
vn 0.4619 -0.3086 0.8315
vn 0.6914 -0.4619 0.5554
vn 0.6914 -0.4619 0.5556
vn 0.8155 -0.5449 0.1950
vn 0.8155 -0.5449 0.1953
vn 0.1084 -0.1622 0.9808
vn 0.1084 -0.1623 0.9808
vn 0.3086 -0.4619 0.8315
vn 0.3087 -0.4619 0.8315
vn 0.4619 -0.6913 0.5557
vn 0.4619 -0.6913 0.5556
vn 0.5449 -0.8155 0.1950
vn 0.0381 -0.1913 0.9808
vn 0.0381 -0.1914 0.9808
vn 0.1085 -0.5449 0.8315
vn 0.1084 -0.5448 0.8316
vn 0.1623 -0.8155 0.5556
vn 0.1624 -0.8156 0.5553
vn 0.1915 -0.9618 0.1954
vn 0.1914 -0.9620 0.1949
vn -0.0000 -0.1951 0.9808
vn -0.0000 -0.1950 0.9808
vn -0.0000 -0.5554 0.8316
vn -0.0000 -0.5556 0.8314
vn -0.0000 -0.8316 0.5554
vn -0.0000 -0.8314 0.5556
vn -0.0000 -0.9808 0.1950
vn 0.8315 0.0000 0.5555
vn 0.0000 0.9808 0.1951
vn 0.0000 0.8315 0.5556
vn 0.0000 0.8314 0.5556
vn 0.0000 0.5556 0.8314
vn 0.0000 0.5557 0.8314
vn 0.0000 0.1951 0.9808
vn -0.5555 0.0000 0.8315
vn 0.0000 0.5556 0.8315
usemtl Kbdbnat
s off
f 1//1 2//1 3//1
f 3//1 4//1 5//1
f 6//1 1//1 3//1
f 3//1 5//1 6//1
f 7//1 8//1 9//1
f 9//1 10//1 11//1
f 11//1 12//1 13//1
f 13//1 14//1 15//1
f 15//1 16//1 17//1
f 17//1 18//1 7//1
f 7//1 9//1 11//1
f 11//1 13//1 15//1
f 15//1 17//1 7//1
f 11//1 15//1 7//1
f 9//2 19//2 20//2
f 20//2 10//2 9//2
f 21//3 22//3 23//3
f 23//4 24//4 25//4
f 25//5 26//5 27//5
f 27//3 28//3 29//3
f 29//5 30//5 31//5
f 32//5 33//5 34//5
f 29//5 31//5 32//5
f 25//5 27//5 29//5
f 21//5 23//5 25//5
f 35//5 36//5 21//5
f 32//5 34//5 35//5
f 25//5 29//5 32//5
f 35//5 21//5 25//5
f 25//5 32//5 35//5
f 3//6 9//6 8//6
f 8//6 4//6 3//6
f 5//7 4//7 8//7
f 8//7 37//7 38//7
f 8//7 38//7 5//7
f 17//8 39//8 40//8
f 40//8 18//8 17//8
f 13//9 41//9 42//9
f 42//9 14//9 13//9
f 16//10 43//10 39//10
f 39//10 17//10 16//10
f 14//6 42//6 44//6
f 44//6 15//6 14//6
f 18//11 40//11 45//11
f 45//11 7//11 18//11
f 12//12 46//12 41//12
f 41//13 13//13 12//13
f 47//14 6//14 5//14
f 5//14 38//14 47//14
f 11//15 48//15 46//15
f 46//15 12//15 11//15
f 10//16 20//16 48//16
f 48//16 11//16 10//16
f 15//17 44//17 43//17
f 43//17 16//17 15//17
f 37//7 8//7 7//7
f 7//7 45//7 37//7
f 6//7 47//7 49//7
f 49//7 1//7 6//7
f 49//14 50//14 51//14
f 51//14 2//14 1//14
f 51//14 1//14 49//14
f 33//18 32//18 52//18
f 52//18 53//18 33//18
f 53//19 52//19 54//19
f 54//20 55//20 53//20
f 55//21 54//21 56//21
f 56//21 57//21 55//21
f 57//22 56//22 19//22
f 19//22 50//22 57//22
f 26//23 25//23 58//23
f 58//24 59//24 26//24
f 59//25 58//25 60//25
f 60//26 61//26 59//26
f 61//27 60//27 62//27
f 62//28 63//28 61//28
f 63//29 62//29 43//29
f 43//30 44//30 63//30
f 25//31 24//31 64//31
f 64//31 58//31 25//31
f 58//32 64//32 65//32
f 65//33 60//33 58//33
f 60//34 65//34 66//34
f 66//35 62//35 60//35
f 62//36 66//36 39//36
f 39//37 43//37 62//37
f 24//38 23//38 67//38
f 67//39 64//39 24//39
f 64//40 67//40 68//40
f 68//40 65//40 64//40
f 65//41 68//41 69//41
f 69//42 66//42 65//42
f 66//43 69//43 40//43
f 40//43 39//43 66//43
f 23//44 22//44 70//44
f 70//45 67//45 23//45
f 67//46 70//46 71//46
f 71//46 68//46 67//46
f 68//47 71//47 72//47
f 72//48 69//48 68//48
f 69//49 72//49 45//49
f 45//50 40//50 69//50
f 22//51 21//51 73//51
f 73//51 70//51 22//51
f 70//52 73//52 74//52
f 74//52 71//52 70//52
f 71//53 74//53 75//53
f 75//53 72//53 71//53
f 72//54 75//54 37//54
f 37//54 45//54 72//54
f 31//55 30//55 76//55
f 76//56 77//56 31//56
f 77//57 76//57 78//57
f 78//58 79//58 77//58
f 79//59 78//59 80//59
f 80//60 81//60 79//60
f 81//61 80//61 48//61
f 48//62 20//62 81//62
f 30//63 29//63 82//63
f 82//63 76//63 30//63
f 76//64 82//64 83//64
f 83//65 78//65 76//65
f 78//66 83//66 84//66
f 84//67 80//67 78//67
f 80//68 84//68 46//68
f 46//69 48//69 80//69
f 29//70 28//70 85//70
f 85//71 82//71 29//71
f 82//72 85//72 86//72
f 86//73 83//73 82//73
f 83//74 86//74 87//74
f 87//75 84//75 83//75
f 84//76 87//76 41//76
f 41//76 46//76 84//76
f 28//77 27//77 88//77
f 88//78 85//78 28//78
f 85//79 88//79 89//79
f 89//80 86//80 85//80
f 86//81 89//81 90//81
f 90//82 87//82 86//82
f 87//83 90//83 42//83
f 42//84 41//84 87//84
f 27//85 26//85 59//85
f 59//86 88//86 27//86
f 88//87 59//87 61//87
f 61//88 89//88 88//88
f 89//89 61//89 63//89
f 63//90 90//90 89//90
f 90//91 63//91 44//91
f 44//91 42//91 90//91
f 32//18 31//18 77//18
f 77//18 52//18 32//18
f 52//20 77//20 79//20
f 79//19 54//19 52//19
f 54//92 79//92 81//92
f 81//92 56//92 54//92
f 56//22 81//22 20//22
f 20//22 19//22 56//22
f 47//93 38//93 91//93
f 91//93 92//93 47//93
f 92//94 91//94 93//94
f 93//95 94//95 92//95
f 94//96 93//96 95//96
f 95//97 96//97 94//97
f 96//98 95//98 36//98
f 36//98 35//98 96//98
f 35//51 34//51 97//51
f 97//51 96//51 35//51
f 96//99 97//99 98//99
f 98//52 94//52 96//52
f 94//53 98//53 99//53
f 99//53 92//53 94//53
f 92//54 99//54 49//54
f 49//54 47//54 92//54
f 21//51 36//51 95//51
f 95//51 73//51 21//51
f 73//52 95//52 93//52
f 93//52 74//52 73//52
f 74//53 93//53 91//53
f 91//53 75//53 74//53
f 75//54 91//54 38//54
f 38//54 37//54 75//54
f 50//93 49//93 99//93
f 99//93 57//93 50//93
f 57//94 99//94 98//94
f 98//94 55//94 57//94
f 55//100 98//100 97//100
f 97//100 53//100 55//100
f 53//98 97//98 34//98
f 34//98 33//98 53//98
f 3//2 2//2 51//2
f 51//2 50//2 19//2
f 9//2 3//2 51//2
f 51//2 19//2 9//2
