# Blender v2.90.0 OBJ File: 'convert2obj.blend'
# www.blender.org
mtllib Kbdcnat.mtl
o Kbdcnat
v 0.317270 -1.066918 0.174813
v 0.317270 -1.061082 0.174813
v 0.470783 -1.061082 0.174813
v 0.470783 -1.066918 0.174813
v 0.470504 -1.068321 0.174813
v 0.469709 -1.069510 0.174813
v 0.468520 -1.070305 0.174813
v 0.467117 -1.070584 0.174813
v 0.320936 -1.070584 0.174813
v 0.319533 -1.070304 0.174813
v 0.318344 -1.069510 0.174813
v 0.317549 -1.068321 0.174813
v 0.470783 -1.061082 0.000000
v 0.317270 -1.061082 0.000000
v 0.317270 -0.000183 0.000000
v 0.317270 -1.061082 0.181466
v 0.317270 -0.000183 0.181466
v 0.317270 -0.000183 0.174813
v 0.318344 -1.069510 0.181466
v 0.317549 -1.068321 0.181466
v 0.468520 -1.070305 0.181466
v 0.467117 -1.070584 0.181466
v 0.319533 -1.070304 0.181466
v 0.320936 -1.070584 0.181466
v 0.407552 -0.000183 0.181466
v 0.407552 -0.000183 0.000000
v 0.469709 -1.069510 0.181466
v 0.407552 -0.707712 0.000000
v 0.407552 -0.707712 0.181466
v 0.470783 -0.707712 0.181466
v 0.470783 -0.707712 0.000000
v 0.470504 -1.068321 0.181466
v 0.470783 -1.066918 0.181466
v 0.317270 -1.066918 0.181466
v 0.468950 -1.061082 0.183299
v 0.468950 -0.709545 0.183299
v 0.405719 -0.709545 0.183299
v 0.405719 -0.002016 0.183299
v 0.319103 -0.002016 0.183299
v 0.319103 -1.061082 0.183299
v 0.319103 -1.066737 0.183299
v 0.319276 -1.067605 0.183299
v 0.319665 -1.068188 0.183299
v 0.320249 -1.068578 0.183299
v 0.321116 -1.068751 0.183299
v 0.466936 -1.068751 0.183299
v 0.467804 -1.068578 0.183299
v 0.468387 -1.068188 0.183299
v 0.468777 -1.067605 0.183299
v 0.468950 -1.066737 0.183299
v 0.470783 -1.061082 0.181466
v 0.469651 -1.061082 0.183159
v 0.469651 -0.708844 0.183159
v 0.470246 -1.061082 0.182762
v 0.470246 -0.708249 0.182762
v 0.470643 -1.061082 0.182167
v 0.470643 -0.707852 0.182167
v 0.317410 -0.000322 0.182167
v 0.407412 -0.000322 0.182167
v 0.317807 -0.000720 0.182762
v 0.407015 -0.000720 0.182762
v 0.318402 -0.001314 0.183159
v 0.406421 -0.001314 0.183159
v 0.318402 -1.061082 0.183159
v 0.317807 -1.061082 0.182762
v 0.317410 -1.061082 0.182167
v 0.319975 -1.069239 0.183159
v 0.321047 -1.069452 0.183159
v 0.319743 -1.069799 0.182762
v 0.320989 -1.070047 0.182762
v 0.319588 -1.070173 0.182167
v 0.320950 -1.070444 0.182167
v 0.319160 -1.068694 0.183159
v 0.318731 -1.069123 0.182762
v 0.318445 -1.069409 0.182167
v 0.318615 -1.067879 0.183159
v 0.318055 -1.068111 0.182762
v 0.317681 -1.068266 0.182167
v 0.318402 -1.066806 0.183159
v 0.317807 -1.066865 0.182762
v 0.317410 -1.066904 0.182167
v 0.469438 -1.067879 0.183159
v 0.469651 -1.066806 0.183159
v 0.469998 -1.068111 0.182762
v 0.470246 -1.066865 0.182762
v 0.470372 -1.068266 0.182167
v 0.470643 -1.066904 0.182167
v 0.468893 -1.068694 0.183159
v 0.469322 -1.069123 0.182762
v 0.469608 -1.069409 0.182167
v 0.468078 -1.069239 0.183159
v 0.468310 -1.069799 0.182762
v 0.468465 -1.070173 0.182167
v 0.467005 -1.069452 0.183159
v 0.467064 -1.070047 0.182762
v 0.467103 -1.070444 0.182167
v 0.406421 -0.708844 0.183159
v 0.407015 -0.708249 0.182762
v 0.407413 -0.707852 0.182167
vn 0.0000 0.0000 -1.0000
vn -0.0000 -1.0000 -0.0000
vn -1.0000 0.0000 -0.0000
vn -0.8314 -0.5556 0.0000
vn -0.8315 -0.5556 0.0000
vn 0.1952 -0.9808 0.0000
vn -0.5555 -0.8315 0.0000
vn -0.5556 -0.8315 0.0000
vn 0.0000 1.0000 0.0000
vn 0.5555 -0.8315 0.0000
vn 0.5556 -0.8315 0.0000
vn 0.8315 -0.5556 0.0000
vn 0.9808 -0.1951 0.0000
vn -0.1952 -0.9808 0.0000
vn -0.9808 -0.1951 0.0000
vn 1.0000 -0.0000 0.0000
vn 0.0000 0.0000 1.0000
vn 0.9998 0.0000 0.0216
vn 0.0001 0.0000 1.0000
vn -0.0001 0.0000 1.0000
vn 0.1951 -0.0000 0.9808
vn 0.5556 0.0000 0.8315
vn 0.8315 0.0000 0.5556
vn 0.9808 0.0000 0.1950
vn 0.9808 -0.0000 0.1951
vn 0.0000 0.9808 0.1951
vn 0.0000 0.8315 0.5556
vn 0.0000 0.5556 0.8315
vn 0.0000 0.1951 0.9808
vn -0.1951 0.0000 0.9808
vn -0.5556 0.0000 0.8315
vn -0.5555 0.0000 0.8315
vn -0.8315 0.0000 0.5556
vn -0.9808 0.0000 0.1951
vn -0.0381 -0.1914 0.9808
vn -0.0381 -0.1913 0.9808
vn -0.1084 -0.5450 0.8314
vn -0.1085 -0.5449 0.8315
vn -0.1623 -0.8154 0.5556
vn -0.1914 -0.9620 0.1949
vn -0.1914 -0.9619 0.1952
vn -0.1084 -0.1621 0.9808
vn -0.1084 -0.1622 0.9808
vn -0.3087 -0.4620 0.8314
vn -0.3087 -0.4621 0.8314
vn -0.4619 -0.6914 0.5555
vn -0.4619 -0.6913 0.5557
vn -0.5449 -0.8155 0.1952
vn -0.5449 -0.8155 0.1949
vn -0.1622 -0.1084 0.9808
vn -0.1623 -0.1084 0.9808
vn -0.4618 -0.3085 0.8316
vn -0.4620 -0.3086 0.8315
vn -0.6914 -0.4619 0.5555
vn -0.6913 -0.4619 0.5556
vn -0.8155 -0.5449 0.1950
vn -0.8155 -0.5449 0.1951
vn -0.1913 -0.0381 0.9808
vn -0.1914 -0.0381 0.9808
vn -0.5448 -0.1084 0.8315
vn -0.8154 -0.1622 0.5557
vn -0.8155 -0.1622 0.5556
vn -0.9619 -0.1914 0.1951
vn -0.8314 0.0000 0.5556
vn 0.1913 -0.0381 0.9808
vn 0.1914 -0.0381 0.9808
vn 0.5449 -0.1084 0.8315
vn 0.5448 -0.1084 0.8315
vn 0.8155 -0.1622 0.5555
vn 0.9619 -0.1913 0.1952
vn 0.9620 -0.1913 0.1950
vn 0.1622 -0.1084 0.9808
vn 0.4619 -0.3087 0.8315
vn 0.4619 -0.3086 0.8315
vn 0.6914 -0.4620 0.5555
vn 0.6914 -0.4619 0.5555
vn 0.8155 -0.5448 0.1951
vn 0.8155 -0.5449 0.1953
vn 0.1084 -0.1622 0.9808
vn 0.1084 -0.1623 0.9808
vn 0.3087 -0.4619 0.8315
vn 0.3086 -0.4618 0.8315
vn 0.4620 -0.6914 0.5555
vn 0.4619 -0.6913 0.5557
vn 0.5449 -0.8155 0.1950
vn 0.5449 -0.8155 0.1951
vn 0.0381 -0.1913 0.9808
vn 0.0381 -0.1914 0.9808
vn 0.1085 -0.5450 0.8314
vn 0.1084 -0.5447 0.8316
vn 0.1622 -0.8155 0.5556
vn 0.1624 -0.8157 0.5553
vn 0.1915 -0.9618 0.1954
vn 0.1914 -0.9620 0.1949
vn -0.0000 -0.1951 0.9808
vn -0.0000 -0.1950 0.9808
vn -0.0000 -0.5554 0.8316
vn -0.0000 -0.5556 0.8314
vn -0.0000 -0.8316 0.5554
vn -0.0000 -0.8314 0.5556
vn -0.0000 -0.9808 0.1951
vn -0.0000 -0.9808 0.1950
vn 0.5555 0.0000 0.8315
vn 0.8315 0.0000 0.5555
vn 0.0000 0.5556 0.8314
vn 0.0000 0.8315 0.5555
vn 0.0000 0.8314 0.5556
vn 0.0000 0.9807 0.1953
vn 0.0000 0.9808 0.1952
vn 0.8314 0.0000 0.5556
usemtl Kbdcnat
s off
f 1//1 2//1 3//1
f 3//1 4//1 5//1
f 5//1 6//1 7//1
f 7//1 8//1 9//1
f 9//1 10//1 11//1
f 11//1 12//1 1//1
f 1//1 3//1 5//1
f 5//1 7//1 9//1
f 9//1 11//1 1//1
f 5//1 9//1 1//1
f 13//2 3//2 2//2
f 2//2 14//2 13//2
f 15//3 14//3 2//3
f 2//3 16//3 17//3
f 18//3 15//3 2//3
f 2//3 17//3 18//3
f 11//4 19//4 20//4
f 20//5 12//5 11//5
f 7//6 21//6 22//6
f 22//6 8//6 7//6
f 10//7 23//7 19//7
f 19//8 11//8 10//8
f 8//2 22//2 24//2
f 24//2 9//2 8//2
f 17//9 25//9 26//9
f 26//9 15//9 18//9
f 26//9 18//9 17//9
f 6//10 27//10 21//10
f 21//11 7//11 6//11
f 28//9 29//9 30//9
f 30//9 31//9 28//9
f 5//12 32//12 27//12
f 27//12 6//12 5//12
f 4//13 33//13 32//13
f 32//13 5//13 4//13
f 9//14 24//14 23//14
f 23//14 10//14 9//14
f 16//3 2//3 1//3
f 1//3 34//3 16//3
f 12//15 20//15 34//15
f 34//15 1//15 12//15
f 15//1 26//1 28//1
f 28//1 31//1 13//1
f 14//1 15//1 28//1
f 28//1 13//1 14//1
f 29//16 28//16 26//16
f 26//16 25//16 29//16
f 35//17 36//17 37//17
f 37//17 38//17 39//17
f 39//18 40//18 41//18
f 41//19 42//19 43//19
f 43//17 44//17 45//17
f 45//17 46//17 47//17
f 47//20 48//20 49//20
f 49//17 50//17 35//17
f 37//17 39//17 41//17
f 49//17 35//17 37//17
f 45//17 47//17 49//17
f 41//17 43//17 45//17
f 49//17 37//17 41//17
f 41//17 45//17 49//17
f 3//16 51//16 33//16
f 33//16 4//16 3//16
f 36//21 35//21 52//21
f 52//21 53//21 36//21
f 53//22 52//22 54//22
f 54//22 55//22 53//22
f 55//23 54//23 56//23
f 56//23 57//23 55//23
f 57//24 56//24 51//24
f 51//25 30//25 57//25
f 25//26 17//26 58//26
f 58//26 59//26 25//26
f 59//27 58//27 60//27
f 60//27 61//27 59//27
f 61//28 60//28 62//28
f 62//28 63//28 61//28
f 63//29 62//29 39//29
f 39//29 38//29 63//29
f 40//30 39//30 62//30
f 62//30 64//30 40//30
f 64//31 62//31 60//31
f 60//32 65//32 64//32
f 65//33 60//33 58//33
f 58//33 66//33 65//33
f 66//34 58//34 17//34
f 17//34 16//34 66//34
f 45//35 44//35 67//35
f 67//36 68//36 45//36
f 68//37 67//37 69//37
f 69//38 70//38 68//38
f 70//39 69//39 71//39
f 71//39 72//39 70//39
f 72//40 71//40 23//40
f 23//41 24//41 72//41
f 44//42 43//42 73//42
f 73//43 67//43 44//43
f 67//44 73//44 74//44
f 74//45 69//45 67//45
f 69//46 74//46 75//46
f 75//47 71//47 69//47
f 71//48 75//48 19//48
f 19//49 23//49 71//49
f 43//50 42//50 76//50
f 76//51 73//51 43//51
f 73//52 76//52 77//52
f 77//53 74//53 73//53
f 74//54 77//54 78//54
f 78//55 75//55 74//55
f 75//56 78//56 20//56
f 20//57 19//57 75//57
f 42//58 41//58 79//58
f 79//59 76//59 42//59
f 76//60 79//60 80//60
f 80//60 77//60 76//60
f 77//61 80//61 81//61
f 81//62 78//62 77//62
f 78//63 81//63 34//63
f 34//63 20//63 78//63
f 41//30 40//30 64//30
f 64//30 79//30 41//30
f 79//31 64//31 65//31
f 65//31 80//31 79//31
f 80//33 65//33 66//33
f 66//64 81//64 80//64
f 81//34 66//34 16//34
f 16//34 34//34 81//34
f 50//65 49//65 82//65
f 82//66 83//66 50//66
f 83//67 82//67 84//67
f 84//68 85//68 83//68
f 85//69 84//69 86//69
f 86//69 87//69 85//69
f 87//70 86//70 32//70
f 32//71 33//71 87//71
f 49//72 48//72 88//72
f 88//72 82//72 49//72
f 82//73 88//73 89//73
f 89//74 84//74 82//74
f 84//75 89//75 90//75
f 90//76 86//76 84//76
f 86//77 90//77 27//77
f 27//78 32//78 86//78
f 48//79 47//79 91//79
f 91//80 88//80 48//80
f 88//81 91//81 92//81
f 92//82 89//82 88//82
f 89//83 92//83 93//83
f 93//84 90//84 89//84
f 90//85 93//85 21//85
f 21//86 27//86 90//86
f 47//87 46//87 94//87
f 94//88 91//88 47//88
f 91//89 94//89 95//89
f 95//90 92//90 91//90
f 92//91 95//91 96//91
f 96//92 93//92 92//92
f 93//93 96//93 22//93
f 22//94 21//94 93//94
f 46//95 45//95 68//95
f 68//96 94//96 46//96
f 94//97 68//97 70//97
f 70//98 95//98 94//98
f 95//99 70//99 72//99
f 72//100 96//100 95//100
f 96//101 72//101 24//101
f 24//102 22//102 96//102
f 35//21 50//21 83//21
f 83//21 52//21 35//21
f 52//103 83//103 85//103
f 85//22 54//22 52//22
f 54//104 85//104 87//104
f 87//23 56//23 54//23
f 56//25 87//25 33//25
f 33//24 51//24 56//24
f 37//29 36//29 53//29
f 53//29 97//29 37//29
f 97//105 53//105 55//105
f 55//105 98//105 97//105
f 98//106 55//106 57//106
f 57//107 99//107 98//107
f 99//108 57//108 30//108
f 30//109 29//109 99//109
f 29//25 25//25 59//25
f 59//24 99//24 29//24
f 99//104 59//104 61//104
f 61//110 98//110 99//110
f 98//22 61//22 63//22
f 63//22 97//22 98//22
f 97//21 63//21 38//21
f 38//21 37//21 97//21
f 13//16 31//16 30//16
f 30//16 51//16 3//16
f 30//16 3//16 13//16
