# Blender v2.90.0 OBJ File: 'convert2obj.blend'
# www.blender.org
mtllib Kbdcsharp.mtl
o Kbdcsharp
v 0.485864 -0.003385 0.276090
v 0.430809 -0.003385 0.276090
v 0.430809 -0.660740 0.276090
v 0.485864 -0.660740 0.276090
v 0.505395 -0.003385 0.005195
v 0.505395 -0.003385 0.171395
v 0.505395 -0.696786 0.171395
v 0.505395 -0.696786 0.005195
v 0.412072 -0.694623 0.181147
v 0.427036 -0.662037 0.271304
v 0.427036 -0.003385 0.271304
v 0.412072 -0.003385 0.181147
v 0.502416 -0.700030 0.005195
v 0.502416 -0.700030 0.171395
v 0.414257 -0.700030 0.171395
v 0.414257 -0.700030 0.005195
v 0.414257 -0.000141 0.005195
v 0.414257 -0.000141 0.171395
v 0.502416 -0.000141 0.171395
v 0.502416 -0.000141 0.005195
v 0.501609 -0.698459 0.180706
v 0.486499 -0.665555 0.271745
v 0.430174 -0.665555 0.271745
v 0.415065 -0.698459 0.180706
v 0.504601 -0.003385 0.181147
v 0.489638 -0.003385 0.271304
v 0.489638 -0.662037 0.271304
v 0.504601 -0.694623 0.181147
v 0.415193 -0.000141 0.181326
v 0.430097 -0.000141 0.271124
v 0.486576 -0.000141 0.271124
v 0.501480 -0.000141 0.181326
v 0.414257 -0.003385 0.000230
v 0.502416 -0.003385 0.000230
v 0.502416 -0.696786 0.000230
v 0.414257 -0.696786 0.000230
v 0.411278 -0.696786 0.005195
v 0.411676 -0.696786 0.002716
v 0.412063 -0.698337 0.002821
v 0.411676 -0.698406 0.005195
v 0.412770 -0.696786 0.000893
v 0.412833 -0.698337 0.001538
v 0.414257 -0.698406 0.000893
v 0.414257 -0.699596 0.002716
v 0.412833 -0.699175 0.002821
v 0.412770 -0.699596 0.005195
v 0.430376 -0.664310 0.273868
v 0.428968 -0.663935 0.274035
v 0.428742 -0.664859 0.272164
v 0.430607 -0.662556 0.275451
v 0.429125 -0.662761 0.275058
v 0.429234 -0.661153 0.275385
v 0.427863 -0.661624 0.273646
v 0.428179 -0.663088 0.273964
v 0.427605 -0.663586 0.272005
v 0.412770 -0.003385 0.000893
v 0.412833 -0.001833 0.001538
v 0.414257 -0.001765 0.000893
v 0.411676 -0.003385 0.002716
v 0.412063 -0.001833 0.002821
v 0.411278 -0.003385 0.005195
v 0.411676 -0.001765 0.005195
v 0.412770 -0.000574 0.005195
v 0.412833 -0.000995 0.002821
v 0.414257 -0.000574 0.002716
v 0.427815 -0.003385 0.273727
v 0.428211 -0.001833 0.273569
v 0.427459 -0.001765 0.271247
v 0.429200 -0.003385 0.275483
v 0.429186 -0.001833 0.274806
v 0.430729 -0.001765 0.275394
v 0.430467 -0.000574 0.273571
v 0.429002 -0.000995 0.273523
v 0.428583 -0.000574 0.271181
v 0.503903 -0.696786 0.000893
v 0.503841 -0.698337 0.001538
v 0.502416 -0.698406 0.000893
v 0.504997 -0.696786 0.002716
v 0.504610 -0.698337 0.002821
v 0.504997 -0.698406 0.005195
v 0.503903 -0.699596 0.005195
v 0.503841 -0.699175 0.002821
v 0.502416 -0.699596 0.002716
v 0.488810 -0.661624 0.273646
v 0.488494 -0.663088 0.273964
v 0.489068 -0.663586 0.272005
v 0.487439 -0.661153 0.275384
v 0.487549 -0.662761 0.275058
v 0.486066 -0.662556 0.275451
v 0.486297 -0.664310 0.273868
v 0.487706 -0.663935 0.274035
v 0.487932 -0.664859 0.272164
v 0.502416 -0.001765 0.000893
v 0.503841 -0.001833 0.001538
v 0.503903 -0.003385 0.000893
v 0.502416 -0.000574 0.002716
v 0.503841 -0.000995 0.002821
v 0.503903 -0.000574 0.005195
v 0.504997 -0.001765 0.005195
v 0.504610 -0.001833 0.002821
v 0.504997 -0.003385 0.002716
v 0.486206 -0.000574 0.273571
v 0.487671 -0.000995 0.273523
v 0.488090 -0.000574 0.271181
v 0.485944 -0.001765 0.275394
v 0.487487 -0.001833 0.274806
v 0.487473 -0.003385 0.275483
v 0.488858 -0.003385 0.273727
v 0.488462 -0.001833 0.273569
v 0.489214 -0.001765 0.271247
v 0.411685 -0.695309 0.178086
v 0.412103 -0.697382 0.178086
v 0.412595 -0.696273 0.181566
v 0.411394 -0.696100 0.174517
v 0.411809 -0.698091 0.174661
v 0.411278 -0.696786 0.171395
v 0.411720 -0.698378 0.171395
v 0.412795 -0.699548 0.171395
v 0.412846 -0.699321 0.174637
v 0.414513 -0.699800 0.174454
v 0.414809 -0.699225 0.177859
v 0.413145 -0.698685 0.178010
v 0.413679 -0.697663 0.181406
v 0.411278 -0.003385 0.171395
v 0.411394 -0.003385 0.174518
v 0.411807 -0.001672 0.174664
v 0.411720 -0.001793 0.171395
v 0.411685 -0.003385 0.178086
v 0.412097 -0.001673 0.178053
v 0.412578 -0.001793 0.181431
v 0.413705 -0.000622 0.181496
v 0.413112 -0.000590 0.177994
v 0.414735 -0.000141 0.177929
v 0.414393 -0.000141 0.174294
v 0.412807 -0.000591 0.174584
v 0.412795 -0.000622 0.171395
v 0.502280 -0.000141 0.174294
v 0.503866 -0.000591 0.174584
v 0.503878 -0.000622 0.171395
v 0.501938 -0.000141 0.177929
v 0.503561 -0.000590 0.177994
v 0.502968 -0.000622 0.181496
v 0.504095 -0.001793 0.181431
v 0.504576 -0.001673 0.178053
v 0.504988 -0.003385 0.178086
v 0.505279 -0.003385 0.174518
v 0.504866 -0.001672 0.174664
v 0.504953 -0.001793 0.171395
v 0.505279 -0.696100 0.174517
v 0.504864 -0.698091 0.174661
v 0.504953 -0.698378 0.171395
v 0.504988 -0.695309 0.178086
v 0.504571 -0.697382 0.178086
v 0.504078 -0.696273 0.181566
v 0.502994 -0.697663 0.181406
v 0.503528 -0.698685 0.178010
v 0.501865 -0.699225 0.177859
v 0.502160 -0.699800 0.174454
v 0.503827 -0.699321 0.174637
v 0.503878 -0.699548 0.171395
vn 0.0000 0.0000 1.0000
vn 1.0000 0.0000 0.0000
vn -0.9865 0.0000 0.1637
vn 0.0000 -1.0000 0.0000
vn 0.0000 1.0000 0.0000
vn 0.0000 -0.9405 0.3399
vn 0.9865 0.0000 0.1637
vn 0.0000 0.0000 -1.0000
vn -0.9563 -0.2487 -0.1535
vn -0.9582 -0.2354 -0.1628
vn -0.8322 -0.2412 -0.4993
vn -0.8322 -0.2411 -0.4993
vn -0.4003 -0.3473 -0.8480
vn -0.3787 -0.3681 -0.8492
vn -0.2764 -0.8046 -0.5256
vn -0.2764 -0.8045 -0.5257
vn -0.2754 -0.9453 -0.1748
vn -0.2906 -0.9425 -0.1648
vn -0.7295 -0.6699 -0.1381
vn -0.7294 -0.6700 -0.1381
vn -0.6737 -0.6187 -0.4042
vn -0.1648 -0.8441 0.5102
vn -0.2786 -0.8471 0.4525
vn -0.1067 -0.6583 0.7451
vn -0.0834 -0.6484 0.7567
vn -0.3679 -0.1610 0.9158
vn -0.2048 -0.3043 0.9303
vn -0.7805 -0.0328 0.6243
vn -0.7413 -0.0848 0.6658
vn -0.9266 -0.1955 0.3212
vn -0.9284 -0.1244 0.3501
vn -0.7138 -0.5897 0.3778
vn -0.6973 -0.6189 0.3617
vn -0.5829 -0.4881 0.6495
vn -0.3786 0.3681 -0.8492
vn -0.4003 0.3473 -0.8481
vn -0.8322 0.2411 -0.4993
vn -0.8322 0.2412 -0.4993
vn -0.9582 0.2355 -0.1628
vn -0.9563 0.2487 -0.1535
vn -0.7295 0.6699 -0.1381
vn -0.2907 0.9425 -0.1648
vn -0.2754 0.9453 -0.1749
vn -0.2764 0.8045 -0.5257
vn -0.2764 0.8045 -0.5256
vn -0.6737 0.6187 -0.4042
vn -0.9181 0.2641 0.2954
vn -0.9187 0.2511 0.3047
vn -0.7594 0.2545 0.5988
vn -0.3465 0.3559 0.8679
vn -0.3269 0.3757 0.8672
vn -0.2466 0.7947 0.5546
vn -0.2613 0.9408 0.2159
vn -0.2764 0.9383 0.2081
vn -0.6982 0.6724 0.2458
vn -0.6981 0.6725 0.2458
vn -0.6206 0.6127 0.4893
vn 0.3787 -0.3681 -0.8492
vn 0.4003 -0.3473 -0.8480
vn 0.8322 -0.2412 -0.4993
vn 0.8322 -0.2411 -0.4994
vn 0.9582 -0.2354 -0.1628
vn 0.9563 -0.2487 -0.1535
vn 0.7295 -0.6699 -0.1381
vn 0.7294 -0.6700 -0.1381
vn 0.2906 -0.9425 -0.1648
vn 0.2754 -0.9453 -0.1748
vn 0.2764 -0.8046 -0.5256
vn 0.6736 -0.6187 -0.4042
vn 0.9284 -0.1243 0.3501
vn 0.9266 -0.1955 0.3212
vn 0.7730 -0.0753 0.6299
vn 0.7535 -0.0199 0.6571
vn 0.2048 -0.3043 0.9303
vn 0.3680 -0.1610 0.9158
vn 0.0881 -0.6609 0.7453
vn 0.1118 -0.6444 0.7565
vn 0.2786 -0.8471 0.4525
vn 0.1648 -0.8441 0.5102
vn 0.7177 -0.5951 0.3616
vn 0.6912 -0.6112 0.3856
vn 0.5829 -0.4881 0.6496
vn 0.4003 0.3473 -0.8480
vn 0.3787 0.3681 -0.8492
vn 0.2764 0.8045 -0.5256
vn 0.2754 0.9453 -0.1749
vn 0.2906 0.9425 -0.1647
vn 0.7294 0.6699 -0.1381
vn 0.7295 0.6699 -0.1381
vn 0.9563 0.2487 -0.1535
vn 0.9582 0.2354 -0.1628
vn 0.8322 0.2412 -0.4993
vn 0.8322 0.2411 -0.4993
vn 0.6737 0.6187 -0.4042
vn 0.2764 0.9382 0.2081
vn 0.2613 0.9408 0.2159
vn 0.2466 0.7947 0.5546
vn 0.3269 0.3758 0.8672
vn 0.3465 0.3559 0.8679
vn 0.7594 0.2545 0.5988
vn 0.9187 0.2511 0.3047
vn 0.9181 0.2642 0.2955
vn 0.6982 0.6724 0.2458
vn 0.6981 0.6725 0.2457
vn 0.6206 0.6127 0.4893
vn -0.9667 -0.1947 0.1660
vn -0.9459 -0.2457 0.2121
vn -0.9733 -0.1940 0.1223
vn -0.9728 -0.1959 0.1239
vn -0.9624 -0.2672 0.0497
vn -0.9770 -0.1978 0.0798
vn -0.7352 -0.6752 0.0589
vn -0.7616 -0.6434 0.0773
vn -0.2651 -0.9596 0.0943
vn -0.3118 -0.9475 0.0713
vn -0.2887 -0.9397 0.1835
vn -0.2499 -0.9472 0.2008
vn -0.3454 -0.8823 0.3198
vn -0.2748 -0.9220 0.2729
vn -0.7358 -0.6082 0.2979
vn -0.7366 -0.6069 0.2984
vn -0.7480 -0.6343 0.1954
vn -0.7621 -0.6206 0.1847
vn -0.9723 0.2310 0.0362
vn -0.9634 0.2675 0.0157
vn -0.9689 0.2345 0.0789
vn -0.9704 0.2266 0.0831
vn -0.9502 0.2758 0.1452
vn -0.9645 0.2343 0.1221
vn -0.7183 0.6840 0.1277
vn -0.7200 0.6823 0.1269
vn -0.2655 0.9634 0.0358
vn -0.3008 0.9518 0.0595
vn -0.2689 0.9628 0.0253
vn -0.2661 0.9637 0.0236
vn -0.3126 0.9498 -0.0080
vn -0.2711 0.9625 0.0127
vn -0.7365 0.6764 -0.0054
vn -0.7341 0.6790 -0.0038
vn -0.7262 0.6847 0.0623
vn -0.7300 0.6804 0.0652
vn 0.2711 0.9625 0.0127
vn 0.3126 0.9498 -0.0080
vn 0.2660 0.9637 0.0250
vn 0.2691 0.9628 0.0238
vn 0.3008 0.9518 0.0595
vn 0.2655 0.9634 0.0358
vn 0.7183 0.6841 0.1267
vn 0.7198 0.6823 0.1279
vn 0.9645 0.2343 0.1221
vn 0.9502 0.2758 0.1451
vn 0.9707 0.2269 0.0791
vn 0.9686 0.2346 0.0830
vn 0.9634 0.2675 0.0157
vn 0.9723 0.2311 0.0362
vn 0.7366 0.6764 -0.0038
vn 0.7342 0.6790 -0.0056
vn 0.7260 0.6846 0.0648
vn 0.7302 0.6804 0.0626
vn 0.9770 -0.1979 0.0798
vn 0.9624 -0.2672 0.0497
vn 0.9729 -0.1959 0.1227
vn 0.9732 -0.1940 0.1235
vn 0.9459 -0.2457 0.2121
vn 0.9667 -0.1947 0.1660
vn 0.7356 -0.6080 0.2986
vn 0.7368 -0.6070 0.2977
vn 0.2748 -0.9220 0.2728
vn 0.3455 -0.8823 0.3198
vn 0.2528 -0.9502 0.1822
vn 0.2860 -0.9367 0.2020
vn 0.3119 -0.9474 0.0713
vn 0.2651 -0.9596 0.0943
vn 0.7342 -0.6743 0.0793
vn 0.7629 -0.6440 0.0571
vn 0.7605 -0.6198 0.1934
vn 0.7494 -0.6353 0.1863
vn -0.4072 0.0000 -0.9133
vn -0.8575 0.0000 -0.5145
vn -0.9874 0.0000 -0.1585
vn -0.3163 -0.8742 0.3685
vn -0.3162 -0.8742 0.3685
vn -0.7229 -0.6028 0.3378
vn -0.7229 -0.6027 0.3378
vn -0.9410 -0.2367 0.2417
vn -0.9411 -0.2366 0.2417
vn -0.3527 0.0000 0.9357
vn -0.4087 -0.0002 0.9127
vn -0.7853 -0.0001 0.6192
vn -0.7852 -0.0001 0.6192
vn -0.9519 -0.0001 0.3063
vn -0.9428 0.0000 0.3333
vn -0.2797 0.9601 0.0000
vn -0.3126 0.9499 0.0003
vn -0.7365 0.6764 0.0003
vn -0.9711 0.2386 0.0003
vn -0.9636 0.2675 0.0000
vn 0.0000 0.3790 -0.9254
vn 0.0000 0.8372 -0.5470
vn 0.0000 0.9851 -0.1722
vn 0.0000 0.3949 0.9187
vn 0.0000 0.8372 0.5470
vn 0.0000 0.9847 0.1744
vn 0.9711 0.2386 0.0000
vn 0.9636 0.2675 0.0003
vn 0.7365 0.6764 0.0003
vn 0.2797 0.9601 0.0003
vn 0.3127 0.9499 0.0000
vn 0.4073 0.0000 -0.9133
vn 0.8575 0.0000 -0.5145
vn 0.9874 0.0000 -0.1585
vn 0.4087 0.0000 0.9127
vn 0.3528 -0.0002 0.9357
vn 0.7852 -0.0001 0.6192
vn 0.7853 -0.0001 0.6192
vn 0.9428 -0.0001 0.3333
vn 0.9519 0.0000 0.3063
vn 0.2797 -0.9601 0.0000
vn 0.3127 -0.9499 0.0003
vn 0.7365 -0.6764 0.0003
vn 0.9711 -0.2385 0.0003
vn 0.9635 -0.2676 0.0000
vn 0.0000 -0.3790 -0.9254
vn 0.0000 -0.8372 -0.5469
vn 0.0000 -0.8372 -0.5470
vn 0.0000 -0.9851 -0.1721
vn 0.0000 -0.9851 -0.1722
vn 0.0000 -0.3317 0.9434
vn 0.0000 -0.6700 0.7424
vn 0.0000 -0.8628 0.5056
vn -0.3126 -0.9499 0.0000
vn -0.2797 -0.9601 0.0003
vn -0.7365 -0.6764 0.0003
vn -0.9711 -0.2386 0.0000
vn -0.9636 -0.2675 0.0003
vn -0.3019 0.9520 0.0501
vn -0.2734 0.9608 0.0448
vn -0.7188 0.6849 0.1189
vn -0.9490 0.2733 0.1572
vn -0.9538 0.2552 0.1583
vn 0.9490 0.2732 0.1575
vn 0.9539 0.2552 0.1580
vn 0.7188 0.6850 0.1189
vn 0.7189 0.6849 0.1189
vn 0.3020 0.9520 0.0496
vn 0.2734 0.9608 0.0454
vn 0.3163 -0.8742 0.3685
vn 0.7229 -0.6027 0.3378
vn 0.9410 -0.2367 0.2417
vn -0.0000 -0.9656 0.2599
vn -0.0000 -0.9861 0.1663
vn -0.0000 -0.9972 0.0750
vn 0.0000 -0.9972 0.0749
vn 0.9921 0.0000 0.1256
vn 0.9967 0.0000 0.0812
vn 0.9993 0.0000 0.0372
vn -0.9921 0.0000 0.1256
vn -0.9967 0.0000 0.0812
vn -0.9993 0.0000 0.0372
vn -1.0000 0.0000 0.0000
usemtl Kbdcsharp
s off
f 1//1 2//1 3//1
f 3//1 4//1 1//1
f 5//2 6//2 7//2
f 7//2 8//2 5//2
f 9//3 10//3 11//3
f 11//3 12//3 9//3
f 13//4 14//4 15//4
f 15//4 16//4 13//4
f 17//5 18//5 19//5
f 19//5 20//5 17//5
f 21//6 22//6 23//6
f 23//6 24//6 21//6
f 25//7 26//7 27//7
f 27//7 28//7 25//7
f 29//5 30//5 31//5
f 31//5 32//5 29//5
f 33//8 34//8 35//8
f 35//8 36//8 33//8
f 37//9 38//9 39//9
f 39//10 40//10 37//10
f 38//11 41//11 42//11
f 42//12 39//12 38//12
f 36//13 43//13 42//13
f 42//14 41//14 36//14
f 43//15 44//15 45//15
f 45//16 42//16 43//16
f 16//17 46//17 45//17
f 45//18 44//18 16//18
f 46//19 40//19 39//19
f 39//20 45//20 46//20
f 39//21 42//21 45//21
f 23//22 47//22 48//22
f 48//23 49//23 23//23
f 47//24 50//24 51//24
f 51//25 48//25 47//25
f 3//26 52//26 51//26
f 51//27 50//27 3//27
f 52//28 53//28 54//28
f 54//29 51//29 52//29
f 10//30 55//30 54//30
f 54//31 53//31 10//31
f 55//32 49//32 48//32
f 48//33 54//33 55//33
f 48//34 51//34 54//34
f 33//35 56//35 57//35
f 57//36 58//36 33//36
f 56//37 59//37 60//37
f 60//38 57//38 56//38
f 61//39 62//39 60//39
f 60//40 59//40 61//40
f 62//41 63//41 64//41
f 64//41 60//41 62//41
f 17//42 65//42 64//42
f 64//43 63//43 17//43
f 65//44 58//44 57//44
f 57//45 64//45 65//45
f 57//46 60//46 64//46
f 11//47 66//47 67//47
f 67//48 68//48 11//48
f 66//49 69//49 70//49
f 70//49 67//49 66//49
f 2//50 71//50 70//50
f 70//51 69//51 2//51
f 71//52 72//52 73//52
f 73//52 70//52 71//52
f 30//53 74//53 73//53
f 73//54 72//54 30//54
f 74//55 68//55 67//55
f 67//56 73//56 74//56
f 67//57 70//57 73//57
f 35//58 75//58 76//58
f 76//59 77//59 35//59
f 75//60 78//60 79//60
f 79//61 76//61 75//61
f 8//62 80//62 79//62
f 79//63 78//63 8//63
f 80//64 81//64 82//64
f 82//65 79//65 80//65
f 13//66 83//66 82//66
f 82//67 81//67 13//67
f 83//68 77//68 76//68
f 76//68 82//68 83//68
f 76//69 79//69 82//69
f 27//70 84//70 85//70
f 85//71 86//71 27//71
f 84//72 87//72 88//72
f 88//73 85//73 84//73
f 4//74 89//74 88//74
f 88//75 87//75 4//75
f 89//76 90//76 91//76
f 91//77 88//77 89//77
f 22//78 92//78 91//78
f 91//79 90//79 22//79
f 92//80 86//80 85//80
f 85//81 91//81 92//81
f 85//82 88//82 91//82
f 34//83 93//83 94//83
f 94//84 95//84 34//84
f 93//85 96//85 97//85
f 97//85 94//85 93//85
f 20//86 98//86 97//86
f 97//87 96//87 20//87
f 98//88 99//88 100//88
f 100//89 97//89 98//89
f 5//90 101//90 100//90
f 100//91 99//91 5//91
f 101//92 95//92 94//92
f 94//93 100//93 101//93
f 94//94 97//94 100//94
f 31//95 102//95 103//95
f 103//96 104//96 31//96
f 102//97 105//97 106//97
f 106//97 103//97 102//97
f 1//98 107//98 106//98
f 106//99 105//99 1//99
f 107//100 108//100 109//100
f 109//100 106//100 107//100
f 26//101 110//101 109//101
f 109//102 108//102 26//102
f 110//103 104//103 103//103
f 103//104 109//104 110//104
f 103//105 106//105 109//105
f 9//106 111//106 112//106
f 112//107 113//107 9//107
f 111//108 114//108 115//108
f 115//109 112//109 111//109
f 116//110 117//110 115//110
f 115//111 114//111 116//111
f 117//112 118//112 119//112
f 119//113 115//113 117//113
f 15//114 120//114 119//114
f 119//115 118//115 15//115
f 120//116 121//116 122//116
f 122//117 119//117 120//117
f 24//118 123//118 122//118
f 122//119 121//119 24//119
f 123//120 113//120 112//120
f 112//121 122//121 123//121
f 112//122 115//122 119//122
f 119//123 122//123 112//123
f 124//124 125//124 126//124
f 126//125 127//125 124//125
f 125//126 128//126 129//126
f 129//127 126//127 125//127
f 12//128 130//128 129//128
f 129//129 128//129 12//129
f 130//130 131//130 132//130
f 132//131 129//131 130//131
f 29//132 133//132 132//132
f 132//133 131//133 29//133
f 133//134 134//134 135//134
f 135//135 132//135 133//135
f 18//136 136//136 135//136
f 135//137 134//137 18//137
f 136//138 127//138 126//138
f 126//139 135//139 136//139
f 126//140 129//140 132//140
f 132//141 135//141 126//141
f 19//142 137//142 138//142
f 138//143 139//143 19//143
f 137//144 140//144 141//144
f 141//145 138//145 137//145
f 32//146 142//146 141//146
f 141//147 140//147 32//147
f 142//148 143//148 144//148
f 144//149 141//149 142//149
f 25//150 145//150 144//150
f 144//151 143//151 25//151
f 145//152 146//152 147//152
f 147//153 144//153 145//153
f 6//154 148//154 147//154
f 147//155 146//155 6//155
f 148//156 139//156 138//156
f 138//157 147//157 148//157
f 138//158 141//158 144//158
f 144//159 147//159 138//159
f 7//160 149//160 150//160
f 150//161 151//161 7//161
f 149//162 152//162 153//162
f 153//163 150//163 149//163
f 28//164 154//164 153//164
f 153//165 152//165 28//165
f 154//166 155//166 156//166
f 156//167 153//167 154//167
f 21//168 157//168 156//168
f 156//169 155//169 21//169
f 157//170 158//170 159//170
f 159//171 156//171 157//171
f 14//172 160//172 159//172
f 159//173 158//173 14//173
f 160//174 151//174 150//174
f 150//175 159//175 160//175
f 150//176 153//176 156//176
f 156//177 159//177 150//177
f 33//178 36//178 41//178
f 41//178 56//178 33//178
f 56//179 41//179 38//179
f 38//179 59//179 56//179
f 37//180 61//180 59//180
f 59//180 38//180 37//180
f 24//181 23//181 49//181
f 49//182 123//182 24//182
f 123//183 49//183 55//183
f 55//184 113//184 123//184
f 113//185 55//185 10//185
f 10//186 9//186 113//186
f 3//187 2//187 69//187
f 69//188 52//188 3//188
f 52//189 69//189 66//189
f 66//190 53//190 52//190
f 53//191 66//191 11//191
f 11//192 10//192 53//192
f 18//193 17//193 63//193
f 63//194 136//194 18//194
f 136//195 63//195 62//195
f 62//195 127//195 136//195
f 127//196 62//196 61//196
f 61//197 124//197 127//197
f 34//198 33//198 58//198
f 58//198 93//198 34//198
f 93//199 58//199 65//199
f 65//199 96//199 93//199
f 96//200 65//200 17//200
f 17//200 20//200 96//200
f 2//201 1//201 105//201
f 105//201 71//201 2//201
f 71//202 105//202 102//202
f 102//202 72//202 71//202
f 72//203 102//203 31//203
f 31//203 30//203 72//203
f 6//204 5//204 99//204
f 99//205 148//205 6//205
f 148//206 99//206 98//206
f 98//206 139//206 148//206
f 139//207 98//207 20//207
f 20//208 19//208 139//208
f 35//209 34//209 95//209
f 95//209 75//209 35//209
f 75//210 95//210 101//210
f 101//210 78//210 75//210
f 78//211 101//211 5//211
f 5//211 8//211 78//211
f 1//212 4//212 87//212
f 87//213 107//213 1//213
f 107//214 87//214 84//214
f 84//215 108//215 107//215
f 108//216 84//216 27//216
f 27//217 26//217 108//217
f 14//218 13//218 81//218
f 81//219 160//219 14//219
f 160//220 81//220 80//220
f 80//220 151//220 160//220
f 151//221 80//221 8//221
f 8//222 7//222 151//222
f 36//223 35//223 77//223
f 77//223 43//223 36//223
f 43//224 77//224 83//224
f 83//225 44//225 43//225
f 44//226 83//226 13//226
f 13//227 16//227 44//227
f 4//228 3//228 50//228
f 50//228 89//228 4//228
f 89//229 50//229 47//229
f 47//229 90//229 89//229
f 90//230 47//230 23//230
f 23//230 22//230 90//230
f 16//231 15//231 118//231
f 118//232 46//232 16//232
f 46//233 118//233 117//233
f 117//233 40//233 46//233
f 116//234 37//234 40//234
f 40//235 117//235 116//235
f 30//236 29//236 131//236
f 131//237 74//237 30//237
f 74//238 131//238 130//238
f 130//238 68//238 74//238
f 68//239 130//239 12//239
f 12//240 11//240 68//240
f 26//241 25//241 143//241
f 143//242 110//242 26//242
f 110//243 143//243 142//243
f 142//244 104//244 110//244
f 104//245 142//245 32//245
f 32//246 31//246 104//246
f 22//247 21//247 155//247
f 155//247 92//247 22//247
f 92//248 155//248 154//248
f 154//248 86//248 92//248
f 86//249 154//249 28//249
f 28//249 27//249 86//249
f 21//250 24//250 121//250
f 121//250 157//250 21//250
f 157//251 121//251 120//251
f 120//251 158//251 157//251
f 158//252 120//252 15//252
f 15//253 14//253 158//253
f 25//254 28//254 152//254
f 152//254 145//254 25//254
f 145//255 152//255 149//255
f 149//255 146//255 145//255
f 146//256 149//256 7//256
f 7//256 6//256 146//256
f 29//5 32//5 140//5
f 140//5 133//5 29//5
f 133//5 140//5 137//5
f 137//5 134//5 133//5
f 134//5 137//5 19//5
f 19//5 18//5 134//5
f 9//257 12//257 128//257
f 128//257 111//257 9//257
f 111//258 128//258 125//258
f 125//258 114//258 111//258
f 114//259 125//259 124//259
f 124//259 116//259 114//259
f 37//260 116//260 124//260
f 124//260 61//260 37//260
