# Blender v2.90.0 OBJ File: 'convert2obj.blend'
# www.blender.org
mtllib Kbdenat.mtl
o Kbdenat
v 0.701334 -0.000183 0.000000
v 0.789722 -0.000183 0.000000
v 0.789722 -1.061082 0.000000
v 0.636210 -1.061082 0.000000
v 0.636210 -0.707712 0.000000
v 0.701334 -0.707712 -0.000000
v 0.636210 -1.066918 0.174813
v 0.636210 -1.061082 0.174813
v 0.789722 -1.061082 0.174813
v 0.789722 -1.066918 0.174813
v 0.789443 -1.068321 0.174813
v 0.788649 -1.069510 0.174813
v 0.787459 -1.070305 0.174813
v 0.786056 -1.070584 0.174813
v 0.639876 -1.070584 0.174813
v 0.638473 -1.070304 0.174813
v 0.637284 -1.069510 0.174813
v 0.636489 -1.068321 0.174813
v 0.789722 -1.061082 0.181466
v 0.789722 -1.066918 0.181466
v 0.638043 -0.709545 0.183299
v 0.638043 -1.061082 0.183299
v 0.638043 -1.066737 0.183299
v 0.638216 -1.067605 0.183299
v 0.638605 -1.068188 0.183299
v 0.639188 -1.068578 0.183299
v 0.640056 -1.068751 0.183299
v 0.785876 -1.068751 0.183299
v 0.786744 -1.068578 0.183299
v 0.787327 -1.068188 0.183299
v 0.787717 -1.067605 0.183299
v 0.787889 -1.066737 0.183299
v 0.787889 -1.061082 0.183299
v 0.787890 -0.002016 0.183299
v 0.703167 -0.002016 0.183299
v 0.703167 -0.709545 0.183299
v 0.636210 -1.061082 0.181466
v 0.636210 -0.707712 0.181466
v 0.637284 -1.069510 0.181466
v 0.636489 -1.068321 0.181466
v 0.787459 -1.070305 0.181466
v 0.786056 -1.070584 0.181466
v 0.638473 -1.070304 0.181466
v 0.639876 -1.070584 0.181466
v 0.636210 -1.066918 0.181466
v 0.788649 -1.069510 0.181466
v 0.701334 -0.707712 0.181466
v 0.789443 -1.068321 0.181466
v 0.701334 -0.000183 0.181466
v 0.789723 -0.000183 0.181466
v 0.789723 -0.000183 0.174813
v 0.788591 -1.061082 0.183159
v 0.788591 -0.001314 0.183159
v 0.789186 -1.061082 0.182762
v 0.789186 -0.000720 0.182762
v 0.789583 -1.061082 0.182167
v 0.789583 -0.000322 0.182167
v 0.638915 -1.069239 0.183159
v 0.639987 -1.069452 0.183159
v 0.638682 -1.069799 0.182762
v 0.639929 -1.070047 0.182762
v 0.638527 -1.070173 0.182167
v 0.639890 -1.070444 0.182167
v 0.638099 -1.068694 0.183159
v 0.637671 -1.069123 0.182762
v 0.637384 -1.069409 0.182167
v 0.637555 -1.067879 0.183159
v 0.636995 -1.068111 0.182762
v 0.636620 -1.068266 0.182167
v 0.637341 -1.066806 0.183159
v 0.636747 -1.066865 0.182762
v 0.636349 -1.066904 0.182167
v 0.637341 -1.061082 0.183159
v 0.636747 -1.061082 0.182762
v 0.636349 -1.061082 0.182167
v 0.788377 -1.067879 0.183159
v 0.788591 -1.066806 0.183159
v 0.788938 -1.068111 0.182762
v 0.789186 -1.066865 0.182762
v 0.789312 -1.068266 0.182167
v 0.789583 -1.066904 0.182167
v 0.787833 -1.068694 0.183159
v 0.788262 -1.069123 0.182762
v 0.788548 -1.069409 0.182167
v 0.787018 -1.069239 0.183159
v 0.787250 -1.069799 0.182762
v 0.787405 -1.070173 0.182167
v 0.785945 -1.069452 0.183159
v 0.786004 -1.070047 0.182762
v 0.786043 -1.070444 0.182167
v 0.636349 -0.707852 0.182167
v 0.701474 -0.707852 0.182167
v 0.636747 -0.708249 0.182762
v 0.701871 -0.708249 0.182762
v 0.637341 -0.708844 0.183159
v 0.702466 -0.708844 0.183159
v 0.702466 -0.001314 0.183159
v 0.701871 -0.000720 0.182762
v 0.701474 -0.000322 0.182167
vn 0.0000 0.0000 -1.0000
vn 1.0000 0.0000 0.0000
vn 0.0001 0.0000 1.0000
vn 0.0000 0.0000 1.0000
vn -0.0001 0.0000 1.0000
vn -0.0000 -1.0000 0.0000
vn -1.0000 0.0000 -0.0000
vn -0.8314 -0.5556 0.0000
vn 0.1952 -0.9808 0.0000
vn -0.5555 -0.8315 0.0000
vn -0.5556 -0.8315 0.0000
vn -0.9808 -0.1951 0.0000
vn 0.5556 -0.8314 0.0000
vn 0.5556 -0.8315 0.0000
vn 0.0000 1.0000 0.0000
vn 0.8315 -0.5556 0.0000
vn 0.9808 -0.1951 0.0000
vn -0.1952 -0.9808 0.0000
vn 0.1951 -0.0000 0.9808
vn 0.5555 -0.0000 0.8315
vn 0.8315 -0.0000 0.5556
vn 0.8315 -0.0000 0.5555
vn 0.9808 -0.0000 0.1950
vn 0.9808 -0.0000 0.1952
vn -0.0381 -0.1914 0.9808
vn -0.0381 -0.1913 0.9808
vn -0.1084 -0.5450 0.8314
vn -0.1085 -0.5449 0.8315
vn -0.1623 -0.8154 0.5557
vn -0.1623 -0.8154 0.5556
vn -0.1914 -0.9620 0.1949
vn -0.1914 -0.9619 0.1950
vn -0.1084 -0.1622 0.9808
vn -0.3087 -0.4619 0.8315
vn -0.3087 -0.4620 0.8314
vn -0.4619 -0.6915 0.5554
vn -0.4619 -0.6913 0.5556
vn -0.5449 -0.8155 0.1952
vn -0.5449 -0.8155 0.1949
vn -0.1622 -0.1084 0.9808
vn -0.4618 -0.3085 0.8316
vn -0.4620 -0.3087 0.8314
vn -0.6914 -0.4619 0.5555
vn -0.6913 -0.4619 0.5556
vn -0.8155 -0.5449 0.1951
vn -0.1913 -0.0380 0.9808
vn -0.1914 -0.0381 0.9808
vn -0.5448 -0.1084 0.8315
vn -0.8154 -0.1622 0.5557
vn -0.8155 -0.1623 0.5555
vn -0.9619 -0.1913 0.1952
vn -0.9619 -0.1914 0.1951
vn -0.1951 0.0000 0.9808
vn -0.5556 0.0000 0.8315
vn -0.8314 0.0000 0.5556
vn -0.9808 0.0000 0.1951
vn 0.1913 -0.0380 0.9808
vn 0.1914 -0.0381 0.9808
vn 0.5449 -0.1083 0.8315
vn 0.5448 -0.1084 0.8315
vn 0.8155 -0.1623 0.5556
vn 0.8155 -0.1622 0.5555
vn 0.9619 -0.1914 0.1950
vn 0.9620 -0.1913 0.1950
vn 0.1622 -0.1084 0.9808
vn 0.4619 -0.3087 0.8315
vn 0.6915 -0.4619 0.5554
vn 0.6914 -0.4619 0.5556
vn 0.8155 -0.5449 0.1951
vn 0.8155 -0.5449 0.1952
vn 0.1084 -0.1622 0.9808
vn 0.1084 -0.1623 0.9808
vn 0.3087 -0.4619 0.8315
vn 0.4619 -0.6913 0.5557
vn 0.4619 -0.6914 0.5555
vn 0.5449 -0.8155 0.1950
vn 0.5449 -0.8155 0.1953
vn 0.0381 -0.1912 0.9808
vn 0.0381 -0.1914 0.9808
vn 0.1085 -0.5448 0.8315
vn 0.1084 -0.5448 0.8316
vn 0.1623 -0.8155 0.5556
vn 0.1624 -0.8156 0.5553
vn 0.1915 -0.9619 0.1954
vn 0.1914 -0.9620 0.1949
vn -0.0000 -0.1951 0.9808
vn -0.0000 -0.1950 0.9808
vn -0.0000 -0.5554 0.8316
vn -0.0000 -0.5556 0.8314
vn -0.0000 -0.8316 0.5554
vn -0.0000 -0.8313 0.5558
vn -0.0000 -0.9808 0.1948
vn -0.0000 -0.9808 0.1952
vn 0.0000 0.9808 0.1951
vn 0.0000 0.9808 0.1952
vn 0.0000 0.8315 0.5555
vn 0.0000 0.8315 0.5556
vn 0.0000 0.5555 0.8315
vn 0.0000 0.5557 0.8314
vn 0.0000 0.1951 0.9808
vn -0.5555 0.0000 0.8315
vn -0.8315 0.0000 0.5555
vn 0.0000 0.5556 0.8315
usemtl Kbdenat
s off
f 1//1 2//1 3//1
f 3//1 4//1 5//1
f 6//1 1//1 3//1
f 3//1 5//1 6//1
f 7//1 8//1 9//1
f 9//1 10//1 11//1
f 11//1 12//1 13//1
f 13//1 14//1 15//1
f 15//1 16//1 17//1
f 17//1 18//1 7//1
f 7//1 9//1 11//1
f 11//1 13//1 15//1
f 15//1 17//1 7//1
f 11//1 15//1 7//1
f 9//2 19//2 20//2
f 20//2 10//2 9//2
f 21//2 22//2 23//2
f 23//3 24//3 25//3
f 25//4 26//4 27//4
f 27//4 28//4 29//4
f 29//5 30//5 31//5
f 31//4 32//4 33//4
f 33//4 34//4 35//4
f 36//4 21//4 23//4
f 33//4 35//4 36//4
f 29//4 31//4 33//4
f 25//4 27//4 29//4
f 36//4 23//4 25//4
f 29//4 33//4 36//4
f 25//4 29//4 36//4
f 3//6 9//6 8//6
f 8//6 4//6 3//6
f 5//7 4//7 8//7
f 8//7 37//7 38//7
f 8//7 38//7 5//7
f 17//8 39//8 40//8
f 40//8 18//8 17//8
f 13//9 41//9 42//9
f 42//9 14//9 13//9
f 16//10 43//10 39//10
f 39//11 17//11 16//11
f 14//6 42//6 44//6
f 44//6 15//6 14//6
f 18//12 40//12 45//12
f 45//12 7//12 18//12
f 12//13 46//13 41//13
f 41//14 13//14 12//14
f 47//15 6//15 5//15
f 5//15 38//15 47//15
f 11//16 48//16 46//16
f 46//16 12//16 11//16
f 10//17 20//17 48//17
f 48//17 11//17 10//17
f 15//18 44//18 43//18
f 43//18 16//18 15//18
f 37//7 8//7 7//7
f 7//7 45//7 37//7
f 6//7 47//7 49//7
f 49//7 1//7 6//7
f 49//15 50//15 51//15
f 51//15 2//15 1//15
f 51//15 1//15 49//15
f 34//19 33//19 52//19
f 52//19 53//19 34//19
f 53//20 52//20 54//20
f 54//20 55//20 53//20
f 55//21 54//21 56//21
f 56//22 57//22 55//22
f 57//23 56//23 19//23
f 19//24 50//24 57//24
f 27//25 26//25 58//25
f 58//26 59//26 27//26
f 59//27 58//27 60//27
f 60//28 61//28 59//28
f 61//29 60//29 62//29
f 62//30 63//30 61//30
f 63//31 62//31 43//31
f 43//32 44//32 63//32
f 26//33 25//33 64//33
f 64//33 58//33 26//33
f 58//34 64//34 65//34
f 65//35 60//35 58//35
f 60//36 65//36 66//36
f 66//37 62//37 60//37
f 62//38 66//38 39//38
f 39//39 43//39 62//39
f 25//40 24//40 67//40
f 67//40 64//40 25//40
f 64//41 67//41 68//41
f 68//42 65//42 64//42
f 65//43 68//43 69//43
f 69//44 66//44 65//44
f 66//45 69//45 40//45
f 40//45 39//45 66//45
f 24//46 23//46 70//46
f 70//47 67//47 24//47
f 67//48 70//48 71//48
f 71//48 68//48 67//48
f 68//49 71//49 72//49
f 72//50 69//50 68//50
f 69//51 72//51 45//51
f 45//52 40//52 69//52
f 23//53 22//53 73//53
f 73//53 70//53 23//53
f 70//54 73//54 74//54
f 74//54 71//54 70//54
f 71//55 74//55 75//55
f 75//55 72//55 71//55
f 72//56 75//56 37//56
f 37//56 45//56 72//56
f 32//57 31//57 76//57
f 76//58 77//58 32//58
f 77//59 76//59 78//59
f 78//60 79//60 77//60
f 79//61 78//61 80//61
f 80//62 81//62 79//62
f 81//63 80//63 48//63
f 48//64 20//64 81//64
f 31//65 30//65 82//65
f 82//65 76//65 31//65
f 76//66 82//66 83//66
f 83//66 78//66 76//66
f 78//67 83//67 84//67
f 84//68 80//68 78//68
f 80//69 84//69 46//69
f 46//70 48//70 80//70
f 30//71 29//71 85//71
f 85//72 82//72 30//72
f 82//73 85//73 86//73
f 86//73 83//73 82//73
f 83//74 86//74 87//74
f 87//75 84//75 83//75
f 84//76 87//76 41//76
f 41//77 46//77 84//77
f 29//78 28//78 88//78
f 88//79 85//79 29//79
f 85//80 88//80 89//80
f 89//81 86//81 85//81
f 86//82 89//82 90//82
f 90//83 87//83 86//83
f 87//84 90//84 42//84
f 42//85 41//85 87//85
f 28//86 27//86 59//86
f 59//87 88//87 28//87
f 88//88 59//88 61//88
f 61//89 89//89 88//89
f 89//90 61//90 63//90
f 63//91 90//91 89//91
f 90//92 63//92 44//92
f 44//93 42//93 90//93
f 33//19 32//19 77//19
f 77//19 52//19 33//19
f 52//20 77//20 79//20
f 79//20 54//20 52//20
f 54//22 79//22 81//22
f 81//22 56//22 54//22
f 56//23 81//23 20//23
f 20//23 19//23 56//23
f 47//94 38//94 91//94
f 91//95 92//95 47//95
f 92//96 91//96 93//96
f 93//97 94//97 92//97
f 94//98 93//98 95//98
f 95//99 96//99 94//99
f 96//100 95//100 21//100
f 21//100 36//100 96//100
f 36//53 35//53 97//53
f 97//53 96//53 36//53
f 96//101 97//101 98//101
f 98//101 94//101 96//101
f 94//102 98//102 99//102
f 99//102 92//102 94//102
f 92//56 99//56 49//56
f 49//56 47//56 92//56
f 22//53 21//53 95//53
f 95//53 73//53 22//53
f 73//54 95//54 93//54
f 93//54 74//54 73//54
f 74//102 93//102 91//102
f 91//55 75//55 74//55
f 75//56 91//56 38//56
f 38//56 37//56 75//56
f 50//94 49//94 99//94
f 99//94 57//94 50//94
f 57//97 99//97 98//97
f 98//97 55//97 57//97
f 55//103 98//103 97//103
f 97//103 53//103 55//103
f 53//100 97//100 35//100
f 35//100 34//100 53//100
f 3//2 2//2 51//2
f 51//2 50//2 19//2
f 9//2 3//2 51//2
f 51//2 19//2 9//2
