# Blender v2.90.0 OBJ File: 'convert2obj.blend'
# www.blender.org
mtllib Kbdfsharp.mtl
o Kbdfsharp
v 0.956792 -0.003385 0.276090
v 0.901737 -0.003385 0.276090
v 0.901737 -0.660740 0.276090
v 0.956792 -0.660740 0.276090
v 0.976323 -0.003385 0.005195
v 0.976323 -0.003385 0.171395
v 0.976323 -0.696786 0.171395
v 0.976323 -0.696786 0.005195
v 0.883001 -0.694623 0.181147
v 0.897964 -0.662037 0.271304
v 0.897964 -0.003385 0.271304
v 0.883001 -0.003385 0.181147
v 0.973344 -0.700030 0.005195
v 0.973344 -0.700030 0.171395
v 0.885186 -0.700030 0.171395
v 0.885186 -0.700030 0.005195
v 0.885186 -0.000141 0.005195
v 0.885186 -0.000141 0.171395
v 0.973344 -0.000141 0.171395
v 0.973344 -0.000141 0.005195
v 0.972537 -0.698459 0.180706
v 0.957428 -0.665555 0.271745
v 0.901102 -0.665555 0.271745
v 0.885993 -0.698459 0.180706
v 0.975529 -0.003385 0.181147
v 0.960566 -0.003385 0.271304
v 0.960566 -0.662037 0.271304
v 0.975529 -0.694623 0.181147
v 0.886122 -0.000141 0.181326
v 0.901025 -0.000141 0.271124
v 0.957505 -0.000141 0.271124
v 0.972408 -0.000141 0.181326
v 0.885186 -0.003385 0.000230
v 0.973344 -0.003385 0.000230
v 0.973344 -0.696786 0.000230
v 0.885186 -0.696786 0.000230
v 0.882206 -0.696786 0.005195
v 0.882604 -0.696786 0.002716
v 0.882991 -0.698337 0.002821
v 0.882604 -0.698406 0.005195
v 0.883698 -0.696786 0.000893
v 0.883761 -0.698337 0.001538
v 0.885186 -0.698406 0.000893
v 0.885186 -0.699596 0.002716
v 0.883761 -0.699175 0.002821
v 0.883698 -0.699596 0.005195
v 0.901304 -0.664310 0.273868
v 0.899896 -0.663935 0.274035
v 0.899670 -0.664859 0.272164
v 0.901535 -0.662556 0.275451
v 0.900053 -0.662761 0.275058
v 0.900162 -0.661153 0.275385
v 0.898791 -0.661624 0.273646
v 0.899107 -0.663088 0.273964
v 0.898533 -0.663586 0.272005
v 0.883698 -0.003385 0.000893
v 0.883761 -0.001833 0.001538
v 0.885186 -0.001765 0.000893
v 0.882604 -0.003385 0.002716
v 0.882991 -0.001833 0.002821
v 0.882206 -0.003385 0.005195
v 0.882604 -0.001765 0.005195
v 0.883698 -0.000574 0.005195
v 0.883761 -0.000995 0.002821
v 0.885186 -0.000574 0.002716
v 0.898743 -0.003385 0.273727
v 0.899139 -0.001833 0.273569
v 0.898388 -0.001765 0.271247
v 0.900128 -0.003385 0.275483
v 0.900114 -0.001833 0.274806
v 0.901657 -0.001765 0.275394
v 0.901396 -0.000574 0.273571
v 0.899930 -0.000995 0.273523
v 0.899511 -0.000574 0.271181
v 0.974832 -0.696786 0.000893
v 0.974769 -0.698337 0.001538
v 0.973344 -0.698406 0.000893
v 0.975925 -0.696786 0.002716
v 0.975539 -0.698337 0.002821
v 0.975925 -0.698406 0.005195
v 0.974832 -0.699596 0.005195
v 0.974769 -0.699175 0.002821
v 0.973344 -0.699596 0.002716
v 0.959738 -0.661624 0.273646
v 0.959422 -0.663088 0.273964
v 0.959996 -0.663586 0.272005
v 0.958367 -0.661153 0.275384
v 0.958477 -0.662761 0.275058
v 0.956994 -0.662556 0.275451
v 0.957226 -0.664310 0.273868
v 0.958634 -0.663935 0.274035
v 0.958860 -0.664859 0.272164
v 0.973344 -0.001765 0.000893
v 0.974769 -0.001833 0.001538
v 0.974832 -0.003385 0.000893
v 0.973344 -0.000574 0.002716
v 0.974769 -0.000995 0.002821
v 0.974832 -0.000574 0.005195
v 0.975925 -0.001765 0.005195
v 0.975539 -0.001833 0.002821
v 0.975925 -0.003385 0.002716
v 0.957134 -0.000574 0.273571
v 0.958600 -0.000995 0.273523
v 0.959018 -0.000574 0.271181
v 0.956873 -0.001765 0.275394
v 0.958416 -0.001833 0.274806
v 0.958401 -0.003385 0.275483
v 0.959786 -0.003385 0.273727
v 0.959391 -0.001833 0.273569
v 0.960142 -0.001765 0.271247
v 0.882613 -0.695309 0.178086
v 0.883031 -0.697382 0.178086
v 0.883523 -0.696273 0.181566
v 0.882323 -0.696100 0.174517
v 0.882737 -0.698091 0.174661
v 0.882206 -0.696786 0.171395
v 0.882648 -0.698378 0.171395
v 0.883723 -0.699548 0.171395
v 0.883775 -0.699321 0.174637
v 0.885442 -0.699800 0.174454
v 0.885737 -0.699225 0.177859
v 0.884074 -0.698685 0.178010
v 0.884607 -0.697663 0.181406
v 0.882206 -0.003385 0.171395
v 0.882323 -0.003385 0.174518
v 0.882735 -0.001672 0.174664
v 0.882648 -0.001793 0.171395
v 0.882613 -0.003385 0.178086
v 0.883025 -0.001673 0.178053
v 0.883506 -0.001793 0.181431
v 0.884633 -0.000622 0.181496
v 0.884041 -0.000590 0.177994
v 0.885663 -0.000141 0.177929
v 0.885321 -0.000141 0.174294
v 0.883735 -0.000591 0.174584
v 0.883723 -0.000622 0.171395
v 0.973209 -0.000141 0.174294
v 0.974794 -0.000591 0.174584
v 0.974806 -0.000622 0.171395
v 0.972867 -0.000141 0.177929
v 0.974489 -0.000590 0.177994
v 0.973897 -0.000622 0.181496
v 0.975024 -0.001793 0.181431
v 0.975505 -0.001673 0.178053
v 0.975916 -0.003385 0.178086
v 0.976207 -0.003385 0.174518
v 0.975795 -0.001672 0.174664
v 0.975881 -0.001793 0.171395
v 0.976207 -0.696100 0.174517
v 0.975792 -0.698091 0.174661
v 0.975881 -0.698378 0.171395
v 0.975916 -0.695309 0.178086
v 0.975499 -0.697382 0.178086
v 0.975006 -0.696273 0.181566
v 0.973922 -0.697663 0.181406
v 0.974456 -0.698685 0.178010
v 0.972793 -0.699225 0.177859
v 0.973088 -0.699800 0.174454
v 0.974755 -0.699321 0.174637
v 0.974806 -0.699548 0.171395
vn 0.0000 0.0000 1.0000
vn 1.0000 0.0000 0.0000
vn -0.9865 0.0000 0.1637
vn 0.0000 -1.0000 0.0000
vn 0.0000 1.0000 0.0000
vn 0.0000 -0.9405 0.3399
vn 0.9865 0.0000 0.1637
vn 0.0000 0.0000 -1.0000
vn -0.9563 -0.2487 -0.1535
vn -0.9582 -0.2354 -0.1628
vn -0.8322 -0.2411 -0.4993
vn -0.8322 -0.2413 -0.4993
vn -0.4003 -0.3472 -0.8481
vn -0.3786 -0.3681 -0.8492
vn -0.2764 -0.8046 -0.5256
vn -0.2754 -0.9453 -0.1748
vn -0.2906 -0.9425 -0.1648
vn -0.7294 -0.6700 -0.1381
vn -0.7296 -0.6698 -0.1381
vn -0.6738 -0.6186 -0.4042
vn -0.1648 -0.8441 0.5102
vn -0.2786 -0.8471 0.4525
vn -0.1067 -0.6584 0.7451
vn -0.0834 -0.6484 0.7567
vn -0.3679 -0.1609 0.9158
vn -0.2048 -0.3043 0.9303
vn -0.7805 -0.0329 0.6244
vn -0.7413 -0.0847 0.6658
vn -0.9266 -0.1955 0.3212
vn -0.9284 -0.1243 0.3501
vn -0.7138 -0.5897 0.3778
vn -0.6973 -0.6189 0.3617
vn -0.5830 -0.4882 0.6495
vn -0.3786 0.3681 -0.8492
vn -0.4003 0.3473 -0.8481
vn -0.8322 0.2412 -0.4993
vn -0.8322 0.2411 -0.4993
vn -0.9582 0.2354 -0.1628
vn -0.9563 0.2488 -0.1535
vn -0.7295 0.6699 -0.1381
vn -0.2907 0.9425 -0.1647
vn -0.2753 0.9453 -0.1749
vn -0.2764 0.8045 -0.5256
vn -0.6737 0.6187 -0.4042
vn -0.9181 0.2641 0.2955
vn -0.9187 0.2512 0.3047
vn -0.7594 0.2545 0.5988
vn -0.7594 0.2544 0.5988
vn -0.3465 0.3559 0.8679
vn -0.3269 0.3756 0.8672
vn -0.2466 0.7947 0.5546
vn -0.2466 0.7948 0.5546
vn -0.2613 0.9408 0.2159
vn -0.2764 0.9382 0.2081
vn -0.6982 0.6724 0.2458
vn -0.6981 0.6725 0.2458
vn -0.6206 0.6127 0.4893
vn 0.3787 -0.3681 -0.8492
vn 0.4003 -0.3473 -0.8480
vn 0.8322 -0.2412 -0.4993
vn 0.8322 -0.2411 -0.4993
vn 0.9582 -0.2354 -0.1628
vn 0.9563 -0.2488 -0.1535
vn 0.7294 -0.6700 -0.1381
vn 0.7295 -0.6699 -0.1382
vn 0.2906 -0.9425 -0.1648
vn 0.2754 -0.9453 -0.1748
vn 0.2764 -0.8045 -0.5257
vn 0.2764 -0.8046 -0.5255
vn 0.6736 -0.6188 -0.4042
vn 0.9284 -0.1243 0.3501
vn 0.9266 -0.1954 0.3212
vn 0.7730 -0.0752 0.6299
vn 0.7535 -0.0199 0.6571
vn 0.2048 -0.3043 0.9303
vn 0.3680 -0.1609 0.9158
vn 0.0881 -0.6609 0.7453
vn 0.1118 -0.6444 0.7565
vn 0.2786 -0.8472 0.4524
vn 0.1648 -0.8441 0.5103
vn 0.7177 -0.5951 0.3616
vn 0.6912 -0.6111 0.3856
vn 0.5829 -0.4881 0.6496
vn 0.4002 0.3473 -0.8481
vn 0.3787 0.3681 -0.8492
vn 0.2764 0.8045 -0.5256
vn 0.2764 0.8046 -0.5256
vn 0.2753 0.9453 -0.1749
vn 0.2907 0.9425 -0.1648
vn 0.7294 0.6699 -0.1381
vn 0.7295 0.6699 -0.1381
vn 0.9563 0.2488 -0.1535
vn 0.9582 0.2354 -0.1628
vn 0.8322 0.2412 -0.4993
vn 0.8322 0.2411 -0.4993
vn 0.6737 0.6187 -0.4042
vn 0.2764 0.9382 0.2081
vn 0.2612 0.9408 0.2159
vn 0.2466 0.7947 0.5546
vn 0.2466 0.7948 0.5546
vn 0.3269 0.3757 0.8672
vn 0.3465 0.3559 0.8679
vn 0.7594 0.2545 0.5988
vn 0.9187 0.2513 0.3047
vn 0.9181 0.2641 0.2954
vn 0.6982 0.6724 0.2458
vn 0.6206 0.6127 0.4893
vn -0.9667 -0.1947 0.1660
vn -0.9459 -0.2457 0.2121
vn -0.9733 -0.1940 0.1223
vn -0.9728 -0.1959 0.1239
vn -0.9624 -0.2672 0.0497
vn -0.9770 -0.1978 0.0798
vn -0.7352 -0.6752 0.0589
vn -0.7616 -0.6434 0.0774
vn -0.2651 -0.9596 0.0943
vn -0.3118 -0.9475 0.0713
vn -0.2887 -0.9397 0.1835
vn -0.2498 -0.9472 0.2008
vn -0.3454 -0.8823 0.3198
vn -0.2748 -0.9220 0.2729
vn -0.7358 -0.6082 0.2979
vn -0.7366 -0.6070 0.2983
vn -0.7480 -0.6343 0.1954
vn -0.7620 -0.6206 0.1847
vn -0.9723 0.2310 0.0362
vn -0.9634 0.2675 0.0157
vn -0.9689 0.2346 0.0789
vn -0.9705 0.2265 0.0831
vn -0.9502 0.2759 0.1452
vn -0.9645 0.2343 0.1221
vn -0.7183 0.6839 0.1277
vn -0.7200 0.6823 0.1269
vn -0.2655 0.9634 0.0358
vn -0.3008 0.9518 0.0595
vn -0.2688 0.9629 0.0253
vn -0.2660 0.9637 0.0236
vn -0.3127 0.9498 -0.0080
vn -0.2711 0.9625 0.0127
vn -0.7365 0.6764 -0.0054
vn -0.7341 0.6790 -0.0038
vn -0.7262 0.6847 0.0623
vn -0.7300 0.6803 0.0652
vn 0.2711 0.9625 0.0127
vn 0.3127 0.9498 -0.0080
vn 0.2660 0.9637 0.0250
vn 0.2691 0.9628 0.0238
vn 0.3008 0.9518 0.0594
vn 0.2655 0.9634 0.0358
vn 0.7183 0.6841 0.1267
vn 0.7198 0.6823 0.1279
vn 0.9645 0.2343 0.1221
vn 0.9502 0.2759 0.1452
vn 0.9707 0.2269 0.0790
vn 0.9685 0.2346 0.0830
vn 0.9634 0.2675 0.0156
vn 0.9723 0.2309 0.0362
vn 0.7366 0.6764 -0.0038
vn 0.7341 0.6790 -0.0056
vn 0.7260 0.6846 0.0648
vn 0.7302 0.6804 0.0626
vn 0.9770 -0.1978 0.0798
vn 0.9623 -0.2672 0.0497
vn 0.9729 -0.1960 0.1227
vn 0.9732 -0.1939 0.1235
vn 0.9458 -0.2457 0.2121
vn 0.9667 -0.1947 0.1660
vn 0.7356 -0.6081 0.2986
vn 0.7368 -0.6070 0.2977
vn 0.2748 -0.9220 0.2728
vn 0.3455 -0.8823 0.3198
vn 0.2528 -0.9502 0.1822
vn 0.2860 -0.9367 0.2020
vn 0.3119 -0.9474 0.0713
vn 0.2651 -0.9596 0.0943
vn 0.7342 -0.6743 0.0793
vn 0.7628 -0.6441 0.0572
vn 0.7605 -0.6199 0.1934
vn 0.7495 -0.6353 0.1863
vn -0.4072 0.0000 -0.9133
vn -0.8575 0.0000 -0.5145
vn -0.9874 0.0000 -0.1585
vn -0.3163 -0.8742 0.3685
vn -0.3162 -0.8742 0.3685
vn -0.7229 -0.6027 0.3378
vn -0.7229 -0.6028 0.3378
vn -0.9410 -0.2367 0.2417
vn -0.9411 -0.2366 0.2417
vn -0.3527 0.0000 0.9357
vn -0.4087 -0.0002 0.9127
vn -0.7853 -0.0001 0.6192
vn -0.7852 -0.0001 0.6192
vn -0.9519 -0.0001 0.3064
vn -0.9428 0.0000 0.3333
vn -0.2797 0.9601 0.0000
vn -0.3127 0.9499 0.0003
vn -0.7366 0.6763 0.0003
vn -0.7365 0.6765 0.0003
vn -0.9711 0.2385 0.0003
vn -0.9636 0.2675 0.0000
vn 0.0000 0.3790 -0.9254
vn 0.0000 0.8372 -0.5470
vn 0.0000 0.9851 -0.1722
vn 0.0000 0.3949 0.9187
vn 0.0000 0.8372 0.5470
vn 0.0000 0.9847 0.1744
vn 0.9711 0.2385 0.0000
vn 0.9636 0.2675 0.0003
vn 0.7365 0.6764 0.0003
vn 0.2797 0.9601 0.0003
vn 0.3126 0.9499 0.0000
vn 0.4072 0.0000 -0.9133
vn 0.8575 0.0000 -0.5145
vn 0.9874 0.0000 -0.1585
vn 0.4087 0.0000 0.9127
vn 0.3528 -0.0002 0.9357
vn 0.7852 -0.0001 0.6192
vn 0.9428 -0.0001 0.3333
vn 0.9519 0.0000 0.3063
vn 0.2797 -0.9601 0.0000
vn 0.3127 -0.9499 0.0003
vn 0.7365 -0.6764 0.0003
vn 0.9711 -0.2385 0.0003
vn 0.9636 -0.2675 0.0000
vn 0.0000 -0.3790 -0.9254
vn 0.0000 -0.8372 -0.5470
vn 0.0000 -0.9851 -0.1721
vn 0.0000 -0.9851 -0.1722
vn 0.0000 -0.3317 0.9434
vn 0.0000 -0.3316 0.9434
vn 0.0000 -0.6700 0.7424
vn 0.0000 -0.8628 0.5056
vn -0.3126 -0.9499 0.0000
vn -0.2797 -0.9601 0.0003
vn -0.7365 -0.6764 0.0003
vn -0.9711 -0.2385 0.0000
vn -0.9636 -0.2675 0.0003
vn -0.3019 0.9520 0.0501
vn -0.2734 0.9608 0.0448
vn -0.7188 0.6850 0.1189
vn -0.7188 0.6849 0.1189
vn -0.9490 0.2733 0.1572
vn -0.9538 0.2552 0.1583
vn 0.9490 0.2733 0.1575
vn 0.9539 0.2552 0.1580
vn 0.7188 0.6850 0.1189
vn 0.7189 0.6849 0.1189
vn 0.3020 0.9520 0.0496
vn 0.2734 0.9608 0.0454
vn 0.3162 -0.8742 0.3685
vn 0.3163 -0.8742 0.3685
vn 0.7229 -0.6027 0.3378
vn 0.7229 -0.6028 0.3378
vn 0.9410 -0.2367 0.2417
vn -0.0000 -0.9656 0.2599
vn -0.0000 -0.9657 0.2598
vn -0.0000 -0.9861 0.1663
vn -0.0000 -0.9972 0.0750
vn 0.0000 -0.9972 0.0749
vn 0.9921 0.0000 0.1256
vn 0.9967 0.0000 0.0812
vn 0.9993 0.0000 0.0372
vn -0.9921 0.0000 0.1256
vn -0.9967 0.0000 0.0812
vn -0.9993 0.0000 0.0372
vn -1.0000 0.0000 0.0000
usemtl Kbdfsharp
s off
f 1//1 2//1 3//1
f 3//1 4//1 1//1
f 5//2 6//2 7//2
f 7//2 8//2 5//2
f 9//3 10//3 11//3
f 11//3 12//3 9//3
f 13//4 14//4 15//4
f 15//4 16//4 13//4
f 17//5 18//5 19//5
f 19//5 20//5 17//5
f 21//6 22//6 23//6
f 23//6 24//6 21//6
f 25//7 26//7 27//7
f 27//7 28//7 25//7
f 29//5 30//5 31//5
f 31//5 32//5 29//5
f 33//8 34//8 35//8
f 35//8 36//8 33//8
f 37//9 38//9 39//9
f 39//10 40//10 37//10
f 38//11 41//11 42//11
f 42//12 39//12 38//12
f 36//13 43//13 42//13
f 42//14 41//14 36//14
f 43//15 44//15 45//15
f 45//15 42//15 43//15
f 16//16 46//16 45//16
f 45//17 44//17 16//17
f 46//18 40//18 39//18
f 39//19 45//19 46//19
f 39//20 42//20 45//20
f 23//21 47//21 48//21
f 48//22 49//22 23//22
f 47//23 50//23 51//23
f 51//24 48//24 47//24
f 3//25 52//25 51//25
f 51//26 50//26 3//26
f 52//27 53//27 54//27
f 54//28 51//28 52//28
f 10//29 55//29 54//29
f 54//30 53//30 10//30
f 55//31 49//31 48//31
f 48//32 54//32 55//32
f 48//33 51//33 54//33
f 33//34 56//34 57//34
f 57//35 58//35 33//35
f 56//36 59//36 60//36
f 60//37 57//37 56//37
f 61//38 62//38 60//38
f 60//39 59//39 61//39
f 62//40 63//40 64//40
f 64//40 60//40 62//40
f 17//41 65//41 64//41
f 64//42 63//42 17//42
f 65//43 58//43 57//43
f 57//43 64//43 65//43
f 57//44 60//44 64//44
f 11//45 66//45 67//45
f 67//46 68//46 11//46
f 66//47 69//47 70//47
f 70//48 67//48 66//48
f 2//49 71//49 70//49
f 70//50 69//50 2//50
f 71//51 72//51 73//51
f 73//52 70//52 71//52
f 30//53 74//53 73//53
f 73//54 72//54 30//54
f 74//55 68//55 67//55
f 67//56 73//56 74//56
f 67//57 70//57 73//57
f 35//58 75//58 76//58
f 76//59 77//59 35//59
f 75//60 78//60 79//60
f 79//61 76//61 75//61
f 8//62 80//62 79//62
f 79//63 78//63 8//63
f 80//64 81//64 82//64
f 82//65 79//65 80//65
f 13//66 83//66 82//66
f 82//67 81//67 13//67
f 83//68 77//68 76//68
f 76//69 82//69 83//69
f 76//70 79//70 82//70
f 27//71 84//71 85//71
f 85//72 86//72 27//72
f 84//73 87//73 88//73
f 88//74 85//74 84//74
f 4//75 89//75 88//75
f 88//76 87//76 4//76
f 89//77 90//77 91//77
f 91//78 88//78 89//78
f 22//79 92//79 91//79
f 91//80 90//80 22//80
f 92//81 86//81 85//81
f 85//82 91//82 92//82
f 85//83 88//83 91//83
f 34//84 93//84 94//84
f 94//85 95//85 34//85
f 93//86 96//86 97//86
f 97//87 94//87 93//87
f 20//88 98//88 97//88
f 97//89 96//89 20//89
f 98//90 99//90 100//90
f 100//91 97//91 98//91
f 5//92 101//92 100//92
f 100//93 99//93 5//93
f 101//94 95//94 94//94
f 94//95 100//95 101//95
f 94//96 97//96 100//96
f 31//97 102//97 103//97
f 103//98 104//98 31//98
f 102//99 105//99 106//99
f 106//100 103//100 102//100
f 1//101 107//101 106//101
f 106//102 105//102 1//102
f 107//103 108//103 109//103
f 109//103 106//103 107//103
f 26//104 110//104 109//104
f 109//105 108//105 26//105
f 110//106 104//106 103//106
f 103//106 109//106 110//106
f 103//107 106//107 109//107
f 9//108 111//108 112//108
f 112//109 113//109 9//109
f 111//110 114//110 115//110
f 115//111 112//111 111//111
f 116//112 117//112 115//112
f 115//113 114//113 116//113
f 117//114 118//114 119//114
f 119//115 115//115 117//115
f 15//116 120//116 119//116
f 119//117 118//117 15//117
f 120//118 121//118 122//118
f 122//119 119//119 120//119
f 24//120 123//120 122//120
f 122//121 121//121 24//121
f 123//122 113//122 112//122
f 112//123 122//123 123//123
f 112//124 115//124 119//124
f 119//125 122//125 112//125
f 124//126 125//126 126//126
f 126//127 127//127 124//127
f 125//128 128//128 129//128
f 129//129 126//129 125//129
f 12//130 130//130 129//130
f 129//131 128//131 12//131
f 130//132 131//132 132//132
f 132//133 129//133 130//133
f 29//134 133//134 132//134
f 132//135 131//135 29//135
f 133//136 134//136 135//136
f 135//137 132//137 133//137
f 18//138 136//138 135//138
f 135//139 134//139 18//139
f 136//140 127//140 126//140
f 126//141 135//141 136//141
f 126//142 129//142 132//142
f 132//143 135//143 126//143
f 19//144 137//144 138//144
f 138//145 139//145 19//145
f 137//146 140//146 141//146
f 141//147 138//147 137//147
f 32//148 142//148 141//148
f 141//149 140//149 32//149
f 142//150 143//150 144//150
f 144//151 141//151 142//151
f 25//152 145//152 144//152
f 144//153 143//153 25//153
f 145//154 146//154 147//154
f 147//155 144//155 145//155
f 6//156 148//156 147//156
f 147//157 146//157 6//157
f 148//158 139//158 138//158
f 138//159 147//159 148//159
f 138//160 141//160 144//160
f 144//161 147//161 138//161
f 7//162 149//162 150//162
f 150//163 151//163 7//163
f 149//164 152//164 153//164
f 153//165 150//165 149//165
f 28//166 154//166 153//166
f 153//167 152//167 28//167
f 154//168 155//168 156//168
f 156//169 153//169 154//169
f 21//170 157//170 156//170
f 156//171 155//171 21//171
f 157//172 158//172 159//172
f 159//173 156//173 157//173
f 14//174 160//174 159//174
f 159//175 158//175 14//175
f 160//176 151//176 150//176
f 150//177 159//177 160//177
f 150//178 153//178 156//178
f 156//179 159//179 150//179
f 33//180 36//180 41//180
f 41//180 56//180 33//180
f 56//181 41//181 38//181
f 38//181 59//181 56//181
f 37//182 61//182 59//182
f 59//182 38//182 37//182
f 24//183 23//183 49//183
f 49//184 123//184 24//184
f 123//185 49//185 55//185
f 55//186 113//186 123//186
f 113//187 55//187 10//187
f 10//188 9//188 113//188
f 3//189 2//189 69//189
f 69//190 52//190 3//190
f 52//191 69//191 66//191
f 66//192 53//192 52//192
f 53//193 66//193 11//193
f 11//194 10//194 53//194
f 18//195 17//195 63//195
f 63//196 136//196 18//196
f 136//197 63//197 62//197
f 62//198 127//198 136//198
f 127//199 62//199 61//199
f 61//200 124//200 127//200
f 34//201 33//201 58//201
f 58//201 93//201 34//201
f 93//202 58//202 65//202
f 65//202 96//202 93//202
f 96//203 65//203 17//203
f 17//203 20//203 96//203
f 2//204 1//204 105//204
f 105//204 71//204 2//204
f 71//205 105//205 102//205
f 102//205 72//205 71//205
f 72//206 102//206 31//206
f 31//206 30//206 72//206
f 6//207 5//207 99//207
f 99//208 148//208 6//208
f 148//209 99//209 98//209
f 98//209 139//209 148//209
f 139//210 98//210 20//210
f 20//211 19//211 139//211
f 35//212 34//212 95//212
f 95//212 75//212 35//212
f 75//213 95//213 101//213
f 101//213 78//213 75//213
f 78//214 101//214 5//214
f 5//214 8//214 78//214
f 1//215 4//215 87//215
f 87//216 107//216 1//216
f 107//217 87//217 84//217
f 84//217 108//217 107//217
f 108//218 84//218 27//218
f 27//219 26//219 108//219
f 14//220 13//220 81//220
f 81//221 160//221 14//221
f 160//222 81//222 80//222
f 80//222 151//222 160//222
f 151//223 80//223 8//223
f 8//224 7//224 151//224
f 36//225 35//225 77//225
f 77//225 43//225 36//225
f 43//226 77//226 83//226
f 83//226 44//226 43//226
f 44//227 83//227 13//227
f 13//228 16//228 44//228
f 4//229 3//229 50//229
f 50//230 89//230 4//230
f 89//231 50//231 47//231
f 47//231 90//231 89//231
f 90//232 47//232 23//232
f 23//232 22//232 90//232
f 16//233 15//233 118//233
f 118//234 46//234 16//234
f 46//235 118//235 117//235
f 117//235 40//235 46//235
f 116//236 37//236 40//236
f 40//237 117//237 116//237
f 30//238 29//238 131//238
f 131//239 74//239 30//239
f 74//240 131//240 130//240
f 130//241 68//241 74//241
f 68//242 130//242 12//242
f 12//243 11//243 68//243
f 26//244 25//244 143//244
f 143//245 110//245 26//245
f 110//246 143//246 142//246
f 142//247 104//247 110//247
f 104//248 142//248 32//248
f 32//249 31//249 104//249
f 22//250 21//250 155//250
f 155//251 92//251 22//251
f 92//252 155//252 154//252
f 154//253 86//253 92//253
f 86//254 154//254 28//254
f 28//254 27//254 86//254
f 21//255 24//255 121//255
f 121//256 157//256 21//256
f 157//257 121//257 120//257
f 120//257 158//257 157//257
f 158//258 120//258 15//258
f 15//259 14//259 158//259
f 25//260 28//260 152//260
f 152//260 145//260 25//260
f 145//261 152//261 149//261
f 149//261 146//261 145//261
f 146//262 149//262 7//262
f 7//262 6//262 146//262
f 29//5 32//5 140//5
f 140//5 133//5 29//5
f 133//5 140//5 137//5
f 137//5 134//5 133//5
f 134//5 137//5 19//5
f 19//5 18//5 134//5
f 9//263 12//263 128//263
f 128//263 111//263 9//263
f 111//264 128//264 125//264
f 125//264 114//264 111//264
f 114//265 125//265 124//265
f 124//265 116//265 114//265
f 37//266 116//266 124//266
f 124//266 61//266 37//266
