# Blender v2.90.0 OBJ File: 'convert2obj.blend'
# www.blender.org
mtllib Kbdgnat.mtl
o Kbdgnat
v 0.955150 -1.066918 0.174813
v 0.955150 -1.061082 0.174813
v 1.108662 -1.061082 0.174813
v 1.108662 -1.066918 0.174813
v 1.108383 -1.068321 0.174813
v 1.107588 -1.069510 0.174813
v 1.106399 -1.070305 0.174813
v 1.104996 -1.070584 0.174813
v 0.958816 -1.070584 0.174813
v 0.957413 -1.070304 0.174813
v 0.956223 -1.069510 0.174813
v 0.955429 -1.068321 0.174813
v 1.108662 -1.061082 0.000000
v 0.955150 -1.061082 0.000000
v 0.955150 -0.707712 0.000000
v 0.955150 -1.061082 0.181466
v 0.955150 -0.707712 0.181466
v 0.956223 -1.069510 0.181466
v 0.955429 -1.068321 0.181466
v 1.106399 -1.070305 0.181466
v 1.104996 -1.070584 0.181466
v 0.957413 -1.070304 0.181466
v 0.958816 -1.070584 0.181466
v 0.955150 -1.066918 0.181466
v 1.107588 -1.069510 0.181466
v 0.978115 -0.707712 0.181466
v 0.978115 -0.707712 0.000000
v 1.108383 -1.068321 0.181466
v 1.108662 -1.066918 0.181466
v 1.061928 -0.000183 0.181466
v 1.061928 -0.000183 0.000000
v 0.978115 -0.000183 0.000000
v 0.978115 -0.000183 0.181466
v 1.061928 -0.707712 -0.000000
v 1.061928 -0.707712 0.181466
v 1.108662 -0.707712 0.181466
v 1.108662 -0.707712 0.000000
v 1.106829 -1.061082 0.183299
v 1.106829 -0.709545 0.183299
v 1.060095 -0.709545 0.183299
v 1.060095 -0.002016 0.183299
v 0.979948 -0.002016 0.183299
v 0.979948 -0.709545 0.183299
v 0.956983 -0.709545 0.183299
v 0.956983 -1.061082 0.183299
v 1.106829 -1.066737 0.183299
v 1.106267 -1.068188 0.183299
v 1.106656 -1.067605 0.183299
v 1.104816 -1.068751 0.183299
v 1.105684 -1.068578 0.183299
v 0.958128 -1.068578 0.183299
v 0.958996 -1.068751 0.183299
v 0.957155 -1.067605 0.183299
v 0.957545 -1.068188 0.183299
v 0.956983 -1.066737 0.183299
v 1.108662 -1.061082 0.181466
v 1.107530 -1.061082 0.183159
v 1.107531 -0.708844 0.183159
v 1.108125 -1.061082 0.182762
v 1.108125 -0.708249 0.182762
v 1.108523 -1.061082 0.182167
v 1.108523 -0.707852 0.182167
v 0.957854 -1.069239 0.183159
v 0.958927 -1.069452 0.183159
v 0.957622 -1.069799 0.182762
v 0.958868 -1.070047 0.182762
v 0.957467 -1.070173 0.182167
v 0.958829 -1.070444 0.182167
v 0.957039 -1.068694 0.183159
v 0.956610 -1.069123 0.182762
v 0.956324 -1.069409 0.182167
v 0.956495 -1.067879 0.183159
v 0.955934 -1.068111 0.182762
v 0.955560 -1.068266 0.182167
v 0.956281 -1.066806 0.183159
v 0.955687 -1.066865 0.182762
v 0.955289 -1.066904 0.182167
v 0.956281 -1.061082 0.183159
v 0.955687 -1.061082 0.182762
v 0.955289 -1.061082 0.182167
v 1.107317 -1.067879 0.183159
v 1.107530 -1.066806 0.183159
v 1.107877 -1.068111 0.182762
v 1.108125 -1.066865 0.182762
v 1.108252 -1.068266 0.182167
v 1.108523 -1.066904 0.182167
v 1.106773 -1.068694 0.183159
v 1.107201 -1.069123 0.182762
v 1.107488 -1.069409 0.182167
v 1.105957 -1.069239 0.183159
v 1.106189 -1.069799 0.182762
v 1.106345 -1.070173 0.182167
v 1.104885 -1.069452 0.183159
v 1.104943 -1.070047 0.182762
v 1.104982 -1.070444 0.182167
v 0.955289 -0.707852 0.182167
v 0.978255 -0.707852 0.182167
v 0.955687 -0.708249 0.182762
v 0.978652 -0.708249 0.182762
v 0.956281 -0.708844 0.183159
v 0.979247 -0.708844 0.183159
v 0.979247 -0.001314 0.183159
v 0.978652 -0.000720 0.182762
v 0.978255 -0.000322 0.182167
v 1.061789 -0.000322 0.182167
v 1.061392 -0.000720 0.182762
v 1.060797 -0.001314 0.183159
v 1.060797 -0.708844 0.183159
v 1.061392 -0.708249 0.182762
v 1.061789 -0.707852 0.182167
vn 0.0000 0.0000 -1.0000
vn -0.0000 -1.0000 -0.0000
vn -1.0000 0.0000 -0.0000
vn -0.8314 -0.5556 0.0000
vn 0.1952 -0.9808 0.0000
vn -0.5555 -0.8315 0.0000
vn -0.5556 -0.8314 0.0000
vn -0.9808 -0.1951 0.0000
vn 0.5556 -0.8314 0.0000
vn 0.5555 -0.8315 0.0000
vn -0.0000 1.0000 0.0000
vn 0.8315 -0.5556 0.0000
vn 0.9808 -0.1952 0.0000
vn 0.9808 -0.1950 0.0000
vn -0.1952 -0.9808 0.0000
vn 1.0000 0.0000 0.0000
vn -0.0000 0.0000 1.0000
vn -0.0001 0.0000 1.0000
vn 0.0001 0.0000 1.0000
vn 0.1952 0.0000 0.9808
vn 0.1951 0.0000 0.9808
vn 0.5555 0.0000 0.8315
vn 0.5556 0.0000 0.8315
vn 0.8315 0.0000 0.5555
vn 0.8315 0.0000 0.5556
vn 0.9808 0.0000 0.1950
vn 0.9808 0.0000 0.1952
vn -0.0381 -0.1913 0.9808
vn -0.0381 -0.1914 0.9808
vn -0.1084 -0.5448 0.8315
vn -0.1085 -0.5450 0.8314
vn -0.1623 -0.8154 0.5557
vn -0.1623 -0.8154 0.5556
vn -0.1914 -0.9620 0.1949
vn -0.1914 -0.9619 0.1952
vn -0.1084 -0.1622 0.9808
vn -0.3087 -0.4620 0.8314
vn -0.3086 -0.4620 0.8314
vn -0.4619 -0.6915 0.5554
vn -0.4619 -0.6912 0.5557
vn -0.5449 -0.8155 0.1952
vn -0.5449 -0.8155 0.1949
vn -0.1622 -0.1084 0.9808
vn -0.1623 -0.1084 0.9808
vn -0.4618 -0.3085 0.8316
vn -0.4620 -0.3086 0.8314
vn -0.6914 -0.4619 0.5555
vn -0.6913 -0.4620 0.5556
vn -0.8155 -0.5449 0.1950
vn -0.8154 -0.5450 0.1951
vn -0.1913 -0.0381 0.9808
vn -0.1914 -0.0381 0.9808
vn -0.5448 -0.1084 0.8315
vn -0.5449 -0.1084 0.8315
vn -0.8154 -0.1623 0.5557
vn -0.8156 -0.1621 0.5555
vn -0.9619 -0.1915 0.1952
vn -0.9619 -0.1913 0.1951
vn -0.1951 0.0000 0.9808
vn -0.5556 0.0000 0.8315
vn -0.8314 0.0000 0.5556
vn -0.9808 0.0000 0.1951
vn 0.1913 -0.0380 0.9808
vn 0.1914 -0.0381 0.9808
vn 0.5449 -0.1086 0.8314
vn 0.5448 -0.1084 0.8315
vn 0.8155 -0.1623 0.5556
vn 0.8155 -0.1622 0.5555
vn 0.9619 -0.1915 0.1950
vn 0.9620 -0.1912 0.1950
vn 0.1622 -0.1084 0.9808
vn 0.1623 -0.1084 0.9808
vn 0.4619 -0.3088 0.8314
vn 0.4619 -0.3085 0.8315
vn 0.6914 -0.4621 0.5554
vn 0.6914 -0.4619 0.5556
vn 0.8155 -0.5449 0.1951
vn 0.8155 -0.5449 0.1952
vn 0.1084 -0.1622 0.9808
vn 0.3086 -0.4620 0.8314
vn 0.3086 -0.4618 0.8315
vn 0.4619 -0.6914 0.5555
vn 0.4620 -0.6912 0.5557
vn 0.5448 -0.8156 0.1950
vn 0.5449 -0.8155 0.1951
vn 0.0381 -0.1913 0.9808
vn 0.0381 -0.1914 0.9808
vn 0.1085 -0.5449 0.8314
vn 0.1084 -0.5447 0.8316
vn 0.1623 -0.8155 0.5556
vn 0.1624 -0.8156 0.5554
vn 0.1915 -0.9618 0.1954
vn 0.1914 -0.9620 0.1949
vn -0.0000 -0.1951 0.9808
vn -0.0000 -0.1950 0.9808
vn -0.0000 -0.5555 0.8315
vn -0.0000 -0.5556 0.8315
vn -0.0000 -0.8316 0.5554
vn -0.0000 -0.8313 0.5558
vn -0.0000 -0.9808 0.1950
vn 0.0000 0.9808 0.1950
vn 0.0000 0.9808 0.1951
vn 0.0000 0.8315 0.5555
vn 0.0000 0.8314 0.5557
vn 0.0000 0.5556 0.8315
vn 0.0000 0.5557 0.8314
vn 0.0000 0.1951 0.9808
vn -0.5555 0.0000 0.8315
vn -0.8315 0.0000 0.5556
vn -0.8315 0.0000 0.5555
vn -0.9808 0.0000 0.1950
vn 0.0000 0.8315 0.5556
vn 0.0000 0.5556 0.8314
vn 0.0000 0.8313 0.5558
usemtl Kbdgnat
s off
f 1//1 2//1 3//1
f 3//1 4//1 5//1
f 5//1 6//1 7//1
f 7//1 8//1 9//1
f 9//1 10//1 11//1
f 11//1 12//1 1//1
f 1//1 3//1 5//1
f 5//1 7//1 9//1
f 9//1 11//1 1//1
f 5//1 9//1 1//1
f 13//2 3//2 2//2
f 2//2 14//2 13//2
f 15//3 14//3 2//3
f 2//3 16//3 17//3
f 2//3 17//3 15//3
f 11//4 18//4 19//4
f 19//4 12//4 11//4
f 7//5 20//5 21//5
f 21//5 8//5 7//5
f 10//6 22//6 18//6
f 18//7 11//7 10//7
f 8//2 21//2 23//2
f 23//2 9//2 8//2
f 12//8 19//8 24//8
f 24//8 1//8 12//8
f 6//9 25//9 20//9
f 20//10 7//10 6//10
f 26//11 27//11 15//11
f 15//11 17//11 26//11
f 5//12 28//12 25//12
f 25//12 6//12 5//12
f 4//13 29//13 28//13
f 28//14 5//14 4//14
f 9//15 23//15 22//15
f 22//15 10//15 9//15
f 16//3 2//3 1//3
f 1//3 24//3 16//3
f 30//11 31//11 32//11
f 32//11 33//11 30//11
f 27//3 26//3 33//3
f 33//3 32//3 27//3
f 34//11 35//11 36//11
f 36//11 37//11 34//11
f 32//1 31//1 34//1
f 34//1 37//1 13//1
f 13//1 14//1 15//1
f 27//1 32//1 34//1
f 13//1 15//1 27//1
f 34//1 13//1 27//1
f 35//16 34//16 31//16
f 31//16 30//16 35//16
f 38//17 39//17 40//17
f 40//17 41//17 42//17
f 43//17 44//17 45//17
f 40//17 42//17 43//17
f 46//17 38//17 40//17
f 47//17 48//17 46//17
f 49//18 50//18 47//18
f 51//17 52//17 49//17
f 53//19 54//19 51//19
f 45//18 55//18 53//18
f 40//17 43//17 45//17
f 47//17 46//17 40//17
f 51//17 49//17 47//17
f 45//17 53//17 51//17
f 47//17 40//17 45//17
f 45//17 51//17 47//17
f 3//16 56//16 29//16
f 29//16 4//16 3//16
f 39//20 38//20 57//20
f 57//21 58//21 39//21
f 58//22 57//22 59//22
f 59//23 60//23 58//23
f 60//24 59//24 61//24
f 61//25 62//25 60//25
f 62//26 61//26 56//26
f 56//27 36//27 62//27
f 52//28 51//28 63//28
f 63//29 64//29 52//29
f 64//30 63//30 65//30
f 65//31 66//31 64//31
f 66//32 65//32 67//32
f 67//33 68//33 66//33
f 68//34 67//34 22//34
f 22//35 23//35 68//35
f 51//36 54//36 69//36
f 69//36 63//36 51//36
f 63//37 69//37 70//37
f 70//38 65//38 63//38
f 65//39 70//39 71//39
f 71//40 67//40 65//40
f 67//41 71//41 18//41
f 18//42 22//42 67//42
f 54//43 53//43 72//43
f 72//44 69//44 54//44
f 69//45 72//45 73//45
f 73//46 70//46 69//46
f 70//47 73//47 74//47
f 74//48 71//48 70//48
f 71//49 74//49 19//49
f 19//50 18//50 71//50
f 53//51 55//51 75//51
f 75//52 72//52 53//52
f 72//53 75//53 76//53
f 76//54 73//54 72//54
f 73//55 76//55 77//55
f 77//56 74//56 73//56
f 74//57 77//57 24//57
f 24//58 19//58 74//58
f 55//59 45//59 78//59
f 78//59 75//59 55//59
f 75//60 78//60 79//60
f 79//60 76//60 75//60
f 76//61 79//61 80//61
f 80//61 77//61 76//61
f 77//62 80//62 16//62
f 16//62 24//62 77//62
f 46//63 48//63 81//63
f 81//64 82//64 46//64
f 82//65 81//65 83//65
f 83//66 84//66 82//66
f 84//67 83//67 85//67
f 85//68 86//68 84//68
f 86//69 85//69 28//69
f 28//70 29//70 86//70
f 48//71 47//71 87//71
f 87//72 81//72 48//72
f 81//73 87//73 88//73
f 88//74 83//74 81//74
f 83//75 88//75 89//75
f 89//76 85//76 83//76
f 85//77 89//77 25//77
f 25//78 28//78 85//78
f 47//79 50//79 90//79
f 90//79 87//79 47//79
f 87//80 90//80 91//80
f 91//81 88//81 87//81
f 88//82 91//82 92//82
f 92//83 89//83 88//83
f 89//84 92//84 20//84
f 20//85 25//85 89//85
f 50//86 49//86 93//86
f 93//87 90//87 50//87
f 90//88 93//88 94//88
f 94//89 91//89 90//89
f 91//90 94//90 95//90
f 95//91 92//91 91//91
f 92//92 95//92 21//92
f 21//93 20//93 92//93
f 49//94 52//94 64//94
f 64//95 93//95 49//95
f 93//96 64//96 66//96
f 66//97 94//97 93//97
f 94//98 66//98 68//98
f 68//99 95//99 94//99
f 95//100 68//100 23//100
f 23//100 21//100 95//100
f 38//21 46//21 82//21
f 82//20 57//20 38//20
f 57//22 82//22 84//22
f 84//22 59//22 57//22
f 59//24 84//24 86//24
f 86//24 61//24 59//24
f 61//26 86//26 29//26
f 29//26 56//26 61//26
f 26//101 17//101 96//101
f 96//102 97//102 26//102
f 97//103 96//103 98//103
f 98//104 99//104 97//104
f 99//105 98//105 100//105
f 100//106 101//106 99//106
f 101//107 100//107 44//107
f 44//107 43//107 101//107
f 43//59 42//59 102//59
f 102//59 101//59 43//59
f 101//108 102//108 103//108
f 103//108 99//108 101//108
f 99//109 103//109 104//109
f 104//110 97//110 99//110
f 97//111 104//111 33//111
f 33//111 26//111 97//111
f 45//59 44//59 100//59
f 100//59 78//59 45//59
f 78//60 100//60 98//60
f 98//60 79//60 78//60
f 79//61 98//61 96//61
f 96//61 80//61 79//61
f 80//111 96//111 17//111
f 17//62 16//62 80//62
f 30//102 33//102 104//102
f 104//102 105//102 30//102
f 105//112 104//112 103//112
f 103//112 106//112 105//112
f 106//105 103//105 102//105
f 102//105 107//105 106//105
f 107//107 102//107 42//107
f 42//107 41//107 107//107
f 40//107 39//107 58//107
f 58//107 108//107 40//107
f 108//113 58//113 60//113
f 60//106 109//106 108//106
f 109//114 60//114 62//114
f 62//103 110//103 109//103
f 110//102 62//102 36//102
f 36//101 35//101 110//101
f 35//26 30//26 105//26
f 105//26 110//26 35//26
f 110//25 105//25 106//25
f 106//24 109//24 110//24
f 109//22 106//22 107//22
f 107//22 108//22 109//22
f 108//21 107//21 41//21
f 41//21 40//21 108//21
f 13//16 37//16 36//16
f 36//16 56//16 3//16
f 36//16 3//16 13//16
