# Blender v2.90.0 OBJ File: 'convert2obj.blend'
# www.blender.org
mtllib Kbdnatchigh.mtl
o Kbdnatchigh
v 1.585800 -0.000183 0.000000
v 1.585800 -1.061082 0.000000
v 1.432287 -1.061082 0.000000
v 1.432287 -0.000183 0.000000
v 1.432287 -1.066918 0.174813
v 1.432287 -1.061082 0.174813
v 1.585800 -1.061082 0.174813
v 1.585800 -1.066918 0.174813
v 1.585521 -1.068321 0.174813
v 1.584726 -1.069510 0.174813
v 1.583536 -1.070305 0.174813
v 1.582134 -1.070584 0.174813
v 1.435953 -1.070584 0.174813
v 1.434550 -1.070304 0.174813
v 1.433361 -1.069510 0.174813
v 1.432566 -1.068321 0.174813
v 1.585800 -1.061082 0.181466
v 1.585800 -1.066918 0.181466
v 1.434120 -0.002016 0.183299
v 1.434120 -1.061082 0.183299
v 1.434120 -1.066737 0.183299
v 1.434293 -1.067605 0.183299
v 1.434682 -1.068188 0.183299
v 1.435266 -1.068578 0.183299
v 1.436133 -1.068751 0.183299
v 1.581953 -1.068751 0.183299
v 1.582821 -1.068578 0.183299
v 1.583404 -1.068188 0.183299
v 1.583794 -1.067605 0.183299
v 1.583967 -1.066737 0.183299
v 1.583967 -1.061082 0.183299
v 1.583967 -0.002016 0.183299
v 1.432287 -1.061082 0.181466
v 1.432287 -0.000183 0.181466
v 1.432287 -0.000183 0.174813
v 1.433361 -1.069510 0.181466
v 1.432566 -1.068321 0.181466
v 1.583537 -1.070305 0.181466
v 1.582134 -1.070584 0.181466
v 1.434550 -1.070304 0.181466
v 1.435953 -1.070584 0.181466
v 1.432287 -1.066918 0.181466
v 1.584726 -1.069510 0.181466
v 1.585521 -1.068321 0.181466
v 1.585800 -0.000183 0.181466
v 1.585800 -0.000183 0.174813
v 1.584668 -1.061082 0.183159
v 1.584668 -0.001314 0.183159
v 1.585263 -1.061082 0.182762
v 1.585263 -0.000720 0.182762
v 1.585660 -1.061082 0.182167
v 1.585660 -0.000322 0.182167
v 1.432427 -0.000322 0.182167
v 1.432824 -0.000720 0.182762
v 1.433419 -0.001314 0.183159
v 1.433419 -1.061082 0.183159
v 1.432824 -1.061082 0.182762
v 1.432427 -1.061082 0.182167
v 1.434992 -1.069239 0.183159
v 1.436064 -1.069452 0.183159
v 1.434760 -1.069799 0.182762
v 1.436006 -1.070047 0.182762
v 1.434605 -1.070173 0.182167
v 1.435967 -1.070444 0.182167
v 1.434177 -1.068694 0.183159
v 1.433748 -1.069123 0.182762
v 1.433461 -1.069409 0.182167
v 1.433632 -1.067879 0.183159
v 1.433072 -1.068111 0.182762
v 1.432698 -1.068266 0.182167
v 1.433419 -1.066806 0.183159
v 1.432824 -1.066865 0.182762
v 1.432427 -1.066904 0.182167
v 1.584455 -1.067879 0.183159
v 1.584668 -1.066806 0.183159
v 1.585015 -1.068111 0.182762
v 1.585263 -1.066865 0.182762
v 1.585389 -1.068266 0.182167
v 1.585660 -1.066904 0.182167
v 1.583910 -1.068694 0.183159
v 1.584339 -1.069123 0.182762
v 1.584625 -1.069409 0.182167
v 1.583095 -1.069239 0.183159
v 1.583327 -1.069799 0.182762
v 1.583482 -1.070173 0.182167
v 1.582022 -1.069452 0.183159
v 1.582081 -1.070047 0.182762
v 1.582120 -1.070444 0.182167
vn 0.0000 0.0000 -1.0000
vn 1.0000 0.0000 0.0000
vn 0.0001 0.0000 1.0000
vn 0.0000 0.0000 1.0000
vn -0.0001 0.0000 1.0000
vn -0.0000 -1.0000 -0.0000
vn -1.0000 0.0000 -0.0000
vn -0.8315 -0.5555 0.0000
vn -0.8314 -0.5557 0.0000
vn 0.1951 -0.9808 -0.0000
vn 0.1952 -0.9808 0.0000
vn -0.5556 -0.8315 0.0000
vn -0.9808 -0.1950 0.0000
vn -0.9808 -0.1951 0.0000
vn 0.5557 -0.8314 0.0000
vn 0.5556 -0.8315 -0.0000
vn 0.8314 -0.5556 0.0000
vn 0.9808 -0.1951 0.0000
vn 0.9808 -0.1950 0.0000
vn -0.1952 -0.9808 0.0000
vn -0.1951 -0.9808 0.0000
vn 0.0000 1.0000 0.0000
vn -0.0778 -0.9970 0.0000
vn 0.1951 0.0000 0.9808
vn 0.5557 0.0000 0.8314
vn 0.5555 -0.0000 0.8315
vn 0.8315 -0.0000 0.5556
vn 0.8315 -0.0000 0.5555
vn 0.9808 0.0000 0.1952
vn 0.9808 -0.0000 0.1950
vn 0.0000 0.9808 0.1951
vn 0.0000 0.8315 0.5556
vn 0.0000 0.5556 0.8315
vn 0.0000 0.1951 0.9808
vn -0.1951 0.0000 0.9808
vn -0.5555 0.0000 0.8315
vn -0.5556 0.0000 0.8315
vn -0.8315 0.0000 0.5555
vn -0.8315 0.0000 0.5556
vn -0.9808 0.0000 0.1950
vn -0.9808 0.0000 0.1952
vn -0.0381 -0.1913 0.9808
vn -0.1084 -0.5450 0.8314
vn -0.1085 -0.5450 0.8314
vn -0.1623 -0.8154 0.5557
vn -0.1623 -0.8154 0.5556
vn -0.1914 -0.9620 0.1949
vn -0.1914 -0.9619 0.1952
vn -0.1084 -0.1622 0.9808
vn -0.3087 -0.4618 0.8315
vn -0.3086 -0.4621 0.8314
vn -0.4619 -0.6915 0.5555
vn -0.4620 -0.6912 0.5557
vn -0.5449 -0.8155 0.1949
vn -0.5449 -0.8155 0.1952
vn -0.1623 -0.1083 0.9808
vn -0.1623 -0.1084 0.9808
vn -0.4618 -0.3084 0.8317
vn -0.4620 -0.3088 0.8314
vn -0.6914 -0.4619 0.5556
vn -0.6913 -0.4619 0.5556
vn -0.8155 -0.5449 0.1950
vn -0.8155 -0.5449 0.1951
vn -0.1913 -0.0380 0.9808
vn -0.1914 -0.0381 0.9808
vn -0.5448 -0.1085 0.8315
vn -0.5448 -0.1084 0.8315
vn -0.8155 -0.1622 0.5556
vn -0.8155 -0.1623 0.5555
vn -0.9619 -0.1915 0.1953
vn -0.9619 -0.1914 0.1951
vn 0.1913 -0.0381 0.9808
vn 0.5449 -0.1085 0.8315
vn 0.5450 -0.1084 0.8314
vn 0.8155 -0.1623 0.5556
vn 0.8155 -0.1623 0.5555
vn 0.9619 -0.1915 0.1952
vn 0.9619 -0.1914 0.1951
vn 0.1622 -0.1084 0.9808
vn 0.4618 -0.3089 0.8315
vn 0.4620 -0.3086 0.8315
vn 0.6914 -0.4621 0.5554
vn 0.6914 -0.4618 0.5556
vn 0.8156 -0.5449 0.1950
vn 0.8155 -0.5448 0.1954
vn 0.1084 -0.1622 0.9808
vn 0.3087 -0.4618 0.8315
vn 0.3086 -0.4618 0.8315
vn 0.4619 -0.6913 0.5556
vn 0.4619 -0.6912 0.5558
vn 0.5448 -0.8155 0.1952
vn 0.5449 -0.8155 0.1949
vn 0.0381 -0.1913 0.9808
vn 0.1085 -0.5449 0.8314
vn 0.1084 -0.5448 0.8315
vn 0.1623 -0.8154 0.5556
vn 0.1624 -0.8156 0.5553
vn 0.1915 -0.9619 0.1954
vn 0.1914 -0.9619 0.1952
vn -0.0000 -0.1951 0.9808
vn -0.0000 -0.1950 0.9808
vn -0.0000 -0.5554 0.8316
vn -0.0000 -0.5556 0.8314
vn -0.0000 -0.8315 0.5555
vn -0.0000 -0.8314 0.5557
vn -0.0000 -0.9808 0.1951
vn -0.0000 -0.9808 0.1949
vn 0.1950 0.0000 0.9808
vn 0.5556 0.0000 0.8314
usemtl Kbdnatchigh
s off
f 1//1 2//1 3//1
f 3//1 4//1 1//1
f 5//1 6//1 7//1
f 7//1 8//1 9//1
f 9//1 10//1 11//1
f 11//1 12//1 13//1
f 13//1 14//1 15//1
f 15//1 16//1 5//1
f 5//1 7//1 9//1
f 9//1 11//1 13//1
f 13//1 15//1 5//1
f 9//1 13//1 5//1
f 7//2 17//2 18//2
f 18//2 8//2 7//2
f 19//2 20//2 21//2
f 21//3 22//3 23//3
f 23//4 24//4 25//4
f 25//4 26//4 27//4
f 27//5 28//5 29//5
f 29//4 30//4 31//4
f 31//4 32//4 19//4
f 19//4 21//4 23//4
f 23//4 25//4 27//4
f 27//4 29//4 31//4
f 31//4 19//4 23//4
f 23//4 27//4 31//4
f 2//6 7//6 6//6
f 6//6 3//6 2//6
f 4//7 3//7 6//7
f 6//7 33//7 34//7
f 35//7 4//7 6//7
f 6//7 34//7 35//7
f 15//8 36//8 37//8
f 37//9 16//9 15//9
f 11//10 38//10 39//10
f 39//11 12//11 11//11
f 14//12 40//12 36//12
f 36//12 15//12 14//12
f 12//6 39//6 41//6
f 41//6 13//6 12//6
f 16//13 37//13 42//13
f 42//14 5//14 16//14
f 10//15 43//15 38//15
f 38//16 11//16 10//16
f 9//17 44//17 43//17
f 43//17 10//17 9//17
f 8//18 18//18 44//18
f 44//19 9//19 8//19
f 13//20 41//20 40//20
f 40//21 14//21 13//21
f 33//7 6//7 5//7
f 5//7 42//7 33//7
f 34//22 45//22 46//22
f 46//22 1//22 4//22
f 4//23 35//23 34//23
f 46//22 4//22 34//22
f 32//24 31//24 47//24
f 47//24 48//24 32//24
f 48//25 47//25 49//25
f 49//26 50//26 48//26
f 50//27 49//27 51//27
f 51//28 52//28 50//28
f 52//29 51//29 17//29
f 17//30 45//30 52//30
f 45//31 34//31 53//31
f 53//31 52//31 45//31
f 52//32 53//32 54//32
f 54//32 50//32 52//32
f 50//33 54//33 55//33
f 55//33 48//33 50//33
f 48//34 55//34 19//34
f 19//34 32//34 48//34
f 20//35 19//35 55//35
f 55//35 56//35 20//35
f 56//36 55//36 54//36
f 54//37 57//37 56//37
f 57//38 54//38 53//38
f 53//39 58//39 57//39
f 58//40 53//40 34//40
f 34//41 33//41 58//41
f 25//42 24//42 59//42
f 59//42 60//42 25//42
f 60//43 59//43 61//43
f 61//44 62//44 60//44
f 62//45 61//45 63//45
f 63//46 64//46 62//46
f 64//47 63//47 40//47
f 40//48 41//48 64//48
f 24//49 23//49 65//49
f 65//49 59//49 24//49
f 59//50 65//50 66//50
f 66//51 61//51 59//51
f 61//52 66//52 67//52
f 67//53 63//53 61//53
f 63//54 67//54 36//54
f 36//55 40//55 63//55
f 23//56 22//56 68//56
f 68//57 65//57 23//57
f 65//58 68//58 69//58
f 69//59 66//59 65//59
f 66//60 69//60 70//60
f 70//61 67//61 66//61
f 67//62 70//62 37//62
f 37//63 36//63 67//63
f 22//64 21//64 71//64
f 71//65 68//65 22//65
f 68//66 71//66 72//66
f 72//67 69//67 68//67
f 69//68 72//68 73//68
f 73//69 70//69 69//69
f 70//70 73//70 42//70
f 42//71 37//71 70//71
f 21//35 20//35 56//35
f 56//35 71//35 21//35
f 71//37 56//37 57//37
f 57//37 72//37 71//37
f 72//39 57//39 58//39
f 58//38 73//38 72//38
f 73//41 58//41 33//41
f 33//41 42//41 73//41
f 30//72 29//72 74//72
f 74//72 75//72 30//72
f 75//73 74//73 76//73
f 76//74 77//74 75//74
f 77//75 76//75 78//75
f 78//76 79//76 77//76
f 79//77 78//77 44//77
f 44//78 18//78 79//78
f 29//79 28//79 80//79
f 80//79 74//79 29//79
f 74//80 80//80 81//80
f 81//81 76//81 74//81
f 76//82 81//82 82//82
f 82//83 78//83 76//83
f 78//84 82//84 43//84
f 43//85 44//85 78//85
f 28//86 27//86 83//86
f 83//86 80//86 28//86
f 80//87 83//87 84//87
f 84//88 81//88 80//88
f 81//89 84//89 85//89
f 85//90 82//90 81//90
f 82//91 85//91 38//91
f 38//92 43//92 82//92
f 27//93 26//93 86//93
f 86//93 83//93 27//93
f 83//94 86//94 87//94
f 87//95 84//95 83//95
f 84//96 87//96 88//96
f 88//97 85//97 84//97
f 85//98 88//98 39//98
f 39//99 38//99 85//99
f 26//100 25//100 60//100
f 60//101 86//101 26//101
f 86//102 60//102 62//102
f 62//103 87//103 86//103
f 87//104 62//104 64//104
f 64//105 88//105 87//105
f 88//106 64//106 41//106
f 41//107 39//107 88//107
f 31//108 30//108 75//108
f 75//24 47//24 31//24
f 47//109 75//109 77//109
f 77//25 49//25 47//25
f 49//28 77//28 79//28
f 79//28 51//28 49//28
f 51//29 79//29 18//29
f 18//29 17//29 51//29
f 2//2 1//2 46//2
f 46//2 45//2 17//2
f 7//2 2//2 46//2
f 46//2 17//2 7//2
