# Blender v2.90.0 OBJ File: 'convert2obj.blend'
# www.blender.org
mtllib Kbdnatd.mtl
o Kbdnatd
v 0.476740 -1.066918 0.174813
v 0.476740 -1.061082 0.174813
v 0.630252 -1.061082 0.174813
v 0.630252 -1.066918 0.174813
v 0.629973 -1.068321 0.174813
v 0.629179 -1.069510 0.174813
v 0.627989 -1.070305 0.174813
v 0.626586 -1.070584 0.174813
v 0.480406 -1.070584 0.174813
v 0.479003 -1.070304 0.174813
v 0.477814 -1.069510 0.174813
v 0.477019 -1.068321 0.174813
v 0.630253 -1.061082 0.000000
v 0.476740 -1.061082 0.000000
v 0.476740 -0.707712 0.000000
v 0.476740 -1.061082 0.181466
v 0.476740 -0.707712 0.181466
v 0.477814 -1.069510 0.181466
v 0.477019 -1.068321 0.181466
v 0.627989 -1.070305 0.181466
v 0.626586 -1.070584 0.181466
v 0.479003 -1.070304 0.181466
v 0.480406 -1.070584 0.181466
v 0.476740 -1.066918 0.181466
v 0.629179 -1.069510 0.181466
v 0.508871 -0.707712 0.181466
v 0.508871 -0.707712 0.000000
v 0.629973 -1.068321 0.181466
v 0.630252 -1.066918 0.181466
v 0.603682 -0.000183 0.181466
v 0.603682 -0.000183 0.000000
v 0.508871 -0.000183 0.000000
v 0.508871 -0.000183 0.181466
v 0.603682 -0.707712 0.000000
v 0.603682 -0.707712 0.181466
v 0.630253 -0.707712 0.181466
v 0.630253 -0.707712 0.000000
v 0.628420 -1.061082 0.183299
v 0.628420 -0.709545 0.183299
v 0.601849 -0.709545 0.183299
v 0.601849 -0.002016 0.183299
v 0.510704 -0.002016 0.183299
v 0.510704 -0.709545 0.183299
v 0.478573 -0.709545 0.183299
v 0.478573 -1.061082 0.183299
v 0.628420 -1.066737 0.183299
v 0.627857 -1.068188 0.183299
v 0.628247 -1.067605 0.183299
v 0.626406 -1.068751 0.183299
v 0.627274 -1.068578 0.183299
v 0.479718 -1.068578 0.183299
v 0.480586 -1.068751 0.183299
v 0.478746 -1.067605 0.183299
v 0.479135 -1.068188 0.183299
v 0.478573 -1.066737 0.183299
v 0.630252 -1.061082 0.181466
v 0.629121 -1.061082 0.183159
v 0.629121 -0.708844 0.183159
v 0.629716 -1.061082 0.182762
v 0.629716 -0.708249 0.182762
v 0.630113 -1.061082 0.182167
v 0.630113 -0.707852 0.182167
v 0.479445 -1.069239 0.183159
v 0.480517 -1.069452 0.183159
v 0.479213 -1.069799 0.182762
v 0.480459 -1.070047 0.182762
v 0.479058 -1.070173 0.182167
v 0.480420 -1.070444 0.182167
v 0.478630 -1.068694 0.183159
v 0.478201 -1.069123 0.182762
v 0.477914 -1.069409 0.182167
v 0.478085 -1.067879 0.183159
v 0.477525 -1.068111 0.182762
v 0.477151 -1.068266 0.182167
v 0.477872 -1.066806 0.183159
v 0.477277 -1.066865 0.182762
v 0.476880 -1.066904 0.182167
v 0.477872 -1.061082 0.183159
v 0.477277 -1.061082 0.182762
v 0.476880 -1.061082 0.182167
v 0.628908 -1.067879 0.183159
v 0.629121 -1.066806 0.183159
v 0.629468 -1.068111 0.182762
v 0.629716 -1.066865 0.182762
v 0.629842 -1.068266 0.182167
v 0.630113 -1.066904 0.182167
v 0.628363 -1.068694 0.183159
v 0.628792 -1.069123 0.182762
v 0.629078 -1.069409 0.182167
v 0.627548 -1.069239 0.183159
v 0.627780 -1.069799 0.182762
v 0.627935 -1.070173 0.182167
v 0.626475 -1.069452 0.183159
v 0.626534 -1.070047 0.182762
v 0.626573 -1.070444 0.182167
v 0.476880 -0.707852 0.182167
v 0.509010 -0.707852 0.182167
v 0.477277 -0.708249 0.182762
v 0.509408 -0.708249 0.182762
v 0.477872 -0.708844 0.183159
v 0.510002 -0.708844 0.183159
v 0.510002 -0.001314 0.183159
v 0.509408 -0.000720 0.182762
v 0.509010 -0.000322 0.182167
v 0.603542 -0.000322 0.182167
v 0.603145 -0.000720 0.182762
v 0.602550 -0.001314 0.183159
v 0.602550 -0.708844 0.183159
v 0.603145 -0.708249 0.182762
v 0.603542 -0.707852 0.182167
vn 0.0000 0.0000 -1.0000
vn -0.0000 -1.0000 0.0000
vn -1.0000 0.0000 -0.0000
vn -0.8314 -0.5556 0.0000
vn -0.8315 -0.5556 0.0000
vn 0.1952 -0.9808 0.0000
vn -0.5555 -0.8315 0.0000
vn -0.9808 -0.1951 0.0000
vn 0.5556 -0.8315 0.0000
vn -0.0000 1.0000 0.0000
vn 0.8314 -0.5556 0.0000
vn 0.8315 -0.5556 0.0000
vn 0.9808 -0.1951 0.0000
vn -0.1952 -0.9808 0.0000
vn 1.0000 0.0000 0.0000
vn -0.0000 0.0000 1.0000
vn -0.0001 0.0000 1.0000
vn 0.0001 0.0000 1.0000
vn 0.1951 0.0000 0.9808
vn 0.5555 0.0000 0.8315
vn 0.5556 0.0000 0.8315
vn 0.8315 0.0000 0.5555
vn 0.8315 0.0000 0.5556
vn 0.9808 0.0000 0.1950
vn 0.9808 -0.0000 0.1952
vn -0.0381 -0.1914 0.9808
vn -0.0381 -0.1913 0.9808
vn -0.1084 -0.5450 0.8314
vn -0.1085 -0.5449 0.8315
vn -0.1623 -0.8154 0.5556
vn -0.1914 -0.9620 0.1949
vn -0.1914 -0.9619 0.1952
vn -0.1084 -0.1622 0.9808
vn -0.3087 -0.4619 0.8315
vn -0.3087 -0.4621 0.8314
vn -0.4619 -0.6915 0.5555
vn -0.4619 -0.6913 0.5557
vn -0.5449 -0.8155 0.1952
vn -0.5449 -0.8155 0.1949
vn -0.1623 -0.1084 0.9808
vn -0.1622 -0.1084 0.9808
vn -0.4618 -0.3085 0.8316
vn -0.4620 -0.3087 0.8314
vn -0.6913 -0.4619 0.5556
vn -0.6914 -0.4619 0.5555
vn -0.8155 -0.5449 0.1950
vn -0.8155 -0.5449 0.1951
vn -0.1913 -0.0381 0.9808
vn -0.1914 -0.0381 0.9808
vn -0.5448 -0.1084 0.8315
vn -0.8154 -0.1622 0.5557
vn -0.8155 -0.1622 0.5556
vn -0.9619 -0.1914 0.1951
vn -0.9619 -0.1913 0.1951
vn -0.1951 0.0000 0.9808
vn -0.5556 0.0000 0.8315
vn -0.8315 -0.0000 0.5556
vn -0.8314 0.0000 0.5556
vn -0.9808 0.0000 0.1951
vn 0.1913 -0.0381 0.9808
vn 0.1914 -0.0381 0.9808
vn 0.5449 -0.1083 0.8315
vn 0.5449 -0.1084 0.8315
vn 0.8155 -0.1622 0.5555
vn 0.8154 -0.1622 0.5557
vn 0.9619 -0.1915 0.1952
vn 0.9620 -0.1913 0.1949
vn 0.1622 -0.1084 0.9808
vn 0.4620 -0.3087 0.8314
vn 0.4619 -0.3087 0.8315
vn 0.6914 -0.4620 0.5555
vn 0.8155 -0.5449 0.1951
vn 0.8155 -0.5448 0.1953
vn 0.1084 -0.1622 0.9808
vn 0.1084 -0.1623 0.9808
vn 0.3087 -0.4619 0.8315
vn 0.3086 -0.4619 0.8315
vn 0.4619 -0.6914 0.5555
vn 0.4619 -0.6913 0.5557
vn 0.5449 -0.8155 0.1950
vn 0.5449 -0.8155 0.1951
vn 0.0381 -0.1913 0.9808
vn 0.0381 -0.1914 0.9808
vn 0.1085 -0.5449 0.8315
vn 0.1084 -0.5448 0.8316
vn 0.1623 -0.8155 0.5556
vn 0.1624 -0.8156 0.5553
vn 0.1915 -0.9618 0.1954
vn 0.1914 -0.9620 0.1949
vn -0.0000 -0.1951 0.9808
vn -0.0000 -0.1950 0.9808
vn -0.0000 -0.5554 0.8316
vn -0.0000 -0.5556 0.8314
vn -0.0000 -0.8316 0.5554
vn -0.0000 -0.8313 0.5558
vn -0.0000 -0.9808 0.1948
vn -0.0000 -0.9808 0.1950
vn 0.8314 -0.0000 0.5556
vn 0.0000 0.9808 0.1949
vn 0.0000 0.9807 0.1953
vn 0.0000 0.8315 0.5555
vn 0.0000 0.8314 0.5556
vn 0.0000 0.5556 0.8315
vn 0.0000 0.5556 0.8314
vn 0.0000 0.1951 0.9808
vn -0.5556 0.0000 0.8314
vn -0.9808 0.0000 0.1950
vn -0.8315 0.0000 0.5555
vn 0.0000 0.9808 0.1951
vn 0.0000 0.8315 0.5556
vn 0.0000 0.9808 0.1952
vn 0.0000 0.9808 0.1950
vn 0.9808 0.0000 0.1951
usemtl Kbdnatd
s off
f 1//1 2//1 3//1
f 3//1 4//1 5//1
f 5//1 6//1 7//1
f 7//1 8//1 9//1
f 9//1 10//1 11//1
f 11//1 12//1 1//1
f 1//1 3//1 5//1
f 5//1 7//1 9//1
f 9//1 11//1 1//1
f 5//1 9//1 1//1
f 13//2 3//2 2//2
f 2//2 14//2 13//2
f 15//3 14//3 2//3
f 2//3 16//3 17//3
f 2//3 17//3 15//3
f 11//4 18//4 19//4
f 19//5 12//5 11//5
f 7//6 20//6 21//6
f 21//6 8//6 7//6
f 10//7 22//7 18//7
f 18//7 11//7 10//7
f 8//2 21//2 23//2
f 23//2 9//2 8//2
f 12//8 19//8 24//8
f 24//8 1//8 12//8
f 6//9 25//9 20//9
f 20//9 7//9 6//9
f 26//10 27//10 15//10
f 15//10 17//10 26//10
f 5//11 28//11 25//11
f 25//12 6//12 5//12
f 4//13 29//13 28//13
f 28//13 5//13 4//13
f 9//14 23//14 22//14
f 22//14 10//14 9//14
f 16//3 2//3 1//3
f 1//3 24//3 16//3
f 30//10 31//10 32//10
f 32//10 33//10 30//10
f 27//3 26//3 33//3
f 33//3 32//3 27//3
f 34//10 35//10 36//10
f 36//10 37//10 34//10
f 32//1 31//1 34//1
f 34//1 37//1 13//1
f 13//1 14//1 15//1
f 27//1 32//1 34//1
f 13//1 15//1 27//1
f 34//1 13//1 27//1
f 35//15 34//15 31//15
f 31//15 30//15 35//15
f 38//16 39//16 40//16
f 40//16 41//16 42//16
f 43//16 44//16 45//16
f 40//16 42//16 43//16
f 46//16 38//16 40//16
f 47//16 48//16 46//16
f 49//17 50//17 47//17
f 51//16 52//16 49//16
f 53//18 54//18 51//18
f 45//17 55//17 53//17
f 40//16 43//16 45//16
f 47//16 46//16 40//16
f 51//16 49//16 47//16
f 45//16 53//16 51//16
f 47//16 40//16 45//16
f 45//16 51//16 47//16
f 3//15 56//15 29//15
f 29//15 4//15 3//15
f 39//19 38//19 57//19
f 57//19 58//19 39//19
f 58//20 57//20 59//20
f 59//21 60//21 58//21
f 60//22 59//22 61//22
f 61//23 62//23 60//23
f 62//24 61//24 56//24
f 56//25 36//25 62//25
f 52//26 51//26 63//26
f 63//27 64//27 52//27
f 64//28 63//28 65//28
f 65//29 66//29 64//29
f 66//30 65//30 67//30
f 67//30 68//30 66//30
f 68//31 67//31 22//31
f 22//32 23//32 68//32
f 51//33 54//33 69//33
f 69//33 63//33 51//33
f 63//34 69//34 70//34
f 70//35 65//35 63//35
f 65//36 70//36 71//36
f 71//37 67//37 65//37
f 67//38 71//38 18//38
f 18//39 22//39 67//39
f 54//40 53//40 72//40
f 72//41 69//41 54//41
f 69//42 72//42 73//42
f 73//43 70//43 69//43
f 70//44 73//44 74//44
f 74//45 71//45 70//45
f 71//46 74//46 19//46
f 19//47 18//47 71//47
f 53//48 55//48 75//48
f 75//49 72//49 53//49
f 72//50 75//50 76//50
f 76//50 73//50 72//50
f 73//51 76//51 77//51
f 77//52 74//52 73//52
f 74//53 77//53 24//53
f 24//54 19//54 74//54
f 55//55 45//55 78//55
f 78//55 75//55 55//55
f 75//56 78//56 79//56
f 79//56 76//56 75//56
f 76//57 79//57 80//57
f 80//58 77//58 76//58
f 77//59 80//59 16//59
f 16//59 24//59 77//59
f 46//60 48//60 81//60
f 81//61 82//61 46//61
f 82//62 81//62 83//62
f 83//63 84//63 82//63
f 84//64 83//64 85//64
f 85//65 86//65 84//65
f 86//66 85//66 28//66
f 28//67 29//67 86//67
f 48//68 47//68 87//68
f 87//68 81//68 48//68
f 81//69 87//69 88//69
f 88//70 83//70 81//70
f 83//71 88//71 89//71
f 89//71 85//71 83//71
f 85//72 89//72 25//72
f 25//73 28//73 85//73
f 47//74 50//74 90//74
f 90//75 87//75 47//75
f 87//76 90//76 91//76
f 91//77 88//77 87//77
f 88//78 91//78 92//78
f 92//79 89//79 88//79
f 89//80 92//80 20//80
f 20//81 25//81 89//81
f 50//82 49//82 93//82
f 93//83 90//83 50//83
f 90//84 93//84 94//84
f 94//85 91//85 90//85
f 91//86 94//86 95//86
f 95//87 92//87 91//87
f 92//88 95//88 21//88
f 21//89 20//89 92//89
f 49//90 52//90 64//90
f 64//91 93//91 49//91
f 93//92 64//92 66//92
f 66//93 94//93 93//93
f 94//94 66//94 68//94
f 68//95 95//95 94//95
f 95//96 68//96 23//96
f 23//97 21//97 95//97
f 38//19 46//19 82//19
f 82//19 57//19 38//19
f 57//20 82//20 84//20
f 84//20 59//20 57//20
f 59//98 84//98 86//98
f 86//22 61//22 59//22
f 61//24 86//24 29//24
f 29//24 56//24 61//24
f 26//99 17//99 96//99
f 96//100 97//100 26//100
f 97//101 96//101 98//101
f 98//102 99//102 97//102
f 99//103 98//103 100//103
f 100//104 101//104 99//104
f 101//105 100//105 44//105
f 44//105 43//105 101//105
f 43//55 42//55 102//55
f 102//55 101//55 43//55
f 101//56 102//56 103//56
f 103//106 99//106 101//106
f 99//58 103//58 104//58
f 104//58 97//58 99//58
f 97//107 104//107 33//107
f 33//59 26//59 97//59
f 45//55 44//55 100//55
f 100//55 78//55 45//55
f 78//56 100//56 98//56
f 98//56 79//56 78//56
f 79//108 98//108 96//108
f 96//57 80//57 79//57
f 80//59 96//59 17//59
f 17//59 16//59 80//59
f 30//109 33//109 104//109
f 104//109 105//109 30//109
f 105//110 104//110 103//110
f 103//110 106//110 105//110
f 106//103 103//103 102//103
f 102//103 107//103 106//103
f 107//105 102//105 42//105
f 42//105 41//105 107//105
f 40//105 39//105 58//105
f 58//105 108//105 40//105
f 108//104 58//104 60//104
f 60//104 109//104 108//104
f 109//102 60//102 62//102
f 62//110 110//110 109//110
f 110//111 62//111 36//111
f 36//112 35//112 110//112
f 35//113 30//113 105//113
f 105//113 110//113 35//113
f 110//22 105//22 106//22
f 106//22 109//22 110//22
f 109//20 106//20 107//20
f 107//20 108//20 109//20
f 108//19 107//19 41//19
f 41//19 40//19 108//19
f 13//15 37//15 36//15
f 36//15 56//15 3//15
f 36//15 3//15 13//15
