# Blender v2.90.0 OBJ File: 'convert2obj.blend'
# www.blender.org
mtllib Kbdnatalow.mtl
o Kbdnatalow
v 0.000163 -1.066918 0.174813
v 0.000163 -1.061082 0.174813
v 0.153676 -1.061082 0.174813
v 0.153676 -1.066918 0.174813
v 0.153397 -1.068321 0.174813
v 0.152602 -1.069510 0.174813
v 0.151413 -1.070305 0.174813
v 0.150010 -1.070584 0.174813
v 0.003829 -1.070584 0.174813
v 0.002426 -1.070304 0.174813
v 0.001237 -1.069510 0.174813
v 0.000442 -1.068321 0.174813
v 0.153676 -1.061082 0.000000
v 0.000163 -1.061082 0.000000
v 0.000164 -0.000183 0.000000
v 0.000163 -1.061082 0.181466
v 0.000163 -0.000183 0.181466
v 0.000163 -0.000183 0.174813
v 0.001237 -1.069510 0.181466
v 0.000442 -1.068321 0.181466
v 0.151413 -1.070305 0.181466
v 0.150010 -1.070584 0.181466
v 0.002426 -1.070304 0.181466
v 0.003829 -1.070584 0.181466
v 0.136270 -0.000183 0.181466
v 0.136270 -0.000183 0.000000
v 0.152602 -1.069510 0.181466
v 0.136270 -0.707712 -0.000000
v 0.136270 -0.707712 0.181466
v 0.153676 -0.707712 0.181466
v 0.153676 -0.707712 0.000000
v 0.153397 -1.068321 0.181466
v 0.153676 -1.066918 0.181466
v 0.000163 -1.066918 0.181466
v 0.151843 -1.061082 0.183299
v 0.151843 -0.709545 0.183299
v 0.134437 -0.709545 0.183299
v 0.134437 -0.002016 0.183299
v 0.001996 -0.002016 0.183299
v 0.001996 -1.061082 0.183299
v 0.001996 -1.066737 0.183299
v 0.002169 -1.067605 0.183299
v 0.002559 -1.068188 0.183299
v 0.003142 -1.068578 0.183299
v 0.004010 -1.068751 0.183299
v 0.149830 -1.068751 0.183299
v 0.150697 -1.068578 0.183299
v 0.151281 -1.068188 0.183299
v 0.151670 -1.067605 0.183299
v 0.151843 -1.066737 0.183299
v 0.153676 -1.061082 0.181466
v 0.152544 -1.061082 0.183159
v 0.152544 -0.708844 0.183159
v 0.153139 -1.061082 0.182762
v 0.153139 -0.708249 0.182762
v 0.153536 -1.061082 0.182167
v 0.153536 -0.707852 0.182167
v 0.000303 -0.000322 0.182167
v 0.136130 -0.000322 0.182167
v 0.000700 -0.000720 0.182762
v 0.135733 -0.000720 0.182762
v 0.001295 -0.001314 0.183159
v 0.135138 -0.001314 0.183159
v 0.001295 -1.061082 0.183159
v 0.000700 -1.061082 0.182762
v 0.000303 -1.061082 0.182167
v 0.002868 -1.069239 0.183159
v 0.003941 -1.069452 0.183159
v 0.002636 -1.069799 0.182762
v 0.003882 -1.070047 0.182762
v 0.002481 -1.070173 0.182167
v 0.003843 -1.070444 0.182167
v 0.002053 -1.068694 0.183159
v 0.001624 -1.069123 0.182762
v 0.001338 -1.069409 0.182167
v 0.001508 -1.067879 0.183159
v 0.000948 -1.068111 0.182762
v 0.000574 -1.068266 0.182167
v 0.001295 -1.066806 0.183159
v 0.000700 -1.066865 0.182762
v 0.000303 -1.066904 0.182167
v 0.152331 -1.067879 0.183159
v 0.152544 -1.066806 0.183159
v 0.152891 -1.068111 0.182762
v 0.153139 -1.066865 0.182762
v 0.153265 -1.068266 0.182167
v 0.153536 -1.066904 0.182167
v 0.151786 -1.068694 0.183159
v 0.152215 -1.069123 0.182762
v 0.152501 -1.069409 0.182167
v 0.150971 -1.069239 0.183159
v 0.151203 -1.069799 0.182762
v 0.151358 -1.070173 0.182167
v 0.149899 -1.069452 0.183159
v 0.149957 -1.070047 0.182762
v 0.149996 -1.070444 0.182167
v 0.135138 -0.708844 0.183159
v 0.135733 -0.708249 0.182762
v 0.136130 -0.707852 0.182167
vn 0.0000 0.0000 -1.0000
vn -0.0000 -1.0000 -0.0000
vn -1.0000 0.0000 -0.0000
vn -0.8314 -0.5556 0.0000
vn 0.1952 -0.9808 0.0000
vn -0.5556 -0.8315 0.0000
vn 0.0000 1.0000 0.0000
vn 0.5555 -0.8315 0.0000
vn 0.5556 -0.8315 0.0000
vn 0.8315 -0.5556 0.0000
vn 0.9808 -0.1951 0.0000
vn -0.1952 -0.9808 0.0000
vn -0.9808 -0.1951 0.0000
vn 1.0000 0.0000 0.0000
vn -0.0000 0.0000 1.0000
vn 0.9996 0.0000 0.0278
vn 0.0001 0.0000 1.0000
vn -0.0001 0.0000 1.0000
vn 0.1951 -0.0000 0.9808
vn 0.5556 -0.0000 0.8315
vn 0.8315 -0.0000 0.5556
vn 0.9808 -0.0000 0.1951
vn 0.0000 0.9808 0.1951
vn 0.0000 0.8315 0.5556
vn 0.0000 0.5556 0.8315
vn 0.0000 0.1951 0.9808
vn -0.1951 0.0000 0.9808
vn -0.5556 0.0000 0.8315
vn -0.5555 0.0000 0.8315
vn -0.8315 0.0000 0.5555
vn -0.8315 0.0000 0.5556
vn -0.9808 0.0000 0.1951
vn -0.0381 -0.1914 0.9808
vn -0.0381 -0.1913 0.9808
vn -0.1084 -0.5450 0.8314
vn -0.1085 -0.5449 0.8315
vn -0.1623 -0.8155 0.5555
vn -0.1623 -0.8154 0.5557
vn -0.1914 -0.9619 0.1951
vn -0.1914 -0.9619 0.1950
vn -0.1084 -0.1622 0.9808
vn -0.3087 -0.4620 0.8315
vn -0.3086 -0.4619 0.8315
vn -0.4619 -0.6915 0.5554
vn -0.4619 -0.6913 0.5556
vn -0.5449 -0.8155 0.1951
vn -0.5449 -0.8155 0.1950
vn -0.1623 -0.1084 0.9808
vn -0.1622 -0.1084 0.9808
vn -0.4619 -0.3086 0.8315
vn -0.6913 -0.4618 0.5557
vn -0.6913 -0.4620 0.5555
vn -0.8155 -0.5449 0.1951
vn -0.1913 -0.0381 0.9808
vn -0.1914 -0.0381 0.9808
vn -0.5448 -0.1084 0.8315
vn -0.8154 -0.1622 0.5557
vn -0.8155 -0.1622 0.5555
vn -0.9619 -0.1914 0.1951
vn -0.9619 -0.1913 0.1951
vn 0.1913 -0.0381 0.9808
vn 0.1914 -0.0381 0.9808
vn 0.5448 -0.1084 0.8315
vn 0.5449 -0.1084 0.8315
vn 0.8155 -0.1623 0.5556
vn 0.8155 -0.1622 0.5555
vn 0.9619 -0.1914 0.1951
vn 0.9620 -0.1914 0.1950
vn 0.1622 -0.1084 0.9808
vn 0.4619 -0.3087 0.8315
vn 0.4619 -0.3086 0.8315
vn 0.6915 -0.4620 0.5554
vn 0.6914 -0.4619 0.5555
vn 0.8155 -0.5449 0.1951
vn 0.8155 -0.5449 0.1952
vn 0.1084 -0.1622 0.9808
vn 0.1084 -0.1623 0.9808
vn 0.3086 -0.4618 0.8316
vn 0.3086 -0.4619 0.8315
vn 0.4620 -0.6914 0.5555
vn 0.4619 -0.6913 0.5556
vn 0.5449 -0.8155 0.1950
vn 0.5449 -0.8155 0.1951
vn 0.0381 -0.1913 0.9808
vn 0.0381 -0.1914 0.9808
vn 0.1085 -0.5449 0.8315
vn 0.1084 -0.5448 0.8315
vn 0.1623 -0.8155 0.5556
vn 0.1624 -0.8157 0.5553
vn 0.1915 -0.9618 0.1954
vn 0.1914 -0.9620 0.1949
vn -0.0000 -0.1951 0.9808
vn -0.0000 -0.1950 0.9808
vn -0.0000 -0.5554 0.8316
vn -0.0000 -0.5556 0.8314
vn -0.0000 -0.8317 0.5553
vn -0.0000 -0.8314 0.5556
vn -0.0000 -0.9808 0.1951
vn -0.0000 -0.9808 0.1950
vn 0.5555 -0.0000 0.8315
vn -0.0000 0.5556 0.8314
vn -0.0000 0.8315 0.5555
vn -0.0000 0.9808 0.1950
vn -0.0000 0.9807 0.1953
vn 0.8315 0.0000 0.5555
usemtl Kbdnatalow
s off
f 1//1 2//1 3//1
f 3//1 4//1 5//1
f 5//1 6//1 7//1
f 7//1 8//1 9//1
f 9//1 10//1 11//1
f 11//1 12//1 1//1
f 1//1 3//1 5//1
f 5//1 7//1 9//1
f 9//1 11//1 1//1
f 5//1 9//1 1//1
f 13//2 3//2 2//2
f 2//2 14//2 13//2
f 15//3 14//3 2//3
f 2//3 16//3 17//3
f 18//3 15//3 2//3
f 2//3 17//3 18//3
f 11//4 19//4 20//4
f 20//4 12//4 11//4
f 7//5 21//5 22//5
f 22//5 8//5 7//5
f 10//6 23//6 19//6
f 19//6 11//6 10//6
f 8//2 22//2 24//2
f 24//2 9//2 8//2
f 17//7 25//7 26//7
f 26//7 15//7 18//7
f 26//7 18//7 17//7
f 6//8 27//8 21//8
f 21//9 7//9 6//9
f 28//7 29//7 30//7
f 30//7 31//7 28//7
f 5//10 32//10 27//10
f 27//10 6//10 5//10
f 4//11 33//11 32//11
f 32//11 5//11 4//11
f 9//12 24//12 23//12
f 23//12 10//12 9//12
f 16//3 2//3 1//3
f 1//3 34//3 16//3
f 12//13 20//13 34//13
f 34//13 1//13 12//13
f 15//1 26//1 28//1
f 28//1 31//1 13//1
f 13//1 14//1 15//1
f 28//1 13//1 15//1
f 29//14 28//14 26//14
f 26//14 25//14 29//14
f 35//15 36//15 37//15
f 37//15 38//15 39//15
f 39//16 40//16 41//16
f 41//17 42//17 43//17
f 43//15 44//15 45//15
f 45//15 46//15 47//15
f 47//18 48//18 49//18
f 49//15 50//15 35//15
f 35//15 37//15 39//15
f 39//15 41//15 43//15
f 43//15 45//15 47//15
f 47//15 49//15 35//15
f 35//15 39//15 43//15
f 43//15 47//15 35//15
f 3//14 51//14 33//14
f 33//14 4//14 3//14
f 36//19 35//19 52//19
f 52//19 53//19 36//19
f 53//20 52//20 54//20
f 54//20 55//20 53//20
f 55//21 54//21 56//21
f 56//21 57//21 55//21
f 57//22 56//22 51//22
f 51//22 30//22 57//22
f 25//23 17//23 58//23
f 58//23 59//23 25//23
f 59//24 58//24 60//24
f 60//24 61//24 59//24
f 61//25 60//25 62//25
f 62//25 63//25 61//25
f 63//26 62//26 39//26
f 39//26 38//26 63//26
f 40//27 39//27 62//27
f 62//27 64//27 40//27
f 64//28 62//28 60//28
f 60//29 65//29 64//29
f 65//30 60//30 58//30
f 58//31 66//31 65//31
f 66//32 58//32 17//32
f 17//32 16//32 66//32
f 45//33 44//33 67//33
f 67//34 68//34 45//34
f 68//35 67//35 69//35
f 69//36 70//36 68//36
f 70//37 69//37 71//37
f 71//38 72//38 70//38
f 72//39 71//39 23//39
f 23//40 24//40 72//40
f 44//41 43//41 73//41
f 73//41 67//41 44//41
f 67//42 73//42 74//42
f 74//43 69//43 67//43
f 69//44 74//44 75//44
f 75//45 71//45 69//45
f 71//46 75//46 19//46
f 19//47 23//47 71//47
f 43//48 42//48 76//48
f 76//49 73//49 43//49
f 73//50 76//50 77//50
f 77//50 74//50 73//50
f 74//51 77//51 78//51
f 78//52 75//52 74//52
f 75//53 78//53 20//53
f 20//53 19//53 75//53
f 42//54 41//54 79//54
f 79//55 76//55 42//55
f 76//56 79//56 80//56
f 80//56 77//56 76//56
f 77//57 80//57 81//57
f 81//58 78//58 77//58
f 78//59 81//59 34//59
f 34//60 20//60 78//60
f 41//27 40//27 64//27
f 64//27 79//27 41//27
f 79//28 64//28 65//28
f 65//28 80//28 79//28
f 80//31 65//31 66//31
f 66//31 81//31 80//31
f 81//32 66//32 16//32
f 16//32 34//32 81//32
f 50//61 49//61 82//61
f 82//62 83//62 50//62
f 83//63 82//63 84//63
f 84//64 85//64 83//64
f 85//65 84//65 86//65
f 86//66 87//66 85//66
f 87//67 86//67 32//67
f 32//68 33//68 87//68
f 49//69 48//69 88//69
f 88//69 82//69 49//69
f 82//70 88//70 89//70
f 89//71 84//71 82//71
f 84//72 89//72 90//72
f 90//73 86//73 84//73
f 86//74 90//74 27//74
f 27//75 32//75 86//75
f 48//76 47//76 91//76
f 91//77 88//77 48//77
f 88//78 91//78 92//78
f 92//79 89//79 88//79
f 89//80 92//80 93//80
f 93//81 90//81 89//81
f 90//82 93//82 21//82
f 21//83 27//83 90//83
f 47//84 46//84 94//84
f 94//85 91//85 47//85
f 91//86 94//86 95//86
f 95//87 92//87 91//87
f 92//88 95//88 96//88
f 96//89 93//89 92//89
f 93//90 96//90 22//90
f 22//91 21//91 93//91
f 46//92 45//92 68//92
f 68//93 94//93 46//93
f 94//94 68//94 70//94
f 70//95 95//95 94//95
f 95//96 70//96 72//96
f 72//97 96//97 95//97
f 96//98 72//98 24//98
f 24//99 22//99 96//99
f 35//19 50//19 83//19
f 83//19 52//19 35//19
f 52//100 83//100 85//100
f 85//20 54//20 52//20
f 54//21 85//21 87//21
f 87//21 56//21 54//21
f 56//22 87//22 33//22
f 33//22 51//22 56//22
f 37//26 36//26 53//26
f 53//26 97//26 37//26
f 97//25 53//25 55//25
f 55//101 98//101 97//101
f 98//102 55//102 57//102
f 57//24 99//24 98//24
f 99//103 57//103 30//103
f 30//104 29//104 99//104
f 29//22 25//22 59//22
f 59//22 99//22 29//22
f 99//105 59//105 61//105
f 61//21 98//21 99//21
f 98//100 61//100 63//100
f 63//20 97//20 98//20
f 97//19 63//19 38//19
f 38//19 37//19 97//19
f 13//14 31//14 30//14
f 30//14 51//14 3//14
f 30//14 3//14 13//14
