# Blender v2.90.0 OBJ File: 'convert2obj.blend'
# www.blender.org
mtllib Kbdnatf.mtl
o Kbdnatf
v 0.795680 -1.066918 0.174813
v 0.795680 -1.061082 0.174813
v 0.949192 -1.061082 0.174813
v 0.949192 -1.066918 0.174813
v 0.948913 -1.068321 0.174813
v 0.948118 -1.069510 0.174813
v 0.946929 -1.070305 0.174813
v 0.945526 -1.070584 0.174813
v 0.799346 -1.070584 0.174813
v 0.797943 -1.070304 0.174813
v 0.796754 -1.069510 0.174813
v 0.795959 -1.068321 0.174813
v 0.949192 -1.061082 0.000000
v 0.795680 -1.061082 0.000000
v 0.795680 -0.000183 0.000000
v 0.795680 -1.061082 0.181466
v 0.795680 -0.000183 0.181466
v 0.795680 -0.000183 0.174813
v 0.796754 -1.069510 0.181466
v 0.795959 -1.068321 0.181466
v 0.946929 -1.070305 0.181466
v 0.945526 -1.070584 0.181466
v 0.797943 -1.070304 0.181466
v 0.799346 -1.070584 0.181466
v 0.880463 -0.000183 0.181466
v 0.880463 -0.000183 0.000000
v 0.948118 -1.069510 0.181466
v 0.880463 -0.707712 -0.000000
v 0.880463 -0.707712 0.181466
v 0.949192 -0.707712 0.181466
v 0.949192 -0.707712 0.000000
v 0.948913 -1.068321 0.181466
v 0.949192 -1.066918 0.181466
v 0.795680 -1.066918 0.181466
v 0.947359 -1.061082 0.183299
v 0.947359 -0.709545 0.183299
v 0.878630 -0.709545 0.183299
v 0.878630 -0.002016 0.183299
v 0.797513 -0.002016 0.183299
v 0.797513 -1.061082 0.183299
v 0.797513 -1.066737 0.183299
v 0.797686 -1.067605 0.183299
v 0.798075 -1.068188 0.183299
v 0.798658 -1.068578 0.183299
v 0.799526 -1.068751 0.183299
v 0.945346 -1.068751 0.183299
v 0.946214 -1.068578 0.183299
v 0.946797 -1.068188 0.183299
v 0.947187 -1.067605 0.183299
v 0.947359 -1.066737 0.183299
v 0.949192 -1.061082 0.181466
v 0.948061 -1.061082 0.183159
v 0.948061 -0.708844 0.183159
v 0.948655 -1.061082 0.182762
v 0.948655 -0.708249 0.182762
v 0.949053 -1.061082 0.182167
v 0.949053 -0.707852 0.182167
v 0.795819 -0.000322 0.182167
v 0.880323 -0.000322 0.182167
v 0.796217 -0.000720 0.182762
v 0.879926 -0.000720 0.182762
v 0.796811 -0.001314 0.183159
v 0.879331 -0.001314 0.183159
v 0.796811 -1.061082 0.183159
v 0.796217 -1.061082 0.182762
v 0.795819 -1.061082 0.182167
v 0.798384 -1.069239 0.183159
v 0.799457 -1.069452 0.183159
v 0.798152 -1.069799 0.182762
v 0.799399 -1.070047 0.182762
v 0.797997 -1.070173 0.182167
v 0.799359 -1.070444 0.182167
v 0.797569 -1.068694 0.183159
v 0.797141 -1.069123 0.182762
v 0.796854 -1.069409 0.182167
v 0.797025 -1.067879 0.183159
v 0.796465 -1.068111 0.182762
v 0.796090 -1.068266 0.182167
v 0.796811 -1.066806 0.183159
v 0.796217 -1.066865 0.182762
v 0.795819 -1.066904 0.182167
v 0.947847 -1.067879 0.183159
v 0.948061 -1.066806 0.183159
v 0.948407 -1.068111 0.182762
v 0.948655 -1.066865 0.182762
v 0.948782 -1.068266 0.182167
v 0.949053 -1.066904 0.182167
v 0.947303 -1.068694 0.183159
v 0.947731 -1.069123 0.182762
v 0.948018 -1.069409 0.182167
v 0.946488 -1.069239 0.183159
v 0.946720 -1.069799 0.182762
v 0.946875 -1.070173 0.182167
v 0.945415 -1.069452 0.183159
v 0.945473 -1.070047 0.182762
v 0.945512 -1.070444 0.182167
v 0.879331 -0.708844 0.183159
v 0.879926 -0.708249 0.182762
v 0.880323 -0.707852 0.182167
vn 0.0000 0.0000 -1.0000
vn -0.0000 -1.0000 -0.0000
vn -1.0000 0.0000 -0.0000
vn -0.8314 -0.5556 0.0000
vn -0.8315 -0.5555 0.0000
vn 0.1952 -0.9808 0.0000
vn -0.5555 -0.8315 0.0000
vn -0.5556 -0.8314 0.0000
vn 0.0000 1.0000 0.0000
vn 0.5556 -0.8314 0.0000
vn 0.5555 -0.8315 0.0000
vn 0.8315 -0.5556 0.0000
vn 0.9808 -0.1951 0.0000
vn -0.1952 -0.9808 0.0000
vn -0.9808 -0.1952 0.0000
vn -0.9808 -0.1951 0.0000
vn 1.0000 0.0000 0.0000
vn -0.0000 0.0000 1.0000
vn 0.9998 0.0000 0.0216
vn 0.0001 0.0000 1.0000
vn -0.0001 0.0000 1.0000
vn 0.1951 0.0000 0.9808
vn 0.5555 0.0000 0.8315
vn 0.5556 0.0000 0.8315
vn 0.8315 0.0000 0.5555
vn 0.8315 0.0000 0.5556
vn 0.9808 0.0000 0.1951
vn 0.9808 -0.0000 0.1952
vn 0.0000 0.9808 0.1951
vn 0.0000 0.8315 0.5556
vn 0.0000 0.5556 0.8315
vn 0.0000 0.1951 0.9808
vn -0.1951 0.0000 0.9808
vn -0.5555 0.0000 0.8315
vn -0.5556 0.0000 0.8315
vn -0.8315 0.0000 0.5555
vn -0.8315 0.0000 0.5556
vn -0.9808 0.0000 0.1950
vn -0.9808 0.0000 0.1952
vn -0.0381 -0.1914 0.9808
vn -0.1084 -0.5449 0.8315
vn -0.1085 -0.5449 0.8314
vn -0.1623 -0.8154 0.5557
vn -0.1623 -0.8154 0.5556
vn -0.1914 -0.9620 0.1949
vn -0.1914 -0.9619 0.1952
vn -0.1084 -0.1622 0.9808
vn -0.3087 -0.4619 0.8315
vn -0.3087 -0.4621 0.8314
vn -0.4619 -0.6915 0.5554
vn -0.4619 -0.6913 0.5557
vn -0.5449 -0.8155 0.1951
vn -0.5450 -0.8155 0.1950
vn -0.1623 -0.1084 0.9808
vn -0.4617 -0.3086 0.8316
vn -0.4620 -0.3086 0.8314
vn -0.6914 -0.4619 0.5555
vn -0.6913 -0.4619 0.5556
vn -0.8155 -0.5450 0.1950
vn -0.8155 -0.5449 0.1951
vn -0.1913 -0.0380 0.9808
vn -0.1914 -0.0381 0.9808
vn -0.5448 -0.1085 0.8315
vn -0.5448 -0.1083 0.8315
vn -0.8155 -0.1622 0.5556
vn -0.8156 -0.1622 0.5555
vn -0.9619 -0.1914 0.1953
vn -0.9620 -0.1913 0.1951
vn 0.1913 -0.0380 0.9808
vn 0.1914 -0.0381 0.9808
vn 0.5449 -0.1084 0.8315
vn 0.5448 -0.1084 0.8315
vn 0.8155 -0.1623 0.5556
vn 0.8155 -0.1622 0.5555
vn 0.9619 -0.1914 0.1950
vn 0.9620 -0.1913 0.1951
vn 0.1622 -0.1084 0.9808
vn 0.4619 -0.3087 0.8315
vn 0.6914 -0.4620 0.5554
vn 0.6914 -0.4619 0.5556
vn 0.8155 -0.5449 0.1951
vn 0.8155 -0.5449 0.1952
vn 0.1084 -0.1622 0.9808
vn 0.1084 -0.1623 0.9808
vn 0.3087 -0.4618 0.8315
vn 0.3087 -0.4619 0.8315
vn 0.4619 -0.6913 0.5557
vn 0.4619 -0.6914 0.5555
vn 0.5449 -0.8155 0.1950
vn 0.5449 -0.8155 0.1953
vn 0.0381 -0.1913 0.9808
vn 0.0381 -0.1914 0.9808
vn 0.1085 -0.5449 0.8315
vn 0.1084 -0.5448 0.8315
vn 0.1623 -0.8155 0.5556
vn 0.1624 -0.8156 0.5553
vn 0.1915 -0.9619 0.1954
vn 0.1914 -0.9620 0.1949
vn -0.0000 -0.1951 0.9808
vn -0.0000 -0.1950 0.9808
vn -0.0000 -0.5555 0.8315
vn -0.0000 -0.5556 0.8314
vn -0.0000 -0.8316 0.5554
vn -0.0000 -0.8313 0.5558
vn -0.0000 -0.9808 0.1948
vn -0.0000 -0.9808 0.1952
vn 0.0000 0.5556 0.8314
vn 0.0000 0.8314 0.5557
vn 0.0000 0.8315 0.5555
usemtl Kbdnatf
s off
f 1//1 2//1 3//1
f 3//1 4//1 5//1
f 5//1 6//1 7//1
f 7//1 8//1 9//1
f 9//1 10//1 11//1
f 11//1 12//1 1//1
f 1//1 3//1 5//1
f 5//1 7//1 9//1
f 9//1 11//1 1//1
f 5//1 9//1 1//1
f 13//2 3//2 2//2
f 2//2 14//2 13//2
f 15//3 14//3 2//3
f 2//3 16//3 17//3
f 18//3 15//3 2//3
f 2//3 17//3 18//3
f 11//4 19//4 20//4
f 20//5 12//5 11//5
f 7//6 21//6 22//6
f 22//6 8//6 7//6
f 10//7 23//7 19//7
f 19//8 11//8 10//8
f 8//2 22//2 24//2
f 24//2 9//2 8//2
f 17//9 25//9 26//9
f 26//9 15//9 18//9
f 26//9 18//9 17//9
f 6//10 27//10 21//10
f 21//11 7//11 6//11
f 28//9 29//9 30//9
f 30//9 31//9 28//9
f 5//12 32//12 27//12
f 27//12 6//12 5//12
f 4//13 33//13 32//13
f 32//13 5//13 4//13
f 9//14 24//14 23//14
f 23//14 10//14 9//14
f 16//3 2//3 1//3
f 1//3 34//3 16//3
f 12//15 20//15 34//15
f 34//16 1//16 12//16
f 15//1 26//1 28//1
f 28//1 31//1 13//1
f 14//1 15//1 28//1
f 28//1 13//1 14//1
f 29//17 28//17 26//17
f 26//17 25//17 29//17
f 35//18 36//18 37//18
f 37//18 38//18 39//18
f 39//19 40//19 41//19
f 41//20 42//20 43//20
f 43//18 44//18 45//18
f 45//18 46//18 47//18
f 47//21 48//21 49//21
f 49//18 50//18 35//18
f 37//18 39//18 41//18
f 49//18 35//18 37//18
f 45//18 47//18 49//18
f 41//18 43//18 45//18
f 49//18 37//18 41//18
f 41//18 45//18 49//18
f 3//17 51//17 33//17
f 33//17 4//17 3//17
f 36//22 35//22 52//22
f 52//22 53//22 36//22
f 53//23 52//23 54//23
f 54//24 55//24 53//24
f 55//25 54//25 56//25
f 56//26 57//26 55//26
f 57//27 56//27 51//27
f 51//28 30//28 57//28
f 25//29 17//29 58//29
f 58//29 59//29 25//29
f 59//30 58//30 60//30
f 60//30 61//30 59//30
f 61//31 60//31 62//31
f 62//31 63//31 61//31
f 63//32 62//32 39//32
f 39//32 38//32 63//32
f 40//33 39//33 62//33
f 62//33 64//33 40//33
f 64//34 62//34 60//34
f 60//35 65//35 64//35
f 65//36 60//36 58//36
f 58//37 66//37 65//37
f 66//38 58//38 17//38
f 17//39 16//39 66//39
f 45//40 44//40 67//40
f 67//40 68//40 45//40
f 68//41 67//41 69//41
f 69//42 70//42 68//42
f 70//43 69//43 71//43
f 71//44 72//44 70//44
f 72//45 71//45 23//45
f 23//46 24//46 72//46
f 44//47 43//47 73//47
f 73//47 67//47 44//47
f 67//48 73//48 74//48
f 74//49 69//49 67//49
f 69//50 74//50 75//50
f 75//51 71//51 69//51
f 71//52 75//52 19//52
f 19//53 23//53 71//53
f 43//54 42//54 76//54
f 76//54 73//54 43//54
f 73//55 76//55 77//55
f 77//56 74//56 73//56
f 74//57 77//57 78//57
f 78//58 75//58 74//58
f 75//59 78//59 20//59
f 20//60 19//60 75//60
f 42//61 41//61 79//61
f 79//62 76//62 42//62
f 76//63 79//63 80//63
f 80//64 77//64 76//64
f 77//65 80//65 81//65
f 81//66 78//66 77//66
f 78//67 81//67 34//67
f 34//68 20//68 78//68
f 41//33 40//33 64//33
f 64//33 79//33 41//33
f 79//35 64//35 65//35
f 65//35 80//35 79//35
f 80//37 65//37 66//37
f 66//36 81//36 80//36
f 81//39 66//39 16//39
f 16//39 34//39 81//39
f 50//69 49//69 82//69
f 82//70 83//70 50//70
f 83//71 82//71 84//71
f 84//72 85//72 83//72
f 85//73 84//73 86//73
f 86//74 87//74 85//74
f 87//75 86//75 32//75
f 32//76 33//76 87//76
f 49//77 48//77 88//77
f 88//77 82//77 49//77
f 82//78 88//78 89//78
f 89//78 84//78 82//78
f 84//79 89//79 90//79
f 90//80 86//80 84//80
f 86//81 90//81 27//81
f 27//82 32//82 86//82
f 48//83 47//83 91//83
f 91//84 88//84 48//84
f 88//85 91//85 92//85
f 92//86 89//86 88//86
f 89//87 92//87 93//87
f 93//88 90//88 89//88
f 90//89 93//89 21//89
f 21//90 27//90 90//90
f 47//91 46//91 94//91
f 94//92 91//92 47//92
f 91//93 94//93 95//93
f 95//94 92//94 91//94
f 92//95 95//95 96//95
f 96//96 93//96 92//96
f 93//97 96//97 22//97
f 22//98 21//98 93//98
f 46//99 45//99 68//99
f 68//100 94//100 46//100
f 94//101 68//101 70//101
f 70//102 95//102 94//102
f 95//103 70//103 72//103
f 72//104 96//104 95//104
f 96//105 72//105 24//105
f 24//106 22//106 96//106
f 35//22 50//22 83//22
f 83//22 52//22 35//22
f 52//23 83//23 85//23
f 85//24 54//24 52//24
f 54//25 85//25 87//25
f 87//25 56//25 54//25
f 56//27 87//27 33//27
f 33//27 51//27 56//27
f 37//32 36//32 53//32
f 53//32 97//32 37//32
f 97//107 53//107 55//107
f 55//107 98//107 97//107
f 98//108 55//108 57//108
f 57//109 99//109 98//109
f 99//29 57//29 30//29
f 30//29 29//29 99//29
f 29//28 25//28 59//28
f 59//28 99//28 29//28
f 99//25 59//25 61//25
f 61//25 98//25 99//25
f 98//24 61//24 63//24
f 63//24 97//24 98//24
f 97//22 63//22 38//22
f 38//22 37//22 97//22
f 13//17 31//17 30//17
f 30//17 51//17 3//17
f 30//17 3//17 13//17
