# Blender v2.90.0 OBJ File: 'convert2obj.blend'
# www.blender.org
mtllib Kbdnata.mtl
o Kbdnata
v 1.114620 -1.066918 0.174813
v 1.114620 -1.061082 0.174813
v 1.268132 -1.061082 0.174813
v 1.268132 -1.066918 0.174813
v 1.267853 -1.068321 0.174813
v 1.267058 -1.069510 0.174813
v 1.265869 -1.070305 0.174813
v 1.264466 -1.070584 0.174813
v 1.118286 -1.070584 0.174813
v 1.116883 -1.070304 0.174813
v 1.115693 -1.069510 0.174813
v 1.114899 -1.068321 0.174813
v 1.268132 -1.061082 0.000000
v 1.114620 -1.061082 0.000000
v 1.114620 -0.707713 0.000000
v 1.114620 -1.061082 0.181466
v 1.114620 -0.707712 0.181466
v 1.115693 -1.069510 0.181466
v 1.114899 -1.068321 0.181466
v 1.265869 -1.070305 0.181466
v 1.264466 -1.070584 0.181466
v 1.116883 -1.070304 0.181466
v 1.118286 -1.070584 0.181466
v 1.114620 -1.066918 0.181466
v 1.267058 -1.069510 0.181466
v 1.159581 -0.707712 0.181466
v 1.159581 -0.707712 0.000000
v 1.267853 -1.068321 0.181466
v 1.268132 -1.066918 0.181466
v 1.250726 -0.000183 0.181466
v 1.250726 -0.000183 0.000000
v 1.159581 -0.000183 0.000000
v 1.159581 -0.000183 0.181466
v 1.250726 -0.707712 0.000000
v 1.250726 -0.707712 0.181466
v 1.268132 -0.707712 0.181466
v 1.268132 -0.707712 0.000000
v 1.266299 -1.061082 0.183299
v 1.266299 -0.709545 0.183299
v 1.248893 -0.709545 0.183299
v 1.248893 -0.002016 0.183299
v 1.161414 -0.002016 0.183299
v 1.161414 -0.709545 0.183299
v 1.116453 -0.709545 0.183299
v 1.116453 -1.061082 0.183299
v 1.266299 -1.066737 0.183299
v 1.265737 -1.068188 0.183299
v 1.266126 -1.067605 0.183299
v 1.264286 -1.068751 0.183299
v 1.265154 -1.068578 0.183299
v 1.117598 -1.068578 0.183299
v 1.118466 -1.068751 0.183299
v 1.116625 -1.067605 0.183299
v 1.117015 -1.068188 0.183299
v 1.116453 -1.066737 0.183299
v 1.268132 -1.061082 0.181466
v 1.267000 -1.061082 0.183159
v 1.267001 -0.708844 0.183159
v 1.267595 -1.061082 0.182762
v 1.267595 -0.708249 0.182762
v 1.267992 -1.061082 0.182167
v 1.267992 -0.707852 0.182167
v 1.117324 -1.069239 0.183159
v 1.118397 -1.069452 0.183159
v 1.117092 -1.069799 0.182762
v 1.118338 -1.070047 0.182762
v 1.116937 -1.070173 0.182167
v 1.118299 -1.070444 0.182167
v 1.116509 -1.068694 0.183159
v 1.116080 -1.069123 0.182762
v 1.115794 -1.069409 0.182167
v 1.115965 -1.067879 0.183159
v 1.115404 -1.068111 0.182762
v 1.115030 -1.068266 0.182167
v 1.115751 -1.066806 0.183159
v 1.115157 -1.066865 0.182762
v 1.114759 -1.066904 0.182167
v 1.115751 -1.061082 0.183159
v 1.115157 -1.061082 0.182762
v 1.114759 -1.061082 0.182167
v 1.266787 -1.067879 0.183159
v 1.267000 -1.066806 0.183159
v 1.267347 -1.068111 0.182762
v 1.267595 -1.066865 0.182762
v 1.267722 -1.068266 0.182167
v 1.267992 -1.066904 0.182167
v 1.266243 -1.068694 0.183159
v 1.266671 -1.069123 0.182762
v 1.266958 -1.069409 0.182167
v 1.265427 -1.069239 0.183159
v 1.265659 -1.069799 0.182762
v 1.265815 -1.070173 0.182167
v 1.264355 -1.069452 0.183159
v 1.264413 -1.070047 0.182762
v 1.264452 -1.070444 0.182167
v 1.114759 -0.707852 0.182167
v 1.159721 -0.707852 0.182167
v 1.115157 -0.708249 0.182762
v 1.160118 -0.708249 0.182762
v 1.115751 -0.708844 0.183159
v 1.160713 -0.708844 0.183159
v 1.160713 -0.001314 0.183159
v 1.160118 -0.000720 0.182762
v 1.159721 -0.000322 0.182167
v 1.250587 -0.000322 0.182167
v 1.250189 -0.000720 0.182762
v 1.249595 -0.001314 0.183159
v 1.249594 -0.708844 0.183159
v 1.250189 -0.708249 0.182762
v 1.250587 -0.707852 0.182167
vn 0.0000 0.0000 -1.0000
vn -0.0000 -1.0000 -0.0000
vn -1.0000 0.0000 0.0000
vn -0.8314 -0.5556 0.0000
vn 0.1952 -0.9808 0.0000
vn -0.5555 -0.8315 0.0000
vn -0.5556 -0.8314 0.0000
vn -0.9808 -0.1951 0.0000
vn 0.5556 -0.8315 0.0000
vn -0.0000 1.0000 0.0000
vn 0.8315 -0.5555 0.0000
vn 0.8314 -0.5556 0.0000
vn 0.9808 -0.1951 0.0000
vn -0.1952 -0.9808 0.0000
vn 1.0000 0.0000 0.0000
vn -0.0000 0.0000 1.0000
vn -0.0001 0.0000 1.0000
vn 0.0001 0.0000 1.0000
vn 0.1951 0.0000 0.9808
vn 0.5555 -0.0000 0.8315
vn 0.5556 0.0000 0.8315
vn 0.8315 0.0000 0.5555
vn 0.8315 0.0000 0.5556
vn 0.9808 0.0000 0.1950
vn 0.9808 -0.0000 0.1952
vn -0.0381 -0.1914 0.9808
vn -0.0381 -0.1913 0.9808
vn -0.1084 -0.5449 0.8315
vn -0.1085 -0.5450 0.8314
vn -0.1623 -0.8154 0.5557
vn -0.1623 -0.8155 0.5556
vn -0.1915 -0.9620 0.1949
vn -0.1914 -0.9619 0.1950
vn -0.1084 -0.1622 0.9808
vn -0.3087 -0.4619 0.8315
vn -0.3086 -0.4620 0.8314
vn -0.4620 -0.6914 0.5554
vn -0.4619 -0.6913 0.5556
vn -0.5450 -0.8154 0.1952
vn -0.5449 -0.8156 0.1949
vn -0.1623 -0.1084 0.9808
vn -0.4618 -0.3085 0.8316
vn -0.4620 -0.3086 0.8314
vn -0.6914 -0.4620 0.5554
vn -0.6912 -0.4619 0.5557
vn -0.8155 -0.5450 0.1949
vn -0.8155 -0.5449 0.1951
vn -0.1914 -0.0381 0.9808
vn -0.1914 -0.0380 0.9808
vn -0.5448 -0.1084 0.8315
vn -0.5449 -0.1084 0.8315
vn -0.8154 -0.1623 0.5556
vn -0.8155 -0.1622 0.5555
vn -0.9619 -0.1913 0.1952
vn -0.9619 -0.1914 0.1950
vn -0.1951 0.0000 0.9808
vn -0.5556 0.0000 0.8315
vn -0.8315 0.0000 0.5556
vn -0.8315 0.0000 0.5555
vn -0.9808 0.0000 0.1952
vn 0.1913 -0.0381 0.9808
vn 0.1914 -0.0381 0.9808
vn 0.5449 -0.1083 0.8315
vn 0.5448 -0.1084 0.8315
vn 0.8155 -0.1623 0.5556
vn 0.8155 -0.1622 0.5555
vn 0.9620 -0.1913 0.1950
vn 0.9619 -0.1914 0.1950
vn 0.1622 -0.1084 0.9808
vn 0.1623 -0.1084 0.9808
vn 0.4619 -0.3088 0.8314
vn 0.4619 -0.3086 0.8315
vn 0.6914 -0.4620 0.5555
vn 0.6914 -0.4619 0.5556
vn 0.8155 -0.5449 0.1951
vn 0.8155 -0.5449 0.1952
vn 0.1084 -0.1622 0.9808
vn 0.1084 -0.1623 0.9808
vn 0.3087 -0.4619 0.8315
vn 0.3086 -0.4619 0.8315
vn 0.4620 -0.6913 0.5556
vn 0.4619 -0.6914 0.5556
vn 0.5449 -0.8155 0.1950
vn 0.5448 -0.8155 0.1951
vn 0.0381 -0.1914 0.9808
vn 0.0381 -0.1913 0.9808
vn 0.1085 -0.5448 0.8315
vn 0.1084 -0.5448 0.8315
vn 0.1623 -0.8155 0.5556
vn 0.1624 -0.8156 0.5553
vn 0.1915 -0.9619 0.1954
vn 0.1914 -0.9620 0.1949
vn -0.0000 -0.1951 0.9808
vn -0.0000 -0.1950 0.9808
vn -0.0000 -0.5554 0.8316
vn -0.0000 -0.5556 0.8314
vn -0.0000 -0.8316 0.5554
vn -0.0000 -0.8313 0.5558
vn -0.0000 -0.9808 0.1951
vn -0.0000 -0.9808 0.1950
vn 0.0000 0.9808 0.1951
vn 0.0000 0.8314 0.5557
vn 0.0000 0.8315 0.5555
vn 0.0000 0.5556 0.8315
vn 0.0000 0.5556 0.8314
vn 0.0000 0.1951 0.9808
vn -0.1952 0.0000 0.9808
vn -0.5555 0.0000 0.8315
vn -0.9808 0.0000 0.1950
vn 0.0000 0.8315 0.5556
vn -0.0000 0.9808 0.1952
usemtl Kbdnata
s off
f 1//1 2//1 3//1
f 3//1 4//1 5//1
f 5//1 6//1 7//1
f 7//1 8//1 9//1
f 9//1 10//1 11//1
f 11//1 12//1 1//1
f 1//1 3//1 5//1
f 5//1 7//1 9//1
f 9//1 11//1 1//1
f 5//1 9//1 1//1
f 13//2 3//2 2//2
f 2//2 14//2 13//2
f 15//3 14//3 2//3
f 2//3 16//3 17//3
f 2//3 17//3 15//3
f 11//4 18//4 19//4
f 19//4 12//4 11//4
f 7//5 20//5 21//5
f 21//5 8//5 7//5
f 10//6 22//6 18//6
f 18//7 11//7 10//7
f 8//2 21//2 23//2
f 23//2 9//2 8//2
f 12//8 19//8 24//8
f 24//8 1//8 12//8
f 6//9 25//9 20//9
f 20//9 7//9 6//9
f 26//10 27//10 15//10
f 15//10 17//10 26//10
f 5//11 28//11 25//11
f 25//12 6//12 5//12
f 4//13 29//13 28//13
f 28//13 5//13 4//13
f 9//14 23//14 22//14
f 22//14 10//14 9//14
f 16//3 2//3 1//3
f 1//3 24//3 16//3
f 30//10 31//10 32//10
f 32//10 33//10 30//10
f 27//3 26//3 33//3
f 33//3 32//3 27//3
f 34//10 35//10 36//10
f 36//10 37//10 34//10
f 32//1 31//1 34//1
f 34//1 37//1 13//1
f 13//1 14//1 15//1
f 27//1 32//1 34//1
f 13//1 15//1 27//1
f 34//1 13//1 27//1
f 35//15 34//15 31//15
f 31//15 30//15 35//15
f 38//16 39//16 40//16
f 40//16 41//16 42//16
f 43//16 44//16 45//16
f 40//16 42//16 43//16
f 46//16 38//16 40//16
f 47//16 48//16 46//16
f 49//17 50//17 47//17
f 51//16 52//16 49//16
f 53//18 54//18 51//18
f 45//17 55//17 53//17
f 40//16 43//16 45//16
f 47//16 46//16 40//16
f 51//16 49//16 47//16
f 45//16 53//16 51//16
f 47//16 40//16 45//16
f 45//16 51//16 47//16
f 3//15 56//15 29//15
f 29//15 4//15 3//15
f 39//19 38//19 57//19
f 57//19 58//19 39//19
f 58//20 57//20 59//20
f 59//21 60//21 58//21
f 60//22 59//22 61//22
f 61//23 62//23 60//23
f 62//24 61//24 56//24
f 56//25 36//25 62//25
f 52//26 51//26 63//26
f 63//27 64//27 52//27
f 64//28 63//28 65//28
f 65//29 66//29 64//29
f 66//30 65//30 67//30
f 67//31 68//31 66//31
f 68//32 67//32 22//32
f 22//33 23//33 68//33
f 51//34 54//34 69//34
f 69//34 63//34 51//34
f 63//35 69//35 70//35
f 70//36 65//36 63//36
f 65//37 70//37 71//37
f 71//38 67//38 65//38
f 67//39 71//39 18//39
f 18//40 22//40 67//40
f 54//41 53//41 72//41
f 72//41 69//41 54//41
f 69//42 72//42 73//42
f 73//43 70//43 69//43
f 70//44 73//44 74//44
f 74//45 71//45 70//45
f 71//46 74//46 19//46
f 19//47 18//47 71//47
f 53//48 55//48 75//48
f 75//49 72//49 53//49
f 72//50 75//50 76//50
f 76//51 73//51 72//51
f 73//52 76//52 77//52
f 77//53 74//53 73//53
f 74//54 77//54 24//54
f 24//55 19//55 74//55
f 55//56 45//56 78//56
f 78//56 75//56 55//56
f 75//57 78//57 79//57
f 79//57 76//57 75//57
f 76//58 79//58 80//58
f 80//59 77//59 76//59
f 77//60 80//60 16//60
f 16//60 24//60 77//60
f 46//61 48//61 81//61
f 81//62 82//62 46//62
f 82//63 81//63 83//63
f 83//64 84//64 82//64
f 84//65 83//65 85//65
f 85//66 86//66 84//66
f 86//67 85//67 28//67
f 28//68 29//68 86//68
f 48//69 47//69 87//69
f 87//70 81//70 48//70
f 81//71 87//71 88//71
f 88//72 83//72 81//72
f 83//73 88//73 89//73
f 89//74 85//74 83//74
f 85//75 89//75 25//75
f 25//76 28//76 85//76
f 47//77 50//77 90//77
f 90//78 87//78 47//78
f 87//79 90//79 91//79
f 91//80 88//80 87//80
f 88//81 91//81 92//81
f 92//82 89//82 88//82
f 89//83 92//83 20//83
f 20//84 25//84 89//84
f 50//85 49//85 93//85
f 93//86 90//86 50//86
f 90//87 93//87 94//87
f 94//88 91//88 90//88
f 91//89 94//89 95//89
f 95//90 92//90 91//90
f 92//91 95//91 21//91
f 21//92 20//92 92//92
f 49//93 52//93 64//93
f 64//94 93//94 49//94
f 93//95 64//95 66//95
f 66//96 94//96 93//96
f 94//97 66//97 68//97
f 68//98 95//98 94//98
f 95//99 68//99 23//99
f 23//100 21//100 95//100
f 38//19 46//19 82//19
f 82//19 57//19 38//19
f 57//20 82//20 84//20
f 84//20 59//20 57//20
f 59//22 84//22 86//22
f 86//22 61//22 59//22
f 61//24 86//24 29//24
f 29//24 56//24 61//24
f 26//101 17//101 96//101
f 96//101 97//101 26//101
f 97//102 96//102 98//102
f 98//103 99//103 97//103
f 99//104 98//104 100//104
f 100//105 101//105 99//105
f 101//106 100//106 44//106
f 44//106 43//106 101//106
f 43//56 42//56 102//56
f 102//107 101//107 43//107
f 101//108 102//108 103//108
f 103//108 99//108 101//108
f 99//58 103//58 104//58
f 104//59 97//59 99//59
f 97//109 104//109 33//109
f 33//60 26//60 97//60
f 45//56 44//56 100//56
f 100//56 78//56 45//56
f 78//57 100//57 98//57
f 98//57 79//57 78//57
f 79//59 98//59 96//59
f 96//58 80//58 79//58
f 80//60 96//60 17//60
f 17//60 16//60 80//60
f 30//101 33//101 104//101
f 104//101 105//101 30//101
f 105//110 104//110 103//110
f 103//110 106//110 105//110
f 106//104 103//104 102//104
f 102//104 107//104 106//104
f 107//106 102//106 42//106
f 42//106 41//106 107//106
f 40//106 39//106 58//106
f 58//106 108//106 40//106
f 108//104 58//104 60//104
f 60//104 109//104 108//104
f 109//103 60//103 62//103
f 62//103 110//103 109//103
f 110//101 62//101 36//101
f 36//111 35//111 110//111
f 35//25 30//25 105//25
f 105//25 110//25 35//25
f 110//22 105//22 106//22
f 106//23 109//23 110//23
f 109//21 106//21 107//21
f 107//20 108//20 109//20
f 108//19 107//19 41//19
f 41//19 40//19 108//19
f 13//15 37//15 36//15
f 36//15 56//15 3//15
f 36//15 3//15 13//15
