# Blender v2.90.0 OBJ File: 'convert2obj.blend'
# www.blender.org
mtllib Kbdsharpd.mtl
o Kbdsharpd
v 0.679761 -0.003385 0.276090
v 0.624706 -0.003385 0.276090
v 0.624706 -0.660740 0.276090
v 0.679761 -0.660740 0.276090
v 0.699292 -0.003385 0.005195
v 0.699292 -0.003385 0.171395
v 0.699292 -0.696786 0.171395
v 0.699292 -0.696786 0.005195
v 0.605970 -0.694623 0.181147
v 0.620933 -0.662037 0.271304
v 0.620933 -0.003385 0.271304
v 0.605970 -0.003385 0.181147
v 0.696313 -0.700030 0.005195
v 0.696313 -0.700030 0.171395
v 0.608155 -0.700030 0.171395
v 0.608155 -0.700030 0.005195
v 0.608155 -0.000141 0.005195
v 0.608155 -0.000141 0.171395
v 0.696313 -0.000141 0.171395
v 0.696313 -0.000141 0.005195
v 0.695506 -0.698459 0.180706
v 0.680396 -0.665555 0.271745
v 0.624071 -0.665555 0.271745
v 0.608962 -0.698459 0.180706
v 0.698498 -0.003385 0.181147
v 0.683535 -0.003385 0.271304
v 0.683535 -0.662037 0.271304
v 0.698498 -0.694623 0.181147
v 0.609091 -0.000141 0.181326
v 0.623994 -0.000141 0.271124
v 0.680474 -0.000141 0.271124
v 0.695377 -0.000141 0.181326
v 0.608155 -0.003385 0.000230
v 0.696313 -0.003385 0.000230
v 0.696313 -0.696786 0.000230
v 0.608155 -0.696786 0.000230
v 0.605175 -0.696786 0.005195
v 0.605573 -0.696786 0.002716
v 0.605960 -0.698337 0.002821
v 0.605573 -0.698406 0.005195
v 0.606667 -0.696786 0.000893
v 0.606730 -0.698337 0.001538
v 0.608155 -0.698406 0.000893
v 0.608155 -0.699596 0.002716
v 0.606730 -0.699175 0.002821
v 0.606667 -0.699596 0.005195
v 0.624273 -0.664310 0.273868
v 0.622865 -0.663935 0.274035
v 0.622639 -0.664859 0.272164
v 0.624504 -0.662556 0.275451
v 0.623022 -0.662761 0.275058
v 0.623131 -0.661153 0.275385
v 0.621760 -0.661624 0.273646
v 0.622076 -0.663088 0.273964
v 0.621502 -0.663586 0.272005
v 0.606667 -0.003385 0.000893
v 0.606730 -0.001833 0.001538
v 0.608155 -0.001765 0.000893
v 0.605573 -0.003385 0.002716
v 0.605960 -0.001833 0.002821
v 0.605175 -0.003385 0.005195
v 0.605573 -0.001765 0.005195
v 0.606667 -0.000574 0.005195
v 0.606730 -0.000995 0.002821
v 0.608155 -0.000574 0.002716
v 0.621712 -0.003385 0.273727
v 0.622108 -0.001833 0.273569
v 0.621357 -0.001765 0.271247
v 0.623097 -0.003385 0.275483
v 0.623083 -0.001833 0.274806
v 0.624626 -0.001765 0.275394
v 0.624364 -0.000574 0.273571
v 0.622899 -0.000995 0.273523
v 0.622480 -0.000574 0.271181
v 0.697801 -0.696786 0.000893
v 0.697738 -0.698337 0.001538
v 0.696313 -0.698406 0.000893
v 0.698894 -0.696786 0.002716
v 0.698508 -0.698337 0.002821
v 0.698894 -0.698406 0.005195
v 0.697801 -0.699596 0.005195
v 0.697738 -0.699175 0.002821
v 0.696313 -0.699596 0.002716
v 0.682707 -0.661624 0.273646
v 0.682391 -0.663088 0.273964
v 0.682965 -0.663586 0.272005
v 0.681336 -0.661153 0.275384
v 0.681446 -0.662761 0.275058
v 0.679963 -0.662556 0.275451
v 0.680194 -0.664310 0.273868
v 0.681603 -0.663935 0.274035
v 0.681829 -0.664859 0.272164
v 0.696313 -0.001765 0.000893
v 0.697738 -0.001833 0.001538
v 0.697801 -0.003385 0.000893
v 0.696313 -0.000574 0.002716
v 0.697738 -0.000995 0.002821
v 0.697801 -0.000574 0.005195
v 0.698894 -0.001765 0.005195
v 0.698508 -0.001833 0.002821
v 0.698894 -0.003385 0.002716
v 0.680103 -0.000574 0.273571
v 0.681568 -0.000995 0.273523
v 0.681987 -0.000574 0.271181
v 0.679841 -0.001765 0.275394
v 0.681384 -0.001833 0.274806
v 0.681370 -0.003385 0.275483
v 0.682755 -0.003385 0.273727
v 0.682360 -0.001833 0.273569
v 0.683111 -0.001765 0.271247
v 0.605582 -0.695309 0.178086
v 0.606000 -0.697382 0.178086
v 0.606492 -0.696273 0.181566
v 0.605291 -0.696100 0.174517
v 0.605706 -0.698091 0.174661
v 0.605175 -0.696786 0.171395
v 0.605617 -0.698378 0.171395
v 0.606692 -0.699548 0.171395
v 0.606743 -0.699321 0.174637
v 0.608411 -0.699800 0.174454
v 0.608706 -0.699225 0.177859
v 0.607043 -0.698685 0.178010
v 0.607576 -0.697663 0.181406
v 0.605175 -0.003385 0.171395
v 0.605291 -0.003385 0.174518
v 0.605704 -0.001672 0.174664
v 0.605617 -0.001793 0.171395
v 0.605582 -0.003385 0.178086
v 0.605994 -0.001673 0.178053
v 0.606475 -0.001793 0.181431
v 0.607602 -0.000622 0.181496
v 0.607009 -0.000590 0.177994
v 0.608632 -0.000141 0.177929
v 0.608290 -0.000141 0.174294
v 0.606704 -0.000591 0.174584
v 0.606692 -0.000622 0.171395
v 0.696177 -0.000141 0.174294
v 0.697763 -0.000591 0.174584
v 0.697775 -0.000622 0.171395
v 0.695836 -0.000141 0.177929
v 0.697458 -0.000590 0.177994
v 0.696866 -0.000622 0.181496
v 0.697992 -0.001793 0.181431
v 0.698473 -0.001673 0.178053
v 0.698885 -0.003385 0.178086
v 0.699176 -0.003385 0.174518
v 0.698764 -0.001672 0.174664
v 0.698850 -0.001793 0.171395
v 0.699176 -0.696100 0.174517
v 0.698761 -0.698091 0.174661
v 0.698850 -0.698378 0.171395
v 0.698885 -0.695309 0.178086
v 0.698468 -0.697382 0.178086
v 0.697975 -0.696273 0.181566
v 0.696891 -0.697663 0.181406
v 0.697425 -0.698685 0.178010
v 0.695762 -0.699225 0.177859
v 0.696057 -0.699800 0.174454
v 0.697724 -0.699321 0.174637
v 0.697775 -0.699548 0.171395
vn 0.0000 0.0000 1.0000
vn 1.0000 0.0000 0.0000
vn -0.9865 0.0000 0.1637
vn 0.0000 -1.0000 0.0000
vn 0.0000 1.0000 0.0000
vn 0.0000 -0.9405 0.3399
vn 0.9865 0.0000 0.1637
vn 0.0000 0.0000 -1.0000
vn -0.9563 -0.2487 -0.1535
vn -0.9582 -0.2354 -0.1628
vn -0.8322 -0.2412 -0.4993
vn -0.8322 -0.2411 -0.4993
vn -0.4003 -0.3473 -0.8480
vn -0.3786 -0.3681 -0.8492
vn -0.2764 -0.8046 -0.5256
vn -0.2754 -0.9453 -0.1748
vn -0.2906 -0.9425 -0.1648
vn -0.7295 -0.6699 -0.1381
vn -0.6737 -0.6187 -0.4042
vn -0.1648 -0.8441 0.5102
vn -0.2786 -0.8471 0.4525
vn -0.1067 -0.6583 0.7451
vn -0.0834 -0.6484 0.7567
vn -0.3679 -0.1609 0.9158
vn -0.2048 -0.3044 0.9303
vn -0.7805 -0.0328 0.6243
vn -0.7413 -0.0848 0.6658
vn -0.9266 -0.1955 0.3212
vn -0.9284 -0.1243 0.3501
vn -0.7138 -0.5897 0.3778
vn -0.6973 -0.6188 0.3617
vn -0.5829 -0.4882 0.6495
vn -0.3787 0.3681 -0.8492
vn -0.4003 0.3473 -0.8480
vn -0.8322 0.2411 -0.4993
vn -0.9582 0.2355 -0.1628
vn -0.9563 0.2487 -0.1535
vn -0.7295 0.6698 -0.1381
vn -0.7294 0.6700 -0.1381
vn -0.2906 0.9425 -0.1647
vn -0.2754 0.9453 -0.1749
vn -0.2764 0.8045 -0.5256
vn -0.2765 0.8045 -0.5256
vn -0.6737 0.6187 -0.4042
vn -0.9181 0.2642 0.2955
vn -0.9187 0.2512 0.3047
vn -0.7594 0.2545 0.5988
vn -0.3465 0.3559 0.8679
vn -0.3269 0.3757 0.8672
vn -0.2466 0.7948 0.5546
vn -0.2466 0.7947 0.5546
vn -0.2613 0.9408 0.2159
vn -0.2764 0.9383 0.2081
vn -0.6982 0.6724 0.2458
vn -0.6981 0.6725 0.2458
vn -0.6206 0.6127 0.4893
vn 0.3787 -0.3681 -0.8492
vn 0.4003 -0.3473 -0.8480
vn 0.8322 -0.2412 -0.4993
vn 0.8322 -0.2412 -0.4994
vn 0.9582 -0.2355 -0.1628
vn 0.9563 -0.2487 -0.1535
vn 0.7295 -0.6699 -0.1381
vn 0.2906 -0.9425 -0.1648
vn 0.2754 -0.9453 -0.1748
vn 0.2764 -0.8045 -0.5257
vn 0.2764 -0.8046 -0.5256
vn 0.6736 -0.6187 -0.4042
vn 0.9284 -0.1244 0.3501
vn 0.9266 -0.1953 0.3212
vn 0.7730 -0.0753 0.6299
vn 0.7535 -0.0198 0.6571
vn 0.2048 -0.3043 0.9303
vn 0.3680 -0.1610 0.9158
vn 0.0881 -0.6609 0.7453
vn 0.1118 -0.6444 0.7564
vn 0.2786 -0.8471 0.4525
vn 0.1648 -0.8441 0.5103
vn 0.7176 -0.5952 0.3616
vn 0.6912 -0.6112 0.3857
vn 0.5829 -0.4882 0.6495
vn 0.4003 0.3473 -0.8480
vn 0.3787 0.3681 -0.8492
vn 0.2765 0.8045 -0.5256
vn 0.2764 0.8045 -0.5256
vn 0.2753 0.9453 -0.1749
vn 0.2907 0.9425 -0.1648
vn 0.7295 0.6699 -0.1381
vn 0.9563 0.2487 -0.1535
vn 0.9582 0.2355 -0.1628
vn 0.8322 0.2412 -0.4993
vn 0.8322 0.2411 -0.4993
vn 0.6736 0.6187 -0.4042
vn 0.2764 0.9383 0.2081
vn 0.2612 0.9408 0.2159
vn 0.2466 0.7947 0.5546
vn 0.3269 0.3757 0.8672
vn 0.3465 0.3559 0.8679
vn 0.7594 0.2545 0.5988
vn 0.9187 0.2511 0.3047
vn 0.9181 0.2642 0.2955
vn 0.6982 0.6724 0.2458
vn 0.6206 0.6127 0.4893
vn -0.9667 -0.1948 0.1660
vn -0.9459 -0.2456 0.2121
vn -0.9733 -0.1940 0.1223
vn -0.9727 -0.1960 0.1239
vn -0.9624 -0.2672 0.0497
vn -0.9770 -0.1979 0.0798
vn -0.7352 -0.6752 0.0589
vn -0.7616 -0.6434 0.0773
vn -0.2651 -0.9596 0.0943
vn -0.3119 -0.9474 0.0713
vn -0.2887 -0.9397 0.1835
vn -0.2498 -0.9472 0.2008
vn -0.3454 -0.8823 0.3198
vn -0.2748 -0.9220 0.2729
vn -0.7357 -0.6082 0.2979
vn -0.7366 -0.6069 0.2984
vn -0.7480 -0.6343 0.1954
vn -0.7621 -0.6206 0.1847
vn -0.9723 0.2310 0.0362
vn -0.9634 0.2675 0.0156
vn -0.9689 0.2345 0.0789
vn -0.9704 0.2266 0.0831
vn -0.9502 0.2758 0.1452
vn -0.9645 0.2343 0.1221
vn -0.7183 0.6839 0.1277
vn -0.7199 0.6824 0.1268
vn -0.2655 0.9634 0.0358
vn -0.3008 0.9518 0.0595
vn -0.2689 0.9628 0.0253
vn -0.2661 0.9637 0.0236
vn -0.3126 0.9498 -0.0080
vn -0.2711 0.9625 0.0127
vn -0.7365 0.6764 -0.0054
vn -0.7341 0.6790 -0.0038
vn -0.7262 0.6847 0.0623
vn -0.7299 0.6804 0.0652
vn 0.2711 0.9625 0.0127
vn 0.3127 0.9498 -0.0080
vn 0.2660 0.9637 0.0250
vn 0.2691 0.9628 0.0238
vn 0.3008 0.9518 0.0595
vn 0.2655 0.9634 0.0358
vn 0.7184 0.6840 0.1267
vn 0.7199 0.6822 0.1279
vn 0.9644 0.2345 0.1221
vn 0.9502 0.2758 0.1452
vn 0.9707 0.2269 0.0791
vn 0.9685 0.2346 0.0830
vn 0.9634 0.2675 0.0157
vn 0.9723 0.2310 0.0362
vn 0.7365 0.6764 -0.0038
vn 0.7342 0.6789 -0.0056
vn 0.7260 0.6846 0.0648
vn 0.7302 0.6803 0.0626
vn 0.9770 -0.1979 0.0798
vn 0.9624 -0.2672 0.0497
vn 0.9729 -0.1960 0.1227
vn 0.9732 -0.1939 0.1235
vn 0.9458 -0.2457 0.2121
vn 0.9667 -0.1947 0.1660
vn 0.7355 -0.6081 0.2986
vn 0.7369 -0.6069 0.2977
vn 0.2748 -0.9220 0.2728
vn 0.3455 -0.8822 0.3198
vn 0.2528 -0.9502 0.1822
vn 0.2860 -0.9367 0.2020
vn 0.3119 -0.9474 0.0713
vn 0.2651 -0.9596 0.0943
vn 0.7341 -0.6744 0.0793
vn 0.7629 -0.6440 0.0571
vn 0.7604 -0.6199 0.1934
vn 0.7495 -0.6352 0.1863
vn -0.4072 0.0000 -0.9133
vn -0.8575 0.0000 -0.5145
vn -0.9874 0.0000 -0.1585
vn -0.3163 -0.8742 0.3684
vn -0.3162 -0.8742 0.3685
vn -0.7229 -0.6028 0.3378
vn -0.7229 -0.6027 0.3378
vn -0.9410 -0.2367 0.2417
vn -0.9411 -0.2366 0.2417
vn -0.3527 0.0000 0.9357
vn -0.4087 -0.0002 0.9127
vn -0.7853 -0.0001 0.6192
vn -0.7852 -0.0001 0.6192
vn -0.9519 -0.0001 0.3063
vn -0.9428 0.0000 0.3333
vn -0.2797 0.9601 0.0000
vn -0.3126 0.9499 0.0003
vn -0.7366 0.6764 0.0003
vn -0.9711 0.2387 0.0003
vn -0.9636 0.2675 0.0000
vn 0.0000 0.3790 -0.9254
vn 0.0000 0.8372 -0.5470
vn 0.0000 0.9851 -0.1722
vn 0.0000 0.3949 0.9187
vn 0.0000 0.8372 0.5470
vn 0.0000 0.9847 0.1744
vn 0.9711 0.2386 0.0000
vn 0.9635 0.2676 0.0003
vn 0.7365 0.6764 0.0003
vn 0.2797 0.9601 0.0003
vn 0.3127 0.9499 0.0000
vn 0.4073 0.0000 -0.9133
vn 0.8575 0.0000 -0.5145
vn 0.9874 0.0000 -0.1585
vn 0.4087 0.0000 0.9127
vn 0.3528 -0.0002 0.9357
vn 0.7852 -0.0001 0.6192
vn 0.7853 -0.0001 0.6192
vn 0.9428 -0.0001 0.3333
vn 0.9519 0.0000 0.3063
vn 0.2797 -0.9601 0.0000
vn 0.3127 -0.9499 0.0003
vn 0.7365 -0.6764 0.0003
vn 0.9711 -0.2387 0.0003
vn 0.9636 -0.2675 0.0000
vn 0.0000 -0.3790 -0.9254
vn 0.0000 -0.8372 -0.5470
vn 0.0000 -0.9851 -0.1721
vn 0.0000 -0.9851 -0.1722
vn 0.0000 -0.3317 0.9434
vn 0.0000 -0.6700 0.7424
vn 0.0000 -0.8628 0.5056
vn -0.3126 -0.9499 0.0000
vn -0.2797 -0.9601 0.0003
vn -0.7365 -0.6764 0.0003
vn -0.7366 -0.6763 0.0003
vn -0.9711 -0.2386 0.0000
vn -0.9636 -0.2675 0.0003
vn -0.3019 0.9520 0.0501
vn -0.2734 0.9608 0.0448
vn -0.7188 0.6849 0.1189
vn -0.7189 0.6849 0.1189
vn -0.9490 0.2733 0.1572
vn -0.9538 0.2552 0.1583
vn 0.9490 0.2732 0.1575
vn 0.9539 0.2552 0.1580
vn 0.7188 0.6849 0.1189
vn 0.7189 0.6849 0.1189
vn 0.3020 0.9520 0.0496
vn 0.2734 0.9608 0.0454
vn 0.3163 -0.8742 0.3685
vn 0.7229 -0.6027 0.3378
vn 0.7229 -0.6028 0.3378
vn 0.9410 -0.2367 0.2417
vn 0.9411 -0.2366 0.2417
vn -0.0000 -0.9656 0.2599
vn -0.0000 -0.9861 0.1663
vn -0.0000 -0.9972 0.0750
vn 0.0000 -0.9972 0.0749
vn 0.9921 0.0000 0.1256
vn 0.9967 0.0000 0.0812
vn 0.9993 0.0000 0.0372
vn -0.9921 0.0000 0.1256
vn -0.9967 0.0000 0.0812
vn -0.9993 0.0000 0.0372
vn -1.0000 0.0000 0.0000
usemtl Kbdsharpd
s off
f 1//1 2//1 3//1
f 3//1 4//1 1//1
f 5//2 6//2 7//2
f 7//2 8//2 5//2
f 9//3 10//3 11//3
f 11//3 12//3 9//3
f 13//4 14//4 15//4
f 15//4 16//4 13//4
f 17//5 18//5 19//5
f 19//5 20//5 17//5
f 21//6 22//6 23//6
f 23//6 24//6 21//6
f 25//7 26//7 27//7
f 27//7 28//7 25//7
f 29//5 30//5 31//5
f 31//5 32//5 29//5
f 33//8 34//8 35//8
f 35//8 36//8 33//8
f 37//9 38//9 39//9
f 39//10 40//10 37//10
f 38//11 41//11 42//11
f 42//12 39//12 38//12
f 36//13 43//13 42//13
f 42//14 41//14 36//14
f 43//15 44//15 45//15
f 45//15 42//15 43//15
f 16//16 46//16 45//16
f 45//17 44//17 16//17
f 46//18 40//18 39//18
f 39//18 45//18 46//18
f 39//19 42//19 45//19
f 23//20 47//20 48//20
f 48//21 49//21 23//21
f 47//22 50//22 51//22
f 51//23 48//23 47//23
f 3//24 52//24 51//24
f 51//25 50//25 3//25
f 52//26 53//26 54//26
f 54//27 51//27 52//27
f 10//28 55//28 54//28
f 54//29 53//29 10//29
f 55//30 49//30 48//30
f 48//31 54//31 55//31
f 48//32 51//32 54//32
f 33//33 56//33 57//33
f 57//34 58//34 33//34
f 56//35 59//35 60//35
f 60//35 57//35 56//35
f 61//36 62//36 60//36
f 60//37 59//37 61//37
f 62//38 63//38 64//38
f 64//39 60//39 62//39
f 17//40 65//40 64//40
f 64//41 63//41 17//41
f 65//42 58//42 57//42
f 57//43 64//43 65//43
f 57//44 60//44 64//44
f 11//45 66//45 67//45
f 67//46 68//46 11//46
f 66//47 69//47 70//47
f 70//47 67//47 66//47
f 2//48 71//48 70//48
f 70//49 69//49 2//49
f 71//50 72//50 73//50
f 73//51 70//51 71//51
f 30//52 74//52 73//52
f 73//53 72//53 30//53
f 74//54 68//54 67//54
f 67//55 73//55 74//55
f 67//56 70//56 73//56
f 35//57 75//57 76//57
f 76//58 77//58 35//58
f 75//59 78//59 79//59
f 79//60 76//60 75//60
f 8//61 80//61 79//61
f 79//62 78//62 8//62
f 80//63 81//63 82//63
f 82//63 79//63 80//63
f 13//64 83//64 82//64
f 82//65 81//65 13//65
f 83//66 77//66 76//66
f 76//67 82//67 83//67
f 76//68 79//68 82//68
f 27//69 84//69 85//69
f 85//70 86//70 27//70
f 84//71 87//71 88//71
f 88//72 85//72 84//72
f 4//73 89//73 88//73
f 88//74 87//74 4//74
f 89//75 90//75 91//75
f 91//76 88//76 89//76
f 22//77 92//77 91//77
f 91//78 90//78 22//78
f 92//79 86//79 85//79
f 85//80 91//80 92//80
f 85//81 88//81 91//81
f 34//82 93//82 94//82
f 94//83 95//83 34//83
f 93//84 96//84 97//84
f 97//85 94//85 93//85
f 20//86 98//86 97//86
f 97//87 96//87 20//87
f 98//88 99//88 100//88
f 100//88 97//88 98//88
f 5//89 101//89 100//89
f 100//90 99//90 5//90
f 101//91 95//91 94//91
f 94//92 100//92 101//92
f 94//93 97//93 100//93
f 31//94 102//94 103//94
f 103//95 104//95 31//95
f 102//96 105//96 106//96
f 106//96 103//96 102//96
f 1//97 107//97 106//97
f 106//98 105//98 1//98
f 107//99 108//99 109//99
f 109//99 106//99 107//99
f 26//100 110//100 109//100
f 109//101 108//101 26//101
f 110//102 104//102 103//102
f 103//102 109//102 110//102
f 103//103 106//103 109//103
f 9//104 111//104 112//104
f 112//105 113//105 9//105
f 111//106 114//106 115//106
f 115//107 112//107 111//107
f 116//108 117//108 115//108
f 115//109 114//109 116//109
f 117//110 118//110 119//110
f 119//111 115//111 117//111
f 15//112 120//112 119//112
f 119//113 118//113 15//113
f 120//114 121//114 122//114
f 122//115 119//115 120//115
f 24//116 123//116 122//116
f 122//117 121//117 24//117
f 123//118 113//118 112//118
f 112//119 122//119 123//119
f 112//120 115//120 119//120
f 119//121 122//121 112//121
f 124//122 125//122 126//122
f 126//123 127//123 124//123
f 125//124 128//124 129//124
f 129//125 126//125 125//125
f 12//126 130//126 129//126
f 129//127 128//127 12//127
f 130//128 131//128 132//128
f 132//129 129//129 130//129
f 29//130 133//130 132//130
f 132//131 131//131 29//131
f 133//132 134//132 135//132
f 135//133 132//133 133//133
f 18//134 136//134 135//134
f 135//135 134//135 18//135
f 136//136 127//136 126//136
f 126//137 135//137 136//137
f 126//138 129//138 132//138
f 132//139 135//139 126//139
f 19//140 137//140 138//140
f 138//141 139//141 19//141
f 137//142 140//142 141//142
f 141//143 138//143 137//143
f 32//144 142//144 141//144
f 141//145 140//145 32//145
f 142//146 143//146 144//146
f 144//147 141//147 142//147
f 25//148 145//148 144//148
f 144//149 143//149 25//149
f 145//150 146//150 147//150
f 147//151 144//151 145//151
f 6//152 148//152 147//152
f 147//153 146//153 6//153
f 148//154 139//154 138//154
f 138//155 147//155 148//155
f 138//156 141//156 144//156
f 144//157 147//157 138//157
f 7//158 149//158 150//158
f 150//159 151//159 7//159
f 149//160 152//160 153//160
f 153//161 150//161 149//161
f 28//162 154//162 153//162
f 153//163 152//163 28//163
f 154//164 155//164 156//164
f 156//165 153//165 154//165
f 21//166 157//166 156//166
f 156//167 155//167 21//167
f 157//168 158//168 159//168
f 159//169 156//169 157//169
f 14//170 160//170 159//170
f 159//171 158//171 14//171
f 160//172 151//172 150//172
f 150//173 159//173 160//173
f 150//174 153//174 156//174
f 156//175 159//175 150//175
f 33//176 36//176 41//176
f 41//176 56//176 33//176
f 56//177 41//177 38//177
f 38//177 59//177 56//177
f 37//178 61//178 59//178
f 59//178 38//178 37//178
f 24//179 23//179 49//179
f 49//180 123//180 24//180
f 123//181 49//181 55//181
f 55//182 113//182 123//182
f 113//183 55//183 10//183
f 10//184 9//184 113//184
f 3//185 2//185 69//185
f 69//186 52//186 3//186
f 52//187 69//187 66//187
f 66//188 53//188 52//188
f 53//189 66//189 11//189
f 11//190 10//190 53//190
f 18//191 17//191 63//191
f 63//192 136//192 18//192
f 136//193 63//193 62//193
f 62//193 127//193 136//193
f 127//194 62//194 61//194
f 61//195 124//195 127//195
f 34//196 33//196 58//196
f 58//196 93//196 34//196
f 93//197 58//197 65//197
f 65//197 96//197 93//197
f 96//198 65//198 17//198
f 17//198 20//198 96//198
f 2//199 1//199 105//199
f 105//199 71//199 2//199
f 71//200 105//200 102//200
f 102//200 72//200 71//200
f 72//201 102//201 31//201
f 31//201 30//201 72//201
f 6//202 5//202 99//202
f 99//203 148//203 6//203
f 148//204 99//204 98//204
f 98//204 139//204 148//204
f 139//205 98//205 20//205
f 20//206 19//206 139//206
f 35//207 34//207 95//207
f 95//207 75//207 35//207
f 75//208 95//208 101//208
f 101//208 78//208 75//208
f 78//209 101//209 5//209
f 5//209 8//209 78//209
f 1//210 4//210 87//210
f 87//211 107//211 1//211
f 107//212 87//212 84//212
f 84//213 108//213 107//213
f 108//214 84//214 27//214
f 27//215 26//215 108//215
f 14//216 13//216 81//216
f 81//217 160//217 14//217
f 160//218 81//218 80//218
f 80//218 151//218 160//218
f 151//219 80//219 8//219
f 8//220 7//220 151//220
f 36//221 35//221 77//221
f 77//221 43//221 36//221
f 43//222 77//222 83//222
f 83//222 44//222 43//222
f 44//223 83//223 13//223
f 13//224 16//224 44//224
f 4//225 3//225 50//225
f 50//225 89//225 4//225
f 89//226 50//226 47//226
f 47//226 90//226 89//226
f 90//227 47//227 23//227
f 23//227 22//227 90//227
f 16//228 15//228 118//228
f 118//229 46//229 16//229
f 46//230 118//230 117//230
f 117//231 40//231 46//231
f 116//232 37//232 40//232
f 40//233 117//233 116//233
f 30//234 29//234 131//234
f 131//235 74//235 30//235
f 74//236 131//236 130//236
f 130//237 68//237 74//237
f 68//238 130//238 12//238
f 12//239 11//239 68//239
f 26//240 25//240 143//240
f 143//241 110//241 26//241
f 110//242 143//242 142//242
f 142//243 104//243 110//243
f 104//244 142//244 32//244
f 32//245 31//245 104//245
f 22//246 21//246 155//246
f 155//246 92//246 22//246
f 92//247 155//247 154//247
f 154//248 86//248 92//248
f 86//249 154//249 28//249
f 28//250 27//250 86//250
f 21//251 24//251 121//251
f 121//251 157//251 21//251
f 157//252 121//252 120//252
f 120//252 158//252 157//252
f 158//253 120//253 15//253
f 15//254 14//254 158//254
f 25//255 28//255 152//255
f 152//255 145//255 25//255
f 145//256 152//256 149//256
f 149//256 146//256 145//256
f 146//257 149//257 7//257
f 7//257 6//257 146//257
f 29//5 32//5 140//5
f 140//5 133//5 29//5
f 133//5 140//5 137//5
f 137//5 134//5 133//5
f 134//5 137//5 19//5
f 19//5 18//5 134//5
f 9//258 12//258 128//258
f 128//258 111//258 9//258
f 111//259 128//259 125//259
f 125//259 114//259 111//259
f 114//260 125//260 124//260
f 124//260 116//260 114//260
f 37//261 116//261 124//261
f 124//261 61//261 37//261
