# Blender v2.90.0 OBJ File: 'convert2obj.blend'
# www.blender.org
mtllib Kbdsharpg.mtl
o Kbdsharpg
v 1.138705 -0.003385 0.276090
v 1.083649 -0.003385 0.276090
v 1.083649 -0.660740 0.276090
v 1.138705 -0.660740 0.276090
v 1.158235 -0.003385 0.005195
v 1.158235 -0.003385 0.171395
v 1.158235 -0.696786 0.171395
v 1.158235 -0.696786 0.005195
v 1.064913 -0.694623 0.181147
v 1.079876 -0.662037 0.271304
v 1.079876 -0.003385 0.271304
v 1.064913 -0.003385 0.181147
v 1.155256 -0.700030 0.005195
v 1.155256 -0.700030 0.171395
v 1.067098 -0.700030 0.171395
v 1.067098 -0.700030 0.005195
v 1.067098 -0.000141 0.005195
v 1.067098 -0.000141 0.171395
v 1.155256 -0.000141 0.171395
v 1.155256 -0.000141 0.005195
v 1.154449 -0.698459 0.180706
v 1.139340 -0.665555 0.271745
v 1.083014 -0.665555 0.271745
v 1.067905 -0.698459 0.180706
v 1.157441 -0.003385 0.181147
v 1.142478 -0.003385 0.271304
v 1.142478 -0.662037 0.271304
v 1.157441 -0.694623 0.181147
v 1.068034 -0.000141 0.181326
v 1.082937 -0.000141 0.271124
v 1.139417 -0.000141 0.271124
v 1.154320 -0.000141 0.181326
v 1.067098 -0.003385 0.000230
v 1.155256 -0.003385 0.000230
v 1.155256 -0.696786 0.000230
v 1.067098 -0.696786 0.000230
v 1.064119 -0.696786 0.005195
v 1.064517 -0.696786 0.002716
v 1.064903 -0.698337 0.002821
v 1.064517 -0.698406 0.005195
v 1.065610 -0.696786 0.000893
v 1.065673 -0.698337 0.001538
v 1.067098 -0.698406 0.000893
v 1.067098 -0.699596 0.002716
v 1.065673 -0.699175 0.002821
v 1.065610 -0.699596 0.005195
v 1.083216 -0.664310 0.273868
v 1.081808 -0.663935 0.274035
v 1.081582 -0.664859 0.272164
v 1.083448 -0.662556 0.275451
v 1.081965 -0.662761 0.275058
v 1.082075 -0.661153 0.275385
v 1.080704 -0.661624 0.273646
v 1.081019 -0.663088 0.273964
v 1.080445 -0.663586 0.272005
v 1.065610 -0.003385 0.000893
v 1.065673 -0.001833 0.001538
v 1.067098 -0.001765 0.000893
v 1.064517 -0.003385 0.002716
v 1.064903 -0.001833 0.002821
v 1.064119 -0.003385 0.005195
v 1.064517 -0.001765 0.005195
v 1.065610 -0.000574 0.005195
v 1.065673 -0.000995 0.002821
v 1.067098 -0.000574 0.002716
v 1.080655 -0.003385 0.273727
v 1.081051 -0.001833 0.273569
v 1.080300 -0.001765 0.271247
v 1.082041 -0.003385 0.275483
v 1.082026 -0.001833 0.274806
v 1.083569 -0.001765 0.275394
v 1.083308 -0.000574 0.273571
v 1.081842 -0.000995 0.273523
v 1.081424 -0.000574 0.271181
v 1.156744 -0.696786 0.000893
v 1.156681 -0.698337 0.001538
v 1.155256 -0.698406 0.000893
v 1.157837 -0.696786 0.002716
v 1.157451 -0.698337 0.002821
v 1.157837 -0.698406 0.005195
v 1.156744 -0.699596 0.005195
v 1.156681 -0.699175 0.002821
v 1.155256 -0.699596 0.002716
v 1.141650 -0.661624 0.273646
v 1.141335 -0.663088 0.273964
v 1.141909 -0.663586 0.272005
v 1.140279 -0.661153 0.275384
v 1.140389 -0.662761 0.275058
v 1.138906 -0.662556 0.275451
v 1.139138 -0.664310 0.273868
v 1.140546 -0.663935 0.274035
v 1.140772 -0.664859 0.272164
v 1.155256 -0.001765 0.000893
v 1.156681 -0.001833 0.001538
v 1.156744 -0.003385 0.000893
v 1.155256 -0.000574 0.002716
v 1.156681 -0.000995 0.002821
v 1.156744 -0.000574 0.005195
v 1.157837 -0.001765 0.005195
v 1.157451 -0.001833 0.002821
v 1.157837 -0.003385 0.002716
v 1.139046 -0.000574 0.273571
v 1.140512 -0.000995 0.273523
v 1.140930 -0.000574 0.271181
v 1.138785 -0.001765 0.275394
v 1.140328 -0.001833 0.274806
v 1.140313 -0.003385 0.275483
v 1.141698 -0.003385 0.273727
v 1.141303 -0.001833 0.273569
v 1.142054 -0.001765 0.271247
v 1.064525 -0.695309 0.178086
v 1.064943 -0.697382 0.178086
v 1.065435 -0.696273 0.181566
v 1.064235 -0.696100 0.174517
v 1.064650 -0.698091 0.174661
v 1.064119 -0.696786 0.171395
v 1.064561 -0.698378 0.171395
v 1.065636 -0.699548 0.171395
v 1.065687 -0.699321 0.174637
v 1.067354 -0.699800 0.174454
v 1.067649 -0.699225 0.177859
v 1.065986 -0.698685 0.178010
v 1.066520 -0.697663 0.181406
v 1.064119 -0.003385 0.171395
v 1.064235 -0.003385 0.174518
v 1.064647 -0.001672 0.174664
v 1.064561 -0.001793 0.171395
v 1.064525 -0.003385 0.178086
v 1.064937 -0.001673 0.178053
v 1.065418 -0.001793 0.181431
v 1.066545 -0.000622 0.181496
v 1.065953 -0.000590 0.177994
v 1.067575 -0.000141 0.177929
v 1.067233 -0.000141 0.174294
v 1.065647 -0.000591 0.174584
v 1.065636 -0.000622 0.171395
v 1.155121 -0.000141 0.174294
v 1.156706 -0.000591 0.174584
v 1.156718 -0.000622 0.171395
v 1.154779 -0.000141 0.177929
v 1.156401 -0.000590 0.177994
v 1.155809 -0.000622 0.181496
v 1.156936 -0.001793 0.181431
v 1.157417 -0.001673 0.178053
v 1.157829 -0.003385 0.178086
v 1.158119 -0.003385 0.174518
v 1.157707 -0.001672 0.174664
v 1.157793 -0.001793 0.171395
v 1.158119 -0.696100 0.174517
v 1.157704 -0.698091 0.174661
v 1.157793 -0.698378 0.171395
v 1.157829 -0.695309 0.178086
v 1.157411 -0.697382 0.178086
v 1.156919 -0.696273 0.181566
v 1.155834 -0.697663 0.181406
v 1.156368 -0.698685 0.178010
v 1.154705 -0.699225 0.177859
v 1.155000 -0.699800 0.174454
v 1.156667 -0.699321 0.174637
v 1.156718 -0.699548 0.171395
vn 0.0000 0.0000 1.0000
vn 1.0000 0.0000 0.0000
vn -0.9865 0.0000 0.1637
vn 0.0000 -1.0000 0.0000
vn 0.0000 1.0000 0.0000
vn 0.0000 -0.9405 0.3399
vn 0.9865 0.0000 0.1637
vn 0.0000 0.0000 -1.0000
vn -0.9563 -0.2488 -0.1535
vn -0.9581 -0.2356 -0.1628
vn -0.8322 -0.2412 -0.4993
vn -0.4003 -0.3472 -0.8481
vn -0.3787 -0.3681 -0.8492
vn -0.2764 -0.8045 -0.5256
vn -0.2764 -0.8046 -0.5256
vn -0.2754 -0.9453 -0.1748
vn -0.2906 -0.9425 -0.1648
vn -0.7295 -0.6699 -0.1381
vn -0.6738 -0.6186 -0.4042
vn -0.1648 -0.8441 0.5102
vn -0.2786 -0.8471 0.4525
vn -0.1067 -0.6583 0.7451
vn -0.0834 -0.6484 0.7567
vn -0.3679 -0.1610 0.9158
vn -0.2048 -0.3042 0.9303
vn -0.7805 -0.0329 0.6243
vn -0.7412 -0.0847 0.6659
vn -0.9266 -0.1953 0.3212
vn -0.9284 -0.1244 0.3501
vn -0.7138 -0.5897 0.3778
vn -0.6972 -0.6190 0.3616
vn -0.5829 -0.4882 0.6495
vn -0.3787 0.3681 -0.8492
vn -0.4003 0.3473 -0.8480
vn -0.8322 0.2412 -0.4993
vn -0.8322 0.2411 -0.4993
vn -0.9581 0.2355 -0.1628
vn -0.9563 0.2489 -0.1535
vn -0.7295 0.6699 -0.1381
vn -0.2907 0.9425 -0.1648
vn -0.2753 0.9453 -0.1749
vn -0.2765 0.8045 -0.5257
vn -0.2765 0.8045 -0.5256
vn -0.6737 0.6187 -0.4042
vn -0.9181 0.2641 0.2955
vn -0.9187 0.2513 0.3047
vn -0.7594 0.2545 0.5988
vn -0.3465 0.3559 0.8679
vn -0.3269 0.3757 0.8672
vn -0.2466 0.7947 0.5546
vn -0.2612 0.9408 0.2159
vn -0.2764 0.9382 0.2081
vn -0.6982 0.6723 0.2458
vn -0.6981 0.6725 0.2458
vn -0.6205 0.6128 0.4893
vn 0.3787 -0.3681 -0.8492
vn 0.4003 -0.3473 -0.8480
vn 0.8322 -0.2411 -0.4993
vn 0.8322 -0.2412 -0.4993
vn 0.9581 -0.2356 -0.1628
vn 0.9563 -0.2488 -0.1535
vn 0.7294 -0.6700 -0.1381
vn 0.7296 -0.6698 -0.1381
vn 0.2906 -0.9425 -0.1648
vn 0.2754 -0.9453 -0.1748
vn 0.2764 -0.8045 -0.5257
vn 0.2764 -0.8046 -0.5256
vn 0.6736 -0.6188 -0.4042
vn 0.9284 -0.1243 0.3501
vn 0.9266 -0.1953 0.3212
vn 0.7730 -0.0754 0.6299
vn 0.7535 -0.0198 0.6571
vn 0.2048 -0.3042 0.9303
vn 0.3680 -0.1611 0.9158
vn 0.0881 -0.6609 0.7453
vn 0.1118 -0.6444 0.7564
vn 0.2786 -0.8472 0.4524
vn 0.1648 -0.8441 0.5102
vn 0.7176 -0.5953 0.3616
vn 0.6913 -0.6111 0.3857
vn 0.5829 -0.4882 0.6495
vn 0.4003 0.3473 -0.8480
vn 0.3787 0.3681 -0.8492
vn 0.2765 0.8045 -0.5256
vn 0.2753 0.9453 -0.1749
vn 0.2907 0.9425 -0.1648
vn 0.7296 0.6698 -0.1381
vn 0.7294 0.6700 -0.1381
vn 0.9563 0.2488 -0.1535
vn 0.9582 0.2355 -0.1628
vn 0.8322 0.2412 -0.4993
vn 0.8322 0.2411 -0.4994
vn 0.6736 0.6188 -0.4042
vn 0.2764 0.9383 0.2080
vn 0.2613 0.9408 0.2159
vn 0.2466 0.7947 0.5546
vn 0.3269 0.3758 0.8671
vn 0.3465 0.3559 0.8679
vn 0.7594 0.2546 0.5988
vn 0.7594 0.2544 0.5988
vn 0.9187 0.2513 0.3047
vn 0.9181 0.2641 0.2955
vn 0.6981 0.6725 0.2457
vn 0.6982 0.6724 0.2458
vn 0.6206 0.6127 0.4893
vn -0.9667 -0.1946 0.1659
vn -0.9459 -0.2456 0.2121
vn -0.9733 -0.1940 0.1223
vn -0.9728 -0.1959 0.1239
vn -0.9623 -0.2673 0.0497
vn -0.9770 -0.1978 0.0798
vn -0.7352 -0.6753 0.0589
vn -0.7616 -0.6434 0.0773
vn -0.2651 -0.9596 0.0943
vn -0.3119 -0.9474 0.0713
vn -0.2887 -0.9397 0.1835
vn -0.2498 -0.9472 0.2008
vn -0.3454 -0.8823 0.3198
vn -0.2748 -0.9220 0.2728
vn -0.7357 -0.6082 0.2979
vn -0.7366 -0.6069 0.2984
vn -0.7480 -0.6343 0.1954
vn -0.7621 -0.6206 0.1847
vn -0.9723 0.2310 0.0362
vn -0.9634 0.2676 0.0157
vn -0.9689 0.2344 0.0790
vn -0.9704 0.2266 0.0831
vn -0.9502 0.2759 0.1452
vn -0.9645 0.2341 0.1220
vn -0.7182 0.6840 0.1277
vn -0.7199 0.6824 0.1269
vn -0.2655 0.9634 0.0358
vn -0.3009 0.9518 0.0595
vn -0.2689 0.9628 0.0253
vn -0.2661 0.9637 0.0236
vn -0.3127 0.9498 -0.0080
vn -0.2711 0.9625 0.0127
vn -0.7365 0.6764 -0.0054
vn -0.7342 0.6789 -0.0038
vn -0.7261 0.6847 0.0622
vn -0.7300 0.6804 0.0652
vn 0.2711 0.9625 0.0127
vn 0.3126 0.9498 -0.0080
vn 0.2660 0.9637 0.0250
vn 0.2692 0.9628 0.0238
vn 0.3008 0.9518 0.0594
vn 0.2655 0.9635 0.0358
vn 0.7182 0.6842 0.1267
vn 0.7199 0.6822 0.1279
vn 0.9645 0.2343 0.1221
vn 0.9502 0.2758 0.1452
vn 0.9707 0.2269 0.0791
vn 0.9685 0.2346 0.0830
vn 0.9634 0.2675 0.0156
vn 0.9723 0.2311 0.0362
vn 0.7366 0.6764 -0.0038
vn 0.7341 0.6790 -0.0056
vn 0.7260 0.6847 0.0648
vn 0.7302 0.6804 0.0626
vn 0.9770 -0.1979 0.0798
vn 0.9623 -0.2672 0.0497
vn 0.9729 -0.1959 0.1227
vn 0.9732 -0.1939 0.1235
vn 0.9459 -0.2456 0.2121
vn 0.9667 -0.1947 0.1660
vn 0.7355 -0.6082 0.2986
vn 0.7368 -0.6071 0.2976
vn 0.2748 -0.9220 0.2728
vn 0.3455 -0.8822 0.3198
vn 0.2528 -0.9502 0.1822
vn 0.2860 -0.9367 0.2020
vn 0.3119 -0.9474 0.0713
vn 0.2651 -0.9596 0.0943
vn 0.7342 -0.6743 0.0793
vn 0.7628 -0.6441 0.0572
vn 0.7605 -0.6198 0.1934
vn 0.7494 -0.6353 0.1863
vn -0.4073 0.0000 -0.9133
vn -0.8575 0.0000 -0.5145
vn -0.9874 0.0000 -0.1585
vn -0.3163 -0.8742 0.3684
vn -0.3162 -0.8742 0.3684
vn -0.7229 -0.6027 0.3378
vn -0.7229 -0.6027 0.3379
vn -0.9410 -0.2368 0.2417
vn -0.9411 -0.2365 0.2417
vn -0.3528 0.0000 0.9357
vn -0.4087 -0.0002 0.9127
vn -0.7852 -0.0001 0.6192
vn -0.9519 -0.0001 0.3063
vn -0.9428 0.0000 0.3333
vn -0.2797 0.9601 0.0000
vn -0.3127 0.9499 0.0003
vn -0.7366 0.6764 0.0003
vn -0.7365 0.6764 0.0003
vn -0.9711 0.2385 0.0003
vn -0.9635 0.2677 0.0000
vn 0.0000 0.3790 -0.9254
vn 0.0000 0.8372 -0.5470
vn 0.0000 0.9851 -0.1722
vn 0.0000 0.3949 0.9187
vn 0.0000 0.8372 0.5470
vn 0.0000 0.9847 0.1744
vn 0.9711 0.2385 0.0000
vn 0.9635 0.2677 0.0003
vn 0.7366 0.6764 0.0003
vn 0.2797 0.9601 0.0003
vn 0.3127 0.9498 0.0000
vn 0.4073 0.0000 -0.9133
vn 0.8575 0.0000 -0.5145
vn 0.9874 0.0000 -0.1585
vn 0.4087 0.0000 0.9127
vn 0.3528 -0.0002 0.9357
vn 0.7853 -0.0001 0.6192
vn 0.7852 -0.0001 0.6192
vn 0.9428 -0.0001 0.3333
vn 0.9519 0.0000 0.3063
vn 0.2797 -0.9601 0.0000
vn 0.3126 -0.9499 0.0003
vn 0.7365 -0.6764 0.0003
vn 0.7366 -0.6763 0.0003
vn 0.9711 -0.2386 0.0003
vn 0.9635 -0.2676 0.0000
vn 0.0000 -0.3790 -0.9254
vn 0.0000 -0.8372 -0.5470
vn 0.0000 -0.9851 -0.1721
vn 0.0000 -0.9851 -0.1722
vn 0.0000 -0.3317 0.9434
vn 0.0000 -0.6700 0.7424
vn 0.0000 -0.8628 0.5056
vn -0.3126 -0.9499 0.0000
vn -0.2797 -0.9601 0.0003
vn -0.7365 -0.6764 0.0003
vn -0.9711 -0.2385 0.0000
vn -0.9635 -0.2677 0.0003
vn -0.3020 0.9520 0.0501
vn -0.2734 0.9609 0.0448
vn -0.7188 0.6850 0.1189
vn -0.7188 0.6849 0.1189
vn -0.9490 0.2733 0.1572
vn -0.9538 0.2552 0.1583
vn 0.9490 0.2731 0.1575
vn 0.9539 0.2553 0.1580
vn 0.7189 0.6849 0.1189
vn 0.7188 0.6850 0.1189
vn 0.3020 0.9520 0.0496
vn 0.2734 0.9608 0.0454
vn 0.3162 -0.8742 0.3684
vn 0.3163 -0.8742 0.3685
vn 0.7229 -0.6027 0.3378
vn 0.7229 -0.6027 0.3379
vn 0.9410 -0.2367 0.2417
vn 0.9411 -0.2366 0.2417
vn -0.0000 -0.9656 0.2599
vn -0.0000 -0.9861 0.1663
vn -0.0000 -0.9972 0.0750
vn 0.0000 -0.9972 0.0749
vn 0.9921 0.0000 0.1256
vn 0.9967 0.0000 0.0812
vn 0.9993 0.0000 0.0372
vn -0.9921 0.0000 0.1255
vn -0.9967 0.0000 0.0812
vn -0.9993 0.0000 0.0372
vn -1.0000 0.0000 0.0000
usemtl Kbdsharpg
s off
f 1//1 2//1 3//1
f 3//1 4//1 1//1
f 5//2 6//2 7//2
f 7//2 8//2 5//2
f 9//3 10//3 11//3
f 11//3 12//3 9//3
f 13//4 14//4 15//4
f 15//4 16//4 13//4
f 17//5 18//5 19//5
f 19//5 20//5 17//5
f 21//6 22//6 23//6
f 23//6 24//6 21//6
f 25//7 26//7 27//7
f 27//7 28//7 25//7
f 29//5 30//5 31//5
f 31//5 32//5 29//5
f 33//8 34//8 35//8
f 35//8 36//8 33//8
f 37//9 38//9 39//9
f 39//10 40//10 37//10
f 38//11 41//11 42//11
f 42//11 39//11 38//11
f 36//12 43//12 42//12
f 42//13 41//13 36//13
f 43//14 44//14 45//14
f 45//15 42//15 43//15
f 16//16 46//16 45//16
f 45//17 44//17 16//17
f 46//18 40//18 39//18
f 39//18 45//18 46//18
f 39//19 42//19 45//19
f 23//20 47//20 48//20
f 48//21 49//21 23//21
f 47//22 50//22 51//22
f 51//23 48//23 47//23
f 3//24 52//24 51//24
f 51//25 50//25 3//25
f 52//26 53//26 54//26
f 54//27 51//27 52//27
f 10//28 55//28 54//28
f 54//29 53//29 10//29
f 55//30 49//30 48//30
f 48//31 54//31 55//31
f 48//32 51//32 54//32
f 33//33 56//33 57//33
f 57//34 58//34 33//34
f 56//35 59//35 60//35
f 60//36 57//36 56//36
f 61//37 62//37 60//37
f 60//38 59//38 61//38
f 62//39 63//39 64//39
f 64//39 60//39 62//39
f 17//40 65//40 64//40
f 64//41 63//41 17//41
f 65//42 58//42 57//42
f 57//43 64//43 65//43
f 57//44 60//44 64//44
f 11//45 66//45 67//45
f 67//46 68//46 11//46
f 66//47 69//47 70//47
f 70//47 67//47 66//47
f 2//48 71//48 70//48
f 70//49 69//49 2//49
f 71//50 72//50 73//50
f 73//50 70//50 71//50
f 30//51 74//51 73//51
f 73//52 72//52 30//52
f 74//53 68//53 67//53
f 67//54 73//54 74//54
f 67//55 70//55 73//55
f 35//56 75//56 76//56
f 76//57 77//57 35//57
f 75//58 78//58 79//58
f 79//59 76//59 75//59
f 8//60 80//60 79//60
f 79//61 78//61 8//61
f 80//62 81//62 82//62
f 82//63 79//63 80//63
f 13//64 83//64 82//64
f 82//65 81//65 13//65
f 83//66 77//66 76//66
f 76//67 82//67 83//67
f 76//68 79//68 82//68
f 27//69 84//69 85//69
f 85//70 86//70 27//70
f 84//71 87//71 88//71
f 88//72 85//72 84//72
f 4//73 89//73 88//73
f 88//74 87//74 4//74
f 89//75 90//75 91//75
f 91//76 88//76 89//76
f 22//77 92//77 91//77
f 91//78 90//78 22//78
f 92//79 86//79 85//79
f 85//80 91//80 92//80
f 85//81 88//81 91//81
f 34//82 93//82 94//82
f 94//83 95//83 34//83
f 93//84 96//84 97//84
f 97//84 94//84 93//84
f 20//85 98//85 97//85
f 97//86 96//86 20//86
f 98//87 99//87 100//87
f 100//88 97//88 98//88
f 5//89 101//89 100//89
f 100//90 99//90 5//90
f 101//91 95//91 94//91
f 94//92 100//92 101//92
f 94//93 97//93 100//93
f 31//94 102//94 103//94
f 103//95 104//95 31//95
f 102//96 105//96 106//96
f 106//96 103//96 102//96
f 1//97 107//97 106//97
f 106//98 105//98 1//98
f 107//99 108//99 109//99
f 109//100 106//100 107//100
f 26//101 110//101 109//101
f 109//102 108//102 26//102
f 110//103 104//103 103//103
f 103//104 109//104 110//104
f 103//105 106//105 109//105
f 9//106 111//106 112//106
f 112//107 113//107 9//107
f 111//108 114//108 115//108
f 115//109 112//109 111//109
f 116//110 117//110 115//110
f 115//111 114//111 116//111
f 117//112 118//112 119//112
f 119//113 115//113 117//113
f 15//114 120//114 119//114
f 119//115 118//115 15//115
f 120//116 121//116 122//116
f 122//117 119//117 120//117
f 24//118 123//118 122//118
f 122//119 121//119 24//119
f 123//120 113//120 112//120
f 112//121 122//121 123//121
f 112//122 115//122 119//122
f 119//123 122//123 112//123
f 124//124 125//124 126//124
f 126//125 127//125 124//125
f 125//126 128//126 129//126
f 129//127 126//127 125//127
f 12//128 130//128 129//128
f 129//129 128//129 12//129
f 130//130 131//130 132//130
f 132//131 129//131 130//131
f 29//132 133//132 132//132
f 132//133 131//133 29//133
f 133//134 134//134 135//134
f 135//135 132//135 133//135
f 18//136 136//136 135//136
f 135//137 134//137 18//137
f 136//138 127//138 126//138
f 126//139 135//139 136//139
f 126//140 129//140 132//140
f 132//141 135//141 126//141
f 19//142 137//142 138//142
f 138//143 139//143 19//143
f 137//144 140//144 141//144
f 141//145 138//145 137//145
f 32//146 142//146 141//146
f 141//147 140//147 32//147
f 142//148 143//148 144//148
f 144//149 141//149 142//149
f 25//150 145//150 144//150
f 144//151 143//151 25//151
f 145//152 146//152 147//152
f 147//153 144//153 145//153
f 6//154 148//154 147//154
f 147//155 146//155 6//155
f 148//156 139//156 138//156
f 138//157 147//157 148//157
f 138//158 141//158 144//158
f 144//159 147//159 138//159
f 7//160 149//160 150//160
f 150//161 151//161 7//161
f 149//162 152//162 153//162
f 153//163 150//163 149//163
f 28//164 154//164 153//164
f 153//165 152//165 28//165
f 154//166 155//166 156//166
f 156//167 153//167 154//167
f 21//168 157//168 156//168
f 156//169 155//169 21//169
f 157//170 158//170 159//170
f 159//171 156//171 157//171
f 14//172 160//172 159//172
f 159//173 158//173 14//173
f 160//174 151//174 150//174
f 150//175 159//175 160//175
f 150//176 153//176 156//176
f 156//177 159//177 150//177
f 33//178 36//178 41//178
f 41//178 56//178 33//178
f 56//179 41//179 38//179
f 38//179 59//179 56//179
f 37//180 61//180 59//180
f 59//180 38//180 37//180
f 24//181 23//181 49//181
f 49//182 123//182 24//182
f 123//183 49//183 55//183
f 55//184 113//184 123//184
f 113//185 55//185 10//185
f 10//186 9//186 113//186
f 3//187 2//187 69//187
f 69//188 52//188 3//188
f 52//189 69//189 66//189
f 66//189 53//189 52//189
f 53//190 66//190 11//190
f 11//191 10//191 53//191
f 18//192 17//192 63//192
f 63//193 136//193 18//193
f 136//194 63//194 62//194
f 62//195 127//195 136//195
f 127//196 62//196 61//196
f 61//197 124//197 127//197
f 34//198 33//198 58//198
f 58//198 93//198 34//198
f 93//199 58//199 65//199
f 65//199 96//199 93//199
f 96//200 65//200 17//200
f 17//200 20//200 96//200
f 2//201 1//201 105//201
f 105//201 71//201 2//201
f 71//202 105//202 102//202
f 102//202 72//202 71//202
f 72//203 102//203 31//203
f 31//203 30//203 72//203
f 6//204 5//204 99//204
f 99//205 148//205 6//205
f 148//206 99//206 98//206
f 98//206 139//206 148//206
f 139//207 98//207 20//207
f 20//208 19//208 139//208
f 35//209 34//209 95//209
f 95//209 75//209 35//209
f 75//210 95//210 101//210
f 101//210 78//210 75//210
f 78//211 101//211 5//211
f 5//211 8//211 78//211
f 1//212 4//212 87//212
f 87//213 107//213 1//213
f 107//214 87//214 84//214
f 84//215 108//215 107//215
f 108//216 84//216 27//216
f 27//217 26//217 108//217
f 14//218 13//218 81//218
f 81//219 160//219 14//219
f 160//220 81//220 80//220
f 80//221 151//221 160//221
f 151//222 80//222 8//222
f 8//223 7//223 151//223
f 36//224 35//224 77//224
f 77//224 43//224 36//224
f 43//225 77//225 83//225
f 83//225 44//225 43//225
f 44//226 83//226 13//226
f 13//227 16//227 44//227
f 4//228 3//228 50//228
f 50//228 89//228 4//228
f 89//229 50//229 47//229
f 47//229 90//229 89//229
f 90//230 47//230 23//230
f 23//230 22//230 90//230
f 16//231 15//231 118//231
f 118//232 46//232 16//232
f 46//233 118//233 117//233
f 117//233 40//233 46//233
f 116//234 37//234 40//234
f 40//235 117//235 116//235
f 30//236 29//236 131//236
f 131//237 74//237 30//237
f 74//238 131//238 130//238
f 130//239 68//239 74//239
f 68//240 130//240 12//240
f 12//241 11//241 68//241
f 26//242 25//242 143//242
f 143//243 110//243 26//243
f 110//244 143//244 142//244
f 142//245 104//245 110//245
f 104//246 142//246 32//246
f 32//247 31//247 104//247
f 22//248 21//248 155//248
f 155//249 92//249 22//249
f 92//250 155//250 154//250
f 154//251 86//251 92//251
f 86//252 154//252 28//252
f 28//253 27//253 86//253
f 21//254 24//254 121//254
f 121//254 157//254 21//254
f 157//255 121//255 120//255
f 120//255 158//255 157//255
f 158//256 120//256 15//256
f 15//257 14//257 158//257
f 25//258 28//258 152//258
f 152//258 145//258 25//258
f 145//259 152//259 149//259
f 149//259 146//259 145//259
f 146//260 149//260 7//260
f 7//260 6//260 146//260
f 29//5 32//5 140//5
f 140//5 133//5 29//5
f 133//5 140//5 137//5
f 137//5 134//5 133//5
f 134//5 137//5 19//5
f 19//5 18//5 134//5
f 9//261 12//261 128//261
f 128//261 111//261 9//261
f 111//262 128//262 125//262
f 125//262 114//262 111//262
f 114//263 125//263 124//263
f 124//263 116//263 114//263
f 37//264 116//264 124//264
f 124//264 61//264 37//264
