# Blender v2.90.0 OBJ File: ''
# www.blender.org
mtllib N00.mtl
o N00
v -0.061597 -0.059586 0.484613
v 0.002476 -0.059586 0.490147
v 0.000602 -0.059586 0.490147
v 0.063813 -0.059586 0.485007
v 0.118621 -0.059586 0.470198
v -0.117123 -0.059586 0.468765
v 0.167128 -0.059586 0.446633
v -0.166218 -0.059586 0.443733
v 0.209562 -0.059585 0.415228
v -0.209122 -0.059585 0.410645
v -0.001273 -0.059586 0.429219
v 0.000602 -0.059586 0.429219
v -0.040528 -0.059586 0.424688
v 0.039426 -0.059586 0.424688
v -0.075038 -0.059585 0.411635
v 0.073576 -0.059585 0.411635
v 0.246150 -0.059585 0.376897
v -0.105055 -0.059585 0.390876
v 0.103301 -0.059585 0.390876
v -0.246077 -0.059585 0.370631
v -0.130836 -0.059585 0.363222
v 0.128845 -0.059585 0.363222
v 0.277121 -0.059585 0.332554
v -0.277324 -0.059585 0.324822
v -0.152633 -0.059585 0.329489
v 0.150458 -0.059585 0.329489
v 0.302701 -0.059585 0.283115
v -0.170700 -0.059585 0.290491
v 0.168388 -0.059585 0.290491
v -0.303102 -0.059585 0.274343
v -0.185290 -0.059585 0.247040
v 0.182879 -0.059585 0.247040
v 0.323120 -0.059585 0.229493
v -0.323653 -0.059585 0.220328
v -0.196659 -0.059585 0.199950
v 0.194182 -0.059585 0.199950
v 0.338605 -0.059585 0.172604
v -0.339218 -0.059585 0.163904
v 0.202542 -0.059585 0.150034
v -0.205060 -0.059585 0.150034
v 0.349383 -0.059585 0.113362
v -0.350038 -0.059585 0.106201
v 0.208207 -0.059585 0.098108
v -0.210745 -0.059585 0.098108
v 0.355684 -0.059585 0.052680
v -0.356353 -0.059585 0.048349
v -0.213970 -0.059585 0.044983
v 0.211426 -0.059585 0.044983
v 0.357733 -0.059585 -0.008525
v -0.358405 -0.059585 -0.008525
v -0.214989 -0.059585 -0.008525
v 0.212443 -0.059585 -0.008525
v -0.356353 -0.059585 -0.072560
v -0.213808 -0.059585 -0.061479
v 0.211462 -0.059585 -0.061873
v 0.355682 -0.059585 -0.065865
v -0.210142 -0.059585 -0.114319
v 0.208347 -0.059585 -0.114970
v 0.349375 -0.059585 -0.124179
v -0.350038 -0.059585 -0.135245
v -0.203814 -0.059585 -0.166190
v 0.202835 -0.059585 -0.166981
v 0.338576 -0.059585 -0.182330
v -0.339218 -0.059585 -0.195775
v -0.194645 -0.059585 -0.216235
v 0.194668 -0.059585 -0.217068
v 0.323050 -0.059585 -0.239183
v -0.323653 -0.059585 -0.253347
v -0.182456 -0.059585 -0.263598
v 0.183585 -0.059585 -0.264395
v 0.302566 -0.059585 -0.293601
v -0.303102 -0.059585 -0.307156
v -0.167067 -0.059585 -0.307423
v 0.169325 -0.059585 -0.308125
v 0.276886 -0.059585 -0.344448
v -0.277324 -0.059585 -0.356399
v -0.148300 -0.059585 -0.346854
v 0.151628 -0.059585 -0.347424
v 0.245778 -0.059585 -0.390590
v -0.125976 -0.059585 -0.381035
v 0.130234 -0.059585 -0.381452
v -0.246077 -0.059585 -0.400272
v -0.099914 -0.059585 -0.409111
v 0.104882 -0.059585 -0.409374
v 0.209006 -0.059585 -0.430889
v -0.209122 -0.059585 -0.437971
v -0.069939 -0.059585 -0.430225
v 0.075312 -0.059585 -0.430355
v -0.035868 -0.059585 -0.443520
v 0.041263 -0.059585 -0.443556
v 0.166337 -0.059585 -0.464210
v -0.166218 -0.059585 -0.468691
v 0.002476 -0.059585 -0.448143
v 0.117536 -0.059585 -0.489416
v -0.117123 -0.059585 -0.491630
v 0.062369 -0.059585 -0.505374
v -0.061597 -0.059585 -0.505983
v 0.000602 -0.059585 -0.510945
v -0.061597 0.059586 0.484613
v 0.000602 0.059586 0.490147
v 0.002476 0.059586 0.490147
v 0.063813 0.059586 0.485007
v 0.118621 0.059586 0.470198
v -0.117123 0.059586 0.468765
v 0.167128 0.059582 0.446633
v -0.166218 0.059586 0.443733
v 0.209562 0.059586 0.415228
v -0.209122 0.059586 0.410645
v -0.001273 0.059586 0.429219
v 0.000602 0.059586 0.429219
v -0.040528 0.059586 0.424688
v 0.039426 0.059582 0.424688
v -0.075038 0.059586 0.411635
v 0.073576 0.059586 0.411635
v 0.246150 0.059586 0.376897
v -0.105055 0.059586 0.390876
v 0.103301 0.059582 0.390876
v -0.246077 0.059582 0.370631
v -0.130836 0.059586 0.363222
v 0.128845 0.059582 0.363222
v 0.277121 0.059587 0.332554
v -0.277324 0.059582 0.324822
v -0.152633 0.059587 0.329489
v 0.150458 0.059587 0.329489
v 0.302701 0.059587 0.283115
v -0.170700 0.059587 0.290491
v 0.168388 0.059582 0.290491
v -0.303102 0.059587 0.274343
v -0.185290 0.059587 0.247040
v 0.182879 0.059582 0.247040
v 0.323120 0.059587 0.229493
v -0.323653 0.059587 0.220328
v -0.196659 0.059587 0.199950
v 0.194182 0.059587 0.199950
v 0.338605 0.059587 0.172604
v -0.339218 0.059587 0.163904
v 0.202542 0.059587 0.150034
v -0.205060 0.059587 0.150034
v 0.349383 0.059587 0.113362
v -0.350038 0.059587 0.106201
v 0.208207 0.059587 0.098108
v -0.210745 0.059587 0.098108
v 0.355684 0.059587 0.052680
v -0.356353 0.059587 0.048349
v -0.213970 0.059587 0.044983
v 0.211426 0.059587 0.044983
v 0.357733 0.059587 -0.008525
v -0.358405 0.059582 -0.008525
v -0.214989 0.059587 -0.008525
v 0.212443 0.059582 -0.008525
v -0.356353 0.059587 -0.072560
v -0.213808 0.059587 -0.061479
v 0.211462 0.059587 -0.061873
v 0.355682 0.059587 -0.065865
v -0.210142 0.059587 -0.114319
v 0.208347 0.059587 -0.114970
v 0.349375 0.059582 -0.124179
v -0.350038 0.059587 -0.135245
v -0.203814 0.059587 -0.166190
v 0.202835 0.059587 -0.166981
v 0.338576 0.059587 -0.182330
v -0.339218 0.059587 -0.195775
v -0.194645 0.059587 -0.216235
v 0.194668 0.059587 -0.217068
v 0.323050 0.059587 -0.239183
v -0.323653 0.059587 -0.253347
v -0.182456 0.059582 -0.263598
v 0.183585 0.059587 -0.264395
v 0.302566 0.059587 -0.293601
v -0.303102 0.059587 -0.307156
v -0.167067 0.059582 -0.307423
v 0.169325 0.059587 -0.308125
v 0.276886 0.059587 -0.344448
v -0.277324 0.059587 -0.356399
v -0.148300 0.059587 -0.346854
v 0.151628 0.059587 -0.347424
v 0.245778 0.059582 -0.390590
v -0.125976 0.059582 -0.381035
v 0.130234 0.059587 -0.381452
v -0.246077 0.059587 -0.400272
v -0.099914 0.059582 -0.409111
v 0.104882 0.059587 -0.409374
v 0.209006 0.059587 -0.430889
v -0.209122 0.059582 -0.437971
v -0.069939 0.059587 -0.430225
v 0.075312 0.059587 -0.430355
v -0.035868 0.059587 -0.443520
v 0.041263 0.059587 -0.443556
v 0.166337 0.059587 -0.464210
v -0.166218 0.059587 -0.468691
v 0.002476 0.059587 -0.448143
v 0.117536 0.059587 -0.489416
v -0.117123 0.059587 -0.491630
v 0.062369 0.059582 -0.505374
v -0.061597 0.059587 -0.505983
v 0.000602 0.059587 -0.510945
vn 0.0000 -1.0000 -0.0000
vn 0.0000 -1.0000 0.0002
vn -0.0000 -1.0000 0.0001
vn 0.0000 1.0000 -0.0000
vn 0.0000 1.0000 -0.0001
vn 0.0000 1.0000 0.0001
vn -0.0001 1.0000 -0.0008
vn -0.0001 1.0000 -0.0011
vn -0.0000 1.0000 -0.0003
vn 0.0000 1.0000 -0.0002
vn 0.0000 1.0000 0.0004
vn 0.2779 0.0000 -0.9606
vn -0.9995 0.0000 -0.0320
vn -0.9507 0.0000 0.3100
vn -0.9983 0.0000 0.0586
vn -0.9844 0.0000 -0.1760
vn -0.5726 0.0000 -0.8198
vn 0.8292 0.0000 -0.5590
vn 0.9994 0.0000 0.0335
vn -0.1159 0.0000 -0.9933
vn -0.5822 0.0000 -0.8131
vn 0.9838 0.0000 0.1790
vn 0.9480 0.0000 -0.3183
vn 0.8372 0.0000 0.5468
vn -0.2503 0.0000 -0.9682
vn 0.7234 0.0000 0.6905
vn 0.9684 0.0000 0.2492
vn -0.3615 0.0000 0.9324
vn -0.7346 0.0000 0.6785
vn 0.8882 0.0000 0.4595
vn 0.0000 0.0000 1.0000
vn 0.9359 0.0000 -0.3523
vn 0.9942 0.0000 -0.1075
vn 0.1197 0.0000 0.9928
vn -0.9982 0.0000 -0.0605
vn -0.8906 0.0000 0.4548
vn -0.8145 0.0000 -0.5801
vn -0.9870 0.0000 0.1609
vn 0.9998 0.0000 -0.0190
vn 0.5758 0.0000 0.8176
vn -0.9863 0.0000 -0.1652
vn 0.4370 0.0000 0.8995
vn -0.9994 0.0000 0.0360
vn -0.7404 0.0000 0.6722
vn -0.4542 0.0000 0.8909
vn 0.9647 0.0000 -0.2634
vn -0.9829 0.0000 0.1843
vn 0.9861 0.0000 -0.1660
vn -0.9998 0.0000 0.0184
vn -0.9342 0.0000 -0.3568
vn 0.9976 0.0000 0.0692
vn 0.5688 0.0000 -0.8225
vn 0.4589 0.0000 -0.8885
vn 0.0835 0.0000 0.9965
vn -0.9950 0.0000 -0.1002
vn 0.8399 0.0000 -0.5427
vn -0.7346 0.0000 -0.6785
vn 0.3538 0.0000 -0.9353
vn -0.9118 0.0000 0.4106
vn -0.0886 0.0000 0.9961
vn 0.9947 0.0000 0.1033
vn 0.3635 0.0000 0.9316
vn -0.9086 0.0000 -0.4177
vn -0.9944 0.0000 0.1054
vn -0.4233 0.0000 -0.9060
vn 0.0898 0.0000 -0.9960
vn -0.9653 0.0000 -0.2610
vn -0.3570 0.0000 -0.9341
vn 0.9649 0.0000 0.2626
vn -0.8261 0.0000 0.5635
vn 0.7387 0.0000 -0.6740
vn 0.9435 0.0000 0.3313
vn -0.0795 0.0000 -0.9968
vn 0.8198 0.0000 0.5726
vn 0.8926 0.0000 -0.4508
vn 0.9836 0.0000 0.1802
vn 0.9994 0.0000 -0.0357
vn -0.1174 0.0000 0.9931
vn 0.9832 0.0000 -0.1826
vn 0.9029 0.0000 0.4297
vn -0.9941 0.0000 -0.1085
vn -0.9346 0.0000 0.3556
vn -0.7141 0.0000 -0.7000
vn -0.9737 0.0000 0.2280
vn -0.9941 0.0000 0.1085
vn 0.7314 0.0000 -0.6819
vn 0.7329 0.0000 0.6803
vn -0.8859 0.0000 -0.4638
vn 0.9345 0.0000 0.3559
vn 0.0000 0.0000 -1.0000
vn 0.9941 0.0000 -0.1088
vn -0.8420 0.0000 -0.5395
vn -0.6107 0.0000 0.7919
vn 0.9982 0.0000 -0.0606
vn 0.9721 0.0000 -0.2347
vn -0.9724 0.0000 -0.2334
vn -0.2745 0.0000 0.9616
vn -0.2744 0.0000 0.9616
vn 0.9998 0.0000 0.0223
vn 0.5949 0.0000 0.8038
vn -0.9640 0.0000 0.2659
vn 0.9074 0.0000 -0.4204
vn 0.1147 0.0000 -0.9934
vn -0.5787 0.0000 0.8156
vn 0.6155 0.0000 -0.7881
vn 0.9926 0.0000 0.1211
vn 0.2609 0.0000 0.9654
vn -0.9486 0.0000 -0.3164
vn -0.8466 0.0000 0.5323
vn -0.9998 0.0000 -0.0190
usemtl N00
s 1
f 1//1 2//1 3//1
f 1//1 4//1 2//1
f 1//1 5//1 4//1
f 6//1 5//1 1//1
f 6//1 7//1 5//1
f 8//1 7//1 6//1
f 8//1 9//1 7//1
f 10//1 11//1 8//1
f 11//1 12//2 8//1
f 12//2 9//1 8//1
f 10//1 13//3 11//1
f 14//3 9//1 12//2
f 10//1 15//1 13//3
f 16//1 9//1 14//3
f 16//1 17//1 9//1
f 10//1 18//1 15//1
f 19//1 17//1 16//1
f 20//1 18//1 10//1
f 20//1 21//1 18//1
f 22//1 17//1 19//1
f 22//1 23//1 17//1
f 24//1 21//1 20//1
f 24//1 25//1 21//1
f 26//1 23//1 22//1
f 26//1 27//1 23//1
f 24//1 28//1 25//1
f 29//1 27//1 26//1
f 30//1 28//1 24//1
f 30//1 31//1 28//1
f 32//1 27//1 29//1
f 32//1 33//1 27//1
f 34//1 31//1 30//1
f 34//1 35//1 31//1
f 36//1 33//1 32//1
f 36//1 37//1 33//1
f 38//1 35//1 34//1
f 39//1 37//1 36//1
f 38//1 40//1 35//1
f 39//1 41//1 37//1
f 42//1 40//1 38//1
f 43//1 41//1 39//1
f 42//1 44//1 40//1
f 43//1 45//1 41//1
f 46//1 44//1 42//1
f 46//1 47//1 44//1
f 48//1 45//1 43//1
f 48//1 49//1 45//1
f 50//1 47//1 46//1
f 50//1 51//1 47//1
f 52//1 49//1 48//1
f 53//1 51//1 50//1
f 53//1 54//1 51//1
f 55//1 49//1 52//1
f 55//1 56//1 49//1
f 53//1 57//1 54//1
f 58//1 56//1 55//1
f 58//1 59//1 56//1
f 60//1 57//1 53//1
f 60//1 61//1 57//1
f 62//1 59//1 58//1
f 62//1 63//1 59//1
f 64//1 61//1 60//1
f 64//1 65//1 61//1
f 66//1 63//1 62//1
f 66//1 67//1 63//1
f 68//1 65//1 64//1
f 68//1 69//1 65//1
f 70//1 67//1 66//1
f 70//1 71//1 67//1
f 72//1 69//1 68//1
f 72//1 73//1 69//1
f 74//1 71//1 70//1
f 74//1 75//1 71//1
f 76//1 73//1 72//1
f 76//1 77//1 73//1
f 78//1 75//1 74//1
f 78//1 79//1 75//1
f 76//1 80//1 77//1
f 81//1 79//1 78//1
f 82//1 80//1 76//1
f 82//1 83//1 80//1
f 84//1 79//1 81//1
f 84//1 85//1 79//1
f 86//1 83//1 82//1
f 86//1 87//1 83//1
f 88//1 85//1 84//1
f 86//1 89//1 87//1
f 90//1 85//1 88//1
f 90//1 91//1 85//1
f 92//1 89//1 86//1
f 92//1 93//1 89//1
f 93//1 91//1 90//1
f 92//1 91//1 93//1
f 92//1 94//1 91//1
f 95//1 94//1 92//1
f 95//1 96//1 94//1
f 97//1 96//1 95//1
f 97//1 98//1 96//1
f 99//4 100//4 101//4
f 99//4 101//4 102//4
f 99//4 102//4 103//5
f 104//4 99//4 103//5
f 104//4 103//5 105//6
f 106//4 104//4 105//6
f 106//4 105//6 107//7
f 108//5 106//4 109//4
f 109//4 106//4 110//8
f 110//8 106//4 107//7
f 108//5 109//4 111//4
f 112//9 110//8 107//7
f 108//5 111//4 113//4
f 114//10 112//9 107//7
f 114//10 107//7 115//4
f 108//5 113//4 116//4
f 117//10 114//10 115//4
f 118//4 108//5 116//4
f 118//4 116//4 119//4
f 120//4 117//10 115//4
f 120//4 115//4 121//4
f 122//6 118//4 119//4
f 122//6 119//4 123//4
f 124//4 120//4 121//4
f 124//4 121//4 125//4
f 122//6 123//4 126//4
f 127//5 124//4 125//4
f 128//4 122//6 126//4
f 128//4 126//4 129//4
f 130//4 127//5 125//4
f 130//4 125//4 131//4
f 132//4 128//4 129//4
f 132//4 129//4 133//4
f 134//4 130//4 131//4
f 134//4 131//4 135//4
f 136//4 132//4 133//4
f 137//4 134//4 135//4
f 136//4 133//4 138//4
f 137//4 135//4 139//4
f 140//4 136//4 138//4
f 141//4 137//4 139//4
f 140//4 138//4 142//4
f 141//4 139//4 143//4
f 144//4 140//4 142//4
f 144//4 142//4 145//4
f 146//4 141//4 143//4
f 146//4 143//4 147//4
f 148//4 144//4 145//4
f 148//4 145//4 149//4
f 150//4 146//4 147//4
f 151//4 148//4 149//4
f 151//4 149//4 152//4
f 153//4 150//4 147//4
f 153//4 147//4 154//4
f 151//4 152//4 155//4
f 156//4 153//4 154//4
f 156//4 154//4 157//4
f 158//4 151//4 155//4
f 158//4 155//4 159//4
f 160//4 156//4 157//4
f 160//4 157//4 161//4
f 162//4 158//4 159//4
f 162//4 159//4 163//4
f 164//4 160//4 161//4
f 164//4 161//4 165//4
f 166//4 162//4 163//4
f 166//4 163//4 167//4
f 168//4 164//4 165//4
f 168//4 165//4 169//4
f 170//4 166//4 167//4
f 170//4 167//4 171//6
f 172//4 168//4 169//4
f 172//4 169//4 173//4
f 174//4 170//4 171//6
f 174//4 171//6 175//4
f 176//4 172//4 173//4
f 176//4 173//4 177//4
f 174//4 175//4 178//4
f 179//4 176//4 177//4
f 180//4 174//4 178//4
f 180//4 178//4 181//6
f 182//4 179//4 177//4
f 182//4 177//4 183//6
f 184//4 180//4 181//6
f 184//4 181//6 185//4
f 186//4 182//4 183//6
f 184//4 185//4 187//4
f 188//4 186//4 183//6
f 188//4 183//6 189//4
f 190//6 184//4 187//4
f 190//6 187//4 191//4
f 191//4 188//4 189//4
f 190//6 191//4 189//4
f 190//6 189//4 192//4
f 193//4 190//6 192//4
f 193//4 192//4 194//10
f 195//6 193//4 194//10
f 195//6 194//10 196//11
f 94//12 96//12 194//12
f 194//12 192//12 94//12
f 53//13 50//13 148//13
f 148//13 151//13 53//13
f 74//14 70//14 168//14
f 168//14 172//14 74//14
f 58//15 55//15 153//15
f 153//15 156//15 58//15
f 64//16 60//16 158//16
f 158//16 162//16 64//16
f 19//17 16//17 114//17
f 114//17 117//17 19//17
f 75//18 79//18 177//18
f 177//18 173//18 75//18
f 45//19 49//19 147//19
f 147//19 143//19 45//19
f 14//20 12//20 110//20
f 110//20 112//20 14//20
f 92//21 86//21 184//21
f 184//21 190//21 92//21
f 37//22 41//22 139//22
f 139//22 135//22 37//22
f 28//23 31//23 129//23
f 129//23 126//23 28//23
f 77//24 80//24 178//24
f 178//24 175//24 77//24
f 97//25 95//25 193//25
f 193//25 195//25 97//25
f 9//26 17//26 115//26
f 115//26 107//26 9//26
f 65//27 69//27 167//27
f 167//27 163//27 65//27
f 90//28 88//28 186//28
f 186//28 188//28 90//28
f 20//29 10//29 108//29
f 108//29 118//29 20//29
f 23//30 27//30 125//30
f 125//30 121//30 23//30
f 3//31 2//31 101//31
f 101//31 100//31 3//31
f 67//32 71//32 169//32
f 169//32 165//32 67//32
f 56//33 59//33 157//33
f 157//33 154//33 56//33
f 89//34 93//34 191//34
f 191//34 187//34 89//34
f 48//35 43//35 141//35
f 141//35 146//35 48//35
f 30//36 24//36 122//36
f 122//36 128//36 30//36
f 82//37 76//37 174//37
f 174//37 180//37 82//37
f 66//38 62//38 160//38
f 160//38 164//38 66//38
f 47//39 51//39 149//39
f 149//39 145//39 47//39
f 83//40 87//40 185//40
f 185//40 181//40 83//40
f 39//41 36//41 134//41
f 134//41 137//41 39//41
f 5//42 7//42 105//42
f 105//42 103//42 5//42
f 50//43 46//43 144//43
f 144//43 148//43 50//43
f 84//44 81//44 179//44
f 179//44 182//44 84//44
f 8//45 6//45 104//45
f 104//45 106//45 8//45
f 63//46 67//46 165//46
f 165//46 161//46 63//46
f 42//47 38//47 136//47
f 136//47 140//47 42//47
f 35//48 40//48 138//48
f 138//48 133//48 35//48
f 55//49 52//49 150//49
f 150//49 153//49 55//49
f 72//50 68//50 166//50
f 166//50 170//50 72//50
f 54//51 57//51 155//51
f 155//51 152//51 54//51
f 15//52 18//52 116//52
f 116//52 113//52 15//52
f 91//53 94//53 192//53
f 192//53 189//53 91//53
f 2//54 4//54 102//54
f 102//54 101//54 2//54
f 60//55 53//55 151//55
f 151//55 158//55 60//55
f 21//56 25//56 123//56
f 123//56 119//56 21//56
f 22//57 19//57 117//57
f 117//57 120//57 22//57
f 13//58 15//58 113//58
f 113//58 111//58 13//58
f 78//59 74//59 172//59
f 172//59 176//59 78//59
f 1//60 3//60 100//60
f 100//60 99//60 1//60
f 41//61 45//61 143//61
f 143//61 139//61 41//61
f 87//62 89//62 187//62
f 187//62 185//62 87//62
f 29//63 26//63 124//63
f 124//63 127//63 29//63
f 62//64 58//64 156//64
f 156//64 160//64 62//64
f 95//65 92//65 190//65
f 190//65 193//65 95//65
f 96//66 98//66 196//66
f 196//66 194//66 96//66
f 68//67 64//67 162//67
f 162//67 166//67 68//67
f 16//68 14//68 112//68
f 112//68 114//68 16//68
f 33//69 37//69 135//69
f 135//69 131//69 33//69
f 24//70 20//70 118//70
f 118//70 122//70 24//70
f 79//71 85//71 183//71
f 183//71 177//71 79//71
f 69//72 73//72 171//72
f 171//72 167//72 69//72
f 98//73 97//73 195//73
f 195//73 196//73 98//73
f 17//74 23//74 121//74
f 121//74 115//74 17//74
f 71//75 75//75 173//75
f 173//75 169//75 71//75
f 61//76 65//76 163//76
f 163//76 159//76 61//76
f 49//77 56//77 154//77
f 154//77 147//77 49//77
f 93//78 90//78 188//78
f 188//78 191//78 93//78
f 59//79 63//79 161//79
f 161//79 157//79 59//79
f 73//80 77//80 175//80
f 175//80 171//80 73//80
f 43//81 39//81 137//81
f 137//81 141//81 43//81
f 34//82 30//82 128//82
f 128//82 132//82 34//82
f 86//83 82//83 180//83
f 180//83 184//83 86//83
f 70//84 66//84 164//84
f 164//84 168//84 70//84
f 46//85 42//85 140//85
f 140//85 144//85 46//85
f 18//86 21//86 119//86
f 119//86 116//86 18//86
f 80//87 83//87 181//87
f 181//87 178//87 80//87
f 76//88 72//88 170//88
f 170//88 174//88 76//88
f 27//89 33//89 131//89
f 131//89 125//89 27//89
f 12//90 11//90 109//90
f 109//90 110//90 12//90
f 40//91 44//91 142//91
f 142//91 138//91 40//91
f 26//92 22//92 120//92
f 120//92 124//92 26//92
f 10//93 8//93 106//93
f 106//93 108//93 10//93
f 44//94 47//94 145//94
f 145//94 142//94 44//94
f 31//95 35//95 133//95
f 133//95 129//95 31//95
f 36//96 32//96 130//96
f 130//96 134//96 36//96
f 6//97 1//97 99//97
f 99//97 104//98 6//97
f 51//99 54//99 152//99
f 152//99 149//99 51//99
f 7//100 9//100 107//100
f 107//100 105//100 7//100
f 38//101 34//101 132//101
f 132//101 136//101 38//101
f 25//102 28//102 126//102
f 126//102 123//102 25//102
f 11//103 13//103 111//103
f 111//103 109//103 11//103
f 88//104 84//104 182//104
f 182//104 186//104 88//104
f 85//105 91//105 189//105
f 189//105 183//105 85//105
f 57//106 61//106 159//106
f 159//106 155//106 57//106
f 4//107 5//107 103//107
f 103//107 102//107 4//107
f 32//108 29//108 127//108
f 127//108 130//108 32//108
f 81//109 78//109 176//109
f 176//109 179//109 81//109
f 52//110 48//110 146//110
f 146//110 150//110 52//110
