# Blender v2.90.0 OBJ File: ''
# www.blender.org
mtllib N01.mtl
o N01
v 0.088483 -0.060870 0.505851
v 0.111446 -0.060870 -0.276371
v 0.111446 -0.060870 0.515541
v 0.065071 -0.060870 0.496430
v 0.041199 -0.060870 0.487308
v 0.016860 -0.060870 0.478516
v -0.007959 -0.060870 0.470082
v -0.033266 -0.060870 0.462037
v -0.059073 -0.060870 0.454411
v -0.026763 -0.060870 0.338781
v -0.085387 -0.060870 0.447235
v -0.030094 -0.060870 0.348409
v -0.112221 -0.060870 0.440537
v -0.034823 -0.060870 0.355986
v -0.139584 -0.060870 0.434347
v -0.041187 -0.060870 0.361787
v -0.167485 -0.060870 0.428697
v -0.195934 -0.060870 0.423615
v -0.049426 -0.060870 0.366089
v -0.195934 -0.060870 0.375736
v -0.105922 -0.060870 0.373821
v -0.087789 -0.060870 0.372757
v -0.072487 -0.060870 0.371298
v -0.059779 -0.060870 0.369167
v -0.024588 -0.060870 0.326825
v -0.023332 -0.060870 0.312266
v -0.022753 -0.060870 0.294827
v -0.022613 -0.060870 0.274233
v -0.022613 -0.060870 -0.276371
v -0.022879 -0.060870 -0.306761
v 0.111752 -0.060870 -0.307163
v -0.024015 -0.060870 -0.332610
v 0.113007 -0.060870 -0.333275
v -0.026534 -0.060870 -0.354323
v 0.115725 -0.060870 -0.355131
v -0.030948 -0.060870 -0.372305
v 0.120419 -0.060870 -0.373156
v -0.037769 -0.060870 -0.386962
v 0.127600 -0.060870 -0.387777
v -0.047510 -0.060870 -0.398700
v 0.137780 -0.060870 -0.399419
v -0.060682 -0.060870 -0.407925
v 0.151470 -0.060870 -0.408506
v -0.077798 -0.060870 -0.415041
v 0.169184 -0.060870 -0.415467
v -0.099369 -0.060870 -0.420455
v 0.191434 -0.060870 -0.420724
v -0.125907 -0.060870 -0.424572
v 0.218730 -0.060870 -0.424705
v -0.157925 -0.060870 -0.427798
v 0.251585 -0.060870 -0.427835
v -0.195934 -0.060870 -0.430540
v 0.290512 -0.060870 -0.430540
v -0.195934 -0.060870 -0.486079
v 0.290512 -0.060870 -0.486079
v 0.088483 0.060872 0.505851
v 0.111446 0.060872 0.515541
v 0.111446 0.060868 -0.276371
v 0.065071 0.060872 0.496430
v 0.041199 0.060872 0.487308
v 0.016860 0.060868 0.478516
v -0.007959 0.060872 0.470082
v -0.033266 0.060872 0.462037
v -0.059073 0.060872 0.454411
v -0.026763 0.060872 0.338781
v -0.085387 0.060872 0.447235
v -0.030094 0.060872 0.348409
v -0.112221 0.060868 0.440537
v -0.034823 0.060872 0.355986
v -0.139584 0.060868 0.434347
v -0.041187 0.060872 0.361787
v -0.167485 0.060872 0.428697
v -0.195934 0.060868 0.423615
v -0.049426 0.060872 0.366089
v -0.195934 0.060872 0.375736
v -0.105922 0.060872 0.373821
v -0.087789 0.060868 0.372757
v -0.072487 0.060872 0.371298
v -0.059779 0.060872 0.369167
v -0.024588 0.060868 0.326825
v -0.023332 0.060872 0.312266
v -0.022753 0.060872 0.294827
v -0.022613 0.060872 0.274233
v -0.022613 0.060872 -0.276371
v -0.022879 0.060872 -0.306761
v 0.111752 0.060872 -0.307163
v -0.024015 0.060872 -0.332610
v 0.113007 0.060868 -0.333275
v -0.026534 0.060872 -0.354323
v 0.115725 0.060868 -0.355131
v -0.030948 0.060872 -0.372305
v 0.120419 0.060868 -0.373156
v -0.037769 0.060872 -0.386962
v 0.127600 0.060872 -0.387777
v -0.047510 0.060872 -0.398700
v 0.137780 0.060872 -0.399419
v -0.060682 0.060868 -0.407925
v 0.151470 0.060872 -0.408506
v -0.077798 0.060872 -0.415041
v 0.169184 0.060872 -0.415467
v -0.099369 0.060872 -0.420455
v 0.191434 0.060872 -0.420724
v -0.125907 0.060872 -0.424572
v 0.218730 0.060872 -0.424705
v -0.157925 0.060868 -0.427798
v 0.251585 0.060872 -0.427835
v -0.195934 0.060868 -0.430540
v 0.290512 0.060872 -0.430540
v -0.195934 0.060872 -0.486079
v 0.290512 0.060872 -0.486079
vn 0.0000 -1.0000 0.0000
vn 0.0000 1.0000 -0.0000
vn -0.0019 1.0000 -0.0006
vn -0.0001 1.0000 -0.0000
vn 0.0001 1.0000 0.0000
vn -0.0036 1.0000 -0.0008
vn 0.0001 1.0000 0.0002
vn 0.0003 1.0000 0.0003
vn -0.0001 1.0000 -0.0001
vn 0.0000 1.0000 0.0001
vn 0.0000 1.0000 0.0002
vn -0.0002 1.0000 -0.0004
vn 0.0001 1.0000 0.0003
vn -0.0007 1.0000 -0.0002
vn 0.0005 1.0000 0.0001
vn 0.0000 1.0000 -0.0001
vn 0.0000 1.0000 0.0003
vn 0.0000 1.0000 -0.0003
vn 0.0000 1.0000 -0.0004
vn 0.0000 1.0000 -0.0005
vn -1.0000 0.0000 0.0000
vn -0.2422 0.0000 0.9702
vn 0.0948 0.0000 0.9955
vn -0.1758 0.0000 0.9844
vn -0.9990 0.0000 0.0439
vn 1.0000 -0.0000 0.0099
vn 1.0000 -0.0000 0.0000
vn -0.4628 0.0000 -0.8864
vn -0.2206 0.0000 0.9754
vn 0.1443 0.0000 0.9895
vn 0.9677 0.0000 0.2520
vn -0.9450 0.0000 -0.3270
vn 0.2300 0.0000 0.9732
vn -1.0000 0.0000 0.0087
vn 0.0000 0.0000 -1.0000
vn -0.1654 0.0000 -0.9862
vn -0.3839 0.0000 0.9234
vn -0.8484 0.0000 -0.5294
vn -0.2631 0.0000 0.9648
vn -0.1003 0.0000 0.9950
vn -0.3569 0.0000 0.9341
vn -0.2850 0.0000 -0.9585
vn -0.3888 0.0000 0.9213
vn 0.0693 0.0000 0.9976
vn -0.9712 0.0000 0.2384
vn -0.1985 0.0000 0.9801
vn -0.6737 0.0000 -0.7390
vn -0.1533 0.0000 0.9882
vn 0.5530 0.0000 0.8332
vn -0.9839 0.0000 -0.1790
vn -0.3217 0.0000 0.9468
vn -0.3733 0.0000 0.9277
vn -0.5736 0.0000 0.8191
vn -0.0949 0.0000 -0.9955
vn 0.8976 0.0000 0.4408
vn -0.2434 0.0000 0.9699
vn 0.7528 0.0000 0.6582
vn -1.0000 -0.0000 -0.0068
vn -0.0719 0.0000 0.9974
vn -0.3029 0.0000 0.9530
vn -0.7695 0.0000 0.6386
vn -0.2834 0.0000 0.9590
vn -0.9066 0.0000 0.4219
vn -0.0213 0.0000 -0.9998
vn 0.9924 0.0000 0.1234
vn -0.9995 0.0000 -0.0331
vn 0.3657 0.0000 0.9307
vn -0.9963 0.0000 -0.0860
vn 0.9988 0.0000 0.0480
vn -0.9933 0.0000 0.1153
vn -0.3398 0.0000 0.9405
vn -0.3397 0.0000 0.9405
vn -0.0586 0.0000 -0.9983
usemtl N01
s 1
f 1//1 2//1 3//1
f 4//1 2//1 1//1
f 5//1 2//1 4//1
f 6//1 2//1 5//1
f 7//1 2//1 6//1
f 8//1 2//1 7//1
f 9//1 10//1 8//1
f 10//1 2//1 8//1
f 11//1 12//1 9//1
f 12//1 10//1 9//1
f 13//1 14//1 11//1
f 14//1 12//1 11//1
f 15//1 16//1 13//1
f 16//1 14//1 13//1
f 17//1 16//1 15//1
f 18//1 19//1 17//1
f 19//1 16//1 17//1
f 20//1 21//1 18//1
f 21//1 22//1 18//1
f 22//1 23//1 18//1
f 23//1 24//1 18//1
f 24//1 19//1 18//1
f 25//1 2//1 10//1
f 26//1 2//1 25//1
f 27//1 2//1 26//1
f 28//1 2//1 27//1
f 29//1 2//1 28//1
f 30//1 2//1 29//1
f 30//1 31//1 2//1
f 32//1 31//1 30//1
f 32//1 33//1 31//1
f 34//1 33//1 32//1
f 34//1 35//1 33//1
f 36//1 35//1 34//1
f 36//1 37//1 35//1
f 38//1 37//1 36//1
f 38//1 39//1 37//1
f 40//1 39//1 38//1
f 40//1 41//1 39//1
f 42//1 41//1 40//1
f 42//1 43//1 41//1
f 44//1 43//1 42//1
f 44//1 45//1 43//1
f 46//1 45//1 44//1
f 46//1 47//1 45//1
f 48//1 47//1 46//1
f 48//1 49//1 47//1
f 50//1 49//1 48//1
f 50//1 51//1 49//1
f 52//1 51//1 50//1
f 52//1 53//1 51//1
f 54//1 53//1 52//1
f 54//1 55//1 53//1
f 56//2 57//2 58//3
f 59//2 56//2 58//3
f 60//4 59//2 58//3
f 61//2 60//4 58//3
f 62//5 61//2 58//3
f 63//2 62//5 58//3
f 64//2 63//2 65//6
f 65//6 63//2 58//3
f 66//4 64//2 67//2
f 67//2 64//2 65//6
f 68//4 66//4 69//2
f 69//2 66//4 67//2
f 70//7 68//4 71//8
f 71//8 68//4 69//2
f 72//9 70//7 71//8
f 73//2 72//9 74//2
f 74//2 72//9 71//8
f 75//10 73//2 76//11
f 76//11 73//2 77//7
f 77//7 73//2 78//12
f 78//12 73//2 79//13
f 79//13 73//2 74//2
f 80//14 65//6 58//3
f 81//15 80//14 58//3
f 82//2 81//15 58//3
f 83//2 82//2 58//3
f 84//2 83//2 58//3
f 85//2 84//2 58//3
f 85//2 58//3 86//2
f 87//2 85//2 86//2
f 87//2 86//2 88//16
f 89//2 87//2 88//16
f 89//2 88//16 90//2
f 91//2 89//2 90//2
f 91//2 90//2 92//10
f 93//2 91//2 92//10
f 93//2 92//10 94//10
f 95//2 93//2 94//10
f 95//2 94//10 96//2
f 97//2 95//2 96//2
f 97//2 96//2 98//17
f 99//10 97//2 98//17
f 99//10 98//17 100//2
f 101//2 99//10 100//2
f 101//2 100//2 102//2
f 103//18 101//2 102//2
f 103//18 102//2 104//19
f 105//20 103//18 104//19
f 105//20 104//19 106//16
f 107//10 105//20 106//16
f 107//10 106//16 108//2
f 109//10 107//10 108//2
f 109//10 108//2 110//2
f 54//21 52//21 107//21
f 107//21 109//21 54//21
f 13//22 11//22 66//22
f 66//22 68//22 13//22
f 49//23 51//23 106//23
f 106//23 104//23 49//23
f 18//24 17//24 72//24
f 72//24 73//24 18//24
f 32//25 30//25 85//25
f 85//25 87//25 32//25
f 2//26 31//26 86//26
f 86//26 58//27 2//26
f 16//28 19//28 74//28
f 74//28 71//28 16//28
f 15//29 13//29 68//29
f 68//29 70//29 15//29
f 47//30 49//30 104//30
f 104//30 102//30 47//30
f 35//31 37//31 92//31
f 92//31 90//31 35//31
f 10//32 12//32 67//32
f 67//32 65//32 10//32
f 45//33 47//33 102//33
f 102//33 100//33 45//33
f 30//34 29//21 84//34
f 84//34 85//34 30//34
f 55//35 54//35 109//35
f 109//35 110//35 55//35
f 24//36 23//36 78//36
f 78//36 79//36 24//36
f 44//37 42//37 97//37
f 97//37 99//37 44//37
f 12//38 14//38 69//38
f 69//38 67//38 12//38
f 11//39 9//39 64//39
f 64//39 66//39 11//39
f 50//40 48//40 103//40
f 103//40 105//40 50//40
f 5//41 4//41 59//41
f 59//41 60//41 5//41
f 19//42 24//42 79//42
f 79//42 74//42 19//42
f 1//43 3//43 57//43
f 57//43 56//43 1//43
f 51//44 53//44 108//44
f 108//44 106//44 51//44
f 36//45 34//45 89//45
f 89//45 91//45 36//45
f 17//46 15//46 70//46
f 70//46 72//46 17//46
f 14//47 16//47 71//47
f 71//47 69//47 14//47
f 48//48 46//48 101//48
f 101//48 103//48 48//48
f 41//49 43//49 98//49
f 98//49 96//49 41//49
f 25//50 10//50 65//50
f 65//50 80//50 25//50
f 7//51 6//51 61//51
f 61//51 62//51 7//51
f 4//52 1//52 56//52
f 56//52 59//52 4//52
f 42//53 40//53 95//53
f 95//53 97//53 42//53
f 23//54 22//54 77//54
f 77//54 78//54 23//54
f 37//55 39//55 94//55
f 94//55 92//55 37//55
f 46//56 44//56 99//56
f 99//56 101//56 46//56
f 39//57 41//57 96//57
f 96//57 94//57 39//57
f 20//21 18//21 73//21
f 73//21 75//21 20//21
f 28//58 27//58 82//58
f 82//58 83//21 28//58
f 52//59 50//59 105//59
f 105//59 107//59 52//59
f 8//60 7//60 62//60
f 62//60 63//60 8//60
f 40//61 38//61 93//61
f 93//61 95//61 40//61
f 9//62 8//62 63//62
f 63//62 64//62 9//62
f 3//27 2//26 58//27
f 58//27 57//27 3//27
f 38//63 36//63 91//63
f 91//63 93//63 38//63
f 21//64 20//64 75//64
f 75//64 76//64 21//64
f 33//65 35//65 90//65
f 90//65 88//65 33//65
f 27//66 26//66 81//66
f 81//66 82//66 27//66
f 43//67 45//67 100//67
f 100//67 98//67 43//67
f 53//27 55//27 110//27
f 110//27 108//27 53//27
f 26//68 25//68 80//68
f 80//68 81//68 26//68
f 29//21 28//58 83//21
f 83//21 84//34 29//21
f 31//69 33//69 88//69
f 88//69 86//69 31//69
f 34//70 32//70 87//70
f 87//70 89//70 34//70
f 6//71 5//71 60//72
f 60//72 61//72 6//71
f 22//73 21//73 76//73
f 76//73 77//73 22//73
