# Blender v2.90.0 OBJ File: ''
# www.blender.org
mtllib N02.mtl
o N02
v -0.084019 -0.060813 0.459787
v -0.019871 -0.060813 0.458712
v -0.058979 -0.060813 0.460761
v -0.108393 -0.060813 0.456957
v 0.018223 -0.060813 0.452660
v -0.132029 -0.060813 0.452405
v 0.054849 -0.060813 0.442749
v -0.154858 -0.060813 0.446269
v -0.176809 -0.060813 0.438685
v 0.089551 -0.060813 0.429120
v -0.197815 -0.060813 0.429789
v -0.217803 -0.060813 0.419717
v 0.121877 -0.060813 0.411918
v -0.236705 -0.060813 0.408605
v 0.151367 -0.060813 0.391283
v -0.254452 -0.060813 0.396590
v -0.270972 -0.060813 0.383807
v 0.177570 -0.060813 0.367361
v -0.286197 -0.060813 0.370393
v -0.300057 -0.060813 0.356485
v 0.200029 -0.060813 0.340293
v -0.399550 -0.060813 0.213942
v -0.218281 -0.060813 0.315136
v -0.193763 -0.060813 0.327097
v -0.167661 -0.060813 0.336209
v -0.139959 -0.060813 0.342012
v -0.110638 -0.060813 0.344048
v -0.078670 -0.060813 0.342541
v -0.048854 -0.060813 0.338047
v 0.218289 -0.060813 0.310222
v -0.021310 -0.060813 0.330610
v 0.003842 -0.060813 0.320274
v 0.026483 -0.060813 0.307080
v -0.241230 -0.060813 0.300782
v 0.231895 -0.060813 0.277290
v 0.046493 -0.060813 0.291073
v -0.262628 -0.060813 0.284496
v 0.063753 -0.060813 0.272296
v -0.282491 -0.060813 0.266735
v 0.240393 -0.060813 0.241642
v 0.078143 -0.060813 0.250791
v -0.300837 -0.060813 0.247957
v 0.089543 -0.060813 0.226603
v -0.317681 -0.060813 0.228621
v 0.243326 -0.060813 0.203419
v -0.333040 -0.060813 0.209186
v 0.097834 -0.060813 0.199774
v -0.359370 -0.060813 0.171849
v -0.346931 -0.060813 0.190109
v 0.242084 -0.060813 0.168777
v 0.102896 -0.060813 0.170347
v 0.104611 -0.060813 0.138366
v 0.238255 -0.060813 0.135872
v 0.102174 -0.060813 0.105321
v 0.231682 -0.060813 0.104329
v 0.095163 -0.060813 0.072671
v 0.222209 -0.060813 0.073774
v 0.209680 -0.060813 0.043829
v 0.084027 -0.060813 0.040413
v 0.193939 -0.060813 0.014120
v 0.069214 -0.060813 0.008544
v 0.174829 -0.060813 -0.015729
v 0.051172 -0.060813 -0.022941
v 0.152196 -0.060813 -0.046092
v 0.030350 -0.060813 -0.054042
v 0.125881 -0.060813 -0.077346
v 0.007196 -0.060813 -0.084766
v 0.095730 -0.060813 -0.109865
v -0.017842 -0.060813 -0.115114
v 0.061587 -0.060813 -0.144026
v -0.044315 -0.060813 -0.145090
v 0.023294 -0.060813 -0.180202
v -0.071774 -0.060813 -0.174697
v -0.099771 -0.060813 -0.203939
v -0.237874 -0.060813 -0.417454
v -0.127858 -0.060813 -0.232818
v -0.151231 -0.060813 -0.255040
v -0.174925 -0.060813 -0.277219
v -0.198906 -0.060813 -0.299352
v 0.245262 -0.060813 -0.319450
v 0.310292 -0.060813 -0.310308
v 0.257676 -0.060813 -0.293088
v -0.223135 -0.060813 -0.321434
v 0.304685 -0.060813 -0.328948
v 0.233622 -0.060813 -0.341829
v -0.247577 -0.060813 -0.343463
v 0.299317 -0.060813 -0.347578
v 0.222414 -0.060813 -0.360548
v -0.272195 -0.060813 -0.365436
v 0.294149 -0.060813 -0.366228
v 0.211296 -0.060813 -0.375928
v -0.296952 -0.060813 -0.387349
v 0.289139 -0.060813 -0.384927
v 0.199925 -0.060813 -0.388292
v 0.284250 -0.060813 -0.403707
v -0.321813 -0.060813 -0.409199
v 0.187959 -0.060813 -0.397963
v 0.175057 -0.060813 -0.405261
v 0.279440 -0.060813 -0.422596
v 0.160876 -0.060813 -0.410510
v -0.346740 -0.060813 -0.430982
v 0.145074 -0.060813 -0.414031
v 0.127309 -0.060813 -0.416148
v 0.107238 -0.060813 -0.417181
v 0.084520 -0.060813 -0.417454
v 0.274670 -0.060813 -0.441625
v -0.371696 -0.060813 -0.452696
v 0.269901 -0.060813 -0.460823
v -0.396646 -0.060813 -0.474336
v 0.265090 -0.060813 -0.480220
v -0.421553 -0.060813 -0.495900
v 0.260201 -0.060813 -0.499846
v -0.421553 -0.060813 -0.539907
v 0.255192 -0.060813 -0.519732
v 0.250023 -0.060813 -0.539907
v -0.084019 0.060814 0.459787
v -0.058979 0.060814 0.460761
v -0.019871 0.060814 0.458712
v -0.108393 0.060814 0.456957
v 0.018223 0.060814 0.452660
v -0.132029 0.060814 0.452405
v 0.054849 0.060810 0.442749
v -0.154858 0.060814 0.446269
v -0.176809 0.060814 0.438685
v 0.089551 0.060810 0.429120
v -0.197815 0.060814 0.429789
v -0.217803 0.060814 0.419717
v 0.121877 0.060814 0.411918
v -0.236705 0.060810 0.408605
v 0.151367 0.060814 0.391283
v -0.254452 0.060814 0.396590
v -0.270972 0.060814 0.383807
v 0.177570 0.060814 0.367361
v -0.286197 0.060814 0.370393
v -0.300057 0.060814 0.356485
v 0.200029 0.060814 0.340293
v -0.399550 0.060814 0.213942
v -0.218281 0.060810 0.315136
v -0.193763 0.060814 0.327097
v -0.167661 0.060814 0.336209
v -0.139959 0.060810 0.342012
v -0.110638 0.060814 0.344048
v -0.078670 0.060814 0.342541
v -0.048854 0.060814 0.338047
v 0.218289 0.060814 0.310222
v -0.021310 0.060814 0.330610
v 0.003842 0.060814 0.320274
v 0.026483 0.060814 0.307080
v -0.241230 0.060814 0.300782
v 0.231895 0.060814 0.277290
v 0.046493 0.060814 0.291073
v -0.262628 0.060814 0.284496
v 0.063753 0.060814 0.272296
v -0.282491 0.060814 0.266735
v 0.240393 0.060810 0.241642
v 0.078143 0.060810 0.250791
v -0.300837 0.060810 0.247957
v 0.089543 0.060810 0.226603
v -0.317681 0.060814 0.228621
v 0.243326 0.060814 0.203419
v -0.333040 0.060810 0.209186
v 0.097834 0.060810 0.199774
v -0.359370 0.060814 0.171849
v -0.346931 0.060810 0.190109
v 0.242084 0.060814 0.168777
v 0.102896 0.060814 0.170347
v 0.104611 0.060814 0.138366
v 0.238255 0.060814 0.135872
v 0.102174 0.060810 0.105321
v 0.231682 0.060814 0.104329
v 0.095163 0.060814 0.072671
v 0.222209 0.060814 0.073774
v 0.209680 0.060814 0.043829
v 0.084027 0.060814 0.040413
v 0.193939 0.060814 0.014120
v 0.069214 0.060814 0.008544
v 0.174829 0.060810 -0.015729
v 0.051172 0.060814 -0.022941
v 0.152196 0.060814 -0.046092
v 0.030350 0.060810 -0.054042
v 0.125881 0.060814 -0.077346
v 0.007196 0.060814 -0.084766
v 0.095730 0.060814 -0.109865
v -0.017842 0.060814 -0.115114
v 0.061587 0.060810 -0.144026
v -0.044315 0.060814 -0.145090
v 0.023294 0.060814 -0.180202
v -0.071774 0.060814 -0.174697
v -0.099771 0.060814 -0.203939
v -0.237874 0.060810 -0.417454
v -0.127858 0.060814 -0.232818
v -0.151231 0.060814 -0.255040
v -0.174925 0.060814 -0.277219
v -0.198906 0.060814 -0.299352
v 0.245262 0.060810 -0.319450
v 0.257676 0.060814 -0.293088
v 0.310292 0.060810 -0.310308
v -0.223135 0.060814 -0.321434
v 0.304685 0.060810 -0.328948
v 0.233622 0.060814 -0.341829
v -0.247577 0.060810 -0.343463
v 0.299317 0.060814 -0.347578
v 0.222414 0.060814 -0.360548
v -0.272195 0.060810 -0.365436
v 0.294149 0.060814 -0.366228
v 0.211296 0.060814 -0.375928
v -0.296952 0.060814 -0.387349
v 0.289139 0.060814 -0.384927
v 0.199925 0.060814 -0.388292
v 0.284250 0.060814 -0.403707
v -0.321813 0.060814 -0.409199
v 0.187959 0.060814 -0.397963
v 0.175057 0.060814 -0.405261
v 0.279440 0.060814 -0.422596
v 0.160876 0.060814 -0.410510
v -0.346740 0.060810 -0.430982
v 0.145074 0.060814 -0.414031
v 0.127309 0.060814 -0.416148
v 0.107238 0.060814 -0.417181
v 0.084520 0.060814 -0.417454
v 0.274670 0.060814 -0.441625
v -0.371696 0.060814 -0.452696
v 0.269901 0.060814 -0.460823
v -0.396646 0.060814 -0.474336
v 0.265090 0.060814 -0.480220
v -0.421553 0.060814 -0.495900
v 0.260201 0.060814 -0.499846
v -0.421553 0.060814 -0.539907
v 0.255192 0.060814 -0.519732
v 0.250023 0.060814 -0.539907
vn 0.0000 -1.0000 0.0000
vn 0.0000 1.0000 -0.0000
vn -0.0000 1.0000 0.0001
vn 0.0000 1.0000 -0.0001
vn 0.0000 1.0000 0.0002
vn -0.0004 1.0000 0.0007
vn -0.0007 1.0000 0.0012
vn 0.0001 1.0000 0.0004
vn -0.0001 1.0000 -0.0005
vn 0.0002 1.0000 -0.0003
vn 0.0001 1.0000 -0.0003
vn 0.0001 1.0000 -0.0002
vn 0.0001 1.0000 0.0001
vn 0.0001 1.0000 0.0000
vn 0.0001 1.0000 -0.0001
vn 0.0000 1.0000 -0.0002
vn -0.0001 1.0000 -0.0000
vn -0.7234 0.0000 -0.6905
vn 0.9933 0.0000 -0.1156
vn -0.9046 0.0000 -0.4263
vn 0.9242 0.0000 0.3819
vn -0.9973 0.0000 0.0735
vn 0.5303 0.0000 -0.8478
vn -0.7714 0.0000 0.6364
vn -0.1891 0.0000 0.9820
vn -0.4500 0.0000 0.8930
vn -0.5035 0.0000 -0.8640
vn -0.6562 -0.0000 0.7546
vn -0.6579 -0.0000 0.7531
vn -0.6565 -0.0000 0.7543
vn -0.6554 0.0000 0.7552
vn -0.2175 0.0000 0.9761
vn 0.0693 0.0000 -0.9976
vn 0.0000 0.0000 1.0000
vn -0.0120 -0.0000 0.9999
vn -0.9068 0.0000 0.4215
vn 0.1569 0.0000 0.9876
vn 0.9790 0.0000 -0.2040
vn -0.0471 0.0000 -0.9989
vn -0.7361 0.0000 0.6769
vn -0.7169 0.0000 0.6972
vn -0.7223 -0.0000 0.6916
vn 0.8422 0.0000 -0.5392
vn 0.9576 0.0000 -0.2881
vn 0.9609 -0.0000 -0.2769
vn -0.6736 -0.0000 0.7391
vn -0.6782 -0.0000 0.7349
vn -0.6695 0.0000 0.7428
vn 0.5733 0.0000 0.8194
vn 0.5733 0.0000 0.8193
vn 0.9659 -0.0000 -0.2588
vn 0.9677 -0.0000 -0.2520
vn 0.9659 0.0000 -0.2587
vn 0.9637 0.0000 -0.2671
vn 0.8265 0.0000 -0.5630
vn 0.9705 0.0000 -0.2412
vn 0.9705 0.0000 -0.2409
vn 0.9700 0.0000 -0.2431
vn 0.9727 0.0000 0.2319
vn -0.9047 0.0000 0.4260
vn 0.9687 0.0000 -0.2481
vn 0.9687 0.0000 -0.2482
vn 0.9697 0.0000 -0.2443
vn -0.8311 0.0000 -0.5561
vn -0.2595 0.0000 0.9657
vn -0.9986 0.0000 -0.0535
vn -0.6611 0.0000 0.7503
vn 0.6742 0.0000 0.7385
vn -0.5068 0.0000 0.8621
vn -0.7986 0.0000 0.6019
vn 0.7153 0.0000 -0.6988
vn -0.3801 0.0000 -0.9249
vn 0.0523 0.0000 0.9986
vn 0.4385 0.0000 -0.8987
vn -0.6553 0.0000 0.7554
vn -0.6549 0.0000 0.7557
vn -0.6834 -0.0000 0.7300
vn 0.7073 0.0000 -0.7069
vn 0.9552 0.0000 -0.2961
vn 0.4698 0.0000 0.8828
vn 0.8018 0.0000 -0.5977
vn -0.3471 0.0000 0.9378
vn -0.6628 -0.0000 0.7488
vn -0.6658 -0.0000 0.7461
vn -0.6602 0.0000 0.7511
vn 0.8084 0.0000 -0.5886
vn 0.9703 0.0000 -0.2418
vn -0.8104 0.0000 0.5859
vn -0.9855 0.0000 -0.1695
vn 0.9700 0.0000 -0.2432
vn 0.9691 0.0000 -0.2467
vn 0.9971 0.0000 0.0765
vn -0.7083 0.0000 0.7059
vn -0.6546 0.0000 0.7560
vn -0.7332 0.0000 0.6800
vn -0.3266 0.0000 0.9452
vn -0.9453 0.0000 0.3263
vn 0.7696 0.0000 0.6385
vn 0.6666 0.0000 -0.7455
vn 0.6665 0.0000 -0.7455
vn -0.0514 0.0000 0.9987
vn -0.7362 0.0000 -0.6767
vn 0.3296 0.0000 -0.9441
vn -0.6580 0.0000 0.7530
vn -0.5606 0.0000 0.8281
vn -0.2607 0.0000 -0.9654
vn 0.9225 0.0000 -0.3860
vn 0.6867 0.0000 -0.7269
vn -0.8310 0.0000 0.5563
vn -0.0389 0.0000 0.9992
vn -0.6659 0.0000 0.7461
vn 0.3656 0.0000 0.9308
vn -0.4924 0.0000 0.8704
vn -0.6890 0.0000 0.7247
vn -0.6834 -0.0000 0.7301
vn 0.9706 0.0000 -0.2408
vn 0.7650 0.0000 -0.6441
vn -0.8580 0.0000 0.5137
vn 0.9691 -0.0000 -0.2468
vn 0.9677 0.0000 -0.2519
vn 0.7846 0.0000 -0.6200
vn 0.9994 0.0000 -0.0358
vn -0.9777 0.0000 0.2099
vn -0.8200 0.0000 0.5724
vn -1.0000 0.0000 0.0000
vn 0.8548 0.0000 0.5190
vn -0.3900 0.0000 0.9208
vn -0.9554 0.0000 -0.2953
vn 0.6057 0.0000 -0.7957
vn -0.6247 0.0000 -0.7809
vn -0.7495 0.0000 0.6620
vn -0.1183 0.0000 0.9930
vn -0.6120 0.0000 0.7909
vn 0.6724 0.0000 -0.7402
vn 0.2050 0.0000 -0.9788
vn -0.8676 0.0000 0.4972
vn -0.1153 0.0000 0.9933
vn 0.8836 0.0000 -0.4682
vn -0.6286 0.0000 0.7778
vn 0.2612 0.0000 0.9653
vn -0.1490 0.0000 -0.9888
vn 0.7333 0.0000 -0.6799
vn -0.8872 0.0000 0.4614
vn 0.3110 0.0000 0.9504
vn 0.7540 0.0000 -0.6569
vn 0.0000 0.0000 -1.0000
usemtl N02
s 1
f 1//1 2//1 3//1
f 4//1 2//1 1//1
f 4//1 5//1 2//1
f 6//1 5//1 4//1
f 6//1 7//1 5//1
f 8//1 7//1 6//1
f 9//1 7//1 8//1
f 9//1 10//1 7//1
f 11//1 10//1 9//1
f 12//1 10//1 11//1
f 12//1 13//1 10//1
f 14//1 13//1 12//1
f 14//1 15//1 13//1
f 16//1 15//1 14//1
f 17//1 15//1 16//1
f 17//1 18//1 15//1
f 19//1 18//1 17//1
f 20//1 18//1 19//1
f 20//1 21//1 18//1
f 22//1 23//1 20//1
f 23//1 24//1 20//1
f 24//1 25//1 20//1
f 25//1 26//1 20//1
f 26//1 27//1 20//1
f 27//1 21//1 20//1
f 28//1 21//1 27//1
f 29//1 21//1 28//1
f 29//1 30//1 21//1
f 31//1 30//1 29//1
f 32//1 30//1 31//1
f 33//1 30//1 32//1
f 22//1 34//1 23//1
f 33//1 35//1 30//1
f 36//1 35//1 33//1
f 22//1 37//1 34//1
f 38//1 35//1 36//1
f 22//1 39//1 37//1
f 38//1 40//1 35//1
f 41//1 40//1 38//1
f 22//1 42//1 39//1
f 43//1 40//1 41//1
f 22//1 44//1 42//1
f 43//1 45//1 40//1
f 22//1 46//1 44//1
f 47//1 45//1 43//1
f 48//1 49//1 22//1
f 49//1 46//1 22//1
f 47//1 50//1 45//1
f 51//1 50//1 47//1
f 52//1 50//1 51//1
f 52//1 53//1 50//1
f 54//1 53//1 52//1
f 54//1 55//1 53//1
f 56//1 55//1 54//1
f 56//1 57//1 55//1
f 56//1 58//1 57//1
f 59//1 58//1 56//1
f 59//1 60//1 58//1
f 61//1 60//1 59//1
f 61//1 62//1 60//1
f 63//1 62//1 61//1
f 63//1 64//1 62//1
f 65//1 64//1 63//1
f 65//1 66//1 64//1
f 67//1 66//1 65//1
f 67//1 68//1 66//1
f 69//1 68//1 67//1
f 69//1 70//1 68//1
f 71//1 70//1 69//1
f 71//1 72//1 70//1
f 73//1 72//1 71//1
f 74//1 72//1 73//1
f 74//1 75//1 72//1
f 76//1 75//1 74//1
f 77//1 75//1 76//1
f 78//1 75//1 77//1
f 79//1 75//1 78//1
f 80//1 81//1 82//1
f 83//1 75//1 79//1
f 80//1 84//1 81//1
f 85//1 84//1 80//1
f 86//1 75//1 83//1
f 85//1 87//1 84//1
f 88//1 87//1 85//1
f 89//1 75//1 86//1
f 88//1 90//1 87//1
f 91//1 90//1 88//1
f 92//1 75//1 89//1
f 91//1 93//1 90//1
f 94//1 93//1 91//1
f 94//1 95//1 93//1
f 96//1 75//1 92//1
f 97//1 95//1 94//1
f 98//1 95//1 97//1
f 98//1 99//1 95//1
f 100//1 99//1 98//1
f 101//1 75//1 96//1
f 102//1 99//1 100//1
f 103//1 99//1 102//1
f 104//1 99//1 103//1
f 105//1 99//1 104//1
f 101//1 105//1 75//1
f 101//1 99//1 105//1
f 101//1 106//1 99//1
f 107//1 106//1 101//1
f 107//1 108//1 106//1
f 109//1 108//1 107//1
f 109//1 110//1 108//1
f 111//1 110//1 109//1
f 111//1 112//1 110//1
f 113//1 112//1 111//1
f 113//1 114//1 112//1
f 113//1 115//1 114//1
f 116//2 117//2 118//2
f 119//2 116//2 118//2
f 119//2 118//2 120//3
f 121//4 119//2 120//3
f 121//4 120//3 122//2
f 123//4 121//4 122//2
f 124//2 123//4 122//2
f 124//2 122//2 125//5
f 126//2 124//2 125//5
f 127//2 126//2 125//5
f 127//2 125//5 128//2
f 129//5 127//2 128//2
f 129//5 128//2 130//2
f 131//3 129//5 130//2
f 132//2 131//3 130//2
f 132//2 130//2 133//2
f 134//2 132//2 133//2
f 135//2 134//2 133//2
f 135//2 133//2 136//2
f 137//6 135//2 138//7
f 138//7 135//2 139//4
f 139//4 135//2 140//8
f 140//8 135//2 141//4
f 141//4 135//2 142//9
f 142//9 135//2 136//2
f 143//2 142//9 136//2
f 144//2 143//2 136//2
f 144//2 136//2 145//2
f 146//2 144//2 145//2
f 147//2 146//2 145//2
f 148//2 147//2 145//2
f 137//6 138//7 149//6
f 148//2 145//2 150//4
f 151//2 148//2 150//4
f 137//6 149//6 152//2
f 153//4 151//2 150//4
f 137//6 152//2 154//10
f 153//4 150//4 155//2
f 156//4 153//4 155//2
f 137//6 154//10 157//11
f 158//2 156//4 155//2
f 137//6 157//11 159//3
f 158//2 155//2 160//3
f 137//6 159//3 161//12
f 162//2 158//2 160//3
f 163//13 137//6 164//14
f 164//14 137//6 161//12
f 162//2 160//3 165//2
f 166//3 162//2 165//2
f 167//4 166//3 165//2
f 167//4 165//2 168//2
f 169//2 167//4 168//2
f 169//2 168//2 170//2
f 171//2 169//2 170//2
f 171//2 170//2 172//2
f 171//2 172//2 173//2
f 174//2 171//2 173//2
f 174//2 173//2 175//2
f 176//2 174//2 175//2
f 176//2 175//2 177//4
f 178//4 176//2 177//4
f 178//4 177//4 179//3
f 180//3 178//4 179//3
f 180//3 179//3 181//2
f 182//2 180//3 181//2
f 182//2 181//2 183//2
f 184//2 182//2 183//2
f 184//2 183//2 185//4
f 186//2 184//2 185//4
f 186//2 185//4 187//2
f 188//2 186//2 187//2
f 189//2 188//2 187//2
f 189//2 187//2 190//2
f 191//15 189//2 190//2
f 192//15 191//15 190//2
f 193//15 192//15 190//2
f 194//4 193//15 190//2
f 195//3 196//16 197//4
f 198//2 194//4 190//2
f 195//3 197//4 199//3
f 200//3 195//3 199//3
f 201//17 198//2 190//2
f 200//3 199//3 202//3
f 203//2 200//3 202//3
f 204//14 201//17 190//2
f 203//2 202//3 205//2
f 206//2 203//2 205//2
f 207//14 204//14 190//2
f 206//2 205//2 208//2
f 209//2 206//2 208//2
f 209//2 208//2 210//2
f 211//16 207//14 190//2
f 212//2 209//2 210//2
f 213//2 212//2 210//2
f 213//2 210//2 214//2
f 215//2 213//2 214//2
f 216//3 211//16 190//2
f 217//2 215//2 214//2
f 218//2 217//2 214//2
f 219//2 218//2 214//2
f 220//16 219//2 214//2
f 216//3 190//2 220//16
f 216//3 220//16 214//2
f 216//3 214//2 221//2
f 222//2 216//3 221//2
f 222//2 221//2 223//2
f 224//2 222//2 223//2
f 224//2 223//2 225//2
f 226//2 224//2 225//2
f 226//2 225//2 227//2
f 228//2 226//2 227//2
f 228//2 227//2 229//2
f 228//2 229//2 230//2
f 48//18 22//18 137//18
f 137//18 163//18 48//18
f 50//19 53//19 168//19
f 168//19 165//19 50//19
f 43//20 41//20 156//20
f 156//20 158//20 43//20
f 30//21 35//21 150//21
f 150//21 145//21 30//21
f 54//22 52//22 167//22
f 167//22 169//22 54//22
f 23//23 34//23 149//23
f 149//23 138//23 23//23
f 69//24 67//24 182//24
f 182//24 184//24 69//24
f 6//25 4//25 119//25
f 119//25 121//25 6//25
f 12//26 11//26 126//26
f 126//26 127//26 12//26
f 33//27 32//27 147//27
f 147//27 148//27 33//27
f 107//28 101//29 216//30
f 216//30 222//31 107//28
f 102//32 100//32 215//32
f 215//32 217//32 102//32
f 27//33 26//33 141//33
f 141//33 142//33 27//33
f 75//34 105//35 220//34
f 220//34 190//34 75//34
f 61//36 59//36 174//36
f 174//36 176//36 61//36
f 2//37 5//37 120//37
f 120//37 118//37 2//37
f 53//38 55//38 170//38
f 170//38 168//38 53//38
f 28//39 27//39 142//39
f 142//39 143//39 28//39
f 94//40 91//40 206//40
f 206//40 209//40 94//40
f 76//41 74//42 189//41
f 189//41 191//41 76//41
f 60//43 62//43 177//43
f 177//43 175//43 60//43
f 81//44 84//45 199//44
f 199//44 197//44 81//44
f 83//46 79//47 194//46
f 194//46 198//48 83//46
f 13//49 15//49 130//50
f 130//50 128//50 13//49
f 90//51 93//52 208//53
f 208//53 205//54 90//51
f 49//55 48//55 163//55
f 163//55 164//55 49//55
f 106//56 108//57 223//57
f 223//57 221//58 106//56
f 35//59 40//59 155//59
f 155//59 150//59 35//59
f 80//60 82//60 196//60
f 196//60 195//60 80//60
f 114//61 115//62 230//62
f 230//62 229//63 114//61
f 41//64 38//64 153//64
f 153//64 156//64 41//64
f 8//65 6//65 121//65
f 121//65 123//65 8//65
f 52//66 51//66 166//66
f 166//66 167//66 52//66
f 19//67 17//67 132//67
f 132//67 134//67 19//67
f 15//68 18//68 133//68
f 133//68 130//68 15//68
f 74//42 73//42 188//42
f 188//42 189//41 74//42
f 14//69 12//69 127//69
f 127//69 129//69 14//69
f 105//35 104//35 219//35
f 219//35 220//34 105//35
f 67//70 65//70 180//70
f 180//70 182//70 67//70
f 39//71 42//71 157//71
f 157//71 154//71 39//71
f 32//72 31//72 146//72
f 146//72 147//72 32//72
f 3//73 2//73 118//73
f 118//73 117//73 3//73
f 24//74 23//74 138//74
f 138//74 139//74 24//74
f 109//75 107//28 222//31
f 222//31 224//76 109//75
f 79//47 78//77 193//47
f 193//47 194//46 79//47
f 68//78 70//78 185//78
f 185//78 183//78 68//78
f 55//79 57//79 172//79
f 172//79 170//79 55//79
f 10//80 13//80 128//80
f 128//80 125//80 10//80
f 62//81 64//81 179//81
f 179//81 177//81 62//81
f 100//82 98//82 213//82
f 213//82 215//82 100//82
f 92//83 89//84 204//83
f 204//83 207//85 92//83
f 46//86 49//86 164//86
f 164//86 161//86 46//86
f 112//63 114//61 229//63
f 229//63 227//87 112//63
f 91//88 88//88 203//88
f 203//88 206//88 91//88
f 51//89 47//89 162//89
f 162//89 166//89 51//89
f 99//90 106//56 221//58
f 221//58 214//91 99//90
f 40//92 45//92 160//92
f 160//92 155//92 40//92
f 20//93 19//93 134//93
f 134//93 135//93 20//93
f 111//94 109//75 224//76
f 224//76 226//94 111//94
f 73//95 71//95 186//95
f 186//95 188//95 73//95
f 9//96 8//96 123//96
f 123//96 124//96 9//96
f 59//97 56//97 171//97
f 171//97 174//97 59//97
f 18//98 21//98 136//98
f 136//98 133//98 18//98
f 37//99 39//99 154//99
f 154//99 152//100 37//99
f 104//101 103//101 218//101
f 218//101 219//101 104//101
f 38//102 36//102 151//102
f 151//102 153//102 38//102
f 25//103 24//103 139//103
f 139//103 140//103 25//103
f 96//85 92//83 207//85
f 207//85 211//104 96//85
f 16//105 14//105 129//105
f 129//105 131//105 16//105
f 31//106 29//106 144//106
f 144//106 146//106 31//106
f 57//107 58//107 173//107
f 173//107 172//107 57//107
f 70//108 72//108 187//108
f 187//108 185//108 70//108
f 65//109 63//109 178//109
f 178//109 180//109 65//109
f 1//110 3//110 117//110
f 117//110 116//110 1//110
f 89//84 86//48 201//111
f 201//111 204//83 89//84
f 7//112 10//112 125//112
f 125//112 122//112 7//112
f 98//113 97//113 212//113
f 212//113 213//113 98//113
f 87//54 90//51 205//54
f 205//54 202//45 87//54
f 78//77 77//114 192//115
f 192//115 193//47 78//77
f 110//56 112//63 227//87
f 227//87 225//116 110//56
f 64//117 66//117 181//117
f 181//117 179//117 64//117
f 88//118 85//118 200//118
f 200//118 203//118 88//118
f 95//119 99//90 214//91
f 214//91 210//120 95//119
f 44//121 46//121 161//121
f 161//121 159//121 44//121
f 45//122 50//122 165//122
f 165//122 160//122 45//122
f 56//123 54//123 169//123
f 169//123 171//123 56//123
f 22//124 20//124 135//124
f 135//124 137//124 22//124
f 113//125 111//125 226//125
f 226//125 228//125 113//125
f 21//126 30//126 145//126
f 145//126 136//126 21//126
f 11//127 9//127 124//127
f 124//127 126//127 11//127
f 47//128 43//128 158//128
f 158//128 162//128 47//128
f 34//129 37//129 152//129
f 152//129 149//129 34//129
f 36//130 33//130 148//130
f 148//130 151//130 36//130
f 71//131 69//131 184//131
f 184//131 186//131 71//131
f 103//132 102//132 217//132
f 217//132 218//132 103//132
f 101//29 96//85 211//104
f 211//104 216//30 101//29
f 17//133 16//133 131//133
f 131//133 132//133 17//133
f 72//134 75//134 190//134
f 190//134 187//134 72//134
f 26//135 25//135 140//135
f 140//135 141//135 26//135
f 63//136 61//136 176//136
f 176//136 178//136 63//136
f 4//137 1//137 116//137
f 116//137 119//137 4//137
f 58//138 60//138 175//138
f 175//138 173//138 58//138
f 97//139 94//139 209//139
f 209//139 212//139 97//139
f 5//140 7//140 122//140
f 122//140 120//140 5//140
f 29//141 28//141 143//141
f 143//141 144//141 29//141
f 84//45 87//54 202//45
f 202//45 199//44 84//45
f 77//114 76//114 191//114
f 191//114 192//115 77//114
f 93//52 95//119 210//120
f 210//120 208//53 93//52
f 86//48 83//46 198//48
f 198//48 201//111 86//48
f 108//57 110//56 225//116
f 225//116 223//57 108//57
f 66//142 68//142 183//142
f 183//142 181//142 66//142
f 85//143 80//143 195//143
f 195//143 200//143 85//143
f 82//144 81//144 197//144
f 197//144 196//144 82//144
f 42//145 44//145 159//145
f 159//145 157//145 42//145
f 115//146 113//146 228//146
f 228//146 230//146 115//146
