# Blender v2.90.0 OBJ File: ''
# www.blender.org
mtllib N03.mtl
o N03
v 0.003738 -0.052076 0.530792
v 0.056986 -0.052076 0.529753
v 0.023390 -0.052076 0.531529
v -0.015451 -0.052076 0.528632
v 0.088453 -0.052076 0.524551
v -0.034121 -0.052076 0.525129
v -0.052220 -0.052076 0.520364
v 0.117638 -0.052076 0.516118
v -0.069693 -0.052076 0.514415
v 0.144390 -0.052076 0.504648
v -0.086486 -0.052076 0.507363
v -0.102546 -0.052076 0.499287
v 0.168560 -0.052076 0.490332
v -0.117817 -0.052076 0.490266
v 0.189997 -0.052076 0.473366
v -0.132247 -0.052076 0.480380
v -0.145780 -0.052076 0.469710
v 0.208549 -0.052076 0.453942
v -0.158364 -0.052076 0.458334
v -0.169943 -0.052076 0.446332
v -0.015932 -0.052076 0.443874
v 0.224066 -0.052076 0.432254
v -0.237938 -0.052075 0.349665
v -0.094242 -0.052076 0.423000
v -0.076003 -0.052076 0.431650
v -0.056851 -0.052076 0.438227
v -0.036817 -0.052076 0.442409
v 0.004899 -0.052076 0.442820
v 0.024695 -0.052076 0.439676
v 0.043307 -0.052076 0.434466
v 0.060588 -0.052076 0.427217
v 0.236397 -0.052076 0.408495
v 0.076390 -0.052076 0.417954
v -0.111538 -0.052076 0.412597
v 0.090565 -0.052076 0.406703
v -0.127856 -0.052076 0.400763
v 0.245392 -0.052076 0.382858
v 0.102965 -0.052076 0.393489
v -0.143169 -0.052076 0.387820
v 0.113442 -0.052076 0.378338
v -0.157443 -0.052076 0.374090
v 0.250899 -0.052075 0.355538
v 0.121849 -0.052075 0.361275
v -0.170648 -0.052075 0.359893
v 0.128036 -0.052075 0.342327
v -0.182751 -0.052075 0.345550
v 0.252769 -0.052075 0.326728
v -0.203531 -0.052075 0.317716
v -0.193722 -0.052075 0.331384
v 0.131858 -0.052075 0.321518
v 0.252398 -0.052075 0.315820
v 0.133164 -0.052075 0.298874
v 0.251309 -0.052075 0.305212
v 0.249530 -0.052075 0.294893
v 0.130890 -0.052075 0.270741
v 0.247095 -0.052075 0.284857
v 0.244034 -0.052075 0.275093
v 0.240378 -0.052075 0.265594
v 0.124251 -0.052075 0.244818
v 0.236159 -0.052075 0.256350
v 0.231408 -0.052075 0.247355
v 0.226157 -0.052075 0.238599
v 0.113529 -0.052075 0.220960
v 0.220436 -0.052075 0.230072
v 0.214278 -0.052075 0.221768
v 0.207712 -0.052075 0.213676
v 0.099000 -0.052075 0.199022
v 0.201346 -0.052075 0.207684
v 0.194536 -0.052075 0.201578
v 0.187283 -0.052075 0.195346
v 0.080944 -0.052075 0.178859
v 0.179586 -0.052075 0.188979
v 0.171445 -0.052075 0.182463
v 0.162860 -0.052075 0.175788
v 0.059640 -0.052075 0.160325
v 0.153832 -0.052075 0.168942
v 0.144360 -0.052075 0.161914
v 0.134444 -0.052075 0.154694
v 0.035367 -0.052075 0.143277
v 0.124084 -0.052075 0.147268
v 0.113281 -0.052075 0.139625
v 0.008401 -0.052075 0.127569
v 0.102034 -0.052075 0.131755
v 0.102034 -0.052075 0.128479
v 0.134448 -0.052075 0.120692
v -0.020975 -0.052075 0.113054
v 0.164461 -0.052075 0.110149
v -0.052485 -0.052075 0.099590
v 0.191994 -0.052075 0.097029
v -0.085850 -0.052075 0.087030
v 0.216966 -0.052075 0.081511
v -0.120791 -0.052075 0.075230
v 0.239299 -0.052075 0.063774
v -0.109322 -0.052075 0.028535
v -0.102878 -0.052075 0.030471
v -0.095866 -0.052075 0.032551
v -0.088330 -0.052075 0.034717
v -0.080316 -0.052075 0.036910
v -0.071870 -0.052075 0.039067
v -0.063037 -0.052075 0.041130
v -0.053862 -0.052075 0.043041
v -0.044392 -0.052075 0.044737
v -0.034671 -0.052075 0.046161
v -0.024746 -0.052075 0.047252
v -0.014662 -0.052075 0.047950
v -0.004463 -0.052075 0.048196
v 0.258913 -0.052075 0.043997
v 0.018303 -0.052075 0.046941
v 0.041268 -0.052075 0.043133
v 0.275728 -0.052075 0.022361
v 0.064018 -0.052075 0.036714
v 0.086135 -0.052075 0.027625
v 0.107206 -0.052075 0.015805
v 0.289663 -0.052075 -0.000957
v 0.126815 -0.052075 0.001194
v 0.144547 -0.052075 -0.016267
v 0.300641 -0.052075 -0.025776
v 0.159985 -0.052075 -0.036638
v 0.308581 -0.052075 -0.051918
v 0.172716 -0.052075 -0.059978
v 0.313404 -0.052075 -0.079204
v 0.182324 -0.052075 -0.086348
v 0.315028 -0.052075 -0.107454
v 0.188393 -0.052075 -0.115806
v 0.309367 -0.052075 -0.166566
v 0.190509 -0.052075 -0.148414
v 0.188911 -0.052075 -0.184629
v 0.293422 -0.052075 -0.220239
v 0.184217 -0.052075 -0.218248
v 0.176569 -0.052075 -0.249164
v 0.268756 -0.052075 -0.268531
v 0.166115 -0.052075 -0.277272
v 0.236930 -0.052075 -0.311497
v 0.152997 -0.052075 -0.302468
v 0.137363 -0.052075 -0.324646
v -0.214690 -0.052075 -0.305685
v -0.208756 -0.052075 -0.305685
v -0.211723 -0.052075 -0.305498
v -0.217639 -0.052075 -0.306248
v -0.205806 -0.052075 -0.306248
v -0.202891 -0.052075 -0.307187
v -0.220555 -0.052075 -0.307187
v -0.200026 -0.052075 -0.308501
v -0.223419 -0.052075 -0.308501
v -0.197231 -0.052075 -0.310191
v -0.226216 -0.052075 -0.310191
v -0.194519 -0.052075 -0.312256
v -0.228926 -0.052075 -0.312256
v 0.199507 -0.052075 -0.349196
v -0.232515 -0.052075 -0.314724
v -0.183675 -0.052075 -0.321499
v -0.236273 -0.052075 -0.317596
v -0.240127 -0.052075 -0.320832
v -0.244006 -0.052075 -0.324392
v -0.172007 -0.052075 -0.330700
v -0.247840 -0.052075 -0.328237
v 0.119356 -0.052075 -0.343701
v -0.251557 -0.052075 -0.332326
v -0.159473 -0.052075 -0.339712
v -0.255086 -0.052075 -0.336621
v -0.258357 -0.052075 -0.341080
v -0.146035 -0.052075 -0.348392
v -0.261298 -0.052075 -0.345664
v 0.099122 -0.052075 -0.359527
v -0.263838 -0.052075 -0.350334
v -0.131652 -0.052075 -0.356594
v 0.158048 -0.052075 -0.381684
v -0.265905 -0.052075 -0.355049
v -0.267429 -0.052075 -0.359770
v -0.116285 -0.052075 -0.364173
v 0.076805 -0.052075 -0.372020
v -0.267729 -0.052075 -0.364934
v -0.099894 -0.052075 -0.370984
v -0.267778 -0.052075 -0.369813
v -0.267532 -0.052075 -0.374465
v -0.082439 -0.052075 -0.376882
v 0.052552 -0.052075 -0.381073
v -0.266944 -0.052075 -0.378946
v -0.063881 -0.052075 -0.381722
v -0.265969 -0.052075 -0.383313
v 0.026506 -0.052075 -0.386582
v 0.114113 -0.052075 -0.409017
v -0.044180 -0.052075 -0.385359
v -0.264562 -0.052075 -0.387623
v -0.023294 -0.052075 -0.387648
v -0.001186 -0.052075 -0.388442
v -0.262677 -0.052075 -0.391933
v -0.260269 -0.052075 -0.396301
v -0.257292 -0.052075 -0.400782
v -0.253700 -0.052075 -0.405433
v -0.249448 -0.052075 -0.410313
v 0.069266 -0.052075 -0.431253
v -0.244492 -0.052075 -0.415477
v -0.238643 -0.052075 -0.420859
v -0.231024 -0.052075 -0.426653
v -0.221771 -0.052075 -0.432693
v 0.025067 -0.052075 -0.448449
v -0.211025 -0.052075 -0.438808
v -0.198925 -0.052075 -0.444834
v -0.185610 -0.052075 -0.450600
v -0.016922 -0.052075 -0.460661
v -0.171221 -0.052075 -0.455939
v -0.155895 -0.052075 -0.460685
v -0.055139 -0.052075 -0.467947
v -0.139773 -0.052075 -0.464667
v -0.122994 -0.052075 -0.467720
v -0.105698 -0.052075 -0.469675
v -0.088022 -0.052075 -0.470363
v 0.003738 0.052073 0.530792
v 0.023390 0.052076 0.531529
v 0.056986 0.052076 0.529753
v -0.015451 0.052076 0.528632
v 0.088453 0.052076 0.524551
v -0.034121 0.052076 0.525129
v -0.052220 0.052073 0.520364
v 0.117638 0.052076 0.516118
v -0.069693 0.052073 0.514415
v 0.144390 0.052076 0.504648
v -0.086486 0.052076 0.507363
v -0.102546 0.052076 0.499287
v 0.168560 0.052076 0.490332
v -0.117817 0.052073 0.490266
v 0.189997 0.052076 0.473366
v -0.132247 0.052076 0.480380
v -0.145780 0.052076 0.469710
v 0.208549 0.052076 0.453942
v -0.158364 0.052076 0.458334
v -0.169943 0.052076 0.446332
v -0.015932 0.052073 0.443874
v 0.224066 0.052076 0.432254
v -0.237938 0.052076 0.349665
v -0.094242 0.052076 0.423000
v -0.076003 0.052073 0.431650
v -0.056851 0.052076 0.438227
v -0.036817 0.052073 0.442409
v 0.004899 0.052076 0.442820
v 0.024695 0.052076 0.439676
v 0.043307 0.052076 0.434466
v 0.060588 0.052076 0.427217
v 0.236397 0.052076 0.408495
v 0.076390 0.052076 0.417954
v -0.111538 0.052076 0.412597
v 0.090565 0.052076 0.406703
v -0.127856 0.052076 0.400763
v 0.245392 0.052076 0.382858
v 0.102965 0.052076 0.393489
v -0.143169 0.052076 0.387820
v 0.113442 0.052076 0.378338
v -0.157443 0.052076 0.374090
v 0.250899 0.052076 0.355538
v 0.121849 0.052076 0.361275
v -0.170648 0.052076 0.359893
v 0.128036 0.052076 0.342327
v -0.182751 0.052076 0.345550
v 0.252769 0.052076 0.326728
v -0.203531 0.052076 0.317716
v -0.193722 0.052073 0.331384
v 0.131858 0.052076 0.321518
v 0.252398 0.052076 0.315820
v 0.133164 0.052076 0.298874
v 0.251309 0.052076 0.305212
v 0.249530 0.052076 0.294893
v 0.130890 0.052076 0.270741
v 0.247095 0.052076 0.284857
v 0.244034 0.052076 0.275093
v 0.240378 0.052076 0.265594
v 0.124251 0.052076 0.244818
v 0.236159 0.052076 0.256350
v 0.231408 0.052076 0.247355
v 0.226157 0.052073 0.238599
v 0.113529 0.052076 0.220960
v 0.220436 0.052076 0.230072
v 0.214278 0.052076 0.221768
v 0.207712 0.052076 0.213676
v 0.099000 0.052073 0.199022
v 0.201346 0.052073 0.207684
v 0.194536 0.052076 0.201578
v 0.187283 0.052076 0.195346
v 0.080944 0.052076 0.178859
v 0.179586 0.052076 0.188979
v 0.171445 0.052073 0.182463
v 0.162860 0.052073 0.175788
v 0.059640 0.052073 0.160325
v 0.153832 0.052073 0.168942
v 0.144360 0.052076 0.161914
v 0.134444 0.052073 0.154694
v 0.035367 0.052076 0.143277
v 0.124084 0.052076 0.147268
v 0.113281 0.052076 0.139625
v 0.008401 0.052076 0.127569
v 0.102034 0.052076 0.131755
v 0.102034 0.052076 0.128479
v 0.134448 0.052073 0.120692
v -0.020975 0.052076 0.113054
v 0.164461 0.052076 0.110149
v -0.052485 0.052076 0.099590
v 0.191994 0.052076 0.097029
v -0.085850 0.052076 0.087030
v 0.216966 0.052076 0.081511
v -0.120791 0.052076 0.075230
v 0.239299 0.052076 0.063774
v -0.109322 0.052076 0.028535
v -0.102878 0.052076 0.030471
v -0.095866 0.052076 0.032551
v -0.088330 0.052076 0.034717
v -0.080316 0.052076 0.036910
v -0.071870 0.052073 0.039067
v -0.063037 0.052076 0.041130
v -0.053862 0.052076 0.043041
v -0.044392 0.052076 0.044737
v -0.034671 0.052076 0.046161
v -0.024746 0.052073 0.047252
v -0.014662 0.052076 0.047950
v -0.004463 0.052076 0.048196
v 0.258913 0.052073 0.043997
v 0.018303 0.052076 0.046941
v 0.041268 0.052076 0.043133
v 0.275728 0.052076 0.022361
v 0.064018 0.052073 0.036714
v 0.086135 0.052073 0.027625
v 0.107206 0.052076 0.015805
v 0.289663 0.052076 -0.000957
v 0.126815 0.052076 0.001194
v 0.144547 0.052073 -0.016267
v 0.300641 0.052073 -0.025776
v 0.159985 0.052076 -0.036638
v 0.308581 0.052073 -0.051918
v 0.172716 0.052076 -0.059978
v 0.313404 0.052076 -0.079204
v 0.182324 0.052076 -0.086348
v 0.315028 0.052076 -0.107454
v 0.188393 0.052076 -0.115806
v 0.309367 0.052076 -0.166566
v 0.190509 0.052076 -0.148414
v 0.188911 0.052073 -0.184629
v 0.293422 0.052076 -0.220239
v 0.184217 0.052076 -0.218248
v 0.176569 0.052076 -0.249164
v 0.268756 0.052076 -0.268531
v 0.166115 0.052073 -0.277272
v 0.236930 0.052076 -0.311497
v 0.152997 0.052076 -0.302468
v 0.137363 0.052076 -0.324646
v -0.214690 0.052073 -0.305685
v -0.211723 0.052076 -0.305498
v -0.208756 0.052073 -0.305685
v -0.217639 0.052076 -0.306248
v -0.205806 0.052076 -0.306248
v -0.202891 0.052076 -0.307187
v -0.220555 0.052076 -0.307187
v -0.200026 0.052076 -0.308501
v -0.223419 0.052076 -0.308501
v -0.197231 0.052076 -0.310191
v -0.226216 0.052076 -0.310191
v -0.194519 0.052076 -0.312256
v -0.228926 0.052076 -0.312256
v 0.199507 0.052076 -0.349196
v -0.232515 0.052076 -0.314724
v -0.183675 0.052076 -0.321499
v -0.236273 0.052076 -0.317596
v -0.240127 0.052076 -0.320832
v -0.244006 0.052076 -0.324392
v -0.172007 0.052076 -0.330700
v -0.247840 0.052076 -0.328237
v 0.119356 0.052073 -0.343701
v -0.251557 0.052076 -0.332326
v -0.159473 0.052076 -0.339712
v -0.255086 0.052076 -0.336621
v -0.258357 0.052076 -0.341080
v -0.146035 0.052076 -0.348392
v -0.261298 0.052076 -0.345664
v 0.099122 0.052076 -0.359527
v -0.263838 0.052076 -0.350334
v -0.131652 0.052076 -0.356594
v 0.158048 0.052076 -0.381684
v -0.265905 0.052076 -0.355049
v -0.267429 0.052076 -0.359770
v -0.116285 0.052076 -0.364173
v 0.076805 0.052076 -0.372020
v -0.267729 0.052076 -0.364934
v -0.099894 0.052073 -0.370984
v -0.267778 0.052076 -0.369813
v -0.267532 0.052076 -0.374465
v -0.082439 0.052076 -0.376882
v 0.052552 0.052073 -0.381073
v -0.266944 0.052076 -0.378946
v -0.063881 0.052076 -0.381722
v -0.265969 0.052076 -0.383313
v 0.026506 0.052076 -0.386582
v 0.114113 0.052076 -0.409017
v -0.044180 0.052073 -0.385359
v -0.264562 0.052076 -0.387623
v -0.023294 0.052076 -0.387648
v -0.001186 0.052076 -0.388442
v -0.262677 0.052076 -0.391933
v -0.260269 0.052076 -0.396301
v -0.257292 0.052073 -0.400782
v -0.253700 0.052076 -0.405433
v -0.249448 0.052076 -0.410313
v 0.069266 0.052076 -0.431253
v -0.244492 0.052073 -0.415477
v -0.238643 0.052076 -0.420859
v -0.231024 0.052073 -0.426653
v -0.221771 0.052076 -0.432693
v 0.025067 0.052076 -0.448449
v -0.211025 0.052076 -0.438808
v -0.198925 0.052076 -0.444834
v -0.185610 0.052076 -0.450600
v -0.016922 0.052073 -0.460661
v -0.171221 0.052076 -0.455939
v -0.155895 0.052076 -0.460685
v -0.055139 0.052076 -0.467947
v -0.139773 0.052076 -0.464667
v -0.122994 0.052076 -0.467720
v -0.105698 0.052076 -0.469675
v -0.088022 0.052076 -0.470363
vn 0.0000 -1.0000 -0.0000
vn -0.0000 -1.0000 0.0001
vn -0.0001 1.0000 -0.0008
vn -0.0001 1.0000 -0.0018
vn -0.0000 1.0000 0.0000
vn 0.0000 1.0000 0.0010
vn 0.0000 1.0000 -0.0004
vn 0.0000 1.0000 -0.0003
vn 0.0000 1.0000 0.0004
vn 0.0000 1.0000 0.0001
vn 0.0000 1.0000 0.0002
vn -0.0000 1.0000 -0.0002
vn -0.0000 1.0000 0.0003
vn 0.0031 0.9980 0.0637
vn -0.0000 1.0000 -0.0001
vn 0.0001 1.0000 0.0001
vn -0.0001 1.0000 0.0005
vn 0.0001 1.0000 -0.0005
vn 0.0002 1.0000 0.0002
vn -0.0001 1.0000 -0.0001
vn 0.0001 1.0000 0.0003
vn -0.0001 1.0000 -0.0004
vn -0.0001 1.0000 -0.0003
vn 0.0000 0.9999 -0.0169
vn 0.0000 1.0000 0.0042
vn 0.0000 1.0000 0.0057
vn 0.0000 1.0000 0.0041
vn -0.0000 1.0000 0.0008
vn -0.3523 0.0000 0.9359
vn -0.8329 0.0000 -0.5534
vn 0.2275 0.0000 -0.9738
vn -0.9983 0.0000 0.0579
vn -0.9121 0.0000 0.4099
vn -0.4457 0.0000 -0.8952
vn -0.7292 0.0000 -0.6843
vn 0.0733 0.0000 -0.9973
vn -0.7970 0.0000 -0.6040
vn -0.3065 0.0000 0.9519
vn -0.3064 0.0000 0.9519
vn -0.7081 0.0000 0.7061
vn 0.0241 0.0000 -0.9997
vn 0.6060 0.0000 0.7954
vn -0.9373 0.0000 0.3486
vn -0.0670 0.0000 0.9978
vn -0.6706 0.0000 0.7418
vn -0.1844 0.0000 0.9829
vn 0.5278 0.0000 0.8494
vn 0.6933 0.0000 -0.7207
vn -0.0505 0.0000 -0.9987
vn 0.8036 0.0000 -0.5952
vn 0.9984 0.0000 0.0574
vn 0.8842 0.0000 -0.4670
vn 0.9979 0.0000 0.0648
vn 0.6374 0.0000 -0.7705
vn 0.5733 0.0000 -0.8193
vn 0.5775 0.0000 -0.8164
vn -0.6053 0.0000 -0.7960
vn -0.3929 0.0000 0.9196
vn 0.2475 0.0000 -0.9689
vn -0.9516 0.0000 0.3073
vn -0.9506 0.0000 -0.3103
vn -0.9687 0.0000 0.2481
vn 0.5282 0.0000 -0.8491
vn -0.6217 0.0000 -0.7832
vn -0.1790 0.0000 -0.9838
vn -0.8779 0.0000 -0.4788
vn -0.1876 0.0000 0.9823
vn -0.0551 0.0000 -0.9985
vn -0.6761 0.0000 0.7368
vn -0.8870 0.0000 0.4618
vn 0.6487 0.0000 0.7611
vn 0.0359 0.0000 0.9994
vn -0.7197 0.0000 0.6943
vn 0.2336 0.0000 0.9723
vn -0.2546 0.0000 0.9670
vn 0.6455 0.0000 -0.7637
vn 0.9145 0.0000 0.4045
vn -0.1569 0.0000 -0.9876
vn 0.9994 0.0000 -0.0339
vn 0.5096 0.0000 0.8604
vn 0.8576 0.0000 -0.5143
vn 0.6249 0.0000 -0.7807
vn 0.6138 0.0000 -0.7894
vn -0.9711 0.0000 -0.2385
vn -0.7540 0.0000 -0.6569
vn 0.1763 0.0000 -0.9843
vn -0.9986 0.0000 -0.0529
vn -0.7450 0.0000 0.6671
vn -0.3479 0.0000 -0.9375
vn -0.8970 0.0000 -0.4419
vn 0.2793 0.0000 -0.9602
vn -0.9396 0.0000 -0.3423
vn -0.5171 0.0000 0.8559
vn -0.1636 0.0000 -0.9865
vn -0.7726 0.0000 0.6349
vn -0.8173 0.0000 0.5762
vn 0.4170 0.0000 0.9089
vn 0.1089 0.0000 0.9940
vn 0.4423 0.0000 0.8968
vn -0.5652 0.0000 0.8250
vn -0.0375 0.0000 0.9993
vn 0.7100 0.0000 0.7042
vn 0.7642 0.0000 -0.6449
vn 0.2043 0.0000 -0.9789
vn 0.9948 0.0000 -0.1022
vn 0.9586 0.0000 -0.2848
vn 0.6206 0.0000 0.7841
vn 0.8304 0.0000 -0.5572
vn 0.8304 0.0000 -0.5571
vn 0.6042 0.0000 -0.7968
vn 0.6138 0.0000 -0.7895
vn -0.7214 0.0000 -0.6925
vn -0.5034 0.0000 0.8641
vn 0.2762 -0.0000 -0.9611
vn 0.2845 -0.0000 -0.9587
vn 0.2638 0.0000 -0.9646
vn -0.9915 0.0000 -0.1300
vn -0.9983 0.0000 -0.0576
vn 0.3626 0.0000 -0.9319
vn -0.2958 0.0000 -0.9553
vn -0.6073 0.0000 0.7945
vn -0.3868 0.0000 -0.9221
vn -0.7017 0.0000 -0.7125
vn -0.8785 0.0000 0.4778
vn 0.0691 0.0000 -0.9976
vn 0.0631 0.0000 0.9980
vn 0.5838 0.0000 0.8119
vn -0.9707 0.0000 0.2401
vn -0.2069 0.0000 0.9784
vn -0.3872 0.0000 0.9220
vn 0.2776 0.0000 0.9607
vn 0.7896 0.0000 0.6136
vn -0.6804 0.0000 -0.7328
vn 0.5154 0.0000 -0.8569
vn 0.8906 0.0000 -0.4549
vn 0.9097 0.0000 -0.4152
vn 0.9803 0.0000 0.1976
vn 0.6517 0.0000 -0.7585
vn 0.5826 -0.0000 -0.8128
vn -0.6772 0.0000 -0.7358
vn -0.5748 0.0000 0.8183
vn -0.5747 0.0000 0.8183
vn 0.2877 -0.0000 -0.9577
vn -0.9760 0.0000 -0.2178
vn -0.9836 0.0000 -0.1806
vn 0.4442 0.0000 -0.8959
vn -0.2398 0.0000 -0.9708
vn -0.2695 0.0000 -0.9630
vn -0.9979 0.0000 -0.0647
vn -0.8417 0.0000 0.5399
vn -0.3801 0.0000 -0.9249
vn -0.5666 0.0000 0.8240
vn -0.6161 0.0000 0.7877
vn 0.1875 0.0000 0.9823
vn 0.2523 0.0000 0.9676
vn 0.3201 0.0000 0.9474
vn -0.4493 0.0000 0.8934
vn 0.5426 0.0000 0.8400
vn 0.1631 0.0000 0.9866
vn 0.8584 0.0000 0.5130
vn 0.8125 0.0000 -0.5830
vn 0.4285 0.0000 -0.9035
vn 0.9718 0.0000 -0.2358
vn 0.8133 0.0000 0.5819
vn 0.7765 0.0000 -0.6301
vn 0.5958 0.0000 -0.8031
vn 0.5887 0.0000 -0.8084
vn 0.5959 -0.0000 -0.8031
vn -0.7915 0.0000 -0.6112
vn -0.6563 0.0000 0.7545
vn -0.9999 0.0000 0.0101
vn -0.9506 0.0000 -0.3104
vn -0.3974 0.0000 -0.9176
vn 0.1873 0.0000 -0.9823
vn -0.4892 0.0000 -0.8721
vn -0.8063 0.0000 0.5915
vn -0.6061 0.0000 0.7954
vn -0.6059 -0.0000 0.7956
vn 0.3064 0.0000 0.9519
vn 0.3065 0.0000 0.9519
vn 0.1449 0.0000 -0.9894
vn -0.9990 0.0000 0.0441
vn -0.4885 0.0000 0.8726
vn -0.5086 0.0000 0.8610
vn 0.4954 0.0000 0.8687
vn 0.0528 0.0000 0.9986
vn 0.6219 0.0000 0.7831
vn 0.7906 0.0000 -0.6123
vn 0.3248 0.0000 -0.9458
vn 0.9954 0.0000 -0.0953
vn 0.9542 0.0000 -0.2991
vn 0.8876 0.0000 0.4607
vn 0.6854 0.0000 -0.7282
vn 0.5826 0.0000 -0.8127
vn -0.5466 0.0000 -0.8374
vn -0.4430 0.0000 0.8965
vn -0.9162 0.0000 -0.4008
vn -0.1123 0.0000 -0.9937
vn -0.9967 0.0000 0.0806
vn 0.6168 0.0000 -0.7871
vn -0.5057 0.0000 -0.8627
vn -0.6431 0.0000 0.7658
vn -0.5975 0.0000 -0.8019
vn -0.9158 0.0000 0.4015
vn 0.1092 0.0000 -0.9940
vn -0.0631 0.0000 0.9980
vn 0.6192 0.0000 0.7853
vn 0.6192 0.0000 0.7852
vn -0.9904 0.0000 0.1383
vn -0.3497 0.0000 0.9369
vn -0.3223 0.0000 0.9466
vn 0.3314 0.0000 0.9435
vn 0.3941 0.0000 0.9191
vn -0.8179 0.0000 0.5753
vn 0.5871 0.0000 -0.8095
vn 0.9333 0.0000 -0.3592
vn 0.9568 0.0000 0.2906
vn 0.9436 0.0000 0.3311
vn 0.6676 0.0000 -0.7445
vn -0.3200 0.0000 0.9474
vn -0.8757 0.0000 -0.4828
vn 0.2038 0.0000 -0.9790
vn -0.8337 0.0000 0.5522
vn -0.8225 0.0000 -0.5688
vn -0.4946 0.0000 -0.8691
vn -0.0389 0.0000 -0.9992
vn -0.9794 0.0000 -0.2018
vn -0.2715 0.0000 -0.9624
vn -0.4170 0.0000 0.9089
vn -0.7400 0.0000 0.6726
vn -0.7268 0.0000 0.6868
vn 0.5172 0.0000 0.8559
vn 0.1815 0.0000 0.9834
vn 0.3837 0.0000 0.9234
vn -0.6192 0.0000 0.7853
vn -0.1119 0.0000 0.9937
vn 0.7322 0.0000 -0.6811
vn 0.4302 0.0000 0.9027
vn 0.0700 0.0000 -0.9975
vn 0.9855 0.0000 -0.1699
vn 0.7097 0.0000 -0.7045
vn 1.0000 0.0000 0.0000
vn 0.9847 0.0000 0.1741
vn 0.7231 0.0000 0.6907
vn 0.7232 0.0000 0.6907
vn 0.8032 0.0000 -0.5957
usemtl N03
s 1
f 1//1 2//1 3//1
f 4//1 2//1 1//1
f 4//1 5//1 2//1
f 6//1 5//1 4//1
f 7//1 5//1 6//1
f 7//1 8//1 5//1
f 9//1 8//1 7//1
f 9//1 10//1 8//1
f 11//1 10//1 9//1
f 12//1 10//1 11//1
f 12//1 13//1 10//1
f 14//1 13//1 12//1
f 14//1 15//1 13//1
f 16//1 15//1 14//1
f 17//1 15//1 16//1
f 17//1 18//1 15//1
f 19//1 18//1 17//1
f 20//1 18//1 19//1
f 20//1 21//1 18//1
f 21//1 22//1 18//1
f 23//1 24//1 20//1
f 24//1 25//1 20//1
f 25//1 26//1 20//1
f 26//1 27//1 20//1
f 27//1 21//1 20//1
f 28//1 22//1 21//1
f 29//1 22//1 28//1
f 30//1 22//1 29//1
f 31//1 22//1 30//1
f 31//1 32//1 22//1
f 33//1 32//1 31//1
f 23//1 34//2 24//1
f 35//1 32//1 33//1
f 23//1 36//1 34//2
f 35//1 37//1 32//1
f 38//1 37//1 35//1
f 23//1 39//1 36//1
f 40//1 37//1 38//1
f 23//1 41//1 39//1
f 40//1 42//1 37//1
f 43//1 42//1 40//1
f 23//1 44//1 41//1
f 45//1 42//1 43//1
f 23//1 46//1 44//1
f 45//1 47//1 42//1
f 48//1 49//1 23//1
f 49//1 46//1 23//1
f 50//1 47//1 45//1
f 50//1 51//1 47//1
f 52//1 51//1 50//1
f 52//1 53//1 51//1
f 52//1 54//1 53//1
f 55//1 54//1 52//1
f 55//1 56//1 54//1
f 55//1 57//1 56//1
f 55//1 58//1 57//1
f 59//1 58//1 55//1
f 59//1 60//1 58//1
f 59//1 61//1 60//1
f 59//1 62//1 61//1
f 63//1 62//1 59//1
f 63//1 64//1 62//1
f 63//1 65//1 64//1
f 63//1 66//1 65//1
f 67//1 66//1 63//1
f 67//1 68//1 66//1
f 67//1 69//1 68//1
f 67//1 70//1 69//1
f 71//1 70//1 67//1
f 71//1 72//1 70//1
f 71//1 73//1 72//1
f 71//1 74//1 73//1
f 75//1 74//1 71//1
f 75//1 76//1 74//1
f 75//1 77//1 76//1
f 75//1 78//1 77//1
f 79//1 78//1 75//1
f 79//1 80//1 78//1
f 79//1 81//1 80//1
f 82//1 81//1 79//1
f 82//1 83//1 81//1
f 82//1 84//1 83//1
f 82//1 85//1 84//1
f 86//1 85//1 82//1
f 86//1 87//1 85//1
f 88//1 87//1 86//1
f 88//1 89//1 87//1
f 90//1 89//1 88//1
f 90//1 91//1 89//1
f 92//1 91//1 90//1
f 92//1 93//1 91//1
f 94//1 95//1 92//1
f 95//1 96//1 92//1
f 96//1 97//1 92//1
f 97//1 98//1 92//1
f 98//1 99//1 92//1
f 99//1 100//1 92//1
f 100//1 101//1 92//1
f 101//1 102//1 92//1
f 102//1 103//1 92//1
f 103//1 104//1 92//1
f 104//1 105//1 92//1
f 105//1 93//1 92//1
f 105//1 106//1 93//1
f 106//1 107//1 93//1
f 108//1 107//1 106//1
f 109//1 107//1 108//1
f 109//1 110//1 107//1
f 111//1 110//1 109//1
f 112//1 110//1 111//1
f 113//1 110//1 112//1
f 113//1 114//1 110//1
f 115//1 114//1 113//1
f 116//1 114//1 115//1
f 116//1 117//1 114//1
f 118//1 117//1 116//1
f 118//1 119//1 117//1
f 120//1 119//1 118//1
f 120//1 121//1 119//1
f 122//1 121//1 120//1
f 122//1 123//1 121//1
f 124//1 123//1 122//1
f 124//1 125//1 123//1
f 126//1 125//1 124//1
f 127//1 125//1 126//1
f 127//1 128//1 125//1
f 129//1 128//1 127//1
f 130//1 128//1 129//1
f 130//1 131//1 128//1
f 132//1 131//1 130//1
f 132//1 133//1 131//1
f 134//1 133//1 132//1
f 135//1 133//1 134//1
f 136//1 137//1 138//1
f 139//1 137//1 136//1
f 139//1 140//1 137//1
f 139//1 141//1 140//1
f 142//1 141//1 139//1
f 142//1 143//1 141//1
f 144//1 143//1 142//1
f 144//1 145//1 143//1
f 146//1 145//1 144//1
f 146//1 147//1 145//1
f 148//1 147//1 146//1
f 135//1 149//1 133//1
f 150//1 147//1 148//1
f 150//1 151//1 147//1
f 152//1 151//1 150//1
f 153//1 151//1 152//1
f 154//1 151//1 153//1
f 154//1 155//1 151//1
f 156//1 155//1 154//1
f 157//1 149//1 135//1
f 158//1 155//1 156//1
f 158//1 159//1 155//1
f 160//1 159//1 158//1
f 161//1 159//1 160//1
f 161//1 162//1 159//1
f 163//1 162//1 161//1
f 164//1 149//1 157//1
f 165//1 162//1 163//1
f 165//1 166//1 162//1
f 164//1 167//1 149//1
f 168//1 166//1 165//1
f 169//1 166//1 168//1
f 169//1 170//1 166//1
f 171//1 167//1 164//1
f 172//1 170//1 169//1
f 172//1 173//1 170//1
f 174//1 173//1 172//1
f 175//1 173//1 174//1
f 175//1 176//1 173//1
f 177//1 167//1 171//1
f 178//1 176//1 175//1
f 178//1 179//1 176//1
f 180//1 179//1 178//1
f 181//1 167//1 177//1
f 181//1 182//1 167//1
f 180//1 183//1 179//1
f 184//1 183//1 180//1
f 184//1 185//1 183//1
f 186//1 182//1 181//1
f 187//1 185//1 184//1
f 187//1 186//1 185//1
f 187//1 182//1 186//1
f 188//1 182//1 187//1
f 189//1 182//1 188//1
f 190//1 182//1 189//1
f 191//1 182//1 190//1
f 191//1 192//1 182//1
f 193//1 192//1 191//1
f 194//1 192//1 193//1
f 195//1 192//1 194//1
f 196//1 192//1 195//1
f 196//1 197//1 192//1
f 198//1 197//1 196//1
f 199//1 197//1 198//1
f 200//1 197//1 199//1
f 200//1 201//1 197//1
f 202//1 201//1 200//1
f 203//1 201//1 202//1
f 203//1 204//1 201//1
f 205//1 204//1 203//1
f 206//1 204//1 205//1
f 207//1 204//1 206//1
f 207//1 208//1 204//1
f 209//3 210//4 211//5
f 212//6 209//3 211//5
f 212//6 211//5 213//7
f 214//8 212//6 213//7
f 215//8 214//8 213//7
f 215//8 213//7 216//5
f 217//9 215//8 216//5
f 217//9 216//5 218//5
f 219//10 217//9 218//5
f 220//10 219//10 218//5
f 220//10 218//5 221//5
f 222//11 220//10 221//5
f 222//11 221//5 223//5
f 224//10 222//11 223//5
f 225//5 224//10 223//5
f 225//5 223//5 226//5
f 227//5 225//5 226//5
f 228//5 227//5 226//5
f 228//5 226//5 229//12
f 229//12 226//5 230//5
f 231//5 228//5 232//11
f 232//11 228//5 233//8
f 233//8 228//5 234//10
f 234//10 228//5 235//13
f 235//13 228//5 229//12
f 236//14 229//14 230//14
f 237//5 236//5 230//5
f 238//5 237//5 230//5
f 239//5 238//5 230//5
f 239//5 230//5 240//5
f 241//5 239//5 240//5
f 231//5 232//11 242//5
f 243//5 241//5 240//5
f 231//5 242//5 244//5
f 243//5 240//5 245//5
f 246//5 243//5 245//5
f 231//5 244//5 247//5
f 248//5 246//5 245//5
f 231//5 247//5 249//5
f 248//5 245//5 250//5
f 251//5 248//5 250//5
f 231//5 249//5 252//5
f 253//5 251//5 250//5
f 231//5 252//5 254//15
f 253//5 250//5 255//5
f 256//16 231//5 257//15
f 257//15 231//5 254//15
f 258//5 253//5 255//5
f 258//5 255//5 259//5
f 260//5 258//5 259//5
f 260//5 259//5 261//5
f 260//5 261//5 262//5
f 263//5 260//5 262//5
f 263//5 262//5 264//5
f 263//5 264//5 265//5
f 263//5 265//5 266//5
f 267//5 263//5 266//5
f 267//5 266//5 268//5
f 267//5 268//5 269//15
f 267//5 269//15 270//15
f 271//13 267//5 270//15
f 271//13 270//15 272//13
f 271//13 272//13 273//5
f 271//13 273//5 274//15
f 275//10 271//13 274//15
f 275//10 274//15 276//13
f 275//10 276//13 277//17
f 275//10 277//17 278//5
f 279//15 275//10 278//5
f 279//15 278//5 280//15
f 279//15 280//15 281//18
f 279//15 281//18 282//15
f 283//10 279//15 282//15
f 283//10 282//15 284//9
f 283//10 284//9 285//15
f 283//10 285//15 286//8
f 287//5 283//10 286//8
f 287//5 286//8 288//5
f 287//5 288//5 289//5
f 290//15 287//5 289//5
f 290//15 289//5 291//5
f 290//15 291//5 292//8
f 290//15 292//8 293//13
f 294//5 290//15 293//13
f 294//5 293//13 295//5
f 296//5 294//5 295//5
f 296//5 295//5 297//5
f 298//5 296//5 297//5
f 298//5 297//5 299//5
f 300//5 298//5 299//5
f 300//5 299//5 301//15
f 302//5 300//5 303//5
f 303//5 300//5 304//5
f 304//5 300//5 305//5
f 305//5 300//5 306//19
f 306//19 300//5 307//19
f 307//19 300//5 308//20
f 308//20 300//5 309//5
f 309//5 300//5 310//5
f 310//5 300//5 311//11
f 311//11 300//5 312//21
f 312//21 300//5 313//22
f 313//22 300//5 301//15
f 313//22 301//15 314//5
f 314//5 301//15 315//10
f 316//5 314//5 315//10
f 317//23 316//5 315//10
f 317//23 315//10 318//10
f 319//22 317//23 318//10
f 320//13 319//22 318//10
f 321//15 320//13 318//10
f 321//15 318//10 322//15
f 323//15 321//15 322//15
f 324//15 323//15 322//15
f 324//15 322//15 325//5
f 326//10 324//15 325//5
f 326//10 325//5 327//10
f 328//5 326//10 327//10
f 328//5 327//10 329//10
f 330//5 328//5 329//10
f 330//5 329//10 331//5
f 332//5 330//5 331//5
f 332//5 331//5 333//5
f 334//5 332//5 333//5
f 335//5 334//5 333//5
f 335//5 333//5 336//5
f 337//5 335//5 336//5
f 338//15 337//5 336//5
f 338//15 336//5 339//5
f 340//5 338//15 339//5
f 340//5 339//5 341//5
f 342//10 340//5 341//5
f 343//15 342//10 341//5
f 344//24 345//24 346//24
f 347//25 344//26 346//26
f 347//25 346//26 348//27
f 347//25 348//27 349//5
f 350//5 347//25 349//5
f 350//5 349//5 351//5
f 352//5 350//5 351//5
f 352//5 351//5 353//5
f 354//5 352//5 353//5
f 354//5 353//5 355//5
f 356//5 354//5 355//5
f 343//15 341//5 357//5
f 358//5 356//5 355//5
f 358//5 355//5 359//5
f 360//5 358//5 359//5
f 361//5 360//5 359//5
f 362//5 361//5 359//5
f 362//5 359//5 363//5
f 364//5 362//5 363//5
f 365//11 343//15 357//5
f 366//5 364//5 363//5
f 366//5 363//5 367//5
f 368//5 366//5 367//5
f 369//5 368//5 367//5
f 369//5 367//5 370//5
f 371//5 369//5 370//5
f 372//5 365//11 357//5
f 373//5 371//5 370//5
f 373//5 370//5 374//5
f 372//5 357//5 375//5
f 376//5 373//5 374//5
f 377//5 376//5 374//5
f 377//5 374//5 378//15
f 379//8 372//5 375//5
f 380//5 377//5 378//15
f 380//5 378//15 381//5
f 382//5 380//5 381//5
f 383//5 382//5 381//5
f 383//5 381//5 384//10
f 385//5 379//8 375//5
f 386//5 383//5 384//10
f 386//5 384//10 387//8
f 388//8 386//5 387//8
f 389//9 385//5 375//5
f 389//9 375//5 390//5
f 388//8 387//8 391//5
f 392//28 388//8 391//5
f 392//28 391//5 393//28
f 394//5 389//9 390//5
f 395//5 392//28 393//28
f 395//5 393//28 394//5
f 395//5 394//5 390//5
f 396//8 395//5 390//5
f 397//13 396//8 390//5
f 398//10 397//13 390//5
f 399//12 398//10 390//5
f 399//12 390//5 400//5
f 401//13 399//12 400//5
f 402//15 401//13 400//5
f 403//11 402//15 400//5
f 404//11 403//11 400//5
f 404//11 400//5 405//5
f 406//5 404//11 405//5
f 407//5 406//5 405//5
f 408//5 407//5 405//5
f 408//5 405//5 409//10
f 410//10 408//5 409//10
f 411//10 410//10 409//10
f 411//10 409//10 412//5
f 413//5 411//10 412//5
f 414//5 413//5 412//5
f 415//5 414//5 412//5
f 415//5 412//5 416//5
f 90//29 88//29 296//29
f 296//29 298//29 90//29
f 189//30 188//30 396//30
f 396//30 397//30 189//30
f 100//31 99//31 307//31
f 307//31 308//31 100//31
f 172//32 169//32 377//32
f 377//32 380//32 172//32
f 63//33 59//33 267//33
f 267//33 271//33 63//33
f 199//34 198//34 406//34
f 406//34 407//34 199//34
f 38//35 35//35 243//35
f 243//35 246//35 38//35
f 204//36 208//36 416//36
f 416//36 412//36 204//36
f 118//37 116//37 324//37
f 324//37 326//37 118//37
f 142//38 139//38 347//39
f 347//39 350//39 142//38
f 156//40 154//40 362//40
f 362//40 364//40 156//40
f 106//41 105//41 313//41
f 313//41 314//41 106//41
f 145//42 147//42 355//42
f 355//42 353//42 145//42
f 132//43 130//43 338//43
f 338//43 340//43 132//43
f 186//44 181//44 389//44
f 389//44 394//44 186//44
f 19//45 17//45 225//45
f 225//45 227//45 19//45
f 6//46 4//46 212//46
f 212//46 214//46 6//46
f 89//47 91//47 299//47
f 299//47 297//47 89//47
f 39//48 41//48 249//48
f 249//48 247//48 39//48
f 28//49 21//49 229//49
f 229//49 236//49 28//49
f 131//50 133//50 341//50
f 341//50 339//50 131//50
f 121//51 123//51 331//51
f 331//51 329//51 121//51
f 60//52 61//52 269//52
f 269//52 268//52 60//52
f 42//53 47//53 255//53
f 255//53 250//53 42//53
f 70//54 72//54 280//54
f 280//54 278//54 70//54
f 81//55 83//55 291//55
f 291//55 289//56 81//55
f 195//57 194//57 402//57
f 402//57 403//57 195//57
f 88//58 86//58 294//58
f 294//58 296//58 88//58
f 99//59 98//59 306//59
f 306//59 307//59 99//59
f 169//60 168//60 376//60
f 376//60 377//60 169//60
f 184//61 180//61 388//61
f 388//61 392//61 184//61
f 59//62 55//62 263//62
f 263//62 267//62 59//62
f 167//63 182//63 390//63
f 390//63 375//63 167//63
f 35//64 33//64 241//64
f 241//64 243//64 35//64
f 206//65 205//65 413//65
f 413//65 414//65 206//65
f 120//66 118//66 326//66
f 326//66 328//66 120//66
f 139//67 136//67 344//67
f 344//67 347//67 139//67
f 108//68 106//68 314//68
f 314//68 316//68 108//68
f 154//69 153//69 361//69
f 361//69 362//69 154//69
f 134//70 132//70 340//70
f 340//70 342//70 134//70
f 147//71 151//71 359//71
f 359//71 355//71 147//71
f 185//72 186//72 394//72
f 394//72 393//72 185//72
f 20//73 19//73 227//73
f 227//73 228//73 20//73
f 84//74 85//74 293//74
f 293//74 292//74 84//74
f 7//75 6//75 214//75
f 214//75 215//75 7//75
f 36//76 39//76 247//76
f 247//76 244//76 36//76
f 114//77 117//77 325//77
f 325//77 322//77 114//77
f 29//78 28//78 236//78
f 236//78 237//78 29//78
f 47//79 51//79 259//79
f 259//79 255//79 47//79
f 10//80 13//80 221//80
f 221//80 218//80 10//80
f 61//81 62//81 270//81
f 270//81 269//81 61//81
f 72//82 73//83 281//82
f 281//82 280//82 72//82
f 94//84 92//84 300//84
f 300//84 302//84 94//84
f 191//85 190//85 398//85
f 398//85 399//85 191//85
f 102//86 101//86 309//86
f 309//86 310//86 102//86
f 175//87 174//87 382//87
f 382//87 383//87 175//87
f 71//88 67//88 275//88
f 275//88 279//88 71//88
f 202//89 200//89 408//89
f 408//89 410//89 202//89
f 43//90 40//90 248//90
f 248//90 251//90 43//90
f 197//91 201//91 409//91
f 409//91 405//91 197//91
f 122//92 120//92 328//92
f 328//92 330//92 122//92
f 146//93 144//93 352//93
f 352//93 354//93 146//93
f 109//94 108//94 316//94
f 316//94 317//94 109//94
f 160//95 158//95 366//95
f 366//95 368//95 160//95
f 135//96 134//96 342//96
f 342//96 343//96 135//96
f 141//97 143//97 351//97
f 351//97 349//97 141//97
f 183//98 185//98 393//98
f 393//98 391//98 183//98
f 166//99 170//99 378//99
f 378//99 374//99 166//99
f 16//100 14//100 222//100
f 222//100 224//100 16//100
f 1//101 3//101 210//101
f 210//101 209//101 1//101
f 93//102 107//102 315//102
f 315//102 301//102 93//102
f 44//103 46//103 254//103
f 254//103 252//103 44//103
f 27//104 26//104 234//104
f 234//104 235//104 27//104
f 51//105 53//105 261//105
f 261//105 259//105 51//105
f 125//106 128//106 336//106
f 336//106 333//106 125//106
f 13//107 15//107 223//107
f 223//107 221//107 13//107
f 62//108 64//108 272//109
f 272//109 270//109 62//108
f 73//83 74//110 282//111
f 282//111 281//82 73//83
f 193//112 191//112 399//112
f 399//112 401//112 193//112
f 82//113 79//113 287//113
f 287//113 290//113 82//113
f 97//114 96//115 304//114
f 304//114 305//116 97//114
f 178//117 175//117 383//117
f 383//117 386//117 178//117
f 52//118 50//118 258//118
f 258//118 260//118 52//118
f 192//119 197//119 405//119
f 405//119 400//119 192//119
f 203//120 202//120 410//120
f 410//120 411//120 203//120
f 152//121 150//121 358//121
f 358//121 360//121 152//121
f 31//122 30//122 238//122
f 238//122 239//122 31//122
f 116//123 115//123 323//123
f 323//123 324//123 116//123
f 165//124 163//124 371//124
f 371//124 373//124 165//124
f 105//125 104//125 312//125
f 312//125 313//125 105//125
f 138//126 137//126 346//126
f 346//126 345//126 138//126
f 155//127 159//127 367//127
f 367//127 363//127 155//127
f 130//128 129//128 337//128
f 337//128 338//128 130//128
f 181//129 177//129 385//129
f 385//129 389//129 181//129
f 11//130 9//130 217//130
f 217//130 219//130 11//130
f 5//131 8//131 216//131
f 216//131 213//131 5//131
f 107//132 110//132 318//132
f 318//132 315//132 107//132
f 48//133 23//133 231//133
f 231//133 256//133 48//133
f 24//134 34//134 242//134
f 242//134 232//134 24//134
f 128//135 131//135 339//135
f 339//135 336//135 128//135
f 58//136 60//136 268//136
f 268//136 266//136 58//136
f 37//137 42//137 250//137
f 250//137 245//137 37//137
f 69//138 70//138 278//138
f 278//138 277//138 69//138
f 80//56 81//55 289//56
f 289//56 288//139 80//56
f 194//140 193//140 401//140
f 401//140 402//140 194//140
f 79//141 75//141 283//142
f 283//142 287//142 79//141
f 96//115 95//143 303//115
f 303//115 304//114 96//115
f 180//144 178//144 386//144
f 386//144 388//144 180//144
f 50//145 45//145 253//145
f 253//145 258//145 50//145
f 182//146 192//146 400//146
f 400//146 390//146 182//146
f 205//147 203//147 411//147
f 411//147 413//147 205//147
f 30//148 29//148 237//148
f 237//148 238//148 30//148
f 126//149 124//149 332//149
f 332//149 334//149 126//149
f 163//150 161//150 369//150
f 369//150 371//150 163//150
f 112//151 111//151 319//151
f 319//151 320//151 112//151
f 150//152 148//152 356//152
f 356//152 358//152 150//152
f 164//153 157//153 365//153
f 365//153 372//153 164//153
f 137//154 140//154 348//154
f 348//154 346//154 137//154
f 176//155 179//155 387//155
f 387//155 384//155 176//155
f 173//156 176//156 384//156
f 384//156 381//156 173//156
f 12//157 11//157 219//157
f 219//157 220//157 12//157
f 159//158 162//158 370//158
f 370//158 367//158 159//158
f 2//159 5//159 213//159
f 213//159 211//159 2//159
f 110//160 114//160 322//160
f 322//160 318//160 110//160
f 49//161 48//161 256//161
f 256//161 257//161 49//161
f 25//162 24//162 232//162
f 232//162 233//162 25//162
f 54//163 56//163 264//163
f 264//163 262//163 54//163
f 18//164 22//164 230//164
f 230//164 226//164 18//164
f 65//165 66//165 274//165
f 274//165 273//165 65//165
f 76//166 77//167 285//168
f 285//168 284//110 76//166
f 190//169 189//169 397//169
f 397//169 398//169 190//169
f 75//170 71//170 279//170
f 279//170 283//170 75//170
f 95//143 94//143 302//143
f 302//143 303//115 95//143
f 174//171 172//171 380//171
f 380//171 382//171 174//171
f 45//172 43//172 251//172
f 251//172 253//172 45//172
f 200//173 199//173 407//173
f 407//173 408//173 200//173
f 201//174 204//174 412//174
f 412//174 409//174 201//174
f 113//175 112//175 320//175
f 320//175 321//175 113//175
f 161//176 160//176 368//176
f 368//176 369//176 161//176
f 148//177 146//177 354//178
f 354//178 356//177 148//177
f 140//179 141//179 349//180
f 349//180 348//180 140//179
f 103//181 102//181 310//181
f 310//181 311//181 103//181
f 127//182 126//182 334//182
f 334//182 335//182 127//182
f 171//183 164//183 372//183
f 372//183 379//183 171//183
f 14//184 12//184 220//184
f 220//184 222//184 14//184
f 162//185 166//185 374//185
f 374//185 370//185 162//185
f 3//186 2//186 211//186
f 211//186 210//186 3//186
f 91//187 93//187 301//187
f 301//187 299//187 91//187
f 46//188 49//188 257//188
f 257//188 254//188 46//188
f 26//189 25//189 233//189
f 233//189 234//189 26//189
f 123//190 125//190 333//190
f 333//190 331//190 123//190
f 56//191 57//191 265//191
f 265//191 264//191 56//191
f 22//192 32//192 240//192
f 240//192 230//192 22//192
f 66//193 68//193 276//193
f 276//193 274//193 66//193
f 77//167 78//194 286//167
f 286//167 285//168 77//167
f 196//195 195//195 403//195
f 403//195 404//195 196//195
f 86//196 82//196 290//196
f 290//196 294//196 86//196
f 187//197 184//197 392//197
f 392//197 395//197 187//197
f 98//116 97//114 305//116
f 305//116 306//116 98//116
f 207//198 206//198 414//198
f 414//198 415//198 207//198
f 55//199 52//199 260//199
f 260//199 263//199 55//199
f 149//200 167//200 375//200
f 375//200 357//200 149//200
f 33//201 31//201 239//201
f 239//201 241//201 33//201
f 153//202 152//202 360//202
f 360//202 361//202 153//202
f 115//203 113//203 321//203
f 321//203 323//203 115//203
f 168//204 165//204 373//204
f 373//204 376//204 168//204
f 104//205 103//205 311//205
f 311//205 312//205 104//205
f 136//206 138//206 345//206
f 345//206 344//206 136//206
f 151//207 155//207 363//208
f 363//208 359//208 151//207
f 129//209 127//209 335//209
f 335//209 337//209 129//209
f 177//210 171//210 379//210
f 379//210 385//210 177//210
f 9//211 7//211 215//211
f 215//211 217//211 9//211
f 85//212 87//212 295//212
f 295//212 293//212 85//212
f 8//213 10//213 218//213
f 218//213 216//213 8//213
f 23//214 20//214 228//214
f 228//214 231//214 23//214
f 34//215 36//215 244//215
f 244//215 242//215 34//215
f 57//216 58//216 266//216
f 266//216 265//216 57//216
f 117//217 119//217 327//217
f 327//217 325//217 117//217
f 32//218 37//218 245//218
f 245//218 240//218 32//218
f 68//219 69//219 277//219
f 277//219 276//219 68//219
f 78//194 80//56 288//139
f 288//139 286//167 78//194
f 92//220 90//220 298//220
f 298//220 300//220 92//220
f 188//221 187//221 395//221
f 395//221 396//221 188//221
f 101//222 100//222 308//222
f 308//222 309//222 101//222
f 67//223 63//223 271//223
f 271//223 275//223 67//223
f 40//224 38//224 246//224
f 246//224 248//224 40//224
f 198//225 196//225 404//225
f 404//225 406//225 198//225
f 208//226 207//226 415//226
f 415//226 416//226 208//226
f 124//227 122//227 330//227
f 330//227 332//227 124//227
f 111//228 109//228 317//228
f 317//228 319//228 111//228
f 144//229 142//229 350//229
f 350//229 352//229 144//229
f 158//230 156//230 364//230
f 364//230 366//230 158//230
f 157//231 135//231 343//231
f 343//231 365//231 157//231
f 143//232 145//232 353//232
f 353//232 351//232 143//232
f 179//233 183//233 391//233
f 391//233 387//233 179//233
f 170//234 173//234 381//234
f 381//234 378//234 170//234
f 17//235 16//235 224//235
f 224//235 225//235 17//235
f 4//236 1//236 209//236
f 209//236 212//236 4//236
f 41//237 44//237 252//237
f 252//237 249//237 41//237
f 87//238 89//238 297//238
f 297//238 295//238 87//238
f 21//239 27//239 235//239
f 235//239 229//239 21//239
f 53//240 54//240 262//240
f 262//240 261//240 53//240
f 133//241 149//241 357//241
f 357//241 341//241 133//241
f 83//242 84//242 292//242
f 292//242 291//242 83//242
f 119//243 121//243 329//243
f 329//243 327//243 119//243
f 15//244 18//244 226//245
f 226//245 223//245 15//244
f 64//246 65//246 273//246
f 273//246 272//246 64//246
f 74//110 76//166 284//110
f 284//110 282//111 74//110
