# Blender v2.90.0 OBJ File: ''
# www.blender.org
mtllib N04.mtl
o N04
v 0.118700 -0.053651 0.395715
v 0.221262 -0.053651 0.451683
v 0.160495 -0.053651 0.451683
v 0.221262 -0.053651 -0.197343
v 0.077296 -0.053651 0.339285
v 0.106480 -0.053651 0.280354
v 0.036283 -0.053651 0.282490
v -0.004333 -0.053651 0.225432
v 0.103948 -0.053651 0.280354
v 0.077300 -0.053651 0.242748
v 0.106480 -0.053651 -0.197343
v 0.050917 -0.053651 0.204997
v -0.044551 -0.053651 0.168210
v 0.024745 -0.053651 0.167022
v -0.084367 -0.053651 0.110924
v -0.001270 -0.053651 0.128748
v -0.027178 -0.053651 0.090100
v -0.123779 -0.053651 0.053672
v -0.053034 -0.053651 0.051000
v -0.162784 -0.053651 -0.003445
v -0.078890 -0.053651 0.011373
v -0.104798 -0.053651 -0.028858
v -0.201378 -0.053651 -0.060327
v -0.130812 -0.053651 -0.069769
v -0.239559 -0.053651 -0.116875
v -0.156985 -0.053651 -0.111436
v -0.183368 -0.053651 -0.153935
v -0.277324 -0.053651 -0.172990
v -0.210016 -0.053651 -0.197343
v -0.314670 -0.053651 -0.228571
v 0.376556 -0.053651 -0.197343
v 0.376556 -0.053651 -0.274145
v -0.314670 -0.053651 -0.274145
v 0.106480 -0.053651 -0.274145
v 0.106480 -0.053651 -0.551818
v 0.221262 -0.053651 -0.274145
v 0.221262 -0.053651 -0.551818
v 0.118700 0.053651 0.395715
v 0.160495 0.053651 0.451683
v 0.221262 0.053648 0.451683
v 0.221262 0.053651 -0.197343
v 0.077296 0.053651 0.339285
v 0.106480 0.053651 0.280354
v 0.036283 0.053651 0.282490
v -0.004333 0.053651 0.225432
v 0.103948 0.053651 0.280354
v 0.077300 0.053651 0.242748
v 0.106480 0.053651 -0.197343
v 0.050917 0.053651 0.204997
v -0.044551 0.053651 0.168210
v 0.024745 0.053651 0.167022
v -0.084367 0.053651 0.110924
v -0.001270 0.053648 0.128748
v -0.027178 0.053651 0.090100
v -0.123779 0.053651 0.053672
v -0.053034 0.053651 0.051000
v -0.162784 0.053651 -0.003445
v -0.078890 0.053651 0.011373
v -0.104798 0.053648 -0.028858
v -0.201378 0.053648 -0.060327
v -0.130812 0.053651 -0.069769
v -0.239559 0.053651 -0.116875
v -0.156985 0.053651 -0.111436
v -0.183368 0.053651 -0.153935
v -0.277324 0.053648 -0.172990
v -0.210016 0.053651 -0.197343
v -0.314670 0.053651 -0.228571
v 0.376556 0.053651 -0.197343
v 0.376556 0.053651 -0.274145
v -0.314670 0.053651 -0.274145
v 0.106480 0.053651 -0.274145
v 0.106480 0.053648 -0.551818
v 0.221262 0.053651 -0.274145
v 0.221262 0.053651 -0.551818
vn 0.0000 -1.0000 0.0000
vn 0.0000 -1.0000 0.0001
vn 0.0000 0.0000 1.0000
vn 0.0000 0.0000 -1.0000
vn 0.0000 1.0000 -0.0000
vn 0.0001 1.0000 -0.0000
vn 0.0000 1.0000 0.0001
vn 0.0001 1.0000 -0.0001
vn 0.0000 1.0000 -0.0001
vn 1.0000 0.0000 0.0000
vn 0.8468 -0.0000 -0.5319
vn 0.8496 -0.0000 -0.5274
vn 0.8438 0.0000 -0.5366
vn 0.8522 -0.0000 -0.5233
vn 0.8522 0.0000 -0.5232
vn -0.8237 0.0000 0.5670
vn -0.8211 0.0000 0.5707
vn -0.8258 0.0000 0.5639
vn 0.8234 -0.0000 -0.5675
vn 0.8270 -0.0000 -0.5622
vn 0.8197 0.0000 -0.5728
vn -0.8147 0.0000 0.5799
vn -0.8107 0.0000 0.5854
vn -0.8181 0.0000 0.5750
vn 0.8306 -0.0000 -0.5568
vn 0.8341 -0.0000 -0.5517
vn 0.8270 -0.0000 -0.5621
vn 0.8159 0.0000 -0.5782
vn -0.8298 0.0000 0.5580
vn -0.8288 0.0000 0.5596
vn -0.8296 -0.0000 0.5583
vn -1.0000 0.0000 0.0000
vn -0.8275 0.0000 0.5615
vn -0.8259 0.0000 0.5638
vn -0.8274 -0.0000 0.5615
vn -0.8288 0.0000 0.5595
vn -0.8013 0.0000 0.5983
vn -0.8012 0.0000 0.5983
vn -0.8062 0.0000 0.5916
vn 0.8375 -0.0000 -0.5465
vn 0.8341 0.0000 -0.5516
vn -0.8063 0.0000 0.5916
vn 0.8408 -0.0000 -0.5414
vn 0.8407 -0.0000 -0.5414
vn 0.8375 0.0000 -0.5464
vn -0.8300 0.0000 0.5577
usemtl N04
s 1
f 1//1 2//1 3//1
f 1//1 4//1 2//1
f 5//1 6//1 1//1
f 6//1 4//1 1//1
f 7//1 6//1 5//1
f 8//1 9//2 7//1
f 9//2 6//1 7//1
f 8//1 10//1 9//2
f 11//1 4//1 6//1
f 8//1 12//1 10//1
f 13//1 12//1 8//1
f 13//1 14//1 12//1
f 15//1 14//1 13//1
f 15//1 16//1 14//1
f 15//1 17//1 16//1
f 18//1 17//1 15//1
f 18//1 19//1 17//1
f 20//1 19//1 18//1
f 20//1 21//1 19//1
f 20//1 22//1 21//1
f 23//1 22//1 20//1
f 23//1 24//1 22//1
f 25//1 24//1 23//1
f 25//1 26//1 24//1
f 25//1 27//1 26//1
f 28//1 27//1 25//1
f 28//1 29//1 27//1
f 30//1 29//1 28//1
f 30//1 11//1 29//1
f 30//1 4//1 11//1
f 30//1 31//1 4//1
f 30//1 32//1 31//1
f 33//1 32//1 30//1
f 34//3 32//3 33//3
f 35//1 36//1 34//1
f 36//4 32//3 34//3
f 35//1 37//1 36//1
f 38//5 39//6 40//5
f 38//5 40//5 41//5
f 42//5 38//5 43//5
f 43//5 38//5 41//5
f 44//5 42//5 43//5
f 45//5 44//5 46//7
f 46//7 44//5 43//5
f 45//5 46//7 47//5
f 48//5 43//5 41//5
f 45//5 47//5 49//5
f 50//5 45//5 49//5
f 50//5 49//5 51//5
f 52//5 50//5 51//5
f 52//5 51//5 53//8
f 52//5 53//8 54//5
f 55//5 52//5 54//5
f 55//5 54//5 56//5
f 57//9 55//5 56//5
f 57//9 56//5 58//5
f 57//9 58//5 59//5
f 60//7 57//9 59//5
f 60//7 59//5 61//7
f 62//5 60//7 61//7
f 62//5 61//7 63//5
f 62//5 63//5 64//5
f 65//5 62//5 64//5
f 65//5 64//5 66//5
f 67//5 65//5 66//5
f 67//5 66//5 48//5
f 67//5 48//5 41//5
f 67//5 41//5 68//5
f 67//5 68//5 69//5
f 70//5 67//5 69//5
f 71//3 70//3 69//3
f 72//5 71//5 73//5
f 73//4 71//3 69//3
f 72//5 73//5 74//5
f 29//3 11//3 48//3
f 48//3 66//3 29//3
f 31//10 32//10 69//10
f 69//10 68//10 31//10
f 24//11 26//12 63//11
f 63//11 61//13 24//11
f 27//14 29//15 66//15
f 66//15 64//12 27//14
f 18//16 15//17 52//16
f 52//16 55//18 18//16
f 12//19 14//20 51//19
f 51//19 49//21 12//19
f 4//3 31//3 68//3
f 68//3 41//3 4//3
f 6//4 9//4 46//4
f 46//4 43//4 6//4
f 8//22 7//23 44//22
f 44//22 45//24 8//22
f 2//10 4//10 41//10
f 41//10 40//10 2//10
f 16//25 17//26 54//25
f 54//25 53//27 16//25
f 9//28 10//21 47//28
f 47//28 46//28 9//28
f 28//29 25//30 62//31
f 62//31 65//29 28//29
f 14//20 16//25 53//27
f 53//27 51//19 14//20
f 11//32 6//32 43//32
f 43//32 48//32 11//32
f 23//33 20//34 57//35
f 57//35 60//36 23//33
f 32//4 36//4 73//4
f 73//4 69//4 32//4
f 26//12 27//14 64//12
f 64//12 63//11 26//12
f 10//21 12//19 49//21
f 49//21 47//28 10//21
f 1//37 3//38 39//38
f 39//38 38//39 1//37
f 33//32 30//32 67//32
f 67//32 70//32 33//32
f 25//30 23//33 60//36
f 60//36 62//31 25//30
f 17//26 19//40 56//41
f 56//41 54//25 17//26
f 37//4 35//4 72//4
f 72//4 74//4 37//4
f 7//23 5//42 42//23
f 42//23 44//22 7//23
f 22//13 24//11 61//13
f 61//13 59//43 22//13
f 5//42 1//37 38//39
f 38//39 42//23 5//42
f 34//4 33//4 70//4
f 70//4 71//4 34//4
f 35//32 34//32 71//32
f 71//32 72//32 35//32
f 20//34 18//16 55//18
f 55//18 57//35 20//34
f 21//44 22//13 59//43
f 59//43 58//45 21//44
f 13//24 8//22 45//24
f 45//24 50//17 13//24
f 3//3 2//3 40//3
f 40//3 39//3 3//3
f 36//10 37//10 74//10
f 74//10 73//10 36//10
f 15//17 13//24 50//17
f 50//17 52//16 15//17
f 30//46 28//29 65//29
f 65//29 67//46 30//46
f 19//40 21//44 58//45
f 58//45 56//41 19//40
