# Blender v2.90.0 OBJ File: ''
# www.blender.org
mtllib N05.mtl
o N05
v -0.184867 -0.052856 0.238984
v -0.070954 -0.052856 0.606497
v -0.128326 -0.052856 0.712926
v 0.314851 -0.052856 0.712926
v 0.323997 -0.052856 0.698791
v 0.285749 -0.052856 0.606497
v -0.109202 -0.052856 0.311323
v 0.042478 -0.052856 0.355721
v 0.102549 -0.052856 0.353416
v 0.053767 -0.052856 0.356223
v 0.030320 -0.052856 0.354282
v 0.017429 -0.052856 0.352014
v 0.147043 -0.052856 0.345337
v 0.003940 -0.052856 0.349017
v -0.010010 -0.052856 0.345396
v -0.024288 -0.052856 0.341257
v 0.187258 -0.052856 0.332500
v -0.038755 -0.052856 0.336700
v -0.053278 -0.052856 0.331833
v 0.223204 -0.052856 0.315419
v -0.067719 -0.052856 0.326758
v -0.081945 -0.052856 0.321578
v -0.095817 -0.052856 0.316399
v 0.254888 -0.052856 0.294608
v -0.175711 -0.052856 0.242144
v -0.165735 -0.052856 0.245348
v -0.154985 -0.052856 0.248534
v -0.143508 -0.052856 0.251641
v -0.131350 -0.052856 0.254611
v -0.118556 -0.052856 0.257381
v -0.105174 -0.052856 0.259891
v -0.091248 -0.052856 0.262081
v -0.076827 -0.052856 0.263890
v -0.061954 -0.052856 0.265257
v -0.046677 -0.052856 0.266122
v -0.031044 -0.052856 0.266423
v 0.282320 -0.052856 0.270581
v 0.012461 -0.052856 0.264398
v 0.305507 -0.052856 0.243851
v 0.051954 -0.052856 0.258466
v 0.087481 -0.052856 0.248845
v 0.119085 -0.052856 0.235751
v 0.324459 -0.052856 0.214934
v 0.146807 -0.052856 0.219400
v 0.170694 -0.052856 0.200009
v 0.339185 -0.052856 0.184341
v 0.190787 -0.052856 0.177795
v 0.349693 -0.052856 0.152588
v 0.207129 -0.052856 0.152973
v 0.219764 -0.052856 0.125761
v 0.355990 -0.052856 0.120189
v 0.228736 -0.052856 0.096375
v 0.358088 -0.052856 0.087656
v 0.234087 -0.052856 0.065031
v 0.357149 -0.052856 0.064226
v 0.235861 -0.052856 0.031947
v 0.354319 -0.052856 0.040947
v 0.349579 -0.052856 0.017864
v 0.234422 -0.052856 0.003022
v 0.342906 -0.052856 -0.004977
v 0.230106 -0.052856 -0.025675
v 0.334282 -0.052856 -0.027529
v 0.222908 -0.052856 -0.053708
v 0.323686 -0.052856 -0.049746
v 0.311097 -0.052856 -0.071582
v 0.212826 -0.052856 -0.080641
v 0.296497 -0.052856 -0.092990
v 0.199857 -0.052856 -0.106038
v 0.279864 -0.052856 -0.113926
v 0.183998 -0.052856 -0.129464
v 0.261179 -0.052856 -0.134341
v -0.185698 -0.052856 -0.122500
v -0.178861 -0.052856 -0.122739
v -0.182332 -0.052856 -0.122348
v -0.188995 -0.052856 -0.123172
v -0.175253 -0.052856 -0.123695
v -0.192258 -0.052856 -0.124340
v -0.171470 -0.052856 -0.125241
v -0.195520 -0.052856 -0.125982
v -0.167481 -0.052856 -0.127398
v -0.198817 -0.052856 -0.128074
v -0.163248 -0.052856 -0.130191
v -0.202183 -0.052856 -0.130593
v 0.165246 -0.052856 -0.150481
v -0.154499 -0.052856 -0.137062
v -0.205654 -0.052856 -0.133517
v -0.210071 -0.052856 -0.136956
v 0.240420 -0.052856 -0.154190
v -0.214176 -0.052856 -0.140588
v -0.144463 -0.052856 -0.144622
v -0.217969 -0.052856 -0.144365
v -0.221452 -0.052856 -0.148237
v -0.133133 -0.052856 -0.152628
v -0.224622 -0.052856 -0.152156
v 0.143598 -0.052856 -0.168655
v -0.227480 -0.052856 -0.156071
v -0.120504 -0.052856 -0.160833
v 0.217568 -0.052856 -0.173428
v -0.230026 -0.052856 -0.159934
v -0.232261 -0.052856 -0.163697
v -0.106570 -0.052856 -0.168991
v -0.234184 -0.052856 -0.167309
v -0.235795 -0.052856 -0.170722
v 0.119051 -0.052856 -0.183549
v -0.091326 -0.052856 -0.176858
v -0.237094 -0.052856 -0.173887
v 0.196358 -0.052856 -0.190485
v -0.238081 -0.052856 -0.176754
v -0.238529 -0.052856 -0.181597
v -0.074764 -0.052856 -0.184187
v -0.238616 -0.052856 -0.186185
v 0.091603 -0.052856 -0.194727
v -0.056881 -0.052856 -0.190735
v -0.238328 -0.052856 -0.190577
v 0.174404 -0.052856 -0.206291
v -0.237650 -0.052856 -0.194831
v -0.037669 -0.052856 -0.196254
v 0.061251 -0.052856 -0.201753
v -0.236568 -0.052856 -0.199004
v -0.017124 -0.052856 -0.200501
v -0.235067 -0.052856 -0.203153
v 0.004761 -0.052856 -0.203229
v 0.027991 -0.052856 -0.204193
v -0.233133 -0.052856 -0.207338
v 0.151868 -0.052856 -0.220809
v -0.230752 -0.052856 -0.211614
v -0.227908 -0.052856 -0.216041
v -0.224589 -0.052856 -0.220676
v -0.220778 -0.052856 -0.225576
v 0.128908 -0.052856 -0.234003
v -0.216463 -0.052856 -0.230800
v -0.209698 -0.052856 -0.236454
v 0.105682 -0.052856 -0.245834
v -0.201146 -0.052856 -0.242494
v -0.190960 -0.052856 -0.248755
v 0.082350 -0.052856 -0.256264
v -0.179292 -0.052856 -0.255066
v -0.166298 -0.052856 -0.261264
v 0.059068 -0.052856 -0.265257
v -0.152127 -0.052856 -0.267177
v 0.035998 -0.052856 -0.272774
v -0.136935 -0.052856 -0.272640
v -0.120873 -0.052856 -0.277485
v 0.013298 -0.052856 -0.278779
v -0.104096 -0.052856 -0.281546
v -0.008875 -0.052856 -0.283233
v -0.086756 -0.052856 -0.284654
v -0.030359 -0.052856 -0.286099
v -0.069006 -0.052856 -0.286641
v -0.050999 -0.052856 -0.287340
v -0.184867 0.052852 0.238984
v -0.128326 0.052856 0.712926
v -0.070954 0.052856 0.606497
v 0.314851 0.052856 0.712926
v 0.323997 0.052856 0.698791
v 0.285749 0.052856 0.606497
v -0.109202 0.052856 0.311323
v 0.042478 0.052856 0.355721
v 0.053767 0.052852 0.356223
v 0.102549 0.052856 0.353416
v 0.030320 0.052856 0.354282
v 0.017429 0.052856 0.352014
v 0.147043 0.052856 0.345337
v 0.003940 0.052856 0.349017
v -0.010010 0.052856 0.345396
v -0.024288 0.052852 0.341257
v 0.187258 0.052856 0.332500
v -0.038755 0.052856 0.336700
v -0.053278 0.052856 0.331833
v 0.223204 0.052856 0.315419
v -0.067719 0.052856 0.326758
v -0.081945 0.052856 0.321578
v -0.095817 0.052856 0.316399
v 0.254888 0.052856 0.294608
v -0.175711 0.052856 0.242144
v -0.165735 0.052856 0.245348
v -0.154985 0.052856 0.248534
v -0.143508 0.052856 0.251641
v -0.131350 0.052856 0.254611
v -0.118556 0.052856 0.257381
v -0.105174 0.052856 0.259891
v -0.091248 0.052856 0.262081
v -0.076827 0.052856 0.263890
v -0.061954 0.052852 0.265257
v -0.046677 0.052856 0.266122
v -0.031044 0.052856 0.266423
v 0.282320 0.052852 0.270581
v 0.012461 0.052856 0.264398
v 0.305507 0.052856 0.243851
v 0.051954 0.052856 0.258466
v 0.087481 0.052852 0.248845
v 0.119085 0.052856 0.235751
v 0.324459 0.052852 0.214934
v 0.146807 0.052856 0.219400
v 0.170694 0.052856 0.200009
v 0.339185 0.052856 0.184341
v 0.190787 0.052856 0.177795
v 0.349693 0.052856 0.152588
v 0.207129 0.052856 0.152973
v 0.219764 0.052856 0.125761
v 0.355990 0.052856 0.120189
v 0.228736 0.052852 0.096375
v 0.358088 0.052856 0.087656
v 0.234087 0.052856 0.065031
v 0.357149 0.052856 0.064226
v 0.235861 0.052852 0.031947
v 0.354319 0.052856 0.040947
v 0.349579 0.052856 0.017864
v 0.234422 0.052856 0.003022
v 0.342906 0.052856 -0.004977
v 0.230106 0.052856 -0.025675
v 0.334282 0.052856 -0.027529
v 0.222908 0.052856 -0.053708
v 0.323686 0.052856 -0.049746
v 0.311097 0.052856 -0.071582
v 0.212826 0.052856 -0.080641
v 0.296497 0.052856 -0.092990
v 0.199857 0.052856 -0.106038
v 0.279864 0.052856 -0.113926
v 0.183998 0.052852 -0.129464
v 0.261179 0.052856 -0.134341
v -0.185698 0.052852 -0.122500
v -0.182332 0.052856 -0.122348
v -0.178861 0.052856 -0.122739
v -0.188995 0.052856 -0.123172
v -0.175253 0.052856 -0.123695
v -0.192258 0.052856 -0.124340
v -0.171470 0.052856 -0.125241
v -0.195520 0.052856 -0.125982
v -0.167481 0.052852 -0.127398
v -0.198817 0.052852 -0.128074
v -0.163248 0.052852 -0.130191
v -0.202183 0.052856 -0.130593
v 0.165246 0.052852 -0.150481
v -0.154499 0.052856 -0.137062
v -0.205654 0.052852 -0.133517
v -0.210071 0.052856 -0.136956
v 0.240420 0.052856 -0.154190
v -0.214176 0.052856 -0.140588
v -0.144463 0.052856 -0.144622
v -0.217969 0.052856 -0.144365
v -0.221452 0.052856 -0.148237
v -0.133133 0.052856 -0.152628
v -0.224622 0.052856 -0.152156
v 0.143598 0.052856 -0.168655
v -0.227480 0.052856 -0.156071
v -0.120504 0.052856 -0.160833
v 0.217568 0.052856 -0.173428
v -0.230026 0.052852 -0.159934
v -0.232261 0.052856 -0.163697
v -0.106570 0.052856 -0.168991
v -0.234184 0.052856 -0.167309
v -0.235795 0.052856 -0.170722
v 0.119051 0.052852 -0.183549
v -0.091326 0.052852 -0.176858
v -0.237094 0.052856 -0.173887
v 0.196358 0.052856 -0.190485
v -0.238081 0.052856 -0.176754
v -0.238529 0.052852 -0.181597
v -0.074764 0.052856 -0.184187
v -0.238616 0.052856 -0.186185
v 0.091603 0.052856 -0.194727
v -0.056881 0.052856 -0.190735
v -0.238328 0.052856 -0.190577
v 0.174404 0.052856 -0.206291
v -0.237650 0.052856 -0.194831
v -0.037669 0.052856 -0.196254
v 0.061251 0.052856 -0.201753
v -0.236568 0.052856 -0.199004
v -0.017124 0.052856 -0.200501
v -0.235067 0.052856 -0.203153
v 0.004761 0.052852 -0.203229
v 0.027991 0.052856 -0.204193
v -0.233133 0.052856 -0.207338
v 0.151868 0.052856 -0.220809
v -0.230752 0.052856 -0.211614
v -0.227908 0.052856 -0.216041
v -0.224589 0.052856 -0.220676
v -0.220778 0.052852 -0.225576
v 0.128908 0.052856 -0.234003
v -0.216463 0.052856 -0.230800
v -0.209698 0.052856 -0.236454
v 0.105682 0.052856 -0.245834
v -0.201146 0.052852 -0.242494
v -0.190960 0.052856 -0.248755
v 0.082350 0.052856 -0.256264
v -0.179292 0.052856 -0.255066
v -0.166298 0.052856 -0.261264
v 0.059068 0.052856 -0.265257
v -0.152127 0.052856 -0.267177
v 0.035998 0.052856 -0.272774
v -0.136935 0.052856 -0.272640
v -0.120873 0.052856 -0.277485
v 0.013298 0.052856 -0.278779
v -0.104096 0.052856 -0.281546
v -0.008875 0.052856 -0.283233
v -0.086756 0.052856 -0.284654
v -0.030359 0.052856 -0.286099
v -0.069006 0.052856 -0.286641
v -0.050999 0.052856 -0.287340
vn 0.0000 -1.0000 0.0000
vn -0.0002 1.0000 0.0002
vn -0.0000 1.0000 -0.0000
vn 0.0001 1.0000 0.0025
vn 0.0000 1.0000 0.0037
vn 0.0001 1.0000 0.0018
vn -0.0000 1.0000 -0.0001
vn 0.0000 1.0000 -0.0004
vn -0.0000 1.0000 -0.0003
vn 0.0000 1.0000 0.0003
vn -0.0000 1.0000 0.0006
vn -0.0004 1.0000 0.0004
vn 0.0280 0.9529 -0.3021
vn -0.0005 1.0000 0.0055
vn -0.0003 1.0000 0.0032
vn -0.0001 1.0000 0.0015
vn 0.0000 1.0000 0.0001
vn 0.0000 1.0000 0.0002
vn -0.0006 1.0000 -0.0027
vn -0.0007 1.0000 -0.0063
vn -0.0050 1.0000 0.0000
vn -0.0002 1.0000 0.0037
vn -0.0000 1.0000 -0.0006
vn -0.0000 1.0000 -0.0013
vn 0.0000 1.0000 -0.0007
vn 0.0001 1.0000 0.0008
vn 0.0001 1.0000 0.0007
vn -0.0001 1.0000 -0.0004
vn -0.0000 1.0000 0.0007
vn 0.0000 1.0000 -0.0002
vn 0.0001 1.0000 -0.0005
vn 0.0000 1.0000 0.0004
vn -0.0000 1.0000 -0.0005
vn 0.0000 1.0000 0.0015
vn -0.0000 1.0000 0.0012
vn 0.6017 0.0000 0.7987
vn -0.8352 0.0000 -0.5499
vn -0.8598 0.0000 0.5106
vn -0.9986 0.0000 -0.0535
vn -0.9455 0.0000 0.3256
vn -0.1996 0.0000 0.9799
vn -0.3004 0.0000 0.9538
vn -0.9077 0.0000 -0.4195
vn -0.0732 0.0000 0.9973
vn 0.8262 0.0000 -0.5634
vn -0.3498 0.0000 0.9368
vn -0.3421 0.0000 0.9397
vn -0.3545 0.0000 0.9350
vn 0.2761 0.0000 0.9611
vn 0.9010 0.0000 0.4337
vn -0.7436 0.0000 0.6687
vn -0.2352 0.0000 -0.9719
vn 0.2613 0.0000 -0.9652
vn -0.5992 0.0000 0.8006
vn 0.1554 0.0000 -0.9879
vn -0.1733 0.0000 0.9849
vn -0.9979 0.0000 -0.0654
vn -0.6430 0.0000 0.7659
vn -0.6443 0.0000 0.7648
vn -0.7416 0.0000 -0.6708
vn -0.9930 0.0000 0.1185
vn -0.7894 0.0000 -0.6138
vn -0.2614 0.0000 -0.9652
vn 0.6440 0.0000 -0.7650
vn 0.1787 0.0000 0.9839
vn -0.5236 0.0000 -0.8519
vn -0.9365 0.0000 0.3506
vn 0.5416 0.0000 -0.8407
vn 0.9979 0.0000 0.0643
vn 0.6176 0.0000 0.7865
vn 0.3603 0.0000 -0.9328
vn -0.9857 0.0000 -0.1683
vn 0.9599 0.0000 -0.2804
vn 0.0000 0.0000 -1.0000
vn 0.1322 0.0000 -0.9912
vn 0.9917 0.0000 -0.1285
vn -0.8349 0.0000 0.5504
vn 0.0415 0.0000 0.9991
vn -0.9251 0.0000 0.3797
vn 0.5052 0.0000 0.8630
vn -0.9686 0.0000 0.2487
vn -0.2785 0.0000 0.9604
vn -0.8130 0.0000 -0.5823
vn 0.3438 0.0000 0.9390
vn 0.9494 0.0000 0.3142
vn 0.1844 0.0000 -0.9829
vn -0.3316 0.0000 0.9434
vn -0.9404 0.0000 -0.3401
vn -0.7056 0.0000 0.7086
vn 0.2562 0.0000 0.9666
vn 0.8663 0.0000 -0.4994
vn -0.5187 0.0000 0.8549
vn 0.6589 0.0000 0.7522
vn -0.3370 0.0000 0.9415
vn -0.3373 -0.0000 0.9414
vn -0.1764 0.0000 -0.9843
vn -0.1175 0.0000 0.9931
vn -0.5769 0.0000 -0.8168
vn 0.0565 0.0000 -0.9984
vn -0.6303 0.0000 -0.7764
vn -0.8906 0.0000 0.4548
vn -0.1485 0.0000 -0.9889
vn 0.2842 0.0000 -0.9588
vn 0.3041 0.0000 0.9526
vn -0.3851 0.0000 -0.9229
vn 0.5508 0.0000 0.8347
vn 0.1970 0.0000 -0.9804
vn 0.6911 0.0000 -0.7228
vn 0.0000 0.0000 1.0000
vn -0.9043 0.0000 0.4268
vn 0.4081 0.0000 -0.9129
vn -0.9564 0.0000 -0.2920
vn 0.9816 0.0000 0.1908
vn 0.9796 0.0000 -0.2012
vn 0.5448 0.0000 0.8386
vn -0.1112 0.0000 -0.9938
vn -0.8414 0.0000 -0.5404
vn 0.1237 0.0000 0.9923
vn -0.9998 0.0000 0.0189
vn -0.9889 0.0000 0.1487
vn 0.1115 0.0000 0.9938
vn 0.1120 0.0000 0.9937
vn 0.1117 0.0000 0.9937
vn 0.2116 0.0000 -0.9774
vn -0.8077 0.0000 0.5896
vn -0.4496 0.0000 0.8932
vn -0.3384 0.0000 -0.9410
vn 0.4047 0.0000 0.9144
vn 0.7554 0.0000 0.6553
vn -0.6627 0.0000 0.7489
vn 0.7377 0.0000 -0.6752
vn -0.5080 0.0000 -0.8613
vn 0.0915 0.0000 -0.9958
vn 0.0916 0.0000 -0.9958
vn -0.9680 0.0000 -0.2511
vn -0.3772 0.0000 0.9261
vn -0.2512 0.0000 0.9679
vn -0.4304 0.0000 -0.9026
vn -0.8281 0.0000 0.5606
vn 0.5843 0.0000 -0.8115
vn 0.3058 0.0000 -0.9521
vn -0.0444 0.0000 0.9990
vn -0.6413 0.0000 -0.7673
vn 0.2557 0.0000 -0.9667
vn -0.0465 0.0000 -0.9989
vn -0.3546 0.0000 0.9350
vn 0.4292 0.0000 0.9032
vn 0.8396 0.0000 0.5433
vn 0.4539 0.0000 -0.8911
vn 0.9026 0.0000 -0.4305
vn 0.4757 0.0000 0.8796
vn -0.9070 0.0000 -0.4211
vn 0.9927 0.0000 -0.1207
vn -0.9957 0.0000 0.0922
vn 0.5771 0.0000 0.8167
vn -0.0388 0.0000 -0.9992
vn -0.9988 0.0000 0.0497
vn 0.2024 0.0000 0.9793
vn -0.8827 0.0000 0.4700
vn -0.7774 0.0000 0.6290
vn -0.0453 0.0000 0.9990
vn -0.0449 -0.0000 0.9990
vn -0.3178 0.0000 0.9482
vn -0.8737 0.0000 -0.4865
vn 0.8364 0.0000 0.5482
vn -0.2888 0.0000 -0.9574
vn 0.2372 0.0000 -0.9714
vn 0.2373 0.0000 -0.9714
vn 0.4586 0.0000 0.8887
vn 0.4586 0.0000 0.8886
vn 0.7830 0.0000 -0.6221
vn 0.1244 0.0000 -0.9922
vn -0.5358 0.0000 0.8443
vn -0.2255 0.0000 0.9742
vn -0.9875 0.0000 -0.1574
vn -0.3828 0.0000 -0.9238
vn 0.3262 0.0000 -0.9453
vn -0.7462 0.0000 0.6658
vn -0.6143 0.0000 0.7890
vn 0.6267 0.0000 -0.7793
vn -0.2169 0.0000 0.9762
vn -0.7710 0.0000 -0.6369
vn 0.4982 0.0000 -0.8670
vn 0.0574 0.0000 0.9983
vn -0.4758 0.0000 -0.8796
vn 0.3098 0.0000 -0.9508
vn 0.0193 0.0000 -0.9998
vn 0.9340 0.0000 -0.3572
vn 0.5490 0.0000 0.8358
vn 0.9238 0.0000 -0.3828
vn 0.3782 0.0000 0.9257
vn 0.0600 0.0000 -0.9982
vn 0.9992 0.0000 -0.0400
usemtl N05
s 1
f 1//1 2//1 3//1
f 2//1 4//1 3//1
f 2//1 5//1 4//1
f 2//1 6//1 5//1
f 1//1 7//1 2//1
f 8//1 9//1 10//1
f 11//1 9//1 8//1
f 12//1 9//1 11//1
f 12//1 13//1 9//1
f 14//1 13//1 12//1
f 15//1 13//1 14//1
f 16//1 13//1 15//1
f 16//1 17//1 13//1
f 18//1 17//1 16//1
f 19//1 17//1 18//1
f 19//1 20//1 17//1
f 21//1 20//1 19//1
f 22//1 20//1 21//1
f 23//1 20//1 22//1
f 7//1 20//1 23//1
f 7//1 24//1 20//1
f 1//1 25//1 7//1
f 25//1 26//1 7//1
f 26//1 27//1 7//1
f 27//1 28//1 7//1
f 28//1 29//1 7//1
f 29//1 30//1 7//1
f 30//1 31//1 7//1
f 31//1 32//1 7//1
f 32//1 33//1 7//1
f 33//1 24//1 7//1
f 33//1 34//1 24//1
f 34//1 35//1 24//1
f 35//1 36//1 24//1
f 36//1 37//1 24//1
f 36//1 38//1 37//1
f 38//1 39//1 37//1
f 40//1 39//1 38//1
f 41//1 39//1 40//1
f 42//1 39//1 41//1
f 42//1 43//1 39//1
f 44//1 43//1 42//1
f 45//1 43//1 44//1
f 45//1 46//1 43//1
f 47//1 46//1 45//1
f 47//1 48//1 46//1
f 49//1 48//1 47//1
f 50//1 48//1 49//1
f 50//1 51//1 48//1
f 52//1 51//1 50//1
f 52//1 53//1 51//1
f 54//1 53//1 52//1
f 54//1 55//1 53//1
f 56//1 55//1 54//1
f 56//1 57//1 55//1
f 56//1 58//1 57//1
f 59//1 58//1 56//1
f 59//1 60//1 58//1
f 61//1 60//1 59//1
f 61//1 62//1 60//1
f 63//1 62//1 61//1
f 63//1 64//1 62//1
f 63//1 65//1 64//1
f 66//1 65//1 63//1
f 66//1 67//1 65//1
f 68//1 67//1 66//1
f 68//1 69//1 67//1
f 70//1 69//1 68//1
f 70//1 71//1 69//1
f 72//1 73//1 74//1
f 75//1 73//1 72//1
f 75//1 76//1 73//1
f 77//1 76//1 75//1
f 77//1 78//1 76//1
f 79//1 78//1 77//1
f 79//1 80//1 78//1
f 81//1 80//1 79//1
f 81//1 82//1 80//1
f 83//1 82//1 81//1
f 84//1 71//1 70//1
f 83//1 85//1 82//1
f 86//1 85//1 83//1
f 87//1 85//1 86//1
f 84//1 88//1 71//1
f 89//1 85//1 87//1
f 89//1 90//1 85//1
f 91//1 90//1 89//1
f 92//1 90//1 91//1
f 92//1 93//1 90//1
f 94//1 93//1 92//1
f 95//1 88//1 84//1
f 96//1 93//1 94//1
f 96//1 97//1 93//1
f 95//1 98//1 88//1
f 99//1 97//1 96//1
f 100//1 97//1 99//1
f 100//1 101//1 97//1
f 102//1 101//1 100//1
f 103//1 101//1 102//1
f 104//1 98//1 95//1
f 103//1 105//1 101//1
f 106//1 105//1 103//1
f 104//1 107//1 98//1
f 108//1 105//1 106//1
f 109//1 105//1 108//1
f 109//1 110//1 105//1
f 111//1 110//1 109//1
f 112//1 107//1 104//1
f 111//1 113//1 110//1
f 114//1 113//1 111//1
f 112//1 115//1 107//1
f 116//1 113//1 114//1
f 116//1 117//1 113//1
f 118//1 115//1 112//1
f 119//1 117//1 116//1
f 119//1 120//1 117//1
f 121//1 120//1 119//1
f 121//1 122//1 120//1
f 123//1 115//1 118//1
f 124//1 122//1 121//1
f 124//1 123//1 122//1
f 124//1 115//1 123//1
f 124//1 125//1 115//1
f 126//1 125//1 124//1
f 127//1 125//1 126//1
f 128//1 125//1 127//1
f 129//1 125//1 128//1
f 129//1 130//1 125//1
f 131//1 130//1 129//1
f 132//1 130//1 131//1
f 132//1 133//1 130//1
f 134//1 133//1 132//1
f 135//1 133//1 134//1
f 135//1 136//1 133//1
f 137//1 136//1 135//1
f 138//1 136//1 137//1
f 138//1 139//1 136//1
f 140//1 139//1 138//1
f 140//1 141//1 139//1
f 142//1 141//1 140//1
f 143//1 141//1 142//1
f 143//1 144//1 141//1
f 145//1 144//1 143//1
f 145//1 146//1 144//1
f 147//1 146//1 145//1
f 147//1 148//1 146//1
f 149//1 148//1 147//1
f 149//1 150//1 148//1
f 151//2 152//3 153//3
f 153//3 152//3 154//3
f 153//3 154//3 155//3
f 153//3 155//3 156//3
f 151//2 153//3 157//3
f 158//4 159//5 160//6
f 161//3 158//4 160//6
f 162//3 161//3 160//6
f 162//3 160//6 163//7
f 164//3 162//3 163//7
f 165//8 164//3 163//7
f 166//9 165//8 163//7
f 166//9 163//7 167//10
f 168//11 166//9 167//10
f 169//3 168//11 167//10
f 169//3 167//10 170//3
f 171//3 169//3 170//3
f 172//3 171//3 170//3
f 173//3 172//3 170//3
f 157//3 173//3 170//3
f 157//3 170//3 174//3
f 151//2 157//3 175//12
f 175//12 157//3 176//3
f 176//3 157//3 177//3
f 177//3 157//3 178//3
f 178//3 157//3 179//3
f 179//3 157//3 180//3
f 180//3 157//3 181//3
f 181//3 157//3 182//3
f 182//3 157//3 183//3
f 183//3 157//3 174//3
f 183//13 174//13 184//13
f 184//14 174//15 185//16
f 185//16 174//15 186//3
f 186//3 174//15 187//17
f 186//3 187//17 188//18
f 188//18 187//17 189//3
f 190//3 188//18 189//3
f 191//9 190//3 189//3
f 192//18 191//9 189//3
f 192//18 189//3 193//3
f 194//3 192//18 193//3
f 195//3 194//3 193//3
f 195//3 193//3 196//3
f 197//3 195//3 196//3
f 197//3 196//3 198//3
f 199//3 197//3 198//3
f 200//3 199//3 198//3
f 200//3 198//3 201//3
f 202//3 200//3 201//3
f 202//3 201//3 203//3
f 204//3 202//3 203//3
f 204//3 203//3 205//3
f 206//3 204//3 205//3
f 206//3 205//3 207//3
f 206//3 207//3 208//3
f 209//3 206//3 208//3
f 209//3 208//3 210//3
f 211//3 209//3 210//3
f 211//3 210//3 212//3
f 213//3 211//3 212//3
f 213//3 212//3 214//3
f 213//3 214//3 215//3
f 216//3 213//3 215//3
f 216//3 215//3 217//3
f 218//7 216//3 217//3
f 218//7 217//3 219//3
f 220//3 218//7 219//3
f 220//3 219//3 221//3
f 222//19 223//20 224//21
f 225//22 222//19 224//21
f 225//22 224//21 226//3
f 227//3 225//22 226//3
f 227//3 226//3 228//9
f 229//23 227//3 228//9
f 229//23 228//9 230//24
f 231//25 229//23 230//24
f 231//25 230//24 232//26
f 233//27 231//25 232//26
f 234//18 220//3 221//3
f 233//27 232//26 235//17
f 236//28 233//27 235//17
f 237//29 236//28 235//17
f 234//18 221//3 238//3
f 239//3 237//29 235//17
f 239//3 235//17 240//3
f 241//3 239//3 240//3
f 242//3 241//3 240//3
f 242//3 240//3 243//3
f 244//3 242//3 243//3
f 245//18 234//18 238//3
f 246//30 244//3 243//3
f 246//30 243//3 247//3
f 245//18 238//3 248//3
f 249//31 246//30 247//3
f 250//10 249//31 247//3
f 250//10 247//3 251//9
f 252//3 250//10 251//9
f 253//3 252//3 251//9
f 254//30 245//18 248//3
f 253//3 251//9 255//30
f 256//3 253//3 255//30
f 254//30 248//3 257//3
f 258//8 256//3 255//30
f 259//17 258//8 255//30
f 259//17 255//30 260//32
f 261//7 259//17 260//32
f 262//3 254//30 257//3
f 261//7 260//32 263//3
f 264//3 261//7 263//3
f 262//3 257//3 265//3
f 266//3 264//3 263//3
f 266//3 263//3 267//3
f 268//3 262//3 265//3
f 269//3 266//3 267//3
f 269//3 267//3 270//9
f 271//33 269//3 270//9
f 271//33 270//9 272//3
f 273//34 268//3 265//3
f 274//35 271//33 272//3
f 274//35 272//3 273//34
f 274//35 273//34 265//3
f 274//35 265//3 275//3
f 276//3 274//35 275//3
f 277//3 276//3 275//3
f 278//33 277//3 275//3
f 279//10 278//33 275//3
f 279//10 275//3 280//3
f 281//17 279//10 280//3
f 282//7 281//17 280//3
f 282//7 280//3 283//3
f 284//18 282//7 283//3
f 285//17 284//18 283//3
f 285//17 283//3 286//3
f 287//3 285//17 286//3
f 288//3 287//3 286//3
f 288//3 286//3 289//3
f 290//3 288//3 289//3
f 290//3 289//3 291//3
f 292//3 290//3 291//3
f 293//3 292//3 291//3
f 293//3 291//3 294//3
f 295//3 293//3 294//3
f 295//3 294//3 296//3
f 297//3 295//3 296//3
f 297//3 296//3 298//3
f 299//3 297//3 298//3
f 299//3 298//3 300//3
f 85//36 90//36 240//36
f 240//36 235//36 85//36
f 49//37 47//37 197//37
f 197//37 199//37 49//37
f 100//38 99//38 249//38
f 249//38 250//38 100//38
f 56//39 54//39 204//39
f 204//39 206//39 56//39
f 108//40 106//40 256//40
f 256//40 258//40 108//40
f 75//41 72//41 222//41
f 222//41 225//41 75//41
f 18//42 16//42 166//42
f 166//42 168//42 18//42
f 124//43 121//43 271//43
f 271//43 274//43 124//43
f 123//44 118//44 268//44
f 268//44 273//44 123//44
f 65//45 67//45 217//45
f 217//45 215//45 65//45
f 23//46 22//47 172//46
f 172//46 173//48 23//46
f 113//49 117//49 267//49
f 267//49 263//49 113//49
f 43//50 46//50 196//50
f 196//50 193//50 43//50
f 92//51 91//51 241//51
f 241//51 242//51 92//51
f 145//52 143//52 293//52
f 293//52 295//52 145//52
f 28//53 27//53 177//53
f 177//53 178//53 28//53
f 83//54 81//54 231//54
f 231//54 233//54 83//54
f 32//55 31//55 181//55
f 181//55 182//55 32//55
f 12//56 11//56 161//56
f 161//56 162//56 12//56
f 114//57 111//57 261//57
f 261//57 264//57 114//57
f 95//58 84//58 234//58
f 234//58 245//58 95//58
f 86//59 83//59 233//59
f 233//59 236//59 86//59
f 47//60 45//60 195//60
f 195//60 197//60 47//60
f 1//61 3//61 152//61
f 152//61 151//61 1//61
f 129//62 128//62 278//62
f 278//62 279//62 129//62
f 41//63 40//63 190//63
f 190//63 191//63 41//63
f 88//64 98//64 248//64
f 248//64 238//64 88//64
f 9//65 13//65 163//65
f 163//65 160//65 9//65
f 135//66 134//66 284//66
f 284//66 285//66 135//66
f 66//67 63//67 213//67
f 213//67 216//67 66//67
f 115//68 125//68 275//68
f 275//68 265//68 115//68
f 51//69 53//69 203//69
f 203//69 201//69 51//69
f 82//70 85//70 235//70
f 235//70 232//70 82//70
f 136//71 139//71 289//71
f 289//71 286//71 136//71
f 54//72 52//72 202//72
f 202//72 204//72 54//72
f 58//73 60//73 210//73
f 210//73 208//73 58//73
f 6//74 2//74 153//74
f 153//74 156//74 6//74
f 146//75 148//75 298//75
f 298//75 296//75 146//75
f 2//76 7//76 157//76
f 157//76 153//76 2//76
f 99//77 96//77 246//77
f 246//77 249//77 99//77
f 122//78 123//78 273//78
f 273//78 272//78 122//78
f 106//79 103//79 253//79
f 253//79 256//79 106//79
f 97//80 101//80 251//80
f 251//80 247//80 97//80
f 63//81 61//81 211//81
f 211//81 213//81 63//81
f 16//82 15//82 165//82
f 165//82 166//82 16//82
f 128//83 127//83 277//83
f 277//83 278//83 128//83
f 110//84 113//84 263//84
f 263//84 260//84 110//84
f 46//85 48//85 198//85
f 198//85 196//85 46//85
f 31//86 30//86 180//86
f 180//86 181//86 31//86
f 22//47 21//87 171//47
f 171//47 172//46 22//47
f 121//88 119//88 269//88
f 269//88 271//88 121//88
f 91//89 89//89 239//89
f 239//89 241//89 91//89
f 73//90 76//90 226//90
f 226//90 224//90 73//90
f 64//91 65//91 215//91
f 215//91 214//91 64//91
f 104//92 95//92 245//92
f 245//92 254//92 104//92
f 24//93 37//93 187//93
f 187//93 174//93 24//93
f 77//94 75//94 225//94
f 225//94 227//95 77//94
f 147//96 145//96 295//96
f 295//96 297//96 147//96
f 11//97 8//97 158//97
f 158//97 161//97 11//97
f 134//98 132//98 282//98
f 282//98 284//98 134//98
f 35//99 34//99 184//99
f 184//99 185//99 35//99
f 45//100 44//100 194//100
f 194//100 195//100 45//100
f 68//101 66//101 216//101
f 216//101 218//101 68//101
f 40//102 38//102 188//102
f 188//102 190//102 40//102
f 27//103 26//103 176//103
f 176//103 177//103 27//103
f 13//104 17//104 167//104
f 167//104 163//104 13//104
f 140//105 138//105 288//105
f 288//105 290//105 140//105
f 80//106 82//106 232//106
f 232//106 230//106 80//106
f 144//107 146//107 296//107
f 296//107 294//107 144//107
f 71//108 88//108 238//108
f 238//108 221//108 71//108
f 3//109 4//109 154//109
f 154//109 152//109 3//109
f 103//110 102//110 252//110
f 252//110 253//110 103//110
f 133//111 136//111 286//111
f 286//111 283//111 133//111
f 52//112 50//112 200//112
f 200//112 202//112 52//112
f 48//113 51//113 201//113
f 201//113 198//113 48//113
f 57//114 58//114 208//114
f 208//114 207//114 57//114
f 93//115 97//115 247//115
f 247//115 243//115 93//115
f 149//116 147//116 297//116
f 297//116 299//116 149//116
f 127//117 126//117 276//117
f 276//117 277//117 127//117
f 120//118 122//118 272//118
f 272//118 270//118 120//118
f 111//119 109//119 259//119
f 259//119 261//119 111//119
f 61//120 59//120 209//120
f 209//120 211//120 61//120
f 21//87 19//87 169//87
f 169//87 171//47 21//87
f 74//121 73//122 224//123
f 224//123 223//122 74//121
f 30//124 29//124 179//124
f 179//124 180//124 30//124
f 96//125 94//125 244//125
f 244//125 246//125 96//125
f 79//126 77//126 227//126
f 227//126 229//126 79//126
f 142//127 140//127 290//127
f 290//127 292//127 142//127
f 105//128 110//128 260//128
f 260//128 255//128 105//128
f 37//129 39//129 189//129
f 189//129 187//129 37//129
f 89//130 87//130 237//130
f 237//130 239//130 89//130
f 69//131 71//131 221//131
f 221//131 219//131 69//131
f 44//132 42//132 192//132
f 192//132 194//132 44//132
f 34//133 33//133 183//134
f 183//134 184//134 34//133
f 119//135 116//135 266//135
f 266//135 269//135 119//135
f 112//136 104//136 254//136
f 254//136 262//136 112//136
f 15//137 14//137 164//137
f 164//137 165//137 15//137
f 138//138 137//138 287//138
f 287//138 288//138 138//138
f 70//139 68//139 218//139
f 218//139 220//139 70//139
f 107//140 115//140 265//140
f 265//140 257//140 107//140
f 26//141 25//141 175//141
f 175//141 176//141 26//141
f 8//142 10//142 159//142
f 159//142 158//142 8//142
f 132//143 131//143 281//143
f 281//143 282//143 132//143
f 141//144 144//144 294//144
f 294//144 291//144 141//144
f 38//145 36//145 186//145
f 186//145 188//145 38//145
f 7//146 23//46 173//48
f 173//48 157//146 7//146
f 17//147 20//147 170//147
f 170//147 167//147 17//147
f 4//148 5//148 155//148
f 155//148 154//148 4//148
f 130//149 133//149 283//149
f 283//149 280//149 130//149
f 62//150 64//150 214//150
f 214//150 212//150 62//150
f 78//151 80//151 230//151
f 230//151 228//151 78//151
f 50//152 49//152 199//152
f 199//152 200//152 50//152
f 55//153 57//153 207//153
f 207//153 205//153 55//153
f 109//154 108//154 258//154
f 258//154 259//154 109//154
f 90//155 93//155 243//155
f 243//155 240//155 90//155
f 150//156 149//156 299//156
f 299//156 300//156 150//156
f 59//157 56//157 206//157
f 206//157 209//157 59//157
f 117//158 120//158 270//158
f 270//158 267//158 117//158
f 102//159 100//159 250//159
f 250//159 252//159 102//159
f 94//160 92//160 242//160
f 242//160 244//160 94//160
f 72//161 74//161 223//161
f 223//161 222//162 72//161
f 19//163 18//163 168//163
f 168//163 169//163 19//163
f 126//164 124//164 274//164
f 274//164 276//164 126//164
f 39//165 43//165 193//165
f 193//165 189//165 39//165
f 143//166 142//166 292//166
f 292//166 293//166 143//166
f 29//167 28//167 178//168
f 178//168 179//168 29//167
f 101//169 105//169 255//170
f 255//170 251//170 101//169
f 67//171 69//171 219//171
f 219//171 217//171 67//171
f 33//172 32//172 182//172
f 182//172 183//172 33//172
f 81//173 79//173 229//173
f 229//173 231//173 81//173
f 118//174 112//174 262//174
f 262//174 268//174 118//174
f 116//175 114//175 264//175
f 264//175 266//175 116//175
f 42//176 41//176 191//176
f 191//176 192//176 42//176
f 25//177 1//177 151//177
f 151//177 175//177 25//177
f 84//178 70//178 220//178
f 220//178 234//178 84//178
f 87//179 86//179 236//179
f 236//179 237//179 87//179
f 98//180 107//180 257//180
f 257//180 248//180 98//180
f 14//181 12//181 162//181
f 162//181 164//181 14//181
f 131//182 129//182 279//182
f 279//182 281//182 131//182
f 125//183 130//183 280//183
f 280//183 275//183 125//183
f 10//184 9//184 160//184
f 160//184 159//184 10//184
f 137//185 135//185 285//185
f 285//185 287//185 137//185
f 139//186 141//186 291//186
f 291//186 289//186 139//186
f 36//187 35//187 185//187
f 185//187 186//187 36//187
f 60//188 62//188 212//188
f 212//188 210//188 60//188
f 20//189 24//189 174//189
f 174//189 170//189 20//189
f 5//190 6//190 156//190
f 156//190 155//190 5//190
f 76//191 78//191 228//191
f 228//191 226//191 76//191
f 148//192 150//192 300//192
f 300//192 298//192 148//192
f 53//193 55//193 205//193
f 205//193 203//193 53//193
