# Blender v2.90.0 OBJ File: ''
# www.blender.org
mtllib N06.mtl
o N06
v 0.239304 -0.051476 0.492581
v 0.267288 -0.051476 0.443036
v 0.255141 -0.051476 0.495671
v 0.223391 -0.051476 0.489370
v 0.207428 -0.051476 0.486017
v 0.191438 -0.051476 0.482505
v 0.175449 -0.051476 0.478813
v 0.159486 -0.051476 0.474921
v 0.143573 -0.051476 0.470810
v 0.127736 -0.051476 0.466459
v 0.111999 -0.051476 0.461850
v 0.096390 -0.051476 0.456963
v 0.080933 -0.051476 0.451778
v 0.065652 -0.051476 0.446275
v 0.024163 -0.051476 0.429274
v 0.254355 -0.051476 0.440623
v 0.241090 -0.051476 0.437836
v 0.227533 -0.051476 0.434672
v 0.213722 -0.051476 0.431129
v 0.199698 -0.051476 0.427203
v -0.019412 -0.051476 0.407307
v 0.185500 -0.051476 0.422892
v 0.171166 -0.051476 0.418193
v 0.156738 -0.051476 0.413104
v 0.142253 -0.051476 0.407621
v 0.127751 -0.051476 0.401741
v -0.063989 -0.051476 0.380202
v 0.113271 -0.051476 0.395462
v 0.098853 -0.051476 0.388780
v 0.073650 -0.051476 0.376563
v -0.108481 -0.051476 0.347781
v 0.046971 -0.051476 0.362031
v 0.019330 -0.051476 0.344963
v -0.151804 -0.051476 0.309873
v -0.008758 -0.051476 0.325137
v -0.036778 -0.051476 0.302330
v -0.192871 -0.051476 0.266301
v -0.064217 -0.051476 0.276322
v -0.090559 -0.051476 0.246888
v -0.230598 -0.051476 0.216892
v -0.115290 -0.051476 0.213807
v -0.263899 -0.051476 0.161471
v -0.137894 -0.051476 0.176857
v -0.157859 -0.051476 0.135817
v -0.291690 -0.051476 0.099865
v -0.174669 -0.051476 0.090463
v 0.008296 -0.051476 0.118129
v 0.056173 -0.051476 0.115688
v 0.016255 -0.051476 0.118313
v 0.000224 -0.051476 0.117585
v -0.007937 -0.051476 0.116693
v -0.016166 -0.051476 0.115463
v 0.093608 -0.051476 0.108045
v -0.024440 -0.051476 0.113908
v -0.032737 -0.051476 0.112037
v -0.041033 -0.051476 0.109863
v -0.049307 -0.051476 0.107396
v 0.128372 -0.051476 0.095727
v -0.057536 -0.051476 0.104648
v -0.065698 -0.051476 0.101630
v -0.073769 -0.051476 0.098353
v -0.312884 -0.051476 0.031899
v -0.081729 -0.051476 0.094829
v 0.160276 -0.051476 0.079083
v -0.187810 -0.051476 0.040573
v 0.189133 -0.051476 0.058458
v 0.214753 -0.051476 0.034196
v -0.040430 -0.051476 0.032476
v -0.039620 -0.051476 0.032476
v -0.004687 -0.051476 0.029871
v 0.236949 -0.051476 0.006646
v -0.055923 -0.051476 0.031970
v -0.071182 -0.051476 0.030519
v -0.326396 -0.051476 -0.042602
v -0.114915 -0.051476 0.021510
v -0.100744 -0.051476 0.025188
v -0.086144 -0.051476 0.028225
v 0.026869 -0.051476 0.022369
v 0.055113 -0.051476 0.010435
v -0.128594 -0.051476 0.017292
v -0.141718 -0.051476 0.012636
v -0.154219 -0.051476 0.007643
v 0.080108 -0.051476 -0.005464
v -0.166034 -0.051476 0.002413
v 0.255531 -0.051476 -0.023849
v -0.177099 -0.051476 -0.002952
v -0.187349 -0.051476 -0.008351
v 0.101921 -0.051476 -0.024860
v -0.196717 -0.051476 -0.013682
v -0.198966 -0.051476 -0.021179
v -0.200871 -0.051476 -0.028715
v 0.270312 -0.051476 -0.056942
v 0.120616 -0.051476 -0.047287
v -0.202462 -0.051476 -0.036330
v -0.203766 -0.051476 -0.044064
v -0.331141 -0.051476 -0.123812
v -0.204811 -0.051476 -0.051954
v 0.136257 -0.051476 -0.072279
v -0.205625 -0.051476 -0.060042
v 0.281103 -0.051476 -0.092287
v -0.206237 -0.051476 -0.068366
v -0.206675 -0.051476 -0.076964
v 0.148910 -0.051476 -0.099369
v -0.206966 -0.051476 -0.085879
v -0.207140 -0.051476 -0.095147
v 0.287715 -0.051476 -0.129538
v -0.207223 -0.051476 -0.104809
v 0.158638 -0.051476 -0.128089
v -0.207244 -0.051476 -0.114905
v -0.205667 -0.051476 -0.159265
v -0.328425 -0.051476 -0.179969
v 0.165507 -0.051476 -0.157973
v 0.289962 -0.051476 -0.168350
v 0.169580 -0.051476 -0.188554
v -0.200965 -0.051476 -0.202158
v 0.287293 -0.051476 -0.213594
v -0.320475 -0.051476 -0.232480
v 0.170924 -0.051476 -0.219366
v -0.193187 -0.051476 -0.243129
v 0.279476 -0.051476 -0.257130
v 0.170009 -0.051476 -0.246022
v -0.307595 -0.051476 -0.281112
v -0.182382 -0.051476 -0.281720
v 0.167186 -0.051476 -0.273015
v 0.266794 -0.051476 -0.298535
v 0.162332 -0.051476 -0.299839
v -0.290082 -0.051476 -0.325628
v -0.168595 -0.051476 -0.317477
v 0.249532 -0.051476 -0.337385
v 0.155328 -0.051476 -0.325988
v -0.151876 -0.051476 -0.349944
v -0.268240 -0.051476 -0.365791
v 0.146051 -0.051476 -0.350956
v 0.227974 -0.051476 -0.373254
v -0.132272 -0.051476 -0.378666
v 0.134383 -0.051476 -0.374237
v -0.242369 -0.051476 -0.401365
v 0.202404 -0.051476 -0.405717
v 0.120199 -0.051476 -0.395325
v -0.109831 -0.051476 -0.403187
v 0.103382 -0.051476 -0.413715
v -0.212769 -0.051476 -0.432114
v -0.084601 -0.051476 -0.423052
v 0.173105 -0.051476 -0.434352
v 0.083809 -0.051476 -0.428898
v -0.056629 -0.051476 -0.437806
v 0.061359 -0.051476 -0.440369
v -0.179742 -0.051476 -0.457802
v 0.140362 -0.051476 -0.458732
v -0.025963 -0.051476 -0.446991
v 0.035913 -0.051476 -0.447624
v 0.007348 -0.051476 -0.450154
v -0.143588 -0.051476 -0.478193
v 0.104458 -0.051476 -0.478434
v -0.104608 -0.051476 -0.493051
v 0.065678 -0.051476 -0.493032
v 0.024306 -0.051476 -0.502102
v -0.063104 -0.051476 -0.502138
v -0.019375 -0.051476 -0.505220
v 0.239304 0.051477 0.492581
v 0.255141 0.051477 0.495671
v 0.267288 0.051477 0.443036
v 0.223391 0.051477 0.489370
v 0.207428 0.051477 0.486017
v 0.191438 0.051477 0.482505
v 0.175449 0.051477 0.478813
v 0.159486 0.051473 0.474921
v 0.143573 0.051477 0.470810
v 0.127736 0.051477 0.466459
v 0.111999 0.051473 0.461850
v 0.096390 0.051477 0.456963
v 0.080933 0.051477 0.451778
v 0.065652 0.051477 0.446275
v 0.024163 0.051477 0.429274
v 0.254355 0.051477 0.440623
v 0.241090 0.051477 0.437836
v 0.227533 0.051477 0.434672
v 0.213722 0.051477 0.431129
v 0.199698 0.051477 0.427203
v -0.019412 0.051473 0.407307
v 0.185500 0.051477 0.422892
v 0.171166 0.051477 0.418193
v 0.156738 0.051477 0.413104
v 0.142253 0.051477 0.407621
v 0.127751 0.051477 0.401741
v -0.063989 0.051477 0.380202
v 0.113271 0.051477 0.395462
v 0.098853 0.051473 0.388780
v 0.073650 0.051477 0.376563
v -0.108481 0.051477 0.347781
v 0.046971 0.051477 0.362031
v 0.019330 0.051477 0.344963
v -0.151804 0.051473 0.309873
v -0.008758 0.051473 0.325137
v -0.036778 0.051477 0.302330
v -0.192871 0.051473 0.266301
v -0.064217 0.051477 0.276322
v -0.090559 0.051477 0.246888
v -0.230598 0.051477 0.216892
v -0.115290 0.051477 0.213807
v -0.263899 0.051477 0.161471
v -0.137894 0.051477 0.176857
v -0.157859 0.051477 0.135817
v -0.291690 0.051477 0.099865
v -0.174669 0.051477 0.090463
v 0.008296 0.051477 0.118129
v 0.016255 0.051473 0.118313
v 0.056173 0.051477 0.115688
v 0.000224 0.051473 0.117585
v -0.007937 0.051477 0.116693
v -0.016166 0.051477 0.115463
v 0.093608 0.051477 0.108045
v -0.024440 0.051473 0.113908
v -0.032737 0.051473 0.112037
v -0.041033 0.051477 0.109863
v -0.049307 0.051477 0.107396
v 0.128372 0.051473 0.095727
v -0.057536 0.051473 0.104648
v -0.065698 0.051477 0.101630
v -0.073769 0.051477 0.098353
v -0.312884 0.051477 0.031899
v -0.081729 0.051477 0.094829
v 0.160276 0.051477 0.079083
v -0.187810 0.051477 0.040573
v 0.189133 0.051477 0.058458
v 0.214753 0.051477 0.034196
v -0.040430 0.051474 0.032476
v -0.039620 0.051477 0.032476
v -0.004687 0.051477 0.029871
v 0.236949 0.051477 0.006646
v -0.055923 0.051477 0.031970
v -0.071182 0.051474 0.030519
v -0.326396 0.051477 -0.042602
v -0.114915 0.051477 0.021510
v -0.100744 0.051477 0.025188
v -0.086144 0.051477 0.028225
v 0.026869 0.051477 0.022369
v 0.055113 0.051477 0.010435
v -0.128594 0.051477 0.017292
v -0.141718 0.051477 0.012636
v -0.154219 0.051477 0.007643
v 0.080108 0.051477 -0.005464
v -0.166034 0.051477 0.002413
v 0.255531 0.051477 -0.023849
v -0.177099 0.051477 -0.002952
v -0.187349 0.051477 -0.008351
v 0.101921 0.051477 -0.024860
v -0.196717 0.051477 -0.013682
v -0.198966 0.051477 -0.021179
v -0.200871 0.051474 -0.028715
v 0.270312 0.051477 -0.056942
v 0.120616 0.051474 -0.047287
v -0.202462 0.051477 -0.036330
v -0.203766 0.051477 -0.044064
v -0.331141 0.051477 -0.123812
v -0.204811 0.051477 -0.051954
v 0.136257 0.051477 -0.072279
v -0.205625 0.051477 -0.060042
v 0.281103 0.051474 -0.092287
v -0.206237 0.051477 -0.068366
v -0.206675 0.051477 -0.076964
v 0.148910 0.051474 -0.099369
v -0.206966 0.051477 -0.085879
v -0.207140 0.051477 -0.095147
v 0.287715 0.051477 -0.129538
v -0.207223 0.051474 -0.104809
v 0.158638 0.051477 -0.128089
v -0.207244 0.051477 -0.114905
v -0.205667 0.051477 -0.159265
v -0.328425 0.051477 -0.179969
v 0.165507 0.051477 -0.157973
v 0.289962 0.051474 -0.168350
v 0.169580 0.051477 -0.188554
v -0.200965 0.051477 -0.202158
v 0.287293 0.051477 -0.213594
v -0.320475 0.051474 -0.232480
v 0.170924 0.051477 -0.219366
v -0.193187 0.051477 -0.243129
v 0.279476 0.051474 -0.257130
v 0.170009 0.051477 -0.246022
v -0.307595 0.051477 -0.281112
v -0.182382 0.051474 -0.281720
v 0.167186 0.051474 -0.273015
v 0.266794 0.051474 -0.298535
v 0.162332 0.051477 -0.299839
v -0.290082 0.051477 -0.325628
v -0.168595 0.051477 -0.317477
v 0.249532 0.051477 -0.337385
v 0.155328 0.051477 -0.325988
v -0.151876 0.051477 -0.349944
v -0.268240 0.051477 -0.365791
v 0.146051 0.051474 -0.350956
v 0.227974 0.051477 -0.373254
v -0.132272 0.051477 -0.378666
v 0.134383 0.051477 -0.374237
v -0.242369 0.051477 -0.401365
v 0.202404 0.051474 -0.405717
v 0.120199 0.051477 -0.395325
v -0.109831 0.051477 -0.403187
v 0.103382 0.051477 -0.413715
v -0.212769 0.051477 -0.432114
v -0.084601 0.051477 -0.423052
v 0.173105 0.051477 -0.434352
v 0.083809 0.051477 -0.428898
v -0.056629 0.051477 -0.437806
v 0.061359 0.051474 -0.440369
v -0.179742 0.051477 -0.457802
v 0.140362 0.051477 -0.458732
v -0.025963 0.051477 -0.446991
v 0.035913 0.051474 -0.447624
v 0.007348 0.051477 -0.450154
v -0.143588 0.051477 -0.478193
v 0.104458 0.051477 -0.478434
v -0.104608 0.051477 -0.493051
v 0.065678 0.051474 -0.493032
v 0.024306 0.051474 -0.502102
v -0.063104 0.051477 -0.502138
v -0.019375 0.051477 -0.505220
vn 0.0000 -1.0000 -0.0000
vn 0.0000 1.0000 0.0000
vn 0.0000 1.0000 0.0001
vn -0.0000 1.0000 -0.0001
vn -0.0001 1.0000 -0.0000
vn -0.0000 1.0000 0.0004
vn 0.0000 1.0000 0.0002
vn -0.0000 1.0000 -0.0004
vn -0.0000 1.0000 -0.0002
vn 0.0001 1.0000 0.0027
vn 0.0003 1.0000 0.0054
vn 0.0001 1.0000 0.0031
vn -0.0002 1.0000 -0.0014
vn -0.0000 1.0000 0.0022
vn -0.0001 1.0000 0.0006
vn -0.0001 1.0000 -0.0011
vn -0.0000 1.0000 0.0010
vn -0.0000 1.0000 -0.0003
vn -0.0000 1.0000 -0.0005
vn -0.0000 1.0000 0.0006
vn -0.0000 1.0000 -0.0029
vn -0.0000 1.0000 0.0030
vn -0.0034 0.8684 0.4958
vn -0.0000 1.0000 0.0003
vn 0.0000 1.0000 0.0005
vn -0.9667 0.0000 -0.2560
vn 0.9744 0.0000 0.2249
vn 0.9983 0.0000 -0.0589
vn 0.1516 0.0000 -0.9884
vn -0.2146 0.0000 0.9767
vn -0.2055 0.0000 0.9787
vn -0.2250 0.0000 0.9744
vn -0.2139 0.0000 -0.9769
vn 0.9131 0.0000 0.4078
vn 0.9789 0.0000 -0.2045
vn 0.2000 0.0000 0.9798
vn -0.5889 0.0000 0.8082
vn -0.7379 0.0000 0.6749
vn 0.4660 0.0000 -0.8848
vn 0.8890 0.0000 0.4578
vn -0.8572 0.0000 0.5151
vn 0.8571 0.0000 -0.5151
vn 0.3344 0.0000 -0.9424
vn 0.5767 0.0000 -0.8170
vn 0.3523 0.0000 -0.9359
vn 0.9973 0.0000 -0.0733
vn 0.4205 0.0000 -0.9073
vn 0.6876 0.0000 0.7261
vn -0.3388 0.0000 0.9408
vn 0.4811 0.0000 -0.8767
vn 0.1834 0.0000 -0.9830
vn 0.8009 0.0000 -0.5988
vn -0.1087 0.0000 0.9941
vn 0.2696 0.0000 -0.9630
vn -0.9659 0.0000 0.2587
vn 1.0000 -0.0000 -0.0086
vn 1.0000 -0.0000 -0.0022
vn 0.9998 0.0000 -0.0187
vn -0.2535 0.0000 0.9673
vn -0.2649 0.0000 0.9643
vn -0.9994 0.0000 0.0343
vn 0.6186 0.0000 0.7857
vn -0.9306 0.0000 -0.3661
vn -0.9471 0.0000 -0.3208
vn -0.1979 0.0000 0.9802
vn -0.0882 0.0000 0.9961
vn 0.9670 0.0000 -0.2547
vn -0.6645 0.0000 -0.7473
vn 0.9843 0.0000 -0.1767
vn 0.2036 0.0000 -0.9790
vn -0.6585 0.0000 0.7526
vn 0.9564 0.0000 0.2920
vn -0.9983 0.0000 0.0583
vn 0.9861 0.0000 -0.1662
vn -0.2501 0.0000 0.9682
vn -0.2369 0.0000 0.9715
vn 0.8259 0.0000 0.5638
vn -0.0672 0.0000 0.9977
vn -0.9115 0.0000 0.4112
vn 0.4945 0.0000 -0.8692
vn 0.4362 0.0000 -0.8998
vn 0.3340 0.0000 0.9426
vn -0.6139 0.0000 -0.7894
vn 0.7856 0.0000 -0.6188
vn -0.6129 0.0000 0.7901
vn 0.3709 0.0000 -0.9287
vn 0.9825 0.0000 0.1865
vn -0.3792 0.0000 0.9253
vn -0.0703 0.0000 -0.9975
vn 0.9987 0.0000 -0.0508
vn -0.0744 0.0000 -0.9972
vn -0.2200 0.0000 0.9755
vn 0.3540 0.0000 -0.9352
vn 0.2056 0.0000 -0.9786
vn -0.2811 0.0000 0.9597
vn 0.4047 0.0000 -0.9144
vn 0.2905 0.0000 -0.9569
vn 1.0000 0.0000 -0.0021
vn 0.6313 0.0000 -0.7756
vn -0.8785 0.0000 -0.4778
vn -0.3468 0.0000 0.9379
vn -0.7681 0.0000 -0.6403
vn -0.9374 0.0000 0.3483
vn 0.8530 0.0000 -0.5219
vn 0.9846 0.0000 0.1748
vn -0.9746 0.0000 -0.2240
vn -0.1915 0.0000 0.9815
vn -0.1978 0.0000 0.9802
vn 0.7377 0.0000 0.6751
vn 0.0945 0.0000 0.9955
vn -0.9988 0.0000 -0.0483
vn -0.2313 0.0000 -0.9729
vn -0.0231 0.0000 0.9997
vn -0.7277 0.0000 0.6859
vn 0.7787 0.0000 0.6274
vn 0.9578 0.0000 -0.2873
vn -0.4913 0.0000 -0.8710
vn 0.0327 0.0000 -0.9995
vn 0.4783 0.0000 -0.8782
vn 0.0712 0.0000 -0.9975
vn 0.9562 0.0000 -0.2928
vn 0.2512 0.0000 -0.9679
vn -0.3761 0.0000 0.9266
vn 0.9630 0.0000 0.2696
vn -0.9547 0.0000 0.2977
vn 0.6990 0.0000 -0.7152
vn -0.8940 0.0000 0.4481
vn 0.2273 0.0000 -0.9738
vn 0.3757 0.0000 -0.9267
vn 0.4625 0.0000 0.8866
vn -0.4501 0.0000 0.8930
vn 0.9913 0.0000 -0.1313
vn -0.3168 0.0000 0.9485
vn -0.2988 0.0000 0.9543
vn -0.9946 0.0000 0.1040
vn 0.9995 0.0000 -0.0327
vn 0.6879 0.0000 -0.7258
vn -0.1848 0.0000 0.9828
vn -0.8477 0.0000 -0.5305
vn 0.4363 0.0000 -0.8998
vn 0.3115 0.0000 -0.9502
vn 0.9994 0.0000 0.0355
vn 0.8992 0.0000 -0.4375
vn -0.9912 0.0000 -0.1320
vn -0.4550 0.0000 0.8905
vn -0.8088 0.0000 -0.5882
vn 0.2869 0.0000 0.9579
vn -0.9887 0.0000 -0.1497
vn 0.8539 0.0000 0.5204
vn -0.3892 0.0000 -0.9211
vn -0.7948 0.0000 0.6069
vn 0.9983 0.0000 0.0578
vn -0.3562 0.0000 -0.9344
vn 0.9138 0.0000 -0.4061
vn 0.9695 0.0000 -0.2451
vn 0.9331 0.0000 0.3597
vn 0.0656 0.0000 0.9978
vn 0.0946 0.0000 -0.9955
vn -0.4049 0.0000 0.9144
vn 0.5254 0.0000 -0.8509
vn -0.9839 0.0000 0.1785
vn -0.8298 0.0000 0.5581
vn 0.2946 0.0000 -0.9556
vn 0.3978 0.0000 -0.9175
vn 0.2141 0.0000 -0.9768
vn 0.5815 0.0000 0.8135
vn -0.5196 0.0000 0.8544
vn 0.2485 0.0000 -0.9686
vn 0.7452 0.0000 -0.6669
vn -0.3180 0.0000 0.9481
vn 0.5972 0.0000 -0.8021
vn -0.9840 0.0000 0.1781
vn 0.9950 0.0000 -0.1002
vn -0.1478 0.0000 0.9890
vn -0.9991 0.0000 -0.0436
vn -0.4554 0.0000 0.8903
vn -0.2857 0.0000 0.9583
vn -0.9061 0.0000 -0.4232
vn -0.0000 0.0000 -1.0000
vn 0.3327 0.0000 -0.9430
vn -0.2742 0.0000 0.9617
vn 0.9940 0.0000 0.1090
vn 0.9377 0.0000 -0.3475
vn -0.7204 0.0000 -0.6935
vn -0.5367 0.0000 -0.8438
vn 0.4665 0.0000 0.8845
usemtl N06
s 1
f 1//1 2//1 3//1
f 4//1 2//1 1//1
f 5//1 2//1 4//1
f 6//1 2//1 5//1
f 7//1 2//1 6//1
f 8//1 2//1 7//1
f 9//1 2//1 8//1
f 10//1 2//1 9//1
f 11//1 2//1 10//1
f 12//1 2//1 11//1
f 13//1 2//1 12//1
f 14//1 2//1 13//1
f 15//1 2//1 14//1
f 15//1 16//1 2//1
f 15//1 17//1 16//1
f 15//1 18//1 17//1
f 15//1 19//1 18//1
f 15//1 20//1 19//1
f 21//1 20//1 15//1
f 21//1 22//1 20//1
f 21//1 23//1 22//1
f 21//1 24//1 23//1
f 21//1 25//1 24//1
f 21//1 26//1 25//1
f 27//1 26//1 21//1
f 27//1 28//1 26//1
f 27//1 29//1 28//1
f 27//1 30//1 29//1
f 31//1 30//1 27//1
f 31//1 32//1 30//1
f 31//1 33//1 32//1
f 34//1 33//1 31//1
f 34//1 35//1 33//1
f 34//1 36//1 35//1
f 37//1 36//1 34//1
f 37//1 38//1 36//1
f 37//1 39//1 38//1
f 40//1 39//1 37//1
f 40//1 41//1 39//1
f 42//1 41//1 40//1
f 42//1 43//1 41//1
f 42//1 44//1 43//1
f 45//1 44//1 42//1
f 45//1 46//1 44//1
f 47//1 48//1 49//1
f 50//1 48//1 47//1
f 51//1 48//1 50//1
f 52//1 48//1 51//1
f 52//1 53//1 48//1
f 54//1 53//1 52//1
f 55//1 53//1 54//1
f 56//1 53//1 55//1
f 57//1 53//1 56//1
f 57//1 58//1 53//1
f 59//1 58//1 57//1
f 60//1 58//1 59//1
f 61//1 58//1 60//1
f 62//1 46//1 45//1
f 63//1 58//1 61//1
f 63//1 64//1 58//1
f 65//1 64//1 63//1
f 62//1 65//1 46//1
f 65//1 66//1 64//1
f 65//1 67//1 66//1
f 62//1 67//1 65//1
f 62//1 68//1 67//1
f 68//1 69//1 67//1
f 69//1 70//1 67//1
f 70//1 71//1 67//1
f 62//1 72//1 68//1
f 62//1 73//1 72//1
f 74//1 75//1 62//1
f 75//1 76//1 62//1
f 76//1 77//1 62//1
f 77//1 73//1 62//1
f 78//1 71//1 70//1
f 79//1 71//1 78//1
f 74//1 80//1 75//1
f 74//1 81//1 80//1
f 74//1 82//1 81//1
f 83//1 71//1 79//1
f 74//1 84//1 82//1
f 83//1 85//1 71//1
f 74//1 86//1 84//1
f 74//1 87//1 86//1
f 88//1 85//1 83//1
f 74//1 89//1 87//1
f 74//1 90//1 89//1
f 74//1 91//1 90//1
f 88//1 92//1 85//1
f 93//1 92//1 88//1
f 74//1 94//1 91//1
f 74//1 95//1 94//1
f 96//1 95//1 74//1
f 96//1 97//1 95//1
f 98//1 92//1 93//1
f 96//1 99//1 97//1
f 98//1 100//1 92//1
f 96//1 101//1 99//1
f 96//1 102//1 101//1
f 103//1 100//1 98//1
f 96//1 104//1 102//1
f 96//1 105//1 104//1
f 103//1 106//1 100//1
f 96//1 107//1 105//1
f 108//1 106//1 103//1
f 96//1 109//1 107//1
f 96//1 110//1 109//1
f 111//1 110//1 96//1
f 112//1 106//1 108//1
f 112//1 113//1 106//1
f 114//1 113//1 112//1
f 111//1 115//1 110//1
f 114//1 116//1 113//1
f 117//1 115//1 111//1
f 118//1 116//1 114//1
f 117//1 119//1 115//1
f 118//1 120//1 116//1
f 121//1 120//1 118//1
f 122//1 119//1 117//1
f 122//1 123//1 119//1
f 124//1 120//1 121//1
f 124//1 125//1 120//1
f 126//1 125//1 124//1
f 127//1 123//1 122//1
f 127//1 128//1 123//1
f 126//1 129//1 125//1
f 130//1 129//1 126//1
f 127//1 131//1 128//1
f 132//1 131//1 127//1
f 133//1 129//1 130//1
f 133//1 134//1 129//1
f 132//1 135//1 131//1
f 136//1 134//1 133//1
f 137//1 135//1 132//1
f 136//1 138//1 134//1
f 139//1 138//1 136//1
f 137//1 140//1 135//1
f 141//1 138//1 139//1
f 142//1 140//1 137//1
f 142//1 143//1 140//1
f 141//1 144//1 138//1
f 145//1 144//1 141//1
f 142//1 146//1 143//1
f 147//1 144//1 145//1
f 148//1 146//1 142//1
f 147//1 149//1 144//1
f 148//1 150//1 146//1
f 151//1 149//1 147//1
f 148//1 152//1 150//1
f 152//1 149//1 151//1
f 148//1 149//1 152//1
f 153//1 149//1 148//1
f 153//1 154//1 149//1
f 155//1 154//1 153//1
f 155//1 156//1 154//1
f 155//1 157//1 156//1
f 158//1 157//1 155//1
f 158//1 159//1 157//1
f 160//2 161//2 162//2
f 163//2 160//2 162//2
f 164//2 163//2 162//2
f 165//2 164//2 162//2
f 166//2 165//2 162//2
f 167//2 166//2 162//2
f 168//3 167//2 162//2
f 169//4 168//3 162//2
f 170//5 169//4 162//2
f 171//6 170//5 162//2
f 172//2 171//6 162//2
f 173//2 172//2 162//2
f 174//7 173//2 162//2
f 174//7 162//2 175//2
f 174//7 175//2 176//2
f 174//7 176//2 177//2
f 174//7 177//2 178//2
f 174//7 178//2 179//2
f 180//3 174//7 179//2
f 180//3 179//2 181//3
f 180//3 181//3 182//3
f 180//3 182//3 183//3
f 180//3 183//3 184//3
f 180//3 184//3 185//3
f 186//2 180//3 185//3
f 186//2 185//3 187//8
f 186//2 187//8 188//4
f 186//2 188//4 189//9
f 190//4 186//2 189//9
f 190//4 189//9 191//2
f 190//4 191//2 192//2
f 193//2 190//4 192//2
f 193//2 192//2 194//4
f 193//2 194//4 195//3
f 196//3 193//2 195//3
f 196//3 195//3 197//2
f 196//3 197//2 198//2
f 199//2 196//3 198//2
f 199//2 198//2 200//2
f 201//2 199//2 200//2
f 201//2 200//2 202//2
f 201//2 202//2 203//2
f 204//2 201//2 203//2
f 204//2 203//2 205//2
f 206//10 207//11 208//12
f 209//13 206//10 208//12
f 210//14 209//13 208//12
f 211//8 210//14 208//12
f 211//8 208//12 212//15
f 213//16 211//8 212//15
f 214//6 213//16 212//15
f 215//17 214//6 212//15
f 216//8 215//17 212//15
f 216//8 212//15 217//18
f 218//19 216//8 217//18
f 219//20 218//19 217//18
f 220//2 219//20 217//18
f 221//2 204//2 205//2
f 222//2 220//2 217//18
f 222//2 217//18 223//2
f 224//2 222//2 223//2
f 221//2 205//2 224//2
f 224//2 223//2 225//2
f 224//2 225//2 226//21
f 221//2 224//2 226//21
f 221//2 226//21 227//22
f 227//23 226//23 228//23
f 228//2 226//2 229//2
f 229//2 226//2 230//2
f 221//2 227//22 231//7
f 221//2 231//7 232//24
f 233//2 221//2 234//2
f 234//2 221//2 235//2
f 235//2 221//2 236//7
f 236//7 221//2 232//24
f 237//2 229//2 230//2
f 238//2 237//2 230//2
f 233//2 234//2 239//2
f 233//2 239//2 240//2
f 233//2 240//2 241//2
f 242//2 238//2 230//2
f 233//2 241//2 243//2
f 242//2 230//2 244//2
f 233//2 243//2 245//2
f 233//2 245//2 246//2
f 247//2 242//2 244//2
f 233//2 246//2 248//2
f 233//2 248//2 249//9
f 233//2 249//9 250//4
f 247//2 244//2 251//2
f 252//4 247//2 251//2
f 233//2 250//4 253//7
f 233//2 253//7 254//2
f 255//2 233//2 254//2
f 255//2 254//2 256//2
f 257//2 252//4 251//2
f 255//2 256//2 258//2
f 257//2 251//2 259//2
f 255//2 258//2 260//2
f 255//2 260//2 261//2
f 262//2 257//2 259//2
f 255//2 261//2 263//2
f 255//2 263//2 264//4
f 262//2 259//2 265//2
f 255//2 264//4 266//2
f 267//3 262//2 265//2
f 255//2 266//2 268//7
f 255//2 268//7 269//2
f 270//2 255//2 269//2
f 271//2 267//3 265//2
f 271//2 265//2 272//2
f 273//2 271//2 272//2
f 270//2 269//2 274//2
f 273//2 272//2 275//2
f 276//2 270//2 274//2
f 277//2 273//2 275//2
f 276//2 274//2 278//2
f 277//2 275//2 279//2
f 280//4 277//2 279//2
f 281//2 276//2 278//2
f 281//2 278//2 282//2
f 283//2 280//4 279//2
f 283//2 279//2 284//2
f 285//3 283//2 284//2
f 286//2 281//2 282//2
f 286//2 282//2 287//2
f 285//3 284//2 288//2
f 289//4 285//3 288//2
f 286//2 287//2 290//2
f 291//2 286//2 290//2
f 292//2 289//4 288//2
f 292//2 288//2 293//2
f 291//2 290//2 294//2
f 295//2 292//2 293//2
f 296//2 291//2 294//2
f 295//2 293//2 297//2
f 298//2 295//2 297//2
f 296//2 294//2 299//2
f 300//2 298//2 297//2
f 301//2 296//2 299//2
f 301//2 299//2 302//2
f 300//2 297//2 303//3
f 304//9 300//2 303//3
f 301//2 302//2 305//2
f 306//2 304//9 303//3
f 307//2 301//2 305//2
f 306//2 303//3 308//2
f 307//2 305//2 309//2
f 310//7 306//2 308//2
f 307//2 309//2 311//6
f 311//6 310//7 308//2
f 307//2 311//6 308//2
f 312//2 307//2 308//2
f 312//2 308//2 313//2
f 314//2 312//2 313//2
f 314//2 313//2 315//9
f 314//2 315//9 316//4
f 317//7 314//2 316//4
f 317//7 316//4 318//25
f 122//26 117//26 276//26
f 276//26 281//26 122//26
f 3//27 2//27 162//27
f 162//27 161//27 3//27
f 113//28 116//28 275//28
f 275//28 272//28 113//28
f 73//29 77//29 236//29
f 236//29 232//29 73//29
f 6//30 5//31 164//30
f 164//30 165//32 6//30
f 158//33 155//33 314//33
f 314//33 317//33 158//33
f 85//34 92//34 251//34
f 251//34 244//34 85//34
f 91//35 94//35 253//35
f 253//35 250//35 91//35
f 48//36 53//36 212//36
f 212//36 208//36 48//36
f 31//37 27//37 186//37
f 186//37 190//37 31//37
f 141//38 139//38 298//38
f 298//38 300//38 141//38
f 86//39 87//39 246//39
f 246//39 245//39 86//39
f 128//40 131//40 290//40
f 290//40 287//40 128//40
f 42//41 40//41 199//41
f 199//41 201//41 42//41
f 129//42 134//42 293//42
f 293//42 288//42 129//42
f 80//43 81//43 240//43
f 240//43 239//43 80//43
f 33//44 35//44 194//44
f 194//44 192//44 33//44
f 154//45 156//45 315//45
f 315//45 313//45 154//45
f 99//46 101//46 260//46
f 260//46 258//46 99//46
f 28//47 29//47 188//47
f 188//47 187//47 28//47
f 66//48 67//48 226//48
f 226//48 225//48 66//48
f 14//49 13//49 172//49
f 172//49 173//49 14//49
f 149//50 154//50 313//50
f 313//50 308//50 149//50
f 2//51 16//51 175//51
f 175//51 162//51 2//51
f 39//52 41//52 200//52
f 200//52 198//52 39//52
f 51//53 50//53 209//53
f 209//53 210//53 51//53
f 19//54 20//54 179//54
f 179//54 178//54 19//54
f 130//55 126//55 285//55
f 285//55 289//55 130//55
f 105//56 107//57 266//56
f 266//56 264//58 105//56
f 56//59 55//59 214//59
f 214//59 215//59 56//59
f 10//60 9//60 168//60
f 168//60 169//60 10//60
f 121//61 118//61 277//61
f 277//61 280//61 121//61
f 140//62 143//62 302//62
f 302//62 299//62 140//62
f 127//63 122//63 281//63
f 281//63 286//63 127//63
f 108//64 103//64 262//64
f 262//64 267//64 108//64
f 5//31 4//65 163//31
f 163//31 164//30 5//31
f 152//66 151//66 310//66
f 310//66 311//66 152//66
f 46//67 65//67 224//67
f 224//67 205//67 46//67
f 88//68 83//68 242//68
f 242//68 247//68 88//68
f 116//69 120//69 279//69
f 279//69 275//69 116//69
f 77//70 76//70 235//70
f 235//70 236//70 77//70
f 34//71 31//71 190//71
f 190//71 193//71 34//71
f 92//72 100//72 259//72
f 259//72 251//72 92//72
f 96//73 74//73 233//73
f 233//73 255//73 96//73
f 94//74 95//74 254//74
f 254//74 253//74 94//74
f 9//75 8//76 167//75
f 167//75 168//75 9//75
f 131//77 135//77 294//77
f 294//77 290//77 131//77
f 50//78 47//78 206//78
f 206//78 209//78 50//78
f 45//79 42//79 201//79
f 201//79 204//79 45//79
f 87//80 89//80 248//80
f 248//80 246//80 87//80
f 29//81 30//81 189//81
f 189//81 188//81 29//81
f 53//82 58//82 217//82
f 217//82 212//82 53//82
f 148//83 142//83 301//83
f 301//83 307//83 148//83
f 134//84 138//84 297//84
f 297//84 293//84 134//84
f 145//85 141//85 300//85
f 300//85 304//85 145//85
f 81//86 82//86 241//86
f 241//86 240//86 81//86
f 115//87 119//87 278//87
f 278//87 274//87 115//87
f 15//88 14//88 173//88
f 173//88 174//88 15//88
f 159//89 158//89 317//89
f 317//89 318//89 159//89
f 101//90 102//90 261//90
f 261//90 260//90 101//90
f 70//91 69//91 228//91
f 228//91 229//91 70//91
f 55//92 54//92 213//92
f 213//92 214//92 55//92
f 24//93 25//93 184//93
f 184//93 183//93 24//93
f 16//94 17//94 176//94
f 176//94 175//94 16//94
f 11//95 10//95 169//95
f 169//95 170//95 11//95
f 82//96 84//96 243//96
f 243//96 241//96 82//96
f 20//97 22//97 181//97
f 181//97 179//97 20//97
f 107//57 109//98 268//98
f 268//98 266//56 107//57
f 35//99 36//99 195//99
f 195//99 194//99 35//99
f 132//100 127//100 286//100
f 286//100 291//100 132//100
f 60//101 59//101 218//101
f 218//101 219//101 60//101
f 93//102 88//102 247//102
f 247//102 252//102 93//102
f 133//103 130//103 289//103
f 289//103 292//103 133//103
f 41//104 43//104 202//104
f 202//104 200//104 41//104
f 100//105 106//105 265//105
f 265//105 259//105 100//105
f 112//106 108//106 267//106
f 267//106 271//106 112//106
f 4//65 1//107 160//108
f 160//108 163//31 4//65
f 135//109 140//109 299//109
f 299//109 294//109 135//109
f 150//110 152//110 311//110
f 311//110 309//110 150//110
f 111//111 96//111 255//111
f 255//111 270//111 111//111
f 78//112 70//112 229//112
f 229//112 237//112 78//112
f 47//113 49//113 207//113
f 207//113 206//113 47//113
f 37//114 34//114 193//114
f 193//114 196//114 37//114
f 67//115 71//115 230//115
f 230//115 226//115 67//115
f 89//116 90//116 249//116
f 249//116 248//116 89//116
f 8//76 7//32 166//76
f 166//76 167//75 8//76
f 153//117 148//117 307//117
f 307//117 312//117 153//117
f 68//118 72//118 231//118
f 231//118 227//118 68//118
f 30//119 32//119 191//119
f 191//119 189//119 30//119
f 157//120 159//120 318//120
f 318//120 316//120 157//120
f 120//121 125//121 284//121
f 284//121 279//121 120//121
f 76//122 75//122 234//122
f 234//122 235//122 76//122
f 61//123 60//123 219//123
f 219//123 220//123 61//123
f 119//124 123//124 282//124
f 282//124 278//124 119//124
f 62//125 45//125 204//125
f 204//125 221//125 62//125
f 138//126 144//126 303//126
f 303//126 297//126 138//126
f 136//127 133//127 292//127
f 292//127 295//127 136//127
f 17//128 18//128 177//128
f 177//128 176//128 17//128
f 25//129 26//129 185//129
f 185//129 184//129 25//129
f 58//130 64//130 223//130
f 223//130 217//130 58//130
f 21//131 15//131 174//131
f 174//131 180//131 21//131
f 95//132 97//132 256//132
f 256//132 254//132 95//132
f 59//133 57//133 216//133
f 216//133 218//133 59//133
f 12//134 11//134 170//134
f 170//134 171//134 12//134
f 124//135 121//135 280//135
f 280//135 283//135 124//135
f 102//136 104//58 263//136
f 263//136 261//136 102//136
f 36//137 38//137 197//137
f 197//137 195//137 36//137
f 54//138 52//138 211//138
f 211//138 213//138 54//138
f 98//139 93//139 252//139
f 252//139 257//139 98//139
f 84//140 86//140 245//140
f 245//140 243//140 84//140
f 22//141 23//141 182//141
f 182//141 181//141 22//141
f 109//142 110//142 269//142
f 269//142 268//142 109//142
f 43//143 44//143 203//143
f 203//143 202//143 43//143
f 114//144 112//144 271//144
f 271//144 273//144 114//144
f 147//145 145//145 304//145
f 304//145 306//145 147//145
f 137//146 132//146 291//146
f 291//146 296//146 137//146
f 1//107 3//107 161//107
f 161//107 160//108 1//107
f 146//147 150//147 309//147
f 309//147 305//147 146//147
f 117//148 111//148 270//148
f 270//148 276//148 117//148
f 71//149 85//149 244//149
f 244//149 230//149 71//149
f 79//150 78//150 237//150
f 237//150 238//150 79//150
f 7//32 6//30 165//32
f 165//32 166//76 7//32
f 40//151 37//151 196//151
f 196//151 199//151 40//151
f 106//152 113//152 272//152
f 272//152 265//152 106//152
f 155//153 153//153 312//153
f 312//153 314//153 155//153
f 125//154 129//154 288//154
f 288//154 284//154 125//154
f 90//155 91//155 250//155
f 250//155 249//155 90//155
f 123//156 128//156 287//156
f 287//156 282//156 123//156
f 49//157 48//157 208//157
f 208//157 207//157 49//157
f 72//158 73//158 232//158
f 232//158 231//158 72//158
f 63//159 61//159 220//159
f 220//159 222//159 63//159
f 32//160 33//160 192//160
f 192//160 191//160 32//160
f 74//161 62//161 221//161
f 221//161 233//161 74//161
f 139//162 136//162 295//162
f 295//162 298//162 139//162
f 75//163 80//163 239//163
f 239//163 234//163 75//163
f 26//164 28//164 187//164
f 187//164 185//164 26//164
f 156//165 157//165 316//165
f 316//165 315//165 156//165
f 64//166 66//166 225//166
f 225//166 223//166 64//166
f 27//167 21//167 180//167
f 180//167 186//167 27//167
f 18//168 19//168 178//168
f 178//168 177//168 18//168
f 38//169 39//169 198//169
f 198//169 197//169 38//169
f 13//170 12//170 171//170
f 171//170 172//170 13//170
f 144//171 149//171 308//171
f 308//171 303//171 144//171
f 126//172 124//172 283//172
f 283//172 285//172 126//172
f 97//173 99//173 258//173
f 258//173 256//173 97//173
f 52//174 51//174 210//174
f 210//174 211//174 52//174
f 118//175 114//175 273//175
f 273//175 277//175 118//175
f 104//58 105//56 264//58
f 264//58 263//136 104//58
f 65//176 63//176 222//176
f 222//176 224//176 65//176
f 57//177 56//177 215//177
f 215//177 216//177 57//177
f 103//178 98//178 257//178
f 257//178 262//178 103//178
f 69//179 68//179 227//179
f 227//179 228//179 69//179
f 23//180 24//180 183//180
f 183//180 182//180 23//180
f 151//181 147//181 306//181
f 306//181 310//181 151//181
f 110//182 115//182 274//182
f 274//182 269//182 110//182
f 44//183 46//183 205//183
f 205//183 203//183 44//183
f 142//184 137//184 296//184
f 296//184 301//184 142//184
f 83//185 79//185 238//185
f 238//185 242//185 83//185
f 143//186 146//186 305//186
f 305//186 302//186 143//186
