# Blender v2.90.0 OBJ File: ''
# www.blender.org
mtllib N07.mtl
o N07
v -0.192542 -0.052866 0.314759
v 0.406259 -0.052866 0.331997
v -0.190859 -0.052866 0.331997
v 0.422060 -0.052866 0.310375
v -0.194282 -0.052866 0.297145
v 0.384398 -0.052866 0.230788
v -0.196095 -0.052866 0.279162
v -0.198004 -0.052866 0.260815
v -0.200029 -0.052866 0.242110
v -0.202190 -0.052866 0.223052
v -0.019541 -0.052866 0.225547
v 0.315611 -0.052866 0.225547
v 0.347036 -0.052866 0.151250
v -0.043274 -0.052866 0.225142
v 0.284578 -0.052866 0.156906
v -0.063594 -0.052866 0.223760
v -0.080900 -0.052866 0.221155
v -0.204506 -0.052866 0.203648
v -0.095589 -0.052866 0.217077
v -0.108061 -0.052866 0.211277
v -0.118714 -0.052866 0.203509
v -0.206998 -0.052866 0.183903
v -0.127946 -0.052866 0.193522
v -0.136155 -0.052866 0.181069
v -0.209687 -0.052866 0.163824
v -0.143741 -0.052866 0.165903
v -0.151102 -0.052866 0.147773
v -0.212593 -0.052866 0.143415
v 0.251143 -0.052866 0.085658
v 0.309893 -0.052866 0.071707
v -0.158635 -0.052866 0.126433
v -0.215735 -0.052866 0.122683
v -0.166741 -0.052866 0.101632
v -0.219134 -0.052866 0.101632
v 0.215606 -0.052866 0.012348
v 0.272888 -0.052866 -0.007898
v 0.178267 -0.052866 -0.062477
v 0.235942 -0.052866 -0.087617
v 0.139426 -0.052866 -0.138274
v 0.198973 -0.052866 -0.167507
v 0.099384 -0.052866 -0.214495
v 0.161900 -0.052866 -0.247622
v 0.058441 -0.052866 -0.290594
v 0.124641 -0.052866 -0.328017
v 0.016897 -0.052866 -0.366026
v 0.087117 -0.052866 -0.408748
v -0.024946 -0.052866 -0.440246
v 0.049247 -0.052866 -0.489868
v -0.066790 -0.052866 -0.512707
v 0.010949 -0.052866 -0.571432
v -0.108333 -0.052866 -0.582864
v -0.027857 -0.052866 -0.653497
v -0.149276 -0.052866 -0.650171
v -0.136802 -0.052866 -0.668467
v -0.192542 0.052863 0.314759
v -0.190859 0.052866 0.331997
v 0.406259 0.052863 0.331997
v 0.422060 0.052866 0.310375
v -0.194282 0.052863 0.297145
v 0.384398 0.052866 0.230788
v -0.196095 0.052866 0.279162
v -0.198004 0.052866 0.260815
v -0.200029 0.052866 0.242110
v -0.202190 0.052866 0.223052
v -0.019541 0.052866 0.225547
v 0.315611 0.052866 0.225547
v 0.347036 0.052866 0.151250
v -0.043274 0.052866 0.225142
v 0.284578 0.052866 0.156906
v -0.063594 0.052866 0.223760
v -0.080900 0.052866 0.221155
v -0.204506 0.052866 0.203648
v -0.095589 0.052863 0.217077
v -0.108061 0.052866 0.211277
v -0.118714 0.052866 0.203509
v -0.206998 0.052866 0.183903
v -0.127946 0.052863 0.193522
v -0.136155 0.052863 0.181069
v -0.209687 0.052866 0.163824
v -0.143741 0.052866 0.165903
v -0.151102 0.052866 0.147773
v -0.212593 0.052866 0.143415
v 0.251143 0.052866 0.085658
v 0.309893 0.052863 0.071707
v -0.158635 0.052866 0.126433
v -0.215735 0.052866 0.122683
v -0.166741 0.052866 0.101632
v -0.219134 0.052866 0.101632
v 0.215606 0.052866 0.012348
v 0.272888 0.052866 -0.007898
v 0.178267 0.052866 -0.062477
v 0.235942 0.052866 -0.087617
v 0.139426 0.052866 -0.138274
v 0.198973 0.052866 -0.167507
v 0.099384 0.052866 -0.214495
v 0.161900 0.052863 -0.247622
v 0.058441 0.052866 -0.290594
v 0.124641 0.052866 -0.328017
v 0.016897 0.052866 -0.366026
v 0.087117 0.052866 -0.408748
v -0.024946 0.052866 -0.440246
v 0.049247 0.052866 -0.489868
v -0.066790 0.052866 -0.512707
v 0.010949 0.052866 -0.571432
v -0.108333 0.052866 -0.582864
v -0.027857 0.052866 -0.653497
v -0.149276 0.052863 -0.650171
v -0.136802 0.052866 -0.668467
vn 0.0000 -1.0000 -0.0000
vn -0.0000 1.0000 -0.0001
vn 0.0000 1.0000 -0.0002
vn -0.0000 1.0000 0.0001
vn -0.0000 1.0000 0.0000
vn 0.0001 1.0000 -0.0008
vn 0.0001 1.0000 -0.0009
vn -0.0001 1.0000 0.0001
vn -0.0000 1.0000 0.0002
vn 0.2675 0.0000 -0.9635
vn 0.0171 0.0000 -0.9999
vn -0.9952 -0.0000 0.0983
vn -0.9953 0.0000 0.0973
vn -0.9952 -0.0000 0.0982
vn -0.9949 0.0000 0.1005
vn 0.9052 0.0000 -0.4249
vn 0.9041 0.0000 -0.4274
vn 0.9052 0.0000 -0.4251
vn 0.9061 0.0000 -0.4231
vn -0.8853 -0.0000 0.4651
vn -0.8900 -0.0000 0.4560
vn -0.8806 0.0000 0.4738
vn -0.9872 0.0000 0.1594
vn -0.9887 -0.0000 0.1499
vn 0.1489 0.0000 -0.9889
vn -0.9949 0.0000 0.1004
vn -0.9946 0.0000 0.1034
vn -0.8711 -0.0000 0.4911
vn -0.8759 -0.0000 0.4825
vn -0.8660 0.0000 0.5001
vn -0.9912 -0.0000 0.1327
vn -0.9921 0.0000 0.1252
vn -0.9900 0.0000 0.1409
vn 0.9040 0.0000 -0.4275
vn -0.9946 -0.0000 0.1035
vn -0.9942 0.0000 0.1076
vn -0.8948 -0.0000 0.4465
vn -0.8998 -0.0000 0.4363
vn 0.9072 -0.0000 -0.4207
vn 0.9074 0.0000 -0.4202
vn 0.9069 0.0000 -0.4213
vn -0.8759 0.0000 0.4824
vn 0.4216 0.0000 -0.9068
vn 0.9265 0.0000 -0.3762
vn 0.9051 -0.0000 -0.4252
vn 0.9051 -0.0000 -0.4251
vn 0.9040 -0.0000 -0.4276
vn 0.9505 0.0000 -0.3107
vn 0.8074 0.0000 0.5900
vn 0.9062 0.0000 -0.4230
vn 0.9068 0.0000 -0.4216
vn 0.9073 -0.0000 -0.4206
vn 0.0678 0.0000 -0.9977
vn -0.9953 0.0000 0.0972
vn 0.9067 -0.0000 -0.4217
vn -0.9936 -0.0000 0.1126
vn -0.9942 -0.0000 0.1077
vn -0.9930 0.0000 0.1185
vn -0.8605 0.0000 0.5095
vn 0.9430 0.0000 -0.3329
vn 0.8349 0.0000 -0.5504
vn 0.9075 0.0000 -0.4200
vn -0.9053 -0.0000 0.4248
vn -0.8998 0.0000 0.4362
vn -0.9929 -0.0000 0.1186
vn 0.0000 0.0000 -1.0000
vn -0.8262 0.0000 -0.5633
vn 0.7343 0.0000 -0.6788
vn 0.9039 0.0000 -0.4277
vn 0.5892 0.0000 -0.8080
vn -0.9112 0.0000 0.4120
vn -0.8543 0.0000 0.5197
vn 0.0000 0.0000 1.0000
vn 0.1361 0.0000 -0.9907
vn 0.8944 0.0000 -0.4473
usemtl N07
s 1
f 1//1 2//1 3//1
f 1//1 4//1 2//1
f 5//1 4//1 1//1
f 5//1 6//1 4//1
f 7//1 6//1 5//1
f 8//1 6//1 7//1
f 9//1 6//1 8//1
f 10//1 11//1 9//1
f 11//1 6//1 9//1
f 11//1 12//1 6//1
f 12//1 13//1 6//1
f 10//1 14//1 11//1
f 15//1 13//1 12//1
f 10//1 16//1 14//1
f 10//1 17//1 16//1
f 18//1 17//1 10//1
f 18//1 19//1 17//1
f 18//1 20//1 19//1
f 18//1 21//1 20//1
f 22//1 21//1 18//1
f 22//1 23//1 21//1
f 22//1 24//1 23//1
f 25//1 24//1 22//1
f 25//1 26//1 24//1
f 25//1 27//1 26//1
f 28//1 27//1 25//1
f 29//1 13//1 15//1
f 29//1 30//1 13//1
f 28//1 31//1 27//1
f 32//1 31//1 28//1
f 32//1 33//1 31//1
f 34//1 33//1 32//1
f 35//1 30//1 29//1
f 35//1 36//1 30//1
f 37//1 36//1 35//1
f 37//1 38//1 36//1
f 39//1 38//1 37//1
f 39//1 40//1 38//1
f 41//1 40//1 39//1
f 41//1 42//1 40//1
f 43//1 42//1 41//1
f 43//1 44//1 42//1
f 45//1 44//1 43//1
f 45//1 46//1 44//1
f 47//1 46//1 45//1
f 47//1 48//1 46//1
f 49//1 48//1 47//1
f 49//1 50//1 48//1
f 51//1 50//1 49//1
f 51//1 52//1 50//1
f 53//1 52//1 51//1
f 54//1 52//1 53//1
f 55//2 56//3 57//4
f 55//2 57//4 58//4
f 59//4 55//2 58//4
f 59//4 58//4 60//5
f 61//4 59//4 60//5
f 62//5 61//4 60//5
f 63//5 62//5 60//5
f 64//5 63//5 65//5
f 65//5 63//5 60//5
f 65//5 60//5 66//5
f 66//5 60//5 67//5
f 64//5 65//5 68//5
f 69//5 66//5 67//5
f 64//5 68//5 70//5
f 64//5 70//5 71//6
f 72//7 64//5 71//6
f 72//7 71//6 73//5
f 72//7 73//5 74//8
f 72//7 74//8 75//2
f 76//5 72//7 75//2
f 76//5 75//2 77//5
f 76//5 77//5 78//5
f 79//5 76//5 78//5
f 79//5 78//5 80//4
f 79//5 80//4 81//5
f 82//5 79//5 81//5
f 83//5 69//5 67//5
f 83//5 67//5 84//5
f 82//5 81//5 85//5
f 86//5 82//5 85//5
f 86//5 85//5 87//5
f 88//5 86//5 87//5
f 89//5 83//5 84//5
f 89//5 84//5 90//5
f 91//5 89//5 90//5
f 91//5 90//5 92//5
f 93//5 91//5 92//5
f 93//5 92//5 94//5
f 95//5 93//5 94//5
f 95//5 94//5 96//5
f 97//5 95//5 96//5
f 97//5 96//5 98//5
f 99//5 97//5 98//5
f 99//5 98//5 100//5
f 101//5 99//5 100//5
f 101//5 100//5 102//5
f 103//5 101//5 102//5
f 103//5 102//5 104//5
f 105//5 103//5 104//5
f 105//5 104//5 106//5
f 107//4 105//5 106//5
f 108//9 107//4 106//5
f 17//10 19//10 73//10
f 73//10 71//10 17//10
f 11//11 14//11 68//11
f 68//11 65//11 11//11
f 5//12 1//13 55//14
f 55//14 59//15 5//12
f 48//16 50//17 104//18
f 104//18 102//19 48//16
f 41//20 39//21 93//20
f 93//20 95//22 41//20
f 34//23 32//24 86//23
f 86//23 88//23 34//23
f 16//25 17//25 71//25
f 71//25 70//25 16//25
f 7//26 5//12 59//15
f 59//15 61//27 7//26
f 47//28 45//29 99//28
f 99//28 101//30 47//28
f 25//31 22//32 76//31
f 76//31 79//33 25//31
f 50//17 52//34 106//34
f 106//34 104//18 50//17
f 8//35 7//26 61//27
f 61//27 62//36 8//35
f 37//37 35//38 89//37
f 89//37 91//21 37//37
f 36//39 38//40 92//40
f 92//40 90//41 36//39
f 45//29 43//22 97//42
f 97//42 99//28 45//29
f 19//43 20//43 74//43
f 74//43 73//43 19//43
f 26//44 27//44 81//44
f 81//44 80//44 26//44
f 6//45 13//19 67//46
f 67//46 60//47 6//45
f 39//21 37//37 91//21
f 91//21 93//20 39//21
f 31//48 33//48 87//48
f 87//48 85//48 31//48
f 2//49 4//49 58//49
f 58//49 57//49 2//49
f 44//41 46//50 100//51
f 100//51 98//52 44//41
f 14//53 16//53 70//53
f 70//53 68//53 14//53
f 1//13 3//54 56//54
f 56//54 55//14 1//13
f 43//22 41//20 95//22
f 95//22 97//42 43//22
f 13//19 30//55 84//19
f 84//19 67//46 13//19
f 10//56 9//57 63//56
f 63//56 64//58 10//56
f 49//30 47//28 101//30
f 101//30 103//59 49//30
f 27//60 31//60 85//60
f 85//60 81//60 27//60
f 23//61 24//61 78//61
f 78//61 77//61 23//61
f 38//40 40//62 94//62
f 94//62 92//40 38//40
f 35//38 29//63 83//64
f 83//64 89//37 35//38
f 22//32 18//65 72//32
f 72//32 76//31 22//32
f 30//55 36//39 90//41
f 90//41 84//19 30//55
f 18//65 10//56 64//58
f 64//58 72//32 18//65
f 12//66 11//66 65//66
f 65//66 66//66 12//66
f 54//67 53//67 107//67
f 107//67 108//67 54//67
f 21//68 23//68 77//68
f 77//68 75//68 21//68
f 4//69 6//45 60//47
f 60//47 58//69 4//69
f 40//62 42//40 96//40
f 96//40 94//62 40//62
f 33//66 34//66 88//66
f 88//66 87//66 33//66
f 20//70 21//70 75//70
f 75//70 74//70 20//70
f 42//40 44//41 98//52
f 98//52 96//40 42//40
f 15//71 12//71 66//71
f 66//71 69//63 15//71
f 53//72 51//59 105//72
f 105//72 107//72 53//72
f 28//33 25//31 79//33
f 79//33 82//24 28//33
f 9//57 8//35 62//36
f 62//36 63//56 9//57
f 51//59 49//30 103//59
f 103//59 105//72 51//59
f 3//73 2//73 57//73
f 57//73 56//73 3//73
f 52//74 54//74 108//74
f 108//74 106//74 52//74
f 32//24 28//33 82//24
f 82//24 86//23 32//24
f 46//50 48//16 102//19
f 102//19 100//51 46//50
f 24//75 26//75 80//75
f 80//75 78//75 24//75
f 29//63 15//71 69//63
f 69//63 83//64 29//63
