# Blender v2.90.0 OBJ File: ''
# www.blender.org
mtllib N08.mtl
o N08
v -0.027325 -0.052006 0.480413
v 0.014527 -0.052006 0.482932
v 0.012891 -0.052006 0.482932
v 0.048901 -0.052006 0.480833
v 0.081507 -0.052006 0.474729
v -0.064833 -0.052006 0.473138
v 0.112113 -0.052006 0.464908
v -0.099484 -0.052006 0.461533
v 0.140486 -0.052006 0.451662
v -0.131127 -0.052006 0.446026
v 0.166394 -0.052006 0.435280
v -0.159610 -0.052006 0.427042
v -0.004289 -0.052006 0.431391
v -0.002653 -0.052006 0.431391
v 0.015701 -0.052006 0.430192
v 0.189603 -0.052006 0.416052
v -0.026639 -0.052006 0.429768
v 0.034143 -0.052006 0.426566
v -0.047418 -0.052006 0.425085
v -0.184785 -0.052006 0.405007
v 0.052352 -0.052006 0.420474
v -0.066555 -0.052006 0.417624
v 0.070007 -0.052006 0.411878
v -0.083979 -0.052006 0.407666
v 0.209881 -0.052006 0.394266
v 0.086788 -0.052006 0.400736
v -0.099619 -0.052006 0.395492
v -0.206499 -0.052006 0.380348
v 0.102372 -0.052006 0.387009
v -0.113405 -0.052006 0.381384
v 0.226994 -0.052006 0.370215
v 0.116440 -0.052006 0.370657
v -0.125264 -0.052006 0.365623
v -0.224603 -0.052006 0.353489
v 0.128669 -0.052006 0.351641
v 0.240710 -0.052006 0.344186
v -0.135126 -0.052006 0.348489
v -0.238946 -0.052006 0.324858
v 0.138740 -0.052006 0.329920
v -0.142920 -0.052006 0.330265
v 0.250795 -0.052006 0.316469
v -0.148576 -0.052006 0.311231
v 0.146330 -0.052006 0.305455
v -0.249377 -0.052006 0.294880
v 0.257017 -0.052006 0.287355
v -0.152021 -0.052006 0.291669
v 0.151120 -0.052006 0.278207
v -0.255747 -0.052006 0.263983
v -0.153185 -0.052006 0.271859
v 0.259143 -0.052006 0.257133
v 0.152788 -0.052006 0.248134
v -0.151271 -0.052006 0.244345
v -0.257903 -0.052006 0.232590
v 0.258821 -0.052006 0.245343
v 0.151916 -0.052006 0.225945
v 0.257870 -0.052006 0.233711
v -0.145709 -0.052006 0.219319
v 0.256304 -0.052006 0.222261
v -0.256620 -0.052006 0.206313
v 0.149360 -0.052006 0.205134
v 0.254143 -0.052006 0.211016
v -0.136772 -0.052006 0.196542
v 0.251402 -0.052006 0.199999
v -0.252817 -0.052006 0.181428
v 0.145208 -0.052006 0.185613
v 0.248098 -0.052006 0.189231
v -0.124733 -0.052006 0.175777
v 0.244249 -0.052006 0.178735
v 0.139547 -0.052006 0.167293
v -0.246565 -0.052006 0.157861
v 0.239871 -0.052006 0.168535
v -0.109865 -0.052006 0.156784
v 0.234983 -0.052006 0.158654
v 0.132466 -0.052006 0.150087
v 0.229600 -0.052006 0.149112
v -0.237935 -0.052006 0.135538
v -0.092440 -0.052006 0.139326
v 0.124052 -0.052006 0.133906
v 0.223739 -0.052006 0.139936
v 0.217419 -0.052006 0.131145
v -0.072732 -0.052006 0.123162
v -0.226999 -0.052006 0.114386
v 0.114394 -0.052006 0.118663
v 0.214443 -0.052006 0.127507
v 0.210041 -0.052006 0.122766
v -0.051013 -0.052006 0.108056
v 0.204252 -0.052006 0.116981
v 0.103580 -0.052006 0.104268
v 0.197117 -0.052006 0.110207
v -0.213828 -0.052006 0.094329
v 0.188676 -0.052006 0.102501
v -0.027554 -0.052006 0.093767
v 0.091698 -0.052006 0.090635
v 0.178968 -0.052006 0.093921
v -0.198491 -0.052006 0.075296
v 0.168032 -0.052006 0.084522
v -0.002630 -0.052006 0.080058
v 0.078836 -0.052006 0.077676
v 0.155909 -0.052006 0.074362
v 0.023487 -0.052006 0.066690
v 0.065082 -0.052006 0.065301
v -0.181062 -0.052006 0.057211
v 0.142638 -0.052006 0.063497
v 0.050524 -0.052006 0.053424
v 0.128260 -0.052006 0.051985
v -0.161609 -0.052006 0.040002
v 0.112814 -0.052006 0.039882
v -0.140205 -0.052006 0.023593
v 0.096339 -0.052006 0.027245
v 0.121968 -0.052006 0.012888
v -0.116921 -0.052006 0.007912
v 0.147099 -0.052006 -0.002461
v -0.091827 -0.052006 -0.007116
v 0.171400 -0.052006 -0.018940
v -0.106295 -0.052006 -0.016048
v -0.120578 -0.052006 -0.025194
v 0.194542 -0.052006 -0.036689
v -0.134560 -0.052006 -0.034459
v -0.046831 -0.052006 -0.034932
v -0.148125 -0.052006 -0.043749
v -0.066705 -0.052006 -0.047977
v -0.018215 -0.052006 -0.048616
v 0.216196 -0.052006 -0.055847
v -0.161155 -0.052006 -0.052971
v -0.085358 -0.052006 -0.062115
v 0.010089 -0.052006 -0.063141
v -0.173536 -0.052006 -0.062032
v 0.236031 -0.052006 -0.076553
v -0.185149 -0.052006 -0.070836
v -0.102693 -0.052006 -0.077282
v 0.037665 -0.052006 -0.078599
v -0.195879 -0.052006 -0.079292
v 0.253718 -0.052006 -0.098946
v -0.118613 -0.052006 -0.093411
v 0.064099 -0.052006 -0.095078
v -0.205608 -0.052006 -0.087304
v -0.214221 -0.052006 -0.094779
v -0.133021 -0.052006 -0.110439
v -0.221602 -0.052006 -0.101623
v 0.088976 -0.052006 -0.112671
v 0.268930 -0.052006 -0.123167
v -0.227633 -0.052006 -0.107744
v -0.235736 -0.052006 -0.116392
v -0.145822 -0.052006 -0.128299
v 0.111882 -0.052006 -0.131469
v -0.243984 -0.052006 -0.125591
v 0.281334 -0.052006 -0.149352
v -0.252215 -0.052006 -0.135380
v -0.156919 -0.052006 -0.146925
v 0.132403 -0.052006 -0.151562
v -0.260267 -0.052006 -0.145801
v -0.267978 -0.052006 -0.156892
v -0.166215 -0.052006 -0.166254
v 0.290602 -0.052006 -0.177643
v 0.150121 -0.052006 -0.173041
v -0.275186 -0.052006 -0.168693
v -0.173613 -0.052006 -0.186219
v -0.281729 -0.052006 -0.181244
v 0.164625 -0.052006 -0.195998
v 0.296404 -0.052006 -0.208177
v -0.287446 -0.052006 -0.194584
v -0.179016 -0.052006 -0.206754
v -0.292175 -0.052006 -0.208755
v 0.175498 -0.052006 -0.220522
v -0.182330 -0.052006 -0.227795
v 0.298412 -0.052005 -0.241096
v -0.295752 -0.052006 -0.223794
v 0.182326 -0.052005 -0.246705
v -0.298018 -0.052005 -0.239743
v -0.183455 -0.052005 -0.249277
v -0.298809 -0.052005 -0.256640
v 0.294925 -0.052005 -0.284002
v 0.184694 -0.052005 -0.274638
v -0.181592 -0.052005 -0.282243
v -0.296061 -0.052005 -0.296490
v 0.183174 -0.052005 -0.303668
v -0.176184 -0.052005 -0.312775
v 0.284966 -0.052005 -0.323505
v -0.288071 -0.052005 -0.333353
v 0.178737 -0.052005 -0.330576
v -0.167502 -0.052005 -0.340790
v 0.269292 -0.052005 -0.359543
v 0.171567 -0.052005 -0.355286
v -0.275225 -0.052005 -0.367136
v -0.155822 -0.052005 -0.366206
v 0.161848 -0.052005 -0.377720
v 0.248659 -0.052005 -0.392052
v -0.141414 -0.052005 -0.388940
v -0.257903 -0.052005 -0.397749
v 0.149766 -0.052005 -0.397802
v -0.124551 -0.052005 -0.408910
v 0.223821 -0.052005 -0.420971
v -0.236492 -0.052005 -0.425101
v 0.135506 -0.052005 -0.415456
v -0.105508 -0.052005 -0.426035
v 0.119250 -0.052005 -0.430603
v 0.195534 -0.052005 -0.446237
v -0.211373 -0.052005 -0.449100
v -0.084555 -0.052005 -0.440230
v 0.101187 -0.052005 -0.443169
v -0.061966 -0.052005 -0.451414
v 0.081497 -0.052005 -0.453076
v 0.164555 -0.052005 -0.467787
v -0.182931 -0.052005 -0.469657
v -0.038014 -0.052005 -0.459505
v 0.060368 -0.052005 -0.460247
v -0.012970 -0.052005 -0.464420
v 0.037983 -0.052005 -0.464606
v 0.012891 -0.052005 -0.466076
v 0.014527 -0.052005 -0.466076
v 0.131638 -0.052005 -0.485560
v -0.151549 -0.052005 -0.486680
v 0.097540 -0.052005 -0.499491
v -0.117610 -0.052005 -0.500079
v 0.063016 -0.052005 -0.509519
v -0.081499 -0.052005 -0.509762
v 0.028821 -0.052005 -0.515582
v -0.043597 -0.052005 -0.515638
v -0.004289 -0.052005 -0.517617
v -0.027325 0.052006 0.480413
v 0.012891 0.052003 0.482932
v 0.014527 0.052006 0.482932
v 0.048901 0.052006 0.480833
v 0.081507 0.052006 0.474729
v -0.064833 0.052006 0.473138
v 0.112113 0.052006 0.464908
v -0.099484 0.052006 0.461533
v 0.140486 0.052006 0.451662
v -0.131127 0.052006 0.446026
v 0.166394 0.052006 0.435280
v -0.159610 0.052006 0.427042
v -0.004289 0.052006 0.431391
v -0.002653 0.052006 0.431391
v 0.015701 0.052006 0.430192
v 0.189603 0.052006 0.416052
v -0.026639 0.052006 0.429768
v 0.034143 0.052006 0.426566
v -0.047418 0.052006 0.425085
v -0.184785 0.052006 0.405007
v 0.052352 0.052006 0.420474
v -0.066555 0.052006 0.417624
v 0.070007 0.052006 0.411878
v -0.083979 0.052003 0.407666
v 0.209881 0.052006 0.394266
v 0.086788 0.052006 0.400736
v -0.099619 0.052006 0.395492
v -0.206499 0.052006 0.380348
v 0.102372 0.052006 0.387009
v -0.113405 0.052006 0.381384
v 0.226994 0.052006 0.370215
v 0.116440 0.052006 0.370657
v -0.125264 0.052006 0.365623
v -0.224603 0.052006 0.353489
v 0.128669 0.052003 0.351641
v 0.240710 0.052003 0.344186
v -0.135126 0.052003 0.348489
v -0.238946 0.052006 0.324858
v 0.138740 0.052006 0.329920
v -0.142920 0.052003 0.330265
v 0.250795 0.052006 0.316469
v -0.148576 0.052006 0.311231
v 0.146330 0.052006 0.305455
v -0.249377 0.052006 0.294880
v 0.257017 0.052006 0.287355
v -0.152021 0.052006 0.291669
v 0.151120 0.052006 0.278207
v -0.255747 0.052003 0.263983
v -0.153185 0.052006 0.271859
v 0.259143 0.052006 0.257133
v 0.152788 0.052006 0.248134
v -0.151271 0.052003 0.244345
v -0.257903 0.052006 0.232590
v 0.258821 0.052006 0.245343
v 0.151916 0.052006 0.225945
v 0.257870 0.052006 0.233711
v -0.145709 0.052006 0.219319
v 0.256304 0.052006 0.222261
v -0.256620 0.052006 0.206313
v 0.149360 0.052003 0.205134
v 0.254143 0.052006 0.211016
v -0.136772 0.052006 0.196542
v 0.251402 0.052006 0.199999
v -0.252817 0.052003 0.181428
v 0.145208 0.052003 0.185613
v 0.248098 0.052006 0.189231
v -0.124733 0.052006 0.175777
v 0.244249 0.052006 0.178735
v 0.139547 0.052003 0.167293
v -0.246565 0.052006 0.157861
v 0.239871 0.052006 0.168535
v -0.109865 0.052006 0.156784
v 0.234983 0.052006 0.158654
v 0.132466 0.052003 0.150087
v 0.229600 0.052006 0.149112
v -0.237935 0.052006 0.135538
v -0.092440 0.052003 0.139326
v 0.124052 0.052006 0.133906
v 0.223739 0.052003 0.139936
v 0.217419 0.052006 0.131145
v -0.072732 0.052006 0.123162
v -0.226999 0.052006 0.114386
v 0.114394 0.052006 0.118663
v 0.214443 0.052006 0.127507
v 0.210041 0.052006 0.122766
v -0.051013 0.052003 0.108056
v 0.204252 0.052003 0.116981
v 0.103580 0.052006 0.104268
v 0.197117 0.052006 0.110207
v -0.213828 0.052006 0.094329
v 0.188676 0.052006 0.102501
v -0.027554 0.052006 0.093767
v 0.091698 0.052003 0.090635
v 0.178968 0.052006 0.093921
v -0.198491 0.052006 0.075296
v 0.168032 0.052006 0.084522
v -0.002630 0.052006 0.080058
v 0.078836 0.052006 0.077676
v 0.155909 0.052003 0.074362
v 0.023487 0.052003 0.066690
v 0.065082 0.052006 0.065301
v -0.181062 0.052003 0.057211
v 0.142638 0.052006 0.063497
v 0.050524 0.052006 0.053424
v 0.128260 0.052006 0.051985
v -0.161609 0.052006 0.040002
v 0.112814 0.052006 0.039882
v -0.140205 0.052006 0.023593
v 0.096339 0.052006 0.027245
v 0.121968 0.052006 0.012888
v -0.116921 0.052006 0.007912
v 0.147099 0.052006 -0.002461
v -0.091827 0.052006 -0.007116
v 0.171400 0.052006 -0.018940
v -0.106295 0.052006 -0.016048
v -0.120578 0.052006 -0.025194
v 0.194542 0.052006 -0.036689
v -0.134560 0.052003 -0.034459
v -0.046831 0.052006 -0.034932
v -0.148125 0.052006 -0.043749
v -0.066705 0.052003 -0.047977
v -0.018215 0.052006 -0.048616
v 0.216196 0.052006 -0.055847
v -0.161155 0.052003 -0.052971
v -0.085358 0.052003 -0.062115
v 0.010089 0.052006 -0.063141
v -0.173536 0.052006 -0.062032
v 0.236031 0.052006 -0.076553
v -0.185149 0.052006 -0.070836
v -0.102693 0.052006 -0.077282
v 0.037665 0.052006 -0.078599
v -0.195879 0.052006 -0.079292
v 0.253718 0.052006 -0.098946
v -0.118613 0.052006 -0.093411
v 0.064099 0.052003 -0.095078
v -0.205608 0.052006 -0.087304
v -0.214221 0.052006 -0.094779
v -0.133021 0.052003 -0.110439
v -0.221602 0.052006 -0.101623
v 0.088976 0.052006 -0.112671
v 0.268930 0.052006 -0.123167
v -0.227633 0.052006 -0.107744
v -0.235736 0.052006 -0.116392
v -0.145822 0.052006 -0.128299
v 0.111882 0.052006 -0.131469
v -0.243984 0.052006 -0.125591
v 0.281334 0.052003 -0.149352
v -0.252215 0.052006 -0.135380
v -0.156919 0.052006 -0.146925
v 0.132403 0.052006 -0.151562
v -0.260267 0.052006 -0.145801
v -0.267978 0.052006 -0.156892
v -0.166215 0.052006 -0.166254
v 0.290602 0.052006 -0.177643
v 0.150121 0.052006 -0.173041
v -0.275186 0.052006 -0.168693
v -0.173613 0.052006 -0.186219
v -0.281729 0.052003 -0.181244
v 0.164625 0.052003 -0.195998
v 0.296404 0.052006 -0.208177
v -0.287446 0.052006 -0.194584
v -0.179016 0.052006 -0.206754
v -0.292175 0.052006 -0.208755
v 0.175498 0.052006 -0.220522
v -0.182330 0.052006 -0.227795
v 0.298412 0.052006 -0.241096
v -0.295752 0.052006 -0.223794
v 0.182326 0.052006 -0.246705
v -0.298018 0.052006 -0.239743
v -0.183455 0.052003 -0.249277
v -0.298809 0.052006 -0.256640
v 0.294925 0.052006 -0.284002
v 0.184694 0.052006 -0.274638
v -0.181592 0.052006 -0.282243
v -0.296061 0.052006 -0.296490
v 0.183174 0.052006 -0.303668
v -0.176184 0.052006 -0.312775
v 0.284966 0.052006 -0.323505
v -0.288071 0.052006 -0.333353
v 0.178737 0.052006 -0.330576
v -0.167502 0.052006 -0.340790
v 0.269292 0.052006 -0.359543
v 0.171567 0.052006 -0.355286
v -0.275225 0.052006 -0.367136
v -0.155822 0.052006 -0.366206
v 0.161848 0.052006 -0.377720
v 0.248659 0.052006 -0.392052
v -0.141414 0.052003 -0.388940
v -0.257903 0.052007 -0.397749
v 0.149766 0.052007 -0.397802
v -0.124551 0.052007 -0.408910
v 0.223821 0.052007 -0.420971
v -0.236492 0.052007 -0.425101
v 0.135506 0.052007 -0.415456
v -0.105508 0.052007 -0.426035
v 0.119250 0.052007 -0.430603
v 0.195534 0.052007 -0.446237
v -0.211373 0.052007 -0.449100
v -0.084555 0.052007 -0.440230
v 0.101187 0.052007 -0.443169
v -0.061966 0.052003 -0.451414
v 0.081497 0.052007 -0.453076
v 0.164555 0.052003 -0.467787
v -0.182931 0.052007 -0.469657
v -0.038014 0.052007 -0.459505
v 0.060368 0.052007 -0.460247
v -0.012970 0.052007 -0.464420
v 0.037983 0.052007 -0.464606
v 0.012891 0.052007 -0.466076
v 0.014527 0.052007 -0.466076
v 0.131638 0.052007 -0.485559
v -0.151549 0.052007 -0.486680
v 0.097540 0.052007 -0.499491
v -0.117610 0.052007 -0.500079
v 0.063016 0.052007 -0.509519
v -0.081499 0.052007 -0.509762
v 0.028821 0.052003 -0.515582
v -0.043597 0.052007 -0.515638
v -0.004289 0.052007 -0.517617
vn 0.0000 -1.0000 0.0000
vn 0.0000 -1.0000 0.0004
vn -0.0019 0.9995 0.0322
vn 0.0000 1.0000 0.0000
vn 0.0000 1.0000 -0.0003
vn 0.0000 1.0000 0.0002
vn -0.0000 1.0000 -0.0001
vn 0.0000 1.0000 0.0001
vn 0.0001 1.0000 0.0002
vn -0.0000 1.0000 -0.0002
vn -0.0000 1.0000 0.0003
vn 0.0000 1.0000 -0.0005
vn -0.0000 1.0000 0.0007
vn 0.0001 1.0000 0.0010
vn 0.6086 0.0000 -0.7935
vn 0.6168 0.0000 -0.7871
vn 0.2198 0.0000 -0.9755
vn 0.6885 0.0000 -0.7252
vn 0.9586 0.0000 -0.2848
vn 0.8468 0.0000 0.5318
vn 0.6687 0.0000 0.7436
vn 0.8443 0.0000 -0.5359
vn 0.9878 0.0000 -0.1556
vn 0.9967 0.0000 -0.0815
vn -0.6688 0.0000 0.7434
vn 0.7078 0.0000 0.7064
vn 0.8709 0.0000 -0.4914
vn -0.9781 0.0000 0.2081
vn 0.6380 0.0000 0.7701
vn -0.1929 0.0000 -0.9812
vn -0.9901 0.0000 0.1406
vn -0.7654 0.0000 0.6435
vn -0.7779 0.0000 0.6284
vn -0.5858 0.0000 -0.8105
vn -0.9142 0.0000 -0.4053
vn 0.2789 0.0000 -0.9603
vn 0.6585 0.0000 -0.7526
vn -0.4566 0.0000 -0.8897
vn -0.8883 0.0000 -0.4593
vn -0.5253 0.0000 0.8509
vn 0.0000 0.0000 1.0000
vn -0.8941 0.0000 0.4479
vn -0.0625 0.0000 0.9980
vn 0.3200 0.0000 0.9474
vn 0.4887 0.0000 0.8724
vn 0.6742 0.0000 -0.7386
vn 0.9848 0.0000 -0.1735
vn 0.9037 0.0000 0.4281
vn 0.6142 0.0000 -0.7891
vn 0.7586 0.0000 -0.6515
vn 0.8128 0.0000 -0.5826
vn 0.9847 0.0000 0.1744
vn 0.9996 0.0000 -0.0272
vn -0.7098 0.0000 0.7044
vn 0.8963 0.0000 -0.4434
vn 0.6341 0.0000 0.7732
vn 0.5344 0.0000 0.8452
vn -0.9925 0.0000 0.1219
vn -0.3173 0.0000 -0.9483
vn -0.9989 0.0000 0.0468
vn -0.9986 0.0000 0.0523
vn -0.7913 0.0000 0.6114
vn -0.4495 0.0000 0.8933
vn -0.4768 0.0000 -0.8790
vn -0.5774 0.0000 -0.8165
vn 0.3782 0.0000 -0.9257
vn -0.5138 0.0000 -0.8579
vn -0.6190 0.0000 0.7854
vn -0.9327 0.0000 -0.3606
vn -0.8292 0.0000 0.5589
vn 0.6250 0.0000 -0.7806
vn 0.6335 -0.0000 -0.7738
vn 0.7328 0.0000 -0.6805
vn 0.8667 0.0000 -0.4989
vn 0.7221 0.0000 0.6917
vn 0.8447 0.0000 0.5353
vn 0.9697 0.0000 -0.2444
vn 0.9377 0.0000 -0.3475
vn 0.9975 0.0000 0.0702
vn 0.4405 0.0000 0.8978
vn 0.9189 0.0000 -0.3944
vn 0.8651 0.0000 0.5015
vn 0.4230 0.0000 0.9061
vn -0.9247 0.0000 0.3806
vn -0.4378 0.0000 -0.8991
vn -0.9072 0.0000 -0.4206
vn -0.9486 0.0000 0.3165
vn -0.0626 0.0000 0.9980
vn -0.7297 0.0000 0.6837
vn -0.9176 0.0000 0.3975
vn -0.7874 0.0000 -0.6164
vn -0.7714 0.0000 -0.6364
vn 0.0613 0.0000 -0.9981
vn -0.5586 0.0000 -0.8294
vn 0.5487 0.0000 -0.8360
vn -0.6042 0.0000 0.7969
vn -0.9666 0.0000 -0.2564
vn -0.7505 0.0000 0.6609
vn 0.0639 0.0000 0.9980
vn 0.5612 0.0000 0.8277
vn 0.6518 0.0000 -0.7584
vn 0.6423 0.0000 -0.7664
vn 0.6622 0.0000 -0.7493
vn 0.9824 0.0000 0.1867
vn 0.7991 0.0000 -0.6012
vn 0.9012 0.0000 -0.4334
vn 0.9086 0.0000 0.4176
vn 0.5711 0.0000 -0.8209
vn 0.5202 0.0000 0.8540
vn 0.9908 0.0000 -0.1355
vn 0.9976 0.0000 0.0694
vn 0.8428 0.0000 -0.5382
vn -0.7995 0.0000 0.6007
vn -0.9985 0.0000 -0.0554
vn 0.7320 0.0000 0.6813
vn -0.0652 0.0000 -0.9979
vn -0.8534 0.0000 0.5212
vn -0.9604 0.0000 0.2787
vn -0.1911 0.0000 0.9816
vn -0.6555 0.0000 0.7552
vn -0.9773 0.0000 -0.2118
vn -0.6996 0.0000 -0.7145
vn -0.2590 0.0000 -0.9659
vn 0.6041 0.0000 -0.7969
vn -0.8359 0.0000 -0.5489
vn -0.5392 0.0000 0.8422
vn -0.9445 0.0000 0.3286
vn -0.1904 0.0000 0.9817
vn 0.1926 0.0000 0.9813
vn 0.6086 0.0000 0.7935
vn 0.9981 0.0000 0.0609
vn 0.7152 0.0000 -0.6989
vn 0.8591 0.0000 -0.5118
vn 0.9552 0.0000 0.2960
vn 0.4751 0.0000 -0.8799
vn 0.9397 0.0000 0.3419
vn 0.9560 0.0000 -0.2933
vn 0.9762 0.0000 0.2169
vn 0.4819 0.0000 0.8762
vn -0.8447 0.0000 0.5352
vn 0.1840 0.0000 0.9829
vn -0.6610 0.0000 -0.7504
vn -0.8867 0.0000 0.4623
vn -0.7581 0.0000 -0.6522
vn -0.9849 0.0000 -0.1731
vn -0.9867 0.0000 0.1627
vn -0.3214 0.0000 0.9469
vn -0.6800 0.0000 0.7332
vn -0.9347 0.0000 -0.3554
vn -0.6344 0.0000 -0.7730
vn -0.1532 0.0000 -0.9882
vn -0.6626 0.0000 -0.7490
vn -0.5777 0.0000 0.8162
vn -0.9988 0.0000 -0.0488
vn -0.5546 0.0000 0.8321
vn 0.0725 0.0000 -0.9974
vn 0.6626 0.0000 0.7490
vn 0.9194 0.0000 -0.3932
vn 0.9967 0.0000 -0.0810
vn 0.7641 0.0000 0.6452
vn 0.9671 0.0000 -0.2545
vn 0.9704 0.0000 -0.2415
vn 0.9309 0.0000 0.3653
vn 0.4556 0.0000 0.8902
vn 0.7740 0.0000 -0.6332
vn -0.8872 0.0000 0.4613
vn 0.8847 0.0000 0.4662
vn 0.0609 0.0000 0.9981
vn -0.9192 0.0000 0.3939
vn -0.9551 0.0000 -0.2963
vn -0.8569 0.0000 0.5155
vn -0.7123 0.0000 0.7019
vn -0.8454 0.0000 -0.5341
vn -0.8703 0.0000 -0.4925
vn -0.0503 0.0000 -0.9987
vn -0.4314 0.0000 -0.9021
vn -0.7200 0.0000 -0.6939
vn -0.5650 0.0000 0.8251
vn -0.9976 0.0000 0.0685
vn -0.4401 0.0000 0.8980
vn 0.4437 0.0000 0.8962
vn 0.5212 0.0000 0.8534
vn 0.4962 0.0000 -0.8682
vn 0.9984 0.0000 0.0564
vn 0.9503 0.0000 0.3113
vn 0.0000 0.0000 -1.0000
vn 0.6662 0.0000 -0.7458
vn 0.7634 0.0000 -0.6460
vn 0.5710 0.0000 0.8210
vn 0.9820 0.0000 -0.1887
vn 0.9983 0.0000 -0.0587
vn 0.8119 0.0000 -0.5837
vn -0.7539 0.0000 0.6570
vn -0.9992 0.0000 0.0393
vn 0.8148 0.0000 0.5797
vn -0.5710 0.0000 0.8209
vn -0.8210 0.0000 0.5709
vn -0.9964 0.0000 -0.0845
vn -0.6357 0.0000 0.7720
vn -0.9976 0.0000 -0.0688
vn -0.3672 0.0000 -0.9301
vn -0.7787 0.0000 -0.6274
vn -0.5290 0.0000 -0.8486
vn -0.5524 0.0000 0.8336
vn -0.9794 0.0000 0.2019
vn -0.3176 0.0000 0.9482
vn 0.3632 0.0000 -0.9317
vn 0.7069 0.0000 -0.7073
vn 0.7847 0.0000 0.6198
vn 0.9170 0.0000 -0.3988
vn 0.5609 0.0000 0.8279
vn 0.9986 0.0000 -0.0523
vn 0.9779 0.0000 0.2090
vn 0.9389 0.0000 -0.3443
vn -0.6322 0.0000 0.7748
vn 0.7874 0.0000 0.6164
vn 0.3055 0.0000 0.9522
vn -0.9554 0.0000 0.2952
vn -0.5532 0.0000 -0.8331
vn -0.9729 0.0000 0.2314
vn -0.8411 0.0000 -0.5409
vn -0.7445 0.0000 0.6676
vn -0.6908 0.0000 -0.7230
vn -0.6817 0.0000 0.7316
vn -0.9676 0.0000 -0.2523
vn 0.1746 0.0000 -0.9846
vn -0.6084 0.0000 -0.7936
vn 0.7117 0.0000 -0.7025
vn -0.4890 0.0000 -0.8723
vn -0.5906 0.0000 0.8070
vn -0.9885 0.0000 -0.1511
vn -0.6586 0.0000 0.7525
usemtl N08
s 1
f 1//1 2//1 3//1
f 1//1 4//1 2//1
f 1//1 5//1 4//1
f 6//1 5//1 1//1
f 6//1 7//1 5//1
f 8//1 7//1 6//1
f 8//1 9//1 7//1
f 10//1 9//1 8//1
f 10//1 11//1 9//1
f 12//1 13//1 10//1
f 13//1 11//1 10//1
f 13//1 14//1 11//1
f 14//1 15//1 11//1
f 15//1 16//1 11//1
f 12//1 17//1 13//1
f 18//1 16//1 15//1
f 12//1 19//1 17//1
f 20//1 19//1 12//1
f 21//1 16//1 18//1
f 20//1 22//1 19//1
f 23//1 16//1 21//1
f 20//1 24//1 22//1
f 23//1 25//1 16//1
f 26//1 25//1 23//1
f 20//1 27//1 24//1
f 28//1 27//1 20//1
f 29//1 25//1 26//1
f 28//1 30//1 27//1
f 29//1 31//1 25//1
f 32//1 31//1 29//1
f 28//1 33//1 30//1
f 34//1 33//1 28//1
f 35//1 31//1 32//1
f 35//1 36//1 31//1
f 34//1 37//1 33//1
f 38//1 37//1 34//1
f 39//1 36//1 35//1
f 38//1 40//1 37//1
f 39//1 41//1 36//1
f 38//1 42//1 40//1
f 43//1 41//1 39//1
f 44//1 42//1 38//1
f 43//1 45//1 41//1
f 44//1 46//1 42//1
f 47//1 45//1 43//1
f 48//1 46//1 44//1
f 48//1 49//1 46//1
f 47//1 50//1 45//1
f 51//1 50//1 47//1
f 48//1 52//1 49//1
f 53//1 52//1 48//1
f 51//1 54//1 50//1
f 55//1 54//1 51//1
f 55//1 56//1 54//1
f 53//1 57//1 52//1
f 55//1 58//1 56//1
f 59//1 57//1 53//1
f 60//1 58//1 55//1
f 60//1 61//1 58//1
f 59//1 62//1 57//1
f 60//1 63//1 61//1
f 64//1 62//1 59//1
f 65//1 63//1 60//1
f 65//1 66//1 63//1
f 64//1 67//1 62//1
f 65//1 68//1 66//1
f 69//1 68//1 65//1
f 70//1 67//1 64//1
f 69//1 71//1 68//1
f 70//1 72//1 67//1
f 69//1 73//1 71//1
f 74//1 73//1 69//1
f 74//1 75//1 73//1
f 76//1 72//1 70//1
f 76//1 77//1 72//1
f 78//1 75//1 74//1
f 78//1 79//1 75//1
f 78//1 80//1 79//1
f 76//1 81//1 77//1
f 82//1 81//1 76//1
f 83//1 80//1 78//1
f 83//1 84//1 80//1
f 83//1 85//1 84//1
f 82//1 86//1 81//1
f 83//1 87//1 85//1
f 88//1 87//1 83//1
f 88//1 89//1 87//1
f 90//1 86//1 82//1
f 88//1 91//1 89//1
f 90//1 92//1 86//1
f 93//1 91//1 88//1
f 93//1 94//1 91//1
f 95//1 92//1 90//1
f 93//1 96//1 94//1
f 95//1 97//1 92//1
f 98//1 96//1 93//1
f 98//1 99//1 96//1
f 95//1 100//1 97//1
f 101//1 99//1 98//1
f 102//1 100//1 95//1
f 101//1 103//1 99//1
f 102//1 104//1 100//1
f 104//1 103//1 101//1
f 104//1 105//1 103//1
f 106//1 104//1 102//1
f 106//1 105//1 104//1
f 106//1 107//1 105//1
f 108//1 107//1 106//1
f 108//1 109//1 107//1
f 108//1 110//1 109//1
f 111//1 110//1 108//1
f 111//1 112//1 110//1
f 113//1 112//1 111//1
f 113//1 114//1 112//1
f 115//1 114//1 113//1
f 116//1 114//1 115//1
f 116//1 117//1 114//1
f 118//1 119//1 116//1
f 119//1 117//1 116//1
f 120//1 119//1 118//1
f 120//1 121//1 119//1
f 122//1 117//1 119//1
f 122//1 123//1 117//1
f 124//1 121//1 120//1
f 124//1 125//1 121//1
f 126//1 123//1 122//1
f 127//1 125//1 124//1
f 126//1 128//1 123//1
f 129//1 125//1 127//1
f 129//1 130//1 125//1
f 131//1 128//1 126//1
f 132//1 130//1 129//1
f 131//1 133//1 128//1
f 132//1 134//1 130//1
f 135//1 133//1 131//1
f 136//1 134//1 132//1
f 137//1 134//1 136//1
f 137//1 138//1 134//1
f 139//1 138//1 137//1
f 140//1 133//1 135//1
f 140//1 141//1 133//1
f 142//1 138//1 139//1
f 143//1 138//1 142//1
f 143//1 144//1 138//1
f 145//1 141//1 140//1
f 146//1 144//1 143//1
f 145//1 147//1 141//1
f 148//1 144//1 146//1
f 148//1 149//1 144//1
f 150//1 147//1 145//1
f 151//1 149//1 148//1
f 152//1 149//1 151//1
f 152//1 153//1 149//1
f 150//1 154//1 147//1
f 155//1 154//1 150//1
f 156//1 153//1 152//1
f 156//1 157//1 153//1
f 158//1 157//1 156//1
f 159//1 154//1 155//1
f 159//1 160//1 154//1
f 161//1 157//1 158//1
f 161//1 162//1 157//1
f 163//1 162//1 161//1
f 164//1 160//1 159//1
f 163//1 165//1 162//1
f 164//1 166//1 160//1
f 167//1 165//1 163//1
f 168//1 166//1 164//1
f 169//1 165//1 167//1
f 169//1 170//1 165//1
f 171//1 170//1 169//1
f 168//1 172//1 166//1
f 173//1 172//1 168//1
f 171//1 174//1 170//1
f 175//1 174//1 171//1
f 176//1 172//1 173//1
f 175//1 177//1 174//1
f 176//1 178//1 172//1
f 179//1 177//1 175//1
f 180//1 178//1 176//1
f 179//1 181//1 177//1
f 180//1 182//1 178//1
f 183//1 182//1 180//1
f 184//1 181//1 179//1
f 184//1 185//1 181//1
f 186//1 182//1 183//1
f 186//1 187//1 182//1
f 184//1 188//1 185//1
f 189//1 188//1 184//1
f 190//1 187//1 186//1
f 189//1 191//1 188//1
f 190//1 192//1 187//1
f 193//1 191//1 189//1
f 194//1 192//1 190//1
f 193//1 195//1 191//1
f 196//1 192//1 194//1
f 196//1 197//1 192//1
f 198//1 195//1 193//1
f 198//1 199//1 195//1
f 200//1 197//1 196//1
f 198//1 201//1 199//1
f 202//1 197//1 200//1
f 202//1 203//1 197//1
f 204//1 201//1 198//1
f 204//1 205//1 201//1
f 206//1 203//1 202//1
f 204//1 207//1 205//1
f 208//1 203//1 206//1
f 204//1 209//2 207//1
f 210//1 203//1 208//1
f 204//1 210//1 209//2
f 204//1 203//1 210//1
f 204//1 211//1 203//1
f 212//1 211//1 204//1
f 212//1 213//1 211//1
f 214//1 213//1 212//1
f 214//1 215//1 213//1
f 216//1 215//1 214//1
f 216//1 217//1 215//1
f 218//1 217//1 216//1
f 218//1 219//1 217//1
f 220//3 221//3 222//3
f 220//4 222//4 223//4
f 220//4 223//4 224//4
f 225//4 220//4 224//4
f 225//4 224//4 226//4
f 227//4 225//4 226//4
f 227//4 226//4 228//4
f 229//4 227//4 228//4
f 229//4 228//4 230//4
f 231//4 229//4 232//4
f 232//4 229//4 230//4
f 232//4 230//4 233//4
f 233//4 230//4 234//4
f 234//4 230//4 235//4
f 231//4 232//4 236//4
f 237//4 234//4 235//4
f 231//4 236//4 238//4
f 239//4 231//4 238//4
f 240//4 237//4 235//4
f 239//4 238//4 241//4
f 242//4 240//4 235//4
f 239//4 241//4 243//5
f 242//4 235//4 244//4
f 245//4 242//4 244//4
f 239//4 243//5 246//6
f 247//4 239//4 246//6
f 248//4 245//4 244//4
f 247//4 246//6 249//4
f 248//4 244//4 250//7
f 251//4 248//4 250//7
f 247//4 249//4 252//7
f 253//4 247//4 252//7
f 254//7 251//4 250//7
f 254//7 250//7 255//4
f 253//4 252//7 256//7
f 257//4 253//4 256//7
f 258//8 254//7 255//4
f 257//4 256//7 259//8
f 258//8 255//4 260//4
f 257//4 259//8 261//8
f 262//4 258//8 260//4
f 263//7 257//4 261//8
f 262//4 260//4 264//4
f 263//7 261//8 265//4
f 266//4 262//4 264//4
f 267//4 263//7 265//4
f 267//4 265//4 268//7
f 266//4 264//4 269//4
f 270//4 266//4 269//4
f 267//4 268//7 271//4
f 272//8 267//4 271//4
f 270//4 269//4 273//4
f 274//7 270//4 273//4
f 274//7 273//4 275//4
f 272//8 271//4 276//4
f 274//7 275//4 277//4
f 278//7 272//8 276//4
f 279//7 274//7 277//4
f 279//7 277//4 280//4
f 278//7 276//4 281//4
f 279//7 280//4 282//4
f 283//4 278//7 281//4
f 284//4 279//7 282//4
f 284//4 282//4 285//4
f 283//4 281//4 286//4
f 284//4 285//4 287//4
f 288//4 284//4 287//4
f 289//8 283//4 286//4
f 288//4 287//4 290//4
f 289//8 286//4 291//7
f 288//4 290//4 292//4
f 293//8 288//4 292//4
f 293//8 292//4 294//7
f 295//4 289//8 291//7
f 295//4 291//7 296//8
f 297//8 293//8 294//7
f 297//8 294//7 298//9
f 297//8 298//9 299//6
f 295//4 296//8 300//7
f 301//4 295//4 300//7
f 302//4 297//8 299//6
f 302//4 299//6 303//4
f 302//4 303//4 304//7
f 301//4 300//7 305//10
f 302//4 304//7 306//11
f 307//10 302//4 306//11
f 307//10 306//11 308//8
f 309//4 301//4 305//10
f 307//10 308//8 310//4
f 309//4 305//10 311//4
f 312//8 307//10 310//4
f 312//8 310//4 313//4
f 314//4 309//4 311//4
f 312//8 313//4 315//4
f 314//4 311//4 316//10
f 317//4 312//8 315//4
f 317//4 315//4 318//8
f 314//4 316//10 319//10
f 320//4 317//4 318//8
f 321//7 314//4 319//10
f 320//4 318//8 322//7
f 321//7 319//10 323//4
f 323//4 320//4 322//7
f 323//4 322//7 324//4
f 325//8 321//7 323//4
f 325//8 323//4 324//4
f 325//8 324//4 326//4
f 327//4 325//8 326//4
f 327//4 326//4 328//4
f 327//4 328//4 329//4
f 330//4 327//4 329//4
f 330//4 329//4 331//4
f 332//4 330//4 331//4
f 332//4 331//4 333//4
f 334//4 332//4 333//4
f 335//10 334//4 333//4
f 335//10 333//4 336//4
f 337//7 335//10 338//4
f 338//4 335//10 336//4
f 339//8 337//7 338//4
f 339//8 338//4 340//10
f 341//4 338//4 336//4
f 341//4 336//4 342//4
f 343//10 339//8 340//10
f 343//10 340//10 344//4
f 345//4 341//4 342//4
f 346//4 343//10 344//4
f 345//4 342//4 347//4
f 348//4 346//4 344//4
f 348//4 344//4 349//8
f 350//4 345//4 347//4
f 351//4 348//4 349//8
f 350//4 347//4 352//4
f 351//4 349//8 353//4
f 354//10 350//4 352//4
f 355//4 351//4 353//4
f 356//4 355//4 353//4
f 356//4 353//4 357//7
f 358//4 356//4 357//7
f 359//8 354//10 352//4
f 359//8 352//4 360//7
f 361//4 358//4 357//7
f 362//4 361//4 357//7
f 362//4 357//7 363//8
f 364//4 359//8 360//7
f 365//4 362//4 363//8
f 364//4 360//7 366//4
f 367//4 365//4 363//8
f 367//4 363//8 368//4
f 369//4 364//4 366//4
f 370//4 367//4 368//4
f 371//4 370//4 368//4
f 371//4 368//4 372//4
f 369//4 366//4 373//4
f 374//4 369//4 373//4
f 375//7 371//4 372//4
f 375//7 372//4 376//4
f 377//8 375//7 376//4
f 378//4 374//4 373//4
f 378//4 373//4 379//4
f 380//8 377//8 376//4
f 380//8 376//4 381//4
f 382//4 380//8 381//4
f 383//8 378//4 379//4
f 382//4 381//4 384//7
f 383//8 379//4 385//4
f 386//4 382//4 384//7
f 387//4 383//8 385//4
f 388//4 386//4 384//7
f 388//4 384//7 389//4
f 390//4 388//4 389//4
f 387//4 385//4 391//4
f 392//4 387//4 391//4
f 390//4 389//4 393//4
f 394//4 390//4 393//4
f 395//4 392//4 391//4
f 394//4 393//4 396//4
f 395//4 391//4 397//4
f 398//4 394//4 396//4
f 399//4 395//4 397//4
f 398//4 396//4 400//4
f 399//4 397//4 401//4
f 402//4 399//4 401//4
f 403//4 398//4 400//4
f 403//4 400//4 404//7
f 405//4 402//4 401//4
f 405//4 401//4 406//4
f 403//4 404//7 407//8
f 408//4 403//4 407//8
f 409//4 405//4 406//4
f 408//4 407//8 410//4
f 409//4 406//4 411//4
f 412//4 408//4 410//4
f 413//4 409//4 411//4
f 412//4 410//4 414//4
f 415//4 413//4 411//4
f 415//4 411//4 416//4
f 417//4 412//4 414//4
f 417//4 414//4 418//8
f 419//4 415//4 416//4
f 417//4 418//8 420//10
f 421//7 419//4 416//4
f 421//7 416//4 422//7
f 423//4 417//4 420//10
f 423//4 420//10 424//4
f 425//7 421//7 422//7
f 423//4 424//4 426//4
f 427//5 425//7 422//7
f 423//4 426//4 428//4
f 429//12 427//5 422//7
f 423//4 428//4 429//12
f 423//4 429//12 422//7
f 423//4 422//7 430//6
f 431//4 423//4 430//6
f 431//4 430//6 432//4
f 433//4 431//4 432//4
f 433//4 432//4 434//4
f 435//4 433//4 434//4
f 435//4 434//4 436//11
f 437//13 435//4 436//11
f 437//13 436//11 438//14
f 107//15 109//15 328//15
f 328//15 326//16 107//15
f 17//17 19//17 238//17
f 238//17 236//17 17//17
f 87//18 89//18 308//18
f 308//18 306//18 87//18
f 40//19 42//19 261//19
f 261//19 259//19 40//19
f 133//20 141//20 360//20
f 360//20 352//20 133//20
f 191//21 195//21 414//21
f 414//21 410//21 191//21
f 182//22 187//22 406//22
f 406//22 401//22 182//22
f 162//23 165//23 384//23
f 384//23 381//23 162//23
f 54//24 56//24 275//24
f 275//24 273//24 54//24
f 101//25 98//25 317//25
f 317//25 320//25 101//25
f 72//26 77//26 296//26
f 296//26 291//26 72//26
f 73//27 75//27 294//27
f 294//27 292//27 73//27
f 65//28 60//28 279//28
f 279//28 284//28 65//28
f 11//29 16//29 235//29
f 235//29 230//29 11//29
f 18//30 15//30 234//30
f 234//30 237//30 18//30
f 169//31 167//31 386//31
f 386//31 388//31 169//31
f 148//32 146//32 365//32
f 365//32 367//32 148//32
f 194//33 190//33 409//33
f 409//33 413//33 194//33
f 204//34 198//34 417//34
f 417//34 423//34 204//34
f 164//35 159//35 378//35
f 378//35 383//35 164//35
f 213//36 215//36 434//36
f 434//36 432//36 213//36
f 125//37 130//37 349//37
f 349//37 344//37 125//37
f 126//38 122//38 341//38
f 341//38 345//38 126//38
f 82//39 76//39 295//39
f 295//39 301//39 82//39
f 115//40 113//40 332//40
f 332//40 334//40 115//40
f 209//41 210//41 429//41
f 429//41 428//41 209//41
f 38//42 34//42 253//42
f 253//42 257//42 38//42
f 1//43 3//43 221//43
f 221//43 220//43 1//43
f 201//44 205//44 424//44
f 424//44 420//44 201//44
f 109//45 110//45 329//45
f 329//45 328//45 109//45
f 89//46 91//46 310//46
f 310//46 308//46 89//46
f 42//47 46//47 265//47
f 265//47 261//47 42//47
f 141//48 147//48 366//48
f 366//48 360//48 141//48
f 24//49 27//49 246//49
f 246//49 243//49 24//49
f 187//50 192//50 411//50
f 411//50 406//50 187//50
f 138//51 144//51 363//51
f 363//51 357//51 138//51
f 174//52 177//52 396//52
f 396//52 393//52 174//52
f 50//53 54//53 273//53
f 273//53 269//53 50//53
f 98//54 93//54 312//54
f 312//54 317//54 98//54
f 71//55 73//55 292//55
f 292//55 290//55 71//55
f 77//56 81//56 300//56
f 300//56 296//56 77//56
f 9//57 11//57 230//57
f 230//57 228//57 9//57
f 60//58 55//58 274//58
f 274//58 279//58 60//58
f 21//59 18//59 237//59
f 237//59 240//59 21//59
f 171//60 169//60 388//60
f 388//60 390//60 171//60
f 176//61 173//61 392//61
f 392//61 395//61 176//61
f 151//62 148//62 367//62
f 367//62 370//62 151//62
f 202//63 200//63 419//63
f 419//63 421//63 202//63
f 212//64 204//64 423//64
f 423//64 431//64 212//64
f 140//65 135//65 354//65
f 354//65 359//65 140//65
f 211//66 213//66 432//66
f 432//66 430//66 211//66
f 113//67 111//67 330//67
f 330//67 332//67 113//67
f 132//68 129//68 348//68
f 348//68 351//68 132//68
f 76//69 70//69 289//69
f 289//69 295//69 76//69
f 34//70 28//70 247//70
f 247//70 253//70 34//70
f 103//71 105//16 324//71
f 324//71 322//72 103//71
f 84//73 85//73 304//73
f 304//73 303//73 84//73
f 33//74 37//74 256//74
f 256//74 252//74 33//74
f 123//75 128//75 347//75
f 347//75 342//75 123//75
f 185//76 188//76 407//76
f 407//76 404//76 185//76
f 172//77 178//77 397//77
f 397//77 391//77 172//77
f 153//78 157//78 376//78
f 376//78 372//78 153//78
f 45//79 50//79 269//79
f 269//79 264//79 45//79
f 100//80 104//80 323//80
f 323//80 319//80 100//80
f 68//81 71//81 290//81
f 290//81 287//81 68//81
f 62//82 67//82 286//82
f 286//82 281//82 62//82
f 7//83 9//83 228//83
f 228//83 226//83 7//83
f 74//84 69//84 288//84
f 288//84 293//84 74//84
f 23//85 21//85 240//85
f 240//85 242//85 23//85
f 39//86 35//86 254//86
f 254//86 258//86 39//86
f 163//87 161//87 380//87
f 380//87 382//87 163//87
f 210//88 208//88 427//88
f 427//88 429//88 210//88
f 143//89 142//89 361//89
f 361//89 362//89 143//89
f 186//90 183//90 402//90
f 402//90 405//90 186//90
f 193//91 189//91 408//91
f 408//91 412//91 193//91
f 155//92 150//92 369//92
f 369//92 374//92 155//92
f 217//93 219//93 438//93
f 438//93 436//93 217//93
f 111//94 108//94 327//94
f 327//94 330//94 111//94
f 119//95 121//95 340//95
f 340//95 338//95 119//95
f 129//96 127//96 346//96
f 346//96 348//96 129//96
f 70//97 64//97 283//97
f 283//97 289//97 70//97
f 28//98 20//98 239//98
f 239//98 247//98 28//98
f 207//99 209//99 428//99
f 428//99 426//99 207//99
f 112//100 114//100 333//100
f 333//100 331//100 112//100
f 94//101 96//102 315//101
f 315//101 313//103 94//101
f 154//104 160//104 379//104
f 379//104 373//104 154//104
f 30//105 33//105 252//105
f 252//105 249//105 30//105
f 149//106 153//106 372//106
f 372//106 368//106 149//106
f 181//107 185//107 404//107
f 404//107 400//107 181//107
f 197//108 203//108 422//108
f 422//108 416//108 197//108
f 86//109 92//109 311//109
f 311//109 305//109 86//109
f 56//110 58//110 277//110
f 277//110 275//110 56//110
f 49//111 52//111 271//111
f 271//111 268//111 49//111
f 75//112 79//112 298//112
f 298//112 294//112 75//112
f 88//113 83//113 302//113
f 302//113 307//113 88//113
f 51//114 47//114 266//114
f 266//114 270//114 51//114
f 16//115 25//115 244//115
f 244//115 235//115 16//115
f 15//116 14//116 233//116
f 233//116 234//116 15//116
f 156//117 152//117 371//117
f 371//117 375//117 156//117
f 183//118 180//118 399//118
f 399//118 402//118 183//118
f 208//119 206//119 425//119
f 425//119 427//119 208//119
f 137//120 136//120 355//120
f 355//120 356//120 137//120
f 179//121 175//121 394//121
f 394//121 398//121 179//121
f 150//122 145//122 364//122
f 364//122 369//122 150//122
f 216//123 214//123 433//123
f 433//123 435//123 216//123
f 121//124 125//124 344//124
f 344//124 340//124 121//124
f 90//125 82//125 301//125
f 301//125 309//125 90//125
f 116//126 115//126 334//126
f 334//126 335//126 116//126
f 3//41 2//41 222//41
f 222//41 221//41 3//41
f 44//127 38//127 257//127
f 257//127 263//127 44//127
f 6//128 1//128 220//128
f 220//128 225//128 6//128
f 205//129 207//129 426//129
f 426//129 424//129 205//129
f 114//130 117//130 336//130
f 336//130 333//130 114//130
f 96//102 99//72 318//102
f 318//102 315//101 96//102
f 160//131 166//131 385//131
f 385//131 379//131 160//131
f 27//132 30//132 249//132
f 249//132 246//132 27//132
f 144//133 149//133 368//133
f 368//133 363//133 144//133
f 177//134 181//134 400//134
f 400//134 396//134 177//134
f 203//135 211//135 430//135
f 430//135 422//135 203//135
f 36//136 41//136 260//136
f 260//136 255//136 36//136
f 63//137 66//137 285//137
f 285//137 282//137 63//137
f 52//138 57//138 276//138
f 276//138 271//138 52//138
f 92//139 97//139 316//139
f 316//139 311//139 92//139
f 83//140 78//140 297//140
f 297//140 302//140 83//140
f 4//141 5//141 224//141
f 224//141 223//141 4//141
f 29//142 26//142 245//142
f 245//142 248//142 29//142
f 158//143 156//143 375//143
f 375//143 377//143 158//143
f 32//144 29//144 248//144
f 248//144 251//144 32//144
f 47//145 43//145 262//145
f 262//145 266//145 47//145
f 180//146 176//146 395//146
f 395//146 399//146 180//146
f 206//147 202//147 421//147
f 421//147 425//147 206//147
f 139//148 137//148 356//148
f 356//148 358//148 139//148
f 184//149 179//149 398//149
f 398//149 403//149 184//149
f 145//150 140//150 359//150
f 359//150 364//150 145//150
f 218//151 216//151 435//151
f 435//151 437//151 218//151
f 106//152 102//152 321//152
f 321//152 325//152 106//152
f 124//153 120//153 339//153
f 339//153 343//153 124//153
f 59//154 53//154 272//154
f 272//154 278//154 59//154
f 12//155 10//155 229//155
f 229//155 231//155 12//155
f 13//156 17//156 236//156
f 236//156 232//156 13//156
f 117//157 123//157 342//157
f 342//157 336//157 117//157
f 99//72 103//71 322//72
f 322//72 318//102 99//72
f 37//158 40//158 259//158
f 259//158 256//158 37//158
f 166//159 172//159 391//159
f 391//159 385//159 166//159
f 188//160 191//160 410//160
f 410//160 407//160 188//160
f 157//161 162//161 381//161
f 381//161 376//161 157//161
f 61//162 63//162 282//162
f 282//162 280//162 61//162
f 57//163 62//163 281//163
f 281//163 276//163 57//163
f 97//164 100//164 319//164
f 319//164 316//164 97//164
f 80//165 84//165 303//165
f 303//165 299//165 80//165
f 78//166 74//166 293//166
f 293//166 297//166 78//166
f 31//167 36//167 255//167
f 255//167 250//167 31//167
f 2//168 4//168 223//168
f 223//168 222//168 2//168
f 161//169 158//169 377//169
f 377//169 380//169 161//169
f 43//170 39//170 258//170
f 258//170 262//170 43//170
f 190//171 186//171 405//171
f 405//171 409//171 190//171
f 142//172 139//172 358//172
f 358//172 361//172 142//172
f 159//173 155//173 374//173
f 374//173 378//173 159//173
f 189//174 184//174 403//174
f 403//174 408//174 189//174
f 219//175 218//175 437//175
f 437//175 438//175 219//175
f 122//176 119//176 338//176
f 338//176 341//176 122//176
f 102//177 95//177 314//177
f 314//177 321//177 102//177
f 120//178 118//178 337//178
f 337//178 339//178 120//178
f 53//179 48//179 267//179
f 267//179 272//179 53//179
f 10//180 8//180 227//180
f 227//180 229//180 10//180
f 199//181 201//181 420//181
f 420//181 418//181 199//181
f 110//182 112//182 331//182
f 331//182 329//182 110//182
f 91//103 94//101 313//103
f 313//103 310//103 91//103
f 22//183 24//183 243//183
f 243//183 241//183 22//183
f 170//184 174//184 393//184
f 393//184 389//184 170//184
f 147//185 154//185 373//185
f 373//185 366//185 147//185
f 14//186 13//186 232//186
f 232//186 233//186 14//186
f 192//187 197//187 416//187
f 416//187 411//187 192//187
f 134//188 138//188 357//188
f 357//188 353//188 134//188
f 81//189 86//189 305//189
f 305//189 300//189 81//189
f 58//190 61//190 280//190
f 280//190 277//190 58//190
f 46//191 49//191 268//191
f 268//191 265//191 46//191
f 79//192 80//192 299//192
f 299//192 298//192 79//192
f 93//193 88//193 307//193
f 307//193 312//193 93//193
f 55//194 51//194 270//194
f 270//194 274//194 55//194
f 25//195 31//195 250//195
f 250//195 244//195 25//195
f 200//196 196//196 415//196
f 415//196 419//196 200//196
f 152//197 151//197 370//197
f 370//197 371//197 152//197
f 173//198 168//198 387//198
f 387//198 392//198 173//198
f 136//199 132//199 351//199
f 351//199 355//199 136//199
f 175//200 171//200 390//200
f 390//200 394//200 175//200
f 214//201 212//201 431//201
f 431//201 433//201 214//201
f 95//202 90//202 309//202
f 309//202 314//202 95//202
f 135//203 131//203 350//203
f 350//203 354//203 135//203
f 118//204 116//204 335//204
f 335//204 337//204 118//204
f 48//205 44//205 263//205
f 263//205 267//205 48//205
f 8//206 6//206 225//206
f 225//206 227//206 8//206
f 105//16 107//15 326//16
f 326//16 324//71 105//16
f 19//207 22//207 241//207
f 241//207 238//207 19//207
f 85//208 87//208 306//208
f 306//208 304//208 85//208
f 128//209 133//209 352//209
f 352//209 347//209 128//209
f 178//210 182//210 401//210
f 401//210 397//210 178//210
f 195//211 199//211 418//211
f 418//211 414//211 195//211
f 165//212 170//212 389//212
f 389//212 384//212 165//212
f 41//213 45//213 264//213
f 264//213 260//213 41//213
f 66//214 68//214 287//214
f 287//214 285//214 66//214
f 104//215 101//215 320//215
f 320//215 323//215 104//215
f 67//216 72//216 291//216
f 291//216 286//216 67//216
f 5//217 7//217 226//217
f 226//217 224//217 5//217
f 69//218 65//218 284//218
f 284//218 288//218 69//218
f 26//219 23//219 242//219
f 242//219 245//219 26//219
f 167//220 163//220 382//220
f 382//220 386//220 167//220
f 35//221 32//221 251//221
f 251//221 254//221 35//221
f 146//222 143//222 362//222
f 362//222 365//222 146//222
f 198//223 193//223 412//223
f 412//223 417//223 198//223
f 196//224 194//224 413//224
f 413//224 415//224 196//224
f 168//225 164//225 383//225
f 383//225 387//225 168//225
f 215//226 217//226 436//226
f 436//226 434//226 215//226
f 108//227 106//227 325//227
f 325//227 327//227 108//227
f 130//228 134//228 353//228
f 353//228 349//228 130//228
f 131//229 126//229 345//229
f 345//229 350//229 131//229
f 127//230 124//230 343//230
f 343//230 346//230 127//230
f 64//231 59//231 278//231
f 278//231 283//231 64//231
f 20//232 12//232 231//232
f 231//232 239//232 20//232
