# Blender v2.90.0 OBJ File: ''
# www.blender.org
mtllib N09.mtl
o N09
v -0.037903 -0.051811 0.457889
v 0.010399 -0.051811 0.461457
v 0.008769 -0.051811 0.461457
v 0.055819 -0.051811 0.457921
v 0.097868 -0.051811 0.447632
v -0.081244 -0.051811 0.447650
v -0.121115 -0.051811 0.431441
v 0.136437 -0.051811 0.431071
v -0.157378 -0.051811 0.409959
v 0.171414 -0.051811 0.408721
v -0.189894 -0.051811 0.383904
v -0.041766 -0.051811 0.405813
v -0.012422 -0.051811 0.408480
v -0.010792 -0.051811 0.408480
v 0.025588 -0.051811 0.404681
v 0.202690 -0.051811 0.381062
v -0.067935 -0.051811 0.398220
v 0.057467 -0.051811 0.393851
v -0.091048 -0.051811 0.386308
v 0.085102 -0.051811 0.376833
v -0.111223 -0.051811 0.370686
v -0.218524 -0.051811 0.353974
v 0.230153 -0.051811 0.348574
v 0.108747 -0.051811 0.354476
v -0.128579 -0.051811 0.351962
v 0.128656 -0.051811 0.327624
v -0.243131 -0.051811 0.320869
v -0.143236 -0.051811 0.330745
v 0.253694 -0.051811 0.311740
v -0.155311 -0.051811 0.307644
v 0.145084 -0.051811 0.297125
v -0.263574 -0.051811 0.285289
v 0.273203 -0.051811 0.271040
v -0.164924 -0.051811 0.283266
v 0.158286 -0.051811 0.263824
v -0.279716 -0.051811 0.247930
v -0.172195 -0.051811 0.258220
v 0.288568 -0.051811 0.226956
v 0.168516 -0.051811 0.228568
v -0.177241 -0.051811 0.233114
v -0.291418 -0.051811 0.209494
v -0.180181 -0.051811 0.208558
v 0.176030 -0.051811 0.192202
v 0.299680 -0.051811 0.179967
v -0.298540 -0.051811 0.170678
v -0.181135 -0.051811 0.185160
v 0.181081 -0.051811 0.155573
v -0.179425 -0.051811 0.151911
v 0.306429 -0.051811 0.130557
v -0.300945 -0.051811 0.132182
v 0.183926 -0.051811 0.119527
v -0.174384 -0.051811 0.120009
v -0.298622 -0.051811 0.092594
v 0.308703 -0.051811 0.079205
v -0.166146 -0.051811 0.089749
v 0.184817 -0.051811 0.084910
v -0.291802 -0.051811 0.055097
v -0.154842 -0.051811 0.061425
v 0.184783 -0.051811 0.077958
v 0.305550 -0.051811 0.008785
v 0.184681 -0.051811 0.070586
v 0.184511 -0.051811 0.062853
v 0.184274 -0.051811 0.054814
v -0.140607 -0.051811 0.035330
v -0.280709 -0.051811 0.019949
v 0.183968 -0.051811 0.046526
v 0.183594 -0.051811 0.038045
v 0.183153 -0.051811 0.029429
v -0.123573 -0.051811 0.011761
v 0.182644 -0.051811 0.020734
v 0.182066 -0.051811 0.012015
v -0.265566 -0.051811 -0.012593
v 0.181421 -0.051811 0.003331
v -0.103873 -0.051811 -0.008991
v 0.296322 -0.051811 -0.057748
v 0.180708 -0.051811 -0.005263
v 0.179926 -0.051811 -0.013710
v -0.081640 -0.051811 -0.026629
v -0.246598 -0.051811 -0.042270
v 0.170547 -0.051811 -0.019931
v 0.160384 -0.051811 -0.025924
v 0.149503 -0.051811 -0.031627
v -0.057007 -0.051811 -0.040860
v 0.137967 -0.051811 -0.036983
v 0.125843 -0.051811 -0.041932
v -0.030108 -0.051811 -0.051390
v 0.113195 -0.051811 -0.046413
v -0.224026 -0.051811 -0.068826
v 0.100089 -0.051811 -0.050368
v 0.086590 -0.051811 -0.053737
v -0.001075 -0.051811 -0.057924
v 0.072762 -0.051811 -0.056460
v 0.058671 -0.051811 -0.058480
v 0.177481 -0.051811 -0.066687
v 0.281360 -0.051811 -0.120314
v 0.029960 -0.051811 -0.060167
v 0.044382 -0.051811 -0.059735
v 0.065006 -0.051811 -0.123740
v 0.161035 -0.051811 -0.124523
v -0.198076 -0.051811 -0.092004
v -0.168970 -0.051811 -0.111544
v -0.136932 -0.051811 -0.127191
v 0.261008 -0.051811 -0.178830
v 0.056751 -0.051811 -0.128159
v 0.139982 -0.051811 -0.178566
v -0.102186 -0.051811 -0.138685
v 0.048683 -0.051811 -0.132060
v 0.040785 -0.051811 -0.135469
v 0.033039 -0.051811 -0.138410
v 0.025429 -0.051811 -0.140910
v -0.064955 -0.051811 -0.145771
v 0.017938 -0.051811 -0.142995
v 0.010549 -0.051811 -0.144689
v 0.003245 -0.051811 -0.146017
v -0.025463 -0.051811 -0.148191
v -0.003992 -0.051811 -0.147006
v -0.011177 -0.051811 -0.147681
v -0.018329 -0.051811 -0.148068
v 0.114571 -0.051811 -0.228726
v 0.235606 -0.051811 -0.233214
v 0.085050 -0.051811 -0.274913
v 0.205499 -0.051811 -0.283385
v 0.051670 -0.051811 -0.317037
v 0.171027 -0.051811 -0.329259
v 0.014678 -0.051811 -0.355006
v 0.132534 -0.051811 -0.370756
v -0.025676 -0.051811 -0.388730
v 0.090361 -0.051811 -0.407793
v -0.069143 -0.051811 -0.418119
v 0.044853 -0.051811 -0.440287
v -0.115474 -0.051811 -0.443081
v -0.003650 -0.051811 -0.468157
v -0.164419 -0.051811 -0.463527
v -0.215730 -0.051811 -0.479365
v -0.054804 -0.051811 -0.491321
v -0.269159 -0.051811 -0.490506
v -0.261824 -0.051811 -0.541854
v -0.076621 -0.051811 -0.499677
v -0.098326 -0.051811 -0.507233
v -0.119702 -0.051811 -0.514002
v -0.140534 -0.051811 -0.519998
v -0.160608 -0.051811 -0.525237
v -0.179709 -0.051811 -0.529730
v -0.197620 -0.051811 -0.533493
v -0.214129 -0.051811 -0.536541
v -0.229018 -0.051811 -0.538887
v -0.242074 -0.051811 -0.540544
v -0.253080 -0.051811 -0.541529
v -0.037903 0.051811 0.457889
v 0.008769 0.051811 0.461457
v 0.010399 0.051811 0.461457
v 0.055819 0.051811 0.457921
v 0.097868 0.051811 0.447632
v -0.081244 0.051811 0.447650
v -0.121115 0.051811 0.431441
v 0.136437 0.051811 0.431071
v -0.157378 0.051811 0.409959
v 0.171414 0.051811 0.408721
v -0.189894 0.051811 0.383904
v -0.041766 0.051811 0.405813
v -0.012422 0.051811 0.408480
v -0.010792 0.051811 0.408480
v 0.025588 0.051811 0.404681
v 0.202690 0.051811 0.381062
v -0.067935 0.051811 0.398220
v 0.057467 0.051811 0.393851
v -0.091048 0.051811 0.386308
v 0.085102 0.051811 0.376833
v -0.111223 0.051811 0.370686
v -0.218524 0.051811 0.353974
v 0.230153 0.051807 0.348574
v 0.108747 0.051811 0.354476
v -0.128579 0.051811 0.351962
v 0.128656 0.051811 0.327624
v -0.243131 0.051811 0.320869
v -0.143236 0.051807 0.330745
v 0.253694 0.051811 0.311740
v -0.155311 0.051807 0.307644
v 0.145084 0.051811 0.297125
v -0.263574 0.051807 0.285289
v 0.273203 0.051811 0.271040
v -0.164924 0.051811 0.283266
v 0.158286 0.051807 0.263824
v -0.279716 0.051811 0.247930
v -0.172195 0.051811 0.258220
v 0.288568 0.051811 0.226956
v 0.168516 0.051811 0.228568
v -0.177241 0.051811 0.233114
v -0.291418 0.051811 0.209494
v -0.180181 0.051811 0.208558
v 0.176030 0.051811 0.192202
v 0.299680 0.051811 0.179967
v -0.298540 0.051811 0.170678
v -0.181135 0.051811 0.185160
v 0.181081 0.051811 0.155573
v -0.179425 0.051811 0.151911
v 0.306429 0.051811 0.130557
v -0.300945 0.051811 0.132182
v 0.183926 0.051811 0.119527
v -0.174384 0.051811 0.120009
v -0.298622 0.051807 0.092594
v 0.308703 0.051811 0.079205
v -0.166146 0.051807 0.089749
v 0.184817 0.051811 0.084910
v -0.291802 0.051811 0.055097
v -0.154842 0.051811 0.061425
v 0.184783 0.051811 0.077958
v 0.305550 0.051811 0.008785
v 0.184681 0.051811 0.070586
v 0.184511 0.051811 0.062853
v 0.184274 0.051807 0.054814
v -0.140607 0.051811 0.035330
v -0.280709 0.051811 0.019949
v 0.183968 0.051811 0.046526
v 0.183594 0.051811 0.038045
v 0.183153 0.051811 0.029429
v -0.123573 0.051811 0.011761
v 0.182644 0.051811 0.020734
v 0.182066 0.051811 0.012015
v -0.265566 0.051811 -0.012593
v 0.181421 0.051811 0.003331
v -0.103873 0.051811 -0.008991
v 0.296322 0.051807 -0.057748
v 0.180708 0.051811 -0.005263
v 0.179926 0.051811 -0.013710
v -0.081640 0.051807 -0.026629
v -0.246598 0.051811 -0.042270
v 0.170547 0.051811 -0.019931
v 0.160384 0.051811 -0.025924
v 0.149503 0.051807 -0.031627
v -0.057007 0.051807 -0.040860
v 0.137967 0.051811 -0.036983
v 0.125843 0.051807 -0.041932
v -0.030108 0.051811 -0.051390
v 0.113195 0.051811 -0.046413
v -0.224026 0.051807 -0.068826
v 0.100089 0.051811 -0.050368
v 0.086590 0.051811 -0.053737
v -0.001075 0.051811 -0.057924
v 0.072762 0.051811 -0.056460
v 0.058671 0.051811 -0.058480
v 0.177481 0.051811 -0.066687
v 0.281360 0.051807 -0.120314
v 0.029960 0.051811 -0.060167
v 0.044382 0.051811 -0.059735
v 0.065006 0.051807 -0.123740
v 0.161035 0.051811 -0.124523
v -0.198076 0.051811 -0.092004
v -0.168970 0.051811 -0.111544
v -0.136932 0.051811 -0.127191
v 0.261008 0.051811 -0.178830
v 0.056751 0.051811 -0.128159
v 0.139982 0.051811 -0.178566
v -0.102186 0.051811 -0.138685
v 0.048683 0.051811 -0.132060
v 0.040785 0.051811 -0.135469
v 0.033039 0.051811 -0.138410
v 0.025429 0.051811 -0.140910
v -0.064955 0.051811 -0.145771
v 0.017938 0.051807 -0.142995
v 0.010549 0.051807 -0.144689
v 0.003245 0.051811 -0.146017
v -0.025463 0.051811 -0.148191
v -0.003992 0.051811 -0.147006
v -0.011177 0.051811 -0.147681
v -0.018329 0.051811 -0.148068
v 0.114571 0.051811 -0.228726
v 0.235606 0.051811 -0.233214
v 0.085050 0.051811 -0.274913
v 0.205499 0.051811 -0.283385
v 0.051670 0.051807 -0.317037
v 0.171027 0.051807 -0.329259
v 0.014678 0.051811 -0.355006
v 0.132534 0.051811 -0.370756
v -0.025676 0.051811 -0.388730
v 0.090361 0.051811 -0.407793
v -0.069143 0.051811 -0.418119
v 0.044853 0.051811 -0.440287
v -0.115474 0.051807 -0.443081
v -0.003650 0.051811 -0.468157
v -0.164419 0.051811 -0.463527
v -0.215730 0.051811 -0.479365
v -0.054804 0.051811 -0.491321
v -0.269159 0.051811 -0.490506
v -0.261824 0.051807 -0.541854
v -0.076621 0.051811 -0.499677
v -0.098326 0.051811 -0.507233
v -0.119702 0.051811 -0.514002
v -0.140534 0.051811 -0.519998
v -0.160608 0.051811 -0.525237
v -0.179709 0.051807 -0.529730
v -0.197620 0.051811 -0.533493
v -0.214129 0.051811 -0.536541
v -0.229018 0.051811 -0.538887
v -0.242074 0.051811 -0.540544
v -0.253080 0.051811 -0.541529
vn 0.0000 -1.0000 -0.0000
vn 0.0000 -1.0000 0.0046
vn 0.0000 1.0000 -0.0000
vn 0.0000 1.0000 0.0046
vn 0.0000 1.0000 -0.0001
vn -0.0000 1.0000 0.0001
vn -0.0001 1.0000 -0.0001
vn 0.0001 1.0000 0.0002
vn -0.0001 1.0000 -0.0003
vn 0.0000 1.0000 0.0002
vn 0.0000 1.0000 0.0003
vn 0.0001 1.0000 -0.0003
vn 0.0001 1.0000 0.0004
vn -0.0000 1.0000 -0.0002
vn -0.0000 1.0000 0.0005
vn 0.0001 1.0000 -0.0012
vn 0.0000 1.0000 -0.0007
vn -0.0000 1.0000 0.0016
vn -0.0000 1.0000 0.0004
vn -0.0003 1.0000 0.0024
vn -0.0001 1.0000 0.0002
vn 0.0002 1.0000 -0.0012
vn -0.0002 1.0000 0.0014
vn -0.0003 1.0000 0.0015
vn -0.0002 1.0000 0.0009
vn -0.0003 1.0000 0.0023
vn -0.0005 1.0000 0.0057
vn -0.0006 1.0000 0.0068
vn 0.0891 0.0000 -0.9960
vn 0.0172 0.0000 -0.9999
vn 0.9905 0.0000 -0.1374
vn 0.1789 0.0000 -0.9839
vn 0.3019 0.0000 -0.9533
vn 0.9732 0.0000 0.2301
vn 0.6122 0.0000 -0.7907
vn -0.8426 0.0000 0.5386
vn -0.8426 0.0000 0.5385
vn 0.3945 0.0000 0.9189
vn -0.2889 0.0000 0.9574
vn -0.5601 0.0000 0.8284
vn 0.7252 0.0000 0.6885
vn 0.8575 0.0000 -0.5146
vn -0.9969 0.0000 -0.0787
vn -0.9180 0.0000 0.3966
vn 0.4982 0.0000 -0.8671
vn -0.9983 0.0000 -0.0586
vn 0.9303 0.0000 -0.3668
vn 0.4524 0.0000 -0.8918
vn 0.8426 0.0000 0.5385
vn 0.5811 0.0000 -0.8138
vn -0.0611 0.0000 -0.9981
vn -0.6253 0.0000 0.7804
vn -0.1039 0.0000 -0.9946
vn -0.5574 0.0000 -0.8302
vn -0.4642 0.0000 0.8857
vn 0.9992 0.0000 -0.0407
vn 0.3551 0.0000 -0.9348
vn -0.8033 0.0000 -0.5956
vn -0.9958 0.0000 0.0921
vn -0.9966 -0.0000 0.0827
vn -0.9957 -0.0000 0.0921
vn 0.3645 0.0000 0.9312
vn 0.1259 0.0000 -0.9920
vn 0.1354 0.0000 -0.9908
vn -0.9983 -0.0000 0.0585
vn -0.9987 -0.0000 0.0512
vn -0.9983 0.0000 0.0584
vn -0.9978 -0.0000 0.0661
vn -0.0875 0.0000 0.9962
vn -0.0762 0.0000 0.9971
vn -0.9996 -0.0000 0.0296
vn -0.9998 -0.0000 0.0219
vn -0.9993 0.0000 0.0369
vn 0.9726 0.0000 -0.2326
vn -0.7838 0.0000 0.6211
vn -0.2041 0.0000 0.9789
vn 0.9908 0.0000 0.1353
vn 0.3121 0.0000 -0.9501
vn 0.7334 0.0000 -0.6798
vn -0.4743 0.0000 0.8804
vn 0.6215 0.0000 0.7834
vn -0.9981 0.0000 0.0624
vn 0.0905 0.0000 -0.9959
vn 0.5384 0.0000 0.8427
vn 0.2290 0.0000 -0.9734
vn 0.7994 0.0000 -0.6007
vn -0.2422 0.0000 0.9702
vn 0.0000 0.0000 -1.0000
vn -0.9619 0.0000 0.2735
vn 0.9288 0.0000 0.3707
vn 0.0000 0.0000 1.0000
vn 0.3288 0.0000 -0.9444
vn -0.9997 0.0000 -0.0257
vn 0.9604 0.0000 -0.2788
vn -0.6870 0.0000 -0.7266
vn -0.9066 0.0000 -0.4219
vn -0.1870 0.0000 -0.9824
vn 0.3963 0.0000 -0.9181
vn -0.6661 0.0000 -0.7458
vn 0.9987 0.0000 0.0513
vn -0.8671 0.0000 0.4982
vn 0.1557 0.0000 -0.9878
vn 0.1556 0.0000 -0.9878
vn -0.9604 0.0000 -0.2787
vn -0.9990 0.0000 0.0440
vn -0.4211 0.0000 0.9070
vn -0.5097 0.0000 0.8604
vn 0.9990 0.0000 0.0442
vn 0.0935 0.0000 -0.9956
vn -0.9973 0.0000 0.0741
vn 0.5002 0.0000 0.8659
vn -0.0299 0.0000 0.9996
vn -0.9899 0.0000 -0.1414
vn -1.0000 -0.0000 0.0049
vn -1.0000 0.0000 0.0048
vn -0.9999 0.0000 0.0138
vn -0.7163 0.0000 0.6978
vn 0.0776 0.0000 0.9970
vn 0.9018 0.0000 0.4322
vn 0.2681 0.0000 -0.9634
vn 0.2787 0.0000 -0.9604
vn 0.2525 0.0000 -0.9676
vn -0.9836 0.0000 0.1805
vn 0.3577 0.0000 -0.9338
vn 0.9445 0.0000 -0.3285
vn -0.9793 0.0000 -0.2024
vn -0.3854 0.0000 0.9227
vn 0.8779 0.0000 0.4789
vn 0.7331 0.0000 -0.6801
vn -0.3779 0.0000 0.9259
vn -0.3141 0.0000 -0.9494
vn -0.9536 0.0000 -0.3010
vn -0.9318 0.0000 0.3630
vn 0.6625 0.0000 0.7491
vn 0.8228 0.0000 -0.5684
vn 0.4353 0.0000 -0.9003
vn -0.9296 0.0000 -0.3685
vn -0.5528 0.0000 0.8333
vn 0.9804 0.0000 -0.1970
vn -0.8026 0.0000 0.5965
vn -0.5244 0.0000 -0.8515
vn -0.7620 0.0000 -0.6476
vn 0.9877 0.0000 0.1561
vn -0.3766 0.0000 0.9264
vn -0.1932 0.0000 0.9812
vn 0.1815 0.0000 -0.9834
vn 0.0540 0.0000 -0.9985
vn 0.0721 0.0000 0.9974
vn 0.0372 0.0000 -0.9993
vn 0.9443 0.0000 0.3291
vn 0.2234 0.0000 -0.9747
vn -0.9998 -0.0000 0.0220
vn -0.6413 0.0000 0.7673
vn 0.9990 0.0000 -0.0447
vn 0.2766 0.0000 -0.9610
vn 0.9060 0.0000 -0.4232
vn 0.4581 0.0000 -0.8889
vn 0.8105 0.0000 0.5858
vn 0.2377 0.0000 0.9713
vn -0.9906 0.0000 -0.1366
vn -0.9566 0.0000 0.2912
vn -0.2949 0.0000 0.9555
vn -0.3340 0.0000 0.9426
vn -0.9839 0.0000 -0.1789
vn 0.4125 0.0000 -0.9110
vn -0.8921 0.0000 0.4519
vn 0.7637 0.0000 0.6456
vn -0.4388 0.0000 -0.8986
vn -0.7226 0.0000 0.6912
vn 0.4720 0.0000 -0.8816
vn 0.6599 0.0000 -0.7514
vn -0.5079 0.0000 0.8614
vn 0.8862 0.0000 -0.4632
vn -0.3217 0.0000 -0.9469
vn 0.9929 0.0000 -0.1189
vn -0.8804 0.0000 -0.4742
vn -0.8426 0.0000 -0.5386
vn -0.1419 0.0000 0.9899
vn 0.9649 0.0000 0.2627
vn -0.2299 0.0000 0.9732
vn 0.2056 0.0000 -0.9786
vn 0.2196 0.0000 0.9756
usemtl N09
s 1
f 1//1 2//1 3//1
f 1//1 4//1 2//1
f 1//1 5//1 4//1
f 6//1 5//1 1//1
f 7//1 5//1 6//1
f 7//1 8//1 5//1
f 9//1 8//1 7//1
f 9//1 10//1 8//1
f 11//1 12//1 9//1
f 12//1 13//1 9//1
f 13//1 10//1 9//1
f 13//1 14//2 10//1
f 14//2 15//1 10//1
f 15//1 16//1 10//1
f 11//1 17//1 12//1
f 18//1 16//1 15//1
f 11//1 19//1 17//1
f 20//1 16//1 18//1
f 11//1 21//1 19//1
f 22//1 21//1 11//1
f 20//1 23//1 16//1
f 24//1 23//1 20//1
f 22//1 25//1 21//1
f 26//1 23//1 24//1
f 27//1 25//1 22//1
f 27//1 28//1 25//1
f 26//1 29//1 23//1
f 27//1 30//1 28//1
f 31//1 29//1 26//1
f 32//1 30//1 27//1
f 31//1 33//1 29//1
f 32//1 34//1 30//1
f 35//1 33//1 31//1
f 36//1 34//1 32//1
f 36//1 37//1 34//1
f 35//1 38//1 33//1
f 39//1 38//1 35//1
f 36//1 40//1 37//1
f 41//1 40//1 36//1
f 41//1 42//1 40//1
f 43//1 38//1 39//1
f 43//1 44//1 38//1
f 45//1 42//1 41//1
f 45//1 46//1 42//1
f 47//1 44//1 43//1
f 45//1 48//1 46//1
f 47//1 49//1 44//1
f 50//1 48//1 45//1
f 51//1 49//1 47//1
f 50//1 52//1 48//1
f 53//1 52//1 50//1
f 51//1 54//1 49//1
f 53//1 55//1 52//1
f 56//1 54//1 51//1
f 57//1 55//1 53//1
f 57//1 58//1 55//1
f 59//1 54//1 56//1
f 59//1 60//1 54//1
f 61//1 60//1 59//1
f 62//1 60//1 61//1
f 63//1 60//1 62//1
f 57//1 64//1 58//1
f 65//1 64//1 57//1
f 66//1 60//1 63//1
f 67//1 60//1 66//1
f 68//1 60//1 67//1
f 65//1 69//1 64//1
f 70//1 60//1 68//1
f 71//1 60//1 70//1
f 72//1 69//1 65//1
f 73//1 60//1 71//1
f 72//1 74//1 69//1
f 73//1 75//1 60//1
f 76//1 75//1 73//1
f 77//1 75//1 76//1
f 72//1 78//1 74//1
f 79//1 78//1 72//1
f 80//1 75//1 77//1
f 81//1 75//1 80//1
f 82//1 75//1 81//1
f 79//1 83//1 78//1
f 84//1 75//1 82//1
f 85//1 75//1 84//1
f 79//1 86//1 83//1
f 87//1 75//1 85//1
f 88//1 86//1 79//1
f 89//1 75//1 87//1
f 90//1 75//1 89//1
f 88//1 91//1 86//1
f 92//1 75//1 90//1
f 93//1 75//1 92//1
f 93//1 94//1 75//1
f 94//1 95//1 75//1
f 88//1 96//1 91//1
f 97//1 94//1 93//1
f 96//1 94//1 97//1
f 88//1 94//1 96//1
f 88//1 98//1 94//1
f 99//1 95//1 94//1
f 100//1 98//1 88//1
f 101//1 98//1 100//1
f 102//1 98//1 101//1
f 99//1 103//1 95//1
f 102//1 104//1 98//1
f 105//1 103//1 99//1
f 106//1 104//1 102//1
f 106//1 107//1 104//1
f 106//1 108//1 107//1
f 106//1 109//1 108//1
f 106//1 110//1 109//1
f 111//1 110//1 106//1
f 111//1 112//1 110//1
f 111//1 113//1 112//1
f 111//1 114//1 113//1
f 115//1 114//1 111//1
f 115//1 116//1 114//1
f 115//1 117//1 116//1
f 115//1 118//1 117//1
f 119//1 103//1 105//1
f 119//1 120//1 103//1
f 121//1 120//1 119//1
f 121//1 122//1 120//1
f 123//1 122//1 121//1
f 123//1 124//1 122//1
f 125//1 124//1 123//1
f 125//1 126//1 124//1
f 127//1 126//1 125//1
f 127//1 128//1 126//1
f 129//1 128//1 127//1
f 129//1 130//1 128//1
f 131//1 130//1 129//1
f 131//1 132//1 130//1
f 133//1 132//1 131//1
f 134//1 132//1 133//1
f 134//1 135//1 132//1
f 136//1 135//1 134//1
f 137//1 135//1 136//1
f 137//1 138//1 135//1
f 137//1 139//1 138//1
f 137//1 140//1 139//1
f 137//1 141//1 140//1
f 137//1 142//1 141//1
f 137//1 143//1 142//1
f 137//1 144//1 143//1
f 137//1 145//1 144//1
f 137//1 146//1 145//1
f 137//1 147//1 146//1
f 137//1 148//1 147//1
f 149//3 150//3 151//3
f 149//3 151//3 152//3
f 149//3 152//3 153//3
f 154//3 149//3 153//3
f 155//3 154//3 153//3
f 155//3 153//3 156//3
f 157//3 155//3 156//3
f 157//3 156//3 158//3
f 159//3 157//3 160//3
f 160//3 157//3 161//3
f 161//3 157//3 158//3
f 161//3 158//3 162//4
f 162//4 158//3 163//3
f 163//3 158//3 164//5
f 159//3 160//3 165//3
f 166//3 163//3 164//5
f 159//3 165//3 167//3
f 168//3 166//3 164//5
f 159//3 167//3 169//3
f 170//3 159//3 169//3
f 168//3 164//5 171//3
f 172//3 168//3 171//3
f 170//3 169//3 173//3
f 174//3 172//3 171//3
f 175//5 170//3 173//3
f 175//5 173//3 176//5
f 174//3 171//3 177//3
f 175//5 176//5 178//3
f 179//3 174//3 177//3
f 180//3 175//5 178//3
f 179//3 177//3 181//3
f 180//3 178//3 182//6
f 183//3 179//3 181//3
f 184//3 180//3 182//6
f 184//3 182//6 185//3
f 183//3 181//3 186//3
f 187//6 183//3 186//3
f 184//3 185//3 188//3
f 189//3 184//3 188//3
f 189//3 188//3 190//3
f 191//3 187//6 186//3
f 191//3 186//3 192//3
f 193//3 189//3 190//3
f 193//3 190//3 194//3
f 195//3 191//3 192//3
f 193//3 194//3 196//3
f 195//3 192//3 197//3
f 198//3 193//3 196//3
f 199//3 195//3 197//3
f 198//3 196//3 200//5
f 201//3 198//3 200//5
f 199//3 197//3 202//3
f 201//3 200//5 203//3
f 204//3 199//3 202//3
f 205//3 201//3 203//3
f 205//3 203//3 206//3
f 207//3 204//3 202//3
f 207//3 202//3 208//3
f 209//3 207//3 208//3
f 210//7 209//3 208//3
f 211//7 210//7 208//3
f 205//3 206//3 212//3
f 213//3 205//3 212//3
f 214//8 211//7 208//3
f 215//3 214//8 208//3
f 216//3 215//3 208//3
f 213//3 212//3 217//3
f 218//3 216//3 208//3
f 219//3 218//3 208//3
f 220//3 213//3 217//3
f 221//3 219//3 208//3
f 220//3 217//3 222//5
f 221//3 208//3 223//3
f 224//3 221//3 223//3
f 225//3 224//3 223//3
f 220//3 222//5 226//3
f 227//3 220//3 226//3
f 228//3 225//3 223//3
f 229//9 228//3 223//3
f 230//10 229//9 223//3
f 227//3 226//3 231//11
f 232//8 230//10 223//3
f 233//12 232//8 223//3
f 227//3 231//11 234//3
f 235//13 233//12 223//3
f 236//5 227//3 234//3
f 237//5 235//13 223//3
f 238//5 237//5 223//3
f 236//5 234//3 239//5
f 240//5 238//5 223//3
f 241//3 240//5 223//3
f 241//3 223//3 242//6
f 242//6 223//3 243//3
f 236//5 239//5 244//14
f 245//3 241//3 242//6
f 244//14 245//3 242//6
f 236//5 244//14 242//6
f 236//5 242//6 246//6
f 247//3 242//6 243//3
f 248//6 236//5 246//6
f 249//3 248//6 246//6
f 250//15 249//3 246//6
f 247//3 243//3 251//3
f 250//15 246//6 252//6
f 253//3 247//3 251//3
f 254//3 250//15 252//6
f 254//3 252//6 255//3
f 254//3 255//3 256//3
f 254//3 256//3 257//3
f 254//3 257//3 258//16
f 259//3 254//3 258//16
f 259//3 258//16 260//17
f 259//3 260//17 261//18
f 259//3 261//18 262//19
f 263//3 259//3 262//19
f 263//3 262//19 264//3
f 263//3 264//3 265//3
f 263//3 265//3 266//3
f 267//3 253//3 251//3
f 267//3 251//3 268//3
f 269//3 267//3 268//3
f 269//3 268//3 270//3
f 271//3 269//3 270//3
f 271//3 270//3 272//3
f 273//3 271//3 272//3
f 273//3 272//3 274//3
f 275//3 273//3 274//3
f 275//3 274//3 276//3
f 277//5 275//3 276//3
f 277//5 276//3 278//3
f 279//6 277//5 278//3
f 279//6 278//3 280//3
f 281//3 279//6 280//3
f 282//3 281//3 280//3
f 282//3 280//3 283//3
f 284//5 282//3 283//3
f 285//20 284//5 283//3
f 285//20 283//3 286//6
f 285//20 286//6 287//6
f 285//20 287//6 288//21
f 285//20 288//21 289//21
f 285//20 289//21 290//22
f 285//20 290//22 291//23
f 285//20 291//23 292//24
f 285//20 292//24 293//25
f 285//20 293//25 294//26
f 285//20 294//26 295//27
f 285//20 295//27 296//28
f 147//29 148//29 296//29
f 296//29 295//29 147//29
f 118//30 115//30 263//30
f 263//30 266//30 118//30
f 60//31 75//31 223//31
f 223//31 208//31 60//31
f 113//32 114//32 262//32
f 262//32 261//32 113//32
f 139//33 140//33 288//33
f 288//33 287//33 139//33
f 38//34 44//34 192//34
f 192//34 186//34 38//34
f 19//35 21//35 169//35
f 169//35 167//35 19//35
f 121//36 119//36 267//37
f 267//37 269//37 121//36
f 5//38 8//38 156//38
f 156//38 153//38 5//38
f 89//39 87//39 235//39
f 235//39 237//39 89//39
f 129//40 127//40 275//40
f 275//40 277//40 129//40
f 69//41 74//41 222//41
f 222//41 217//41 69//41
f 120//42 122//42 270//42
f 270//42 268//42 120//42
f 51//43 47//43 195//43
f 195//43 199//43 51//43
f 36//44 32//44 180//44
f 180//44 184//44 36//44
f 130//45 132//45 280//45
f 280//45 278//45 130//45
f 53//46 50//46 198//46
f 198//46 201//46 53//46
f 30//47 34//47 182//47
f 182//47 178//47 30//47
f 94//48 98//48 246//48
f 246//48 242//48 94//48
f 23//49 29//49 177//49
f 177//49 171//49 23//49
f 128//50 130//50 278//50
f 278//50 276//50 128//50
f 115//51 111//51 259//51
f 259//51 263//51 115//51
f 11//52 9//52 157//52
f 157//52 159//52 11//52
f 15//53 14//53 162//53
f 162//53 163//53 15//53
f 101//54 100//54 248//54
f 248//54 249//54 101//54
f 82//55 81//55 229//55
f 229//55 230//55 82//55
f 42//56 46//56 194//56
f 194//56 190//56 42//56
f 108//57 109//57 257//57
f 257//57 256//57 108//57
f 26//58 24//58 172//58
f 172//58 174//58 26//58
f 77//59 76//60 224//61
f 224//61 225//59 77//59
f 83//62 86//62 234//62
f 234//62 231//62 83//62
f 146//63 147//63 295//63
f 295//63 294//63 146//63
f 114//64 116//64 264//64
f 264//64 262//64 114//64
f 70//65 68//66 216//67
f 216//67 218//68 70//65
f 97//69 93//69 241//69
f 241//69 245//69 97//69
f 1//70 3//70 150//70
f 150//70 149//70 1//70
f 63//71 62//72 210//71
f 210//71 211//73 63//71
f 75//74 95//74 243//74
f 243//74 223//74 75//74
f 123//75 121//75 269//75
f 269//75 271//75 123//75
f 136//76 134//76 282//76
f 282//76 284//76 136//76
f 44//77 49//77 197//77
f 197//77 192//77 44//77
f 109//78 110//78 258//78
f 258//78 257//78 109//78
f 21//79 25//79 173//79
f 173//79 169//79 21//79
f 131//80 129//80 277//80
f 277//80 279//80 131//80
f 74//81 78//81 226//81
f 226//81 222//81 74//81
f 50//82 45//82 193//82
f 193//82 198//82 50//82
f 13//83 12//83 160//83
f 160//83 161//83 13//83
f 8//84 10//84 158//84
f 158//84 156//84 8//84
f 142//85 143//85 291//85
f 291//85 290//85 142//85
f 122//86 124//86 272//86
f 272//86 270//86 122//86
f 90//87 89//87 237//87
f 237//87 238//87 90//87
f 14//88 13//88 161//88
f 161//88 162//88 14//88
f 99//89 94//89 242//89
f 242//89 247//89 99//89
f 55//90 58//90 206//90
f 206//90 203//90 55//90
f 3//91 2//91 151//91
f 151//91 150//91 3//91
f 138//92 139//92 287//92
f 287//92 286//92 138//92
f 56//93 51//93 199//93
f 199//93 204//93 56//93
f 34//94 37//94 185//94
f 185//94 182//94 34//94
f 24//95 20//95 168//95
f 168//95 172//95 24//95
f 72//96 65//96 213//96
f 213//96 220//96 72//96
f 111//97 106//97 254//97
f 254//97 259//97 111//97
f 107//98 108//98 256//98
f 256//98 255//98 107//98
f 100//99 88//99 236//99
f 236//99 248//99 100//99
f 46//100 48//100 196//100
f 196//100 194//100 46//100
f 32//101 27//101 175//101
f 175//101 180//101 32//101
f 145//102 146//102 294//103
f 294//103 293//103 145//102
f 39//104 35//104 183//104
f 183//104 187//104 39//104
f 66//73 63//71 211//73
f 211//73 214//105 66//73
f 84//106 82//106 230//106
f 230//106 232//106 84//106
f 9//107 7//107 155//107
f 155//107 157//107 9//107
f 49//108 54//108 202//108
f 202//108 197//108 49//108
f 116//109 117//109 265//109
f 265//109 264//109 116//109
f 71//68 70//65 218//68
f 218//68 219//110 71//68
f 78//111 83//111 231//111
f 231//111 226//111 78//111
f 96//112 97//112 245//112
f 245//112 244//112 96//112
f 137//113 136//113 284//113
f 284//113 285//113 137//113
f 59//114 56//115 204//115
f 204//115 207//116 59//114
f 125//117 123//117 271//117
f 271//117 273//117 125//117
f 2//118 4//118 152//118
f 152//118 151//118 2//118
f 29//119 33//119 181//119
f 181//119 177//119 29//119
f 110//120 112//120 260//120
f 260//120 258//120 110//120
f 12//121 17//121 165//121
f 165//121 160//121 12//121
f 141//122 142//122 290//122
f 290//122 289//122 141//122
f 45//123 41//123 189//123
f 189//123 193//123 45//123
f 135//124 138//124 286//124
f 286//124 283//124 135//124
f 95//125 103//125 251//125
f 251//125 243//125 95//125
f 43//126 39//126 187//126
f 187//126 191//126 43//126
f 133//127 131//127 279//127
f 279//127 281//127 133//127
f 58//128 64//128 212//128
f 212//128 206//128 58//128
f 124//129 126//129 274//129
f 274//129 272//129 124//129
f 85//130 84//130 232//130
f 232//130 233//130 85//130
f 106//131 102//131 250//131
f 250//131 254//131 106//131
f 65//132 57//132 205//132
f 205//132 213//132 65//132
f 105//133 99//133 247//133
f 247//133 253//133 105//133
f 10//134 16//134 164//134
f 164//134 158//134 10//134
f 25//135 28//135 176//135
f 176//135 173//135 25//135
f 104//136 107//136 255//136
f 255//136 252//136 104//136
f 35//137 31//137 179//137
f 179//137 183//137 35//137
f 80//138 77//138 225//138
f 225//138 228//138 80//138
f 37//139 40//139 188//139
f 188//139 185//139 37//139
f 27//140 22//140 170//140
f 170//140 175//140 27//140
f 20//141 18//141 166//141
f 166//141 168//141 20//141
f 88//142 79//142 227//142
f 227//142 236//142 88//142
f 67//105 66//73 214//105
f 214//105 215//66 67//105
f 48//143 52//143 200//143
f 200//143 196//143 48//143
f 7//144 6//144 154//144
f 154//144 155//144 7//144
f 73//110 71//68 219//110
f 219//110 221//60 73//110
f 92//145 90//145 238//145
f 238//145 240//145 92//145
f 144//146 145//146 293//146
f 293//146 292//146 144//146
f 117//147 118//147 266//147
f 266//147 265//147 117//147
f 91//148 96//148 244//148
f 244//148 239//148 91//148
f 148//149 137//149 285//149
f 285//149 296//149 148//149
f 33//150 38//150 186//150
f 186//150 181//150 33//150
f 112//151 113//151 261//151
f 261//151 260//151 112//151
f 61//116 59//114 207//116
f 207//116 209//152 61//116
f 127//153 125//153 273//153
f 273//153 275//153 127//153
f 54//154 60//154 208//154
f 208//154 202//154 54//154
f 140//155 141//155 289//155
f 289//155 288//155 140//155
f 103//156 120//156 268//156
f 268//156 251//156 103//156
f 17//157 19//157 167//157
f 167//157 165//157 17//157
f 64//158 69//158 217//158
f 217//158 212//158 64//158
f 4//159 5//159 153//159
f 153//159 152//159 4//159
f 47//160 43//160 191//160
f 191//160 195//160 47//160
f 41//161 36//161 184//161
f 184//161 189//161 41//161
f 134//162 133//162 281//162
f 281//162 282//162 134//162
f 87//163 85//163 233//163
f 233//163 235//163 87//163
f 57//164 53//164 201//164
f 201//164 205//164 57//164
f 132//165 135//165 283//165
f 283//165 280//165 132//165
f 119//166 105//166 253//166
f 253//166 267//166 119//166
f 16//167 23//167 171//167
f 171//167 164//167 16//167
f 102//168 101//168 249//168
f 249//168 250//168 102//168
f 22//169 11//169 159//169
f 159//169 170//169 22//169
f 98//170 104//170 252//170
f 252//170 246//170 98//170
f 126//171 128//171 276//171
f 276//171 274//171 126//171
f 81//172 80//172 228//172
f 228//172 229//172 81//172
f 28//173 30//173 178//173
f 178//173 176//173 28//173
f 18//174 15//174 163//174
f 163//174 166//174 18//174
f 76//60 73//110 221//60
f 221//60 224//61 76//60
f 40//175 42//175 190//175
f 190//175 188//175 40//175
f 31//176 26//176 174//176
f 174//176 179//176 31//176
f 79//177 72//177 220//177
f 220//177 227//177 79//177
f 68//66 67//105 215//66
f 215//66 216//67 68//66
f 93//178 92//178 240//178
f 240//178 241//178 93//178
f 52//179 55//179 203//179
f 203//179 200//179 52//179
f 6//180 1//180 149//180
f 149//180 154//180 6//180
f 143//181 144//181 292//181
f 292//181 291//181 143//181
f 62//72 61//116 209//152
f 209//152 210//71 62//72
f 86//182 91//182 239//182
f 239//182 234//182 86//182
