# Blender v2.90.0 OBJ File: ''
# www.blender.org
mtllib N10.mtl
o N10
v 0.169532 -0.059565 0.489665
v 0.233584 -0.059565 0.495197
v 0.231709 -0.059565 0.495197
v 0.294899 -0.059565 0.490059
v 0.349689 -0.059565 0.475254
v 0.114024 -0.059565 0.473823
v 0.398180 -0.059565 0.451698
v 0.064945 -0.059565 0.448799
v 0.440599 -0.059565 0.420303
v 0.022055 -0.059565 0.415722
v 0.229835 -0.059565 0.434289
v 0.231709 -0.059565 0.434289
v 0.190593 -0.059565 0.429759
v 0.270520 -0.059565 0.429759
v 0.156096 -0.059565 0.416711
v 0.304660 -0.059565 0.416711
v 0.477176 -0.059565 0.381985
v 0.126087 -0.059565 0.395958
v 0.334373 -0.059565 0.395958
v -0.014887 -0.059565 0.375722
v 0.100316 -0.059565 0.368315
v 0.359910 -0.059565 0.368315
v 0.508136 -0.059565 0.337657
v -0.046123 -0.059565 0.329926
v 0.078526 -0.059565 0.334593
v 0.381516 -0.059565 0.334593
v 0.533708 -0.059565 0.288234
v 0.060466 -0.059565 0.295608
v 0.399439 -0.059565 0.295608
v -0.071892 -0.059565 0.279466
v 0.045879 -0.059565 0.252171
v 0.413926 -0.059565 0.252171
v 0.554120 -0.059565 0.234631
v -0.092437 -0.059565 0.225468
v 0.034515 -0.059565 0.205097
v 0.425225 -0.059565 0.205097
v 0.569600 -0.059565 0.177760
v -0.107996 -0.059565 0.169063
v 0.433582 -0.059565 0.155198
v 0.026117 -0.059565 0.155198
v 0.580375 -0.059565 0.118538
v -0.118812 -0.059565 0.111380
v 0.439246 -0.059565 0.103289
v 0.020433 -0.059565 0.103289
v 0.586672 -0.059565 0.057877
v -0.125126 -0.059565 0.053546
v 0.017209 -0.059565 0.050182
v 0.442463 -0.059565 0.050182
v 0.588721 -0.059565 -0.003308
v -0.127177 -0.059565 -0.003308
v 0.016190 -0.059565 -0.003308
v 0.443480 -0.059565 -0.003308
v -0.125126 -0.059565 -0.067322
v 0.017372 -0.059565 -0.056245
v 0.442500 -0.059565 -0.056638
v 0.586671 -0.059565 -0.060630
v 0.021036 -0.059565 -0.109068
v 0.439385 -0.059565 -0.109718
v 0.580366 -0.059565 -0.118924
v -0.118813 -0.059565 -0.129986
v 0.027361 -0.059565 -0.160921
v 0.433875 -0.059565 -0.161711
v 0.569571 -0.059565 -0.177056
v -0.107997 -0.059565 -0.190496
v 0.036527 -0.059565 -0.210949
v 0.425711 -0.059565 -0.211782
v 0.554051 -0.059565 -0.233889
v -0.092437 -0.059565 -0.248048
v 0.048713 -0.059565 -0.258296
v 0.414631 -0.059565 -0.259093
v 0.533572 -0.059565 -0.288289
v -0.071893 -0.059565 -0.301840
v 0.064097 -0.059565 -0.302107
v 0.400376 -0.059565 -0.302809
v 0.507902 -0.059565 -0.339119
v -0.046123 -0.059565 -0.351066
v 0.082857 -0.059565 -0.341524
v 0.382685 -0.059565 -0.342093
v 0.476803 -0.059565 -0.385245
v 0.105174 -0.059565 -0.375694
v 0.361298 -0.059565 -0.376110
v -0.014887 -0.059565 -0.394925
v 0.131226 -0.059565 -0.403760
v 0.335955 -0.059565 -0.404024
v 0.440044 -0.059565 -0.425531
v 0.022055 -0.059565 -0.432610
v 0.161193 -0.059565 -0.424867
v 0.306395 -0.059565 -0.424997
v 0.195252 -0.059565 -0.438159
v 0.272358 -0.059565 -0.438194
v 0.397389 -0.059565 -0.458841
v 0.064945 -0.059565 -0.463321
v 0.233584 -0.059565 -0.442779
v 0.348605 -0.059565 -0.484040
v 0.114024 -0.059565 -0.486252
v 0.293456 -0.059565 -0.499991
v 0.169531 -0.059565 -0.500600
v 0.231709 -0.059565 -0.505561
v 0.169532 0.059567 0.489665
v 0.231709 0.059567 0.495197
v 0.233584 0.059567 0.495197
v 0.294899 0.059567 0.490059
v 0.349689 0.059567 0.475254
v 0.114024 0.059567 0.473823
v 0.398180 0.059562 0.451698
v 0.064945 0.059567 0.448799
v 0.440599 0.059567 0.420303
v 0.022055 0.059567 0.415722
v 0.229835 0.059567 0.434289
v 0.231709 0.059562 0.434289
v 0.190593 0.059567 0.429759
v 0.270520 0.059562 0.429759
v 0.156096 0.059562 0.416711
v 0.304660 0.059567 0.416711
v 0.477176 0.059567 0.381985
v 0.126087 0.059567 0.395958
v 0.334373 0.059562 0.395958
v -0.014887 0.059562 0.375722
v 0.100316 0.059567 0.368315
v 0.359910 0.059567 0.368315
v 0.508136 0.059567 0.337657
v -0.046123 0.059567 0.329926
v 0.078526 0.059562 0.334593
v 0.381516 0.059567 0.334593
v 0.533708 0.059562 0.288234
v 0.060466 0.059567 0.295608
v 0.399439 0.059567 0.295608
v -0.071892 0.059567 0.279466
v 0.045879 0.059567 0.252171
v 0.413926 0.059567 0.252171
v 0.554120 0.059567 0.234631
v -0.092437 0.059562 0.225468
v 0.034515 0.059567 0.205097
v 0.425225 0.059567 0.205097
v 0.569600 0.059567 0.177760
v -0.107996 0.059567 0.169063
v 0.433582 0.059567 0.155198
v 0.026117 0.059567 0.155198
v 0.580375 0.059567 0.118538
v -0.118812 0.059567 0.111380
v 0.439246 0.059563 0.103289
v 0.020433 0.059563 0.103289
v 0.586672 0.059567 0.057877
v -0.125126 0.059563 0.053546
v 0.017209 0.059567 0.050182
v 0.442463 0.059567 0.050182
v 0.588721 0.059567 -0.003308
v -0.127177 0.059563 -0.003308
v 0.016190 0.059567 -0.003308
v 0.443480 0.059567 -0.003308
v -0.125126 0.059567 -0.067322
v 0.017372 0.059563 -0.056245
v 0.442500 0.059567 -0.056638
v 0.586671 0.059567 -0.060630
v 0.021036 0.059567 -0.109068
v 0.439385 0.059567 -0.109718
v 0.580366 0.059567 -0.118924
v -0.118813 0.059567 -0.129986
v 0.027361 0.059567 -0.160921
v 0.433875 0.059567 -0.161711
v 0.569571 0.059567 -0.177056
v -0.107997 0.059567 -0.190496
v 0.036527 0.059567 -0.210949
v 0.425711 0.059567 -0.211782
v 0.554051 0.059563 -0.233889
v -0.092437 0.059567 -0.248048
v 0.048713 0.059567 -0.258296
v 0.414631 0.059567 -0.259093
v 0.533572 0.059563 -0.288289
v -0.071893 0.059567 -0.301840
v 0.064097 0.059563 -0.302107
v 0.400376 0.059563 -0.302809
v 0.507902 0.059563 -0.339119
v -0.046123 0.059567 -0.351066
v 0.082857 0.059567 -0.341524
v 0.382685 0.059567 -0.342093
v 0.476803 0.059567 -0.385245
v 0.105174 0.059567 -0.375694
v 0.361298 0.059563 -0.376110
v -0.014887 0.059567 -0.394925
v 0.131226 0.059563 -0.403760
v 0.335955 0.059567 -0.404024
v 0.440044 0.059563 -0.425531
v 0.022055 0.059567 -0.432610
v 0.161193 0.059567 -0.424867
v 0.306395 0.059567 -0.424997
v 0.195252 0.059567 -0.438159
v 0.272358 0.059567 -0.438194
v 0.397389 0.059567 -0.458841
v 0.064945 0.059567 -0.463321
v 0.233584 0.059567 -0.442779
v 0.348605 0.059567 -0.484040
v 0.114024 0.059563 -0.486252
v 0.293456 0.059567 -0.499991
v 0.169531 0.059567 -0.500600
v 0.231709 0.059563 -0.505561
v -0.353065 -0.059565 0.485714
v -0.330594 -0.059565 -0.279735
v -0.330594 -0.059565 0.495197
v -0.375975 -0.059565 0.476495
v -0.399335 -0.059565 0.467569
v -0.423153 -0.059565 0.458965
v -0.447440 -0.059565 0.450712
v -0.472204 -0.059565 0.442840
v -0.497457 -0.059565 0.435377
v -0.465840 -0.059565 0.322226
v -0.523208 -0.059565 0.428354
v -0.469100 -0.059565 0.331648
v -0.549466 -0.059565 0.421801
v -0.473727 -0.059565 0.339062
v -0.576241 -0.059565 0.415743
v -0.479954 -0.059565 0.344739
v -0.603544 -0.059565 0.410214
v -0.631384 -0.059565 0.405241
v -0.488017 -0.059565 0.348949
v -0.631384 -0.059565 0.358389
v -0.543302 -0.059565 0.356515
v -0.525557 -0.059565 0.355474
v -0.510584 -0.059565 0.354047
v -0.498149 -0.059565 0.351961
v -0.463712 -0.059565 0.310527
v -0.462482 -0.059565 0.296280
v -0.461917 -0.059565 0.279215
v -0.461780 -0.059565 0.259063
v -0.461780 -0.059565 -0.279735
v -0.462039 -0.059565 -0.309473
v -0.330296 -0.059565 -0.309867
v -0.463151 -0.059565 -0.334768
v -0.329067 -0.059565 -0.335419
v -0.465615 -0.059565 -0.356016
v -0.326407 -0.059565 -0.356806
v -0.469936 -0.059565 -0.373612
v -0.321814 -0.059565 -0.374445
v -0.476611 -0.059565 -0.387955
v -0.314787 -0.059565 -0.388752
v -0.486143 -0.059565 -0.399441
v -0.304826 -0.059565 -0.400144
v -0.499032 -0.059565 -0.408468
v -0.291428 -0.059565 -0.409037
v -0.515781 -0.059565 -0.415432
v -0.274094 -0.059565 -0.415848
v -0.536889 -0.059565 -0.420729
v -0.252322 -0.059565 -0.420993
v -0.562859 -0.059565 -0.424758
v -0.225611 -0.059565 -0.424889
v -0.594190 -0.059565 -0.427916
v -0.193460 -0.059565 -0.427951
v -0.631384 -0.059565 -0.430598
v -0.155368 -0.059565 -0.430598
v -0.631384 -0.059565 -0.484946
v -0.155368 -0.059565 -0.484946
v -0.353065 0.059567 0.485714
v -0.330594 0.059567 0.495197
v -0.330594 0.059563 -0.279735
v -0.375975 0.059567 0.476495
v -0.399335 0.059567 0.467569
v -0.423153 0.059562 0.458965
v -0.447440 0.059567 0.450712
v -0.472204 0.059567 0.442840
v -0.497457 0.059567 0.435377
v -0.465840 0.059567 0.322226
v -0.523208 0.059567 0.428354
v -0.469100 0.059567 0.331648
v -0.549466 0.059562 0.421801
v -0.473727 0.059567 0.339062
v -0.576241 0.059562 0.415743
v -0.479954 0.059567 0.344739
v -0.603544 0.059567 0.410214
v -0.631384 0.059562 0.405241
v -0.488017 0.059567 0.348949
v -0.631384 0.059567 0.358389
v -0.543302 0.059567 0.356515
v -0.525557 0.059562 0.355474
v -0.510584 0.059567 0.354047
v -0.498149 0.059567 0.351961
v -0.463712 0.059562 0.310527
v -0.462482 0.059567 0.296280
v -0.461917 0.059567 0.279215
v -0.461780 0.059567 0.259063
v -0.461780 0.059567 -0.279735
v -0.462039 0.059567 -0.309473
v -0.330296 0.059567 -0.309867
v -0.463151 0.059567 -0.334768
v -0.329067 0.059563 -0.335419
v -0.465615 0.059567 -0.356016
v -0.326407 0.059563 -0.356806
v -0.469936 0.059567 -0.373612
v -0.321814 0.059563 -0.374445
v -0.476611 0.059567 -0.387955
v -0.314787 0.059567 -0.388752
v -0.486143 0.059567 -0.399441
v -0.304826 0.059567 -0.400144
v -0.499032 0.059563 -0.408468
v -0.291428 0.059567 -0.409037
v -0.515781 0.059567 -0.415432
v -0.274094 0.059567 -0.415848
v -0.536889 0.059567 -0.420729
v -0.252322 0.059567 -0.420993
v -0.562859 0.059567 -0.424758
v -0.225611 0.059567 -0.424889
v -0.594190 0.059563 -0.427916
v -0.193460 0.059567 -0.427951
v -0.631384 0.059563 -0.430598
v -0.155368 0.059567 -0.430598
v -0.631384 0.059567 -0.484946
v -0.155368 0.059567 -0.484946
vn 0.0000 -1.0000 -0.0000
vn 0.0000 -1.0000 0.0001
vn 0.0000 1.0000 -0.0000
vn 0.0000 1.0000 -0.0002
vn -0.0001 1.0000 -0.0011
vn -0.0000 1.0000 -0.0008
vn -0.0000 1.0000 -0.0001
vn 0.0019 0.9998 0.0220
vn -0.0000 1.0000 -0.0009
vn 0.0000 1.0000 -0.0003
vn 0.0000 1.0000 0.0001
vn 0.0000 1.0000 0.0002
vn 0.0000 1.0000 -0.0004
vn 0.0000 1.0000 -0.0007
vn -0.5726 0.0000 -0.8198
vn 0.0898 0.0000 -0.9960
vn -0.1174 0.0000 0.9931
vn 0.7387 0.0000 -0.6740
vn 0.7329 0.0000 0.6803
vn -0.9982 0.0000 -0.0605
vn 0.9976 0.0000 0.0692
vn 0.9345 0.0000 0.3559
vn 0.5949 0.0000 0.8038
vn -0.8466 0.0000 0.5323
vn -0.9640 0.0000 0.2659
vn -0.9944 0.0000 0.1054
vn -0.9995 0.0000 -0.0320
vn 0.9435 0.0000 0.3313
vn 0.9994 0.0000 0.0335
vn -0.0795 0.0000 -0.9968
vn -0.9870 0.0000 0.1609
vn -0.7346 0.0000 0.6785
vn 0.9941 0.0000 -0.1088
vn -0.7141 0.0000 -0.7000
vn 0.9647 0.0000 -0.2634
vn 0.9074 0.0000 -0.4203
vn -0.7345 0.0000 -0.6786
vn 0.6155 0.0000 -0.7882
vn -0.0886 0.0000 0.9961
vn -0.0000 0.0000 -1.0000
vn -0.3615 0.0000 0.9324
vn 0.8882 0.0000 0.4595
vn 0.5758 -0.0000 0.8176
vn 0.5759 -0.0000 0.8176
vn 0.9359 0.0000 -0.3523
vn 0.9982 0.0000 -0.0606
vn 0.4370 0.0000 0.8995
vn -0.9993 0.0000 0.0361
vn 0.9926 0.0000 0.1211
vn -0.9118 0.0000 0.4106
vn -0.9724 0.0000 -0.2334
vn 0.9947 0.0000 0.1033
vn -0.9998 0.0000 -0.0190
vn 0.0000 0.0000 1.0000
vn 0.9480 0.0000 -0.3183
vn -0.9653 0.0000 -0.2610
vn -0.2503 0.0000 -0.9682
vn 0.9832 0.0000 -0.1826
vn -0.8145 0.0000 -0.5801
vn -0.9346 0.0000 0.3556
vn -0.8420 0.0000 -0.5395
vn 0.5688 0.0000 -0.8225
vn -0.6107 0.0000 0.7919
vn 0.3635 -0.0000 0.9316
vn 0.3636 -0.0000 0.9316
vn 0.4589 0.0000 -0.8885
vn -0.1159 0.0000 -0.9933
vn 0.9998 0.0000 -0.0190
vn 0.8198 0.0000 0.5726
vn 0.9029 0.0000 0.4298
vn 0.8926 0.0000 -0.4508
vn -0.9863 0.0000 -0.1652
vn -0.9941 0.0000 0.1085
vn -0.5787 0.0000 0.8156
vn -0.9998 0.0000 0.0184
vn 0.3538 0.0000 -0.9353
vn 0.2608 0.0000 0.9654
vn -0.9507 0.0000 0.3100
vn -0.4233 0.0000 -0.9060
vn -0.9844 0.0000 -0.1760
vn 0.9836 0.0000 0.1802
vn 0.9838 0.0000 0.1790
vn 0.9942 0.0000 -0.1075
vn 0.7314 0.0000 -0.6819
vn -0.8906 0.0000 0.4548
vn 0.9721 0.0000 -0.2347
vn -0.8859 0.0000 -0.4638
vn -0.4542 0.0000 0.8909
vn -0.9086 0.0000 -0.4177
vn 0.2779 0.0000 -0.9606
vn 0.8373 0.0000 0.5468
vn -0.3570 0.0000 -0.9341
vn 0.8292 0.0000 -0.5590
vn 0.7234 0.0000 0.6905
vn 0.1197 0.0000 0.9928
vn -0.7404 0.0000 0.6722
vn -0.9941 0.0000 -0.1085
vn 0.9998 0.0000 0.0223
vn -0.9829 0.0000 0.1843
vn 0.1147 0.0000 -0.9934
vn 0.0835 0.0000 0.9965
vn -0.9950 0.0000 -0.1002
vn -0.9983 0.0000 0.0586
vn 0.9684 0.0000 0.2492
vn 0.9649 0.0000 0.2626
vn -0.5822 0.0000 -0.8131
vn -0.8261 0.0000 0.5635
vn 0.9994 0.0000 -0.0357
vn -0.9737 0.0000 0.2280
vn 0.9861 0.0000 -0.1660
vn 0.8399 0.0000 -0.5427
vn -0.9342 0.0000 -0.3568
vn -0.2745 0.0000 0.9616
vn -0.9486 0.0000 -0.3164
vn -0.0019 1.0000 -0.0006
vn -0.0001 1.0000 -0.0000
vn 0.0001 1.0000 0.0000
vn -0.0036 1.0000 -0.0008
vn 0.0001 1.0000 0.0002
vn 0.0003 1.0000 0.0003
vn -0.0001 1.0000 -0.0001
vn 0.0002 1.0000 0.0005
vn -0.0002 1.0000 -0.0004
vn -0.0011 1.0000 -0.0002
vn 0.0006 1.0000 0.0001
vn 0.0000 1.0000 0.0003
vn 0.0000 1.0000 -0.0006
vn -0.9066 0.0000 0.4219
vn -0.2434 0.0000 0.9699
vn -0.3029 0.0000 0.9530
vn -0.1654 0.0000 -0.9862
vn -1.0000 0.0000 0.0000
vn -1.0000 0.0000 0.0087
vn -0.9963 0.0000 -0.0860
vn -0.3733 0.0000 0.9277
vn 1.0000 -0.0000 0.0099
vn 1.0000 -0.0000 0.0000
vn -0.0213 0.0000 -0.9998
vn 0.8976 0.0000 0.4408
vn -0.2206 0.0000 0.9754
vn 0.2300 0.0000 0.9732
vn -0.9712 0.0000 0.2384
vn -0.0949 0.0000 -0.9955
vn -0.3839 0.0000 0.9234
vn -0.0719 0.0000 0.9974
vn -0.2834 0.0000 0.9590
vn -0.6737 0.0000 -0.7390
vn -1.0000 -0.0000 -0.0068
vn -0.1003 0.0000 0.9950
vn -0.9839 0.0000 -0.1790
vn 0.3657 0.0000 0.9307
vn -0.3570 0.0000 0.9341
vn 0.9677 0.0000 0.2520
vn -0.0586 0.0000 -0.9983
vn -0.0585 0.0000 -0.9983
vn -0.1985 0.0000 0.9801
vn 0.0693 0.0000 0.9976
vn -0.5736 0.0000 0.8191
vn -0.4628 0.0000 -0.8865
vn -0.4628 0.0000 -0.8864
vn -0.3397 0.0000 0.9405
vn -0.9933 0.0000 0.1152
vn -0.1533 0.0000 0.9882
vn 0.5530 0.0000 0.8332
vn -0.9450 0.0000 -0.3270
vn 0.9923 0.0000 0.1235
vn -0.2631 0.0000 0.9648
vn -0.1758 0.0000 0.9844
vn 0.0948 0.0000 0.9955
vn -0.7695 0.0000 0.6386
vn -0.2850 0.0000 -0.9585
vn -0.3217 0.0000 0.9468
vn -0.9990 0.0000 0.0439
vn -0.3888 0.0000 0.9213
vn 0.9988 0.0000 0.0480
vn -0.9995 0.0000 -0.0331
vn 0.7528 0.0000 0.6582
vn -0.8483 0.0000 -0.5294
vn -0.8484 0.0000 -0.5294
vn -0.2422 0.0000 0.9702
vn 0.1443 0.0000 0.9895
usemtl N10
s 1
f 1//1 2//1 3//1
f 1//1 4//1 2//1
f 1//1 5//1 4//1
f 6//1 5//1 1//1
f 6//1 7//1 5//1
f 8//1 7//1 6//1
f 8//1 9//1 7//1
f 10//1 11//2 8//1
f 11//2 12//1 8//1
f 12//1 9//1 8//1
f 10//1 13//1 11//2
f 14//1 9//1 12//1
f 10//1 15//1 13//1
f 16//1 9//1 14//1
f 16//1 17//1 9//1
f 10//1 18//1 15//1
f 19//1 17//1 16//1
f 20//1 18//1 10//1
f 20//1 21//1 18//1
f 22//1 17//1 19//1
f 22//1 23//1 17//1
f 24//1 21//1 20//1
f 24//1 25//1 21//1
f 26//1 23//1 22//1
f 26//1 27//1 23//1
f 24//1 28//1 25//1
f 29//1 27//1 26//1
f 30//1 28//1 24//1
f 30//1 31//1 28//1
f 32//1 27//1 29//1
f 32//1 33//1 27//1
f 34//1 31//1 30//1
f 34//1 35//1 31//1
f 36//1 33//1 32//1
f 36//1 37//1 33//1
f 38//1 35//1 34//1
f 39//1 37//1 36//1
f 38//1 40//1 35//1
f 39//1 41//1 37//1
f 42//1 40//1 38//1
f 43//1 41//1 39//1
f 42//1 44//1 40//1
f 43//1 45//1 41//1
f 46//1 44//1 42//1
f 46//1 47//1 44//1
f 48//1 45//1 43//1
f 48//1 49//1 45//1
f 50//1 47//1 46//1
f 50//1 51//1 47//1
f 52//1 49//1 48//1
f 53//1 51//1 50//1
f 53//1 54//1 51//1
f 55//1 49//1 52//1
f 55//1 56//1 49//1
f 53//1 57//1 54//1
f 58//1 56//1 55//1
f 58//1 59//1 56//1
f 60//1 57//1 53//1
f 60//1 61//1 57//1
f 62//1 59//1 58//1
f 62//1 63//1 59//1
f 64//1 61//1 60//1
f 64//1 65//1 61//1
f 66//1 63//1 62//1
f 66//1 67//1 63//1
f 68//1 65//1 64//1
f 68//1 69//1 65//1
f 70//1 67//1 66//1
f 70//1 71//1 67//1
f 72//1 69//1 68//1
f 72//1 73//1 69//1
f 74//1 71//1 70//1
f 74//1 75//1 71//1
f 76//1 73//1 72//1
f 76//1 77//1 73//1
f 78//1 75//1 74//1
f 78//1 79//1 75//1
f 76//1 80//1 77//1
f 81//1 79//1 78//1
f 82//1 80//1 76//1
f 82//1 83//1 80//1
f 84//1 79//1 81//1
f 84//1 85//1 79//1
f 86//1 83//1 82//1
f 86//1 87//1 83//1
f 88//1 85//1 84//1
f 86//1 89//1 87//1
f 90//1 85//1 88//1
f 90//1 91//1 85//1
f 92//1 89//1 86//1
f 92//1 93//1 89//1
f 93//1 91//1 90//1
f 92//1 91//1 93//1
f 92//1 94//1 91//1
f 95//1 94//1 92//1
f 95//1 96//1 94//1
f 97//1 96//1 95//1
f 97//1 98//1 96//1
f 99//3 100//3 101//3
f 99//3 101//3 102//3
f 99//3 102//3 103//4
f 104//3 99//3 103//4
f 104//3 103//4 105//4
f 106//5 104//3 105//4
f 106//5 105//4 107//6
f 108//7 106//3 109//3
f 109//8 106//8 110//8
f 110//9 106//5 107//6
f 108//7 109//3 111//3
f 112//3 110//9 107//6
f 108//7 111//3 113//3
f 114//10 112//3 107//6
f 114//10 107//6 115//3
f 108//7 113//3 116//11
f 117//4 114//10 115//3
f 118//11 108//7 116//11
f 118//11 116//11 119//3
f 120//11 117//4 115//3
f 120//11 115//3 121//7
f 122//3 118//11 119//3
f 122//3 119//3 123//7
f 124//3 120//11 121//7
f 124//3 121//7 125//3
f 122//3 123//7 126//3
f 127//3 124//3 125//3
f 128//3 122//3 126//3
f 128//3 126//3 129//3
f 130//3 127//3 125//3
f 130//3 125//3 131//3
f 132//3 128//3 129//3
f 132//3 129//3 133//3
f 134//3 130//3 131//3
f 134//3 131//3 135//3
f 136//3 132//3 133//3
f 137//3 134//3 135//3
f 136//3 133//3 138//3
f 137//3 135//3 139//3
f 140//3 136//3 138//3
f 141//3 137//3 139//3
f 140//3 138//3 142//3
f 141//3 139//3 143//3
f 144//3 140//3 142//3
f 144//3 142//3 145//3
f 146//3 141//3 143//3
f 146//3 143//3 147//3
f 148//3 144//3 145//3
f 148//3 145//3 149//3
f 150//3 146//3 147//3
f 151//3 148//3 149//3
f 151//3 149//3 152//3
f 153//3 150//3 147//3
f 153//3 147//3 154//3
f 151//3 152//3 155//3
f 156//3 153//3 154//3
f 156//3 154//3 157//3
f 158//3 151//3 155//3
f 158//3 155//3 159//3
f 160//3 156//3 157//3
f 160//3 157//3 161//3
f 162//3 158//3 159//3
f 162//3 159//3 163//3
f 164//3 160//3 161//3
f 164//3 161//3 165//3
f 166//3 162//3 163//3
f 166//3 163//3 167//3
f 168//3 164//3 165//3
f 168//3 165//3 169//3
f 170//3 166//3 167//3
f 170//3 167//3 171//3
f 172//3 168//3 169//3
f 172//3 169//3 173//3
f 174//3 170//3 171//3
f 174//3 171//3 175//3
f 176//3 172//3 173//3
f 176//3 173//3 177//3
f 174//3 175//3 178//7
f 179//11 176//3 177//3
f 180//3 174//3 178//7
f 180//3 178//7 181//11
f 182//3 179//11 177//3
f 182//3 177//3 183//7
f 184//3 180//3 181//11
f 184//3 181//11 185//3
f 186//7 182//3 183//7
f 184//3 185//3 187//3
f 188//3 186//7 183//7
f 188//3 183//7 189//11
f 190//3 184//3 187//3
f 190//3 187//3 191//3
f 191//3 188//3 189//11
f 190//3 191//3 189//11
f 190//3 189//11 192//3
f 193//12 190//3 192//3
f 193//12 192//3 194//10
f 195//13 193//12 194//10
f 195//13 194//10 196//14
f 19//15 16//15 114//15
f 114//15 117//15 19//15
f 96//16 98//16 196//16
f 196//16 194//16 96//16
f 93//17 90//17 188//17
f 188//17 191//17 93//17
f 79//18 85//18 183//18
f 183//18 177//18 79//18
f 80//19 83//19 181//19
f 181//19 178//19 80//19
f 48//20 43//20 141//20
f 141//20 146//20 48//20
f 54//21 57//21 155//21
f 155//21 152//21 54//21
f 27//22 33//22 131//22
f 131//22 125//22 27//22
f 7//23 9//23 107//23
f 107//23 105//23 7//23
f 81//24 78//24 176//24
f 176//24 179//24 81//24
f 38//25 34//25 132//25
f 132//25 136//25 38//25
f 62//26 58//26 156//26
f 156//26 160//26 62//26
f 53//27 50//27 148//27
f 148//27 151//27 53//27
f 69//28 73//28 171//28
f 171//28 167//28 69//28
f 45//29 49//29 147//29
f 147//29 143//29 45//29
f 98//30 97//30 195//30
f 195//30 196//30 98//30
f 66//31 62//31 160//31
f 160//31 164//31 66//31
f 20//32 10//32 108//32
f 108//32 118//32 20//32
f 40//33 44//33 142//33
f 142//33 138//33 40//33
f 86//34 82//34 180//34
f 180//34 184//34 86//34
f 63//35 67//35 165//35
f 165//35 161//35 63//35
f 25//36 28//36 126//36
f 126//36 123//36 25//36
f 22//37 19//37 117//37
f 117//37 120//37 22//37
f 85//38 91//38 189//38
f 189//38 183//38 85//38
f 1//39 3//39 100//39
f 100//39 99//39 1//39
f 12//40 11//40 109//40
f 109//40 110//40 12//40
f 90//41 88//41 186//41
f 186//41 188//41 90//41
f 23//42 27//42 125//42
f 125//42 121//42 23//42
f 83//43 87//44 185//43
f 185//43 181//43 83//43
f 67//45 71//45 169//45
f 169//45 165//45 67//45
f 44//46 47//46 145//46
f 145//46 142//46 44//46
f 5//47 7//47 105//47
f 105//47 103//47 5//47
f 50//48 46//48 144//48
f 144//48 148//48 50//48
f 57//49 61//49 159//49
f 159//49 155//49 57//49
f 78//50 74//50 172//50
f 172//50 176//50 78//50
f 36//51 32//51 130//51
f 130//51 134//51 36//51
f 41//52 45//52 143//52
f 143//52 139//52 41//52
f 52//53 48//53 146//53
f 146//53 150//53 52//53
f 3//54 2//54 101//54
f 101//54 100//54 3//54
f 28//55 31//55 129//55
f 129//55 126//55 28//55
f 68//56 64//56 162//56
f 162//56 166//56 68//56
f 97//57 95//57 193//57
f 193//57 195//57 97//57
f 59//58 63//58 161//58
f 161//58 157//58 59//58
f 82//59 76//59 174//59
f 174//59 180//59 82//59
f 34//60 30//60 128//60
f 128//60 132//60 34//60
f 26//61 22//61 120//61
f 120//61 124//61 26//61
f 15//62 18//62 116//62
f 116//62 113//62 15//62
f 10//63 8//63 106//63
f 106//63 108//63 10//63
f 87//64 89//64 187//65
f 187//65 185//65 87//64
f 91//66 94//66 192//66
f 192//66 189//66 91//66
f 14//67 12//67 110//67
f 110//67 112//67 14//67
f 47//68 51//68 149//68
f 149//68 145//68 47//68
f 17//69 23//69 121//69
f 121//69 115//69 17//69
f 73//70 77//70 175//70
f 175//70 171//70 73//70
f 71//71 75//71 173//71
f 173//71 169//71 71//71
f 39//72 36//72 134//72
f 134//72 137//72 39//72
f 46//73 42//73 140//73
f 140//73 144//73 46//73
f 88//74 84//74 182//74
f 182//74 186//74 88//74
f 55//75 52//75 150//75
f 150//75 153//75 55//75
f 13//76 15//76 113//76
f 113//76 111//76 13//76
f 4//77 5//77 103//77
f 103//77 102//77 4//77
f 74//78 70//78 168//78
f 168//78 172//78 74//78
f 95//79 92//79 190//79
f 190//79 193//79 95//79
f 64//80 60//80 158//80
f 158//80 162//80 64//80
f 61//81 65//81 163//81
f 163//81 159//81 61//81
f 37//82 41//82 139//82
f 139//82 135//82 37//82
f 56//83 59//83 157//83
f 157//83 154//83 56//83
f 18//84 21//84 119//84
f 119//84 116//84 18//84
f 30//85 24//85 122//85
f 122//85 128//85 30//85
f 31//86 35//86 133//86
f 133//86 129//86 31//86
f 76//87 72//87 170//87
f 170//87 174//87 76//87
f 8//88 6//88 104//88
f 104//88 106//88 8//88
f 29//89 26//89 124//89
f 124//89 127//89 29//89
f 94//90 96//90 194//90
f 194//90 192//90 94//90
f 77//91 80//91 178//91
f 178//91 175//91 77//91
f 16//92 14//92 112//92
f 112//92 114//92 16//92
f 75//93 79//93 177//93
f 177//93 173//93 75//93
f 9//94 17//94 115//94
f 115//94 107//94 9//94
f 89//95 93//95 191//95
f 191//95 187//95 89//95
f 84//96 81//96 179//96
f 179//96 182//96 84//96
f 43//97 39//97 137//97
f 137//97 141//97 43//97
f 51//98 54//98 152//98
f 152//98 149//98 51//98
f 42//99 38//99 136//99
f 136//99 140//99 42//99
f 11//100 13//100 111//100
f 111//100 109//100 11//100
f 2//101 4//101 102//101
f 102//101 101//101 2//101
f 60//102 53//102 151//102
f 151//102 158//102 60//102
f 58//103 55//103 153//103
f 153//103 156//103 58//103
f 65//104 69//104 167//104
f 167//104 163//104 65//104
f 33//105 37//105 135//105
f 135//105 131//105 33//105
f 92//106 86//106 184//106
f 184//106 190//106 92//106
f 24//107 20//107 118//107
f 118//107 122//107 24//107
f 49//108 56//108 154//108
f 154//108 147//108 49//108
f 70//109 66//109 164//109
f 164//109 168//109 70//109
f 35//110 40//110 138//110
f 138//110 133//110 35//110
f 21//111 25//111 123//111
f 123//111 119//111 21//111
f 72//112 68//112 166//112
f 166//112 170//112 72//112
f 6//113 1//113 99//113
f 99//113 104//113 6//113
f 32//114 29//114 127//114
f 127//114 130//114 32//114
f 197//1 198//1 199//1
f 200//1 198//1 197//1
f 201//1 198//1 200//1
f 202//1 198//1 201//1
f 203//1 198//1 202//1
f 204//1 198//1 203//1
f 205//1 206//1 204//1
f 206//1 198//1 204//1
f 207//1 208//1 205//1
f 208//1 206//1 205//1
f 209//1 210//1 207//1
f 210//1 208//1 207//1
f 211//1 212//1 209//1
f 212//1 210//1 209//1
f 213//1 212//1 211//1
f 214//1 215//1 213//1
f 215//1 212//1 213//1
f 216//1 217//1 214//1
f 217//1 218//1 214//1
f 218//1 219//1 214//1
f 219//1 220//1 214//1
f 220//1 215//1 214//1
f 221//1 198//1 206//1
f 222//1 198//1 221//1
f 223//1 198//1 222//1
f 224//1 198//1 223//1
f 225//1 198//1 224//1
f 226//1 198//1 225//1
f 226//1 227//1 198//1
f 228//1 227//1 226//1
f 228//1 229//1 227//1
f 230//1 229//1 228//1
f 230//1 231//1 229//1
f 232//1 231//1 230//1
f 232//1 233//1 231//1
f 234//1 233//1 232//1
f 234//1 235//1 233//1
f 236//1 235//1 234//1
f 236//1 237//1 235//1
f 238//1 237//1 236//1
f 238//1 239//1 237//1
f 240//1 239//1 238//1
f 240//1 241//1 239//1
f 242//1 241//1 240//1
f 242//1 243//1 241//1
f 244//1 243//1 242//1
f 244//1 245//1 243//1
f 246//1 245//1 244//1
f 246//1 247//1 245//1
f 248//1 247//1 246//1
f 248//1 249//1 247//1
f 250//1 249//1 248//1
f 250//1 251//1 249//1
f 252//3 253//3 254//115
f 255//3 252//3 254//115
f 256//116 255//3 254//115
f 257//3 256//116 254//115
f 258//117 257//3 254//115
f 259//3 258//117 254//115
f 260//3 259//3 261//118
f 261//118 259//3 254//115
f 262//116 260//3 263//3
f 263//3 260//3 261//118
f 264//116 262//116 265//3
f 265//3 262//116 263//3
f 266//119 264//116 267//120
f 267//120 264//116 265//3
f 268//121 266//119 267//120
f 269//3 268//121 270//11
f 270//11 268//121 267//120
f 271//11 269//3 272//122
f 272//122 269//3 273//119
f 273//119 269//3 274//123
f 274//123 269//3 275//3
f 275//3 269//3 270//11
f 276//124 261//118 254//115
f 277//125 276//124 254//115
f 278//3 277//125 254//115
f 279//3 278//3 254//115
f 280//3 279//3 254//115
f 281//3 280//3 254//115
f 281//3 254//115 282//3
f 283//3 281//3 282//3
f 283//3 282//3 284//7
f 285//3 283//3 284//7
f 285//3 284//7 286//3
f 287//3 285//3 286//3
f 287//3 286//3 288//11
f 289//3 287//3 288//11
f 289//3 288//11 290//11
f 291//10 289//3 290//11
f 291//10 290//11 292//3
f 293//3 291//10 292//3
f 293//3 292//3 294//126
f 295//11 293//3 294//126
f 295//11 294//126 296//3
f 297//3 295//11 296//3
f 297//3 296//3 298//3
f 299//10 297//3 298//3
f 299//10 298//3 300//13
f 301//127 299//10 300//13
f 301//127 300//13 302//7
f 303//11 301//127 302//7
f 303//11 302//7 304//3
f 305//11 303//11 304//3
f 305//11 304//3 306//3
f 234//128 232//128 287//128
f 287//128 289//128 234//128
f 242//129 240//129 295//129
f 295//129 297//129 242//129
f 204//130 203//130 258//130
f 258//130 259//130 204//130
f 220//131 219//131 274//131
f 274//131 275//131 220//131
f 250//132 248//132 303//132
f 303//132 305//132 250//132
f 226//133 225//132 280//133
f 280//133 281//133 226//133
f 222//134 221//134 276//134
f 276//134 277//134 222//134
f 200//135 197//135 252//135
f 252//135 255//135 200//135
f 198//136 227//136 282//136
f 282//136 254//137 198//136
f 217//138 216//138 271//138
f 271//138 272//138 217//138
f 233//139 235//139 290//139
f 290//139 288//139 233//139
f 211//140 209//140 264//140
f 264//140 266//140 211//140
f 241//141 243//141 298//141
f 298//141 296//141 241//141
f 232//142 230//142 285//142
f 285//142 287//142 232//142
f 219//143 218//143 273//143
f 273//143 274//143 219//143
f 240//144 238//144 293//144
f 293//144 295//144 240//144
f 248//145 246//145 301//145
f 301//145 303//145 248//145
f 205//146 204//146 259//146
f 259//146 260//146 205//146
f 210//147 212//147 267//147
f 267//147 265//147 210//147
f 249//137 251//137 306//137
f 306//137 304//137 249//137
f 225//132 224//148 279//132
f 279//132 280//133 225//132
f 246//149 244//149 299//149
f 299//149 301//149 246//149
f 221//150 206//150 261//150
f 261//150 276//150 221//150
f 239//151 241//151 296//151
f 296//151 294//151 239//151
f 201//152 200//152 255//152
f 255//152 256//152 201//152
f 231//153 233//153 288//153
f 288//153 286//153 231//153
f 218//154 217//154 272//155
f 272//155 273//155 218//154
f 213//156 211//156 266//156
f 266//156 268//156 213//156
f 247//157 249//157 304//157
f 304//157 302//157 247//157
f 238//158 236//158 291//158
f 291//158 293//158 238//158
f 251//40 250//40 305//40
f 305//40 306//40 251//40
f 212//159 215//159 270//160
f 270//160 267//160 212//159
f 202//161 201//161 256//161
f 256//161 257//161 202//161
f 230//162 228//162 283//162
f 283//162 285//162 230//162
f 224//148 223//148 278//148
f 278//148 279//132 224//148
f 199//137 198//136 254//137
f 254//137 253//137 199//137
f 244//163 242//163 297//163
f 297//163 299//163 244//163
f 237//164 239//164 294//164
f 294//164 292//164 237//164
f 206//165 208//165 263//165
f 263//165 261//165 206//165
f 229//166 231//166 286//166
f 286//166 284//166 229//166
f 207//167 205//167 260//167
f 260//167 262//167 207//167
f 214//168 213//168 268//168
f 268//168 269//168 214//168
f 245//169 247//169 302//169
f 302//169 300//169 245//169
f 236//170 234//170 289//170
f 289//170 291//170 236//170
f 215//171 220//171 275//171
f 275//171 270//171 215//171
f 203//172 202//172 257//172
f 257//172 258//172 203//172
f 228//173 226//173 281//173
f 281//173 283//173 228//173
f 197//174 199//174 253//174
f 253//174 252//174 197//174
f 227//175 229//175 284//175
f 284//175 282//175 227//175
f 223//176 222//176 277//176
f 277//176 278//176 223//176
f 235//177 237//177 292//177
f 292//177 290//177 235//177
f 208//178 210//178 265//179
f 265//179 263//179 208//178
f 209//180 207//180 262//180
f 262//180 264//180 209//180
f 243//181 245//181 300//181
f 300//181 298//181 243//181
f 216//132 214//132 269//132
f 269//132 271//132 216//132
