# Blender v2.90.0 OBJ File: ''
# www.blender.org
mtllib N11.mtl
o N11
v 0.378284 -0.060807 0.505324
v 0.401223 -0.060807 -0.276083
v 0.401223 -0.060807 0.515004
v 0.354895 -0.060807 0.495913
v 0.331049 -0.060807 0.486800
v 0.306734 -0.060807 0.478017
v 0.281941 -0.060807 0.469592
v 0.256661 -0.060807 0.461556
v 0.230881 -0.060807 0.453938
v 0.263157 -0.060807 0.338428
v 0.204594 -0.060807 0.446768
v 0.259829 -0.060807 0.348046
v 0.177788 -0.060807 0.440078
v 0.255106 -0.060807 0.355615
v 0.150455 -0.060807 0.433895
v 0.248749 -0.060807 0.361410
v 0.122583 -0.060807 0.428250
v 0.094163 -0.060807 0.423174
v 0.240519 -0.060807 0.365708
v 0.094163 -0.060807 0.375344
v 0.184081 -0.060807 0.373431
v 0.202196 -0.060807 0.372369
v 0.217481 -0.060807 0.370912
v 0.230175 -0.060807 0.368783
v 0.265330 -0.060807 0.326485
v 0.266585 -0.060807 0.311940
v 0.267163 -0.060807 0.294520
v 0.267302 -0.060807 0.273948
v 0.267302 -0.060807 -0.276083
v 0.267038 -0.060807 -0.306441
v 0.401527 -0.060807 -0.306843
v 0.265903 -0.060807 -0.332263
v 0.402782 -0.060807 -0.332928
v 0.263387 -0.060807 -0.353954
v 0.405498 -0.060807 -0.354761
v 0.258976 -0.060807 -0.371917
v 0.410186 -0.060807 -0.372767
v 0.252162 -0.060807 -0.386559
v 0.417359 -0.060807 -0.387373
v 0.242432 -0.060807 -0.398285
v 0.427529 -0.060807 -0.399003
v 0.229273 -0.060807 -0.407500
v 0.441205 -0.060807 -0.408081
v 0.212176 -0.060807 -0.414609
v 0.458901 -0.060807 -0.415034
v 0.190627 -0.060807 -0.420017
v 0.481127 -0.060807 -0.420286
v 0.164116 -0.060807 -0.424130
v 0.508395 -0.060807 -0.424263
v 0.132132 -0.060807 -0.427353
v 0.541216 -0.060807 -0.427389
v 0.094163 -0.060807 -0.430091
v 0.580102 -0.060807 -0.430091
v 0.094163 -0.060807 -0.485573
v 0.580102 -0.060807 -0.485573
v 0.378284 0.060809 0.505324
v 0.401223 0.060809 0.515004
v 0.401223 0.060809 -0.276083
v 0.354895 0.060809 0.495913
v 0.331049 0.060809 0.486800
v 0.306734 0.060809 0.478017
v 0.281941 0.060809 0.469592
v 0.256661 0.060809 0.461556
v 0.230881 0.060809 0.453938
v 0.263157 0.060809 0.338428
v 0.204594 0.060804 0.446768
v 0.259829 0.060809 0.348046
v 0.177788 0.060809 0.440078
v 0.255106 0.060809 0.355615
v 0.150455 0.060804 0.433895
v 0.248749 0.060809 0.361410
v 0.122583 0.060809 0.428250
v 0.094163 0.060804 0.423174
v 0.240519 0.060804 0.365708
v 0.094163 0.060809 0.375344
v 0.184081 0.060809 0.373431
v 0.202196 0.060809 0.372369
v 0.217481 0.060804 0.370912
v 0.230175 0.060809 0.368783
v 0.265330 0.060809 0.326485
v 0.266585 0.060809 0.311940
v 0.267163 0.060809 0.294520
v 0.267302 0.060804 0.273948
v 0.267302 0.060809 -0.276083
v 0.267038 0.060809 -0.306441
v 0.401527 0.060809 -0.306843
v 0.265903 0.060804 -0.332263
v 0.402782 0.060809 -0.332928
v 0.263387 0.060809 -0.353954
v 0.405498 0.060809 -0.354761
v 0.258976 0.060809 -0.371917
v 0.410186 0.060809 -0.372767
v 0.252162 0.060809 -0.386559
v 0.417359 0.060809 -0.387373
v 0.242432 0.060809 -0.398285
v 0.427529 0.060809 -0.399003
v 0.229273 0.060809 -0.407500
v 0.441205 0.060805 -0.408081
v 0.212176 0.060809 -0.414609
v 0.458901 0.060809 -0.415034
v 0.190627 0.060805 -0.420017
v 0.481127 0.060805 -0.420286
v 0.164116 0.060809 -0.424130
v 0.508395 0.060809 -0.424263
v 0.132132 0.060805 -0.427353
v 0.541216 0.060809 -0.427389
v 0.094163 0.060805 -0.430091
v 0.580102 0.060809 -0.430091
v 0.094163 0.060809 -0.485573
v 0.580102 0.060809 -0.485573
v -0.201502 -0.060807 0.505324
v -0.178562 -0.060807 -0.276083
v -0.178562 -0.060807 0.515004
v -0.224890 -0.060807 0.495913
v -0.248736 -0.060807 0.486800
v -0.273050 -0.060807 0.478017
v -0.297843 -0.060807 0.469592
v -0.323125 -0.060807 0.461556
v -0.348904 -0.060807 0.453938
v -0.316627 -0.060807 0.338428
v -0.375191 -0.060807 0.446768
v -0.319956 -0.060807 0.348046
v -0.401997 -0.060807 0.440078
v -0.324679 -0.060807 0.355615
v -0.429331 -0.060807 0.433895
v -0.331036 -0.060807 0.361410
v -0.457203 -0.060807 0.428250
v -0.485623 -0.060807 0.423174
v -0.339267 -0.060807 0.365708
v -0.485623 -0.060807 0.375344
v -0.395704 -0.060807 0.373431
v -0.377590 -0.060807 0.372369
v -0.362304 -0.060807 0.370912
v -0.349610 -0.060807 0.368783
v -0.314456 -0.060807 0.326485
v -0.313200 -0.060807 0.311940
v -0.312622 -0.060807 0.294520
v -0.312482 -0.060807 0.273948
v -0.312482 -0.060807 -0.276083
v -0.312747 -0.060807 -0.306441
v -0.178258 -0.060807 -0.306843
v -0.313882 -0.060807 -0.332263
v -0.177003 -0.060807 -0.332928
v -0.316399 -0.060807 -0.353954
v -0.174288 -0.060807 -0.354761
v -0.320808 -0.060807 -0.371917
v -0.169598 -0.060807 -0.372767
v -0.327623 -0.060807 -0.386559
v -0.162425 -0.060807 -0.387373
v -0.337354 -0.060807 -0.398285
v -0.152256 -0.060807 -0.399003
v -0.350512 -0.060807 -0.407500
v -0.138580 -0.060807 -0.408081
v -0.367610 -0.060807 -0.414609
v -0.120884 -0.060807 -0.415034
v -0.389158 -0.060807 -0.420017
v -0.098658 -0.060807 -0.420286
v -0.415668 -0.060807 -0.424130
v -0.071391 -0.060807 -0.424263
v -0.447652 -0.060807 -0.427353
v -0.038569 -0.060807 -0.427389
v -0.485623 -0.060807 -0.430091
v 0.000318 -0.060807 -0.430091
v -0.485623 -0.060807 -0.485573
v 0.000318 -0.060807 -0.485573
v -0.201502 0.060809 0.505324
v -0.178562 0.060809 0.515004
v -0.178562 0.060804 -0.276083
v -0.224890 0.060809 0.495913
v -0.248736 0.060809 0.486800
v -0.273050 0.060804 0.478017
v -0.297843 0.060809 0.469592
v -0.323125 0.060809 0.461556
v -0.348904 0.060809 0.453938
v -0.316627 0.060809 0.338428
v -0.375191 0.060809 0.446768
v -0.319956 0.060809 0.348046
v -0.401997 0.060804 0.440078
v -0.324679 0.060809 0.355615
v -0.429331 0.060804 0.433895
v -0.331036 0.060809 0.361410
v -0.457203 0.060809 0.428250
v -0.485623 0.060804 0.423174
v -0.339267 0.060809 0.365708
v -0.485623 0.060809 0.375344
v -0.395704 0.060809 0.373431
v -0.377590 0.060804 0.372369
v -0.362304 0.060809 0.370912
v -0.349610 0.060809 0.368783
v -0.314456 0.060804 0.326485
v -0.313200 0.060809 0.311940
v -0.312622 0.060809 0.294520
v -0.312482 0.060809 0.273948
v -0.312482 0.060809 -0.276083
v -0.312747 0.060809 -0.306441
v -0.178258 0.060809 -0.306843
v -0.313882 0.060809 -0.332263
v -0.177003 0.060804 -0.332928
v -0.316399 0.060809 -0.353954
v -0.174288 0.060804 -0.354761
v -0.320808 0.060809 -0.371917
v -0.169598 0.060805 -0.372767
v -0.327623 0.060809 -0.386559
v -0.162425 0.060809 -0.387373
v -0.337354 0.060809 -0.398285
v -0.152256 0.060809 -0.399003
v -0.350512 0.060805 -0.407500
v -0.138580 0.060809 -0.408081
v -0.367610 0.060809 -0.414609
v -0.120884 0.060809 -0.415034
v -0.389158 0.060809 -0.420017
v -0.098658 0.060809 -0.420286
v -0.415668 0.060809 -0.424130
v -0.071391 0.060809 -0.424263
v -0.447652 0.060805 -0.427353
v -0.038569 0.060809 -0.427389
v -0.485623 0.060805 -0.430091
v 0.000318 0.060809 -0.430091
v -0.485623 0.060809 -0.485573
v 0.000318 0.060809 -0.485573
vn 0.0000 -1.0000 0.0000
vn 0.0000 -1.0000 -0.0003
vn 0.0000 1.0000 0.0000
vn -0.0001 1.0000 -0.0000
vn 0.0003 1.0000 0.0002
vn 0.0001 1.0000 0.0001
vn 0.0000 1.0000 0.0001
vn 0.0001 1.0000 0.0002
vn 0.0006 1.0000 0.0016
vn -0.0001 1.0000 -0.0003
vn 0.0007 1.0000 0.0017
vn -0.0312 0.9978 -0.0589
vn 0.0001 1.0000 0.0003
vn 0.0001 1.0000 0.0004
vn -0.0005 1.0000 -0.0001
vn -0.0003 1.0000 -0.0001
vn -0.0000 1.0000 -0.0001
vn 0.0000 1.0000 -0.0003
vn 0.0000 1.0000 0.0004
vn 0.0000 1.0000 -0.0002
vn -0.0000 1.0000 -0.0004
vn 0.0000 1.0000 0.0006
vn 0.0000 1.0000 -0.0005
vn -0.1003 0.0000 0.9950
vn -0.1985 0.0000 0.9801
vn -0.0586 0.0000 -0.9983
vn -0.0585 0.0000 -0.9983
vn -1.0000 -0.0000 0.0000
vn -1.0000 -0.0000 -0.0068
vn -1.0000 -0.0000 0.0087
vn -0.9712 0.0000 0.2384
vn 0.8976 0.0000 0.4408
vn 1.0000 -0.0000 0.0099
vn 1.0000 -0.0000 -0.0000
vn -0.9839 0.0000 -0.1790
vn -0.2206 0.0000 0.9754
vn 0.2300 0.0000 0.9732
vn -0.3029 0.0000 0.9530
vn -0.4628 0.0000 -0.8864
vn -0.0719 0.0000 0.9974
vn -0.0213 0.0000 -0.9998
vn -0.3839 0.0000 0.9234
vn -0.2850 0.0000 -0.9585
vn -0.9066 0.0000 0.4219
vn 0.9988 0.0000 0.0480
vn -0.9963 0.0000 -0.0860
vn -0.3733 0.0000 0.9277
vn -0.2422 0.0000 0.9702
vn -0.6737 0.0000 -0.7390
vn -0.3217 0.0000 0.9468
vn 0.7528 0.0000 0.6583
vn 0.1443 0.0000 0.9895
vn -0.2434 0.0000 0.9699
vn -0.9990 0.0000 0.0439
vn -0.1654 0.0000 -0.9862
vn 0.9924 0.0000 0.1234
vn -0.7695 0.0000 0.6386
vn -0.2631 0.0000 0.9648
vn -0.3888 0.0000 0.9213
vn -0.9995 0.0000 -0.0331
vn -0.8484 0.0000 -0.5294
vn 0.5530 0.0000 0.8332
vn -0.3397 0.0000 0.9405
vn 0.0948 0.0000 0.9955
vn -0.1758 0.0000 0.9844
vn -0.1533 0.0000 0.9882
vn -0.0949 0.0000 -0.9955
vn -0.9933 0.0000 0.1152
vn 0.0000 0.0000 -1.0000
vn 0.9677 0.0000 0.2520
vn -0.5736 0.0000 0.8191
vn -0.2834 0.0000 0.9590
vn 0.3657 0.0000 0.9307
vn -0.9450 0.0000 -0.3270
vn -0.3570 0.0000 0.9341
vn 0.0693 0.0000 0.9976
vn -0.0019 1.0000 -0.0006
vn 0.0001 1.0000 0.0000
vn -0.0036 1.0000 -0.0008
vn -0.0001 1.0000 -0.0001
vn -0.0002 1.0000 -0.0004
vn -0.0010 1.0000 -0.0002
vn 0.0006 1.0000 0.0001
vn 0.0000 1.0000 0.0002
vn 0.0000 1.0000 -0.0006
vn -0.9839 0.0000 -0.1789
vn -0.9933 0.0000 0.1153
vn -0.9994 0.0000 -0.0332
vn -0.2435 0.0000 0.9699
vn -0.9066 0.0000 0.4220
vn 0.7528 0.0000 0.6582
usemtl N11
s 1
f 1//1 2//1 3//1
f 4//1 2//1 1//1
f 5//1 2//1 4//1
f 6//1 2//1 5//1
f 7//1 2//1 6//1
f 8//1 2//1 7//1
f 9//1 10//1 8//1
f 10//1 2//1 8//1
f 11//1 12//1 9//1
f 12//1 10//1 9//1
f 13//1 14//1 11//1
f 14//1 12//1 11//1
f 15//1 16//1 13//1
f 16//1 14//1 13//1
f 17//1 16//1 15//1
f 18//1 19//2 17//1
f 19//2 16//1 17//1
f 20//1 21//1 18//1
f 21//1 22//1 18//1
f 22//1 23//1 18//1
f 23//1 24//1 18//1
f 24//1 19//2 18//1
f 25//1 2//1 10//1
f 26//1 2//1 25//1
f 27//1 2//1 26//1
f 28//1 2//1 27//1
f 29//1 2//1 28//1
f 30//1 2//1 29//1
f 30//1 31//1 2//1
f 32//1 31//1 30//1
f 32//1 33//1 31//1
f 34//1 33//1 32//1
f 34//1 35//1 33//1
f 36//1 35//1 34//1
f 36//1 37//1 35//1
f 38//1 37//1 36//1
f 38//1 39//1 37//1
f 40//1 39//1 38//1
f 40//1 41//1 39//1
f 42//1 41//1 40//1
f 42//1 43//1 41//1
f 44//1 43//1 42//1
f 44//1 45//1 43//1
f 46//1 45//1 44//1
f 46//1 47//1 45//1
f 48//1 47//1 46//1
f 48//1 49//1 47//1
f 50//1 49//1 48//1
f 50//1 51//1 49//1
f 52//1 51//1 50//1
f 52//1 53//1 51//1
f 54//1 53//1 52//1
f 54//1 55//1 53//1
f 56//3 57//3 58//3
f 59//3 56//3 58//3
f 60//3 59//3 58//3
f 61//3 60//3 58//3
f 62//3 61//3 58//3
f 63//3 62//3 58//3
f 64//4 63//3 65//3
f 65//3 63//3 58//3
f 66//5 64//4 67//5
f 67//5 64//4 65//3
f 68//3 66//5 69//6
f 69//6 66//5 67//5
f 70//7 68//3 71//3
f 71//3 68//3 69//6
f 72//8 70//7 71//3
f 73//9 72//10 74//11
f 74//12 72//12 71//12
f 75//7 73//9 76//7
f 76//7 73//9 77//13
f 77//13 73//9 78//8
f 78//8 73//9 79//14
f 79//14 73//9 74//11
f 80//3 65//3 58//3
f 81//3 80//3 58//3
f 82//15 81//3 58//3
f 83//16 82//15 58//3
f 84//3 83//16 58//3
f 85//17 84//3 58//3
f 85//17 58//3 86//3
f 87//3 85//17 86//3
f 87//3 86//3 88//3
f 89//7 87//3 88//3
f 89//7 88//3 90//3
f 91//3 89//7 90//3
f 91//3 90//3 92//3
f 93//3 91//3 92//3
f 93//3 92//3 94//3
f 95//3 93//3 94//3
f 95//3 94//3 96//18
f 97//3 95//3 96//18
f 97//3 96//18 98//19
f 99//7 97//3 98//19
f 99//7 98//19 100//20
f 101//21 99//7 100//20
f 101//21 100//20 102//3
f 103//22 101//21 102//3
f 103//22 102//3 104//17
f 105//23 103//22 104//17
f 105//23 104//17 106//17
f 107//7 105//23 106//17
f 107//7 106//17 108//3
f 109//7 107//7 108//3
f 109//7 108//3 110//3
f 50//24 48//24 103//24
f 103//24 105//24 50//24
f 17//25 15//25 70//25
f 70//25 72//25 17//25
f 22//26 21//26 76//27
f 76//27 77//27 22//26
f 29//28 28//29 83//28
f 83//28 84//30 29//28
f 36//31 34//31 89//31
f 89//31 91//31 36//31
f 37//32 39//32 94//32
f 94//32 92//32 37//32
f 2//33 31//33 86//33
f 86//33 58//34 2//33
f 25//35 10//35 65//35
f 65//35 80//35 25//35
f 15//36 13//36 68//36
f 68//36 70//36 15//36
f 45//37 47//37 102//37
f 102//37 100//37 45//37
f 8//38 7//38 62//38
f 62//38 63//38 8//38
f 16//39 19//39 74//39
f 74//39 71//39 16//39
f 52//40 50//40 105//40
f 105//40 107//40 52//40
f 21//41 20//41 75//41
f 75//41 76//41 21//41
f 53//34 55//34 110//34
f 110//34 108//34 53//34
f 30//30 29//28 84//30
f 84//30 85//30 30//30
f 44//42 42//42 97//42
f 97//42 99//42 44//42
f 19//43 24//43 79//43
f 79//43 74//43 19//43
f 38//44 36//44 91//44
f 91//44 93//44 38//44
f 31//45 33//45 88//45
f 88//45 86//45 31//45
f 26//46 25//46 80//46
f 80//46 81//46 26//46
f 4//47 1//47 56//47
f 56//47 59//47 4//47
f 13//48 11//48 66//48
f 66//48 68//48 13//48
f 14//49 16//49 71//49
f 71//49 69//49 14//49
f 7//50 6//50 61//50
f 61//50 62//50 7//50
f 39//51 41//51 96//51
f 96//51 94//51 39//51
f 54//28 52//28 107//28
f 107//28 109//28 54//28
f 47//52 49//52 104//52
f 104//52 102//52 47//52
f 20//28 18//28 73//28
f 73//28 75//28 20//28
f 46//53 44//53 99//53
f 99//53 101//53 46//53
f 32//54 30//54 85//54
f 85//54 87//54 32//54
f 24//55 23//55 78//55
f 78//55 79//55 24//55
f 33//56 35//56 90//56
f 90//56 88//56 33//56
f 40//57 38//57 93//57
f 93//57 95//57 40//57
f 11//58 9//58 64//58
f 64//58 66//58 11//58
f 1//59 3//59 57//59
f 57//59 56//59 1//59
f 27//60 26//60 81//60
f 81//60 82//60 27//60
f 12//61 14//61 69//61
f 69//61 67//61 12//61
f 41//62 43//62 98//62
f 98//62 96//62 41//62
f 6//63 5//63 60//63
f 60//63 61//63 6//63
f 49//64 51//64 106//64
f 106//64 104//64 49//64
f 18//65 17//65 72//65
f 72//65 73//65 18//65
f 48//66 46//66 101//66
f 101//66 103//66 48//66
f 23//67 22//67 77//67
f 77//67 78//67 23//67
f 34//68 32//68 87//68
f 87//68 89//68 34//68
f 55//69 54//69 109//69
f 109//69 110//69 55//69
f 35//70 37//70 92//70
f 92//70 90//70 35//70
f 42//71 40//71 95//71
f 95//71 97//71 42//71
f 3//34 2//33 58//34
f 58//34 57//34 3//34
f 28//29 27//29 82//29
f 82//29 83//28 28//29
f 9//72 8//72 63//72
f 63//72 64//72 9//72
f 43//73 45//73 100//73
f 100//73 98//73 43//73
f 10//74 12//74 67//74
f 67//74 65//74 10//74
f 5//75 4//75 59//75
f 59//75 60//75 5//75
f 51//76 53//76 108//76
f 108//76 106//76 51//76
f 111//1 112//1 113//1
f 114//1 112//1 111//1
f 115//1 112//1 114//1
f 116//1 112//1 115//1
f 117//1 112//1 116//1
f 118//1 112//1 117//1
f 119//1 120//1 118//1
f 120//1 112//1 118//1
f 121//1 122//1 119//1
f 122//1 120//1 119//1
f 123//1 124//1 121//1
f 124//1 122//1 121//1
f 125//1 126//1 123//1
f 126//1 124//1 123//1
f 127//1 126//1 125//1
f 128//1 129//1 127//1
f 129//1 126//1 127//1
f 130//1 131//1 128//1
f 131//1 132//1 128//1
f 132//1 133//1 128//1
f 133//1 134//1 128//1
f 134//1 129//1 128//1
f 135//1 112//1 120//1
f 136//1 112//1 135//1
f 137//1 112//1 136//1
f 138//1 112//1 137//1
f 139//1 112//1 138//1
f 140//1 112//1 139//1
f 140//1 141//1 112//1
f 142//1 141//1 140//1
f 142//1 143//1 141//1
f 144//1 143//1 142//1
f 144//1 145//1 143//1
f 146//1 145//1 144//1
f 146//1 147//1 145//1
f 148//1 147//1 146//1
f 148//1 149//1 147//1
f 150//1 149//1 148//1
f 150//1 151//1 149//1
f 152//1 151//1 150//1
f 152//1 153//1 151//1
f 154//1 153//1 152//1
f 154//1 155//1 153//1
f 156//1 155//1 154//1
f 156//1 157//1 155//1
f 158//1 157//1 156//1
f 158//1 159//1 157//1
f 160//1 159//1 158//1
f 160//1 161//1 159//1
f 162//1 161//1 160//1
f 162//1 163//1 161//1
f 164//1 163//1 162//1
f 164//1 165//1 163//1
f 166//3 167//3 168//77
f 169//3 166//3 168//77
f 170//4 169//3 168//77
f 171//3 170//4 168//77
f 172//78 171//3 168//77
f 173//3 172//78 168//77
f 174//3 173//3 175//79
f 175//79 173//3 168//77
f 176//4 174//3 177//3
f 177//3 174//3 175//79
f 178//4 176//4 179//3
f 179//3 176//4 177//3
f 180//8 178//4 181//7
f 181//7 178//4 179//3
f 182//80 180//8 181//7
f 183//3 182//80 184//3
f 184//3 182//80 181//7
f 185//7 183//3 186//8
f 186//8 183//3 187//7
f 187//7 183//3 188//81
f 188//81 183//3 189//13
f 189//13 183//3 184//3
f 190//82 175//79 168//77
f 191//83 190//82 168//77
f 192//3 191//83 168//77
f 193//3 192//3 168//77
f 194//3 193//3 168//77
f 195//3 194//3 168//77
f 195//3 168//77 196//3
f 197//3 195//3 196//3
f 197//3 196//3 198//17
f 199//3 197//3 198//17
f 199//3 198//17 200//3
f 201//3 199//3 200//3
f 201//3 200//3 202//84
f 203//3 201//3 202//84
f 203//3 202//84 204//7
f 205//3 203//3 204//7
f 205//3 204//7 206//3
f 207//3 205//3 206//3
f 207//3 206//3 208//3
f 209//7 207//3 208//3
f 209//7 208//3 210//3
f 211//3 209//7 210//3
f 211//3 210//3 212//3
f 213//20 211//3 212//3
f 213//20 212//3 214//21
f 215//85 213//20 214//21
f 215//85 214//21 216//17
f 217//7 215//85 216//17
f 217//7 216//17 218//3
f 219//7 217//7 218//3
f 219//7 218//3 220//3
f 116//63 115//63 170//63
f 170//63 171//63 116//63
f 155//37 157//37 212//37
f 212//37 210//37 155//37
f 121//58 119//58 174//58
f 174//58 176//58 121//58
f 132//26 131//26 186//27
f 186//27 187//27 132//26
f 113//34 112//33 168//34
f 168//34 167//34 113//34
f 142//54 140//54 195//54
f 195//54 197//54 142//54
f 147//32 149//32 204//32
f 204//32 202//32 147//32
f 127//25 125//25 180//25
f 180//25 182//25 127//25
f 145//70 147//70 202//70
f 202//70 200//70 145//70
f 126//39 129//39 184//39
f 184//39 181//39 126//39
f 135//86 120//86 175//86
f 175//86 190//86 135//86
f 160//24 158//24 213//24
f 213//24 215//24 160//24
f 152//71 150//71 205//71
f 205//71 207//71 152//71
f 115//75 114//75 169//75
f 169//75 170//75 115//75
f 119//72 118//72 173//72
f 173//72 174//72 119//72
f 129//43 134//43 189//43
f 189//43 184//43 129//43
f 131//41 130//41 185//41
f 185//41 186//41 131//41
f 161//76 163//76 218//76
f 218//76 216//76 161//76
f 112//33 141//33 196//33
f 196//33 168//34 112//33
f 153//73 155//73 210//73
f 210//73 208//73 153//73
f 144//87 142//87 197//87
f 197//87 199//87 144//87
f 120//74 122//74 177//74
f 177//74 175//74 120//74
f 138//29 137//29 192//29
f 192//29 193//28 138//29
f 154//42 152//42 207//42
f 207//42 209//42 154//42
f 118//38 117//38 172//38
f 172//38 173//38 118//38
f 162//40 160//40 215//40
f 215//40 217//40 162//40
f 165//69 164//69 219//69
f 219//69 220//69 165//69
f 146//31 144//31 199//31
f 199//31 201//31 146//31
f 134//55 133//55 188//55
f 188//55 189//55 134//55
f 125//36 123//36 178//36
f 178//36 180//36 125//36
f 159//64 161//64 216//64
f 216//64 214//64 159//64
f 151//62 153//62 208//62
f 208//62 206//62 151//62
f 114//47 111//47 166//47
f 166//47 169//47 114//47
f 139//28 138//29 193//28
f 193//28 194//30 139//28
f 141//45 143//45 198//45
f 198//45 196//45 141//45
f 130//28 128//28 183//28
f 183//28 185//28 130//28
f 137//88 136//88 191//88
f 191//88 192//88 137//88
f 122//61 124//61 179//61
f 179//61 177//61 122//61
f 156//89 154//89 209//89
f 209//89 211//89 156//89
f 164//28 162//28 217//28
f 217//28 219//28 164//28
f 123//48 121//48 176//48
f 176//48 178//48 123//48
f 148//90 146//90 201//90
f 201//90 203//90 148//90
f 117//50 116//50 171//50
f 171//50 172//50 117//50
f 157//52 159//52 214//52
f 214//52 212//52 157//52
f 111//59 113//59 167//59
f 167//59 166//59 111//59
f 133//67 132//67 187//67
f 187//67 188//67 133//67
f 140//30 139//28 194//30
f 194//30 195//30 140//30
f 149//91 151//91 206//91
f 206//91 204//91 149//91
f 128//65 127//65 182//65
f 182//65 183//65 128//65
f 143//56 145//56 200//56
f 200//56 198//56 143//56
f 124//49 126//49 181//49
f 181//49 179//49 124//49
f 136//46 135//46 190//46
f 190//46 191//46 136//46
f 158//66 156//66 211//66
f 211//66 213//66 158//66
f 163//34 165//34 220//34
f 220//34 218//34 163//34
f 150//57 148//57 203//57
f 203//57 205//57 150//57
