# Blender v2.90.0 OBJ File: ''
# www.blender.org
mtllib N12.mtl
o N12
v 0.166816 -0.060851 0.477652
v 0.231005 -0.060851 0.476576
v 0.191873 -0.060851 0.478626
v 0.142428 -0.060851 0.474819
v 0.269123 -0.060851 0.470520
v 0.118777 -0.060851 0.470265
v 0.305772 -0.060851 0.460603
v 0.095934 -0.060851 0.464126
v 0.073969 -0.060851 0.456536
v 0.340497 -0.060851 0.446965
v 0.052950 -0.060851 0.447635
v 0.032949 -0.060851 0.437556
v 0.372842 -0.060851 0.429752
v 0.014034 -0.060851 0.426438
v 0.402351 -0.060851 0.409105
v -0.003723 -0.060851 0.414415
v -0.020254 -0.060851 0.401624
v 0.428570 -0.060851 0.385167
v -0.035488 -0.060851 0.388202
v -0.049358 -0.060851 0.374285
v 0.451043 -0.060851 0.358082
v -0.148912 -0.060851 0.231652
v 0.032471 -0.060851 0.332909
v 0.057004 -0.060851 0.344878
v 0.083122 -0.060851 0.353996
v 0.110842 -0.060851 0.359803
v 0.140181 -0.060851 0.361840
v 0.172169 -0.060851 0.360332
v 0.202004 -0.060851 0.355835
v 0.469315 -0.060851 0.327992
v 0.229565 -0.060851 0.348394
v 0.254733 -0.060851 0.338051
v 0.277388 -0.060851 0.324848
v 0.009507 -0.060851 0.318547
v 0.482930 -0.060851 0.295040
v 0.297411 -0.060851 0.308832
v -0.011904 -0.060851 0.302250
v 0.314682 -0.060851 0.290043
v -0.031781 -0.060851 0.284478
v 0.491433 -0.060851 0.259369
v 0.329081 -0.060851 0.268525
v -0.050137 -0.060851 0.265688
v 0.340488 -0.060851 0.244321
v -0.066992 -0.060851 0.246340
v 0.494368 -0.060851 0.221122
v -0.082360 -0.060851 0.226893
v 0.348784 -0.060851 0.217476
v -0.108708 -0.060851 0.189533
v -0.096261 -0.060851 0.207804
v 0.493125 -0.060851 0.186459
v 0.353850 -0.060851 0.188030
v 0.355565 -0.060851 0.156029
v 0.489293 -0.060851 0.153533
v 0.353127 -0.060851 0.122962
v 0.482716 -0.060851 0.121971
v 0.346112 -0.060851 0.090292
v 0.473237 -0.060851 0.091395
v 0.460700 -0.060851 0.061432
v 0.334969 -0.060851 0.058014
v 0.444949 -0.060851 0.031704
v 0.320146 -0.060851 0.026125
v 0.425828 -0.060851 0.001836
v 0.302093 -0.060851 -0.005379
v 0.403180 -0.060851 -0.028546
v 0.281257 -0.060851 -0.036501
v 0.376849 -0.060851 -0.059819
v 0.258089 -0.060851 -0.067244
v 0.346679 -0.060851 -0.092359
v 0.233035 -0.060851 -0.097610
v 0.312514 -0.060851 -0.126541
v 0.206546 -0.060851 -0.127605
v 0.274197 -0.060851 -0.162740
v 0.179070 -0.060851 -0.157231
v 0.151055 -0.060851 -0.186491
v 0.012865 -0.060851 -0.400141
v 0.122950 -0.060851 -0.215389
v 0.099563 -0.060851 -0.237625
v 0.075854 -0.060851 -0.259818
v 0.051859 -0.060851 -0.281964
v 0.496305 -0.060851 -0.302075
v 0.561377 -0.060851 -0.292928
v 0.508727 -0.060851 -0.275697
v 0.027613 -0.060851 -0.304060
v 0.555766 -0.060851 -0.311579
v 0.484658 -0.060851 -0.324469
v 0.003156 -0.060851 -0.326103
v 0.550395 -0.060851 -0.330221
v 0.473443 -0.060851 -0.343199
v -0.021477 -0.060851 -0.348090
v 0.545223 -0.060851 -0.348883
v 0.462317 -0.060851 -0.358588
v -0.046250 -0.060851 -0.370017
v 0.540210 -0.060851 -0.367594
v 0.450939 -0.060851 -0.370961
v 0.535317 -0.060851 -0.386386
v -0.071126 -0.060851 -0.391880
v 0.438967 -0.060851 -0.380637
v 0.426056 -0.060851 -0.387940
v 0.530505 -0.060851 -0.405286
v 0.411866 -0.060851 -0.393192
v -0.096068 -0.060851 -0.413677
v 0.396054 -0.060851 -0.396716
v 0.378277 -0.060851 -0.398834
v 0.358195 -0.060851 -0.399868
v 0.335463 -0.060851 -0.400141
v 0.525732 -0.060851 -0.424327
v -0.121041 -0.060851 -0.435404
v 0.520959 -0.060851 -0.443537
v -0.146007 -0.060851 -0.457059
v 0.516146 -0.060851 -0.462946
v -0.170930 -0.060851 -0.478637
v 0.511253 -0.060851 -0.482585
v -0.170930 -0.060851 -0.522671
v 0.506241 -0.060851 -0.502483
v 0.501069 -0.060851 -0.522671
v 0.166816 0.060848 0.477652
v 0.191873 0.060852 0.478626
v 0.231005 0.060852 0.476576
v 0.142428 0.060852 0.474819
v 0.269123 0.060852 0.470520
v 0.118777 0.060852 0.470265
v 0.305772 0.060848 0.460603
v 0.095934 0.060852 0.464126
v 0.073969 0.060852 0.456536
v 0.340497 0.060852 0.446965
v 0.052950 0.060852 0.447635
v 0.032949 0.060852 0.437556
v 0.372842 0.060852 0.429752
v 0.014034 0.060852 0.426438
v 0.402351 0.060852 0.409105
v -0.003723 0.060852 0.414415
v -0.020254 0.060852 0.401624
v 0.428570 0.060848 0.385167
v -0.035488 0.060848 0.388202
v -0.049358 0.060852 0.374285
v 0.451043 0.060852 0.358082
v -0.148912 0.060852 0.231652
v 0.032471 0.060852 0.332909
v 0.057004 0.060852 0.344878
v 0.083122 0.060852 0.353996
v 0.110842 0.060852 0.359803
v 0.140181 0.060848 0.361840
v 0.172169 0.060852 0.360332
v 0.202004 0.060852 0.355835
v 0.469315 0.060852 0.327992
v 0.229565 0.060852 0.348394
v 0.254733 0.060852 0.338051
v 0.277388 0.060852 0.324848
v 0.009507 0.060852 0.318547
v 0.482930 0.060852 0.295040
v 0.297411 0.060852 0.308832
v -0.011904 0.060852 0.302250
v 0.314682 0.060852 0.290043
v -0.031781 0.060848 0.284478
v 0.491433 0.060852 0.259369
v 0.329081 0.060852 0.268525
v -0.050137 0.060852 0.265688
v 0.340488 0.060852 0.244321
v -0.066992 0.060852 0.246340
v 0.494368 0.060848 0.221122
v -0.082360 0.060852 0.226893
v 0.348784 0.060848 0.217476
v -0.108708 0.060852 0.189533
v -0.096261 0.060852 0.207804
v 0.493125 0.060852 0.186459
v 0.353850 0.060852 0.188030
v 0.355565 0.060852 0.156029
v 0.489293 0.060852 0.153533
v 0.353127 0.060852 0.122962
v 0.482716 0.060852 0.121971
v 0.346112 0.060852 0.090292
v 0.473237 0.060852 0.091395
v 0.460700 0.060852 0.061432
v 0.334969 0.060852 0.058014
v 0.444949 0.060852 0.031704
v 0.320146 0.060848 0.026125
v 0.425828 0.060848 0.001836
v 0.302093 0.060848 -0.005379
v 0.403180 0.060852 -0.028546
v 0.281257 0.060848 -0.036501
v 0.376849 0.060852 -0.059819
v 0.258089 0.060852 -0.067244
v 0.346679 0.060852 -0.092359
v 0.233035 0.060852 -0.097610
v 0.312514 0.060852 -0.126541
v 0.206546 0.060852 -0.127605
v 0.274197 0.060852 -0.162740
v 0.179070 0.060852 -0.157231
v 0.151055 0.060852 -0.186491
v 0.012865 0.060852 -0.400141
v 0.122950 0.060852 -0.215389
v 0.099563 0.060848 -0.237625
v 0.075854 0.060852 -0.259818
v 0.051859 0.060852 -0.281964
v 0.496305 0.060848 -0.302075
v 0.508727 0.060852 -0.275697
v 0.561377 0.060852 -0.292928
v 0.027613 0.060852 -0.304060
v 0.555766 0.060852 -0.311579
v 0.484658 0.060852 -0.324469
v 0.003156 0.060852 -0.326103
v 0.550395 0.060848 -0.330221
v 0.473443 0.060848 -0.343199
v -0.021477 0.060848 -0.348090
v 0.545223 0.060852 -0.348883
v 0.462317 0.060852 -0.358588
v -0.046250 0.060852 -0.370017
v 0.540210 0.060852 -0.367594
v 0.450939 0.060852 -0.370961
v 0.535317 0.060852 -0.386386
v -0.071126 0.060852 -0.391880
v 0.438967 0.060852 -0.380637
v 0.426056 0.060852 -0.387940
v 0.530505 0.060852 -0.405286
v 0.411866 0.060852 -0.393192
v -0.096068 0.060852 -0.413677
v 0.396054 0.060852 -0.396716
v 0.378277 0.060852 -0.398834
v 0.358195 0.060852 -0.399868
v 0.335463 0.060848 -0.400141
v 0.525732 0.060852 -0.424327
v -0.121041 0.060852 -0.435404
v 0.520959 0.060852 -0.443537
v -0.146007 0.060852 -0.457059
v 0.516146 0.060852 -0.462946
v -0.170930 0.060852 -0.478637
v 0.511253 0.060852 -0.482585
v -0.170930 0.060852 -0.522671
v 0.506241 0.060852 -0.502483
v 0.501069 0.060852 -0.522671
v -0.436131 -0.060851 0.468939
v -0.413175 -0.060851 -0.313030
v -0.413175 -0.060851 0.478626
v -0.459536 -0.060851 0.459521
v -0.483399 -0.060851 0.450402
v -0.507731 -0.060851 0.441612
v -0.532542 -0.060851 0.433181
v -0.557841 -0.060851 0.425139
v -0.583639 -0.060851 0.417516
v -0.551339 -0.060851 0.301922
v -0.609946 -0.060851 0.410342
v -0.554670 -0.060851 0.311548
v -0.636771 -0.060851 0.403646
v -0.559397 -0.060851 0.319122
v -0.664124 -0.060851 0.397458
v -0.565759 -0.060851 0.324922
v -0.692016 -0.060851 0.391809
v -0.720456 -0.060851 0.386729
v -0.573995 -0.060851 0.329222
v -0.720456 -0.060851 0.338866
v -0.630473 -0.060851 0.336952
v -0.612345 -0.060851 0.335888
v -0.597049 -0.060851 0.334429
v -0.584346 -0.060851 0.332300
v -0.549166 -0.060851 0.289971
v -0.547910 -0.060851 0.275416
v -0.547331 -0.060851 0.257983
v -0.547191 -0.060851 0.237396
v -0.547191 -0.060851 -0.313030
v -0.547456 -0.060851 -0.343411
v -0.412870 -0.060851 -0.343813
v -0.548592 -0.060851 -0.369252
v -0.411615 -0.060851 -0.369916
v -0.551110 -0.060851 -0.390957
v -0.408897 -0.060851 -0.391765
v -0.555523 -0.060851 -0.408934
v -0.404205 -0.060851 -0.409785
v -0.562343 -0.060851 -0.423586
v -0.397026 -0.060851 -0.424401
v -0.572081 -0.060851 -0.435321
v -0.386850 -0.060851 -0.436038
v -0.585248 -0.060851 -0.444542
v -0.373164 -0.060851 -0.445124
v -0.602358 -0.060851 -0.451656
v -0.355456 -0.060851 -0.452081
v -0.623922 -0.060851 -0.457068
v -0.333213 -0.060851 -0.457337
v -0.650452 -0.060851 -0.461184
v -0.305926 -0.060851 -0.461317
v -0.682459 -0.060851 -0.464410
v -0.273081 -0.060851 -0.464446
v -0.720456 -0.060851 -0.467149
v -0.234166 -0.060851 -0.467149
v -0.720456 -0.060851 -0.522671
v -0.234166 -0.060851 -0.522671
v -0.436131 0.060852 0.468939
v -0.413175 0.060852 0.478626
v -0.413175 0.060848 -0.313030
v -0.459536 0.060852 0.459521
v -0.483399 0.060852 0.450402
v -0.507731 0.060848 0.441612
v -0.532542 0.060852 0.433181
v -0.557841 0.060852 0.425139
v -0.583639 0.060852 0.417516
v -0.551339 0.060852 0.301922
v -0.609946 0.060852 0.410342
v -0.554670 0.060852 0.311548
v -0.636771 0.060848 0.403646
v -0.559397 0.060852 0.319122
v -0.664124 0.060848 0.397458
v -0.565759 0.060852 0.324922
v -0.692016 0.060852 0.391809
v -0.720456 0.060848 0.386729
v -0.573995 0.060852 0.329222
v -0.720456 0.060852 0.338866
v -0.630473 0.060852 0.336952
v -0.612345 0.060848 0.335888
v -0.597049 0.060852 0.334429
v -0.584346 0.060852 0.332300
v -0.549166 0.060848 0.289971
v -0.547910 0.060852 0.275416
v -0.547331 0.060852 0.257983
v -0.547191 0.060852 0.237396
v -0.547191 0.060852 -0.313030
v -0.547456 0.060852 -0.343411
v -0.412870 0.060852 -0.343813
v -0.548592 0.060852 -0.369252
v -0.411615 0.060848 -0.369916
v -0.551110 0.060852 -0.390957
v -0.408897 0.060848 -0.391765
v -0.555523 0.060852 -0.408934
v -0.404205 0.060848 -0.409785
v -0.562343 0.060852 -0.423586
v -0.397026 0.060852 -0.424401
v -0.572081 0.060852 -0.435321
v -0.386850 0.060852 -0.436038
v -0.585248 0.060848 -0.444542
v -0.373164 0.060852 -0.445124
v -0.602358 0.060852 -0.451656
v -0.355456 0.060852 -0.452081
v -0.623922 0.060852 -0.457068
v -0.333213 0.060852 -0.457337
v -0.650452 0.060852 -0.461184
v -0.305926 0.060852 -0.461317
v -0.682459 0.060848 -0.464410
v -0.273081 0.060852 -0.464446
v -0.720456 0.060848 -0.467149
v -0.234166 0.060852 -0.467149
v -0.720456 0.060852 -0.522671
v -0.234166 0.060852 -0.522671
vn 0.0000 -1.0000 -0.0000
vn -0.0001 1.0000 -0.0007
vn -0.0001 1.0000 -0.0016
vn -0.0000 1.0000 0.0000
vn 0.0000 1.0000 0.0009
vn -0.0000 1.0000 -0.0004
vn -0.0000 1.0000 -0.0001
vn -0.0000 1.0000 -0.0002
vn 0.0000 1.0000 0.0001
vn -0.0000 1.0000 0.0014
vn 0.0000 1.0000 0.0002
vn 0.0001 1.0000 0.0016
vn -0.0000 1.0000 0.0008
vn 0.0003 1.0000 -0.0005
vn 0.0001 1.0000 -0.0000
vn -0.0004 1.0000 0.0002
vn 0.0003 1.0000 -0.0001
vn -0.0001 1.0000 -0.0000
vn -0.0000 1.0000 -0.0013
vn -0.0000 1.0000 -0.0012
vn -0.0000 1.0000 -0.0020
vn -0.7234 0.0000 -0.6905
vn 0.9933 0.0000 -0.1156
vn -0.9046 0.0000 -0.4263
vn 0.9242 0.0000 0.3819
vn -0.9973 0.0000 0.0735
vn 0.5302 0.0000 -0.8478
vn -0.7714 0.0000 0.6364
vn -0.1891 0.0000 0.9820
vn -0.4500 0.0000 0.8930
vn -0.5035 0.0000 -0.8640
vn -0.6562 -0.0000 0.7545
vn -0.6580 0.0000 0.7530
vn -0.6565 0.0000 0.7543
vn -0.6552 -0.0000 0.7554
vn -0.2175 0.0000 0.9761
vn 0.0693 0.0000 -0.9976
vn 0.0000 0.0000 1.0000
vn -0.0120 -0.0000 0.9999
vn -0.9068 0.0000 0.4215
vn 0.1569 0.0000 0.9876
vn 0.9790 0.0000 -0.2040
vn -0.0471 0.0000 -0.9989
vn -0.7361 0.0000 0.6769
vn -0.7169 0.0000 0.6972
vn -0.7223 -0.0000 0.6916
vn 0.8422 0.0000 -0.5392
vn 0.9576 0.0000 -0.2881
vn 0.9609 -0.0000 -0.2769
vn -0.6736 -0.0000 0.7391
vn -0.6782 -0.0000 0.7349
vn -0.6695 0.0000 0.7428
vn 0.5733 0.0000 0.8194
vn 0.9659 -0.0000 -0.2588
vn 0.9677 -0.0000 -0.2520
vn 0.9659 0.0000 -0.2587
vn 0.9637 0.0000 -0.2671
vn 0.8265 0.0000 -0.5630
vn 0.9705 -0.0000 -0.2413
vn 0.9705 0.0000 -0.2409
vn 0.9700 0.0000 -0.2430
vn 0.9727 0.0000 0.2319
vn -0.9047 0.0000 0.4260
vn 0.9687 0.0000 -0.2481
vn 0.9687 0.0000 -0.2482
vn 0.9697 0.0000 -0.2443
vn -0.8311 0.0000 -0.5561
vn -0.2596 0.0000 0.9657
vn -0.9986 0.0000 -0.0535
vn -0.6611 0.0000 0.7503
vn 0.6743 0.0000 0.7385
vn -0.5068 0.0000 0.8621
vn -0.7986 0.0000 0.6019
vn 0.7153 0.0000 -0.6988
vn -0.3801 0.0000 -0.9249
vn 0.0523 0.0000 0.9986
vn 0.4385 0.0000 -0.8987
vn -0.6553 0.0000 0.7554
vn -0.6549 0.0000 0.7557
vn -0.6834 -0.0000 0.7301
vn 0.7073 0.0000 -0.7069
vn 0.9552 0.0000 -0.2961
vn 0.4698 0.0000 0.8828
vn 0.8018 0.0000 -0.5977
vn -0.3471 0.0000 0.9378
vn -0.6628 -0.0000 0.7488
vn -0.6658 -0.0000 0.7461
vn -0.6601 -0.0000 0.7511
vn 0.8084 0.0000 -0.5887
vn 0.9703 0.0000 -0.2418
vn -0.8104 0.0000 0.5858
vn -0.9855 0.0000 -0.1695
vn 0.9700 -0.0000 -0.2432
vn 0.9691 0.0000 -0.2468
vn 0.9971 0.0000 0.0765
vn -0.7083 0.0000 0.7059
vn -0.6546 0.0000 0.7560
vn -0.7332 0.0000 0.6800
vn -0.3266 0.0000 0.9452
vn -0.9453 0.0000 0.3263
vn 0.7696 0.0000 0.6385
vn 0.6666 0.0000 -0.7455
vn -0.0514 0.0000 0.9987
vn -0.7362 0.0000 -0.6767
vn 0.3296 0.0000 -0.9441
vn -0.5607 0.0000 0.8280
vn -0.2607 0.0000 -0.9654
vn 0.9225 0.0000 -0.3860
vn 0.6867 0.0000 -0.7269
vn -0.8310 0.0000 0.5563
vn -0.0389 0.0000 0.9992
vn -0.6659 0.0000 0.7461
vn 0.3655 0.0000 0.9308
vn -0.4923 0.0000 0.8704
vn -0.6890 -0.0000 0.7247
vn 0.9705 0.0000 -0.2412
vn 0.9706 0.0000 -0.2407
vn 0.7650 0.0000 -0.6441
vn -0.8579 0.0000 0.5137
vn 0.7846 0.0000 -0.6200
vn 0.9994 0.0000 -0.0358
vn -0.9777 0.0000 0.2099
vn -0.8200 0.0000 0.5724
vn -1.0000 0.0000 0.0000
vn 0.8547 0.0000 0.5190
vn -0.3900 0.0000 0.9208
vn -0.9554 0.0000 -0.2953
vn 0.6057 0.0000 -0.7957
vn -0.6247 0.0000 -0.7809
vn -0.7496 0.0000 0.6619
vn -0.1183 0.0000 0.9930
vn -0.6119 0.0000 0.7909
vn 0.6724 0.0000 -0.7402
vn 0.2050 0.0000 -0.9788
vn -0.8676 0.0000 0.4972
vn -0.1154 0.0000 0.9933
vn 0.8836 0.0000 -0.4682
vn -0.6286 0.0000 0.7777
vn 0.2612 0.0000 0.9653
vn -0.1490 0.0000 -0.9888
vn -0.6891 0.0000 0.7247
vn 0.7333 0.0000 -0.6799
vn -0.8872 0.0000 0.4614
vn 0.3110 0.0000 0.9504
vn 0.7540 0.0000 -0.6569
vn 0.0000 0.0000 -1.0000
vn 0.0000 -1.0000 -0.0001
vn -0.0019 1.0000 -0.0006
vn -0.0036 1.0000 -0.0008
vn 0.0001 1.0000 0.0001
vn -0.0001 1.0000 -0.0001
vn 0.0001 1.0000 0.0002
vn -0.0002 1.0000 -0.0004
vn 0.0001 1.0000 0.0003
vn -0.0011 1.0000 -0.0002
vn 0.0006 1.0000 0.0001
vn -0.0000 1.0000 -0.0003
vn -0.0000 1.0000 0.0005
vn 0.0000 1.0000 -0.0005
vn -0.9066 0.0000 0.4220
vn -0.9933 0.0000 0.1153
vn -1.0000 0.0000 -0.0068
vn -1.0000 0.0000 0.0087
vn -0.0585 0.0000 -0.9983
vn -0.0586 0.0000 -0.9983
vn -0.2435 0.0000 0.9699
vn 0.0948 0.0000 0.9955
vn -0.4628 0.0000 -0.8864
vn 1.0000 0.0000 0.0000
vn 1.0000 -0.0000 0.0099
vn -0.9839 0.0000 -0.1789
vn -0.1985 0.0000 0.9801
vn -0.1533 0.0000 0.9882
vn -0.2834 0.0000 0.9590
vn 0.9924 0.0000 0.1234
vn 0.5531 0.0000 0.8331
vn -0.7695 0.0000 0.6386
vn -0.0213 0.0000 -0.9998
vn -0.2850 0.0000 -0.9585
vn 0.1443 0.0000 0.9895
vn -0.9450 0.0000 -0.3270
vn -0.3570 0.0000 0.9341
vn -0.2206 0.0000 0.9754
vn -0.1003 0.0000 0.9950
vn -0.8484 0.0000 -0.5294
vn -0.3029 0.0000 0.9530
vn 0.9988 0.0000 0.0480
vn 0.7528 0.0000 0.6583
vn -0.1653 0.0000 -0.9862
vn -0.5736 0.0000 0.8191
vn -0.9990 0.0000 0.0439
vn -0.9994 0.0000 -0.0332
vn -0.3733 0.0000 0.9277
vn -0.0719 0.0000 0.9974
vn -0.2422 0.0000 0.9702
vn -0.6737 0.0000 -0.7390
vn -0.3217 0.0000 0.9468
vn 0.2300 0.0000 0.9732
vn 0.8976 0.0000 0.4408
vn -0.9712 0.0000 0.2384
vn -0.3839 0.0000 0.9234
vn -0.0949 0.0000 -0.9955
vn -0.0950 0.0000 -0.9955
vn -0.3888 0.0000 0.9213
vn 0.0693 0.0000 0.9976
vn -0.9963 0.0000 -0.0860
vn -0.1758 0.0000 0.9844
vn -0.2631 0.0000 0.9648
vn 0.3657 0.0000 0.9307
vn -0.3398 0.0000 0.9405
vn 0.9677 0.0000 0.2520
usemtl N12
s 1
f 1//1 2//1 3//1
f 4//1 2//1 1//1
f 4//1 5//1 2//1
f 6//1 5//1 4//1
f 6//1 7//1 5//1
f 8//1 7//1 6//1
f 9//1 7//1 8//1
f 9//1 10//1 7//1
f 11//1 10//1 9//1
f 12//1 10//1 11//1
f 12//1 13//1 10//1
f 14//1 13//1 12//1
f 14//1 15//1 13//1
f 16//1 15//1 14//1
f 17//1 15//1 16//1
f 17//1 18//1 15//1
f 19//1 18//1 17//1
f 20//1 18//1 19//1
f 20//1 21//1 18//1
f 22//1 23//1 20//1
f 23//1 24//1 20//1
f 24//1 25//1 20//1
f 25//1 26//1 20//1
f 26//1 27//1 20//1
f 27//1 21//1 20//1
f 28//1 21//1 27//1
f 29//1 21//1 28//1
f 29//1 30//1 21//1
f 31//1 30//1 29//1
f 32//1 30//1 31//1
f 33//1 30//1 32//1
f 22//1 34//1 23//1
f 33//1 35//1 30//1
f 36//1 35//1 33//1
f 22//1 37//1 34//1
f 38//1 35//1 36//1
f 22//1 39//1 37//1
f 38//1 40//1 35//1
f 41//1 40//1 38//1
f 22//1 42//1 39//1
f 43//1 40//1 41//1
f 22//1 44//1 42//1
f 43//1 45//1 40//1
f 22//1 46//1 44//1
f 47//1 45//1 43//1
f 48//1 49//1 22//1
f 49//1 46//1 22//1
f 47//1 50//1 45//1
f 51//1 50//1 47//1
f 52//1 50//1 51//1
f 52//1 53//1 50//1
f 54//1 53//1 52//1
f 54//1 55//1 53//1
f 56//1 55//1 54//1
f 56//1 57//1 55//1
f 56//1 58//1 57//1
f 59//1 58//1 56//1
f 59//1 60//1 58//1
f 61//1 60//1 59//1
f 61//1 62//1 60//1
f 63//1 62//1 61//1
f 63//1 64//1 62//1
f 65//1 64//1 63//1
f 65//1 66//1 64//1
f 67//1 66//1 65//1
f 67//1 68//1 66//1
f 69//1 68//1 67//1
f 69//1 70//1 68//1
f 71//1 70//1 69//1
f 71//1 72//1 70//1
f 73//1 72//1 71//1
f 74//1 72//1 73//1
f 74//1 75//1 72//1
f 76//1 75//1 74//1
f 77//1 75//1 76//1
f 78//1 75//1 77//1
f 79//1 75//1 78//1
f 80//1 81//1 82//1
f 83//1 75//1 79//1
f 80//1 84//1 81//1
f 85//1 84//1 80//1
f 86//1 75//1 83//1
f 85//1 87//1 84//1
f 88//1 87//1 85//1
f 89//1 75//1 86//1
f 88//1 90//1 87//1
f 91//1 90//1 88//1
f 92//1 75//1 89//1
f 91//1 93//1 90//1
f 94//1 93//1 91//1
f 94//1 95//1 93//1
f 96//1 75//1 92//1
f 97//1 95//1 94//1
f 98//1 95//1 97//1
f 98//1 99//1 95//1
f 100//1 99//1 98//1
f 101//1 75//1 96//1
f 102//1 99//1 100//1
f 103//1 99//1 102//1
f 104//1 99//1 103//1
f 105//1 99//1 104//1
f 101//1 105//1 75//1
f 101//1 99//1 105//1
f 101//1 106//1 99//1
f 107//1 106//1 101//1
f 107//1 108//1 106//1
f 109//1 108//1 107//1
f 109//1 110//1 108//1
f 111//1 110//1 109//1
f 111//1 112//1 110//1
f 113//1 112//1 111//1
f 113//1 114//1 112//1
f 113//1 115//1 114//1
f 116//2 117//3 118//4
f 119//5 116//2 118//4
f 119//5 118//4 120//4
f 121//6 119//5 120//4
f 121//6 120//4 122//7
f 123//7 121//6 122//7
f 124//4 123//7 122//7
f 124//4 122//7 125//4
f 126//4 124//4 125//4
f 127//4 126//4 125//4
f 127//4 125//4 128//4
f 129//4 127//4 128//4
f 129//4 128//4 130//7
f 131//4 129//4 130//7
f 132//8 131//4 130//7
f 132//8 130//7 133//9
f 134//9 132//8 133//9
f 135//9 134//9 133//9
f 135//9 133//9 136//10
f 137//4 135//9 138//4
f 138//4 135//9 139//4
f 139//4 135//9 140//4
f 140//4 135//9 141//11
f 141//11 135//9 142//12
f 142//12 135//9 136//10
f 143//13 142//12 136//10
f 144//4 143//13 136//10
f 144//4 136//10 145//4
f 146//4 144//4 145//4
f 147//9 146//4 145//4
f 148//4 147//9 145//4
f 137//4 138//4 149//4
f 148//4 145//4 150//4
f 151//4 148//4 150//4
f 137//4 149//4 152//14
f 153//4 151//4 150//4
f 137//4 152//14 154//15
f 153//4 150//4 155//7
f 156//4 153//4 155//7
f 137//4 154//15 157//4
f 158//7 156//4 155//7
f 137//4 157//4 159//4
f 158//7 155//7 160//4
f 137//4 159//4 161//4
f 162//4 158//7 160//4
f 163//4 137//4 164//4
f 164//4 137//4 161//4
f 162//4 160//4 165//9
f 166//9 162//4 165//9
f 167//4 166//9 165//9
f 167//4 165//9 168//4
f 169//4 167//4 168//4
f 169//4 168//4 170//4
f 171//4 169//4 170//4
f 171//4 170//4 172//4
f 171//4 172//4 173//4
f 174//7 171//4 173//4
f 174//7 173//4 175//7
f 176//7 174//7 175//7
f 176//7 175//7 177//4
f 178//4 176//7 177//4
f 178//4 177//4 179//9
f 180//9 178//4 179//9
f 180//9 179//9 181//4
f 182//4 180//9 181//4
f 182//4 181//4 183//4
f 184//4 182//4 183//4
f 184//4 183//4 185//4
f 186//4 184//4 185//4
f 186//4 185//4 187//4
f 188//4 186//4 187//4
f 189//4 188//4 187//4
f 189//4 187//4 190//4
f 191//4 189//4 190//4
f 192//16 191//4 190//4
f 193//17 192//16 190//4
f 194//4 193//17 190//4
f 195//9 196//7 197//18
f 198//4 194//4 190//4
f 195//9 197//18 199//7
f 200//7 195//9 199//7
f 201//4 198//4 190//4
f 200//7 199//7 202//7
f 203//11 200//7 202//7
f 204//18 201//4 190//4
f 203//11 202//7 205//11
f 206//9 203//11 205//11
f 207//4 204//18 190//4
f 206//9 205//11 208//4
f 209//4 206//9 208//4
f 209//4 208//4 210//4
f 211//4 207//4 190//4
f 212//4 209//4 210//4
f 213//4 212//4 210//4
f 213//4 210//4 214//19
f 215//4 213//4 214//19
f 216//4 211//4 190//4
f 217//4 215//4 214//19
f 218//4 217//4 214//19
f 219//20 218//4 214//19
f 220//21 219//20 214//19
f 216//4 190//4 220//21
f 216//4 220//21 214//19
f 216//4 214//19 221//4
f 222//4 216//4 221//4
f 222//4 221//4 223//4
f 224//4 222//4 223//4
f 224//4 223//4 225//4
f 226//4 224//4 225//4
f 226//4 225//4 227//4
f 228//4 226//4 227//4
f 228//4 227//4 229//4
f 228//4 229//4 230//4
f 48//22 22//22 137//22
f 137//22 163//22 48//22
f 50//23 53//23 168//23
f 168//23 165//23 50//23
f 43//24 41//24 156//24
f 156//24 158//24 43//24
f 30//25 35//25 150//25
f 150//25 145//25 30//25
f 54//26 52//26 167//26
f 167//26 169//26 54//26
f 23//27 34//27 149//27
f 149//27 138//27 23//27
f 69//28 67//28 182//28
f 182//28 184//28 69//28
f 6//29 4//29 119//29
f 119//29 121//29 6//29
f 12//30 11//30 126//30
f 126//30 127//30 12//30
f 33//31 32//31 147//31
f 147//31 148//31 33//31
f 107//32 101//33 216//34
f 216//34 222//35 107//32
f 102//36 100//36 215//36
f 215//36 217//36 102//36
f 27//37 26//37 141//37
f 141//37 142//37 27//37
f 75//38 105//39 220//38
f 220//38 190//38 75//38
f 61//40 59//40 174//40
f 174//40 176//40 61//40
f 2//41 5//41 120//41
f 120//41 118//41 2//41
f 53//42 55//42 170//42
f 170//42 168//42 53//42
f 28//43 27//43 142//43
f 142//43 143//43 28//43
f 94//44 91//44 206//44
f 206//44 209//44 94//44
f 76//45 74//46 189//45
f 189//45 191//45 76//45
f 60//47 62//47 177//47
f 177//47 175//47 60//47
f 81//48 84//49 199//48
f 199//48 197//48 81//48
f 83//50 79//51 194//50
f 194//50 198//52 83//50
f 13//53 15//53 130//53
f 130//53 128//53 13//53
f 90//54 93//55 208//56
f 208//56 205//57 90//54
f 49//58 48//58 163//58
f 163//58 164//58 49//58
f 106//59 108//60 223//60
f 223//60 221//61 106//59
f 35//62 40//62 155//62
f 155//62 150//62 35//62
f 80//63 82//63 196//63
f 196//63 195//63 80//63
f 114//64 115//65 230//65
f 230//65 229//66 114//64
f 41//67 38//67 153//67
f 153//67 156//67 41//67
f 8//68 6//68 121//68
f 121//68 123//68 8//68
f 52//69 51//69 166//69
f 166//69 167//69 52//69
f 19//70 17//70 132//70
f 132//70 134//70 19//70
f 15//71 18//71 133//71
f 133//71 130//71 15//71
f 74//46 73//46 188//46
f 188//46 189//45 74//46
f 14//72 12//72 127//72
f 127//72 129//72 14//72
f 105//39 104//39 219//39
f 219//39 220//38 105//39
f 67//73 65//73 180//73
f 180//73 182//73 67//73
f 39//74 42//74 157//74
f 157//74 154//74 39//74
f 32//75 31//75 146//75
f 146//75 147//75 32//75
f 3//76 2//76 118//76
f 118//76 117//76 3//76
f 24//77 23//77 138//77
f 138//77 139//77 24//77
f 109//78 107//32 222//35
f 222//35 224//79 109//78
f 79//51 78//80 193//51
f 193//51 194//50 79//51
f 68//81 70//81 185//81
f 185//81 183//81 68//81
f 55//82 57//82 172//82
f 172//82 170//82 55//82
f 10//83 13//83 128//83
f 128//83 125//83 10//83
f 62//84 64//84 179//84
f 179//84 177//84 62//84
f 100//85 98//85 213//85
f 213//85 215//85 100//85
f 92//86 89//87 204//86
f 204//86 207//88 92//86
f 46//89 49//89 164//89
f 164//89 161//89 46//89
f 112//66 114//64 229//66
f 229//66 227//90 112//66
f 91//91 88//91 203//91
f 203//91 206//91 91//91
f 51//92 47//92 162//92
f 162//92 166//92 51//92
f 99//93 106//59 221//61
f 221//61 214//94 99//93
f 40//95 45//95 160//95
f 160//95 155//95 40//95
f 20//96 19//96 134//96
f 134//96 135//96 20//96
f 111//97 109//78 224//79
f 224//79 226//97 111//97
f 73//98 71//98 186//98
f 186//98 188//98 73//98
f 9//99 8//99 123//99
f 123//99 124//99 9//99
f 59//100 56//100 171//100
f 171//100 174//100 59//100
f 18//101 21//101 136//101
f 136//101 133//101 18//101
f 37//102 39//102 154//102
f 154//102 152//102 37//102
f 104//103 103//103 218//103
f 218//103 219//103 104//103
f 38//104 36//104 151//104
f 151//104 153//104 38//104
f 25//105 24//105 139//105
f 139//105 140//105 25//105
f 96//88 92//86 207//88
f 207//88 211//33 96//88
f 16//106 14//106 129//106
f 129//106 131//106 16//106
f 31//107 29//107 144//107
f 144//107 146//107 31//107
f 57//108 58//108 173//108
f 173//108 172//108 57//108
f 70//109 72//109 187//109
f 187//109 185//109 70//109
f 65//110 63//110 178//110
f 178//110 180//110 65//110
f 1//111 3//111 117//111
f 117//111 116//111 1//111
f 89//87 86//52 201//112
f 201//112 204//86 89//87
f 7//113 10//113 125//113
f 125//113 122//113 7//113
f 98//114 97//114 212//114
f 212//114 213//114 98//114
f 87//57 90//54 205//57
f 205//57 202//49 87//57
f 78//80 77//115 192//80
f 192//80 193//51 78//80
f 110//116 112//66 227//90
f 227//90 225//117 110//116
f 64//118 66//118 181//118
f 181//118 179//118 64//118
f 88//119 85//119 200//119
f 200//119 203//119 88//119
f 95//94 99//93 214//94
f 214//94 210//55 95//94
f 44//120 46//120 161//120
f 161//120 159//120 44//120
f 45//121 50//121 165//121
f 165//121 160//121 45//121
f 56//122 54//122 169//122
f 169//122 171//122 56//122
f 22//123 20//123 135//123
f 135//123 137//123 22//123
f 113//124 111//124 226//124
f 226//124 228//124 113//124
f 21//125 30//125 145//125
f 145//125 136//125 21//125
f 11//126 9//126 124//126
f 124//126 126//126 11//126
f 47//127 43//127 158//127
f 158//127 162//127 47//127
f 34//128 37//128 152//128
f 152//128 149//128 34//128
f 36//129 33//129 148//129
f 148//129 151//129 36//129
f 71//130 69//130 184//130
f 184//130 186//130 71//130
f 103//131 102//131 217//131
f 217//131 218//131 103//131
f 101//33 96//88 211//33
f 211//33 216//34 101//33
f 17//132 16//132 131//132
f 131//132 132//132 17//132
f 72//133 75//133 190//133
f 190//133 187//133 72//133
f 26//134 25//134 140//134
f 140//134 141//134 26//134
f 63//135 61//135 176//135
f 176//135 178//135 63//135
f 4//136 1//136 116//136
f 116//136 119//136 4//136
f 58//137 60//137 175//137
f 175//137 173//137 58//137
f 97//138 94//138 209//138
f 209//138 212//138 97//138
f 5//139 7//139 122//139
f 122//139 120//139 5//139
f 29//140 28//140 143//140
f 143//140 144//140 29//140
f 84//49 87//57 202//49
f 202//49 199//48 84//49
f 77//115 76//141 191//141
f 191//141 192//80 77//115
f 93//55 95//94 210//55
f 210//55 208//56 93//55
f 86//52 83//50 198//52
f 198//52 201//112 86//52
f 108//60 110//116 225//117
f 225//117 223//60 108//60
f 66//142 68//142 183//142
f 183//142 181//142 66//142
f 85//143 80//143 195//143
f 195//143 200//143 85//143
f 82//144 81//144 197//144
f 197//144 196//144 82//144
f 42//145 44//145 159//145
f 159//145 157//145 42//145
f 115//146 113//146 228//146
f 228//146 230//146 115//146
f 231//1 232//1 233//1
f 234//1 232//1 231//1
f 235//1 232//1 234//1
f 236//1 232//1 235//1
f 237//1 232//1 236//1
f 238//1 232//1 237//1
f 239//1 240//1 238//1
f 240//1 232//1 238//1
f 241//1 242//1 239//1
f 242//1 240//1 239//1
f 243//1 244//1 241//1
f 244//1 242//1 241//1
f 245//1 246//1 243//1
f 246//1 244//1 243//1
f 247//1 246//1 245//1
f 248//1 249//147 247//1
f 249//147 246//1 247//1
f 250//1 251//1 248//1
f 251//1 252//1 248//1
f 252//1 253//1 248//1
f 253//1 254//1 248//1
f 254//1 249//147 248//1
f 255//1 232//1 240//1
f 256//1 232//1 255//1
f 257//1 232//1 256//1
f 258//1 232//1 257//1
f 259//1 232//1 258//1
f 260//1 232//1 259//1
f 260//1 261//1 232//1
f 262//1 261//1 260//1
f 262//1 263//1 261//1
f 264//1 263//1 262//1
f 264//1 265//1 263//1
f 266//1 265//1 264//1
f 266//1 267//1 265//1
f 268//1 267//1 266//1
f 268//1 269//1 267//1
f 270//1 269//1 268//1
f 270//1 271//1 269//1
f 272//1 271//1 270//1
f 272//1 273//1 271//1
f 274//1 273//1 272//1
f 274//1 275//1 273//1
f 276//1 275//1 274//1
f 276//1 277//1 275//1
f 278//1 277//1 276//1
f 278//1 279//1 277//1
f 280//1 279//1 278//1
f 280//1 281//1 279//1
f 282//1 281//1 280//1
f 282//1 283//1 281//1
f 284//1 283//1 282//1
f 284//1 285//1 283//1
f 286//4 287//4 288//148
f 289//4 286//4 288//148
f 290//18 289//4 288//148
f 291//4 290//18 288//148
f 292//15 291//4 288//148
f 293//4 292//15 288//148
f 294//4 293//4 295//149
f 295//149 293//4 288//148
f 296//18 294//4 297//15
f 297//15 294//4 295//149
f 298//4 296//18 299//150
f 299//150 296//18 297//15
f 300//150 298//4 301//9
f 301//9 298//4 299//150
f 302//151 300//150 301//9
f 303//4 302//151 304//7
f 304//7 302//151 301//9
f 305//9 303//4 306//152
f 306//152 303//4 307//9
f 307//9 303//4 308//153
f 308//153 303//4 309//154
f 309//154 303//4 304//7
f 310//155 295//149 288//148
f 311//156 310//155 288//148
f 312//4 311//156 288//148
f 313//4 312//4 288//148
f 314//4 313//4 288//148
f 315//4 314//4 288//148
f 315//4 288//148 316//4
f 317//4 315//4 316//4
f 317//4 316//4 318//7
f 319//4 317//4 318//7
f 319//4 318//7 320//4
f 321//4 319//4 320//4
f 321//4 320//4 322//11
f 323//4 321//4 322//11
f 323//4 322//11 324//9
f 325//157 323//4 324//9
f 325//157 324//9 326//4
f 327//158 325//157 326//4
f 327//158 326//4 328//4
f 329//9 327//158 328//4
f 329//9 328//4 330//4
f 331//4 329//9 330//4
f 331//4 330//4 332//4
f 333//157 331//4 332//4
f 333//157 332//4 334//6
f 335//159 333//157 334//6
f 335//159 334//6 336//7
f 337//9 335//159 336//7
f 337//9 336//7 338//4
f 339//9 337//9 338//4
f 339//9 338//4 340//4
f 268//160 266//160 321//160
f 321//160 323//160 268//160
f 264//161 262//161 317//161
f 317//161 319//161 264//161
f 259//124 258//162 313//124
f 313//124 314//163 259//124
f 252//164 251//164 306//165
f 306//165 307//165 252//164
f 276//166 274//166 329//166
f 329//166 331//166 276//166
f 279//167 281//167 336//167
f 336//167 334//167 279//167
f 246//168 249//168 304//168
f 304//168 301//168 246//168
f 233//169 232//170 288//169
f 288//169 287//169 233//169
f 255//171 240//171 295//171
f 295//171 310//171 255//171
f 285//146 284//146 339//146
f 339//146 340//146 285//146
f 247//172 245//172 300//172
f 300//172 302//172 247//172
f 278//173 276//173 331//173
f 331//173 333//173 278//173
f 239//174 238//174 293//174
f 293//174 294//174 239//174
f 263//175 265//175 320//175
f 320//175 318//175 263//175
f 271//176 273//176 328//176
f 328//176 326//176 271//176
f 270//177 268//177 323//177
f 323//177 325//177 270//177
f 258//162 257//162 312//162
f 312//162 313//124 258//162
f 251//178 250//178 305//178
f 305//178 306//178 251//178
f 232//170 261//170 316//170
f 316//170 288//169 232//170
f 249//179 254//179 309//179
f 309//179 304//179 249//179
f 277//180 279//180 334//180
f 334//180 332//180 277//180
f 240//181 242//181 297//181
f 297//181 295//181 240//181
f 235//182 234//182 289//182
f 289//182 290//182 235//182
f 245//183 243//183 298//183
f 298//183 300//183 245//183
f 280//184 278//184 333//184
f 333//184 335//184 280//184
f 242//185 244//185 299//185
f 299//185 297//185 242//185
f 238//186 237//186 292//186
f 292//186 293//186 238//186
f 261//187 263//187 318//187
f 318//187 316//187 261//187
f 269//188 271//188 326//188
f 326//188 324//188 269//188
f 254//189 253//189 308//189
f 308//189 309//189 254//189
f 272//190 270//190 325//190
f 325//190 327//190 272//190
f 262//191 260//191 315//191
f 315//191 317//191 262//191
f 257//192 256//192 311//192
f 311//192 312//192 257//192
f 234//193 231//193 286//193
f 286//193 289//193 234//193
f 283//169 285//169 340//169
f 340//169 338//169 283//169
f 282//194 280//194 335//194
f 335//194 337//194 282//194
f 250//124 248//124 303//124
f 303//124 305//124 250//124
f 243//195 241//195 296//195
f 296//195 298//195 243//195
f 244//196 246//196 301//196
f 301//196 299//196 244//196
f 237//197 236//197 291//197
f 291//197 292//197 237//197
f 275//198 277//198 332//198
f 332//198 330//198 275//198
f 267//199 269//199 324//199
f 324//199 322//199 267//199
f 266//200 264//200 319//200
f 319//200 321//200 266//200
f 274//201 272//201 327//201
f 327//201 329//201 274//201
f 253//202 252//202 307//203
f 307//203 308//203 253//202
f 231//204 233//204 287//204
f 287//204 286//204 231//204
f 260//163 259//124 314//163
f 314//163 315//163 260//163
f 281//205 283//205 338//205
f 338//205 336//205 281//205
f 256//206 255//206 310//206
f 310//206 311//206 256//206
f 284//124 282//124 337//124
f 337//124 339//124 284//124
f 248//207 247//207 302//207
f 302//207 303//207 248//207
f 241//208 239//208 294//208
f 294//208 296//208 241//208
f 273//209 275//209 330//209
f 330//209 328//209 273//209
f 236//210 235//210 290//210
f 290//210 291//210 236//210
f 265//211 267//211 322//211
f 322//211 320//211 265//211
