# Blender v2.90.0 OBJ File: ''
# www.blender.org
mtllib N14.mtl
o N14
v 0.330908 -0.053435 0.337182
v 0.433058 -0.053435 0.392925
v 0.372535 -0.053435 0.392925
v 0.433058 -0.053435 -0.253493
v 0.289670 -0.053435 0.280979
v 0.318737 -0.053435 0.222284
v 0.248823 -0.053435 0.224412
v 0.208369 -0.053435 0.167584
v 0.316215 -0.053435 0.222284
v 0.289675 -0.053435 0.184830
v 0.318737 -0.053435 -0.253493
v 0.263398 -0.053435 0.147231
v 0.168313 -0.053435 0.110591
v 0.237331 -0.053435 0.109408
v 0.128657 -0.053435 0.053535
v 0.211421 -0.053435 0.071288
v 0.185616 -0.053435 0.032795
v 0.089403 -0.053435 -0.003486
v 0.159864 -0.053435 -0.006147
v 0.050556 -0.053435 -0.060374
v 0.134112 -0.053435 -0.045616
v 0.108308 -0.053435 -0.085685
v 0.012116 -0.053435 -0.117027
v 0.082398 -0.053435 -0.126432
v -0.025911 -0.053435 -0.173348
v 0.056331 -0.053435 -0.167931
v 0.030054 -0.053435 -0.210260
v -0.063525 -0.053435 -0.229237
v 0.003513 -0.053435 -0.253493
v -0.100721 -0.053435 -0.284595
v 0.587728 -0.053435 -0.253493
v 0.587728 -0.053435 -0.329987
v -0.100721 -0.053435 -0.329987
v 0.318737 -0.053435 -0.329987
v 0.318737 -0.053435 -0.606544
v 0.433058 -0.053435 -0.329987
v 0.433058 -0.053435 -0.606544
v 0.330908 0.053436 0.337182
v 0.372535 0.053436 0.392925
v 0.433058 0.053432 0.392925
v 0.433058 0.053436 -0.253493
v 0.289670 0.053436 0.280979
v 0.318737 0.053436 0.222284
v 0.248823 0.053436 0.224412
v 0.208369 0.053436 0.167584
v 0.316215 0.053436 0.222284
v 0.289675 0.053436 0.184830
v 0.318737 0.053436 -0.253493
v 0.263398 0.053432 0.147231
v 0.168313 0.053436 0.110591
v 0.237331 0.053436 0.109408
v 0.128657 0.053436 0.053535
v 0.211421 0.053432 0.071288
v 0.185616 0.053436 0.032795
v 0.089403 0.053436 -0.003486
v 0.159864 0.053436 -0.006147
v 0.050556 0.053436 -0.060374
v 0.134112 0.053436 -0.045616
v 0.108308 0.053436 -0.085685
v 0.012116 0.053436 -0.117027
v 0.082398 0.053432 -0.126432
v -0.025911 0.053436 -0.173348
v 0.056331 0.053436 -0.167931
v 0.030054 0.053432 -0.210260
v -0.063525 0.053436 -0.229237
v 0.003513 0.053436 -0.253493
v -0.100721 0.053436 -0.284595
v 0.587728 0.053436 -0.253493
v 0.587728 0.053436 -0.329987
v -0.100721 0.053436 -0.329987
v 0.318737 0.053436 -0.329987
v 0.318737 0.053436 -0.606544
v 0.433058 0.053436 -0.329987
v 0.433058 0.053436 -0.606544
v -0.224043 -0.053435 0.386941
v -0.203885 -0.053435 -0.299726
v -0.203885 -0.053435 0.395447
v -0.244595 -0.053435 0.378671
v -0.265550 -0.053435 0.370663
v -0.286917 -0.053435 0.362945
v -0.308704 -0.053435 0.355541
v -0.330920 -0.053435 0.348479
v -0.353574 -0.053435 0.341785
v -0.325211 -0.053435 0.240280
v -0.376674 -0.053435 0.335485
v -0.328135 -0.053435 0.248732
v -0.400230 -0.053435 0.329605
v -0.332286 -0.053435 0.255383
v -0.424249 -0.053435 0.324172
v -0.337872 -0.053435 0.260476
v -0.448742 -0.053435 0.319211
v -0.473716 -0.053435 0.314750
v -0.345105 -0.053435 0.264252
v -0.473716 -0.053435 0.272720
v -0.394701 -0.053435 0.271039
v -0.378781 -0.053435 0.270105
v -0.365350 -0.053435 0.268825
v -0.354194 -0.053435 0.266954
v -0.323302 -0.053435 0.229785
v -0.322199 -0.053435 0.217004
v -0.321691 -0.053435 0.201695
v -0.321568 -0.053435 0.183617
v -0.321568 -0.053435 -0.299726
v -0.321801 -0.053435 -0.326404
v -0.203617 -0.053435 -0.326757
v -0.322798 -0.053435 -0.349095
v -0.202515 -0.053435 -0.349679
v -0.325009 -0.053435 -0.368156
v -0.200128 -0.053435 -0.368865
v -0.328885 -0.053435 -0.383941
v -0.196008 -0.053435 -0.384688
v -0.334873 -0.053435 -0.396808
v -0.189705 -0.053435 -0.397523
v -0.343424 -0.053435 -0.407112
v -0.180769 -0.053435 -0.407743
v -0.354987 -0.053435 -0.415209
v -0.168750 -0.053435 -0.415720
v -0.370012 -0.053435 -0.421457
v -0.153200 -0.053435 -0.421830
v -0.388947 -0.053435 -0.426209
v -0.133669 -0.053435 -0.426446
v -0.412244 -0.053435 -0.429824
v -0.109707 -0.053435 -0.429940
v -0.440350 -0.053435 -0.432656
v -0.080865 -0.053435 -0.432688
v -0.473716 -0.053435 -0.435062
v -0.046693 -0.053435 -0.435062
v -0.473716 -0.053435 -0.483816
v -0.046693 -0.053435 -0.483816
v -0.224043 0.053436 0.386941
v -0.203885 0.053436 0.395447
v -0.203885 0.053432 -0.299726
v -0.244595 0.053436 0.378671
v -0.265550 0.053436 0.370663
v -0.286917 0.053432 0.362945
v -0.308704 0.053436 0.355541
v -0.330920 0.053436 0.348479
v -0.353574 0.053436 0.341785
v -0.325211 0.053436 0.240280
v -0.376674 0.053436 0.335485
v -0.328135 0.053436 0.248732
v -0.400230 0.053432 0.329605
v -0.332286 0.053436 0.255383
v -0.424249 0.053432 0.324172
v -0.337872 0.053436 0.260476
v -0.448742 0.053436 0.319211
v -0.473716 0.053432 0.314750
v -0.345105 0.053436 0.264252
v -0.473716 0.053436 0.272720
v -0.394701 0.053436 0.271039
v -0.378781 0.053432 0.270105
v -0.365350 0.053436 0.268825
v -0.354194 0.053436 0.266954
v -0.323302 0.053432 0.229785
v -0.322199 0.053436 0.217004
v -0.321691 0.053436 0.201695
v -0.321568 0.053436 0.183617
v -0.321568 0.053436 -0.299726
v -0.321801 0.053436 -0.326404
v -0.203617 0.053436 -0.326757
v -0.322798 0.053436 -0.349095
v -0.202515 0.053432 -0.349679
v -0.325009 0.053436 -0.368156
v -0.200128 0.053432 -0.368865
v -0.328885 0.053436 -0.383941
v -0.196008 0.053432 -0.384688
v -0.334873 0.053436 -0.396808
v -0.189705 0.053436 -0.397523
v -0.343424 0.053436 -0.407112
v -0.180769 0.053436 -0.407743
v -0.354987 0.053432 -0.415209
v -0.168750 0.053436 -0.415720
v -0.370012 0.053436 -0.421457
v -0.153200 0.053436 -0.421830
v -0.388947 0.053436 -0.426209
v -0.133669 0.053436 -0.426446
v -0.412244 0.053436 -0.429824
v -0.109707 0.053436 -0.429940
v -0.440350 0.053432 -0.432656
v -0.080865 0.053436 -0.432688
v -0.473716 0.053432 -0.435062
v -0.046693 0.053436 -0.435062
v -0.473716 0.053436 -0.483816
v -0.046693 0.053436 -0.483816
vn 0.0000 -1.0000 0.0000
vn 0.0000 0.0000 1.0000
vn 0.0000 1.0000 -0.0000
vn 0.0001 1.0000 -0.0000
vn 0.0000 1.0000 -0.0001
vn 0.0001 1.0000 -0.0001
vn 0.0000 -0.0000 -1.0000
vn 0.8468 -0.0000 -0.5319
vn 0.8496 -0.0000 -0.5274
vn 0.8438 -0.0000 -0.5366
vn -0.8237 0.0000 0.5670
vn -0.8211 0.0000 0.5707
vn -0.8237 0.0000 0.5671
vn -0.8258 0.0000 0.5639
vn -0.8275 0.0000 0.5615
vn -0.8274 0.0000 0.5616
vn -0.8288 0.0000 0.5596
vn 0.8341 -0.0000 -0.5517
vn 0.8375 -0.0000 -0.5465
vn 0.8341 0.0000 -0.5516
vn 0.8306 -0.0000 -0.5568
vn -1.0000 0.0000 0.0000
vn 1.0000 0.0000 0.0000
vn 0.8270 -0.0000 -0.5622
vn 0.8271 -0.0000 -0.5621
vn 0.8234 0.0000 -0.5675
vn 0.8159 0.0000 -0.5782
vn 0.8197 -0.0000 -0.5728
vn -0.8013 0.0000 0.5983
vn -0.8012 0.0000 0.5983
vn -0.8062 0.0000 0.5916
vn -0.8181 0.0000 0.5750
vn -0.8212 0.0000 0.5707
vn -0.8147 0.0000 0.5799
vn -0.8107 0.0000 0.5854
vn -0.8298 0.0000 0.5580
vn -0.8289 0.0000 0.5594
vn -0.8296 0.0000 0.5584
vn -0.8300 0.0000 0.5577
vn 0.8408 0.0000 -0.5414
vn 0.8522 -0.0000 -0.5233
vn 0.8407 -0.0000 -0.5414
vn 0.8375 0.0000 -0.5464
vn 0.8522 0.0000 -0.5232
vn -0.8063 0.0000 0.5916
vn -0.0019 1.0000 -0.0006
vn -0.0001 1.0000 -0.0000
vn -0.0036 1.0000 -0.0008
vn 0.0001 1.0000 0.0002
vn 0.0003 1.0000 0.0003
vn -0.0001 1.0000 -0.0001
vn 0.0000 1.0000 0.0001
vn -0.0002 1.0000 -0.0004
vn 0.0001 1.0000 0.0003
vn -0.0010 1.0000 -0.0002
vn 0.0006 1.0000 0.0001
vn 0.0000 1.0000 0.0002
vn -0.0000 1.0000 -0.0004
vn -0.0000 1.0000 0.0005
vn 0.0000 1.0000 -0.0003
vn 0.0000 1.0000 -0.0005
vn -0.0949 0.0000 -0.9955
vn -0.1758 0.0000 0.9844
vn -0.3888 0.0000 0.9213
vn 1.0000 -0.0000 0.0099
vn 0.0693 0.0000 0.9976
vn -1.0000 -0.0000 -0.0068
vn -1.0000 -0.0000 0.0087
vn 0.5530 0.0000 0.8332
vn -0.9933 0.0000 0.1152
vn -0.8483 0.0000 -0.5294
vn -0.8484 0.0000 -0.5294
vn 0.2300 0.0000 0.9732
vn -0.9839 0.0000 -0.1790
vn -0.2422 0.0000 0.9702
vn -0.3839 0.0000 0.9234
vn -0.0213 0.0000 -0.9998
vn -0.9995 0.0000 -0.0331
vn -0.2834 0.0000 0.9590
vn 0.8976 0.0000 0.4408
vn -0.4628 0.0000 -0.8864
vn -0.1002 0.0000 0.9950
vn -0.1985 0.0000 0.9801
vn -0.7695 0.0000 0.6386
vn 0.9923 0.0000 0.1235
vn -0.3733 0.0000 0.9277
vn -0.1654 0.0000 -0.9862
vn -0.9963 0.0000 -0.0860
vn -0.3397 0.0000 0.9405
vn 0.0948 0.0000 0.9955
vn -0.9990 0.0000 0.0439
vn 0.3657 0.0000 0.9307
vn -0.9712 0.0000 0.2384
vn 0.9988 0.0000 0.0480
vn -0.9450 0.0000 -0.3270
vn -0.2631 0.0000 0.9648
vn -0.0586 0.0000 -0.9983
vn -0.0585 0.0000 -0.9983
vn 0.1443 0.0000 0.9895
vn -0.1533 0.0000 0.9882
vn -0.3570 0.0000 0.9341
vn -0.2434 0.0000 0.9699
vn -0.0719 0.0000 0.9974
vn -0.3029 0.0000 0.9530
vn -0.5736 0.0000 0.8191
vn 0.7528 0.0000 0.6582
vn -0.6737 0.0000 -0.7390
vn -0.9066 0.0000 0.4219
vn 0.9677 0.0000 0.2520
vn -0.3217 0.0000 0.9468
vn -0.2850 0.0000 -0.9585
vn -0.2206 0.0000 0.9754
usemtl N14
s 1
f 1//1 2//1 3//1
f 1//1 4//1 2//1
f 5//1 6//1 1//1
f 6//1 4//1 1//1
f 7//1 6//1 5//1
f 8//1 9//1 7//1
f 9//1 6//1 7//1
f 8//1 10//1 9//1
f 11//1 4//1 6//1
f 8//1 12//1 10//1
f 13//1 12//1 8//1
f 13//1 14//1 12//1
f 15//1 14//1 13//1
f 15//1 16//1 14//1
f 15//1 17//1 16//1
f 18//1 17//1 15//1
f 18//1 19//1 17//1
f 20//1 19//1 18//1
f 20//1 21//1 19//1
f 20//1 22//1 21//1
f 23//1 22//1 20//1
f 23//1 24//1 22//1
f 25//1 24//1 23//1
f 25//1 26//1 24//1
f 25//1 27//1 26//1
f 28//1 27//1 25//1
f 28//1 29//1 27//1
f 30//1 29//1 28//1
f 30//1 11//1 29//1
f 30//1 4//1 11//1
f 30//1 31//1 4//1
f 30//1 32//1 31//1
f 33//1 32//1 30//1
f 34//2 32//2 33//2
f 35//1 36//1 34//1
f 36//2 32//2 34//2
f 35//1 37//1 36//1
f 38//3 39//4 40//3
f 38//3 40//3 41//3
f 42//3 38//3 43//3
f 43//3 38//3 41//3
f 44//3 42//3 43//3
f 45//3 44//3 46//5
f 46//5 44//3 43//3
f 45//3 46//5 47//3
f 48//3 43//3 41//3
f 45//3 47//3 49//5
f 50//3 45//3 49//5
f 50//3 49//5 51//3
f 52//3 50//3 51//3
f 52//3 51//3 53//6
f 52//3 53//6 54//3
f 55//3 52//3 54//3
f 55//3 54//3 56//3
f 57//3 55//3 56//3
f 57//3 56//3 58//3
f 57//3 58//3 59//3
f 60//3 57//3 59//3
f 60//3 59//3 61//5
f 62//3 60//3 61//5
f 62//3 61//5 63//3
f 62//3 63//3 64//3
f 65//3 62//3 64//3
f 65//3 64//3 66//3
f 67//3 65//3 66//3
f 67//3 66//3 48//3
f 67//3 48//3 41//3
f 67//3 41//3 68//3
f 67//3 68//3 69//3
f 70//3 67//3 69//3
f 71//7 70//7 69//2
f 72//3 71//3 73//3
f 73//2 71//7 69//2
f 72//3 73//3 74//3
f 24//8 26//9 63//8
f 63//8 61//10 24//8
f 18//11 15//12 52//13
f 52//13 55//14 18//11
f 23//15 20//14 57//16
f 57//16 60//17 23//15
f 17//18 19//19 56//20
f 56//20 54//21 17//18
f 35//22 34//22 71//22
f 71//22 72//22 35//22
f 29//2 11//2 48//2
f 48//2 66//2 29//2
f 2//23 4//23 41//23
f 41//23 40//23 2//23
f 14//24 16//21 53//25
f 53//25 51//26 14//24
f 9//27 10//28 47//27
f 47//27 46//27 9//27
f 1//29 3//30 39//30
f 39//30 38//31 1//29
f 33//22 30//22 67//22
f 67//22 70//22 33//22
f 15//12 13//32 50//33
f 50//33 52//13 15//12
f 31//23 32//23 69//23
f 69//23 68//23 31//23
f 12//26 14//24 51//26
f 51//26 49//28 12//26
f 8//34 7//35 44//34
f 44//34 45//32 8//34
f 28//36 25//37 62//38
f 62//38 65//39 28//36
f 22//10 24//8 61//10
f 61//10 59//40 22//10
f 20//14 18//11 55//14
f 55//14 57//16 20//14
f 36//23 37//23 74//23
f 74//23 73//23 36//23
f 26//9 27//41 64//9
f 64//9 63//8 26//9
f 25//37 23//15 60//17
f 60//17 62//38 25//37
f 3//2 2//2 40//2
f 40//2 39//2 3//2
f 19//19 21//42 58//43
f 58//43 56//20 19//19
f 27//41 29//44 66//44
f 66//44 64//9 27//41
f 16//21 17//18 54//21
f 54//21 53//25 16//21
f 6//7 9//7 46//7
f 46//7 43//7 6//7
f 37//7 35//7 72//7
f 72//7 74//7 37//7
f 10//28 12//26 49//28
f 49//28 47//27 10//28
f 5//45 1//29 38//31
f 38//31 42//35 5//45
f 34//7 33//7 70//7
f 70//7 71//7 34//7
f 13//32 8//34 45//32
f 45//32 50//33 13//32
f 30//39 28//36 65//39
f 65//39 67//39 30//39
f 11//22 6//22 43//22
f 43//22 48//22 11//22
f 4//2 31//2 68//2
f 68//2 41//2 4//2
f 32//7 36//7 73//7
f 73//7 69//7 32//7
f 7//35 5//45 42//35
f 42//35 44//34 7//35
f 21//42 22//10 59//40
f 59//40 58//43 21//42
f 75//1 76//1 77//1
f 78//1 76//1 75//1
f 79//1 76//1 78//1
f 80//1 76//1 79//1
f 81//1 76//1 80//1
f 82//1 76//1 81//1
f 83//1 84//1 82//1
f 84//1 76//1 82//1
f 85//1 86//1 83//1
f 86//1 84//1 83//1
f 87//1 88//1 85//1
f 88//1 86//1 85//1
f 89//1 90//1 87//1
f 90//1 88//1 87//1
f 91//1 90//1 89//1
f 92//1 93//1 91//1
f 93//1 90//1 91//1
f 94//1 95//1 92//1
f 95//1 96//1 92//1
f 96//1 97//1 92//1
f 97//1 98//1 92//1
f 98//1 93//1 92//1
f 99//1 76//1 84//1
f 100//1 76//1 99//1
f 101//1 76//1 100//1
f 102//1 76//1 101//1
f 103//1 76//1 102//1
f 104//1 76//1 103//1
f 104//1 105//1 76//1
f 106//1 105//1 104//1
f 106//1 107//1 105//1
f 108//1 107//1 106//1
f 108//1 109//1 107//1
f 110//1 109//1 108//1
f 110//1 111//1 109//1
f 112//1 111//1 110//1
f 112//1 113//1 111//1
f 114//1 113//1 112//1
f 114//1 115//1 113//1
f 116//1 115//1 114//1
f 116//1 117//1 115//1
f 118//1 117//1 116//1
f 118//1 119//1 117//1
f 120//1 119//1 118//1
f 120//1 121//1 119//1
f 122//1 121//1 120//1
f 122//1 123//1 121//1
f 124//1 123//1 122//1
f 124//1 125//1 123//1
f 126//1 125//1 124//1
f 126//1 127//1 125//1
f 128//1 127//1 126//1
f 128//1 129//1 127//1
f 130//3 131//3 132//46
f 133//3 130//3 132//46
f 134//47 133//3 132//46
f 135//3 134//47 132//46
f 136//4 135//3 132//46
f 137//3 136//4 132//46
f 138//3 137//3 139//48
f 139//48 137//3 132//46
f 140//47 138//3 141//3
f 141//3 138//3 139//48
f 142//47 140//47 143//3
f 143//3 140//47 141//3
f 144//49 142//47 145//50
f 145//50 142//47 143//3
f 146//51 144//49 145//50
f 147//3 146//51 148//5
f 148//5 146//51 145//50
f 149//52 147//3 150//52
f 150//52 147//3 151//52
f 151//52 147//3 152//53
f 152//53 147//3 153//54
f 153//54 147//3 148//5
f 154//55 139//48 132//46
f 155//56 154//55 132//46
f 156//3 155//56 132//46
f 157//3 156//3 132//46
f 158//3 157//3 132//46
f 159//3 158//3 132//46
f 159//3 132//46 160//3
f 161//3 159//3 160//3
f 161//3 160//3 162//5
f 163//3 161//3 162//5
f 163//3 162//5 164//3
f 165//3 163//3 164//3
f 165//3 164//3 166//57
f 167//3 165//3 166//57
f 167//3 166//57 168//52
f 169//58 167//3 168//52
f 169//58 168//52 170//3
f 171//59 169//58 170//3
f 171//59 170//3 172//3
f 173//52 171//59 172//3
f 173//52 172//3 174//3
f 175//3 173//52 174//3
f 175//3 174//3 176//3
f 177//60 175//3 176//3
f 177//60 176//3 178//58
f 179//61 177//60 178//58
f 179//61 178//58 180//5
f 181//52 179//61 180//5
f 181//52 180//5 182//3
f 183//52 181//52 182//3
f 183//52 182//3 184//3
f 97//62 96//62 151//62
f 151//62 152//62 97//62
f 92//63 91//63 146//63
f 146//63 147//63 92//63
f 75//64 77//64 131//64
f 131//64 130//64 75//64
f 129//7 128//7 183//7
f 183//7 184//7 129//7
f 76//65 105//65 160//65
f 160//65 132//23 76//65
f 128//22 126//22 181//22
f 181//22 183//22 128//22
f 125//66 127//66 182//66
f 182//66 180//66 125//66
f 103//22 102//67 157//22
f 157//22 158//68 103//22
f 115//69 117//69 172//69
f 172//69 170//69 115//69
f 108//70 106//70 161//70
f 161//70 163//70 108//70
f 86//71 88//71 143//72
f 143//72 141//72 86//71
f 119//73 121//73 176//73
f 176//73 174//73 119//73
f 99//74 84//74 139//74
f 139//74 154//74 99//74
f 87//75 85//75 140//75
f 140//75 142//75 87//75
f 118//76 116//76 171//76
f 171//76 173//76 118//76
f 95//77 94//77 149//77
f 149//77 150//77 95//77
f 101//78 100//78 155//78
f 155//78 156//78 101//78
f 83//79 82//79 137//79
f 137//79 138//79 83//79
f 111//80 113//80 168//80
f 168//80 166//80 111//80
f 90//81 93//81 148//81
f 148//81 145//81 90//81
f 124//82 122//82 177//82
f 177//82 179//82 124//82
f 91//83 89//83 144//83
f 144//83 146//83 91//83
f 114//84 112//84 167//84
f 167//84 169//84 114//84
f 107//85 109//85 164//85
f 164//85 162//85 107//85
f 78//86 75//86 130//86
f 130//86 133//86 78//86
f 98//87 97//87 152//87
f 152//87 153//87 98//87
f 127//23 129//23 184//23
f 184//23 182//23 127//23
f 100//88 99//88 154//88
f 154//88 155//88 100//88
f 80//89 79//89 134//89
f 134//89 135//89 80//89
f 94//22 92//22 147//22
f 147//22 149//22 94//22
f 77//23 76//65 132//23
f 132//23 131//23 77//23
f 123//90 125//90 180//90
f 180//90 178//90 123//90
f 106//91 104//91 159//91
f 159//91 161//91 106//91
f 117//92 119//92 174//92
f 174//92 172//92 117//92
f 110//93 108//93 163//93
f 163//93 165//93 110//93
f 105//94 107//94 162//94
f 162//94 160//94 105//94
f 84//95 86//95 141//95
f 141//95 139//95 84//95
f 104//68 103//22 158//68
f 158//68 159//68 104//68
f 85//96 83//96 138//96
f 138//96 140//96 85//96
f 96//97 95//97 150//98
f 150//98 151//98 96//97
f 102//67 101//67 156//67
f 156//67 157//22 102//67
f 121//99 123//99 178//99
f 178//99 176//99 121//99
f 122//100 120//100 175//100
f 175//100 177//100 122//100
f 79//101 78//101 133//101
f 133//101 134//101 79//101
f 120//102 118//102 173//102
f 173//102 175//102 120//102
f 126//103 124//103 179//103
f 179//103 181//103 126//103
f 82//104 81//104 136//104
f 136//104 137//104 82//104
f 116//105 114//105 169//105
f 169//105 171//105 116//105
f 113//106 115//106 170//106
f 170//106 168//106 113//106
f 88//107 90//107 145//107
f 145//107 143//107 88//107
f 112//108 110//108 165//108
f 165//108 167//108 112//108
f 109//109 111//109 166//109
f 166//109 164//109 109//109
f 81//110 80//110 135//110
f 135//110 136//110 81//110
f 93//111 98//111 153//111
f 153//111 148//111 93//111
f 89//112 87//112 142//112
f 142//112 144//112 89//112
