# Blender v2.90.0 OBJ File: ''
# www.blender.org
mtllib N15.mtl
o N15
v -0.025169 -0.052057 -0.008397
v 0.087025 -0.052057 0.353571
v 0.030519 -0.052057 0.458394
v 0.467009 -0.052057 0.458394
v 0.476018 -0.052057 0.444472
v 0.438347 -0.052057 0.353571
v 0.049354 -0.052057 0.062850
v 0.198746 -0.052057 0.106578
v 0.257910 -0.052057 0.104307
v 0.209865 -0.052057 0.107072
v 0.186771 -0.052057 0.105161
v 0.174075 -0.052057 0.102926
v 0.301733 -0.052057 0.096350
v 0.160790 -0.052057 0.099975
v 0.147049 -0.052057 0.096409
v 0.132988 -0.052057 0.092331
v 0.341342 -0.052057 0.083707
v 0.118738 -0.052057 0.087844
v 0.104435 -0.052057 0.083050
v 0.376745 -0.052057 0.066884
v 0.090211 -0.052057 0.078051
v 0.076201 -0.052057 0.072950
v 0.062537 -0.052057 0.067849
v 0.407951 -0.052057 0.046387
v -0.016151 -0.052057 -0.005285
v -0.006326 -0.052057 -0.002130
v 0.004261 -0.052057 0.001007
v 0.015566 -0.052057 0.004069
v 0.027540 -0.052057 0.006993
v 0.040141 -0.052057 0.009721
v 0.053322 -0.052057 0.012194
v 0.067037 -0.052057 0.014351
v 0.081241 -0.052057 0.016132
v 0.095889 -0.052057 0.017478
v 0.110935 -0.052057 0.018330
v 0.126334 -0.052057 0.018627
v 0.434969 -0.052057 0.022722
v 0.169181 -0.052057 0.016633
v 0.457807 -0.052057 -0.003604
v 0.208079 -0.052057 0.010791
v 0.243070 -0.052057 0.001315
v 0.274197 -0.052057 -0.011582
v 0.476473 -0.052057 -0.032086
v 0.301501 -0.052057 -0.027686
v 0.325027 -0.052057 -0.046785
v 0.490976 -0.052057 -0.062217
v 0.344816 -0.052057 -0.068664
v 0.501325 -0.052057 -0.093490
v 0.360912 -0.052057 -0.093111
v 0.373356 -0.052057 -0.119913
v 0.507528 -0.052057 -0.125401
v 0.382193 -0.052057 -0.148856
v 0.509593 -0.052057 -0.157443
v 0.387463 -0.052057 -0.179726
v 0.508669 -0.052057 -0.180519
v 0.389211 -0.052057 -0.212311
v 0.505882 -0.052057 -0.203447
v 0.501212 -0.052057 -0.226182
v 0.387794 -0.052057 -0.240800
v 0.494641 -0.052057 -0.248678
v 0.383543 -0.052057 -0.269064
v 0.486147 -0.052057 -0.270890
v 0.376453 -0.052057 -0.296674
v 0.475710 -0.052057 -0.292771
v 0.463312 -0.052057 -0.314278
v 0.366523 -0.052057 -0.323200
v 0.448932 -0.052057 -0.335363
v 0.353750 -0.052057 -0.348215
v 0.432550 -0.052057 -0.355983
v 0.338130 -0.052057 -0.371287
v 0.414146 -0.052057 -0.376090
v -0.025988 -0.052057 -0.364428
v -0.019254 -0.052057 -0.364663
v -0.022672 -0.052057 -0.364278
v -0.029235 -0.052057 -0.365089
v -0.015700 -0.052057 -0.365605
v -0.032448 -0.052057 -0.366240
v -0.011975 -0.052057 -0.367128
v -0.035661 -0.052057 -0.367857
v -0.008045 -0.052057 -0.369252
v -0.038909 -0.052057 -0.369918
v -0.003877 -0.052057 -0.372003
v -0.042224 -0.052057 -0.372399
v 0.319660 -0.052057 -0.391987
v 0.004740 -0.052057 -0.378770
v -0.045642 -0.052057 -0.375279
v -0.049993 -0.052057 -0.378666
v 0.393701 -0.052057 -0.395640
v -0.054036 -0.052057 -0.382244
v 0.014626 -0.052057 -0.386217
v -0.057773 -0.052057 -0.385963
v -0.061202 -0.052057 -0.389777
v 0.025784 -0.052057 -0.394101
v -0.064324 -0.052057 -0.393636
v 0.298340 -0.052057 -0.409886
v -0.067139 -0.052057 -0.397492
v 0.038222 -0.052057 -0.402182
v 0.371194 -0.052057 -0.414588
v -0.069647 -0.052057 -0.401298
v -0.071848 -0.052057 -0.405003
v 0.051947 -0.052057 -0.410217
v -0.073742 -0.052057 -0.408561
v -0.075328 -0.052057 -0.411922
v 0.274164 -0.052057 -0.424555
v 0.066961 -0.052057 -0.417966
v -0.076608 -0.052057 -0.415039
v 0.350303 -0.052057 -0.431387
v -0.077580 -0.052057 -0.417863
v -0.078022 -0.052057 -0.422633
v 0.083272 -0.052057 -0.425184
v -0.078107 -0.052057 -0.427152
v 0.247130 -0.052057 -0.435565
v 0.100886 -0.052057 -0.431633
v -0.077823 -0.052057 -0.431478
v 0.328682 -0.052057 -0.446954
v -0.077156 -0.052057 -0.435667
v 0.119808 -0.052057 -0.437070
v 0.217236 -0.052057 -0.442486
v -0.076090 -0.052057 -0.439777
v 0.140043 -0.052057 -0.441252
v -0.074611 -0.052057 -0.443864
v 0.161598 -0.052057 -0.443938
v 0.184478 -0.052057 -0.444888
v -0.072707 -0.052057 -0.447985
v 0.306486 -0.052057 -0.461254
v -0.070361 -0.052057 -0.452197
v -0.067561 -0.052057 -0.456558
v -0.064291 -0.052057 -0.461123
v -0.060538 -0.052057 -0.465949
v 0.283872 -0.052057 -0.474248
v -0.056288 -0.052057 -0.471094
v -0.049625 -0.052057 -0.476662
v 0.260996 -0.052057 -0.485900
v -0.041203 -0.052057 -0.482612
v -0.031170 -0.052057 -0.488778
v 0.238015 -0.052057 -0.496174
v -0.019679 -0.052057 -0.494995
v -0.006880 -0.052057 -0.501098
v 0.215086 -0.052057 -0.505030
v 0.007077 -0.052057 -0.506922
v 0.192364 -0.052057 -0.512434
v 0.022040 -0.052057 -0.512303
v 0.037858 -0.052057 -0.517075
v 0.170006 -0.052057 -0.518349
v 0.054383 -0.052057 -0.521074
v 0.148168 -0.052057 -0.522736
v 0.071461 -0.052057 -0.524135
v 0.127007 -0.052057 -0.525559
v 0.088944 -0.052057 -0.526092
v 0.106679 -0.052057 -0.526781
v -0.025169 0.052059 -0.008397
v 0.030519 0.052056 0.458394
v 0.087025 0.052059 0.353571
v 0.467009 0.052059 0.458394
v 0.476018 0.052059 0.444472
v 0.438347 0.052059 0.353571
v 0.049354 0.052056 0.062850
v 0.198746 0.052059 0.106578
v 0.209865 0.052059 0.107072
v 0.257910 0.052059 0.104307
v 0.186771 0.052059 0.105161
v 0.174075 0.052056 0.102926
v 0.301733 0.052059 0.096350
v 0.160790 0.052059 0.099975
v 0.147049 0.052059 0.096409
v 0.132988 0.052059 0.092331
v 0.341342 0.052056 0.083707
v 0.118738 0.052059 0.087844
v 0.104435 0.052059 0.083050
v 0.376745 0.052059 0.066884
v 0.090211 0.052059 0.078051
v 0.076201 0.052059 0.072950
v 0.062537 0.052059 0.067849
v 0.407951 0.052059 0.046387
v -0.016151 0.052059 -0.005285
v -0.006326 0.052059 -0.002130
v 0.004261 0.052059 0.001007
v 0.015566 0.052059 0.004069
v 0.027540 0.052059 0.006993
v 0.040141 0.052059 0.009721
v 0.053322 0.052059 0.012194
v 0.067037 0.052059 0.014351
v 0.081241 0.052059 0.016132
v 0.095889 0.052059 0.017478
v 0.110935 0.052059 0.018330
v 0.126334 0.052056 0.018627
v 0.434969 0.052059 0.022722
v 0.169181 0.052059 0.016633
v 0.457807 0.052059 -0.003604
v 0.208079 0.052059 0.010791
v 0.243070 0.052059 0.001315
v 0.274197 0.052056 -0.011582
v 0.476473 0.052059 -0.032086
v 0.301501 0.052059 -0.027686
v 0.325027 0.052059 -0.046785
v 0.490976 0.052056 -0.062217
v 0.344816 0.052059 -0.068664
v 0.501325 0.052059 -0.093490
v 0.360912 0.052059 -0.093111
v 0.373356 0.052059 -0.119913
v 0.507528 0.052056 -0.125401
v 0.382193 0.052059 -0.148856
v 0.509593 0.052056 -0.157443
v 0.387463 0.052059 -0.179726
v 0.508669 0.052059 -0.180519
v 0.389211 0.052059 -0.212311
v 0.505882 0.052059 -0.203447
v 0.501212 0.052059 -0.226182
v 0.387794 0.052059 -0.240800
v 0.494641 0.052059 -0.248678
v 0.383543 0.052059 -0.269064
v 0.486147 0.052059 -0.270890
v 0.376453 0.052059 -0.296674
v 0.475710 0.052059 -0.292771
v 0.463312 0.052059 -0.314278
v 0.366523 0.052059 -0.323200
v 0.448932 0.052059 -0.335363
v 0.353750 0.052059 -0.348215
v 0.432550 0.052059 -0.355983
v 0.338130 0.052059 -0.371287
v 0.414146 0.052059 -0.376090
v -0.025988 0.052059 -0.364428
v -0.022672 0.052059 -0.364278
v -0.019254 0.052059 -0.364663
v -0.029235 0.052056 -0.365089
v -0.015700 0.052059 -0.365605
v -0.032448 0.052059 -0.366240
v -0.011975 0.052059 -0.367128
v -0.035661 0.052056 -0.367857
v -0.008045 0.052059 -0.369252
v -0.038909 0.052059 -0.369918
v -0.003877 0.052059 -0.372003
v -0.042224 0.052059 -0.372399
v 0.319660 0.052059 -0.391987
v 0.004740 0.052059 -0.378770
v -0.045642 0.052059 -0.375279
v -0.049993 0.052059 -0.378666
v 0.393701 0.052059 -0.395640
v -0.054036 0.052056 -0.382244
v 0.014626 0.052056 -0.386217
v -0.057773 0.052056 -0.385963
v -0.061202 0.052059 -0.389777
v 0.025784 0.052059 -0.394101
v -0.064324 0.052059 -0.393636
v 0.298340 0.052059 -0.409886
v -0.067139 0.052059 -0.397492
v 0.038222 0.052059 -0.402182
v 0.371194 0.052059 -0.414588
v -0.069647 0.052056 -0.401298
v -0.071848 0.052059 -0.405003
v 0.051947 0.052059 -0.410217
v -0.073742 0.052059 -0.408561
v -0.075328 0.052059 -0.411922
v 0.274164 0.052059 -0.424555
v 0.066961 0.052059 -0.417966
v -0.076608 0.052056 -0.415039
v 0.350303 0.052059 -0.431387
v -0.077580 0.052059 -0.417863
v -0.078022 0.052059 -0.422633
v 0.083272 0.052059 -0.425184
v -0.078107 0.052059 -0.427152
v 0.247130 0.052059 -0.435565
v 0.100886 0.052059 -0.431633
v -0.077823 0.052059 -0.431478
v 0.328682 0.052059 -0.446954
v -0.077156 0.052059 -0.435667
v 0.119808 0.052059 -0.437070
v 0.217236 0.052059 -0.442486
v -0.076090 0.052059 -0.439777
v 0.140043 0.052059 -0.441252
v -0.074611 0.052059 -0.443864
v 0.161598 0.052059 -0.443938
v 0.184478 0.052059 -0.444888
v -0.072707 0.052059 -0.447985
v 0.306486 0.052059 -0.461254
v -0.070361 0.052059 -0.452197
v -0.067561 0.052059 -0.456558
v -0.064291 0.052059 -0.461123
v -0.060538 0.052056 -0.465949
v 0.283872 0.052059 -0.474248
v -0.056288 0.052059 -0.471094
v -0.049625 0.052059 -0.476662
v 0.260996 0.052056 -0.485900
v -0.041203 0.052059 -0.482612
v -0.031170 0.052056 -0.488778
v 0.238015 0.052059 -0.496174
v -0.019679 0.052059 -0.494995
v -0.006880 0.052059 -0.501098
v 0.215086 0.052059 -0.505030
v 0.007077 0.052059 -0.506922
v 0.192364 0.052059 -0.512434
v 0.022040 0.052059 -0.512303
v 0.037858 0.052056 -0.517075
v 0.170006 0.052059 -0.518349
v 0.054383 0.052059 -0.521074
v 0.148168 0.052059 -0.522736
v 0.071461 0.052059 -0.524135
v 0.127007 0.052059 -0.525559
v 0.088944 0.052056 -0.526092
v 0.106679 0.052056 -0.526781
v -0.304386 -0.052057 0.466485
v -0.284747 -0.052057 -0.202484
v -0.284747 -0.052057 0.474773
v -0.324409 -0.052057 0.458428
v -0.344824 -0.052057 0.450627
v -0.365639 -0.052057 0.443107
v -0.386865 -0.052057 0.435895
v -0.408508 -0.052057 0.429015
v -0.430578 -0.052057 0.422493
v -0.402946 -0.052057 0.323604
v -0.453083 -0.052057 0.416355
v -0.405795 -0.052057 0.331838
v -0.476032 -0.052057 0.410627
v -0.409839 -0.052057 0.338318
v -0.499432 -0.052057 0.405334
v -0.415282 -0.052057 0.343279
v -0.523294 -0.052057 0.400501
v -0.547624 -0.052057 0.396155
v -0.422328 -0.052057 0.346958
v -0.547624 -0.052057 0.355208
v -0.470645 -0.052057 0.353571
v -0.455136 -0.052057 0.352661
v -0.442050 -0.052057 0.351413
v -0.431182 -0.052057 0.349591
v -0.401087 -0.052057 0.313379
v -0.400012 -0.052057 0.300928
v -0.399517 -0.052057 0.286014
v -0.399397 -0.052057 0.268402
v -0.399397 -0.052057 -0.202484
v -0.399624 -0.052057 -0.228475
v -0.284487 -0.052057 -0.228819
v -0.400596 -0.052057 -0.250581
v -0.283412 -0.052057 -0.251150
v -0.402750 -0.052057 -0.269150
v -0.281088 -0.052057 -0.269841
v -0.406525 -0.052057 -0.284529
v -0.277073 -0.052057 -0.285257
v -0.412359 -0.052057 -0.297064
v -0.270932 -0.052057 -0.297761
v -0.420690 -0.052057 -0.307102
v -0.262226 -0.052057 -0.307717
v -0.431955 -0.052057 -0.314992
v -0.250518 -0.052057 -0.315489
v -0.446593 -0.052057 -0.321078
v -0.235369 -0.052057 -0.321442
v -0.465040 -0.052057 -0.325708
v -0.216340 -0.052057 -0.325938
v -0.487736 -0.052057 -0.329229
v -0.192997 -0.052057 -0.329343
v -0.515118 -0.052057 -0.331988
v -0.164898 -0.052057 -0.332019
v -0.547624 -0.052057 -0.334332
v -0.131607 -0.052057 -0.334332
v -0.547624 -0.052057 -0.381830
v -0.131607 -0.052057 -0.381830
v -0.304386 0.052059 0.466485
v -0.284747 0.052059 0.474773
v -0.284747 0.052056 -0.202484
v -0.324409 0.052059 0.458428
v -0.344824 0.052059 0.450627
v -0.365639 0.052056 0.443107
v -0.386865 0.052059 0.435895
v -0.408508 0.052059 0.429015
v -0.430578 0.052059 0.422493
v -0.402946 0.052059 0.323604
v -0.453083 0.052059 0.416355
v -0.405795 0.052059 0.331838
v -0.476032 0.052056 0.410627
v -0.409839 0.052059 0.338318
v -0.499432 0.052056 0.405334
v -0.415282 0.052059 0.343279
v -0.523294 0.052059 0.400501
v -0.547624 0.052056 0.396155
v -0.422328 0.052059 0.346958
v -0.547624 0.052059 0.355208
v -0.470645 0.052059 0.353571
v -0.455136 0.052056 0.352661
v -0.442050 0.052059 0.351413
v -0.431182 0.052059 0.349591
v -0.401087 0.052056 0.313379
v -0.400012 0.052059 0.300928
v -0.399517 0.052059 0.286014
v -0.399397 0.052059 0.268402
v -0.399397 0.052059 -0.202484
v -0.399624 0.052059 -0.228475
v -0.284487 0.052059 -0.228819
v -0.400596 0.052059 -0.250581
v -0.283412 0.052056 -0.251150
v -0.402750 0.052059 -0.269150
v -0.281088 0.052056 -0.269841
v -0.406525 0.052059 -0.284529
v -0.277073 0.052056 -0.285257
v -0.412359 0.052059 -0.297064
v -0.270932 0.052059 -0.297761
v -0.420690 0.052059 -0.307102
v -0.262226 0.052059 -0.307717
v -0.431955 0.052056 -0.314992
v -0.250518 0.052059 -0.315489
v -0.446593 0.052059 -0.321078
v -0.235369 0.052059 -0.321442
v -0.465040 0.052059 -0.325708
v -0.216340 0.052059 -0.325938
v -0.487736 0.052059 -0.329229
v -0.192997 0.052059 -0.329343
v -0.515118 0.052056 -0.331988
v -0.164898 0.052059 -0.332019
v -0.547624 0.052056 -0.334332
v -0.131607 0.052059 -0.334332
v -0.547624 0.052059 -0.381830
v -0.131607 0.052059 -0.381830
vn 0.0000 -1.0000 -0.0000
vn 0.0000 -1.0000 0.0019
vn 0.0000 1.0000 0.0000
vn 0.0001 1.0000 -0.0008
vn 0.0000 1.0000 -0.0003
vn -0.0000 1.0000 -0.0006
vn -0.0000 1.0000 0.0001
vn -0.0000 1.0000 0.0006
vn 0.0000 1.0000 0.0002
vn -0.0000 1.0000 -0.0005
vn 0.0001 1.0000 -0.0011
vn 0.0002 1.0000 -0.0020
vn 0.0001 1.0000 0.0000
vn 0.0000 1.0000 0.0005
vn 0.0000 1.0000 0.0003
vn -0.0000 1.0000 -0.0002
vn 0.0000 1.0000 -0.0001
vn -0.0000 1.0000 -0.0012
vn 0.0001 1.0000 -0.0028
vn -0.0002 1.0000 -0.0018
vn -0.0003 1.0000 0.0018
vn -0.0001 1.0000 0.0013
vn -0.0000 1.0000 -0.0010
vn -0.0001 1.0000 -0.0008
vn -0.0000 1.0000 0.0009
vn 0.0000 1.0000 0.0010
vn -0.0000 1.0000 -0.0004
vn 0.0000 1.0000 0.0004
vn -0.0001 1.0000 -0.0012
vn -0.0001 1.0000 -0.0015
vn -0.0001 1.0000 -0.0021
vn -0.0001 1.0000 -0.0016
vn -0.8737 0.0000 -0.4865
vn -0.4759 0.0000 -0.8795
vn -0.9455 0.0000 0.3256
vn -0.7436 0.0000 0.6686
vn 0.3603 0.0000 -0.9328
vn -0.3003 0.0000 0.9538
vn -0.1764 0.0000 -0.9843
vn 0.1787 0.0000 0.9839
vn 0.6911 0.0000 -0.7228
vn 0.9796 0.0000 -0.2012
vn 0.4047 0.0000 0.9144
vn -0.3772 0.0000 0.9261
vn 0.4756 0.0000 0.8796
vn 0.4756 0.0000 0.8797
vn -0.5359 0.0000 0.8443
vn 0.0193 0.0000 -0.9998
vn -0.8352 0.0000 -0.5499
vn 0.2614 0.0000 -0.9652
vn 0.0000 0.0000 -1.0000
vn -0.9077 0.0000 -0.4195
vn -0.5236 0.0000 -0.8520
vn -0.9250 0.0000 0.3800
vn -0.9251 0.0000 0.3797
vn -0.7055 0.0000 0.7087
vn 0.4081 0.0000 -0.9129
vn -0.1112 0.0000 -0.9938
vn -0.2785 0.0000 0.9604
vn 0.7377 0.0000 -0.6752
vn 0.3041 0.0000 0.9526
vn 0.9927 0.0000 -0.1207
vn 0.4586 0.0000 0.8887
vn 0.4586 0.0000 0.8886
vn -0.2256 0.0000 0.9742
vn 0.3783 0.0000 0.9257
vn -0.5992 0.0000 0.8006
vn -0.7416 0.0000 -0.6708
vn -0.9686 0.0000 0.2487
vn 0.0565 0.0000 -0.9984
vn 0.2842 0.0000 -0.9588
vn -0.8129 0.0000 -0.5823
vn -0.3851 0.0000 -0.9229
vn -0.9998 0.0000 0.0189
vn -0.8077 0.0000 0.5896
vn 0.4539 0.0000 -0.8911
vn -0.0388 0.0000 -0.9992
vn -0.0389 0.0000 -0.9992
vn -0.3316 0.0000 0.9434
vn -0.3421 0.0000 0.9397
vn 0.7830 0.0000 -0.6221
vn -0.0444 0.0000 0.9990
vn 0.9992 0.0000 -0.0400
vn 0.8364 0.0000 0.5481
vn 0.2761 0.0000 0.9611
vn -0.6430 0.0000 0.7659
vn 0.6176 0.0000 0.7865
vn -0.3372 0.0000 0.9414
vn -0.3369 0.0000 0.9415
vn -0.6303 0.0000 -0.7764
vn -0.9889 0.0000 0.1487
vn 0.0915 0.0000 -0.9958
vn 0.3057 0.0000 -0.9521
vn -0.9680 0.0000 -0.2511
vn -0.6413 0.0000 -0.7673
vn -0.8827 0.0000 0.4699
vn -0.6143 0.0000 0.7890
vn -0.3546 0.0000 0.9350
vn -0.3498 0.0000 0.9368
vn -0.3545 -0.0000 0.9350
vn 0.3098 0.0000 -0.9508
vn -0.2352 0.0000 -0.9719
vn -0.2169 0.0000 0.9762
vn 0.6440 0.0000 -0.7650
vn 0.5490 0.0000 0.8358
vn 0.9599 0.0000 -0.2804
vn 0.0415 0.0000 0.9991
vn -0.8906 0.0000 0.4548
vn 0.5448 0.0000 0.8386
vn 0.1118 0.0000 0.9937
vn 0.1122 -0.0000 0.9937
vn -0.0465 0.0000 -0.9989
vn -0.9070 0.0000 -0.4211
vn 0.2373 0.0000 -0.9714
vn 0.9238 0.0000 -0.3828
vn -0.9875 0.0000 -0.1574
vn -0.7710 0.0000 -0.6369
vn -0.8598 0.0000 0.5107
vn -0.6443 0.0000 0.7648
vn 0.5416 0.0000 -0.8407
vn 0.1322 0.0000 -0.9912
vn 0.8664 0.0000 -0.4994
vn -0.1734 0.0000 0.9849
vn 0.9816 0.0000 0.1908
vn 0.1237 0.0000 0.9923
vn 0.9494 0.0000 0.3142
vn 0.6589 0.0000 0.7522
vn -0.8281 0.0000 0.5606
vn 0.5771 0.0000 0.8167
vn -0.0451 0.0000 0.9990
vn -0.3828 0.0000 -0.9238
vn -0.9986 0.0000 -0.0536
vn 0.1553 0.0000 -0.9879
vn -0.9930 0.0000 0.1185
vn -0.9979 0.0000 -0.0654
vn -0.7894 0.0000 -0.6139
vn -0.8350 0.0000 0.5503
vn 0.1970 0.0000 -0.9804
vn -0.3384 0.0000 -0.9410
vn -0.1175 0.0000 0.9931
vn 0.5843 0.0000 -0.8115
vn 0.9026 0.0000 -0.4305
vn 0.2024 0.0000 0.9793
vn 0.7554 0.0000 0.6553
vn -0.7462 0.0000 0.6657
vn 0.6017 0.0000 0.7987
vn -0.1996 0.0000 0.9799
vn -0.2614 0.0000 -0.9652
vn -0.9857 0.0000 -0.1683
vn 0.1844 0.0000 -0.9829
vn -0.0000 0.0000 1.0000
vn -0.9404 0.0000 -0.3401
vn -0.5769 0.0000 -0.8168
vn -0.9043 0.0000 0.4269
vn -0.6627 0.0000 0.7489
vn 0.2557 0.0000 -0.9668
vn -0.2888 0.0000 -0.9574
vn -0.2512 0.0000 0.9679
vn 0.6266 0.0000 -0.7793
vn 0.4292 0.0000 0.9032
vn 0.9340 0.0000 -0.3572
vn -0.0731 0.0000 0.9973
vn -0.9365 0.0000 0.3506
vn 0.5052 0.0000 0.8630
vn 0.2562 0.0000 0.9666
vn -0.1485 0.0000 -0.9889
vn -0.9564 0.0000 -0.2920
vn 0.2116 0.0000 -0.9774
vn 0.8396 0.0000 0.5433
vn -0.8415 0.0000 -0.5403
vn -0.4304 0.0000 -0.9026
vn -0.9957 0.0000 0.0922
vn -0.7774 0.0000 0.6290
vn 0.4982 0.0000 -0.8670
vn 0.0600 0.0000 -0.9982
vn -0.3178 0.0000 0.9482
vn 0.8262 0.0000 -0.5634
vn 0.0575 0.0000 0.9983
vn 0.9979 0.0000 0.0643
vn 0.3438 0.0000 0.9390
vn 0.9010 0.0000 0.4337
vn -0.5187 0.0000 0.8549
vn 0.5508 0.0000 0.8347
vn 0.5508 0.0000 0.8346
vn -0.4494 0.0000 0.8933
vn -0.5080 0.0000 -0.8613
vn 0.9917 0.0000 -0.1285
vn -0.9988 0.0000 0.0497
vn 0.1245 0.0000 -0.9922
vn 0.3262 0.0000 -0.9453
vn 0.0000 -1.0000 0.0002
vn -0.0019 1.0000 -0.0006
vn -0.0001 1.0000 -0.0000
vn -0.0036 1.0000 -0.0008
vn 0.0001 1.0000 0.0001
vn 0.0002 1.0000 0.0002
vn -0.0001 1.0000 -0.0001
vn 0.0001 1.0000 0.0003
vn -0.0003 1.0000 -0.0005
vn -0.0007 1.0000 -0.0002
vn 0.0005 1.0000 0.0001
vn -0.3397 0.0000 0.9405
vn -0.3398 0.0000 0.9405
vn 0.9677 0.0000 0.2520
vn -0.1759 0.0000 0.9844
vn -0.6737 0.0000 -0.7390
vn 0.0693 0.0000 0.9976
vn -1.0000 0.0000 0.0000
vn -1.0000 0.0000 0.0087
vn -0.9066 0.0000 0.4220
vn -0.2422 0.0000 0.9702
vn 0.8976 0.0000 0.4408
vn -0.3888 0.0000 0.9213
vn -0.9994 0.0000 -0.0332
vn -0.1654 0.0000 -0.9862
vn 1.0000 0.0000 0.0000
vn -0.3839 0.0000 0.9234
vn -0.3029 0.0000 0.9530
vn 0.9988 0.0000 0.0480
vn -0.0213 0.0000 -0.9998
vn -0.9450 0.0000 -0.3270
vn 0.1443 0.0000 0.9895
vn -0.1002 0.0000 0.9950
vn -0.9933 0.0000 0.1153
vn -0.2834 0.0000 0.9590
vn 1.0000 -0.0000 0.0099
vn -0.9839 0.0000 -0.1789
vn -0.0586 0.0000 -0.9983
vn 0.5530 0.0000 0.8332
vn -0.1533 0.0000 0.9882
vn -0.9990 0.0000 0.0439
vn -0.2631 0.0000 0.9648
vn -0.9963 0.0000 -0.0860
vn -0.0949 0.0000 -0.9955
vn 0.3657 0.0000 0.9307
vn -0.2435 0.0000 0.9699
vn -0.2434 0.0000 0.9699
vn -0.3217 0.0000 0.9468
vn 0.9924 0.0000 0.1234
vn -0.8484 0.0000 -0.5294
vn 0.2300 0.0000 0.9732
vn -0.0719 0.0000 0.9974
vn -0.9712 0.0000 0.2384
vn -0.2206 0.0000 0.9754
vn -0.3733 0.0000 0.9277
vn -0.2850 0.0000 -0.9585
vn -1.0000 -0.0000 -0.0068
vn 0.7528 0.0000 0.6582
vn -0.5737 0.0000 0.8191
vn -0.3570 0.0000 0.9341
vn -0.1985 0.0000 0.9801
vn -0.4628 0.0000 -0.8864
vn 0.0948 0.0000 0.9955
vn -0.7695 0.0000 0.6386
usemtl N15
s 1
f 1//1 2//1 3//1
f 2//1 4//1 3//1
f 2//1 5//1 4//1
f 2//1 6//1 5//1
f 1//1 7//1 2//1
f 8//1 9//1 10//1
f 11//1 9//1 8//1
f 12//1 9//1 11//1
f 12//1 13//1 9//1
f 14//1 13//1 12//1
f 15//1 13//1 14//1
f 16//1 13//1 15//1
f 16//1 17//1 13//1
f 18//1 17//1 16//1
f 19//1 17//1 18//1
f 19//1 20//1 17//1
f 21//1 20//1 19//1
f 22//1 20//1 21//1
f 23//1 20//1 22//1
f 7//1 20//1 23//1
f 7//1 24//1 20//1
f 1//1 25//1 7//1
f 25//1 26//1 7//1
f 26//1 27//1 7//1
f 27//1 28//1 7//1
f 28//1 29//1 7//1
f 29//1 30//1 7//1
f 30//1 31//1 7//1
f 31//1 32//1 7//1
f 32//1 33//1 7//1
f 33//1 24//1 7//1
f 33//1 34//2 24//1
f 34//2 35//1 24//1
f 35//1 36//1 24//1
f 36//1 37//1 24//1
f 36//1 38//1 37//1
f 38//1 39//1 37//1
f 40//1 39//1 38//1
f 41//1 39//1 40//1
f 42//1 39//1 41//1
f 42//1 43//1 39//1
f 44//1 43//1 42//1
f 45//1 43//1 44//1
f 45//1 46//1 43//1
f 47//1 46//1 45//1
f 47//1 48//1 46//1
f 49//1 48//1 47//1
f 50//1 48//1 49//1
f 50//1 51//1 48//1
f 52//1 51//1 50//1
f 52//1 53//1 51//1
f 54//1 53//1 52//1
f 54//1 55//1 53//1
f 56//1 55//1 54//1
f 56//1 57//1 55//1
f 56//1 58//1 57//1
f 59//1 58//1 56//1
f 59//1 60//1 58//1
f 61//1 60//1 59//1
f 61//1 62//1 60//1
f 63//1 62//1 61//1
f 63//1 64//1 62//1
f 63//1 65//1 64//1
f 66//1 65//1 63//1
f 66//1 67//1 65//1
f 68//1 67//1 66//1
f 68//1 69//1 67//1
f 70//1 69//1 68//1
f 70//1 71//1 69//1
f 72//1 73//1 74//1
f 75//1 73//1 72//1
f 75//1 76//1 73//1
f 77//1 76//1 75//1
f 77//1 78//1 76//1
f 79//1 78//1 77//1
f 79//1 80//1 78//1
f 81//1 80//1 79//1
f 81//1 82//1 80//1
f 83//1 82//1 81//1
f 84//1 71//1 70//1
f 83//1 85//1 82//1
f 86//1 85//1 83//1
f 87//1 85//1 86//1
f 84//1 88//1 71//1
f 89//1 85//1 87//1
f 89//1 90//1 85//1
f 91//1 90//1 89//1
f 92//1 90//1 91//1
f 92//1 93//1 90//1
f 94//1 93//1 92//1
f 95//1 88//1 84//1
f 96//1 93//1 94//1
f 96//1 97//1 93//1
f 95//1 98//1 88//1
f 99//1 97//1 96//1
f 100//1 97//1 99//1
f 100//1 101//1 97//1
f 102//1 101//1 100//1
f 103//1 101//1 102//1
f 104//1 98//1 95//1
f 103//1 105//1 101//1
f 106//1 105//1 103//1
f 104//1 107//1 98//1
f 108//1 105//1 106//1
f 109//1 105//1 108//1
f 109//1 110//1 105//1
f 111//1 110//1 109//1
f 112//1 107//1 104//1
f 111//1 113//1 110//1
f 114//1 113//1 111//1
f 112//1 115//1 107//1
f 116//1 113//1 114//1
f 116//1 117//1 113//1
f 118//1 115//1 112//1
f 119//1 117//1 116//1
f 119//1 120//1 117//1
f 121//1 120//1 119//1
f 121//1 122//1 120//1
f 123//1 115//1 118//1
f 124//1 122//1 121//1
f 124//1 123//1 122//1
f 124//1 115//1 123//1
f 124//1 125//1 115//1
f 126//1 125//1 124//1
f 127//1 125//1 126//1
f 128//1 125//1 127//1
f 129//1 125//1 128//1
f 129//1 130//1 125//1
f 131//1 130//1 129//1
f 132//1 130//1 131//1
f 132//1 133//1 130//1
f 134//1 133//1 132//1
f 135//1 133//1 134//1
f 135//1 136//1 133//1
f 137//1 136//1 135//1
f 138//1 136//1 137//1
f 138//1 139//1 136//1
f 140//1 139//1 138//1
f 140//1 141//1 139//1
f 142//1 141//1 140//1
f 143//1 141//1 142//1
f 143//1 144//1 141//1
f 145//1 144//1 143//1
f 145//1 146//1 144//1
f 147//1 146//1 145//1
f 147//1 148//1 146//1
f 149//1 148//1 147//1
f 149//1 150//1 148//1
f 151//3 152//3 153//3
f 153//3 152//3 154//3
f 153//3 154//3 155//3
f 153//3 155//3 156//3
f 151//3 153//3 157//3
f 158//3 159//3 160//4
f 161//5 158//3 160//4
f 162//6 161//5 160//4
f 162//6 160//4 163//7
f 164//8 162//6 163//7
f 165//3 164//8 163//7
f 166//3 165//3 163//7
f 166//3 163//7 167//9
f 168//3 166//3 167//9
f 169//3 168//3 167//9
f 169//3 167//9 170//3
f 171//3 169//3 170//3
f 172//3 171//3 170//3
f 173//10 172//3 170//3
f 157//3 173//10 170//3
f 157//3 170//3 174//11
f 151//3 157//3 175//7
f 175//7 157//3 176//7
f 176//7 157//3 177//7
f 177//7 157//3 178//7
f 178//7 157//3 179//7
f 179//7 157//3 180//7
f 180//7 157//3 181//7
f 181//7 157//3 182//7
f 182//7 157//3 183//7
f 183//7 157//3 174//11
f 183//7 174//11 184//3
f 184//3 174//11 185//12
f 185//12 174//11 186//13
f 186//13 174//11 187//14
f 186//13 187//14 188//15
f 188//15 187//14 189//3
f 190//3 188//15 189//3
f 191//3 190//3 189//3
f 192//16 191//3 189//3
f 192//16 189//3 193//17
f 194//9 192//16 193//17
f 195//3 194//9 193//17
f 195//3 193//17 196//3
f 197//3 195//3 196//3
f 197//3 196//3 198//3
f 199//3 197//3 198//3
f 200//3 199//3 198//3
f 200//3 198//3 201//3
f 202//3 200//3 201//3
f 202//3 201//3 203//7
f 204//3 202//3 203//7
f 204//3 203//7 205//7
f 206//3 204//3 205//7
f 206//3 205//7 207//3
f 206//3 207//3 208//3
f 209//3 206//3 208//3
f 209//3 208//3 210//3
f 211//3 209//3 210//3
f 211//3 210//3 212//3
f 213//3 211//3 212//3
f 213//3 212//3 214//3
f 213//3 214//3 215//3
f 216//3 213//3 215//3
f 216//3 215//3 217//3
f 218//3 216//3 217//3
f 218//3 217//3 219//3
f 220//3 218//3 219//3
f 220//3 219//3 221//3
f 222//18 223//3 224//19
f 225//20 222//18 224//19
f 225//20 224//19 226//21
f 227//22 225//20 226//21
f 227//22 226//21 228//23
f 229//24 227//22 228//23
f 229//24 228//23 230//25
f 231//26 229//24 230//25
f 231//26 230//25 232//3
f 233//3 231//26 232//3
f 234//3 220//3 221//3
f 233//3 232//3 235//27
f 236//3 233//3 235//27
f 237//16 236//3 235//27
f 234//3 221//3 238//3
f 239//16 237//16 235//27
f 239//16 235//27 240//15
f 241//8 239//16 240//15
f 242//9 241//8 240//15
f 242//9 240//15 243//7
f 244//3 242//9 243//7
f 245//3 234//3 238//3
f 246//17 244//3 243//7
f 246//17 243//7 247//3
f 245//3 238//3 248//3
f 249//27 246//17 247//3
f 250//15 249//27 247//3
f 250//15 247//3 251//3
f 252//3 250//15 251//3
f 253//17 252//3 251//3
f 254//3 245//3 248//3
f 253//17 251//3 255//3
f 256//4 253//17 255//3
f 254//3 248//3 257//3
f 258//14 256//4 255//3
f 259//3 258//14 255//3
f 259//3 255//3 260//3
f 261//3 259//3 260//3
f 262//3 254//3 257//3
f 261//3 260//3 263//3
f 264//3 261//3 263//3
f 262//3 257//3 265//3
f 266//3 264//3 263//3
f 266//3 263//3 267//3
f 268//3 262//3 265//3
f 269//3 266//3 267//3
f 269//3 267//3 270//3
f 271//3 269//3 270//3
f 271//3 270//3 272//3
f 273//3 268//3 265//3
f 274//3 271//3 272//3
f 274//3 272//3 273//3
f 274//3 273//3 265//3
f 274//3 265//3 275//3
f 276//3 274//3 275//3
f 277//3 276//3 275//3
f 278//10 277//3 275//3
f 279//15 278//10 275//3
f 279//15 275//3 280//3
f 281//14 279//15 280//3
f 282//3 281//14 280//3
f 282//3 280//3 283//16
f 284//27 282//3 283//16
f 285//9 284//27 283//16
f 285//9 283//16 286//15
f 287//28 285//9 286//15
f 288//3 287//28 286//15
f 288//3 286//15 289//3
f 290//3 288//3 289//3
f 290//3 289//3 291//5
f 292//10 290//3 291//5
f 293//7 292//10 291//5
f 293//7 291//5 294//8
f 295//7 293//7 294//8
f 295//7 294//8 296//3
f 297//29 295//7 296//3
f 297//29 296//3 298//30
f 299//31 297//29 298//30
f 299//31 298//30 300//32
f 126//33 124//33 274//33
f 274//33 276//33 126//33
f 137//34 135//34 285//34
f 285//34 287//34 137//34
f 108//35 106//35 256//35
f 256//35 258//35 108//35
f 92//36 91//36 241//36
f 241//36 242//36 92//36
f 136//37 139//37 289//37
f 289//37 286//37 136//37
f 18//38 16//38 166//38
f 166//38 168//38 18//38
f 147//39 145//39 295//39
f 295//39 297//39 147//39
f 9//40 13//40 163//40
f 163//40 160//40 9//40
f 71//41 88//41 238//41
f 238//41 221//41 71//41
f 57//42 58//42 208//42
f 208//42 207//42 57//42
f 105//43 110//43 260//43
f 260//43 255//43 105//43
f 112//44 104//44 254//44
f 254//44 262//44 112//44
f 78//45 80//45 230//46
f 230//46 228//46 78//45
f 81//47 79//47 229//47
f 229//47 231//47 81//47
f 36//48 35//48 185//48
f 185//48 186//48 36//48
f 49//49 47//49 197//49
f 197//49 199//49 49//49
f 28//50 27//50 177//50
f 177//50 178//50 28//50
f 6//51 2//51 153//51
f 153//51 156//51 6//51
f 124//52 121//52 271//52
f 271//52 274//52 124//52
f 135//53 134//53 284//53
f 284//53 285//53 135//53
f 106//54 103//55 253//55
f 253//55 256//55 106//54
f 91//56 89//56 239//56
f 239//56 241//56 91//56
f 133//57 136//57 286//57
f 286//57 283//57 133//57
f 149//58 147//58 297//58
f 297//58 299//58 149//58
f 16//59 15//59 165//59
f 165//59 166//59 16//59
f 69//60 71//60 221//60
f 221//60 219//60 69//60
f 13//61 17//61 167//61
f 167//61 163//61 13//61
f 55//62 57//62 207//62
f 207//62 205//62 55//62
f 101//63 105//63 255//64
f 255//64 251//64 101//63
f 118//65 112//65 262//65
f 262//65 268//65 118//65
f 76//66 78//66 228//66
f 228//66 226//66 76//66
f 83//67 81//67 231//67
f 231//67 233//67 83//67
f 47//68 45//68 195//68
f 195//68 197//68 47//68
f 63//69 61//69 211//69
f 211//69 213//69 63//69
f 35//70 34//70 184//70
f 184//70 185//70 35//70
f 27//71 26//71 176//71
f 176//71 177//71 27//71
f 128//72 127//72 277//72
f 277//72 278//72 128//72
f 140//73 138//73 288//73
f 288//73 290//73 140//73
f 111//74 109//74 259//74
f 259//74 261//74 111//74
f 96//75 94//75 244//75
f 244//75 246//75 96//75
f 130//76 133//76 283//76
f 283//76 280//76 130//76
f 150//77 149//77 299//78
f 299//78 300//78 150//77
f 21//79 19//79 169//79
f 169//79 171//80 21//79
f 67//81 69//81 219//81
f 219//81 217//81 67//81
f 8//82 10//82 159//82
f 159//82 158//82 8//82
f 53//83 55//83 205//83
f 205//83 203//83 53//83
f 39//84 43//84 193//84
f 193//84 189//84 39//84
f 113//85 117//85 267//85
f 267//85 263//85 113//85
f 95//86 84//86 234//86
f 234//86 245//86 95//86
f 82//87 85//87 235//87
f 235//87 232//87 82//87
f 77//88 75//89 225//88
f 225//88 227//88 77//88
f 45//90 44//90 194//90
f 194//90 195//90 45//90
f 61//91 59//91 209//91
f 209//91 211//91 61//91
f 34//92 33//92 183//92
f 183//92 184//92 34//92
f 26//93 25//93 175//93
f 175//93 176//93 26//93
f 119//94 116//94 266//94
f 266//94 269//94 119//94
f 132//95 131//95 281//95
f 281//95 282//95 132//95
f 102//96 100//96 250//96
f 250//96 252//96 102//96
f 87//97 86//97 236//97
f 236//97 237//97 87//97
f 7//98 23//99 173//100
f 173//100 157//98 7//98
f 139//101 141//101 291//101
f 291//101 289//101 139//101
f 145//102 143//102 293//102
f 293//102 295//102 145//102
f 14//103 12//103 162//103
f 162//103 164//103 14//103
f 88//104 98//104 248//104
f 248//104 238//104 88//104
f 20//105 24//105 174//105
f 174//105 170//105 20//105
f 58//106 60//106 210//106
f 210//106 208//106 58//106
f 122//107 123//107 273//107
f 273//107 272//107 122//107
f 68//108 66//108 216//108
f 216//108 218//108 68//108
f 93//109 97//109 247//109
f 247//109 243//109 93//109
f 74//110 73//110 224//111
f 224//111 223//110 74//110
f 38//112 36//112 186//112
f 186//112 188//112 38//112
f 50//113 49//113 199//113
f 199//113 200//113 50//113
f 29//114 28//114 178//114
f 178//114 179//114 29//114
f 5//115 6//115 156//115
f 156//115 155//115 5//115
f 116//116 114//116 264//116
f 264//116 266//116 116//116
f 131//117 129//117 279//117
f 279//117 281//117 131//117
f 100//118 99//118 249//118
f 249//118 250//118 100//118
f 86//119 83//119 233//119
f 233//119 236//119 86//119
f 115//120 125//120 275//120
f 275//120 265//120 115//120
f 146//121 148//121 298//121
f 298//121 296//121 146//121
f 23//99 22//80 172//99
f 172//99 173//100 23//99
f 64//122 65//122 215//122
f 215//122 214//122 64//122
f 12//123 11//123 161//123
f 161//123 162//123 12//123
f 48//124 51//124 201//124
f 201//124 198//124 48//124
f 120//125 122//125 272//125
f 272//125 270//125 120//125
f 46//126 48//126 198//126
f 198//126 196//126 46//126
f 24//127 37//127 187//127
f 187//127 174//127 24//127
f 70//128 68//128 218//128
f 218//128 220//128 70//128
f 90//129 93//129 243//129
f 243//129 240//129 90//129
f 72//130 74//130 223//130
f 223//130 222//130 72//130
f 42//131 41//131 191//131
f 191//131 192//131 42//131
f 56//132 54//132 204//132
f 204//132 206//132 56//132
f 32//133 31//133 181//133
f 181//133 182//133 32//133
f 1//134 3//134 152//134
f 152//134 151//134 1//134
f 114//135 111//135 261//135
f 261//135 264//135 114//135
f 129//136 128//136 278//136
f 278//136 279//136 129//136
f 99//137 96//137 246//137
f 246//137 249//137 99//137
f 144//138 146//138 296//138
f 296//138 294//138 144//138
f 22//80 21//79 171//80
f 171//80 172//99 22//80
f 142//139 140//139 290//139
f 290//139 292//139 142//139
f 11//140 8//140 158//140
f 158//140 161//140 11//140
f 107//141 115//141 265//141
f 265//141 257//141 107//141
f 62//142 64//142 214//142
f 214//142 212//142 62//142
f 117//143 120//143 270//143
f 270//143 267//143 117//143
f 37//144 39//144 189//144
f 189//144 187//144 37//144
f 84//145 70//145 220//145
f 220//145 234//145 84//145
f 85//146 90//146 240//146
f 240//146 235//146 85//146
f 75//147 72//147 222//147
f 222//147 225//147 75//147
f 41//148 40//148 190//148
f 190//148 191//148 41//148
f 54//149 52//149 202//149
f 202//149 204//149 54//149
f 31//150 30//150 180//150
f 180//150 181//150 31//150
f 3//151 4//151 154//151
f 154//151 152//151 3//151
f 121//152 119//152 269//152
f 269//152 271//152 121//152
f 134//153 132//153 282//153
f 282//153 284//153 134//153
f 103//154 102//154 252//154
f 252//154 253//154 103//154
f 89//155 87//155 237//155
f 237//155 239//155 89//155
f 141//156 144//156 294//156
f 294//156 291//156 141//156
f 143//157 142//157 292//157
f 292//157 293//157 143//157
f 15//158 14//158 164//158
f 164//158 165//158 15//158
f 98//159 107//159 257//159
f 257//159 248//159 98//159
f 17//160 20//160 170//160
f 170//160 167//160 17//160
f 60//161 62//161 212//161
f 212//161 210//161 60//161
f 123//162 118//162 268//162
f 268//162 273//162 123//162
f 66//163 63//163 213//163
f 213//163 216//163 66//163
f 97//164 101//164 251//164
f 251//164 247//164 97//164
f 73//165 76//165 226//165
f 226//165 224//165 73//165
f 40//166 38//166 188//166
f 188//166 190//166 40//166
f 52//167 50//167 200//167
f 200//167 202//167 52//167
f 30//168 29//168 179//168
f 179//168 180//168 30//168
f 4//169 5//169 155//169
f 155//169 154//169 4//169
f 127//170 126//170 276//170
f 276//170 277//170 127//170
f 138//171 137//171 287//171
f 287//171 288//171 138//171
f 109//172 108//172 258//172
f 258//172 259//172 109//172
f 94//173 92//173 242//173
f 242//173 244//173 94//173
f 125//174 130//174 280//174
f 280//174 275//174 125//174
f 148//175 150//175 300//175
f 300//175 298//175 148//175
f 19//176 18//176 168//176
f 168//176 169//176 19//176
f 65//177 67//177 217//177
f 217//177 215//177 65//177
f 10//178 9//178 160//178
f 160//178 159//178 10//178
f 51//179 53//179 203//179
f 203//179 201//179 51//179
f 110//180 113//180 263//180
f 263//180 260//180 110//180
f 43//181 46//181 196//181
f 196//181 193//181 43//181
f 104//182 95//182 245//182
f 245//182 254//182 104//182
f 80//183 82//183 232//184
f 232//184 230//184 80//183
f 79//185 77//185 227//185
f 227//185 229//185 79//185
f 44//186 42//186 192//186
f 192//186 194//186 44//186
f 2//187 7//187 157//187
f 157//187 153//187 2//187
f 59//188 56//188 206//188
f 206//188 209//188 59//188
f 33//189 32//189 182//189
f 182//189 183//189 33//189
f 25//190 1//190 151//190
f 151//190 175//190 25//190
f 301//1 302//1 303//1
f 304//1 302//1 301//1
f 305//1 302//1 304//1
f 306//1 302//1 305//1
f 307//1 302//1 306//1
f 308//1 302//1 307//1
f 309//1 310//1 308//1
f 310//1 302//1 308//1
f 311//1 312//1 309//1
f 312//1 310//1 309//1
f 313//1 314//1 311//1
f 314//1 312//1 311//1
f 315//1 316//1 313//1
f 316//1 314//1 313//1
f 317//1 316//1 315//1
f 318//1 319//191 317//1
f 319//191 316//1 317//1
f 320//1 321//1 318//1
f 321//1 322//1 318//1
f 322//1 323//1 318//1
f 323//1 324//1 318//1
f 324//1 319//191 318//1
f 325//1 302//1 310//1
f 326//1 302//1 325//1
f 327//1 302//1 326//1
f 328//1 302//1 327//1
f 329//1 302//1 328//1
f 330//1 302//1 329//1
f 330//1 331//1 302//1
f 332//1 331//1 330//1
f 332//1 333//1 331//1
f 334//1 333//1 332//1
f 334//1 335//1 333//1
f 336//1 335//1 334//1
f 336//1 337//1 335//1
f 338//1 337//1 336//1
f 338//1 339//1 337//1
f 340//1 339//1 338//1
f 340//1 341//1 339//1
f 342//1 341//1 340//1
f 342//1 343//1 341//1
f 344//1 343//1 342//1
f 344//1 345//1 343//1
f 346//1 345//1 344//1
f 346//1 347//1 345//1
f 348//1 347//1 346//1
f 348//1 349//1 347//1
f 350//1 349//1 348//1
f 350//1 351//1 349//1
f 352//1 351//1 350//1
f 352//1 353//1 351//1
f 354//1 353//1 352//1
f 354//1 355//1 353//1
f 356//3 357//3 358//192
f 359//3 356//3 358//192
f 360//193 359//3 358//192
f 361//3 360//193 358//192
f 362//13 361//3 358//192
f 363//3 362//13 358//192
f 364//3 363//3 365//194
f 365//194 363//3 358//192
f 366//193 364//3 367//3
f 367//3 364//3 365//194
f 368//3 366//193 369//3
f 369//3 366//193 367//3
f 370//195 368//3 371//196
f 371//196 368//3 369//3
f 372//197 370//195 371//196
f 373//3 372//197 374//17
f 374//17 372//197 371//196
f 375//7 373//3 376//9
f 376//9 373//3 377//198
f 377//198 373//3 378//199
f 378//199 373//3 379//198
f 379//198 373//3 374//17
f 380//200 365//194 358//192
f 381//201 380//200 358//192
f 382//3 381//201 358//192
f 383//3 382//3 358//192
f 384//3 383//3 358//192
f 385//3 384//3 358//192
f 385//3 358//192 386//3
f 387//3 385//3 386//3
f 387//3 386//3 388//17
f 389//3 387//3 388//17
f 389//3 388//17 390//3
f 391//3 389//3 390//3
f 391//3 390//3 392//7
f 393//3 391//3 392//7
f 393//3 392//7 394//7
f 395//5 393//3 394//7
f 395//5 394//7 396//27
f 397//17 395//5 396//27
f 397//17 396//27 398//3
f 399//28 397//17 398//3
f 399//28 398//3 400//3
f 401//3 399//28 400//3
f 401//3 400//3 402//3
f 403//27 401//3 402//3
f 403//27 402//3 404//27
f 405//10 403//27 404//27
f 405//10 404//27 406//17
f 407//7 405//10 406//17
f 407//7 406//17 408//3
f 409//7 407//7 408//3
f 409//7 408//3 410//3
f 306//202 305//202 360//203
f 360//203 361//203 306//202
f 335//204 337//204 392//204
f 392//204 390//204 335//204
f 318//205 317//205 372//205
f 372//205 373//205 318//205
f 314//206 316//206 371//206
f 371//206 369//206 314//206
f 351//207 353//207 408//207
f 408//207 406//207 351//207
f 354//208 352//208 407//208
f 407//208 409//208 354//208
f 330//209 329//208 384//209
f 384//209 385//209 330//209
f 338//210 336//210 391//210
f 391//210 393//210 338//210
f 313//211 311//211 366//211
f 366//211 368//211 313//211
f 337//212 339//212 394//212
f 394//212 392//212 337//212
f 301//213 303//213 357//213
f 357//213 356//213 301//213
f 327//214 326//214 381//214
f 381//214 382//214 327//214
f 324//215 323//215 378//215
f 378//215 379//215 324//215
f 353//216 355//216 410//216
f 410//216 408//216 353//216
f 344//217 342//217 397//217
f 397//217 399//217 344//217
f 308//218 307//218 362//218
f 362//218 363//218 308//218
f 331//219 333//219 388//219
f 388//219 386//219 331//219
f 321//220 320//220 375//220
f 375//220 376//220 321//220
f 310//221 312//221 367//221
f 367//221 365//221 310//221
f 347//222 349//222 404//222
f 404//222 402//222 347//222
f 350//223 348//223 403//223
f 403//223 405//223 350//223
f 334//224 332//224 387//224
f 387//224 389//224 334//224
f 309//225 308//225 363//225
f 363//225 364//225 309//225
f 355//51 354//51 409//51
f 409//51 410//51 355//51
f 302//226 331//226 386//226
f 386//226 358//216 302//226
f 325//227 310//227 365//227
f 365//227 380//227 325//227
f 322//228 321//228 376//228
f 376//228 377//228 322//228
f 341//229 343//229 398//229
f 398//229 396//229 341//229
f 348//230 346//230 401//230
f 401//230 403//230 348//230
f 332//231 330//231 385//231
f 385//231 387//231 332//231
f 311//232 309//232 364//232
f 364//232 366//232 311//232
f 303//216 302//226 358//216
f 358//216 357//216 303//216
f 326//233 325//233 380//233
f 380//233 381//233 326//233
f 323//234 322//234 377//234
f 377//234 378//234 323//234
f 343//235 345//235 400//235
f 400//235 398//235 343//235
f 346//236 344//236 399//236
f 399//236 401//237 346//236
f 307//238 306//238 361//238
f 361//238 362//238 307//238
f 333//239 335//239 390//239
f 390//239 388//239 333//239
f 320//208 318//208 373//208
f 373//208 375//208 320//208
f 312//240 314//240 369//240
f 369//240 367//240 312//240
f 345//241 347//241 402//241
f 402//241 400//241 345//241
f 352//242 350//242 405//242
f 405//242 407//242 352//242
f 336//243 334//243 389//243
f 389//243 391//243 336//243
f 315//244 313//244 368//244
f 368//244 370//244 315//244
f 304//245 301//245 356//245
f 356//245 359//245 304//245
f 319//246 324//246 379//246
f 379//246 374//246 319//246
f 328//247 327//247 382//247
f 382//247 383//208 328//247
f 339//248 341//248 396//248
f 396//248 394//248 339//248
f 342//249 340//249 395//249
f 395//249 397//249 342//249
f 305//250 304//250 359//250
f 359//250 360//250 305//250
f 317//251 315//251 370//251
f 370//251 372//251 317//251
f 316//252 319//252 374//252
f 374//252 371//252 316//252
f 349//253 351//253 406//253
f 406//253 404//253 349//253
f 329//208 328//247 383//208
f 383//208 384//209 329//208
f 340//254 338//254 393//254
f 393//254 395//254 340//254
