# Blender v2.90.0 OBJ File: ''
# www.blender.org
mtllib N16.mtl
o N16
v 0.451152 -0.051496 0.566515
v 0.479147 -0.051496 0.516950
v 0.466995 -0.051496 0.569606
v 0.435233 -0.051496 0.563302
v 0.419263 -0.051496 0.559948
v 0.403268 -0.051496 0.556434
v 0.387273 -0.051496 0.552741
v 0.371303 -0.051496 0.548847
v 0.355384 -0.051496 0.544734
v 0.339540 -0.051496 0.540383
v 0.323798 -0.051496 0.535772
v 0.308183 -0.051496 0.530883
v 0.292719 -0.051496 0.525696
v 0.277433 -0.051496 0.520190
v 0.235928 -0.051496 0.503183
v 0.466209 -0.051496 0.514536
v 0.452939 -0.051496 0.511748
v 0.439376 -0.051496 0.508583
v 0.425561 -0.051496 0.505038
v 0.411531 -0.051496 0.501111
v 0.192335 -0.051496 0.481208
v 0.397327 -0.051496 0.496799
v 0.382988 -0.051496 0.492098
v 0.368554 -0.051496 0.487007
v 0.354063 -0.051496 0.481521
v 0.339556 -0.051496 0.475639
v 0.147742 -0.051496 0.454092
v 0.325070 -0.051496 0.469357
v 0.310647 -0.051496 0.462673
v 0.285435 -0.051496 0.450451
v 0.103233 -0.051496 0.421659
v 0.258745 -0.051496 0.435914
v 0.231093 -0.051496 0.418840
v 0.059894 -0.051496 0.383735
v 0.202994 -0.051496 0.399006
v 0.174963 -0.051496 0.376191
v 0.018810 -0.051496 0.340147
v 0.147515 -0.051496 0.350171
v 0.121162 -0.051496 0.320727
v -0.018932 -0.051496 0.290719
v 0.096422 -0.051496 0.287633
v -0.052246 -0.051496 0.235277
v 0.073808 -0.051496 0.250669
v 0.053836 -0.051496 0.209613
v -0.080047 -0.051496 0.173647
v 0.037019 -0.051496 0.164241
v 0.220055 -0.051496 0.191918
v 0.267951 -0.051496 0.189476
v 0.228017 -0.051496 0.192102
v 0.211981 -0.051496 0.191375
v 0.203816 -0.051496 0.190482
v 0.195584 -0.051496 0.189252
v 0.305400 -0.051496 0.181830
v 0.187306 -0.051496 0.187695
v 0.179007 -0.051496 0.185824
v 0.170707 -0.051496 0.183648
v 0.162430 -0.051496 0.181181
v 0.340177 -0.051496 0.169508
v 0.154197 -0.051496 0.178431
v 0.146033 -0.051496 0.175413
v 0.137958 -0.051496 0.172135
v -0.101249 -0.051496 0.105654
v 0.129996 -0.051496 0.168609
v 0.372094 -0.051496 0.152857
v 0.023873 -0.051496 0.114333
v 0.400962 -0.051496 0.132224
v 0.426592 -0.051496 0.107954
v 0.171311 -0.051496 0.106232
v 0.172121 -0.051496 0.106232
v 0.207067 -0.051496 0.103627
v 0.448796 -0.051496 0.080392
v 0.155811 -0.051496 0.105726
v 0.140546 -0.051496 0.104274
v -0.114767 -0.051496 0.031125
v 0.096796 -0.051496 0.095262
v 0.110974 -0.051496 0.098941
v 0.125578 -0.051496 0.101979
v 0.238635 -0.051496 0.096121
v 0.266889 -0.051496 0.084182
v 0.083111 -0.051496 0.091043
v 0.069984 -0.051496 0.086385
v 0.057477 -0.051496 0.081389
v 0.291895 -0.051496 0.068277
v 0.045657 -0.051496 0.076157
v 0.467385 -0.051496 0.049885
v 0.034588 -0.051496 0.070791
v 0.024335 -0.051496 0.065390
v 0.313716 -0.051496 0.048874
v 0.014962 -0.051496 0.060056
v 0.012713 -0.051496 0.052556
v 0.010807 -0.051496 0.045018
v 0.482172 -0.051496 0.016780
v 0.332418 -0.051496 0.026438
v 0.009216 -0.051496 0.037399
v 0.007911 -0.051496 0.029663
v -0.119513 -0.051496 -0.050116
v 0.006866 -0.051496 0.021769
v 0.348066 -0.051496 0.001436
v 0.006051 -0.051496 0.013679
v 0.492967 -0.051496 -0.018579
v 0.005439 -0.051496 0.005352
v 0.005001 -0.051496 -0.003251
v 0.360723 -0.051496 -0.025664
v 0.004710 -0.051496 -0.012169
v 0.004536 -0.051496 -0.021440
v 0.499582 -0.051496 -0.055845
v 0.004453 -0.051496 -0.031106
v 0.370455 -0.051496 -0.054394
v 0.004431 -0.051496 -0.041205
v 0.006010 -0.051496 -0.085583
v -0.116796 -0.051496 -0.106294
v 0.377326 -0.051496 -0.084291
v 0.501829 -0.051496 -0.094671
v 0.381402 -0.051496 -0.114884
v 0.010713 -0.051496 -0.128493
v 0.499159 -0.051496 -0.139932
v -0.108844 -0.051496 -0.158826
v 0.382745 -0.051496 -0.145708
v 0.018494 -0.051496 -0.169478
v 0.491339 -0.051496 -0.183485
v 0.381831 -0.051496 -0.172373
v -0.095957 -0.051496 -0.207477
v 0.029304 -0.051496 -0.208085
v 0.379006 -0.051496 -0.199376
v 0.478653 -0.051496 -0.224907
v 0.374151 -0.051496 -0.226211
v -0.078438 -0.051496 -0.252010
v 0.043096 -0.051496 -0.243855
v 0.461384 -0.051496 -0.263771
v 0.367144 -0.051496 -0.252370
v 0.059821 -0.051496 -0.276335
v -0.056588 -0.051496 -0.292188
v 0.357864 -0.051496 -0.277348
v 0.439818 -0.051496 -0.299654
v 0.079433 -0.051496 -0.305068
v 0.346190 -0.051496 -0.300638
v -0.030707 -0.051496 -0.327776
v 0.414238 -0.051496 -0.332130
v 0.332002 -0.051496 -0.321734
v 0.101883 -0.051496 -0.329599
v 0.315177 -0.051496 -0.340130
v -0.001095 -0.051496 -0.358537
v 0.127123 -0.051496 -0.349471
v 0.384927 -0.051496 -0.360776
v 0.295597 -0.051496 -0.355319
v 0.155105 -0.051496 -0.364230
v 0.273139 -0.051496 -0.366796
v 0.031944 -0.051496 -0.384235
v 0.352172 -0.051496 -0.385165
v 0.185782 -0.051496 -0.373420
v 0.247683 -0.051496 -0.374053
v 0.219106 -0.051496 -0.376584
v 0.068112 -0.051496 -0.404634
v 0.316254 -0.051496 -0.404874
v 0.107107 -0.051496 -0.419497
v 0.277459 -0.051496 -0.419478
v 0.236071 -0.051496 -0.428552
v 0.148628 -0.051496 -0.428588
v 0.192373 -0.051496 -0.431671
v 0.451152 0.051497 0.566515
v 0.466995 0.051497 0.569606
v 0.479147 0.051497 0.516950
v 0.435233 0.051497 0.563302
v 0.419263 0.051497 0.559948
v 0.403268 0.051493 0.556434
v 0.387273 0.051497 0.552741
v 0.371303 0.051497 0.548847
v 0.355384 0.051497 0.544734
v 0.339540 0.051497 0.540383
v 0.323798 0.051497 0.535772
v 0.308183 0.051497 0.530883
v 0.292719 0.051497 0.525696
v 0.277433 0.051497 0.520190
v 0.235928 0.051493 0.503183
v 0.466209 0.051497 0.514536
v 0.452939 0.051493 0.511748
v 0.439376 0.051497 0.508583
v 0.425561 0.051497 0.505038
v 0.411531 0.051497 0.501111
v 0.192335 0.051493 0.481208
v 0.397327 0.051497 0.496799
v 0.382988 0.051497 0.492098
v 0.368554 0.051497 0.487007
v 0.354063 0.051493 0.481521
v 0.339556 0.051497 0.475639
v 0.147742 0.051497 0.454092
v 0.325070 0.051497 0.469357
v 0.310647 0.051493 0.462673
v 0.285435 0.051497 0.450451
v 0.103233 0.051497 0.421659
v 0.258745 0.051497 0.435914
v 0.231093 0.051497 0.418840
v 0.059894 0.051497 0.383735
v 0.202994 0.051497 0.399006
v 0.174963 0.051497 0.376191
v 0.018810 0.051493 0.340147
v 0.147515 0.051497 0.350171
v 0.121162 0.051497 0.320727
v -0.018932 0.051497 0.290719
v 0.096422 0.051497 0.287633
v -0.052246 0.051497 0.235277
v 0.073808 0.051497 0.250669
v 0.053836 0.051497 0.209613
v -0.080047 0.051497 0.173647
v 0.037019 0.051497 0.164241
v 0.220055 0.051497 0.191918
v 0.228017 0.051493 0.192102
v 0.267951 0.051497 0.189476
v 0.211981 0.051497 0.191375
v 0.203816 0.051497 0.190482
v 0.195584 0.051497 0.189252
v 0.305400 0.051497 0.181830
v 0.187306 0.051493 0.187695
v 0.179007 0.051493 0.185824
v 0.170707 0.051497 0.183648
v 0.162430 0.051497 0.181181
v 0.340177 0.051497 0.169508
v 0.154197 0.051497 0.178431
v 0.146033 0.051497 0.175413
v 0.137958 0.051497 0.172135
v -0.101249 0.051497 0.105654
v 0.129996 0.051497 0.168609
v 0.372094 0.051493 0.152857
v 0.023873 0.051493 0.114333
v 0.400962 0.051497 0.132224
v 0.426592 0.051497 0.107954
v 0.171311 0.051497 0.106232
v 0.172121 0.051497 0.106232
v 0.207067 0.051497 0.103627
v 0.448796 0.051497 0.080392
v 0.155811 0.051497 0.105726
v 0.140546 0.051497 0.104274
v -0.114767 0.051493 0.031125
v 0.096796 0.051497 0.095262
v 0.110974 0.051497 0.098941
v 0.125578 0.051497 0.101979
v 0.238635 0.051493 0.096121
v 0.266889 0.051497 0.084182
v 0.083111 0.051493 0.091043
v 0.069984 0.051493 0.086385
v 0.057477 0.051497 0.081389
v 0.291895 0.051497 0.068277
v 0.045657 0.051497 0.076157
v 0.467385 0.051497 0.049885
v 0.034588 0.051497 0.070791
v 0.024335 0.051497 0.065390
v 0.313716 0.051497 0.048874
v 0.014962 0.051493 0.060056
v 0.012713 0.051497 0.052556
v 0.010807 0.051497 0.045018
v 0.482172 0.051497 0.016780
v 0.332418 0.051497 0.026438
v 0.009216 0.051497 0.037399
v 0.007911 0.051493 0.029663
v -0.119513 0.051497 -0.050116
v 0.006866 0.051493 0.021769
v 0.348066 0.051493 0.001436
v 0.006051 0.051497 0.013679
v 0.492967 0.051497 -0.018579
v 0.005439 0.051497 0.005352
v 0.005001 0.051493 -0.003251
v 0.360723 0.051497 -0.025664
v 0.004710 0.051497 -0.012169
v 0.004536 0.051497 -0.021440
v 0.499582 0.051497 -0.055845
v 0.004453 0.051497 -0.031106
v 0.370455 0.051497 -0.054394
v 0.004431 0.051497 -0.041205
v 0.006010 0.051497 -0.085583
v -0.116796 0.051497 -0.106294
v 0.377326 0.051497 -0.084291
v 0.501829 0.051497 -0.094671
v 0.381402 0.051497 -0.114884
v 0.010713 0.051497 -0.128493
v 0.499159 0.051497 -0.139932
v -0.108844 0.051497 -0.158826
v 0.382745 0.051497 -0.145708
v 0.018494 0.051497 -0.169478
v 0.491339 0.051497 -0.183485
v 0.381831 0.051497 -0.172373
v -0.095957 0.051497 -0.207477
v 0.029304 0.051493 -0.208085
v 0.379006 0.051497 -0.199376
v 0.478653 0.051497 -0.224907
v 0.374151 0.051497 -0.226211
v -0.078438 0.051497 -0.252010
v 0.043096 0.051497 -0.243855
v 0.461384 0.051497 -0.263771
v 0.367144 0.051497 -0.252370
v 0.059821 0.051497 -0.276335
v -0.056588 0.051497 -0.292188
v 0.357864 0.051497 -0.277348
v 0.439818 0.051497 -0.299654
v 0.079433 0.051497 -0.305068
v 0.346190 0.051497 -0.300638
v -0.030707 0.051497 -0.327776
v 0.414238 0.051497 -0.332130
v 0.332002 0.051497 -0.321734
v 0.101883 0.051497 -0.329599
v 0.315177 0.051497 -0.340130
v -0.001095 0.051497 -0.358537
v 0.127123 0.051497 -0.349471
v 0.384927 0.051497 -0.360776
v 0.295597 0.051497 -0.355319
v 0.155105 0.051497 -0.364230
v 0.273139 0.051497 -0.366796
v 0.031944 0.051497 -0.384235
v 0.352172 0.051497 -0.385165
v 0.185782 0.051497 -0.373420
v 0.247683 0.051497 -0.374053
v 0.219106 0.051497 -0.376584
v 0.068112 0.051497 -0.404634
v 0.316254 0.051497 -0.404874
v 0.107107 0.051497 -0.419497
v 0.277459 0.051497 -0.419478
v 0.236071 0.051497 -0.428552
v 0.148628 0.051497 -0.428588
v 0.192373 0.051497 -0.431671
v -0.271916 -0.051496 0.425312
v -0.252489 -0.051496 -0.236438
v -0.252489 -0.051496 0.433510
v -0.291723 -0.051496 0.417342
v -0.311917 -0.051496 0.409625
v -0.332508 -0.051496 0.402186
v -0.353505 -0.051496 0.395052
v -0.374915 -0.051496 0.388246
v -0.396746 -0.051496 0.381795
v -0.369413 -0.051496 0.283972
v -0.419009 -0.051496 0.375723
v -0.372232 -0.051496 0.292118
v -0.441710 -0.051496 0.370057
v -0.376231 -0.051496 0.298528
v -0.464858 -0.051496 0.364821
v -0.381615 -0.051496 0.303436
v -0.488462 -0.051496 0.360041
v -0.512530 -0.051496 0.355741
v -0.388585 -0.051496 0.307075
v -0.512530 -0.051496 0.315237
v -0.436381 -0.051496 0.313616
v -0.421040 -0.051496 0.312717
v -0.408095 -0.051496 0.311482
v -0.397345 -0.051496 0.309680
v -0.367573 -0.051496 0.273858
v -0.366510 -0.051496 0.261542
v -0.366021 -0.051496 0.246788
v -0.365902 -0.051496 0.229367
v -0.365902 -0.051496 -0.236438
v -0.366127 -0.051496 -0.262148
v -0.252232 -0.051496 -0.262488
v -0.367088 -0.051496 -0.284016
v -0.251169 -0.051496 -0.284579
v -0.369219 -0.051496 -0.302385
v -0.248869 -0.051496 -0.303068
v -0.372953 -0.051496 -0.317597
v -0.244898 -0.051496 -0.318318
v -0.378724 -0.051496 -0.329997
v -0.238823 -0.051496 -0.330687
v -0.386965 -0.051496 -0.339928
v -0.230211 -0.051496 -0.340535
v -0.398109 -0.051496 -0.347731
v -0.218629 -0.051496 -0.348224
v -0.412588 -0.051496 -0.353751
v -0.203644 -0.051496 -0.354112
v -0.430837 -0.051496 -0.358332
v -0.184821 -0.051496 -0.358559
v -0.453287 -0.051496 -0.361815
v -0.161729 -0.051496 -0.361927
v -0.480375 -0.051496 -0.364545
v -0.133933 -0.051496 -0.364576
v -0.512530 -0.051496 -0.366863
v -0.101001 -0.051496 -0.366863
v -0.512530 -0.051496 -0.413849
v -0.101001 -0.051496 -0.413849
v -0.271916 0.051497 0.425312
v -0.252489 0.051497 0.433510
v -0.252489 0.051493 -0.236438
v -0.291723 0.051497 0.417342
v -0.311917 0.051497 0.409625
v -0.332508 0.051493 0.402186
v -0.353505 0.051497 0.395052
v -0.374915 0.051497 0.388246
v -0.396746 0.051497 0.381795
v -0.369413 0.051497 0.283972
v -0.419009 0.051497 0.375723
v -0.372232 0.051497 0.292118
v -0.441710 0.051493 0.370057
v -0.376231 0.051497 0.298528
v -0.464858 0.051493 0.364821
v -0.381615 0.051497 0.303436
v -0.488462 0.051497 0.360041
v -0.512530 0.051493 0.355741
v -0.388585 0.051497 0.307075
v -0.512530 0.051497 0.315237
v -0.436381 0.051497 0.313616
v -0.421040 0.051493 0.312717
v -0.408095 0.051497 0.311482
v -0.397345 0.051497 0.309680
v -0.367573 0.051493 0.273858
v -0.366510 0.051497 0.261542
v -0.366021 0.051497 0.246788
v -0.365902 0.051497 0.229367
v -0.365902 0.051497 -0.236438
v -0.366127 0.051497 -0.262148
v -0.252232 0.051497 -0.262488
v -0.367088 0.051497 -0.284016
v -0.251169 0.051493 -0.284579
v -0.369219 0.051497 -0.302385
v -0.248869 0.051493 -0.303068
v -0.372953 0.051497 -0.317597
v -0.244898 0.051494 -0.318318
v -0.378724 0.051497 -0.329997
v -0.238823 0.051497 -0.330687
v -0.386965 0.051497 -0.339928
v -0.230211 0.051497 -0.340535
v -0.398109 0.051494 -0.347731
v -0.218629 0.051497 -0.348224
v -0.412588 0.051497 -0.353751
v -0.203644 0.051497 -0.354112
v -0.430837 0.051497 -0.358332
v -0.184821 0.051497 -0.358559
v -0.453287 0.051497 -0.361815
v -0.161729 0.051497 -0.361927
v -0.480375 0.051494 -0.364545
v -0.133933 0.051497 -0.364576
v -0.512530 0.051494 -0.366863
v -0.101001 0.051497 -0.366863
v -0.512530 0.051497 -0.413849
v -0.101001 0.051497 -0.413849
vn 0.0000 -1.0000 -0.0000
vn 0.0000 -1.0000 -0.0020
vn 0.0000 -1.0000 -0.0001
vn 0.0000 1.0000 -0.0000
vn -0.0001 1.0000 -0.0002
vn 0.0001 1.0000 0.0002
vn 0.0000 1.0000 0.0001
vn -0.0000 1.0000 -0.0002
vn 0.0001 1.0000 -0.0010
vn 0.0000 1.0000 0.0004
vn 0.0000 1.0000 0.0005
vn 0.0000 1.0000 -0.0003
vn -0.0000 1.0000 0.0002
vn -0.0000 1.0000 0.0006
vn -0.0000 1.0000 -0.0004
vn -0.0000 1.0000 -0.0001
vn 0.0002 1.0000 0.0038
vn 0.0003 1.0000 0.0054
vn 0.0001 1.0000 0.0024
vn -0.0001 1.0000 -0.0011
vn -0.0000 1.0000 0.0010
vn 0.0000 1.0000 0.0008
vn 0.0000 1.0000 0.0011
vn -0.0000 1.0000 0.0014
vn -0.0001 1.0000 -0.0005
vn 0.0000 1.0000 0.0003
vn 0.0126 0.9991 -0.0417
vn -0.0003 1.0000 0.0007
vn -0.0005 1.0000 0.0018
vn -0.0003 1.0000 0.0009
vn -0.0001 1.0000 0.0001
vn 0.0002 1.0000 -0.0007
vn -0.0001 1.0000 0.0003
vn -0.0002 1.0000 0.0003
vn 0.0001 1.0000 -0.0002
vn 0.0001 1.0000 -0.0001
vn 0.0656 0.0000 0.9978
vn -0.2857 0.0000 0.9583
vn 0.9131 0.0000 0.4078
vn 0.8571 0.0000 -0.5151
vn -0.9471 0.0000 -0.3208
vn 0.9789 0.0000 -0.2044
vn 0.3344 0.0000 -0.9424
vn -0.0743 0.0000 -0.9972
vn 1.0000 -0.0000 -0.0086
vn 1.0000 -0.0000 -0.0021
vn 0.9998 0.0000 -0.0187
vn -0.9374 0.0000 0.3483
vn 0.0945 0.0000 0.9955
vn -0.9547 0.0000 0.2977
vn -0.4501 0.0000 0.8930
vn -0.8087 0.0000 -0.5882
vn 0.2142 0.0000 -0.9768
vn 0.3327 0.0000 -0.9430
vn 0.9744 0.0000 0.2249
vn 0.5767 0.0000 -0.8170
vn 0.9670 0.0000 -0.2547
vn 0.2001 0.0000 0.9798
vn -0.2536 0.0000 0.9673
vn 0.9564 0.0000 0.2920
vn 0.7856 0.0000 -0.6188
vn -0.9746 0.0000 -0.2240
vn 0.9861 0.0000 -0.1663
vn -0.2313 0.0000 -0.9729
vn 0.3710 0.0000 -0.9286
vn -0.8940 0.0000 0.4481
vn 0.2870 0.0000 0.9579
vn -0.9839 0.0000 0.1785
vn -0.5196 0.0000 0.8544
vn -0.7204 0.0000 -0.6935
vn 0.3523 0.0000 -0.9359
vn 0.1834 0.0000 -0.9830
vn -0.2502 0.0000 0.9682
vn -0.2369 0.0000 0.9715
vn -0.2501 0.0000 0.9682
vn 0.3540 0.0000 -0.9352
vn 0.6313 0.0000 -0.7756
vn -0.0671 0.0000 0.9977
vn -0.3468 0.0000 0.9379
vn 0.7787 0.0000 0.6273
vn 0.9562 0.0000 -0.2928
vn -0.9912 0.0000 -0.1320
vn 0.9579 0.0000 -0.2873
vn -0.3892 0.0000 -0.9211
vn 0.2512 0.0000 -0.9679
vn -0.8298 0.0000 0.5581
vn 0.9995 0.0000 -0.0326
vn 0.9995 0.0000 -0.0327
vn 0.4665 0.0000 0.8845
vn 0.9330 0.0000 0.3597
vn -0.8572 0.0000 0.5151
vn -0.3389 0.0000 0.9408
vn -0.9306 0.0000 -0.3661
vn -0.0703 0.0000 -0.9975
vn 0.2056 0.0000 -0.9786
vn -0.2249 0.0000 0.9744
vn 0.3758 0.0000 -0.9267
vn 0.6880 0.0000 -0.7257
vn 0.4625 0.0000 0.8866
vn -0.1848 0.0000 0.9828
vn 0.9983 0.0000 0.0578
vn 0.5972 0.0000 -0.8021
vn 0.4363 0.0000 -0.8998
vn -0.9061 0.0000 -0.4232
vn 0.0947 0.0000 -0.9955
vn 0.9950 0.0000 -0.1002
vn -0.9659 0.0000 0.2587
vn 0.9940 0.0000 0.1090
vn -0.0882 0.0000 0.9961
vn -0.6585 0.0000 0.7526
vn -0.2811 0.0000 0.9597
vn -0.9988 0.0000 -0.0483
vn -0.4913 0.0000 -0.8710
vn 0.3115 0.0000 -0.9502
vn -0.1915 0.0000 0.9815
vn -0.1978 0.0000 0.9802
vn 0.5254 0.0000 -0.8509
vn 0.9377 0.0000 -0.3475
vn 0.5815 0.0000 0.8136
vn -0.1477 0.0000 0.9890
vn 0.9983 0.0000 -0.0589
vn 0.4811 0.0000 -0.8767
vn -0.9994 0.0000 0.0343
vn -0.6645 0.0000 -0.7473
vn 0.1516 0.0000 -0.9884
vn 0.4660 0.0000 -0.8848
vn -0.6129 0.0000 0.7901
vn 0.9973 0.0000 -0.0733
vn 0.7377 0.0000 0.6751
vn 0.8259 0.0000 0.5637
vn -0.7277 0.0000 0.6859
vn 0.9825 0.0000 0.1865
vn -0.2988 0.0000 0.9543
vn -0.9887 0.0000 -0.1497
vn -0.3561 0.0000 -0.9344
vn 0.2485 0.0000 -0.9686
vn -0.2146 0.0000 0.9767
vn -0.2055 0.0000 0.9787
vn -0.2250 0.0000 0.9744
vn 0.4205 0.0000 -0.9073
vn 0.8009 0.0000 -0.5988
vn 0.6876 0.0000 0.7261
vn -0.1087 0.0000 0.9941
vn 0.9843 0.0000 -0.1767
vn -0.7681 0.0000 -0.6403
vn 0.2036 0.0000 -0.9791
vn 0.4946 0.0000 -0.8691
vn 0.9987 0.0000 -0.0508
vn -0.3762 0.0000 0.9266
vn -0.9946 0.0000 0.1040
vn -0.4551 0.0000 0.8905
vn -0.7948 0.0000 0.6069
vn 0.9630 0.0000 0.2696
vn -0.3180 0.0000 0.9481
vn -0.4554 0.0000 0.8903
vn -0.9667 0.0000 -0.2560
vn 0.0000 0.0000 -1.0000
vn -0.2139 0.0000 -0.9769
vn 0.2696 0.0000 -0.9630
vn -0.1979 0.0000 0.9802
vn 0.4362 0.0000 -0.8998
vn 0.8530 0.0000 -0.5219
vn 0.3340 0.0000 0.9426
vn -0.2199 0.0000 0.9755
vn 0.9846 0.0000 0.1748
vn 0.6989 0.0000 -0.7152
vn 0.4047 0.0000 -0.9144
vn -0.8477 0.0000 -0.5305
vn 0.0326 0.0000 -0.9995
vn -0.4048 0.0000 0.9144
vn 0.9913 0.0000 -0.1313
vn -0.9840 0.0000 0.1780
vn 0.9994 0.0000 0.0356
vn -0.2742 0.0000 0.9617
vn -0.5889 0.0000 0.8082
vn -0.2649 0.0000 0.9643
vn -0.9983 0.0000 0.0583
vn -0.6140 0.0000 -0.7893
vn -0.6139 0.0000 -0.7893
vn 0.2905 0.0000 -0.9569
vn 0.4783 0.0000 -0.8782
vn 0.8992 0.0000 -0.4375
vn -0.0231 0.0000 0.9997
vn -0.3168 0.0000 0.9485
vn 0.8539 0.0000 0.5204
vn 0.9138 0.0000 -0.4061
vn -0.9991 0.0000 -0.0436
vn -0.5367 0.0000 -0.8438
vn 0.9695 0.0000 -0.2451
vn -0.7379 0.0000 0.6749
vn 0.2946 0.0000 -0.9556
vn 0.6186 0.0000 0.7857
vn 0.8890 0.0000 0.4578
vn -0.9115 0.0000 0.4112
vn -0.3792 0.0000 0.9253
vn -0.8785 0.0000 -0.4778
vn 0.0712 0.0000 -0.9975
vn 0.2272 0.0000 -0.9738
vn 0.2273 0.0000 -0.9738
vn 0.3978 0.0000 -0.9175
vn 0.7452 0.0000 -0.6669
vn -0.0019 1.0000 -0.0006
vn -0.0001 1.0000 -0.0000
vn 0.0001 1.0000 0.0000
vn -0.0036 1.0000 -0.0008
vn 0.0003 1.0000 0.0003
vn -0.0001 1.0000 -0.0001
vn -0.0003 1.0000 -0.0005
vn 0.0001 1.0000 0.0003
vn -0.0010 1.0000 -0.0002
vn 0.0006 1.0000 0.0001
vn 0.0000 1.0000 -0.0006
vn 0.0000 1.0000 -0.0005
vn 0.8976 0.0000 0.4408
vn 1.0000 0.0000 0.0000
vn -0.3570 0.0000 0.9341
vn -0.1985 0.0000 0.9801
vn -0.0719 0.0000 0.9974
vn -0.9712 0.0000 0.2384
vn -0.4628 0.0000 -0.8864
vn -0.9839 0.0000 -0.1789
vn 1.0000 -0.0000 0.0099
vn 0.3657 0.0000 0.9307
vn -0.0949 0.0000 -0.9955
vn -0.2631 0.0000 0.9648
vn -0.5736 0.0000 0.8191
vn -1.0000 -0.0000 -0.0068
vn -1.0000 0.0000 0.0000
vn 0.9924 0.0000 0.1234
vn 0.0948 0.0000 0.9955
vn -0.3217 0.0000 0.9468
vn -0.1533 0.0000 0.9882
vn -0.9990 0.0000 0.0439
vn -0.8484 0.0000 -0.5293
vn 0.9988 0.0000 0.0480
vn 0.1443 0.0000 0.9895
vn -0.0213 0.0000 -0.9998
vn -0.3029 0.0000 0.9530
vn -0.2434 0.0000 0.9699
vn -1.0000 0.0000 0.0087
vn -0.6737 0.0000 -0.7390
vn 0.2300 0.0000 0.9732
vn -0.0586 0.0000 -0.9983
vn -0.2834 0.0000 0.9590
vn -0.3839 0.0000 0.9234
vn 0.9677 0.0000 0.2520
vn 0.0693 0.0000 0.9976
vn -0.3398 0.0000 0.9405
vn -0.1759 0.0000 0.9844
vn -0.1003 0.0000 0.9950
vn -0.9933 0.0000 0.1153
vn -0.9450 0.0000 -0.3270
vn -0.9450 0.0000 -0.3271
vn -0.3888 0.0000 0.9213
vn 0.5531 0.0000 0.8331
vn -0.2422 0.0000 0.9702
vn -0.1653 0.0000 -0.9862
vn -0.7695 0.0000 0.6386
vn -0.9994 0.0000 -0.0332
vn 0.7528 0.0000 0.6583
vn -0.3733 0.0000 0.9277
vn -0.2206 0.0000 0.9754
vn -0.9066 0.0000 0.4220
vn -0.2850 0.0000 -0.9585
vn -0.9963 0.0000 -0.0860
usemtl N16
s 1
f 1//1 2//1 3//1
f 4//1 2//1 1//1
f 5//1 2//1 4//1
f 6//1 2//1 5//1
f 7//1 2//1 6//1
f 8//1 2//1 7//1
f 9//1 2//1 8//1
f 10//1 2//1 9//1
f 11//1 2//1 10//1
f 12//1 2//1 11//1
f 13//1 2//1 12//1
f 14//1 2//1 13//1
f 15//1 2//1 14//1
f 15//1 16//1 2//1
f 15//1 17//1 16//1
f 15//1 18//1 17//1
f 15//1 19//1 18//1
f 15//1 20//1 19//1
f 21//1 20//1 15//1
f 21//1 22//1 20//1
f 21//1 23//1 22//1
f 21//1 24//1 23//1
f 21//1 25//1 24//1
f 21//1 26//1 25//1
f 27//1 26//1 21//1
f 27//1 28//1 26//1
f 27//1 29//1 28//1
f 27//1 30//1 29//1
f 31//1 30//1 27//1
f 31//1 32//1 30//1
f 31//1 33//1 32//1
f 34//1 33//1 31//1
f 34//1 35//1 33//1
f 34//1 36//1 35//1
f 37//1 36//1 34//1
f 37//1 38//1 36//1
f 37//1 39//1 38//1
f 40//1 39//1 37//1
f 40//1 41//1 39//1
f 42//1 41//1 40//1
f 42//1 43//1 41//1
f 42//1 44//1 43//1
f 45//1 44//1 42//1
f 45//1 46//1 44//1
f 47//1 48//1 49//1
f 50//1 48//1 47//1
f 51//1 48//1 50//1
f 52//1 48//1 51//1
f 52//1 53//1 48//1
f 54//1 53//1 52//1
f 55//1 53//1 54//1
f 56//1 53//1 55//1
f 57//1 53//1 56//1
f 57//1 58//1 53//1
f 59//1 58//1 57//1
f 60//1 58//1 59//1
f 61//1 58//1 60//1
f 62//1 46//1 45//1
f 63//1 58//1 61//1
f 63//1 64//1 58//1
f 65//1 64//1 63//1
f 62//1 65//1 46//1
f 65//1 66//1 64//1
f 65//1 67//1 66//1
f 62//1 67//1 65//1
f 62//1 68//1 67//1
f 68//1 69//2 67//1
f 69//2 70//1 67//1
f 70//1 71//1 67//1
f 62//1 72//1 68//1
f 62//1 73//1 72//1
f 74//1 75//1 62//1
f 75//1 76//1 62//1
f 76//1 77//1 62//1
f 77//1 73//1 62//1
f 78//1 71//1 70//1
f 79//1 71//1 78//1
f 74//1 80//3 75//1
f 74//1 81//1 80//3
f 74//1 82//1 81//1
f 83//1 71//1 79//1
f 74//1 84//1 82//1
f 83//1 85//1 71//1
f 74//1 86//1 84//1
f 74//1 87//1 86//1
f 88//1 85//1 83//1
f 74//1 89//1 87//1
f 74//1 90//1 89//1
f 74//1 91//1 90//1
f 88//1 92//1 85//1
f 93//1 92//1 88//1
f 74//1 94//1 91//1
f 74//1 95//1 94//1
f 96//1 95//1 74//1
f 96//1 97//1 95//1
f 98//1 92//1 93//1
f 96//1 99//1 97//1
f 98//1 100//1 92//1
f 96//1 101//1 99//1
f 96//1 102//1 101//1
f 103//1 100//1 98//1
f 96//1 104//1 102//1
f 96//1 105//1 104//1
f 103//1 106//1 100//1
f 96//1 107//1 105//1
f 108//1 106//1 103//1
f 96//1 109//1 107//1
f 96//1 110//1 109//1
f 111//1 110//1 96//1
f 112//1 106//1 108//1
f 112//1 113//1 106//1
f 114//1 113//1 112//1
f 111//1 115//1 110//1
f 114//1 116//1 113//1
f 117//1 115//1 111//1
f 118//1 116//1 114//1
f 117//1 119//1 115//1
f 118//1 120//1 116//1
f 121//1 120//1 118//1
f 122//1 119//1 117//1
f 122//1 123//1 119//1
f 124//1 120//1 121//1
f 124//1 125//1 120//1
f 126//1 125//1 124//1
f 127//1 123//1 122//1
f 127//1 128//1 123//1
f 126//1 129//1 125//1
f 130//1 129//1 126//1
f 127//1 131//1 128//1
f 132//1 131//1 127//1
f 133//1 129//1 130//1
f 133//1 134//1 129//1
f 132//1 135//1 131//1
f 136//1 134//1 133//1
f 137//1 135//1 132//1
f 136//1 138//1 134//1
f 139//1 138//1 136//1
f 137//1 140//1 135//1
f 141//1 138//1 139//1
f 142//1 140//1 137//1
f 142//1 143//1 140//1
f 141//1 144//1 138//1
f 145//1 144//1 141//1
f 142//1 146//1 143//1
f 147//1 144//1 145//1
f 148//1 146//1 142//1
f 147//1 149//1 144//1
f 148//1 150//1 146//1
f 151//1 149//1 147//1
f 148//1 152//1 150//1
f 152//1 149//1 151//1
f 148//1 149//1 152//1
f 153//1 149//1 148//1
f 153//1 154//1 149//1
f 155//1 154//1 153//1
f 155//1 156//1 154//1
f 155//1 157//1 156//1
f 158//1 157//1 155//1
f 158//1 159//1 157//1
f 160//4 161//4 162//4
f 163//4 160//4 162//4
f 164//5 163//4 162//4
f 165//6 164//5 162//4
f 166//7 165//6 162//4
f 167//4 166//7 162//4
f 168//4 167//4 162//4
f 169//4 168//4 162//4
f 170//4 169//4 162//4
f 171//4 170//4 162//4
f 172//4 171//4 162//4
f 173//8 172//4 162//4
f 174//4 173//8 162//4
f 174//4 162//4 175//9
f 174//4 175//9 176//10
f 174//4 176//10 177//11
f 174//4 177//11 178//7
f 174//4 178//7 179//7
f 180//7 174//4 179//7
f 180//7 179//7 181//7
f 180//7 181//7 182//7
f 180//7 182//7 183//12
f 180//7 183//12 184//13
f 180//7 184//13 185//14
f 186//4 180//7 185//14
f 186//4 185//14 187//15
f 186//4 187//15 188//16
f 186//4 188//16 189//16
f 190//4 186//4 189//16
f 190//4 189//16 191//4
f 190//4 191//4 192//4
f 193//16 190//4 192//4
f 193//16 192//4 194//4
f 193//16 194//4 195//4
f 196//4 193//16 195//4
f 196//4 195//4 197//4
f 196//4 197//4 198//4
f 199//4 196//4 198//4
f 199//4 198//4 200//4
f 201//4 199//4 200//4
f 201//4 200//4 202//4
f 201//4 202//4 203//4
f 204//4 201//4 203//4
f 204//4 203//4 205//4
f 206//17 207//18 208//19
f 209//4 206//17 208//19
f 210//4 209//4 208//19
f 211//12 210//4 208//19
f 211//12 208//19 212//4
f 213//20 211//12 212//4
f 214//11 213//20 212//4
f 215//21 214//11 212//4
f 216//4 215//21 212//4
f 216//4 212//4 217//8
f 218//4 216//4 217//8
f 219//4 218//4 217//8
f 220//4 219//4 217//8
f 221//4 204//4 205//4
f 222//16 220//4 217//8
f 222//16 217//8 223//7
f 224//13 222//16 223//7
f 221//4 205//4 224//13
f 224//13 223//7 225//4
f 224//13 225//4 226//22
f 221//4 224//13 226//22
f 221//4 226//22 227//23
f 227//23 226//22 228//24
f 228//24 226//22 229//25
f 229//25 226//22 230//4
f 221//4 227//23 231//4
f 221//4 231//4 232//4
f 233//4 221//4 234//4
f 234//4 221//4 235//4
f 235//4 221//4 236//4
f 236//4 221//4 232//4
f 237//4 229//25 230//4
f 238//26 237//4 230//4
f 233//27 234//27 239//27
f 233//28 239//4 240//29
f 233//28 240//29 241//30
f 242//4 238//26 230//4
f 233//28 241//30 243//31
f 242//4 230//4 244//4
f 233//28 243//31 245//31
f 233//28 245//31 246//32
f 247//4 242//4 244//4
f 233//28 246//32 248//7
f 233//28 248//7 249//33
f 233//28 249//33 250//4
f 247//4 244//4 251//4
f 252//4 247//4 251//4
f 233//28 250//4 253//8
f 233//28 253//8 254//12
f 255//4 233//28 254//12
f 255//4 254//12 256//31
f 257//16 252//4 251//4
f 255//4 256//31 258//34
f 257//16 251//4 259//4
f 255//4 258//34 260//35
f 255//4 260//35 261//36
f 262//7 257//16 259//4
f 255//4 261//36 263//33
f 255//4 263//33 264//4
f 262//7 259//4 265//4
f 255//4 264//4 266//4
f 267//4 262//7 265//4
f 255//4 266//4 268//4
f 255//4 268//4 269//4
f 270//4 255//4 269//4
f 271//4 267//4 265//4
f 271//4 265//4 272//4
f 273//4 271//4 272//4
f 270//4 269//4 274//4
f 273//4 272//4 275//4
f 276//4 270//4 274//4
f 277//4 273//4 275//4
f 276//4 274//4 278//4
f 277//4 275//4 279//4
f 280//4 277//4 279//4
f 281//4 276//4 278//4
f 281//4 278//4 282//4
f 283//4 280//4 279//4
f 283//4 279//4 284//4
f 285//4 283//4 284//4
f 286//4 281//4 282//4
f 286//4 282//4 287//4
f 285//4 284//4 288//4
f 289//4 285//4 288//4
f 286//4 287//4 290//4
f 291//4 286//4 290//4
f 292//4 289//4 288//4
f 292//4 288//4 293//4
f 291//4 290//4 294//4
f 295//4 292//4 293//4
f 296//4 291//4 294//4
f 295//4 293//4 297//4
f 298//4 295//4 297//4
f 296//4 294//4 299//4
f 300//4 298//4 297//4
f 301//4 296//4 299//4
f 301//4 299//4 302//4
f 300//4 297//4 303//4
f 304//4 300//4 303//4
f 301//4 302//4 305//4
f 306//4 304//4 303//4
f 307//4 301//4 305//4
f 306//4 303//4 308//4
f 307//4 305//4 309//4
f 310//4 306//4 308//4
f 307//4 309//4 311//4
f 311//4 310//4 308//4
f 307//4 311//4 308//4
f 312//4 307//4 308//4
f 312//4 308//4 313//4
f 314//4 312//4 313//4
f 314//4 313//4 315//4
f 314//4 315//4 316//4
f 317//4 314//4 316//4
f 317//4 316//4 318//4
f 49//37 48//37 208//37
f 208//37 207//37 49//37
f 57//38 56//38 215//38
f 215//38 216//38 57//38
f 85//39 92//39 251//39
f 251//39 244//39 85//39
f 129//40 134//40 293//40
f 293//40 288//40 129//40
f 108//41 103//41 262//41
f 262//41 267//41 108//41
f 91//42 94//42 253//42
f 253//42 250//42 91//42
f 80//43 81//43 240//43
f 240//43 239//43 80//43
f 70//44 69//44 228//44
f 228//44 229//44 70//44
f 105//45 107//46 266//45
f 266//45 264//47 105//45
f 133//48 130//48 289//48
f 289//48 292//48 133//48
f 150//49 152//49 311//49
f 311//49 309//49 150//49
f 62//50 45//50 204//50
f 204//50 221//50 62//50
f 21//51 15//51 174//51
f 174//51 180//51 21//51
f 137//52 132//52 291//52
f 291//52 296//52 137//52
f 156//53 157//53 316//53
f 316//53 315//53 156//53
f 23//54 24//54 183//54
f 183//54 182//54 23//54
f 3//55 2//55 162//55
f 162//55 161//55 3//55
f 33//56 35//56 194//56
f 194//56 192//56 33//56
f 46//57 65//57 224//57
f 224//57 205//57 46//57
f 48//58 53//58 212//58
f 212//58 208//58 48//58
f 56//59 55//59 214//59
f 214//59 215//59 56//59
f 92//60 100//60 259//60
f 259//60 251//60 92//60
f 134//61 138//61 297//61
f 297//61 293//61 134//61
f 112//62 108//62 267//62
f 267//62 271//62 112//62
f 94//63 95//63 254//63
f 254//63 253//63 94//63
f 78//64 70//64 229//64
f 229//64 237//64 78//64
f 81//65 82//65 241//65
f 241//65 240//65 81//65
f 136//66 133//66 292//66
f 292//66 295//66 136//66
f 107//46 109//46 268//46
f 268//46 266//45 107//46
f 146//67 150//67 309//67
f 309//67 305//67 146//67
f 74//68 62//68 221//68
f 221//68 233//68 74//68
f 27//69 21//69 180//69
f 180//69 186//69 27//69
f 142//70 137//70 296//70
f 296//70 301//70 142//70
f 154//71 156//71 315//71
f 315//71 313//71 154//71
f 2//72 16//72 175//72
f 175//72 162//72 2//72
f 9//73 8//74 167//75
f 167//75 168//73 9//73
f 24//76 25//76 184//76
f 184//76 183//76 24//76
f 35//77 36//77 195//77
f 195//77 194//77 35//77
f 50//78 47//78 206//78
f 206//78 209//78 50//78
f 60//79 59//79 218//79
f 218//79 219//79 60//79
f 67//80 71//80 230//80
f 230//80 226//80 67//80
f 120//81 125//81 284//81
f 284//81 279//81 120//81
f 114//82 112//82 271//82
f 271//82 273//82 114//82
f 89//83 90//83 249//83
f 249//83 248//83 89//83
f 79//84 78//84 237//84
f 237//84 238//84 79//84
f 76//85 75//85 234//85
f 234//85 235//85 76//85
f 139//86 136//86 295//86
f 295//86 298//86 139//86
f 102//87 104//47 263//88
f 263//88 261//87 102//87
f 143//89 146//89 305//89
f 305//89 302//89 143//89
f 123//90 128//90 287//90
f 287//90 282//90 123//90
f 42//91 40//91 199//91
f 199//91 201//91 42//91
f 14//92 13//92 172//92
f 172//92 173//92 14//92
f 127//93 122//93 281//93
f 281//93 286//93 127//93
f 159//94 158//94 317//94
f 317//94 318//94 159//94
f 16//95 17//95 176//95
f 176//95 175//95 16//95
f 8//74 7//96 166//74
f 166//74 167//75 8//74
f 25//97 26//97 185//97
f 185//97 184//97 25//97
f 36//98 38//98 197//98
f 197//98 195//98 36//98
f 58//99 64//99 223//99
f 223//99 217//99 58//99
f 54//100 52//100 211//100
f 211//100 213//100 54//100
f 106//101 113//101 272//101
f 272//101 265//101 106//101
f 144//102 149//102 308//102
f 308//102 303//102 144//102
f 84//103 86//103 245//103
f 245//103 243//103 84//103
f 103//104 98//104 257//104
f 257//104 262//104 103//104
f 72//105 73//105 232//105
f 232//105 231//105 72//105
f 97//106 99//106 258//106
f 258//106 256//106 97//106
f 130//107 126//107 285//107
f 285//107 289//107 130//107
f 110//108 115//108 274//108
f 274//108 269//108 110//108
f 152//109 151//109 310//109
f 310//109 311//109 152//109
f 34//110 31//110 190//110
f 190//110 193//110 34//110
f 11//111 10//111 169//111
f 169//111 170//111 11//111
f 111//112 96//112 255//112
f 255//112 270//112 111//112
f 153//113 148//113 307//113
f 307//113 312//113 153//113
f 22//114 23//114 182//114
f 182//114 181//114 22//114
f 1//115 3//115 161//115
f 161//115 160//116 1//115
f 32//117 33//117 192//117
f 192//117 191//117 32//117
f 44//118 46//118 205//118
f 205//118 203//118 44//118
f 64//119 66//119 225//119
f 225//119 223//119 64//119
f 52//120 51//120 210//120
f 210//120 211//120 52//120
f 113//121 116//121 275//121
f 275//121 272//121 113//121
f 149//122 154//122 313//122
f 313//122 308//122 149//122
f 121//123 118//123 277//123
f 277//123 280//123 121//123
f 88//124 83//124 242//124
f 242//124 247//124 88//124
f 73//125 77//125 236//125
f 236//125 232//125 73//125
f 86//126 87//126 246//126
f 246//126 245//126 86//126
f 145//127 141//127 300//127
f 300//127 304//127 145//127
f 99//128 101//128 260//128
f 260//128 258//128 99//128
f 135//129 140//129 299//129
f 299//129 294//129 135//129
f 131//130 135//130 294//130
f 294//130 290//130 131//130
f 37//131 34//131 193//131
f 193//131 196//131 37//131
f 115//132 119//132 278//132
f 278//132 274//132 115//132
f 12//133 11//133 170//133
f 170//133 171//133 12//133
f 117//134 111//134 270//134
f 270//134 276//134 117//134
f 155//135 153//135 312//135
f 312//135 314//135 155//135
f 18//136 19//136 178//136
f 178//136 177//136 18//136
f 6//137 5//138 164//137
f 164//137 165//139 6//137
f 28//140 29//140 188//140
f 188//140 187//140 28//140
f 39//141 41//141 200//141
f 200//141 198//141 39//141
f 66//142 67//142 226//142
f 226//142 225//142 66//142
f 51//143 50//143 209//143
f 209//143 210//143 51//143
f 116//144 120//144 279//144
f 279//144 275//144 116//144
f 93//145 88//145 247//145
f 247//145 252//145 93//145
f 77//146 76//146 235//146
f 235//146 236//146 77//146
f 87//147 89//147 248//147
f 248//147 246//147 87//147
f 101//148 102//148 261//148
f 261//148 260//148 101//148
f 61//149 60//149 219//149
f 219//149 220//149 61//149
f 124//150 121//150 280//150
f 280//150 283//150 124//150
f 147//151 145//151 304//151
f 304//151 306//151 147//151
f 40//152 37//152 196//152
f 196//152 199//152 40//152
f 119//153 123//153 282//153
f 282//153 278//153 119//153
f 13//154 12//154 171//154
f 171//154 172//154 13//154
f 65//155 63//155 222//155
f 222//155 224//155 65//155
f 122//156 117//156 276//156
f 276//156 281//156 122//156
f 69//157 68//157 227//157
f 227//157 228//157 69//157
f 158//158 155//158 314//158
f 314//158 317//158 158//158
f 19//159 20//159 179//159
f 179//159 178//159 19//159
f 5//138 4//160 163//138
f 163//138 164//137 5//138
f 29//161 30//161 189//161
f 189//161 188//161 29//161
f 41//162 43//162 202//162
f 202//162 200//162 41//162
f 53//163 58//163 217//163
f 217//163 212//163 53//163
f 55//164 54//164 213//164
f 213//164 214//164 55//164
f 100//165 106//165 265//165
f 265//165 259//165 100//165
f 138//166 144//166 303//166
f 303//166 297//166 138//166
f 82//167 84//167 243//167
f 243//167 241//167 82//167
f 98//168 93//168 252//168
f 252//168 257//168 98//168
f 68//169 72//169 231//169
f 231//169 227//169 68//169
f 63//170 61//170 220//170
f 220//170 222//170 63//170
f 95//171 97//171 256//171
f 256//171 254//171 95//171
f 126//172 124//172 283//172
f 283//172 285//172 126//172
f 109//173 110//173 269//173
f 269//173 268//173 109//173
f 151//174 147//174 306//174
f 306//174 310//174 151//174
f 31//175 27//175 186//175
f 186//175 190//175 31//175
f 10//176 9//176 168//176
f 168//176 169//176 10//176
f 96//177 74//177 233//177
f 233//177 255//177 96//177
f 148//178 142//178 301//178
f 301//178 307//179 148//178
f 20//180 22//180 181//180
f 181//180 179//180 20//180
f 4//160 1//115 160//116
f 160//116 163//138 4//160
f 30//181 32//181 191//181
f 191//181 189//181 30//181
f 43//182 44//182 203//182
f 203//182 202//182 43//182
f 47//183 49//183 207//183
f 207//183 206//183 47//183
f 59//184 57//184 216//184
f 216//184 218//184 59//184
f 71//185 85//185 244//185
f 244//185 230//185 71//185
f 125//186 129//186 288//186
f 288//186 284//186 125//186
f 118//187 114//187 273//187
f 273//187 277//187 118//187
f 83//188 79//188 238//188
f 238//188 242//188 83//188
f 90//189 91//189 250//189
f 250//189 249//189 90//189
f 141//190 139//190 298//190
f 298//190 300//190 141//190
f 75//191 80//191 239//191
f 239//191 234//191 75//191
f 104//47 105//45 264//47
f 264//47 263//88 104//47
f 140//192 143//192 302//192
f 302//192 299//192 140//192
f 128//193 131//193 290//193
f 290//193 287//193 128//193
f 45//194 42//194 201//194
f 201//194 204//194 45//194
f 15//195 14//195 173//195
f 173//195 174//195 15//195
f 132//196 127//196 286//196
f 286//196 291//196 132//196
f 157//197 159//197 318//197
f 318//197 316//197 157//197
f 17//198 18//198 177//199
f 177//199 176//199 17//198
f 7//96 6//137 165//139
f 165//139 166//74 7//96
f 26//200 28//200 187//200
f 187//200 185//200 26//200
f 38//201 39//201 198//201
f 198//201 197//201 38//201
f 319//1 320//1 321//1
f 322//1 320//1 319//1
f 323//1 320//1 322//1
f 324//1 320//1 323//1
f 325//1 320//1 324//1
f 326//1 320//1 325//1
f 327//1 328//1 326//1
f 328//1 320//1 326//1
f 329//1 330//1 327//1
f 330//1 328//1 327//1
f 331//1 332//1 329//1
f 332//1 330//1 329//1
f 333//1 334//1 331//1
f 334//1 332//1 331//1
f 335//1 334//1 333//1
f 336//1 337//1 335//1
f 337//1 334//1 335//1
f 338//1 339//1 336//1
f 339//1 340//1 336//1
f 340//1 341//1 336//1
f 341//1 342//1 336//1
f 342//1 337//1 336//1
f 343//1 320//1 328//1
f 344//1 320//1 343//1
f 345//1 320//1 344//1
f 346//1 320//1 345//1
f 347//1 320//1 346//1
f 348//1 320//1 347//1
f 348//1 349//1 320//1
f 350//1 349//1 348//1
f 350//1 351//1 349//1
f 352//1 351//1 350//1
f 352//1 353//1 351//1
f 354//1 353//1 352//1
f 354//1 355//1 353//1
f 356//1 355//1 354//1
f 356//1 357//1 355//1
f 358//1 357//1 356//1
f 358//1 359//1 357//1
f 360//1 359//1 358//1
f 360//1 361//1 359//1
f 362//1 361//1 360//1
f 362//1 363//1 361//1
f 364//1 363//1 362//1
f 364//1 365//1 363//1
f 366//1 365//1 364//1
f 366//1 367//1 365//1
f 368//1 367//1 366//1
f 368//1 369//1 367//1
f 370//1 369//1 368//1
f 370//1 371//1 369//1
f 372//1 371//1 370//1
f 372//1 373//1 371//1
f 374//4 375//4 376//202
f 377//4 374//4 376//202
f 378//203 377//4 376//202
f 379//4 378//203 376//202
f 380//204 379//4 376//202
f 381//4 380//204 376//202
f 382//4 381//4 383//205
f 383//205 381//4 376//202
f 384//203 382//4 385//4
f 385//4 382//4 383//205
f 386//203 384//203 387//4
f 387//4 384//203 385//4
f 388//6 386//203 389//206
f 389//206 386//203 387//4
f 390//207 388//6 389//206
f 391//4 390//207 392//4
f 392//4 390//207 389//206
f 393//7 391//4 394//6
f 394//6 391//4 395//7
f 395//7 391//4 396//208
f 396//208 391//4 397//209
f 397//209 391//4 392//4
f 398//210 383//205 376//202
f 399//211 398//210 376//202
f 400//4 399//211 376//202
f 401//4 400//4 376//202
f 402//4 401//4 376//202
f 403//4 402//4 376//202
f 403//4 376//202 404//4
f 405//4 403//4 404//4
f 405//4 404//4 406//16
f 407//4 405//4 406//16
f 407//4 406//16 408//4
f 409//4 407//4 408//4
f 409//4 408//4 410//13
f 411//4 409//4 410//13
f 411//4 410//13 412//7
f 413//12 411//4 412//7
f 413//12 412//7 414//15
f 415//4 413//12 414//15
f 415//4 414//15 416//4
f 417//7 415//4 416//4
f 417//7 416//4 418//4
f 419//4 417//7 418//4
f 419//4 418//4 420//4
f 421//12 419//4 420//4
f 421//12 420//4 422//212
f 423//213 421//12 422//212
f 423//213 422//212 424//16
f 425//7 423//213 424//16
f 425//7 424//16 426//4
f 427//7 425//7 426//4
f 427//7 426//4 428//4
f 355//214 357//214 412//214
f 412//214 410//214 355//214
f 371//215 373//215 428//215
f 428//215 426//215 371//215
f 323//216 322//216 377//216
f 377//216 378//216 323//216
f 335//217 333//217 388//217
f 388//217 390//217 335//217
f 370//218 368//218 423//218
f 423//218 425//218 370//218
f 354//219 352//219 407//219
f 407//219 409//219 354//219
f 334//220 337//220 392//220
f 392//220 389//220 334//220
f 343//221 328//221 383//221
f 383//221 398//221 343//221
f 321//215 320//222 376//215
f 376//215 375//215 321//215
f 361//223 363//223 418//223
f 418//223 416//223 361//223
f 341//224 340//224 395//224
f 395//224 396//224 341//224
f 329//225 327//225 382//225
f 382//225 384//225 329//225
f 360//226 358//226 413//226
f 413//226 415//226 360//226
f 346//227 345//227 400//227
f 400//227 401//228 346//227
f 351//229 353//229 408//229
f 408//229 406//229 351//229
f 367//230 369//230 424//230
f 424//230 422//230 367//230
f 325//231 324//231 379//231
f 379//231 380//231 325//231
f 338//228 336//228 391//228
f 391//228 393//228 338//228
f 366//232 364//232 419//232
f 419//232 421//232 366//232
f 350//233 348//233 403//233
f 403//233 405//233 350//233
f 330//234 332//234 387//234
f 387//234 385//234 330//234
f 349//235 351//235 406//235
f 406//235 404//235 349//235
f 373//157 372//157 427//157
f 427//157 428//157 373//157
f 365//236 367//236 422//236
f 422//236 420//236 365//236
f 339//237 338//237 393//237
f 393//237 394//237 339//237
f 326//238 325//238 380//238
f 380//238 381//238 326//238
f 364//239 362//239 417//239
f 417//239 419//239 364//239
f 348//240 347//228 402//240
f 402//240 403//240 348//240
f 332//241 334//241 389//241
f 389//241 387//241 332//241
f 320//222 349//222 404//222
f 404//222 376//215 320//222
f 363//242 365//242 420//242
f 420//242 418//242 363//242
f 340//243 339//243 394//243
f 394//243 395//243 340//243
f 327//244 326//244 381//244
f 381//244 382//244 327//244
f 362//245 360//245 415//245
f 415//245 417//245 362//245
f 347//228 346//227 401//228
f 401//228 402//240 347//228
f 353//246 355//246 410//246
f 410//246 408//246 353//246
f 369//247 371//247 426//247
f 426//247 424//247 369//247
f 324//248 323//248 378//248
f 378//248 379//248 324//248
f 336//249 335//249 390//249
f 390//249 391//249 336//249
f 368//250 366//250 421//250
f 421//250 423//250 368//250
f 352//251 350//251 405//251
f 405//251 407//251 352//251
f 328//252 330//252 385//253
f 385//253 383//253 328//252
f 319//254 321//254 375//254
f 375//254 374//254 319//254
f 359//255 361//255 416//255
f 416//255 414//255 359//255
f 331//256 329//256 384//256
f 384//256 386//256 331//256
f 342//257 341//257 396//257
f 396//257 397//257 342//257
f 358//258 356//258 411//258
f 411//258 413//258 358//258
f 345//259 344//259 399//259
f 399//259 400//259 345//259
f 357//260 359//260 414//260
f 414//260 412//260 357//260
f 322//261 319//261 374//261
f 374//261 377//261 322//261
f 333//262 331//262 386//262
f 386//262 388//262 333//262
f 372//228 370//228 425//228
f 425//228 427//228 372//228
f 356//263 354//263 409//263
f 409//263 411//263 356//263
f 337//264 342//264 397//264
f 397//264 392//264 337//264
f 344//265 343//265 398//265
f 398//265 399//265 344//265
