# Blender v3.1.2 OBJ File: ''
# www.blender.org
mtllib Octahedron.mtl
o Octahedron
v 0.497379 0.004128 0.004129
v 0.497379 -0.004129 0.004128
v 0.497379 -0.004128 -0.004129
v 0.497379 0.004129 -0.004128
v 0.498234 -0.000000 0.004984
v 0.500403 0.000000 0.000000
v 0.498234 -0.004984 -0.000000
v 0.498234 0.000000 -0.004984
v 0.498234 0.004984 0.000000
v -0.497379 -0.004128 0.004129
v -0.497379 0.004129 0.004128
v -0.497379 0.004128 -0.004129
v -0.497379 -0.004129 -0.004128
v -0.498234 0.000000 0.004984
v -0.500403 -0.000000 0.000000
v -0.498234 0.004984 -0.000000
v -0.498234 -0.000000 -0.004984
v -0.498234 -0.004984 0.000000
v 0.004128 0.497379 -0.004129
v -0.004129 0.497379 -0.004128
v -0.004128 0.497379 0.004129
v 0.004129 0.497379 0.004128
v -0.000000 0.498234 -0.004984
v -0.000000 0.500403 -0.000000
v -0.004984 0.498234 0.000000
v 0.000000 0.498234 0.004984
v 0.004984 0.498234 -0.000000
v -0.004128 -0.497379 -0.004129
v 0.004129 -0.497379 -0.004128
v 0.004128 -0.497379 0.004129
v -0.004129 -0.497379 0.004128
v 0.000000 -0.498234 -0.004984
v 0.000000 -0.500403 -0.000000
v 0.004984 -0.498234 0.000000
v -0.000000 -0.498234 0.004984
v -0.004984 -0.498234 -0.000000
v -0.004129 0.004128 0.497379
v -0.004128 -0.004129 0.497379
v 0.004129 -0.004128 0.497379
v 0.004128 0.004129 0.497379
v -0.004984 -0.000000 0.498234
v -0.000000 -0.000000 0.500403
v 0.000000 -0.004984 0.498234
v 0.004984 0.000000 0.498234
v -0.000000 0.004984 0.498234
v 0.004128 -0.004129 -0.497379
v -0.004129 -0.004128 -0.497379
v -0.004128 0.004129 -0.497379
v 0.004129 0.004128 -0.497379
v -0.000000 -0.004984 -0.498234
v -0.000000 -0.000000 -0.500403
v -0.004984 0.000000 -0.498234
v 0.000000 0.004984 -0.498234
v 0.004984 -0.000000 -0.498234
vn -0.5774 -0.5774 -0.5774
vn -0.5774 -0.5774 0.5774
vn 0.5774 0.5774 0.5774
vn 0.5774 -0.5774 -0.5774
vn -0.5774 0.5774 0.5774
vn -0.5774 0.5774 -0.5774
vn 0.5774 -0.5774 0.5774
vn 0.8880 0.3252 0.3252
vn 0.8880 -0.3252 0.3252
vn 0.8880 -0.3252 -0.3252
vn 0.8880 0.3252 -0.3252
vn -0.8880 -0.3252 0.3252
vn -0.8880 0.3252 0.3252
vn -0.8880 0.3252 -0.3252
vn -0.8880 -0.3252 -0.3252
vn 0.3252 0.8880 -0.3252
vn -0.3252 0.8880 -0.3252
vn -0.3252 0.8880 0.3252
vn 0.3252 0.8880 0.3252
vn -0.3252 -0.8880 -0.3252
vn 0.3252 -0.8880 -0.3252
vn 0.3252 -0.8880 0.3252
vn -0.3252 -0.8880 0.3252
vn -0.3252 0.3252 0.8880
vn -0.3252 -0.3252 0.8880
vn 0.3252 -0.3252 0.8880
vn 0.3252 0.3252 0.8880
vn 0.3252 -0.3252 -0.8880
vn -0.3252 -0.3252 -0.8880
vn -0.3252 0.3252 -0.8880
vn 0.3252 0.3252 -0.8880
vn 0.6786 0.6786 -0.2811
vn 0.6786 0.6786 0.2811
vn -0.6786 -0.6786 -0.2811
vn -0.6786 -0.6786 0.2811
vn -0.2811 0.6786 0.6786
vn 0.2811 0.6786 0.6786
vn 0.6786 -0.2811 -0.6786
vn 0.6786 0.2811 -0.6786
vn 0.2811 0.6786 -0.6786
vn -0.2811 0.6786 -0.6786
vn -0.6786 0.2811 -0.6786
vn -0.6786 -0.2811 -0.6786
vn 0.2811 -0.6786 0.6786
vn -0.2811 -0.6786 0.6786
vn 0.6786 -0.6786 0.2811
vn 0.6786 -0.6786 -0.2811
vn -0.2811 -0.6786 -0.6786
vn 0.2811 -0.6786 -0.6786
vn -0.6786 0.6786 0.2811
vn -0.6786 0.6786 -0.2811
vn 0.6786 0.2811 0.6786
vn 0.6786 -0.2811 0.6786
vn -0.6786 -0.2811 0.6786
vn -0.6786 0.2811 0.6786
vn 0.5774 0.5774 -0.5774
usemtl dtmo_base_mat
s off
f 47//1 28//1 13//1
f 38//2 10//2 31//2
f 40//3 1//3 22//3
f 46//4 3//4 29//4
f 37//5 21//5 11//5
f 48//6 12//6 20//6
f 39//7 30//7 2//7
f 1//8 5//8 6//8 9//8
f 2//9 7//9 6//9 5//9
f 3//10 8//10 6//10 7//10
f 4//11 9//11 6//11 8//11
f 10//12 14//12 15//12 18//12
f 11//13 16//13 15//13 14//13
f 12//14 17//14 15//14 16//14
f 13//15 18//15 15//15 17//15
f 19//16 23//16 24//16 27//16
f 20//17 25//17 24//17 23//17
f 21//18 26//18 24//18 25//18
f 22//19 27//19 24//19 26//19
f 28//20 32//20 33//20 36//20
f 29//21 34//21 33//21 32//21
f 30//22 35//22 33//22 34//22
f 31//23 36//23 33//23 35//23
f 37//24 41//24 42//24 45//24
f 38//25 43//25 42//25 41//25
f 39//26 44//26 42//26 43//26
f 40//27 45//27 42//27 44//27
f 46//28 50//28 51//28 54//28
f 47//29 52//29 51//29 50//29
f 48//30 53//30 51//30 52//30
f 49//31 54//31 51//31 53//31
f 4//32 19//32 27//32 9//32
f 9//33 27//33 22//33 1//33
f 13//34 28//34 36//34 18//34
f 18//35 36//35 31//35 10//35
f 21//36 37//36 45//36 26//36
f 26//37 45//37 40//37 22//37
f 3//38 46//38 54//38 8//38
f 8//39 54//39 49//39 4//39
f 19//40 49//40 53//40 23//40
f 23//41 53//41 48//41 20//41
f 12//42 48//42 52//42 17//42
f 17//43 52//43 47//43 13//43
f 30//44 39//44 43//44 35//44
f 35//45 43//45 38//45 31//45
f 2//46 30//46 34//46 7//46
f 7//47 34//47 29//47 3//47
f 28//48 47//48 50//48 32//48
f 32//49 50//49 46//49 29//49
f 11//50 21//50 25//50 16//50
f 16//51 25//51 20//51 12//51
f 1//52 40//52 44//52 5//52
f 5//53 44//53 39//53 2//53
f 10//54 38//54 41//54 14//54
f 14//55 41//55 37//55 11//55
f 49//56 19//56 4//56
