# Blender v2.90.0 OBJ File: ''
# www.blender.org
mtllib Pedal.mtl
o Pedal
v 1.025921 -0.423716 0.040393
v 1.025921 -0.403418 0.040393
v 1.029178 -0.403418 0.040185
v 1.029178 -0.423716 0.040185
v 1.057627 -0.423716 0.040394
v 1.054363 -0.423716 0.040185
v 1.054363 -0.403418 0.040185
v 1.057627 -0.403418 0.040394
v 1.058100 -0.423716 0.057213
v 1.058760 -0.423716 0.041649
v 1.058760 -0.403418 0.041649
v 1.058100 -0.403418 0.057169
v 1.031856 -0.540905 0.048215
v 1.069950 -0.540905 0.048215
v 1.071023 -0.525363 0.048215
v 1.030783 -0.525363 0.048215
v 1.056220 -0.423716 0.060194
v 1.056093 -0.403418 0.059878
v 1.053585 -0.403418 0.061099
v 1.053585 -0.423716 0.061940
v 1.074673 -0.541010 0.047194
v 1.076164 -0.525390 0.047177
v 1.025439 -0.478933 0.048881
v 1.030362 -0.478935 0.049965
v 1.030026 -0.444340 0.059154
v 1.027104 -0.444346 0.057934
v 1.068963 -0.478935 0.049965
v 1.056272 -0.444340 0.059154
v 1.027316 -0.423716 0.060190
v 1.029955 -0.423716 0.061941
v 1.029955 -0.403418 0.061099
v 1.027443 -0.403418 0.059876
v 1.072053 -0.546548 0.047147
v 1.067984 -0.545353 0.048036
v 1.064640 -0.547703 0.047942
v 1.067811 -0.549474 0.047122
v 1.030372 -0.480005 0.049806
v 1.069179 -0.480005 0.049806
v 1.025439 -0.403418 0.057162
v 1.025440 -0.423716 0.057204
v 1.027837 -0.547203 0.044883
v 1.032464 -0.550406 0.044882
v 1.033965 -0.549474 0.047122
v 1.029728 -0.546548 0.047147
v 1.069278 -0.550406 0.044883
v 1.073906 -0.547203 0.044883
v 1.024780 -0.423716 0.041650
v 1.024494 -0.441797 0.041065
v 1.025149 -0.441797 0.055732
v 1.060517 -0.441801 0.055739
v 1.061163 -0.441801 0.041066
v 1.076783 -0.541142 0.044883
v 1.078322 -0.525422 0.044887
v 1.027103 -0.541010 0.047194
v 1.025612 -0.525390 0.047177
v 1.023420 -0.525422 0.044888
v 1.024959 -0.541142 0.044884
v 1.075428 -0.478936 0.036099
v 1.060736 -0.444340 0.039645
v 1.061867 -0.444340 0.040895
v 1.076545 -0.478936 0.037328
v 1.023790 -0.478933 0.036100
v 1.025548 -0.444347 0.039644
v 1.029250 -0.444344 0.039430
v 1.029591 -0.478934 0.035864
v 1.024780 -0.403418 0.041649
v 1.076038 -0.541324 0.035418
v 1.070500 -0.541155 0.035184
v 1.071676 -0.525426 0.035184
v 1.077678 -0.525468 0.035422
v 1.069497 -0.550740 0.036648
v 1.074208 -0.547487 0.036648
v 1.077165 -0.541333 0.036648
v 1.078797 -0.525470 0.036647
v 1.022886 -0.525470 0.036647
v 1.024517 -0.541333 0.036647
v 1.073213 -0.547203 0.035426
v 1.068706 -0.550310 0.035431
v 1.064959 -0.548131 0.035258
v 1.068422 -0.545719 0.035233
v 1.076011 -0.478935 0.046556
v 1.061227 -0.444341 0.055316
v 1.025062 -0.444347 0.055307
v 1.023259 -0.478933 0.046557
v 1.024410 -0.444347 0.040893
v 1.022672 -0.478933 0.037327
v 1.024002 -0.525468 0.035422
v 1.025644 -0.541324 0.035419
v 1.032186 -0.550740 0.036648
v 1.032976 -0.550310 0.035431
v 1.069662 -0.478935 0.035864
v 1.057035 -0.444340 0.039430
v 1.055663 -0.441802 0.059650
v 1.058488 -0.441800 0.058396
v 1.031224 -0.541155 0.035184
v 1.030048 -0.525426 0.035184
v 1.033291 -0.545719 0.035233
v 1.036752 -0.548131 0.035258
v 1.033823 -0.545353 0.048036
v 1.037158 -0.547703 0.047942
v 1.028464 -0.547203 0.035426
v 1.027470 -0.547487 0.036648
v 1.076793 -0.480004 0.037267
v 1.075676 -0.480004 0.036038
v 1.029601 -0.480005 0.035802
v 1.069876 -0.480005 0.035802
v 1.076262 -0.480005 0.046404
v 1.023766 -0.480005 0.036038
v 1.023234 -0.480005 0.046405
v 1.022648 -0.480005 0.037265
v 1.074109 -0.480005 0.048724
v 1.027175 -0.441798 0.058393
v 1.025416 -0.480005 0.048724
v 1.056429 -0.441801 0.039601
v 1.029233 -0.441799 0.039601
v 1.060032 -0.441801 0.039815
v 1.025633 -0.441797 0.039815
v 1.059184 -0.444343 0.057938
v 1.073860 -0.478934 0.048881
v 1.030010 -0.441802 0.059650
vn -0.4336 0.0190 -0.9009
vn -0.4337 -0.0000 -0.9011
vn -0.0319 0.0000 -0.9995
vn -0.0319 0.0161 -0.9994
vn 0.4220 0.0420 -0.9056
vn 0.0308 0.0178 -0.9994
vn 0.0320 0.0000 -0.9995
vn 0.4351 0.0000 -0.9004
vn 0.9495 0.0541 0.3090
vn 0.9380 0.0686 -0.3399
vn 0.9407 0.0000 -0.3391
vn 0.9429 0.0007 0.3332
vn -0.1157 -0.0517 0.9919
vn 0.1164 -0.0518 0.9919
vn 0.1031 -0.0197 0.9945
vn -0.1015 -0.0247 0.9945
vn 0.7002 0.0154 0.7138
vn 0.6427 0.0100 0.7661
vn 0.2321 0.0308 0.9722
vn 0.2750 -0.0257 0.9611
vn 0.5065 -0.1456 0.8499
vn 0.4941 -0.0274 0.8690
vn -0.4983 -0.1573 0.8526
vn -0.1060 -0.2007 0.9739
vn -0.1879 -0.2158 0.9582
vn -0.5998 -0.1538 0.7852
vn 0.1129 -0.1691 0.9791
vn 0.1895 -0.1605 0.9687
vn -0.7051 -0.0301 0.7084
vn -0.2846 -0.0404 0.9578
vn -0.2322 0.0307 0.9722
vn -0.6401 0.0159 0.7682
vn 0.4180 -0.3833 0.8236
vn 0.0953 -0.1273 0.9873
vn 0.0255 -0.2339 0.9719
vn 0.1638 -0.6452 0.7463
vn -0.1072 -0.0920 0.9900
vn 0.1138 -0.0783 0.9904
vn -0.9445 0.0067 0.3285
vn -0.9518 -0.0087 0.3067
vn -0.7201 -0.5987 0.3509
vn -0.3107 -0.9057 0.2883
vn -0.1651 -0.6444 0.7467
vn -0.4187 -0.3832 0.8233
vn 0.3119 -0.9062 0.2857
vn 0.7228 -0.5985 0.3455
vn -0.9412 0.0129 -0.3375
vn -0.9409 0.0400 -0.3364
vn -0.9373 -0.0197 0.3480
vn 0.9270 0.1413 0.3476
vn 0.9196 0.2082 -0.3331
vn 0.8981 -0.2379 0.3699
vn 0.9207 -0.0303 0.3890
vn -0.5029 -0.1429 0.8524
vn -0.4913 -0.0388 0.8701
vn -0.9166 -0.0560 0.3959
vn -0.8919 -0.2442 0.3807
vn 0.4210 0.2093 -0.8826
vn 0.4043 0.2152 -0.8889
vn 0.8826 0.3410 -0.3236
vn 0.8962 0.3100 -0.3174
vn -0.4219 0.0869 -0.9025
vn -0.4283 0.0946 -0.8987
vn -0.0287 0.0850 -0.9960
vn -0.0203 0.0800 -0.9966
vn -0.9402 -0.0000 -0.3406
vn 0.4419 -0.1363 -0.8867
vn 0.0234 -0.0093 -0.9997
vn 0.0208 0.0058 -0.9998
vn 0.4354 -0.0077 -0.9002
vn 0.3213 -0.9208 -0.2211
vn 0.7390 -0.6108 -0.2844
vn 0.9140 -0.2506 -0.3191
vn 0.9435 -0.0264 -0.3302
vn -0.9434 -0.0489 -0.3281
vn -0.9153 -0.2515 -0.3147
vn 0.3735 -0.3572 -0.8561
vn 0.1316 -0.5996 -0.7894
vn 0.0064 -0.0444 -0.9990
vn 0.0199 -0.0271 -0.9994
vn 0.9005 0.2268 0.3710
vn 0.9042 0.2436 0.3508
vn -0.9351 -0.0391 0.3522
vn -0.9220 -0.0369 0.3854
vn -0.9400 0.0655 -0.3347
vn -0.9407 0.0610 -0.3337
vn -0.4309 -0.0185 -0.9022
vn -0.4471 -0.1359 -0.8841
vn -0.3208 -0.9210 -0.2209
vn -0.1324 -0.6000 -0.7890
vn 0.0212 0.0866 -0.9960
vn 0.0274 0.0932 -0.9953
vn 0.2034 -0.1147 0.9723
vn 0.6068 0.0030 0.7949
vn -0.0234 -0.0083 -0.9997
vn -0.0173 0.0058 -0.9998
vn -0.0155 -0.0269 -0.9995
vn -0.0067 -0.0431 -0.9990
vn -0.0947 -0.1267 0.9874
vn -0.0253 -0.2339 0.9719
vn -0.3732 -0.3547 -0.8573
vn -0.7383 -0.6119 -0.2836
vn 0.9348 0.1356 -0.3282
vn 0.4363 0.0920 -0.8951
vn -0.0201 0.0355 -0.9992
vn 0.0213 0.0383 -0.9990
vn 0.9218 0.0960 0.3755
vn -0.4225 0.0357 -0.9056
vn -0.9229 -0.0245 0.3842
vn -0.9421 0.0185 -0.3349
vn 0.5139 -0.0050 0.8579
vn -0.6151 -0.0931 0.7829
vn -0.5000 -0.0746 0.8628
vn 0.0275 0.0555 -0.9981
vn -0.0298 0.0508 -0.9983
vn 0.4146 0.1289 -0.9009
vn -0.4305 0.0552 -0.9009
vn 0.5983 0.0267 0.8008
vn 0.5169 -0.0010 0.8560
vn -0.2064 -0.1462 0.9675
usemtl Pedal
s 1
f 1//1 2//2 3//3
f 3//3 4//4 1//1
f 5//5 6//6 7//7
f 7//7 8//8 5//5
f 9//9 10//10 11//11
f 11//11 12//12 9//9
f 13//13 14//14 15//15
f 15//15 16//16 13//13
f 17//17 18//18 19//19
f 19//19 20//20 17//17
f 21//21 22//22 15//15
f 15//15 14//14 21//21
f 23//23 24//24 25//25
f 25//25 26//26 23//23
f 24//24 27//27 28//28
f 28//28 25//25 24//24
f 29//29 30//30 31//31
f 31//31 32//32 29//29
f 33//33 34//34 35//35
f 35//35 36//36 33//33
f 37//37 16//16 15//15
f 15//15 38//38 37//37
f 29//29 32//32 39//39
f 39//39 40//40 29//29
f 41//41 42//42 43//43
f 43//43 44//44 41//41
f 9//9 12//12 18//18
f 18//18 17//17 9//9
f 33//33 36//36 45//45
f 45//45 46//46 33//33
f 40//40 47//47 48//48
f 48//48 49//49 40//40
f 9//9 50//50 51//51
f 51//51 10//10 9//9
f 52//52 53//53 22//22
f 22//22 21//21 52//52
f 54//54 55//55 56//56
f 56//56 57//57 54//54
f 58//58 59//59 60//60
f 60//60 61//61 58//58
f 62//62 63//63 64//64
f 64//64 65//65 62//62
f 40//40 39//39 66//66
f 66//66 47//47 40//40
f 67//67 68//68 69//69
f 69//69 70//70 67//67
f 46//46 45//45 71//71
f 71//71 72//72 46//46
f 52//52 73//73 74//74
f 74//74 53//53 52//52
f 57//57 56//56 75//75
f 75//75 76//76 57//57
f 77//77 78//78 79//79
f 79//79 80//80 77//77
f 81//81 61//61 60//60
f 60//60 82//82 81//81
f 23//23 26//26 83//83
f 83//83 84//84 23//23
f 84//84 83//83 85//85
f 85//85 86//86 84//84
f 86//86 85//85 63//63
f 63//63 62//62 86//86
f 5//5 8//8 11//11
f 11//11 10//10 5//5
f 47//47 66//66 2//2
f 2//2 1//1 47//47
f 72//72 71//71 78//78
f 78//78 77//77 72//72
f 76//76 75//75 87//87
f 87//87 88//88 76//76
f 71//71 89//89 90//90
f 90//90 78//78 71//71
f 67//67 70//70 74//74
f 74//74 73//73 67//67
f 58//58 91//91 92//92
f 92//92 59//59 58//58
f 17//17 20//20 93//93
f 93//93 94//94 17//17
f 30//30 20//20 19//19
f 19//19 31//31 30//30
f 4//4 3//3 7//7
f 7//7 6//6 4//4
f 65//65 64//64 92//92
f 92//92 91//91 65//65
f 95//95 96//96 69//69
f 69//69 68//68 95//95
f 97//97 80//80 79//79
f 79//79 98//98 97//97
f 99//99 100//100 35//35
f 35//35 34//34 99//99
f 43//43 36//36 35//35
f 35//35 100//100 43//43
f 54//54 13//13 16//16
f 16//16 55//55 54//54
f 44//44 43//43 100//100
f 100//100 99//99 44//44
f 90//90 98//98 79//79
f 79//79 78//78 90//90
f 42//42 45//45 36//36
f 36//36 43//43 42//42
f 96//96 95//95 88//88
f 88//88 87//87 96//96
f 42//42 89//89 71//71
f 71//71 45//45 42//42
f 101//101 97//97 98//98
f 98//98 90//90 101//101
f 41//41 102//102 89//89
f 89//89 42//42 41//41
f 101//101 90//90 89//89
f 89//89 102//102 101//101
f 103//103 74//74 70//70
f 70//70 104//104 103//103
f 105//105 106//106 69//69
f 69//69 96//96 105//105
f 107//107 53//53 74//74
f 74//74 103//103 107//107
f 108//108 105//105 96//96
f 96//96 87//87 108//108
f 109//109 110//110 75//75
f 75//75 56//56 109//109
f 111//111 22//22 53//53
f 53//53 107//107 111//111
f 40//40 49//49 112//112
f 112//112 29//29 40//40
f 109//109 56//56 55//55
f 55//55 113//113 109//109
f 4//4 6//6 114//114
f 114//114 115//115 4//4
f 17//17 94//94 50//50
f 50//50 9//9 17//17
f 10//10 51//51 116//116
f 116//116 5//5 10//10
f 75//75 110//110 108//108
f 108//108 87//87 75//75
f 48//48 47//47 1//1
f 1//1 117//117 48//48
f 113//113 55//55 16//16
f 16//16 37//37 113//113
f 81//81 82//82 118//118
f 118//118 119//119 81//81
f 111//111 38//38 15//15
f 15//15 22//22 111//111
f 29//29 112//112 120//120
f 120//120 30//30 29//29
f 5//5 116//116 114//114
f 114//114 6//6 5//5
f 104//104 70//70 69//69
f 69//69 106//106 104//104
f 1//1 4//4 115//115
f 115//115 117//117 1//1
f 23//23 84//84 109//109
f 109//109 113//113 23//23
f 38//38 111//111 119//119
f 119//119 27//27 38//38
f 108//108 110//110 86//86
f 86//86 62//62 108//108
f 91//91 58//58 104//104
f 104//104 106//106 91//91
f 107//107 103//103 61//61
f 61//61 81//81 107//107
f 65//65 91//91 106//106
f 106//106 105//105 65//65
f 37//37 38//38 27//27
f 27//27 24//24 37//37
f 111//111 107//107 81//81
f 81//81 119//119 111//111
f 113//113 37//37 24//24
f 24//24 23//23 113//113
f 58//58 61//61 103//103
f 103//103 104//104 58//58
f 105//105 108//108 62//62
f 62//62 65//65 105//105
f 110//110 109//109 84//84
f 84//84 86//86 110//110
f 119//119 118//118 28//28
f 28//28 27//27 119//119
f 83//83 26//26 112//112
f 112//112 49//49 83//83
f 118//118 82//82 50//50
f 50//50 94//94 118//118
f 26//26 25//25 120//120
f 120//120 112//112 26//26
f 28//28 118//118 94//94
f 94//94 93//93 28//28
f 60//60 59//59 116//116
f 116//116 51//51 60//60
f 63//63 85//85 48//48
f 48//48 117//117 63//63
f 59//59 92//92 114//114
f 114//114 116//116 59//59
f 82//82 60//60 51//51
f 51//51 50//50 82//82
f 85//85 83//83 49//49
f 49//49 48//48 85//85
f 64//64 63//63 117//117
f 117//117 115//115 64//64
f 25//25 28//28 93//93
f 93//93 120//120 25//25
f 92//92 64//64 115//115
f 115//115 114//114 92//92
f 30//30 120//120 93//93
f 93//93 20//20 30//30
f 88//88 101//101 102//102
f 102//102 76//76 88//88
f 57//57 76//76 102//102
f 102//102 41//41 57//57
f 88//88 95//95 97//97
f 97//97 101//101 88//88
f 54//54 44//44 99//99
f 99//99 13//13 54//54
f 13//13 99//99 34//34
f 34//34 14//14 13//13
f 95//95 68//68 80//80
f 80//80 97//97 95//95
f 73//73 72//72 77//77
f 77//77 67//67 73//73
f 67//67 77//77 80//80
f 80//80 68//68 67//67
f 52//52 46//46 72//72
f 72//72 73//73 52//52
f 21//21 33//33 46//46
f 46//46 52//52 21//21
f 57//57 41//41 44//44
f 44//44 54//54 57//57
f 21//21 14//14 34//34
f 34//34 33//33 21//21
