# Blender v2.90.0 OBJ File: ''
# www.blender.org
mtllib Pluscube.mtl
o Pluscube
v 0.167285 0.172634 0.161936
v 0.161936 0.172634 0.167285
v 0.161936 0.167285 0.172634
v 0.167285 0.161936 0.172634
v 0.172634 0.161936 0.167285
v 0.172634 0.167285 0.161936
v 0.166491 0.172634 0.164561
v 0.168078 0.170008 0.161936
v 0.167285 0.169466 0.165104
v 0.161936 0.170008 0.168078
v 0.164561 0.172634 0.166491
v 0.165104 0.169466 0.167285
v 0.164561 0.166491 0.172634
v 0.161936 0.168078 0.170008
v 0.165104 0.167285 0.169466
v 0.168078 0.161936 0.170008
v 0.166491 0.164561 0.172634
v 0.167285 0.165104 0.169466
v 0.172634 0.164561 0.166491
v 0.170008 0.161936 0.168078
v 0.169466 0.165104 0.167285
v 0.170008 0.168078 0.161936
v 0.172634 0.166491 0.164561
v 0.169466 0.167285 0.165104
v 0.161936 0.172634 -0.167285
v 0.167285 0.172634 -0.161936
v 0.172634 0.167285 -0.161936
v 0.172634 0.161936 -0.167285
v 0.167285 0.161936 -0.172634
v 0.161936 0.167285 -0.172634
v 0.164561 0.172634 -0.166491
v 0.161936 0.170008 -0.168078
v 0.165104 0.169466 -0.167285
v 0.168078 0.170008 -0.161936
v 0.166491 0.172634 -0.164561
v 0.167285 0.169466 -0.165104
v 0.172634 0.166491 -0.164561
v 0.170008 0.168078 -0.161936
v 0.169466 0.167285 -0.165104
v 0.170008 0.161936 -0.168078
v 0.172634 0.164561 -0.166491
v 0.169466 0.165104 -0.167285
v 0.166491 0.164561 -0.172634
v 0.168078 0.161936 -0.170008
v 0.167285 0.165104 -0.169466
v 0.161936 0.168078 -0.170008
v 0.164561 0.166491 -0.172634
v 0.165104 0.167285 -0.169466
v 0.167285 -0.172634 0.161936
v 0.172634 -0.167285 0.161936
v 0.172634 -0.161936 0.167285
v 0.167285 -0.161936 0.172634
v 0.161936 -0.167285 0.172634
v 0.161936 -0.172634 0.167285
v 0.168078 -0.170008 0.161936
v 0.166491 -0.172634 0.164561
v 0.167285 -0.169466 0.165104
v 0.172634 -0.166491 0.164561
v 0.170008 -0.168078 0.161936
v 0.169466 -0.167285 0.165104
v 0.170008 -0.161936 0.168078
v 0.172634 -0.164561 0.166491
v 0.169466 -0.165104 0.167285
v 0.166491 -0.164561 0.172634
v 0.168078 -0.161936 0.170008
v 0.167285 -0.165104 0.169466
v 0.161936 -0.168078 0.170008
v 0.164561 -0.166491 0.172634
v 0.165104 -0.167285 0.169466
v 0.164561 -0.172634 0.166491
v 0.161936 -0.170008 0.168078
v 0.165104 -0.169466 0.167285
v 0.167285 -0.172634 -0.161936
v 0.161936 -0.172634 -0.167285
v 0.161936 -0.167285 -0.172634
v 0.167285 -0.161936 -0.172634
v 0.172634 -0.161936 -0.167285
v 0.172634 -0.167285 -0.161936
v 0.166491 -0.172634 -0.164561
v 0.168078 -0.170008 -0.161936
v 0.167285 -0.169466 -0.165104
v 0.161936 -0.170008 -0.168078
v 0.164561 -0.172634 -0.166491
v 0.165104 -0.169466 -0.167285
v 0.164561 -0.166491 -0.172634
v 0.161936 -0.168078 -0.170008
v 0.165104 -0.167285 -0.169466
v 0.168078 -0.161936 -0.170008
v 0.166491 -0.164561 -0.172634
v 0.167285 -0.165104 -0.169466
v 0.172634 -0.164561 -0.166491
v 0.170008 -0.161936 -0.168078
v 0.169466 -0.165104 -0.167285
v 0.170008 -0.168078 -0.161936
v 0.172634 -0.166491 -0.164561
v 0.169466 -0.167285 -0.165104
v -0.172634 0.167285 0.161936
v -0.172634 0.161936 0.167285
v -0.167285 0.161936 0.172634
v -0.161936 0.167285 0.172634
v -0.161936 0.172634 0.167285
v -0.167285 0.172634 0.161936
v -0.172634 0.166491 0.164561
v -0.170008 0.168078 0.161936
v -0.169466 0.167285 0.165104
v -0.170008 0.161936 0.168078
v -0.172634 0.164561 0.166491
v -0.169466 0.165104 0.167285
v -0.166491 0.164561 0.172634
v -0.168078 0.161936 0.170008
v -0.167285 0.165104 0.169466
v -0.161936 0.168078 0.170008
v -0.164561 0.166491 0.172634
v -0.165104 0.167285 0.169466
v -0.164561 0.172634 0.166491
v -0.161936 0.170008 0.168078
v -0.165104 0.169466 0.167285
v -0.168078 0.170008 0.161936
v -0.166491 0.172634 0.164561
v -0.167285 0.169466 0.165104
v -0.172634 0.161936 -0.167285
v -0.172634 0.167285 -0.161936
v -0.167285 0.172634 -0.161936
v -0.161936 0.172634 -0.167285
v -0.161936 0.167285 -0.172634
v -0.167285 0.161936 -0.172634
v -0.172634 0.164561 -0.166491
v -0.170008 0.161936 -0.168078
v -0.169466 0.165104 -0.167285
v -0.170008 0.168078 -0.161936
v -0.172634 0.166491 -0.164561
v -0.169466 0.167285 -0.165104
v -0.166491 0.172634 -0.164561
v -0.168078 0.170008 -0.161936
v -0.167285 0.169466 -0.165104
v -0.161936 0.170008 -0.168078
v -0.164561 0.172634 -0.166491
v -0.165104 0.169466 -0.167285
v -0.164561 0.166491 -0.172634
v -0.161936 0.168078 -0.170008
v -0.165104 0.167285 -0.169466
v -0.168078 0.161936 -0.170008
v -0.166491 0.164561 -0.172634
v -0.167285 0.165104 -0.169466
v -0.172634 -0.167285 0.161936
v -0.167285 -0.172634 0.161936
v -0.161936 -0.172634 0.167285
v -0.161936 -0.167285 0.172634
v -0.167285 -0.161936 0.172634
v -0.172634 -0.161936 0.167285
v -0.170008 -0.168078 0.161936
v -0.172634 -0.166491 0.164561
v -0.169466 -0.167285 0.165104
v -0.166491 -0.172634 0.164561
v -0.168078 -0.170008 0.161936
v -0.167285 -0.169466 0.165104
v -0.161936 -0.170008 0.168078
v -0.164561 -0.172634 0.166491
v -0.165104 -0.169466 0.167285
v -0.164561 -0.166491 0.172634
v -0.161936 -0.168078 0.170008
v -0.165104 -0.167285 0.169466
v -0.168078 -0.161936 0.170008
v -0.166491 -0.164561 0.172634
v -0.167285 -0.165104 0.169466
v -0.172634 -0.164561 0.166491
v -0.170008 -0.161936 0.168078
v -0.169466 -0.165104 0.167285
v -0.172634 -0.161936 -0.167285
v -0.167285 -0.161936 -0.172634
v -0.161936 -0.167285 -0.172634
v -0.161936 -0.172634 -0.167285
v -0.167285 -0.172634 -0.161936
v -0.172634 -0.167285 -0.161936
v -0.170008 -0.161936 -0.168078
v -0.172634 -0.164561 -0.166491
v -0.169466 -0.165104 -0.167285
v -0.166491 -0.164561 -0.172634
v -0.168078 -0.161936 -0.170008
v -0.167285 -0.165104 -0.169466
v -0.161936 -0.168078 -0.170008
v -0.164561 -0.166491 -0.172634
v -0.165104 -0.167285 -0.169466
v -0.164561 -0.172634 -0.166491
v -0.161936 -0.170008 -0.168078
v -0.165104 -0.169466 -0.167285
v -0.168078 -0.170008 -0.161936
v -0.166491 -0.172634 -0.164561
v -0.167285 -0.169466 -0.165104
v -0.172634 -0.166491 -0.164561
v -0.170008 -0.168078 -0.161936
v -0.169466 -0.167285 -0.165104
v 0.161936 -0.167285 0.496505
v 0.167285 -0.161936 0.496505
v 0.161936 -0.161936 0.501854
v 0.164607 -0.166570 0.496505
v 0.161936 -0.166570 0.499176
v 0.164494 -0.165876 0.499063
v 0.166570 -0.161936 0.499176
v 0.166570 -0.164607 0.496505
v 0.165876 -0.164494 0.499063
v 0.161936 -0.164607 0.501139
v 0.164607 -0.161936 0.501139
v 0.164494 -0.164494 0.500445
v -0.161936 -0.167285 0.496505
v -0.161936 -0.161936 0.501854
v -0.167285 -0.161936 0.496505
v -0.161936 -0.166570 0.499176
v -0.164607 -0.166570 0.496505
v -0.164494 -0.165876 0.499063
v -0.164607 -0.161936 0.501139
v -0.161936 -0.164607 0.501139
v -0.164494 -0.164494 0.500445
v -0.166570 -0.164607 0.496505
v -0.166570 -0.161936 0.499176
v -0.165876 -0.164494 0.499063
v 0.167285 0.161936 0.496505
v 0.161936 0.167285 0.496505
v 0.161936 0.161936 0.501854
v 0.166570 0.164607 0.496505
v 0.166570 0.161936 0.499176
v 0.165876 0.164494 0.499063
v 0.161936 0.166570 0.499176
v 0.164607 0.166570 0.496505
v 0.164494 0.165876 0.499063
v 0.164607 0.161936 0.501139
v 0.161936 0.164607 0.501139
v 0.164494 0.164494 0.500445
v -0.167285 0.161936 0.496505
v -0.161936 0.161936 0.501854
v -0.161936 0.167285 0.496505
v -0.166570 0.161936 0.499176
v -0.166570 0.164607 0.496505
v -0.165876 0.164494 0.499063
v -0.161936 0.164607 0.501139
v -0.164607 0.161936 0.501139
v -0.164494 0.164494 0.500445
v -0.164607 0.166570 0.496505
v -0.161936 0.166570 0.499176
v -0.164494 0.165876 0.499063
v -0.167285 0.161936 -0.496505
v -0.161936 0.167285 -0.496505
v -0.161936 0.161936 -0.501854
v -0.166570 0.164607 -0.496505
v -0.166570 0.161936 -0.499176
v -0.165876 0.164494 -0.499063
v -0.161936 0.166570 -0.499176
v -0.164607 0.166570 -0.496505
v -0.164494 0.165876 -0.499063
v -0.164607 0.161936 -0.501139
v -0.161936 0.164607 -0.501139
v -0.164494 0.164494 -0.500445
v -0.167285 -0.161936 -0.496505
v -0.161936 -0.161936 -0.501854
v -0.161936 -0.167285 -0.496505
v -0.166570 -0.161936 -0.499176
v -0.166570 -0.164607 -0.496505
v -0.165876 -0.164494 -0.499063
v -0.161936 -0.164607 -0.501139
v -0.164607 -0.161936 -0.501139
v -0.164494 -0.164494 -0.500445
v -0.164607 -0.166570 -0.496505
v -0.161936 -0.166570 -0.499176
v -0.164494 -0.165876 -0.499063
v 0.161936 0.167285 -0.496505
v 0.167285 0.161936 -0.496505
v 0.161936 0.161936 -0.501854
v 0.164607 0.166570 -0.496505
v 0.161936 0.166570 -0.499176
v 0.164494 0.165876 -0.499063
v 0.166570 0.161936 -0.499176
v 0.166570 0.164607 -0.496505
v 0.165876 0.164494 -0.499063
v 0.161936 0.164607 -0.501139
v 0.164607 0.161936 -0.501139
v 0.164494 0.164494 -0.500445
v 0.161936 -0.167285 -0.496505
v 0.161936 -0.161936 -0.501854
v 0.167285 -0.161936 -0.496505
v 0.161936 -0.166570 -0.499176
v 0.164607 -0.166570 -0.496505
v 0.164494 -0.165876 -0.499063
v 0.164607 -0.161936 -0.501139
v 0.161936 -0.164607 -0.501139
v 0.164494 -0.164494 -0.500445
v 0.166570 -0.164607 -0.496505
v 0.166570 -0.161936 -0.499176
v 0.165876 -0.164494 -0.499063
v 0.496505 0.167285 0.161936
v 0.496505 0.161936 0.167285
v 0.501854 0.161936 0.161936
v 0.496505 0.166570 0.164607
v 0.499176 0.166570 0.161936
v 0.499063 0.165876 0.164494
v 0.499176 0.161936 0.166570
v 0.496505 0.164607 0.166570
v 0.499063 0.164494 0.165876
v 0.501139 0.164607 0.161936
v 0.501139 0.161936 0.164607
v 0.500445 0.164494 0.164494
v 0.496505 0.167285 -0.161936
v 0.501854 0.161936 -0.161936
v 0.496505 0.161936 -0.167285
v 0.499176 0.166570 -0.161936
v 0.496505 0.166570 -0.164607
v 0.499063 0.165876 -0.164494
v 0.501139 0.161936 -0.164607
v 0.501139 0.164607 -0.161936
v 0.500445 0.164494 -0.164494
v 0.496505 0.164607 -0.166570
v 0.499176 0.161936 -0.166570
v 0.499063 0.164494 -0.165876
v 0.496505 -0.167285 0.161936
v 0.501854 -0.161936 0.161936
v 0.496505 -0.161936 0.167285
v 0.499176 -0.166570 0.161936
v 0.496505 -0.166570 0.164607
v 0.499063 -0.165876 0.164494
v 0.501139 -0.161936 0.164607
v 0.501139 -0.164607 0.161936
v 0.500445 -0.164494 0.164494
v 0.496505 -0.164607 0.166570
v 0.499176 -0.161936 0.166570
v 0.499063 -0.164494 0.165876
v 0.496505 -0.167285 -0.161936
v 0.496505 -0.161936 -0.167285
v 0.501854 -0.161936 -0.161936
v 0.496505 -0.166570 -0.164607
v 0.499176 -0.166570 -0.161936
v 0.499063 -0.165876 -0.164494
v 0.499176 -0.161936 -0.166570
v 0.496505 -0.164607 -0.166570
v 0.499063 -0.164494 -0.165876
v 0.501139 -0.164607 -0.161936
v 0.501139 -0.161936 -0.164607
v 0.500445 -0.164494 -0.164494
v -0.167285 -0.496505 -0.161936
v -0.161936 -0.496505 -0.167285
v -0.161936 -0.501854 -0.161936
v -0.166570 -0.496505 -0.164607
v -0.166570 -0.499176 -0.161936
v -0.165876 -0.499063 -0.164494
v -0.161936 -0.499176 -0.166570
v -0.164607 -0.496505 -0.166570
v -0.164494 -0.499063 -0.165876
v -0.164607 -0.501139 -0.161936
v -0.161936 -0.501139 -0.164607
v -0.164494 -0.500445 -0.164494
v -0.167285 -0.496505 0.161936
v -0.161936 -0.501854 0.161936
v -0.161936 -0.496505 0.167285
v -0.166570 -0.499176 0.161936
v -0.166570 -0.496505 0.164607
v -0.165876 -0.499063 0.164494
v -0.161936 -0.501139 0.164607
v -0.164607 -0.501139 0.161936
v -0.164494 -0.500445 0.164494
v -0.164607 -0.496505 0.166570
v -0.161936 -0.499176 0.166570
v -0.164494 -0.499063 0.165876
v 0.167285 -0.496505 0.161936
v 0.161936 -0.496505 0.167285
v 0.161936 -0.501854 0.161936
v 0.166570 -0.496505 0.164607
v 0.166570 -0.499176 0.161936
v 0.165876 -0.499063 0.164494
v 0.161936 -0.499176 0.166570
v 0.164607 -0.496505 0.166570
v 0.164494 -0.499063 0.165876
v 0.164607 -0.501139 0.161936
v 0.161936 -0.501139 0.164607
v 0.164494 -0.500445 0.164494
v 0.167285 -0.496505 -0.161936
v 0.161936 -0.501854 -0.161936
v 0.161936 -0.496505 -0.167285
v 0.166570 -0.499176 -0.161936
v 0.166570 -0.496505 -0.164607
v 0.165876 -0.499063 -0.164494
v 0.161936 -0.501139 -0.164607
v 0.164607 -0.501139 -0.161936
v 0.164494 -0.500445 -0.164494
v 0.164607 -0.496505 -0.166570
v 0.161936 -0.499176 -0.166570
v 0.164494 -0.499063 -0.165876
v 0.161936 0.496505 -0.167285
v 0.161936 0.501854 -0.161936
v 0.167285 0.496505 -0.161936
v 0.161936 0.499176 -0.166570
v 0.164607 0.496505 -0.166570
v 0.164494 0.499063 -0.165876
v 0.164607 0.501139 -0.161936
v 0.161936 0.501139 -0.164607
v 0.164494 0.500445 -0.164494
v 0.166570 0.496505 -0.164607
v 0.166570 0.499176 -0.161936
v 0.165876 0.499063 -0.164494
v -0.161936 0.496505 -0.167285
v -0.167285 0.496505 -0.161936
v -0.161936 0.501854 -0.161936
v -0.164607 0.496505 -0.166570
v -0.161936 0.499176 -0.166570
v -0.164494 0.499063 -0.165876
v -0.166570 0.499176 -0.161936
v -0.166570 0.496505 -0.164607
v -0.165876 0.499063 -0.164494
v -0.161936 0.501139 -0.164607
v -0.164607 0.501139 -0.161936
v -0.164494 0.500445 -0.164494
v 0.167285 0.496505 0.161936
v 0.161936 0.501854 0.161936
v 0.161936 0.496505 0.167285
v 0.166570 0.499176 0.161936
v 0.166570 0.496505 0.164607
v 0.165876 0.499063 0.164494
v 0.161936 0.501139 0.164607
v 0.164607 0.501139 0.161936
v 0.164494 0.500445 0.164494
v 0.164607 0.496505 0.166570
v 0.161936 0.499176 0.166570
v 0.164494 0.499063 0.165876
v -0.167285 0.496505 0.161936
v -0.161936 0.496505 0.167285
v -0.161936 0.501854 0.161936
v -0.166570 0.496505 0.164607
v -0.166570 0.499176 0.161936
v -0.165876 0.499063 0.164494
v -0.161936 0.499176 0.166570
v -0.164607 0.496505 0.166570
v -0.164494 0.499063 0.165876
v -0.164607 0.501139 0.161936
v -0.161936 0.501139 0.164607
v -0.164494 0.500445 0.164494
v -0.496505 0.161936 -0.167285
v -0.501854 0.161936 -0.161936
v -0.496505 0.167285 -0.161936
v -0.499176 0.161936 -0.166570
v -0.496505 0.164607 -0.166570
v -0.499063 0.164494 -0.165876
v -0.501139 0.164607 -0.161936
v -0.501139 0.161936 -0.164607
v -0.500445 0.164494 -0.164494
v -0.496505 0.166570 -0.164607
v -0.499176 0.166570 -0.161936
v -0.499063 0.165876 -0.164494
v -0.496505 -0.161936 -0.167285
v -0.496505 -0.167285 -0.161936
v -0.501854 -0.161936 -0.161936
v -0.496505 -0.164607 -0.166570
v -0.499176 -0.161936 -0.166570
v -0.499063 -0.164494 -0.165876
v -0.499176 -0.166570 -0.161936
v -0.496505 -0.166570 -0.164607
v -0.499063 -0.165876 -0.164494
v -0.501139 -0.161936 -0.164607
v -0.501139 -0.164607 -0.161936
v -0.500445 -0.164494 -0.164494
v -0.496505 -0.167285 0.161936
v -0.496505 -0.161936 0.167285
v -0.501854 -0.161936 0.161936
v -0.496505 -0.166570 0.164607
v -0.499176 -0.166570 0.161936
v -0.499063 -0.165876 0.164494
v -0.499176 -0.161936 0.166570
v -0.496505 -0.164607 0.166570
v -0.499063 -0.164494 0.165876
v -0.501139 -0.164607 0.161936
v -0.501139 -0.161936 0.164607
v -0.500445 -0.164494 0.164494
v -0.496505 0.167285 0.161936
v -0.501854 0.161936 0.161936
v -0.496505 0.161936 0.167285
v -0.499176 0.166570 0.161936
v -0.496505 0.166570 0.164607
v -0.499063 0.165876 0.164494
v -0.501139 0.161936 0.164607
v -0.501139 0.164607 0.161936
v -0.500445 0.164494 0.164494
v -0.496505 0.164607 0.166570
v -0.499176 0.161936 0.166570
v -0.499063 0.164494 0.165876
vt 0.625000 0.746003
vt 0.625000 0.503997
vt 0.625000 0.503997
vt 0.625000 0.746003
vt 0.621003 0.250000
vt 0.378997 0.250000
vt 0.378997 0.250000
vt 0.621003 0.250000
vt 0.378997 0.000000
vt 0.621003 0.000000
vt 0.621003 0.000000
vt 0.378997 0.000000
vt 0.375000 0.746003
vt 0.375000 0.503997
vt 0.375000 0.503997
vt 0.375000 0.746003
vt 0.625000 0.753997
vt 0.625000 0.996003
vt 0.625000 0.996003
vt 0.625000 0.753997
vt 0.375000 0.503997
vt 0.375000 0.746003
vt 0.375000 0.746003
vt 0.375000 0.503997
vt 0.128997 0.503997
vt 0.371003 0.503997
vt 0.371003 0.746003
vt 0.128997 0.746003
vt 0.375000 0.753997
vt 0.375000 0.996003
vt 0.375000 0.996003
vt 0.375000 0.753997
vt 0.378997 0.250000
vt 0.621003 0.250000
vt 0.621003 0.250000
vt 0.378997 0.250000
vt 0.378997 0.500000
vt 0.621003 0.500000
vt 0.621003 0.500000
vt 0.378997 0.500000
vt 0.378997 0.503997
vt 0.621003 0.503997
vt 0.621003 0.746003
vt 0.378997 0.746003
vt 0.375000 0.996003
vt 0.375000 0.753997
vt 0.375000 0.753997
vt 0.375000 0.996003
vt 0.375000 0.246003
vt 0.375000 0.003997
vt 0.375000 0.003997
vt 0.375000 0.246003
vt 0.375000 0.253997
vt 0.375000 0.496003
vt 0.375000 0.496003
vt 0.375000 0.253997
vt 0.378997 0.753997
vt 0.621003 0.753997
vt 0.621003 0.996003
vt 0.378997 0.996003
vt 0.625000 0.253997
vt 0.625000 0.496003
vt 0.625000 0.496003
vt 0.625000 0.253997
vt 0.378997 0.750000
vt 0.621003 0.750000
vt 0.621003 0.750000
vt 0.378997 0.750000
vt 0.625000 0.496003
vt 0.625000 0.253997
vt 0.625000 0.253997
vt 0.625000 0.496003
vt 0.378997 0.253997
vt 0.621003 0.253997
vt 0.621003 0.496003
vt 0.378997 0.496003
vt 0.625000 0.996003
vt 0.625000 0.753997
vt 0.625000 0.753997
vt 0.625000 0.996003
vt 0.621003 0.750000
vt 0.378997 0.750000
vt 0.378997 0.750000
vt 0.621003 0.750000
vt 0.628997 0.503997
vt 0.871003 0.503997
vt 0.871003 0.746003
vt 0.628997 0.746003
vt 0.378997 0.003997
vt 0.621003 0.003997
vt 0.621003 0.246003
vt 0.378997 0.246003
vt 0.375000 0.496003
vt 0.375000 0.253997
vt 0.375000 0.253997
vt 0.375000 0.496003
vt 0.625000 0.503997
vt 0.625000 0.746003
vt 0.625000 0.746003
vt 0.625000 0.503997
vt 0.625000 0.003997
vt 0.625000 0.246003
vt 0.625000 0.246003
vt 0.625000 0.003997
vt 0.375000 0.003997
vt 0.375000 0.246003
vt 0.375000 0.246003
vt 0.375000 0.003997
vt 0.625000 0.246003
vt 0.625000 0.003997
vt 0.625000 0.003997
vt 0.625000 0.246003
vt 0.621003 0.000000
vt 0.378997 0.000000
vt 0.378997 0.000000
vt 0.621003 0.000000
vt 0.621003 0.500000
vt 0.622965 0.500000
vt 0.623370 0.500000
vt 0.621003 0.500000
vt 0.625000 0.500000
vt 0.625000 0.500000
vt 0.625000 0.496003
vt 0.625000 0.498370
vt 0.625000 0.497965
vt 0.625000 0.496003
vt 0.625000 0.498370
vt 0.625000 0.497965
vt 0.625000 0.500000
vt 0.625000 0.500000
vt 0.625000 0.503997
vt 0.625000 0.501630
vt 0.625000 0.502035
vt 0.625000 0.503997
vt 0.625000 0.501630
vt 0.625000 0.502035
vt 0.625000 0.500000
vt 0.625000 0.500000
vt 0.621003 0.500000
vt 0.623370 0.500000
vt 0.622965 0.500000
vt 0.375000 0.497965
vt 0.375000 0.498370
vt 0.375000 0.496003
vt 0.375000 0.500000
vt 0.375000 0.500000
vt 0.378997 0.500000
vt 0.378997 0.500000
vt 0.376630 0.500000
vt 0.377035 0.500000
vt 0.378997 0.500000
vt 0.376630 0.500000
vt 0.377035 0.500000
vt 0.375000 0.500000
vt 0.375000 0.500000
vt 0.375000 0.503997
vt 0.375000 0.501630
vt 0.375000 0.502035
vt 0.375000 0.503997
vt 0.375000 0.501630
vt 0.375000 0.502035
vt 0.375000 0.500000
vt 0.375000 0.500000
vt 0.375000 0.496003
vt 0.375000 0.498370
vt 0.375000 0.497965
vt 0.621003 0.750000
vt 0.623370 0.750000
vt 0.622965 0.750000
vt 0.621003 0.750000
vt 0.623370 0.750000
vt 0.622965 0.750000
vt 0.625000 0.750000
vt 0.625000 0.750000
vt 0.625000 0.746003
vt 0.625000 0.748370
vt 0.625000 0.747965
vt 0.625000 0.746003
vt 0.625000 0.748370
vt 0.625000 0.747965
vt 0.625000 0.750000
vt 0.625000 0.750000
vt 0.625000 0.753997
vt 0.625000 0.751630
vt 0.625000 0.752035
vt 0.625000 0.753997
vt 0.625000 0.751630
vt 0.625000 0.752035
vt 0.625000 0.750000
vt 0.625000 0.750000
vt 0.377035 0.750000
vt 0.376630 0.750000
vt 0.378997 0.750000
vt 0.375000 0.750000
vt 0.375000 0.750000
vt 0.375000 0.753997
vt 0.375000 0.751630
vt 0.375000 0.752035
vt 0.375000 0.753997
vt 0.375000 0.751630
vt 0.375000 0.752035
vt 0.375000 0.750000
vt 0.375000 0.750000
vt 0.375000 0.746003
vt 0.375000 0.748370
vt 0.375000 0.747965
vt 0.375000 0.746003
vt 0.375000 0.748370
vt 0.375000 0.747965
vt 0.375000 0.750000
vt 0.375000 0.750000
vt 0.378997 0.750000
vt 0.376630 0.750000
vt 0.377035 0.750000
vt 0.622965 0.250000
vt 0.623370 0.250000
vt 0.621003 0.250000
vt 0.625000 0.250000
vt 0.625000 0.250000
vt 0.625000 0.246003
vt 0.625000 0.248370
vt 0.625000 0.247965
vt 0.625000 0.246003
vt 0.625000 0.248370
vt 0.625000 0.247965
vt 0.625000 0.250000
vt 0.625000 0.250000
vt 0.625000 0.253997
vt 0.625000 0.251630
vt 0.625000 0.252035
vt 0.625000 0.253997
vt 0.625000 0.251630
vt 0.625000 0.252035
vt 0.625000 0.250000
vt 0.625000 0.250000
vt 0.621003 0.250000
vt 0.623370 0.250000
vt 0.622965 0.250000
vt 0.375000 0.247965
vt 0.375000 0.248370
vt 0.375000 0.246003
vt 0.375000 0.250000
vt 0.375000 0.250000
vt 0.378997 0.250000
vt 0.376630 0.250000
vt 0.377035 0.250000
vt 0.378997 0.250000
vt 0.376630 0.250000
vt 0.377035 0.250000
vt 0.375000 0.250000
vt 0.375000 0.250000
vt 0.375000 0.253997
vt 0.375000 0.251630
vt 0.375000 0.252035
vt 0.375000 0.253997
vt 0.375000 0.251630
vt 0.375000 0.252035
vt 0.375000 0.250000
vt 0.375000 0.250000
vt 0.375000 0.246003
vt 0.375000 0.248370
vt 0.375000 0.247965
vt 0.621003 0.000000
vt 0.623370 0.000000
vt 0.622965 0.000000
vt 0.621003 0.000000
vt 0.623370 0.000000
vt 0.622965 0.000000
vt 0.625000 0.000000
vt 0.625000 0.000000
vt 0.625000 0.996003
vt 0.625000 0.998370
vt 0.625000 0.997965
vt 0.625000 0.996003
vt 0.625000 0.998370
vt 0.625000 0.997965
vt 0.625000 0.000593
vt 0.625000 0.000000
vt 0.625000 0.000000
vt 0.625000 0.000000
vt 0.625000 0.003997
vt 0.625000 0.001630
vt 0.625000 0.002035
vt 0.625000 0.003997
vt 0.625000 0.001630
vt 0.625000 0.002035
vt 0.625000 0.000000
vt 0.625000 0.000000
vt 0.625000 0.000000
vt 0.375000 0.003997
vt 0.375000 0.001630
vt 0.375000 0.002035
vt 0.375000 0.003997
vt 0.375000 0.001630
vt 0.375000 0.002035
vt 0.375000 0.000000
vt 0.375000 0.000000
vt 0.375000 0.996003
vt 0.375000 0.998370
vt 0.375000 0.997965
vt 0.375000 0.996003
vt 0.375000 0.998370
vt 0.375000 0.997965
vt 0.375000 1.000000
vt 0.375000 1.000000
vt 0.378997 0.000000
vt 0.376630 0.000000
vt 0.377035 0.000000
vt 0.378997 0.000000
vt 0.376630 0.000000
vt 0.377035 0.000000
vt 0.375000 0.000000
vt 0.375000 0.000000
vt 0.375000 0.000000
vt 0.375000 0.000000
vt 0.375000 0.000000
vt 0.625000 0.752001
vt 0.625000 0.752086
vt 0.625000 0.753997
vt 0.625000 0.750000
vt 0.625000 0.750000
vt 0.625000 0.746003
vt 0.625000 0.747914
vt 0.625000 0.747999
vt 0.625000 0.746003
vt 0.625000 0.747914
vt 0.628997 0.747999
vt 0.627086 0.747914
vt 0.627001 0.746003
vt 0.625000 0.753997
vt 0.625000 0.752086
vt 0.625000 0.996003
vt 0.625000 0.997914
vt 0.625000 0.997999
vt 0.625000 0.996003
vt 0.625000 0.997914
vt 0.872999 0.746003
vt 0.872914 0.747914
vt 0.871003 0.747999
vt 0.625000 0.003997
vt 0.625000 0.003997
vt 0.625000 0.002086
vt 0.625000 0.002086
vt 0.625000 0.002001
vt 0.625000 0.000000
vt 0.625000 0.000000
vt 0.625000 1.000000
vt 0.625000 0.502001
vt 0.625000 0.502086
vt 0.625000 0.503997
vt 0.625000 0.500000
vt 0.625000 0.500000
vt 0.625000 0.496003
vt 0.625000 0.497914
vt 0.625000 0.497999
vt 0.625000 0.496003
vt 0.625000 0.497914
vt 0.627001 0.503997
vt 0.627086 0.502086
vt 0.628997 0.502001
vt 0.625000 0.498947
vt 0.625000 0.246003
vt 0.625000 0.247914
vt 0.625000 0.247999
vt 0.625000 0.246003
vt 0.625000 0.247914
vt 0.871003 0.502001
vt 0.872914 0.502086
vt 0.872999 0.503997
vt 0.625000 0.253997
vt 0.625000 0.253997
vt 0.625000 0.252086
vt 0.625000 0.252086
vt 0.625000 0.252001
vt 0.625000 0.250000
vt 0.625000 0.250000
vt 0.625000 0.250000
vt 0.375000 0.247999
vt 0.375000 0.247914
vt 0.375000 0.246003
vt 0.375000 0.250000
vt 0.375000 0.250000
vt 0.375000 0.253997
vt 0.375000 0.252086
vt 0.375000 0.252001
vt 0.128997 0.500534
vt 0.128997 0.500000
vt 0.127086 0.500000
vt 0.127086 0.501053
vt 0.127001 0.503997
vt 0.127086 0.502086
vt 0.128997 0.502001
vt 0.125000 0.503997
vt 0.125000 0.502086
vt 0.375000 0.247914
vt 0.375000 0.003997
vt 0.375000 0.002086
vt 0.375000 0.002001
vt 0.125534 0.746003
vt 0.125000 0.746003
vt 0.125000 0.747914
vt 0.126053 0.747914
vt 0.128997 0.747999
vt 0.127086 0.747914
vt 0.127001 0.746003
vt 0.128997 0.750000
vt 0.127086 0.750000
vt 0.375000 0.997999
vt 0.375000 0.997914
vt 0.375000 0.996003
vt 0.375000 0.000534
vt 0.375000 0.000000
vt 0.375000 0.000000
vt 0.375000 0.001053
vt 0.375000 0.497999
vt 0.375000 0.497914
vt 0.375000 0.496003
vt 0.375000 0.500000
vt 0.375000 0.500000
vt 0.375000 0.503997
vt 0.375000 0.502086
vt 0.375000 0.502001
vt 0.375000 0.503997
vt 0.375000 0.502086
vt 0.371003 0.502001
vt 0.372914 0.502086
vt 0.372999 0.503997
vt 0.371003 0.500000
vt 0.372914 0.500000
vt 0.375000 0.497914
vt 0.375000 0.753997
vt 0.375000 0.752086
vt 0.375000 0.752001
vt 0.371003 0.749466
vt 0.371003 0.750000
vt 0.372914 0.750000
vt 0.372914 0.748947
vt 0.372999 0.746003
vt 0.372914 0.747914
vt 0.371003 0.747999
vt 0.375000 0.746003
vt 0.375000 0.747914
vt 0.375000 0.747999
vt 0.375000 0.750000
vt 0.375000 0.750000
vt 0.622999 0.500000
vt 0.622914 0.500000
vt 0.621003 0.500000
vt 0.625000 0.500000
vt 0.625000 0.500000
vt 0.625000 0.503997
vt 0.625000 0.502086
vt 0.625000 0.502001
vt 0.625000 0.503997
vt 0.625000 0.502086
vt 0.621003 0.502001
vt 0.622914 0.502086
vt 0.622999 0.503997
vt 0.378997 0.500000
vt 0.377086 0.500000
vt 0.377001 0.500000
vt 0.378997 0.500000
vt 0.377086 0.500000
vt 0.377001 0.503997
vt 0.377086 0.502086
vt 0.378997 0.502001
vt 0.375000 0.503997
vt 0.375000 0.502086
vt 0.375000 0.502001
vt 0.375000 0.500000
vt 0.375000 0.500000
vt 0.621003 0.750000
vt 0.622914 0.750000
vt 0.622999 0.750000
vt 0.621003 0.750000
vt 0.622914 0.750000
vt 0.622999 0.746003
vt 0.622914 0.747914
vt 0.621003 0.747999
vt 0.625000 0.746003
vt 0.625000 0.747914
vt 0.625000 0.747999
vt 0.625000 0.750000
vt 0.625000 0.750000
vt 0.377001 0.750000
vt 0.377086 0.750000
vt 0.378997 0.750000
vt 0.375000 0.750000
vt 0.375000 0.750000
vt 0.375000 0.746003
vt 0.375000 0.747914
vt 0.375000 0.747999
vt 0.375000 0.746003
vt 0.375000 0.747914
vt 0.378997 0.747999
vt 0.377086 0.747914
vt 0.377001 0.746003
vt 0.377001 0.000000
vt 0.377086 0.000000
vt 0.378997 0.000000
vt 0.375000 0.999466
vt 0.375000 1.000000
vt 0.375000 1.000000
vt 0.375000 0.998947
vt 0.375000 0.996003
vt 0.375000 0.997914
vt 0.375000 0.997999
vt 0.375000 0.996003
vt 0.375000 0.997914
vt 0.378997 0.997999
vt 0.377086 0.997914
vt 0.377001 0.996003
vt 0.378997 0.000000
vt 0.377086 0.000000
vt 0.621003 0.000000
vt 0.622914 0.000000
vt 0.622999 0.000000
vt 0.621003 0.000000
vt 0.622914 0.000000
vt 0.622999 0.996003
vt 0.622914 0.997914
vt 0.621003 0.997999
vt 0.625000 0.996003
vt 0.625000 0.997914
vt 0.625000 0.997999
vt 0.624466 0.000000
vt 0.625000 0.000000
vt 0.625000 0.000000
vt 0.623947 0.000000
vt 0.625000 0.000000
vt 0.622999 0.750000
vt 0.622914 0.750000
vt 0.621003 0.750000
vt 0.625000 0.750000
vt 0.625000 0.750000
vt 0.625000 0.753997
vt 0.625000 0.752086
vt 0.625000 0.752001
vt 0.625000 0.753997
vt 0.625000 0.752086
vt 0.621003 0.752001
vt 0.622914 0.752086
vt 0.622999 0.753997
vt 0.378997 0.750000
vt 0.377086 0.750000
vt 0.377001 0.750000
vt 0.378997 0.750000
vt 0.377086 0.750000
vt 0.377001 0.753997
vt 0.377086 0.752086
vt 0.378997 0.752001
vt 0.375000 0.753997
vt 0.375000 0.752086
vt 0.375000 0.752001
vt 0.375000 0.750000
vt 0.375000 0.750000
vt 0.375000 0.496003
vt 0.375000 0.497914
vt 0.375000 0.497999
vt 0.375000 0.496003
vt 0.375000 0.497914
vt 0.378997 0.497999
vt 0.377086 0.497914
vt 0.377001 0.496003
vt 0.378997 0.500000
vt 0.377086 0.500000
vt 0.378997 0.500000
vt 0.377001 0.500000
vt 0.375000 0.500000
vt 0.375000 0.500000
vt 0.375000 0.252001
vt 0.375000 0.252086
vt 0.375000 0.253997
vt 0.375000 0.250000
vt 0.375000 0.250000
vt 0.378997 0.250000
vt 0.377086 0.250000
vt 0.377001 0.250000
vt 0.378997 0.250000
vt 0.377086 0.250000
vt 0.377001 0.253997
vt 0.377086 0.252086
vt 0.378997 0.252001
vt 0.621003 0.500000
vt 0.621003 0.500000
vt 0.622914 0.500000
vt 0.622999 0.500000
vt 0.621003 0.500000
vt 0.622914 0.500000
vt 0.622999 0.496003
vt 0.622914 0.497914
vt 0.621003 0.497999
vt 0.625000 0.496003
vt 0.625000 0.497914
vt 0.625000 0.497999
vt 0.625000 0.500000
vt 0.625000 0.500000
vt 0.622999 0.250000
vt 0.622914 0.250000
vt 0.621003 0.250000
vt 0.625000 0.250000
vt 0.625000 0.250000
vt 0.625000 0.253997
vt 0.625000 0.252086
vt 0.625000 0.252001
vt 0.625000 0.253997
vt 0.625000 0.252086
vt 0.621003 0.252001
vt 0.622914 0.252086
vt 0.622999 0.253997
vt 0.375000 0.246003
vt 0.375000 0.247914
vt 0.375000 0.247999
vt 0.375000 0.246003
vt 0.375000 0.247914
vt 0.378997 0.247999
vt 0.377086 0.247914
vt 0.377001 0.246003
vt 0.378997 0.250000
vt 0.377086 0.250000
vt 0.377001 0.250000
vt 0.375000 0.250000
vt 0.375000 0.250000
vt 0.375000 0.002001
vt 0.375000 0.002086
vt 0.375000 0.003997
vt 0.375000 0.000000
vt 0.375000 0.000000
vt 0.378997 0.000000
vt 0.377086 0.000000
vt 0.377001 0.000000
vt 0.378997 0.000000
vt 0.377086 0.000000
vt 0.377001 0.003997
vt 0.377086 0.002086
vt 0.378997 0.002001
vt 0.622999 0.000000
vt 0.622914 0.000000
vt 0.621003 0.000000
vt 0.625000 0.000000
vt 0.625000 0.000000
vt 0.625000 0.003997
vt 0.625000 0.002086
vt 0.625000 0.002001
vt 0.625000 0.003997
vt 0.625000 0.002086
vt 0.621003 0.002001
vt 0.622914 0.002086
vt 0.622999 0.003997
vt 0.621003 0.250000
vt 0.622914 0.250000
vt 0.622999 0.250000
vt 0.621003 0.250000
vt 0.622914 0.250000
vt 0.622999 0.246003
vt 0.622914 0.247914
vt 0.621003 0.247999
vt 0.625000 0.246003
vt 0.625000 0.247914
vt 0.625000 0.247999
vt 0.625000 0.250000
vt 0.625000 0.250000
vt 0.625000 0.000000
vt 0.125000 0.746003
vt 0.128997 0.500000
vt 0.371003 0.750000
vt 0.375000 0.000000
vt 0.375000 1.000000
vt 0.625000 0.000000
vn 1.0000 0.0000 0.0000
vn 0.0000 1.0000 0.0000
vn 0.0000 -1.0000 0.0000
vn 0.0000 0.0000 -1.0000
vn 0.0000 0.0000 1.0000
vn -1.0000 0.0000 0.0000
vn 0.9195 0.2780 0.2780
vn 0.6776 0.2858 0.6776
vn 0.2780 0.2780 0.9195
vn 0.2858 0.6776 0.6776
vn 0.2780 0.9195 0.2780
vn 0.6776 0.6776 0.2858
vn 0.5773 0.5774 0.5774
vn 0.2780 0.2780 -0.9195
vn 0.6776 0.2858 -0.6776
vn 0.9195 0.2780 -0.2780
vn 0.6776 0.6776 -0.2858
vn 0.2780 0.9195 -0.2780
vn 0.2858 0.6776 -0.6776
vn 0.5773 0.5773 -0.5774
vn 0.9195 -0.2780 0.2780
vn 0.6776 -0.6776 0.2858
vn 0.2780 -0.9195 0.2780
vn 0.2858 -0.6776 0.6776
vn 0.2780 -0.2780 0.9195
vn 0.6776 -0.2858 0.6776
vn 0.5774 -0.5773 0.5773
vn 0.9195 -0.2780 -0.2780
vn 0.6776 -0.2858 -0.6776
vn 0.2780 -0.2780 -0.9195
vn 0.2858 -0.6776 -0.6776
vn 0.2780 -0.9195 -0.2780
vn 0.6776 -0.6776 -0.2858
vn 0.5773 -0.5774 -0.5774
vn -0.2780 0.9195 0.2780
vn -0.2858 0.6776 0.6776
vn -0.2780 0.2780 0.9195
vn -0.6776 0.2858 0.6776
vn -0.9195 0.2780 0.2780
vn -0.6776 0.6776 0.2858
vn -0.5773 0.5774 0.5773
vn -0.2780 0.2780 -0.9195
vn -0.2858 0.6776 -0.6776
vn -0.2780 0.9195 -0.2780
vn -0.6776 0.6776 -0.2858
vn -0.9195 0.2780 -0.2780
vn -0.6776 0.2858 -0.6776
vn -0.5774 0.5774 -0.5773
vn -0.2780 -0.9195 0.2780
vn -0.6776 -0.6776 0.2858
vn -0.9195 -0.2780 0.2780
vn -0.6776 -0.2858 0.6776
vn -0.2780 -0.2780 0.9195
vn -0.2858 -0.6776 0.6776
vn -0.5774 -0.5774 0.5774
vn -0.2780 -0.2780 -0.9195
vn -0.6776 -0.2858 -0.6776
vn -0.9195 -0.2780 -0.2780
vn -0.6776 -0.6776 -0.2858
vn -0.2780 -0.9195 -0.2780
vn -0.2858 -0.6776 -0.6776
vn -0.5773 -0.5773 -0.5774
vn 0.2566 -0.9318 0.2566
vn 0.6901 -0.6901 0.2178
vn 0.9318 -0.2566 0.2566
vn 0.6901 -0.2178 0.6901
vn 0.2566 -0.2566 0.9318
vn 0.2178 -0.6901 0.6901
vn -0.2566 -0.9318 0.2566
vn -0.2178 -0.6901 0.6901
vn -0.2566 -0.2566 0.9318
vn -0.6901 -0.2178 0.6901
vn -0.9318 -0.2566 0.2566
vn -0.6901 -0.6901 0.2178
vn -0.5774 -0.5773 0.5773
vn 0.9318 0.2566 0.2566
vn 0.6901 0.6901 0.2178
vn 0.2566 0.9318 0.2566
vn 0.2178 0.6901 0.6901
vn 0.2566 0.2566 0.9318
vn 0.6901 0.2178 0.6901
vn 0.5774 0.5773 0.5773
vn -0.9318 0.2566 0.2566
vn -0.6901 0.2178 0.6901
vn -0.2566 0.2566 0.9318
vn -0.2178 0.6901 0.6901
vn -0.2566 0.9318 0.2566
vn -0.6901 0.6901 0.2178
vn -0.5774 0.5773 0.5773
vn -0.9318 0.2566 -0.2566
vn -0.6901 0.6901 -0.2178
vn -0.2566 0.9318 -0.2566
vn -0.2178 0.6901 -0.6901
vn -0.2566 0.2566 -0.9318
vn -0.6901 0.2178 -0.6901
vn -0.5774 0.5773 -0.5773
vn -0.9318 -0.2566 -0.2566
vn -0.6901 -0.2178 -0.6901
vn -0.2566 -0.2566 -0.9318
vn -0.2178 -0.6901 -0.6901
vn -0.2566 -0.9318 -0.2566
vn -0.6901 -0.6901 -0.2178
vn -0.5774 -0.5773 -0.5773
vn 0.2566 0.9318 -0.2566
vn 0.6901 0.6901 -0.2178
vn 0.9318 0.2566 -0.2566
vn 0.6901 0.2178 -0.6901
vn 0.2566 0.2566 -0.9318
vn 0.2178 0.6901 -0.6901
vn 0.5774 0.5773 -0.5773
vn 0.2566 -0.9318 -0.2566
vn 0.2178 -0.6901 -0.6901
vn 0.2566 -0.2566 -0.9318
vn 0.6901 -0.2178 -0.6901
vn 0.9318 -0.2566 -0.2566
vn 0.6901 -0.6901 -0.2178
vn 0.5774 -0.5773 -0.5773
vn 0.5773 0.5774 0.5773
vn 0.5773 0.5774 -0.5773
vn 0.5773 -0.5774 0.5773
vn 0.5773 -0.5774 -0.5773
vn -0.5773 -0.5773 0.5774
vn 0.5773 -0.5773 0.5774
vn 0.5773 -0.5773 -0.5774
vn -0.5773 0.5773 -0.5774
vn 0.5773 0.5773 0.5774
vn -0.5773 0.5773 0.5774
vn -0.5773 0.5774 -0.5773
vn -0.5773 -0.5774 -0.5773
vn -0.5773 -0.5774 0.5773
vn -0.9572 0.0000 -0.2894
vn -0.7071 -0.0000 -0.7071
vn -0.2894 -0.0000 -0.9572
vn 0.0000 0.9572 -0.2894
vn 0.0000 0.7071 -0.7071
vn -0.0000 0.2894 -0.9572
vn 0.2894 0.9572 0.0000
vn 0.7071 0.7071 -0.0000
vn 0.9572 0.2894 -0.0000
vn -0.9572 -0.2894 -0.0000
vn -0.7071 -0.7071 -0.0000
vn -0.2894 -0.9572 0.0000
vn 0.9572 -0.2894 0.0000
vn 0.7071 -0.7071 0.0000
vn 0.2894 -0.9572 -0.0000
vn -0.9572 0.2894 0.0000
vn -0.7071 0.7071 0.0000
vn -0.2894 0.9572 -0.0000
vn 0.0000 -0.9572 0.2894
vn 0.0000 -0.7071 0.7071
vn -0.0000 -0.2894 0.9572
vn 0.9572 0.0000 0.2894
vn 0.7071 -0.0000 0.7071
vn 0.2894 -0.0000 0.9572
vn -0.0000 -0.9572 -0.2894
vn -0.0000 -0.7071 -0.7071
vn 0.0000 -0.2894 -0.9572
vn -0.9572 -0.0000 0.2894
vn -0.7071 0.0000 0.7071
vn -0.2894 0.0000 0.9572
vn -0.0000 0.9572 0.2894
vn -0.0000 0.7071 0.7071
vn 0.0000 0.2894 0.9572
vn 0.9572 -0.0000 -0.2894
vn 0.7071 0.0000 -0.7071
vn 0.2894 0.0000 -0.9572
vn 0.0000 -0.2584 0.9660
vn 0.0000 -0.9660 0.2584
vn 0.2585 0.0000 0.9660
vn 0.9660 0.0000 0.2584
vn -0.2585 0.0000 0.9660
vn -0.9660 0.0000 0.2584
vn 0.0000 0.2584 0.9660
vn 0.0000 0.9660 0.2584
vn -0.9618 0.2739 -0.0001
vn -0.7071 0.7071 -0.0003
vn -0.2739 0.9618 -0.0001
vn 0.9618 0.2739 -0.0001
vn 0.7071 0.7071 -0.0003
vn 0.2739 0.9618 -0.0001
vn 0.9618 -0.2739 -0.0001
vn 0.7071 -0.7071 -0.0003
vn 0.2739 -0.9618 -0.0001
vn -0.9618 -0.2739 -0.0001
vn -0.7071 -0.7071 -0.0003
vn -0.2739 -0.9618 -0.0001
vn -0.2585 0.0000 -0.9660
vn -0.9660 0.0000 -0.2584
vn 0.0000 0.2584 -0.9660
vn 0.0000 0.9660 -0.2584
vn 0.0000 -0.2584 -0.9660
vn 0.0000 -0.9660 -0.2584
vn 0.2585 0.0000 -0.9660
vn 0.9660 0.0000 -0.2584
vn 0.9618 0.2739 0.0001
vn 0.7071 0.7071 0.0003
vn 0.2739 0.9618 0.0001
vn -0.9618 0.2739 0.0001
vn -0.7071 0.7071 0.0003
vn -0.2739 0.9618 0.0001
vn -0.9618 -0.2739 0.0001
vn -0.7071 -0.7071 0.0003
vn -0.2739 -0.9618 0.0001
vn 0.9618 -0.2739 0.0001
vn 0.7071 -0.7071 0.0003
vn 0.2739 -0.9618 0.0001
vn 0.9660 0.2585 0.0000
vn 0.2584 0.9660 0.0000
vn 0.2584 -0.9660 0.0000
vn 0.9660 -0.2585 0.0000
vn 0.2584 0.0000 0.9660
vn 0.2584 0.0000 -0.9660
vn -0.0001 -0.2739 -0.9618
vn -0.0003 -0.7071 -0.7071
vn -0.0001 -0.9618 -0.2739
vn -0.0001 -0.2739 0.9618
vn -0.0003 -0.7071 0.7071
vn -0.0001 -0.9618 0.2739
vn -0.0001 0.2739 0.9618
vn -0.0003 0.7071 0.7071
vn -0.0001 0.9618 0.2739
vn -0.0001 0.2739 -0.9618
vn -0.0003 0.7071 -0.7071
vn -0.0001 0.9618 -0.2739
vn -0.2584 -0.9660 0.0000
vn -0.9660 -0.2584 0.0000
vn 0.9660 -0.2584 0.0000
vn 0.0000 -0.9660 0.2585
vn 0.0000 -0.9660 -0.2585
vn 0.9618 0.0001 -0.2739
vn 0.7071 0.0003 -0.7071
vn 0.2739 0.0001 -0.9618
vn -0.9618 0.0001 -0.2739
vn -0.7071 0.0003 -0.7071
vn -0.2739 0.0001 -0.9618
vn -0.9618 0.0001 0.2739
vn -0.7071 0.0003 0.7071
vn -0.2739 0.0001 0.9618
vn 0.9618 0.0001 0.2739
vn 0.7071 0.0003 0.7071
vn 0.2739 0.0001 0.9618
vn 0.0000 0.9660 -0.2585
vn 0.9660 0.2584 0.0000
vn -0.2584 0.9660 0.0000
vn -0.9660 0.2584 0.0000
vn 0.0000 0.9660 0.2585
vn -0.9618 -0.0001 -0.2739
vn -0.7071 -0.0003 -0.7071
vn -0.2739 -0.0001 -0.9618
vn 0.9618 -0.0001 -0.2739
vn 0.7071 -0.0003 -0.7071
vn 0.2739 -0.0001 -0.9618
vn 0.9618 -0.0001 0.2739
vn 0.7071 -0.0003 0.7071
vn 0.2739 -0.0001 0.9618
vn -0.9618 -0.0001 0.2739
vn -0.7071 -0.0003 0.7071
vn -0.2739 -0.0001 0.9618
vn -0.2584 0.0000 -0.9660
vn -0.9660 -0.2585 0.0000
vn -0.9660 0.2585 0.0000
vn -0.2584 0.0000 0.9660
vn 0.0001 -0.9618 -0.2739
vn 0.0003 -0.7071 -0.7071
vn 0.0001 -0.2739 -0.9618
vn 0.0001 0.9618 -0.2739
vn 0.0003 0.7071 -0.7071
vn 0.0001 0.2739 -0.9618
vn 0.0001 0.9618 0.2739
vn 0.0003 0.7071 0.7071
vn 0.0001 0.2739 0.9618
vn 0.0001 -0.9618 0.2739
vn 0.0003 -0.7071 0.7071
vn 0.0001 -0.2739 0.9618
usemtl Pluscube
s off
f 52/1/1 4/2/1 217/3/1 194/4/1
f 97/5/2 122/6/2 435/7/2 469/8/2
f 174/9/3 145/10/3 457/11/3 446/12/3
f 77/13/4 28/14/4 303/15/4 326/16/4
f 54/17/5 147/18/5 351/19/5 362/20/5
f 29/21/1 76/22/1 279/23/1 266/24/1
f 243/25/4 267/26/4 278/27/4 254/28/4
f 75/29/3 171/30/3 255/31/3 277/32/3
f 123/33/6 102/34/6 421/35/6 398/36/6
f 27/37/2 6/38/2 289/39/2 301/40/2
f 302/41/1 291/42/1 314/43/1 327/44/1
f 172/45/4 74/46/4 375/47/4 338/48/4
f 121/49/4 169/50/4 445/51/4 433/52/4
f 125/53/2 30/54/2 265/55/2 242/56/2
f 374/57/3 363/58/3 350/59/3 339/60/3
f 101/61/5 2/62/5 411/63/5 422/64/5
f 73/65/1 49/66/1 361/67/1 373/68/1
f 3/69/2 100/70/2 231/71/2 218/72/2
f 399/73/2 423/74/2 410/75/2 386/76/2
f 148/77/3 53/78/3 193/79/3 205/80/3
f 50/81/3 78/82/3 325/83/3 313/84/3
f 219/85/5 230/86/5 206/87/5 195/88/5
f 447/89/6 459/90/6 470/91/6 434/92/6
f 25/93/4 124/94/4 397/95/4 385/96/4
f 5/97/5 51/98/5 315/99/5 290/100/5
f 150/101/5 98/102/5 471/103/5 458/104/5
f 170/105/6 126/106/6 241/107/6 253/108/6
f 99/109/6 149/110/6 207/111/6 229/112/6
f 146/113/6 173/114/6 337/115/6 349/116/6
f 1/117/7 7/118/7 9/119/7 8/120/7
f 7/118/8 11/121/8 12/122/8 9/119/8
f 2/62/9 10/123/9 12/124/9 11/125/9
f 10/123/10 14/126/10 15/127/10 12/124/10
f 3/69/11 13/128/11 15/127/11 14/126/11
f 13/128/12 17/129/12 18/130/12 15/127/12
f 4/2/7 16/131/7 18/132/7 17/133/7
f 16/131/8 20/134/8 21/135/8 18/132/8
f 5/97/9 19/136/9 21/135/9 20/134/9
f 19/136/10 23/137/10 24/138/10 21/135/10
f 6/38/11 22/139/11 24/140/11 23/141/11
f 22/139/12 8/120/12 9/119/12 24/140/12
f 9/119/13 12/124/13 15/127/13 18/132/13 21/135/13 24/140/13
f 25/93/14 31/142/14 33/143/14 32/144/14
f 31/142/15 35/145/15 36/146/15 33/143/15
f 26/147/16 34/148/16 36/149/16 35/150/16
f 34/148/17 38/151/17 39/152/17 36/149/17
f 27/37/18 37/153/18 39/152/18 38/151/18
f 37/153/19 41/154/19 42/155/19 39/152/19
f 28/14/14 40/156/14 42/157/14 41/158/14
f 40/156/15 44/159/15 45/160/15 42/157/15
f 29/21/16 43/161/16 45/160/16 44/159/16
f 43/161/17 47/162/17 48/163/17 45/160/17
f 30/54/18 46/164/18 48/165/18 47/166/18
f 46/164/19 32/144/19 33/143/19 48/165/19
f 33/143/20 36/149/20 39/152/20 42/157/20 45/160/20 48/165/20
f 49/66/21 55/167/21 57/168/21 56/169/21
f 55/167/22 59/170/22 60/171/22 57/168/22
f 50/81/23 58/172/23 60/171/23 59/170/23
f 58/172/24 62/173/24 63/174/24 60/171/24
f 51/98/25 61/175/25 63/176/25 62/177/25
f 61/175/26 65/178/26 66/179/26 63/176/26
f 52/1/21 64/180/21 66/179/21 65/178/21
f 64/180/22 68/181/22 69/182/22 66/179/22
f 53/78/23 67/183/23 69/184/23 68/185/23
f 67/183/24 71/186/24 72/187/24 69/184/24
f 54/17/25 70/188/25 72/187/25 71/186/25
f 70/188/26 56/189/26 57/190/26 72/187/26
f 57/168/27 60/171/27 63/176/27 66/179/27 69/184/27 72/187/27
f 73/65/28 79/191/28 81/192/28 80/193/28
f 79/191/29 83/194/29 84/195/29 81/192/29
f 74/46/30 82/196/30 84/197/30 83/198/30
f 82/196/31 86/199/31 87/200/31 84/197/31
f 75/29/32 85/201/32 87/200/32 86/199/32
f 85/201/33 89/202/33 90/203/33 87/200/33
f 76/22/28 88/204/28 90/205/28 89/206/28
f 88/204/29 92/207/29 93/208/29 90/205/29
f 77/13/30 91/209/30 93/208/30 92/207/30
f 91/209/31 95/210/31 96/211/31 93/208/31
f 78/82/32 94/212/32 96/213/32 95/214/32
f 94/212/33 80/193/33 81/192/33 96/213/33
f 81/192/34 84/197/34 87/200/34 90/205/34 93/208/34 96/213/34
f 97/5/35 103/215/35 105/216/35 104/217/35
f 103/215/36 107/218/36 108/219/36 105/216/36
f 98/102/37 106/220/37 108/221/37 107/222/37
f 106/220/38 110/223/38 111/224/38 108/221/38
f 99/109/39 109/225/39 111/224/39 110/223/39
f 109/225/40 113/226/40 114/227/40 111/224/40
f 100/70/35 112/228/35 114/229/35 113/230/35
f 112/228/36 116/231/36 117/232/36 114/229/36
f 101/61/37 115/233/37 117/232/37 116/231/37
f 115/233/38 119/234/38 120/235/38 117/232/38
f 102/34/39 118/236/39 120/237/39 119/238/39
f 118/236/40 104/217/40 105/216/40 120/237/40
f 105/216/41 108/221/41 111/224/41 114/229/41 117/232/41 120/237/41
f 121/49/42 127/239/42 129/240/42 128/241/42
f 127/239/43 131/242/43 132/243/43 129/240/43
f 122/6/44 130/244/44 132/245/44 131/246/44
f 130/244/45 134/247/45 135/248/45 132/245/45
f 123/33/46 133/249/46 135/248/46 134/247/46
f 133/249/47 137/250/47 138/251/47 135/248/47
f 124/94/42 136/252/42 138/253/42 137/254/42
f 136/252/43 140/255/43 141/256/43 138/253/43
f 125/53/44 139/257/44 141/256/44 140/255/44
f 139/257/45 143/258/45 144/259/45 141/256/45
f 126/106/46 142/260/46 144/261/46 143/262/46
f 142/260/47 128/241/47 129/240/47 144/261/47
f 129/240/48 132/245/48 135/248/48 138/253/48 141/256/48 144/261/48
f 145/10/49 151/263/49 153/264/49 152/265/49
f 151/263/50 155/266/50 156/267/50 153/264/50
f 146/113/51 154/268/51 156/267/51 155/266/51
f 154/268/52 158/269/52 159/270/52 156/267/52
f 147/18/53 157/271/53 159/272/53 158/273/53
f 157/271/54 161/274/54 162/275/54 159/272/54
f 148/77/49 160/276/49 162/275/49 161/274/49
f 160/277/50 164/278/50 165/279/50 162/280/50
f 149/110/51 163/281/51 165/282/51 164/283/51
f 163/281/52 167/284/52 168/285/52 165/282/52
f 150/101/53 166/286/53 168/285/53 167/284/53
f 166/286/54 152/287/54 153/288/54 168/285/54
f 153/264/55 156/267/55 159/270/55 162/280/55 165/279/55 168/289/55
f 169/50/56 175/290/56 177/291/56 176/292/56
f 175/290/57 179/293/57 180/294/57 177/291/57
f 170/105/58 178/295/58 180/294/58 179/293/58
f 178/295/59 182/296/59 183/297/59 180/294/59
f 171/30/60 181/298/60 183/299/60 182/300/60
f 181/298/61 185/301/61 186/302/61 183/299/61
f 172/45/56 184/303/56 186/302/56 185/301/56
f 184/303/57 188/304/57 189/305/57 186/302/57
f 173/114/58 187/306/58 189/307/58 188/308/58
f 187/306/59 191/309/59 192/310/59 189/307/59
f 174/9/60 190/311/60 192/310/60 191/309/60
f 190/311/61 176/312/61 177/313/61 192/310/61
f 177/291/62 180/294/62 183/297/62 186/314/62 189/315/62 192/316/62
f 193/79/63 196/317/63 198/318/63 197/319/63
f 196/317/64 200/320/64 201/321/64 198/318/64
f 194/4/65 199/322/65 201/323/65 200/324/65
f 199/322/66 203/325/66 204/326/66 201/323/66
f 195/88/67 202/327/67 204/328/67 203/329/67
f 202/330/68 197/319/68 198/318/68 204/331/68
f 198/318/27 201/321/27 204/331/27
f 205/80/69 208/332/69 210/333/69 209/334/69
f 208/332/70 212/335/70 213/336/70 210/333/70
f 206/87/71 211/337/71 213/338/71 212/339/71
f 211/340/72 215/341/72 216/342/72 213/343/72
f 207/111/73 214/344/73 216/342/73 215/341/73
f 214/344/74 209/345/74 210/346/74 216/342/74
f 210/333/75 213/336/75 216/347/75
f 217/3/76 220/348/76 222/349/76 221/350/76
f 220/348/77 224/351/77 225/352/77 222/349/77
f 218/72/78 223/353/78 225/354/78 224/355/78
f 223/353/79 227/356/79 228/357/79 225/354/79
f 219/85/80 226/358/80 228/359/80 227/360/80
f 226/358/81 221/350/81 222/349/81 228/359/81
f 222/361/82 225/354/82 228/357/82
f 229/112/83 232/362/83 234/363/83 233/364/83
f 232/362/84 236/365/84 237/366/84 234/363/84
f 230/86/85 235/367/85 237/368/85 236/369/85
f 235/370/86 239/371/86 240/372/86 237/373/86
f 231/71/87 238/374/87 240/372/87 239/371/87
f 238/374/88 233/375/88 234/376/88 240/372/88
f 234/363/89 237/366/89 240/377/89
f 241/107/90 244/378/90 246/379/90 245/380/90
f 244/378/91 248/381/91 249/382/91 246/379/91
f 242/56/92 247/383/92 249/384/92 248/385/92
f 247/386/93 251/387/93 252/388/93 249/389/93
f 243/25/94 250/390/94 252/391/94 251/392/94
f 250/390/95 245/393/95 246/394/95 252/391/95
f 246/379/96 249/382/96 252/395/96
f 253/108/97 256/396/97 258/397/97 257/398/97
f 256/399/98 260/400/98 261/401/98 258/402/98
f 254/28/99 259/403/99 261/404/99 260/405/99
f 259/403/100 263/406/100 264/407/100 261/404/100
f 255/31/101 262/408/101 264/409/101 263/410/101
f 262/411/102 257/412/102 258/413/102 264/414/102
f 258/402/103 261/401/103 264/407/103
f 265/55/104 268/415/104 270/416/104 269/417/104
f 268/415/105 272/418/105 273/419/105 270/416/105
f 266/24/106 271/420/106 273/421/106 272/422/106
f 271/420/107 275/423/107 276/424/107 273/421/107
f 267/26/108 274/425/108 276/426/108 275/427/108
f 274/425/109 269/428/109 270/429/109 276/426/109
f 270/416/110 273/419/110 276/430/110
f 277/32/111 280/431/111 282/432/111 281/433/111
f 280/434/112 284/435/112 285/436/112 282/437/112
f 278/27/113 283/438/113 285/439/113 284/440/113
f 283/438/114 287/441/114 288/442/114 285/439/114
f 279/23/115 286/443/115 288/442/115 287/441/115
f 286/443/116 281/444/116 282/445/116 288/442/116
f 282/437/117 285/436/117 288/442/117
f 289/39/78 292/446/78 294/447/78 293/448/78
f 292/446/79 296/449/79 297/450/79 294/447/79
f 290/100/80 295/451/80 297/452/80 296/453/80
f 295/451/81 299/454/81 300/455/81 297/452/81
f 291/42/76 298/456/76 300/457/76 299/458/76
f 298/456/77 293/448/77 294/447/77 300/457/77
f 294/447/118 297/452/118 300/457/118
f 301/40/104 304/459/104 306/460/104 305/461/104
f 304/459/105 308/462/105 309/463/105 306/460/105
f 302/41/106 307/464/106 309/465/106 308/466/106
f 307/464/107 311/467/107 312/468/107 309/465/107
f 303/15/108 310/469/108 312/468/108 311/467/108
f 310/469/109 305/470/109 306/471/109 312/468/109
f 306/460/119 309/465/119 312/468/119
f 313/84/63 316/472/63 318/473/63 317/474/63
f 316/472/64 320/475/64 321/476/64 318/473/64
f 314/43/65 319/477/65 321/478/65 320/479/65
f 319/477/66 323/480/66 324/481/66 321/478/66
f 315/99/67 322/482/67 324/481/67 323/480/67
f 322/482/68 317/483/68 318/484/68 324/481/68
f 318/473/120 321/478/120 324/481/120
f 325/83/111 328/485/111 330/486/111 329/487/111
f 328/485/112 332/488/112 333/489/112 330/486/112
f 326/16/113 331/490/113 333/491/113 332/492/113
f 331/490/114 335/493/114 336/494/114 333/491/114
f 327/44/115 334/495/115 336/496/115 335/497/115
f 334/495/116 329/487/116 330/486/116 336/496/116
f 330/486/121 333/491/121 336/496/121
f 337/115/97 340/498/97 342/499/97 341/500/97
f 340/501/98 344/502/98 345/503/98 342/504/98
f 338/48/99 343/505/99 345/506/99 344/507/99
f 343/505/100 347/508/100 348/509/100 345/506/100
f 339/60/101 346/510/101 348/511/101 347/512/101
f 346/513/102 341/500/102 342/499/102 348/514/102
f 342/504/62 345/506/62 348/509/62
f 349/116/73 352/515/73 354/516/73 353/517/73
f 352/515/74 356/518/74 357/519/74 354/516/74
f 350/59/69 355/520/69 357/521/69 356/522/69
f 355/520/70 359/523/70 360/524/70 357/521/70
f 351/19/71 358/525/71 360/524/71 359/523/71
f 358/526/72 353/527/72 354/528/72 360/529/72
f 354/516/122 357/519/122 360/530/122
f 361/67/65 364/531/65 366/532/65 365/533/65
f 364/531/66 368/534/66 369/535/66 366/532/66
f 362/20/67 367/536/67 369/537/67 368/538/67
f 367/536/68 371/539/68 372/540/68 369/537/68
f 363/58/63 370/541/63 372/542/63 371/543/63
f 370/541/64 365/533/64 366/532/64 372/542/64
f 366/532/123 369/537/123 372/542/123
f 373/68/115 376/544/115 378/545/115 377/546/115
f 376/544/116 380/547/116 381/548/116 378/545/116
f 374/57/111 379/549/111 381/550/111 380/551/111
f 379/549/112 383/552/112 384/553/112 381/550/112
f 375/47/113 382/554/113 384/553/113 383/552/113
f 382/554/114 377/555/114 378/556/114 384/553/114
f 378/545/124 381/550/124 384/553/124
f 385/96/108 388/557/108 390/558/108 389/559/108
f 388/557/109 392/560/109 393/561/109 390/558/109
f 386/76/104 391/562/104 393/563/104 392/564/104
f 391/562/105 395/565/105 396/566/105 393/563/105
f 387/567/106 394/568/106 396/566/106 395/565/106
f 394/568/107 389/569/107 390/570/107 396/566/107
f 390/558/20 393/563/20 396/566/20
f 397/95/94 400/571/94 402/572/94 401/573/94
f 400/571/95 404/574/95 405/575/95 402/572/95
f 398/36/90 403/576/90 405/577/90 404/578/90
f 403/576/91 407/579/91 408/580/91 405/577/91
f 399/73/92 406/581/92 408/582/92 407/583/92
f 406/581/93 401/573/93 402/572/93 408/582/93
f 402/572/125 405/577/125 408/582/125
f 409/584/76 412/585/76 414/586/76 413/587/76
f 412/585/77 416/588/77 417/589/77 414/586/77
f 410/75/78 415/590/78 417/591/78 416/592/78
f 415/590/79 419/593/79 420/594/79 417/591/79
f 411/63/80 418/595/80 420/594/80 419/593/80
f 418/595/81 413/596/81 414/597/81 420/594/81
f 414/586/126 417/591/126 420/594/126
f 421/35/83 424/598/83 426/599/83 425/600/83
f 424/598/84 428/601/84 429/602/84 426/599/84
f 422/64/85 427/603/85 429/604/85 428/605/85
f 427/603/86 431/606/86 432/607/86 429/604/86
f 423/74/87 430/608/87 432/609/87 431/610/87
f 430/608/88 425/600/88 426/599/88 432/609/88
f 426/599/127 429/604/127 432/609/127
f 433/52/94 436/611/94 438/612/94 437/613/94
f 436/611/95 440/614/95 441/615/95 438/612/95
f 434/92/90 439/616/90 441/617/90 440/618/90
f 439/616/91 443/619/91 444/620/91 441/617/91
f 435/7/92 442/621/92 444/620/92 443/619/92
f 442/621/93 437/622/93 438/623/93 444/620/93
f 438/612/128 441/617/128 444/620/128
f 445/51/99 448/624/99 450/625/99 449/626/99
f 448/624/100 452/627/100 453/628/100 450/625/100
f 446/12/101 451/629/101 453/630/101 452/631/101
f 451/629/102 455/632/102 456/633/102 453/630/102
f 447/89/97 454/634/97 456/635/97 455/636/97
f 454/634/98 449/626/98 450/625/98 456/635/98
f 450/625/129 453/630/129 456/635/129
f 457/11/69 460/637/69 462/638/69 461/639/69
f 460/637/70 464/640/70 465/641/70 462/638/70
f 458/104/71 463/642/71 465/643/71 464/644/71
f 463/642/72 467/645/72 468/646/72 465/643/72
f 459/90/73 466/647/73 468/648/73 467/649/73
f 466/647/74 461/639/74 462/638/74 468/648/74
f 462/638/130 465/643/130 468/648/130
f 469/8/87 472/650/87 474/651/87 473/652/87
f 472/650/88 476/653/88 477/654/88 474/651/88
f 470/91/83 475/655/83 477/656/83 476/657/83
f 475/655/84 479/658/84 480/659/84 477/656/84
f 471/103/85 478/660/85 480/659/85 479/658/85
f 478/660/86 473/661/86 474/662/86 480/659/86
f 474/651/41 477/656/41 480/659/41
f 126/106/131 170/105/131 179/293/131 142/260/131
f 142/260/132 179/293/132 175/290/132 128/241/132
f 128/241/133 175/290/133 169/50/133 121/49/133
f 30/54/134 125/53/134 140/255/134 46/164/134
f 46/164/135 140/255/135 136/252/135 32/144/135
f 32/144/136 136/252/136 124/94/136 25/93/136
f 6/38/137 27/37/137 38/151/137 22/139/137
f 22/139/138 38/151/138 34/148/138 8/120/138
f 8/120/139 34/148/139 26/147/139 1/117/139
f 173/114/140 146/113/140 155/266/140 187/306/140
f 187/306/141 155/266/141 151/263/141 191/309/141
f 191/309/142 151/263/142 145/10/142 174/9/142
f 49/66/143 73/65/143 80/193/143 55/167/143
f 55/167/144 80/193/144 94/212/144 59/170/144
f 59/170/145 94/212/145 78/82/145 50/81/145
f 102/34/146 123/33/146 134/247/146 118/236/146
f 118/236/147 134/247/147 130/244/147 104/217/147
f 104/217/148 130/244/148 122/6/148 97/5/148
f 53/78/149 148/77/149 161/274/149 67/183/149
f 67/183/150 161/274/150 157/271/150 71/186/150
f 71/186/151 157/271/151 147/18/151 54/17/151
f 4/2/152 52/1/152 65/178/152 16/131/152
f 16/131/153 65/178/153 61/175/153 20/134/153
f 20/134/154 61/175/154 51/98/154 5/97/154
f 171/30/155 75/29/155 86/199/155 181/298/155
f 181/298/156 86/199/156 82/196/156 185/301/156
f 185/301/157 82/196/157 74/46/157 172/45/157
f 149/110/158 99/109/158 110/223/158 163/281/158
f 163/281/159 110/223/159 106/220/159 167/284/159
f 167/284/160 106/220/160 98/102/160 150/101/160
f 100/70/161 3/69/161 14/126/161 112/228/161
f 112/228/162 14/126/162 10/123/162 116/231/162
f 116/231/163 10/123/163 2/62/163 101/61/163
f 76/22/164 29/21/164 44/159/164 88/204/164
f 88/204/165 44/159/165 40/156/165 92/207/165
f 92/207/166 40/156/166 28/14/166 77/13/166
f 195/88/167 206/87/167 212/339/167 202/327/167
f 202/330/150 212/335/150 208/332/150 197/319/150
f 197/319/168 208/332/168 205/80/168 193/79/168
f 219/85/169 195/88/169 203/329/169 226/358/169
f 226/358/153 203/329/153 199/322/153 221/350/153
f 221/350/170 199/322/170 194/4/170 217/3/170
f 206/87/171 230/86/171 236/369/171 211/337/171
f 211/340/159 236/365/159 232/362/159 215/341/159
f 215/341/172 232/362/172 229/112/172 207/111/172
f 230/86/173 219/85/173 227/360/173 235/367/173
f 235/370/162 227/356/162 223/353/162 239/371/162
f 239/371/174 223/353/174 218/72/174 231/71/174
f 99/109/175 229/112/175 233/364/175 109/225/175
f 109/225/176 233/364/176 238/374/176 113/230/176
f 113/230/177 238/374/177 231/71/177 100/70/177
f 217/3/178 4/2/178 17/133/178 220/348/178
f 220/348/179 17/133/179 13/128/179 224/355/179
f 224/355/180 13/128/180 3/69/180 218/72/180
f 52/1/181 194/4/181 200/324/181 64/180/181
f 64/180/182 200/324/182 196/317/182 68/185/182
f 68/185/183 196/317/183 193/79/183 53/78/183
f 207/111/184 149/110/184 164/283/184 214/344/184
f 214/344/185 164/283/185 160/663/185 209/345/185
f 209/334/186 160/276/186 148/77/186 205/80/186
f 243/25/187 254/28/187 260/405/187 250/390/187
f 250/390/132 260/405/132 256/664/132 245/393/132
f 245/380/188 256/396/188 253/108/188 241/107/188
f 267/26/189 243/25/189 251/392/189 274/425/189
f 274/425/135 251/392/135 247/665/135 269/428/135
f 269/417/190 247/383/190 242/56/190 265/55/190
f 254/28/191 278/27/191 284/440/191 259/403/191
f 259/403/156 284/440/156 280/666/156 263/406/156
f 263/410/192 280/431/192 277/32/192 255/31/192
f 278/27/193 267/26/193 275/427/193 283/438/193
f 283/438/165 275/427/165 271/420/165 287/441/165
f 287/441/194 271/420/194 266/24/194 279/23/194
f 29/21/195 266/24/195 272/422/195 43/161/195
f 43/161/196 272/422/196 268/415/196 47/166/196
f 47/166/197 268/415/197 265/55/197 30/54/197
f 241/107/198 126/106/198 143/262/198 244/378/198
f 244/378/199 143/262/199 139/257/199 248/385/199
f 248/385/200 139/257/200 125/53/200 242/56/200
f 170/105/201 253/108/201 257/398/201 178/295/201
f 178/295/202 257/398/202 262/667/202 182/296/202
f 182/300/203 262/408/203 255/31/203 171/30/203
f 279/23/204 76/22/204 89/206/204 286/443/204
f 286/443/205 89/206/205 85/201/205 281/433/205
f 281/433/206 85/201/206 75/29/206 277/32/206
f 291/42/207 302/41/207 308/466/207 298/456/207
f 298/456/138 308/466/138 304/459/138 293/448/138
f 293/448/208 304/459/208 301/40/208 289/39/208
f 313/84/209 325/83/209 329/487/209 316/472/209
f 316/472/144 329/487/144 334/495/144 320/479/144
f 320/479/210 334/495/210 327/44/210 314/43/210
f 290/100/211 315/99/211 323/480/211 295/451/211
f 295/451/153 323/480/153 319/477/153 299/458/153
f 299/458/170 319/477/170 314/43/170 291/42/170
f 326/16/212 303/15/212 311/467/212 331/490/212
f 331/490/165 311/467/165 307/464/165 335/497/165
f 335/497/194 307/464/194 302/41/194 327/44/194
f 77/13/213 326/16/213 332/492/213 91/209/213
f 91/209/214 332/492/214 328/485/214 95/214/214
f 95/214/215 328/485/215 325/83/215 78/82/215
f 315/99/216 51/98/216 62/177/216 322/482/216
f 322/482/217 62/177/217 58/172/217 317/474/217
f 317/474/218 58/172/218 50/81/218 313/84/218
f 5/97/219 290/100/219 296/453/219 19/136/219
f 19/136/220 296/453/220 292/446/220 23/141/220
f 23/141/221 292/446/221 289/39/221 6/38/221
f 303/15/222 28/14/222 41/158/222 310/469/222
f 310/469/223 41/158/223 37/153/223 305/461/223
f 305/461/224 37/153/224 27/37/224 301/40/224
f 339/60/225 350/59/225 356/522/225 346/510/225
f 346/513/141 356/518/141 352/515/141 341/500/141
f 341/500/226 352/515/226 349/116/226 337/115/226
f 363/58/209 374/57/209 380/551/209 370/541/209
f 370/541/144 380/551/144 376/544/144 365/533/144
f 365/533/227 376/544/227 373/68/227 361/67/227
f 362/20/167 351/19/167 359/523/167 367/536/167
f 367/536/150 359/523/150 355/520/150 371/543/150
f 371/543/228 355/520/228 350/59/228 363/58/228
f 338/48/191 375/47/191 383/552/191 343/505/191
f 343/505/156 383/552/156 379/549/156 347/512/156
f 347/512/229 379/549/229 374/57/229 339/60/229
f 73/65/230 373/68/230 377/546/230 79/191/230
f 79/191/231 377/546/231 382/554/231 83/198/231
f 83/198/232 382/554/232 375/47/232 74/46/232
f 337/115/233 173/114/233 188/308/233 340/498/233
f 340/668/234 188/304/234 184/303/234 344/507/234
f 344/507/235 184/303/235 172/45/235 338/48/235
f 146/113/236 349/116/236 353/517/236 154/268/236
f 154/268/237 353/517/237 358/669/237 158/269/237
f 158/273/238 358/525/238 351/19/238 147/18/238
f 361/67/239 49/66/239 56/169/239 364/531/239
f 364/531/240 56/169/240 70/188/240 368/538/240
f 368/538/241 70/188/241 54/17/241 362/20/241
f 385/96/189 397/95/189 401/573/189 388/557/189
f 388/557/135 401/573/135 406/581/135 392/564/135
f 392/564/242 406/581/242 399/73/242 386/76/242
f 409/584/243 387/567/243 395/565/243 412/585/243
f 412/585/138 395/565/138 391/562/138 416/592/138
f 416/592/208 391/562/208 386/76/208 410/75/208
f 423/74/244 399/73/244 407/583/244 430/608/244
f 430/608/147 407/583/147 403/576/147 425/600/147
f 425/600/245 403/576/245 398/36/245 421/35/245
f 422/64/173 411/63/173 419/593/173 427/603/173
f 427/603/162 419/593/162 415/590/162 431/610/162
f 431/610/246 415/590/246 410/75/246 423/74/246
f 123/33/247 398/36/247 404/578/247 133/249/247
f 133/249/248 404/578/248 400/571/248 137/254/248
f 137/254/249 400/571/249 397/95/249 124/94/249
f 387/567/250 26/147/250 35/150/250 394/568/250
f 394/568/251 35/150/251 31/142/251 389/559/251
f 389/559/252 31/142/252 25/93/252 385/96/252
f 1/117/253 409/584/253 413/587/253 7/118/253
f 7/118/254 413/587/254 418/595/254 11/125/254
f 11/125/255 418/595/255 411/63/255 2/62/255
f 421/35/256 102/34/256 119/238/256 424/598/256
f 424/598/257 119/238/257 115/233/257 428/605/257
f 428/605/258 115/233/258 101/61/258 422/64/258
f 433/52/259 445/51/259 449/626/259 436/611/259
f 436/611/132 449/626/132 454/634/132 440/618/132
f 440/618/188 454/634/188 447/89/188 434/92/188
f 446/12/225 457/11/225 461/639/225 451/629/225
f 451/629/141 461/639/141 466/647/141 455/636/141
f 455/636/260 466/647/260 459/90/260 447/89/260
f 469/8/244 435/7/244 443/619/244 472/650/244
f 472/650/147 443/619/147 439/616/147 476/657/147
f 476/657/261 439/616/261 434/92/261 470/91/261
f 458/104/262 471/103/262 479/658/262 463/642/262
f 463/642/159 479/658/159 475/655/159 467/649/159
f 467/649/172 475/655/172 470/91/172 459/90/172
f 174/9/263 446/12/263 452/631/263 190/311/263
f 190/311/264 452/631/264 448/624/264 176/292/264
f 176/292/265 448/624/265 445/51/265 169/50/265
f 435/7/266 122/6/266 131/246/266 442/621/266
f 442/621/267 131/246/267 127/239/267 437/613/267
f 437/613/268 127/239/268 121/49/268 433/52/268
f 97/5/269 469/8/269 473/652/269 103/215/269
f 103/215/270 473/652/270 478/660/270 107/222/270
f 107/222/271 478/660/271 471/103/271 98/102/271
f 457/11/272 145/10/272 152/265/272 460/637/272
f 460/637/273 152/265/273 166/286/273 464/644/273
f 464/644/274 166/286/274 150/101/274 458/104/274
f 1/117/1 26/147/1 387/567/1 409/584/1
