# Blender v2.90.0 OBJ File: ''
# www.blender.org
mtllib Rooster.mtl
o Rooster
v -0.001938 -0.001412 -0.194300
v 0.064641 -0.001412 -0.192498
v 0.212841 -0.001412 -0.114961
v 0.020891 -0.001412 -0.102845
v -0.018998 -0.001412 -0.331055
v -0.000567 -0.001412 -0.334936
v -0.211225 -0.001412 0.045149
v 0.054608 -0.001412 0.014648
v -0.084942 -0.001412 0.114079
v -0.018338 -0.001412 -0.397608
v -0.037429 -0.001412 -0.327175
v -0.036769 -0.001412 -0.393728
v 0.282268 -0.001412 0.012514
v 0.157376 -0.001412 0.150451
v 0.070373 -0.001412 0.154864
v -0.209230 -0.001412 -0.062363
v -0.001654 -0.001412 -0.397769
v -0.068518 -0.001412 -0.196102
v 0.244380 -0.001412 0.146039
v 0.240901 -0.001412 0.192963
v 0.188476 -0.001412 0.209104
v 0.232701 -0.001412 0.332650
v 0.280684 -0.001412 0.276218
v 0.297410 -0.001412 0.297067
v 0.158095 -0.001412 0.287134
v 0.212909 -0.001412 0.276471
v 0.157041 -0.001412 0.337874
v 0.136053 -0.001412 0.225246
v 0.297316 -0.001412 0.325833
v 0.247862 -0.001412 0.391720
v 0.191658 -0.001412 0.383709
v 0.263957 -0.001412 0.255368
v 0.304887 -0.001412 0.353557
v 0.367731 -0.001412 0.298647
v 0.358006 -0.001412 0.283652
v 0.373168 -0.001412 0.273665
v 0.377450 -0.001412 0.274872
v 0.357063 -0.001412 0.282634
v 0.340999 -0.001412 0.277008
v 0.368620 -0.001412 0.272796
v 0.370930 -0.001412 0.274399
v 0.317058 -0.001412 0.278704
v 0.333077 -0.001412 0.291041
v 0.335882 -0.001412 0.291683
v 0.340008 -0.001412 0.314609
v -0.265320 0.005326 0.216387
v -0.309131 0.005326 0.177767
v -0.236313 0.005326 0.066691
v -0.188988 0.005326 0.098793
v -0.445773 0.005326 0.303355
v -0.489583 0.005326 0.264735
v -0.391867 0.005326 0.235356
v -0.348057 0.005326 0.273977
v -0.624145 0.005326 0.215630
v -0.608278 0.005326 0.215243
v -0.542370 0.005326 0.248561
v -0.549567 0.005326 0.278901
v -0.400387 0.005326 0.059697
v -0.378914 0.005326 0.036020
v -0.346179 0.005326 0.067192
v -0.398450 0.005326 0.093828
v -0.346236 0.005326 0.019785
v -0.313500 0.005326 0.050958
v -0.301113 0.005326 0.016477
v -0.269588 0.005326 0.043270
v -0.458817 0.005326 0.148718
v -0.431309 0.005326 0.115877
v -0.394186 0.005326 0.186963
v -0.442917 0.005326 0.193903
v -0.370371 0.005326 0.078347
v -0.308217 0.005326 0.115279
v -0.275986 0.005326 0.037403
v -0.236629 0.005326 0.060865
v -0.448123 0.005326 0.211726
v -0.427480 0.005326 0.244298
v -0.488952 0.005326 0.261874
v -0.509593 0.005326 0.229302
v -0.360029 0.005326 0.162163
v -0.314162 0.005326 0.182634
v -0.391970 0.005326 0.232169
v -0.404479 0.005326 0.193019
v -0.251658 0.005326 0.055143
v -0.235466 0.005326 0.071668
v -0.246552 0.006410 -0.069423
v -0.273629 0.006410 -0.019478
v -0.319398 0.006410 -0.035045
v -0.311937 0.006410 -0.060622
v -0.193113 0.006410 -0.048238
v -0.218556 0.006410 -0.006602
v -0.287775 0.006596 0.030812
v -0.326773 0.006596 -0.014467
v -0.303487 0.006596 -0.022645
v -0.256429 0.006596 0.014170
v -0.224402 0.006596 0.079539
v -0.206337 0.006596 0.045764
v -0.329812 0.011958 0.009494
v -0.290876 0.011958 -0.018395
v -0.274604 0.011958 0.027843
v -0.304919 0.011958 0.032553
v -0.209711 0.011958 -0.026663
v -0.210171 0.011958 0.011715
v 0.313231 0.004765 0.377705
v 0.331205 0.004765 0.365097
v 0.336445 0.004765 0.372420
v 0.333686 0.004765 0.379611
v 0.326921 0.004765 0.382245
v 0.305328 0.004765 0.352216
v 0.290344 0.004765 0.362499
v 0.309505 0.004765 0.382340
v 0.285087 0.004765 0.366107
v 0.291293 0.004765 0.396477
v 0.270529 0.004765 0.376097
v 0.310724 0.004765 0.404980
v 0.320539 0.004765 0.392435
v 0.319923 0.004765 0.400868
v 0.284017 0.004765 0.398585
v 0.262062 0.004765 0.381907
v 0.268386 0.004765 0.412566
v 0.248962 0.004765 0.392315
v 0.287010 0.004765 0.429163
v 0.299355 0.004765 0.419263
v 0.296168 0.004765 0.426755
v 0.257108 0.004765 0.415002
v 0.240289 0.004765 0.390851
v 0.237132 0.004765 0.417881
v 0.219561 0.004765 0.387353
v 0.256551 0.004765 0.443432
v 0.269655 0.004765 0.436413
v 0.265372 0.004765 0.444635
v 0.230635 0.004765 0.420086
v 0.204741 0.004765 0.384853
v 0.211460 0.004765 0.423494
v 0.191225 0.004765 0.382572
v 0.231514 0.004765 0.450921
v 0.246699 0.004765 0.447917
v 0.239640 0.004765 0.452328
v -0.130981 0.006596 0.086451
v -0.164879 0.006596 0.111424
v -0.047077 0.006596 0.124421
v -0.078423 0.006596 0.141064
v -0.198518 0.005326 0.180124
v -0.233672 0.005326 0.157371
v -0.193815 0.005326 0.092560
v -0.160555 0.005326 0.113064
v -0.388046 0.005326 0.313234
v -0.439582 0.005326 0.296853
v -0.341866 0.005326 0.267474
v -0.316891 0.005326 0.287261
v -0.267303 0.005326 0.213760
v -0.233393 0.005326 0.223221
v -0.002741 -0.001412 -0.460603
v -0.017678 -0.001412 -0.464158
v -0.019807 -0.001412 -0.486334
v -0.004870 -0.001412 -0.482777
v -0.036109 -0.001412 -0.460278
v -0.038239 -0.001412 -0.482454
v 0.084067 -0.001412 -0.494422
v 0.082036 -0.001412 -0.505717
v 0.092253 -0.001412 -0.509754
v -0.020526 -0.001412 -0.510586
v -0.038956 -0.001412 -0.506706
v -0.034727 -0.001412 -0.522601
v -0.023904 -0.001412 -0.524879
v -0.116300 -0.001412 -0.487366
v -0.115236 -0.001412 -0.476279
v -0.129600 -0.001412 -0.492334
v 0.051301 -0.001412 -0.495486
v 0.055251 -0.001412 -0.477184
v -0.079772 -0.001412 -0.467120
v -0.081901 -0.001412 -0.489295
v -0.001930 -0.001412 -0.413719
v -0.018171 -0.001412 -0.414501
v -0.036601 -0.001412 -0.410621
v -0.063959 -0.001412 -0.408945
v -0.064085 -0.001412 -0.396414
v -0.080862 -0.001412 -0.406996
v -0.080805 -0.001412 -0.412758
v 0.165910 -0.012069 -0.493725
v 0.163362 -0.012069 -0.507897
v 0.171182 -0.012069 -0.507896
v 0.173213 -0.012069 -0.496601
v -0.312902 -0.014124 0.024700
v -0.282587 -0.014124 0.019990
v -0.259173 -0.014124 0.057786
v -0.289487 -0.014124 0.062496
v -0.218153 -0.014124 0.003862
v -0.194737 -0.014124 0.041658
v 0.074214 -0.001412 -0.505718
v 0.076764 -0.001412 -0.491546
v -0.105214 -0.001412 -0.490169
v -0.103816 -0.001412 -0.475609
v 0.288196 0.004764 0.254142
v 0.294581 0.004764 0.257503
v 0.295923 0.004764 0.264506
v 0.279727 0.004764 0.261384
v 0.280470 0.004764 0.255796
v 0.279356 0.004764 0.270185
v 0.297135 0.004764 0.272096
v 0.307557 0.004764 0.254842
v 0.313941 0.004764 0.258203
v 0.315285 0.004764 0.265203
v 0.299089 0.004764 0.262083
v 0.299831 0.004764 0.256496
v 0.314914 0.004764 0.274005
v 0.315207 0.004764 0.278575
v 0.297637 0.004764 0.277751
v 0.279527 0.004764 0.277215
v -0.016066 -0.012069 -0.492348
v -0.014669 -0.012069 -0.477788
v -0.026088 -0.012069 -0.478458
v -0.027154 -0.012069 -0.489545
v 0.144398 -0.012069 -0.479363
v 0.140449 -0.012069 -0.497665
v 0.025187 -0.012069 -0.411124
v 0.025064 -0.012069 -0.398593
v 0.008285 -0.012069 -0.409174
v 0.008342 -0.012069 -0.414937
v 0.086406 -0.012069 -0.462782
v 0.087216 -0.012069 -0.415897
v 0.070976 -0.012069 -0.416680
v 0.071468 -0.012069 -0.466337
v 0.052546 -0.012069 -0.412800
v 0.053038 -0.012069 -0.462458
v 0.070809 -0.012069 -0.399786
v 0.052379 -0.012069 -0.395906
v 0.087492 -0.012069 -0.399948
v 0.069339 -0.012069 -0.488513
v 0.050909 -0.012069 -0.484633
v 0.050190 -0.012069 -0.508885
v 0.068622 -0.012069 -0.512765
v 0.009376 -0.012069 -0.469299
v 0.007245 -0.012069 -0.491474
v 0.084276 -0.012069 -0.484956
v -0.040452 -0.012069 -0.494513
v 0.054420 -0.012069 -0.524779
v 0.065243 -0.012069 -0.527057
v 0.181401 -0.012069 -0.511933
v 0.051719 -0.012069 -0.329354
v 0.070149 -0.012069 -0.333234
v 0.080462 -0.012069 -0.154637
v -0.002986 -0.012069 -0.178534
v 0.088579 -0.012069 -0.337114
v 0.163908 -0.012069 -0.130742
vn 0.0000 -1.0000 -0.0000
usemtl Rooster
s 1
f 1//1 2//1 3//1
f 3//1 4//1 1//1
f 5//1 6//1 2//1
f 2//1 1//1 5//1
f 7//1 8//1 9//1
f 10//1 5//1 11//1
f 11//1 12//1 10//1
f 13//1 8//1 4//1
f 4//1 3//1 13//1
f 8//1 14//1 15//1
f 15//1 9//1 8//1
f 16//1 4//1 8//1
f 8//1 7//1 16//1
f 17//1 6//1 5//1
f 5//1 10//1 17//1
f 11//1 5//1 1//1
f 1//1 18//1 11//1
f 18//1 1//1 4//1
f 4//1 16//1 18//1
f 14//1 19//1 20//1
f 20//1 21//1 14//1
f 22//1 23//1 24//1
f 25//1 26//1 22//1
f 22//1 27//1 25//1
f 15//1 14//1 21//1
f 21//1 28//1 15//1
f 8//1 13//1 19//1
f 19//1 14//1 8//1
f 22//1 24//1 29//1
f 27//1 22//1 30//1
f 30//1 31//1 27//1
f 28//1 21//1 26//1
f 26//1 25//1 28//1
f 21//1 20//1 32//1
f 32//1 26//1 21//1
f 22//1 29//1 33//1
f 33//1 30//1 22//1
f 34//1 35//1 36//1
f 36//1 37//1 34//1
f 26//1 32//1 23//1
f 23//1 22//1 26//1
f 38//1 39//1 40//1
f 40//1 41//1 38//1
f 24//1 23//1 42//1
f 42//1 43//1 24//1
f 29//1 24//1 44//1
f 44//1 45//1 29//1
f 43//1 42//1 39//1
f 39//1 38//1 43//1
f 45//1 44//1 35//1
f 35//1 34//1 45//1
f 46//1 47//1 48//1
f 48//1 49//1 46//1
f 50//1 51//1 52//1
f 52//1 53//1 50//1
f 54//1 55//1 56//1
f 56//1 57//1 54//1
f 53//1 52//1 47//1
f 47//1 46//1 53//1
f 57//1 56//1 51//1
f 51//1 50//1 57//1
f 58//1 59//1 60//1
f 60//1 61//1 58//1
f 59//1 62//1 63//1
f 63//1 60//1 59//1
f 62//1 64//1 65//1
f 65//1 63//1 62//1
f 66//1 67//1 68//1
f 68//1 69//1 66//1
f 67//1 70//1 71//1
f 71//1 68//1 67//1
f 70//1 72//1 73//1
f 73//1 71//1 70//1
f 74//1 75//1 76//1
f 76//1 77//1 74//1
f 78//1 79//1 80//1
f 80//1 81//1 78//1
f 81//1 80//1 75//1
f 75//1 74//1 81//1
f 82//1 83//1 79//1
f 79//1 78//1 82//1
f 84//1 85//1 86//1
f 86//1 87//1 84//1
f 88//1 89//1 85//1
f 85//1 84//1 88//1
f 90//1 91//1 92//1
f 92//1 93//1 90//1
f 94//1 90//1 93//1
f 93//1 95//1 94//1
f 96//1 97//1 98//1
f 98//1 99//1 96//1
f 97//1 100//1 101//1
f 101//1 98//1 97//1
f 102//1 103//1 104//1
f 104//1 105//1 106//1
f 104//1 106//1 102//1
f 107//1 103//1 102//1
f 102//1 108//1 107//1
f 108//1 102//1 109//1
f 109//1 110//1 108//1
f 110//1 109//1 111//1
f 111//1 112//1 110//1
f 113//1 111//1 109//1
f 109//1 114//1 115//1
f 109//1 115//1 113//1
f 112//1 111//1 116//1
f 116//1 117//1 112//1
f 117//1 116//1 118//1
f 118//1 119//1 117//1
f 120//1 118//1 116//1
f 116//1 121//1 122//1
f 116//1 122//1 120//1
f 119//1 118//1 123//1
f 123//1 124//1 119//1
f 124//1 123//1 125//1
f 125//1 126//1 124//1
f 127//1 125//1 123//1
f 123//1 128//1 129//1
f 123//1 129//1 127//1
f 126//1 125//1 130//1
f 130//1 131//1 126//1
f 131//1 130//1 132//1
f 132//1 133//1 131//1
f 134//1 132//1 130//1
f 130//1 135//1 136//1
f 130//1 136//1 134//1
f 94//1 95//1 137//1
f 137//1 138//1 94//1
f 138//1 137//1 139//1
f 139//1 140//1 138//1
f 141//1 142//1 143//1
f 143//1 144//1 141//1
f 145//1 146//1 147//1
f 147//1 148//1 145//1
f 148//1 147//1 149//1
f 149//1 150//1 148//1
f 150//1 149//1 142//1
f 142//1 141//1 150//1
f 151//1 152//1 153//1
f 153//1 154//1 151//1
f 152//1 155//1 156//1
f 156//1 153//1 152//1
f 157//1 158//1 159//1
f 160//1 161//1 162//1
f 162//1 163//1 160//1
f 164//1 165//1 166//1
f 151//1 154//1 167//1
f 167//1 168//1 151//1
f 156//1 155//1 169//1
f 169//1 170//1 156//1
f 153//1 156//1 161//1
f 161//1 160//1 153//1
f 171//1 17//1 10//1
f 10//1 172//1 171//1
f 172//1 10//1 12//1
f 12//1 173//1 172//1
f 152//1 172//1 173//1
f 173//1 155//1 152//1
f 151//1 171//1 172//1
f 172//1 152//1 151//1
f 174//1 175//1 176//1
f 176//1 177//1 174//1
f 178//1 179//1 180//1
f 180//1 181//1 178//1
f 182//1 183//1 184//1
f 184//1 185//1 182//1
f 183//1 186//1 187//1
f 187//1 184//1 183//1
f 168//1 167//1 188//1
f 188//1 189//1 168//1
f 190//1 191//1 165//1
f 165//1 164//1 190//1
f 189//1 188//1 158//1
f 158//1 157//1 189//1
f 170//1 169//1 191//1
f 191//1 190//1 170//1
f 192//1 193//1 194//1
f 195//1 192//1 194//1
f 195//1 196//1 192//1
f 197//1 195//1 194//1
f 194//1 198//1 197//1
f 199//1 200//1 201//1
f 202//1 199//1 201//1
f 202//1 203//1 199//1
f 198//1 202//1 201//1
f 201//1 204//1 198//1
f 204//1 205//1 206//1
f 206//1 198//1 204//1
f 198//1 206//1 207//1
f 207//1 197//1 198//1
f 208//1 209//1 210//1
f 210//1 211//1 208//1
f 212//1 213//1 179//1
f 179//1 178//1 212//1
f 214//1 215//1 216//1
f 216//1 217//1 214//1
f 218//1 219//1 220//1
f 220//1 221//1 218//1
f 221//1 220//1 222//1
f 222//1 223//1 221//1
f 220//1 224//1 225//1
f 225//1 222//1 220//1
f 219//1 226//1 224//1
f 224//1 220//1 219//1
f 227//1 228//1 229//1
f 229//1 230//1 227//1
f 228//1 223//1 231//1
f 231//1 232//1 228//1
f 218//1 233//1 213//1
f 213//1 212//1 218//1
f 211//1 210//1 234//1
f 230//1 229//1 235//1
f 235//1 236//1 230//1
f 181//1 180//1 237//1
f 221//1 223//1 228//1
f 228//1 227//1 221//1
f 218//1 221//1 227//1
f 227//1 233//1 218//1
f 173//1 12//1 175//1
f 175//1 174//1 173//1
f 238//1 239//1 240//1
f 240//1 241//1 238//1
f 226//1 242//1 239//1
f 239//1 224//1 226//1
f 224//1 239//1 238//1
f 238//1 225//1 224//1
f 239//1 242//1 243//1
f 243//1 240//1 239//1
f 232//1 231//1 209//1
f 209//1 208//1 232//1
f 222//1 225//1 215//1
f 215//1 214//1 222//1
