# Blender v3.1.2 OBJ File: ''
# www.blender.org
mtllib Star.mtl
o Star
v 0.003528 -0.131737 -0.000140
v -0.003528 0.131737 0.000140
v 0.256115 -0.122252 -0.079125
v 0.251471 -0.125012 -0.080059
v 0.254685 -0.122285 -0.083566
v 0.254189 -0.124167 -0.079983
v 0.254238 -0.123822 -0.080959
v 0.253630 -0.124180 -0.081720
v 0.254917 -0.122282 -0.081190
v 0.247770 0.135918 -0.083291
v 0.244415 0.138462 -0.079778
v 0.249201 0.135952 -0.078850
v 0.246616 0.137750 -0.081440
v 0.247242 0.137424 -0.080681
v 0.247175 0.137763 -0.079703
v 0.248002 0.135922 -0.080914
v 0.502337 -0.115916 0.162141
v 0.501611 -0.115937 0.164358
v 0.498633 -0.118651 0.162129
v 0.503146 -0.115896 0.163634
v 0.502116 -0.117445 0.163281
v 0.500526 -0.117830 0.163625
v 0.501040 -0.117815 0.162057
v 0.491577 0.144822 0.162409
v 0.494697 0.142267 0.164633
v 0.495423 0.142288 0.162417
v 0.493199 0.144091 0.164062
v 0.494972 0.143797 0.163511
v 0.495990 0.142302 0.163830
v 0.493867 0.144111 0.162024
v 0.160415 -0.125126 0.213100
v 0.156635 -0.125230 0.215833
v 0.156133 -0.127875 0.211056
v 0.158227 -0.125186 0.214055
v 0.157825 -0.126718 0.213440
v 0.156887 -0.127086 0.213687
v 0.158366 -0.127045 0.212618
v 0.153500 0.133078 0.213375
v 0.149078 0.135598 0.211337
v 0.149720 0.132974 0.216109
v 0.151352 0.134885 0.212897
v 0.150829 0.134528 0.213719
v 0.149873 0.134844 0.213966
v 0.151313 0.133018 0.214330
v 0.003351 -0.129664 0.524636
v 0.001019 -0.129727 0.524630
v 0.002265 -0.132326 0.521038
v 0.002182 -0.129697 0.525866
v 0.002226 -0.131217 0.524737
v 0.001414 -0.131579 0.523323
v 0.003063 -0.131535 0.523327
v -0.003563 0.128540 0.524911
v -0.004791 0.131147 0.521319
v -0.005895 0.128477 0.524905
v -0.003951 0.130395 0.523606
v -0.004770 0.130029 0.525016
v -0.005600 0.130351 0.523602
v -0.004732 0.128507 0.526142
v -0.154532 -0.133559 0.212327
v -0.150100 -0.136075 0.210305
v -0.150765 -0.133461 0.215079
v -0.152381 -0.135366 0.211855
v -0.151862 -0.135010 0.212680
v -0.150908 -0.135327 0.212932
v -0.152349 -0.133502 0.213293
v -0.157155 0.127398 0.210586
v -0.161447 0.124645 0.212602
v -0.157680 0.124743 0.215354
v -0.159395 0.126564 0.212135
v -0.158858 0.126236 0.212959
v -0.159264 0.124702 0.213568
v -0.157922 0.126603 0.213211
v -0.495488 -0.142636 0.161911
v -0.496204 -0.142653 0.159691
v -0.492358 -0.145186 0.159697
v -0.497019 -0.142676 0.161179
v -0.495906 -0.144168 0.160832
v -0.494806 -0.144480 0.159613
v -0.494300 -0.144468 0.161184
v -0.503118 0.115551 0.159966
v -0.502403 0.115568 0.162187
v -0.499413 0.118287 0.159978
v -0.503934 0.115528 0.161455
v -0.502902 0.117078 0.161111
v -0.501314 0.117462 0.161463
v -0.501820 0.117450 0.159893
v -0.248815 -0.135772 -0.080364
v -0.247363 -0.135728 -0.084798
v -0.244025 -0.138279 -0.081275
v -0.247606 -0.135737 -0.082423
v -0.246847 -0.137240 -0.082189
v -0.246217 -0.137564 -0.082946
v -0.246785 -0.137581 -0.081212
v -0.255730 0.122432 -0.080089
v -0.251080 0.125194 -0.080994
v -0.254277 0.122476 -0.084523
v -0.253799 0.124349 -0.080933
v -0.253843 0.124007 -0.081910
v -0.253232 0.124366 -0.082667
v -0.254521 0.122467 -0.082148
v -0.304802 -0.136904 -0.424759
v -0.302912 -0.136852 -0.426126
v -0.301683 -0.139459 -0.422534
v -0.304580 -0.136896 -0.426442
v -0.303879 -0.138401 -0.425530
v -0.302374 -0.138703 -0.424869
v -0.303711 -0.138740 -0.423903
v -0.308739 0.124014 -0.422253
v -0.309827 0.121352 -0.425851
v -0.311717 0.121300 -0.424484
v -0.309042 0.123236 -0.424534
v -0.310783 0.122848 -0.425125
v -0.311345 0.121311 -0.425961
v -0.310780 0.123188 -0.423277
v 0.001767 -0.128865 -0.264937
v 0.006431 -0.128740 -0.264926
v 0.004159 -0.131442 -0.260730
v 0.004098 -0.128803 -0.264423
v 0.004137 -0.130325 -0.263668
v 0.005057 -0.130643 -0.263312
v 0.003233 -0.130692 -0.263317
v -0.005147 0.129339 -0.264662
v -0.002896 0.132032 -0.260449
v -0.000483 0.129464 -0.264650
v -0.003781 0.131238 -0.263037
v -0.002859 0.130921 -0.263390
v -0.001957 0.131287 -0.263033
v -0.002817 0.129401 -0.264148
v 0.310782 -0.123060 -0.421032
v 0.311888 -0.120390 -0.424617
v 0.313771 -0.120341 -0.423242
v 0.311097 -0.122277 -0.423309
v 0.312841 -0.121887 -0.423891
v 0.313406 -0.120349 -0.424720
v 0.312829 -0.122232 -0.422044
v 0.306857 0.137863 -0.422966
v 0.304973 0.137814 -0.424342
v 0.303727 0.140413 -0.420751
v 0.306642 0.137859 -0.424650
v 0.305937 0.139361 -0.423738
v 0.304429 0.139662 -0.423084
v 0.305761 0.139697 -0.422111
vn 0.6995 0.0195 -0.7144
vn 0.0268 -0.9996 -0.0011
vn 0.1413 0.0027 0.9900
vn 0.8953 0.0235 0.4448
vn -0.8975 -0.0245 0.4404
vn -0.1461 -0.0050 0.9893
vn -0.6960 -0.0179 -0.7178
vn -0.9857 -0.0266 0.1666
vn 0.4673 0.0135 -0.8840
vn -0.4630 -0.0115 -0.8863
vn -0.0268 0.9996 0.0011
vn 0.9848 0.0262 0.1715
vn 0.7778 -0.5232 -0.3483
vn 0.3622 -0.9256 -0.1097
vn 0.8372 -0.5218 -0.1640
vn 0.8080 0.5662 -0.1628
vn 0.3121 0.9439 -0.1077
vn 0.7487 0.5648 -0.3472
vn 0.7609 -0.4550 -0.4626
vn 0.3425 -0.4676 0.8149
vn 0.2996 -0.9499 0.0888
vn 0.2594 0.9611 0.0944
vn 0.3851 0.4997 0.7759
vn 0.7665 0.5111 -0.3888
vn 0.4241 -0.5338 0.7316
vn 0.5811 -0.5295 0.6181
vn 0.2326 -0.9295 0.2862
vn 0.3950 0.5542 0.7327
vn 0.1825 0.9400 0.2882
vn 0.5519 0.5585 0.6193
vn 0.6833 -0.4582 0.5685
vn -0.6606 -0.4942 0.5652
vn 0.0249 -0.9575 0.2874
vn 0.6578 0.4929 0.5695
vn -0.0263 0.9568 0.2894
vn -0.6860 0.4569 0.5662
vn -0.3985 -0.5558 0.7295
vn -0.1839 -0.9407 0.2852
vn -0.5549 -0.5599 0.6153
vn -0.2339 0.9289 0.2872
vn -0.4277 0.5321 0.7307
vn -0.5840 0.5281 0.6165
vn -0.3210 -0.4853 0.8133
vn -0.7332 -0.4950 -0.4663
vn -0.2488 -0.9646 0.0874
vn -0.7586 0.4561 -0.4653
vn -0.3465 0.4657 0.8143
vn -0.3001 0.9497 0.0895
vn -0.7470 -0.5640 -0.3521
vn -0.8072 -0.5658 -0.1680
vn -0.3116 -0.9437 -0.1113
vn -0.7761 0.5240 -0.3509
vn -0.3617 0.9259 -0.1093
vn -0.8364 0.5221 -0.1669
vn -0.8641 -0.4989 -0.0666
vn 0.2251 -0.4689 -0.8541
vn -0.1433 -0.9614 -0.2348
vn -0.2012 0.9492 -0.2421
vn 0.1203 0.4943 -0.8609
vn -0.8726 0.4670 -0.1429
vn 0.1134 -0.5404 -0.8337
vn -0.0802 -0.5456 -0.8342
vn 0.0259 -0.9344 -0.3554
vn 0.0842 0.5475 -0.8325
vn -0.0242 0.9352 -0.3534
vn -0.1093 0.5423 -0.8330
vn 0.2024 -0.9486 -0.2433
vn -0.1162 -0.4924 -0.8626
vn 0.8733 -0.4666 -0.1398
vn 0.8644 0.4991 -0.0612
vn -0.2209 0.4709 -0.8541
vn 0.1444 0.9620 -0.2319
vn 0.9949 0.0267 -0.0971
vn 0.8644 0.0237 -0.5022
vn 0.2430 0.9310 -0.2724
vn 0.6360 0.4006 -0.6596
vn 0.0294 0.9246 0.3798
vn 0.1203 0.3851 0.9150
vn 0.3270 0.9286 0.1757
vn 0.8072 0.4275 0.4070
vn -0.3771 0.9097 0.1740
vn -0.8309 0.3837 0.4030
vn -0.1228 -0.4106 0.9035
vn -0.0328 -0.9213 0.3875
vn -0.2980 0.9123 -0.2809
vn -0.6470 0.3898 -0.6554
vn -0.4019 0.9134 0.0648
vn -0.9209 0.3580 0.1544
vn 0.1541 0.9287 -0.3373
vn 0.4215 0.3950 -0.8163
vn 0.4016 -0.9135 0.0646
vn 0.9201 -0.3583 0.1580
vn 0.8891 0.4300 0.1570
vn 0.3622 0.9296 0.0683
vn -0.0821 0.9174 0.3895
vn -0.1446 0.4015 0.9044
vn -0.4310 -0.0125 0.9023
vn -0.8765 -0.0230 -0.4808
vn 0.6502 -0.3883 -0.6531
vn 0.2994 -0.9117 -0.2815
vn -0.6252 -0.4224 -0.6562
vn -0.2488 -0.9263 -0.2828
vn -0.7478 -0.0207 0.6636
vn -0.4043 -0.0118 0.9146
vn -0.1278 -0.0027 -0.9918
vn 0.9833 0.0262 -0.1801
vn 0.9034 0.0250 -0.4280
vn 0.4751 0.0121 0.8798
vn -0.8620 -0.0225 -0.5064
vn -0.9944 -0.0265 -0.1020
vn 0.1402 -0.4036 0.9041
vn 0.0802 -0.9182 0.3878
vn -0.8898 -0.4304 0.1517
vn -0.3625 -0.9298 0.0644
vn -0.2064 0.9148 -0.3471
vn -0.4338 0.3956 -0.8095
vn 0.3998 0.0097 0.9165
vn 0.7446 0.0192 0.6673
vn -0.9824 -0.0258 -0.1850
vn 0.1326 0.0050 -0.9912
vn 0.8289 -0.3846 0.4061
vn 0.3762 -0.9101 0.1738
vn 0.4378 -0.3938 -0.8083
vn 0.2081 -0.9140 -0.3482
vn 0.7246 0.0187 0.6889
vn -0.7280 -0.0202 0.6853
vn 0.2151 0.0068 -0.9766
vn -0.2103 -0.0046 -0.9776
vn -0.8092 -0.4285 0.4021
vn -0.3278 -0.9289 0.1720
vn -0.4175 -0.3931 -0.8192
vn -0.1525 -0.9279 -0.3401
usemtl dtmo_base_mat
s off
f 3//1 12//1 26//1 17//1
f 4//2 1//2 129//2
f 18//3 25//3 38//3 31//3
f 32//4 40//4 52//4 45//4
f 46//5 54//5 68//5 61//5
f 59//6 67//6 81//6 73//6
f 74//7 80//7 94//7 87//7
f 88//8 96//8 110//8 101//8
f 102//9 109//9 122//9 115//9
f 116//10 124//10 137//10 130//10
f 11//11 2//11 24//11
f 10//12 5//12 131//12 136//12
f 24//11 2//11 39//11
f 39//11 2//11 53//11
f 53//11 2//11 66//11
f 66//11 2//11 82//11
f 82//11 2//11 95//11
f 95//11 2//11 108//11
f 108//11 2//11 123//11
f 123//11 2//11 138//11
f 1//2 19//2 33//2
f 2//11 11//11 138//11
f 1//2 33//2 47//2
f 1//2 47//2 60//2
f 1//2 60//2 75//2
f 1//2 75//2 89//2
f 1//2 89//2 103//2
f 1//2 103//2 117//2
f 1//2 117//2 129//2
f 3//13 6//13 7//13 9//13
f 4//14 8//14 7//14 6//14
f 5//15 9//15 7//15 8//15
f 10//16 13//16 14//16 16//16
f 11//17 15//17 14//17 13//17
f 12//18 16//18 14//18 15//18
f 17//19 20//19 21//19 23//19
f 18//20 22//20 21//20 20//20
f 19//21 23//21 21//21 22//21
f 24//22 27//22 28//22 30//22
f 25//23 29//23 28//23 27//23
f 26//24 30//24 28//24 29//24
f 31//25 34//25 35//25 37//25
f 32//26 36//26 35//26 34//26
f 33//27 37//27 35//27 36//27
f 38//28 41//28 42//28 44//28
f 39//29 43//29 42//29 41//29
f 40//30 44//30 42//30 43//30
f 45//31 48//31 49//31 51//31
f 46//32 50//32 49//32 48//32
f 47//33 51//33 49//33 50//33
f 52//34 55//34 56//34 58//34
f 53//35 57//35 56//35 55//35
f 54//36 58//36 56//36 57//36
f 59//37 62//37 63//37 65//37
f 60//38 64//38 63//38 62//38
f 61//39 65//39 63//39 64//39
f 66//40 69//40 70//40 72//40
f 67//41 71//41 70//41 69//41
f 68//42 72//42 70//42 71//42
f 73//43 76//43 77//43 79//43
f 74//44 78//44 77//44 76//44
f 75//45 79//45 77//45 78//45
f 80//46 83//46 84//46 86//46
f 81//47 85//47 84//47 83//47
f 82//48 86//48 84//48 85//48
f 87//49 90//49 91//49 93//49
f 88//50 92//50 91//50 90//50
f 89//51 93//51 91//51 92//51
f 94//52 97//52 98//52 100//52
f 95//53 99//53 98//53 97//53
f 96//54 100//54 98//54 99//54
f 101//55 104//55 105//55 107//55
f 102//56 106//56 105//56 104//56
f 103//57 107//57 105//57 106//57
f 108//58 111//58 112//58 114//58
f 109//59 113//59 112//59 111//59
f 110//60 114//60 112//60 113//60
f 115//61 118//61 119//61 121//61
f 116//62 120//62 119//62 118//62
f 117//63 121//63 119//63 120//63
f 122//64 125//64 126//64 128//64
f 123//65 127//65 126//65 125//65
f 124//66 128//66 126//66 127//66
f 129//67 132//67 133//67 135//67
f 130//68 134//68 133//68 132//68
f 131//69 135//69 133//69 134//69
f 136//70 139//70 140//70 142//70
f 137//71 141//71 140//71 139//71
f 138//72 142//72 140//72 141//72
f 5//73 10//73 16//73 9//73
f 9//74 16//74 12//74 3//74
f 11//75 24//75 30//75 15//75
f 15//76 30//76 26//76 12//76
f 24//77 39//77 41//77 27//77
f 27//78 41//78 38//78 25//78
f 39//79 53//79 55//79 43//79
f 43//80 55//80 52//80 40//80
f 53//81 66//81 72//81 57//81
f 57//82 72//82 68//82 54//82
f 59//83 73//83 79//83 62//83
f 62//84 79//84 75//84 60//84
f 82//85 95//85 97//85 86//85
f 86//86 97//86 94//86 80//86
f 95//87 108//87 114//87 99//87
f 99//88 114//88 110//88 96//88
f 108//89 123//89 125//89 111//89
f 111//90 125//90 122//90 109//90
f 4//91 129//91 135//91 8//91
f 8//92 135//92 131//92 5//92
f 10//93 136//93 142//93 13//93
f 13//94 142//94 138//94 11//94
f 66//95 82//95 85//95 69//95
f 69//96 85//96 81//96 67//96
f 73//97 81//97 83//97 76//97
f 76//98 83//98 80//98 74//98
f 3//99 17//99 23//99 6//99
f 6//100 23//100 19//100 4//100
f 74//101 87//101 93//101 78//101
f 78//102 93//102 89//102 75//102
f 61//103 68//103 71//103 65//103
f 65//104 71//104 67//104 59//104
f 130//105 137//105 139//105 134//105
f 134//106 139//106 136//106 131//106
f 17//107 26//107 29//107 20//107
f 20//108 29//108 25//108 18//108
f 87//109 94//109 100//109 90//109
f 90//110 100//110 96//110 88//110
f 18//111 31//111 37//111 22//111
f 22//112 37//112 33//112 19//112
f 88//113 101//113 107//113 92//113
f 92//114 107//114 103//114 89//114
f 123//115 138//115 141//115 127//115
f 127//116 141//116 137//116 124//116
f 31//117 38//117 44//117 34//117
f 34//118 44//118 40//118 32//118
f 101//119 110//119 113//119 104//119
f 104//120 113//120 109//120 102//120
f 32//121 45//121 51//121 36//121
f 36//122 51//122 47//122 33//122
f 102//123 115//123 121//123 106//123
f 106//124 121//124 117//124 103//124
f 45//125 52//125 58//125 48//125
f 48//126 58//126 54//126 46//126
f 115//127 122//127 128//127 118//127
f 118//128 128//128 124//128 116//128
f 46//129 61//129 64//129 50//129
f 50//130 64//130 60//130 47//130
f 116//131 130//131 132//131 120//131
f 120//132 132//132 129//132 117//132
f 1//2 4//2 19//2
