# Blender v3.1.2 OBJ File: ''
# www.blender.org
mtllib Stellateddodecahedron.mtl
o Stellateddodecahedron
v 0.192770 0.194436 0.183192
v 0.185854 0.197078 0.187466
v 0.183192 0.192770 0.194436
v 0.187466 0.185854 0.197078
v 0.194436 0.183192 0.192770
v 0.197078 0.187466 0.185854
v 0.188743 0.194837 0.184977
v 0.190106 0.190106 0.190106
v 0.185436 0.195251 0.191502
v 0.184977 0.188743 0.194837
v 0.191502 0.185436 0.195251
v 0.194837 0.184977 0.188743
v 0.195251 0.191502 0.185436
v 0.183192 0.192770 -0.194436
v 0.185854 0.197078 -0.187466
v 0.192770 0.194436 -0.183192
v 0.197078 0.187466 -0.185854
v 0.194436 0.183192 -0.192770
v 0.187466 0.185854 -0.197078
v 0.185436 0.195251 -0.191502
v 0.190106 0.190106 -0.190106
v 0.188743 0.194837 -0.184977
v 0.195251 0.191502 -0.185436
v 0.194837 0.184977 -0.188743
v 0.191502 0.185436 -0.195251
v 0.184977 0.188743 -0.194837
v 0.197078 -0.187466 0.185854
v 0.194436 -0.183192 0.192770
v 0.187466 -0.185854 0.197078
v 0.183192 -0.192770 0.194436
v 0.185854 -0.197078 0.187466
v 0.192770 -0.194436 0.183192
v 0.194837 -0.184977 0.188743
v 0.190106 -0.190106 0.190106
v 0.191502 -0.185436 0.195251
v 0.184977 -0.188743 0.194837
v 0.185436 -0.195251 0.191502
v 0.188743 -0.194837 0.184977
v 0.195251 -0.191502 0.185436
v 0.183192 -0.192770 -0.194436
v 0.187466 -0.185854 -0.197078
v 0.194436 -0.183192 -0.192770
v 0.197078 -0.187466 -0.185854
v 0.192770 -0.194436 -0.183192
v 0.185854 -0.197078 -0.187466
v 0.184977 -0.188743 -0.194837
v 0.190106 -0.190106 -0.190106
v 0.191502 -0.185436 -0.195251
v 0.194837 -0.184977 -0.188743
v 0.195251 -0.191502 -0.185436
v 0.188743 -0.194837 -0.184977
v 0.185436 -0.195251 -0.191502
v -0.197078 0.187466 0.185854
v -0.194436 0.183192 0.192770
v -0.187466 0.185854 0.197078
v -0.183192 0.192770 0.194436
v -0.185854 0.197078 0.187466
v -0.192770 0.194436 0.183192
v -0.194837 0.184977 0.188743
v -0.190106 0.190106 0.190106
v -0.191502 0.185436 0.195251
v -0.184977 0.188743 0.194837
v -0.185436 0.195251 0.191502
v -0.188743 0.194837 0.184977
v -0.195251 0.191502 0.185436
v -0.183192 0.192770 -0.194436
v -0.187466 0.185854 -0.197078
v -0.194436 0.183192 -0.192770
v -0.197078 0.187466 -0.185854
v -0.192770 0.194436 -0.183192
v -0.185854 0.197078 -0.187466
v -0.184977 0.188743 -0.194837
v -0.190106 0.190106 -0.190106
v -0.191502 0.185436 -0.195251
v -0.194837 0.184977 -0.188743
v -0.195251 0.191502 -0.185436
v -0.188743 0.194837 -0.184977
v -0.185436 0.195251 -0.191502
v -0.185854 -0.197078 0.187466
v -0.183192 -0.192770 0.194436
v -0.187466 -0.185854 0.197078
v -0.194436 -0.183192 0.192770
v -0.197078 -0.187466 0.185854
v -0.192770 -0.194436 0.183192
v -0.185436 -0.195251 0.191502
v -0.190106 -0.190106 0.190106
v -0.184977 -0.188743 0.194837
v -0.191502 -0.185436 0.195251
v -0.194837 -0.184977 0.188743
v -0.195251 -0.191502 0.185436
v -0.188743 -0.194837 0.184977
v -0.194436 -0.183192 -0.192770
v -0.187466 -0.185854 -0.197078
v -0.183192 -0.192770 -0.194436
v -0.185854 -0.197078 -0.187466
v -0.192770 -0.194436 -0.183192
v -0.197078 -0.187466 -0.185854
v -0.191502 -0.185436 -0.195251
v -0.190106 -0.190106 -0.190106
v -0.184977 -0.188743 -0.194837
v -0.185436 -0.195251 -0.191502
v -0.188743 -0.194837 -0.184977
v -0.195251 -0.191502 -0.185436
v -0.194837 -0.184977 -0.188743
v 0.124443 0.304992 0.004308
v 0.124443 0.304992 -0.004308
v 0.117526 0.307634 -0.008582
v 0.110556 0.310297 -0.004275
v 0.110556 0.310297 0.004275
v 0.117526 0.307634 0.008582
v 0.124421 0.306108 -0.000000
v 0.117492 0.307598 -0.000000
v 0.120416 0.305393 -0.006093
v 0.114606 0.309857 -0.006066
v 0.110556 0.309159 -0.000000
v 0.114606 0.309857 0.006066
v 0.120416 0.305393 0.006093
v -0.110556 0.310297 -0.004275
v -0.117526 0.307634 -0.008582
v -0.124443 0.304992 -0.004308
v -0.124443 0.304992 0.004308
v -0.117526 0.307634 0.008582
v -0.110556 0.310297 0.004275
v -0.114606 0.309857 -0.006066
v -0.117492 0.307598 0.000000
v -0.120416 0.305393 -0.006093
v -0.124421 0.306108 0.000000
v -0.120416 0.305393 0.006093
v -0.114606 0.309857 0.006066
v -0.110556 0.309159 0.000000
v 0.124443 -0.304992 -0.004308
v 0.124443 -0.304992 0.004308
v 0.117526 -0.307634 0.008582
v 0.110556 -0.310297 0.004275
v 0.110556 -0.310297 -0.004275
v 0.117526 -0.307634 -0.008582
v 0.124421 -0.306108 0.000000
v 0.117492 -0.307598 0.000000
v 0.120416 -0.305393 0.006093
v 0.114606 -0.309857 0.006066
v 0.110556 -0.309159 0.000000
v 0.114606 -0.309857 -0.006066
v 0.120416 -0.305393 -0.006093
v -0.117526 -0.307634 0.008582
v -0.124443 -0.304992 0.004308
v -0.124443 -0.304992 -0.004308
v -0.117526 -0.307634 -0.008582
v -0.110556 -0.310297 -0.004275
v -0.110556 -0.310297 0.004275
v -0.120416 -0.305393 0.006093
v -0.117492 -0.307598 -0.000000
v -0.124421 -0.306108 -0.000000
v -0.120416 -0.305393 -0.006093
v -0.114606 -0.309857 -0.006066
v -0.110556 -0.309159 -0.000000
v -0.114606 -0.309857 0.006066
v 0.307634 0.008582 0.117526
v 0.304992 0.004308 0.124443
v 0.304992 -0.004308 0.124443
v 0.307634 -0.008582 0.117526
v 0.310297 -0.004275 0.110556
v 0.310297 0.004275 0.110556
v 0.305393 0.006093 0.120416
v 0.307598 -0.000000 0.117492
v 0.306108 -0.000000 0.124421
v 0.305393 -0.006093 0.120416
v 0.309857 -0.006066 0.114606
v 0.309159 -0.000000 0.110556
v 0.309857 0.006066 0.114606
v 0.310297 0.004275 -0.110556
v 0.310297 -0.004275 -0.110556
v 0.307634 -0.008582 -0.117526
v 0.304992 -0.004308 -0.124443
v 0.304992 0.004308 -0.124443
v 0.307634 0.008582 -0.117526
v 0.309159 0.000000 -0.110556
v 0.307598 0.000000 -0.117492
v 0.309857 -0.006066 -0.114606
v 0.305393 -0.006093 -0.120416
v 0.306108 0.000000 -0.124421
v 0.305393 0.006093 -0.120416
v 0.309857 0.006066 -0.114606
v -0.307634 0.008582 0.117526
v -0.310297 0.004275 0.110556
v -0.310297 -0.004275 0.110556
v -0.307634 -0.008582 0.117526
v -0.304992 -0.004308 0.124443
v -0.304992 0.004308 0.124443
v -0.309857 0.006066 0.114606
v -0.307598 0.000000 0.117492
v -0.309159 0.000000 0.110556
v -0.309857 -0.006066 0.114606
v -0.305393 -0.006093 0.120416
v -0.306108 0.000000 0.124421
v -0.305393 0.006093 0.120416
v -0.304992 -0.004308 -0.124443
v -0.307634 -0.008582 -0.117526
v -0.310297 -0.004275 -0.110556
v -0.310297 0.004275 -0.110556
v -0.307634 0.008582 -0.117526
v -0.304992 0.004308 -0.124443
v -0.305393 -0.006093 -0.120416
v -0.307598 -0.000000 -0.117492
v -0.309857 -0.006066 -0.114606
v -0.309159 -0.000000 -0.110556
v -0.309857 0.006066 -0.114606
v -0.305393 0.006093 -0.120416
v -0.306108 -0.000000 -0.124421
v 0.008582 0.117526 0.307634
v 0.004308 0.124443 0.304992
v -0.004308 0.124443 0.304992
v -0.008582 0.117526 0.307634
v -0.004275 0.110556 0.310297
v 0.004275 0.110556 0.310297
v 0.006093 0.120416 0.305393
v 0.000000 0.117492 0.307598
v -0.000000 0.124421 0.306108
v -0.006093 0.120416 0.305393
v -0.006066 0.114606 0.309857
v -0.000000 0.110556 0.309159
v 0.006066 0.114606 0.309857
v 0.004275 -0.110556 0.310297
v -0.004275 -0.110556 0.310297
v -0.008582 -0.117526 0.307634
v -0.004308 -0.124443 0.304992
v 0.004308 -0.124443 0.304992
v 0.008582 -0.117526 0.307634
v 0.000000 -0.110556 0.309159
v 0.000000 -0.117492 0.307598
v -0.006066 -0.114606 0.309857
v -0.006093 -0.120416 0.305393
v 0.000000 -0.124421 0.306108
v 0.006093 -0.120416 0.305393
v 0.006066 -0.114606 0.309857
v -0.004308 0.124443 -0.304992
v 0.004308 0.124443 -0.304992
v 0.008582 0.117526 -0.307634
v 0.004275 0.110556 -0.310297
v -0.004275 0.110556 -0.310297
v -0.008582 0.117526 -0.307634
v 0.000000 0.124421 -0.306108
v 0.000000 0.117492 -0.307598
v 0.006093 0.120416 -0.305393
v 0.006066 0.114606 -0.309857
v 0.000000 0.110556 -0.309159
v -0.006066 0.114606 -0.309857
v -0.006093 0.120416 -0.305393
v 0.004308 -0.124443 -0.304992
v -0.004308 -0.124443 -0.304992
v -0.008582 -0.117526 -0.307634
v -0.004275 -0.110556 -0.310297
v 0.004275 -0.110556 -0.310297
v 0.008582 -0.117526 -0.307634
v -0.000000 -0.124421 -0.306108
v 0.000000 -0.117492 -0.307598
v -0.006093 -0.120416 -0.305393
v -0.006066 -0.114606 -0.309857
v -0.000000 -0.110556 -0.309159
v 0.006066 -0.114606 -0.309857
v 0.006093 -0.120416 -0.305393
v 0.498206 -0.305246 0.006970
v 0.493899 -0.312216 0.004308
v 0.493899 -0.312216 -0.004308
v 0.498206 -0.305246 -0.006970
v 0.500869 -0.300939 0.000000
v 0.496380 -0.309282 0.006552
v 0.502136 -0.310337 -0.000000
v 0.493877 -0.313332 -0.000000
v 0.496380 -0.309282 -0.006552
v 0.500429 -0.302730 -0.004049
v 0.500429 -0.302730 0.004049
v -0.305246 0.006970 0.498206
v -0.312216 0.004308 0.493899
v -0.312216 -0.004308 0.493899
v -0.305246 -0.006970 0.498206
v -0.300939 -0.000000 0.500869
v -0.309282 0.006552 0.496380
v -0.310337 -0.000000 0.502136
v -0.313332 -0.000000 0.493877
v -0.309282 -0.006552 0.496380
v -0.302730 -0.004049 0.500429
v -0.302730 0.004049 0.500429
v 0.006970 0.498206 0.305246
v -0.000000 0.500869 0.300939
v -0.006970 0.498206 0.305246
v -0.004308 0.493899 0.312216
v 0.004308 0.493899 0.312216
v 0.004049 0.500429 0.302730
v -0.000000 0.502136 0.310337
v -0.004049 0.500429 0.302730
v -0.006552 0.496380 0.309282
v 0.000000 0.493877 0.313332
v 0.006552 0.496380 0.309282
v -0.493899 -0.312216 -0.004308
v -0.493899 -0.312216 0.004308
v -0.498206 -0.305246 0.006970
v -0.500869 -0.300939 0.000000
v -0.498206 -0.305246 -0.006970
v -0.493877 -0.313332 0.000000
v -0.502136 -0.310337 0.000000
v -0.496380 -0.309282 0.006552
v -0.500429 -0.302730 0.004049
v -0.500429 -0.302730 -0.004049
v -0.496380 -0.309282 -0.006552
v -0.312216 -0.004308 -0.493899
v -0.312216 0.004308 -0.493899
v -0.305246 0.006970 -0.498206
v -0.300939 -0.000000 -0.500869
v -0.305246 -0.006970 -0.498206
v -0.313332 0.000000 -0.493877
v -0.310337 0.000000 -0.502136
v -0.309282 0.006552 -0.496380
v -0.302730 0.004049 -0.500429
v -0.302730 -0.004049 -0.500429
v -0.309282 -0.006552 -0.496380
v 0.305246 -0.006970 -0.498206
v 0.300939 -0.000000 -0.500869
v 0.305246 0.006970 -0.498206
v 0.312216 0.004308 -0.493899
v 0.312216 -0.004308 -0.493899
v 0.302730 -0.004049 -0.500429
v 0.310337 -0.000000 -0.502136
v 0.302730 0.004049 -0.500429
v 0.309282 0.006552 -0.496380
v 0.313332 -0.000000 -0.493877
v 0.309282 -0.006552 -0.496380
v -0.004308 -0.493899 -0.312216
v 0.004308 -0.493899 -0.312216
v 0.006970 -0.498206 -0.305246
v -0.000000 -0.500869 -0.300939
v -0.006970 -0.498206 -0.305246
v 0.000000 -0.493877 -0.313332
v 0.000000 -0.502136 -0.310337
v 0.006552 -0.496380 -0.309282
v 0.004049 -0.500429 -0.302730
v -0.004049 -0.500429 -0.302730
v -0.006552 -0.496380 -0.309282
v 0.305246 0.006970 0.498206
v 0.300939 -0.000000 0.500869
v 0.305246 -0.006970 0.498206
v 0.312216 -0.004308 0.493899
v 0.312216 0.004308 0.493899
v 0.302730 0.004049 0.500429
v 0.310337 0.000000 0.502136
v 0.302730 -0.004049 0.500429
v 0.309282 -0.006552 0.496380
v 0.313332 0.000000 0.493877
v 0.309282 0.006552 0.496380
v 0.006970 0.498206 -0.305246
v 0.004308 0.493899 -0.312216
v -0.004308 0.493899 -0.312216
v -0.006970 0.498206 -0.305246
v -0.000000 0.500869 -0.300939
v 0.006552 0.496380 -0.309282
v -0.000000 0.502136 -0.310337
v -0.000000 0.493877 -0.313332
v -0.006552 0.496380 -0.309282
v -0.004049 0.500429 -0.302730
v 0.004049 0.500429 -0.302730
v -0.006970 -0.498206 0.305246
v -0.000000 -0.500869 0.300939
v 0.006970 -0.498206 0.305246
v 0.004308 -0.493899 0.312216
v -0.004308 -0.493899 0.312216
v -0.004049 -0.500429 0.302730
v -0.000000 -0.502136 0.310337
v 0.004049 -0.500429 0.302730
v 0.006552 -0.496380 0.309282
v -0.000000 -0.493877 0.313332
v -0.006552 -0.496380 0.309282
v 0.498206 0.305246 0.006970
v 0.500869 0.300939 0.000000
v 0.498206 0.305246 -0.006970
v 0.493899 0.312216 -0.004308
v 0.493899 0.312216 0.004308
v 0.500429 0.302730 0.004049
v 0.502136 0.310337 0.000000
v 0.500429 0.302730 -0.004049
v 0.496380 0.309282 -0.006552
v 0.493877 0.313332 0.000000
v 0.496380 0.309282 0.006552
v -0.493899 0.312216 -0.004308
v -0.498206 0.305246 -0.006970
v -0.500869 0.300939 0.000000
v -0.498206 0.305246 0.006970
v -0.493899 0.312216 0.004308
v -0.496380 0.309282 -0.006552
v -0.502136 0.310337 -0.000000
v -0.500429 0.302730 -0.004049
v -0.500429 0.302730 0.004049
v -0.496380 0.309282 0.006552
v -0.493877 0.313332 -0.000000
vn 0.0102 0.8579 0.5137
vn -0.8477 -0.5302 -0.0166
vn 0.8477 -0.5302 -0.0166
vn 0.8579 -0.5137 0.0102
vn 0.0000 -0.8414 0.5405
vn -0.8579 0.5137 -0.0102
vn -0.5302 0.0166 0.8477
vn 0.5405 0.0000 -0.8414
vn -0.8579 -0.5137 -0.0102
vn -0.5137 0.0102 0.8579
vn -0.5302 -0.0166 -0.8477
vn -0.5137 -0.0102 0.8579
vn 0.5137 -0.0102 0.8579
vn 0.5405 0.0000 0.8414
vn -0.8414 -0.5405 0.0000
vn -0.0166 0.8477 -0.5302
vn 0.8477 0.5302 -0.0166
vn 0.8414 -0.5405 0.0000
vn 0.0166 0.8477 0.5302
vn 0.8414 0.5405 0.0000
vn -0.0166 -0.8477 0.5302
vn -0.8579 0.5137 0.0102
vn 0.8477 -0.5302 0.0166
vn 0.0166 -0.8477 0.5302
vn -0.5405 0.0000 0.8414
vn 0.0102 -0.8579 -0.5137
vn -0.5137 0.0102 -0.8579
vn -0.5137 -0.0102 -0.8579
vn -0.5405 0.0000 -0.8414
vn -0.8579 -0.5137 0.0102
vn -0.5302 0.0166 -0.8477
vn 0.8579 0.5137 0.0102
vn 0.5137 0.0102 0.8579
vn 0.5302 0.0166 -0.8477
vn -0.0166 -0.8477 -0.5302
vn 0.5137 0.0102 -0.8579
vn 0.0000 -0.8414 -0.5405
vn 0.0000 0.8414 0.5405
vn 0.0166 -0.8477 -0.5302
vn 0.8579 -0.5137 -0.0102
vn 0.5302 0.0166 0.8477
vn -0.0102 0.8579 -0.5137
vn 0.5302 -0.0166 0.8477
vn 0.0166 0.8477 -0.5302
vn -0.8477 0.5302 0.0166
vn 0.0000 0.8414 -0.5405
vn 0.5137 -0.0102 -0.8579
vn -0.0102 -0.8579 -0.5137
vn -0.0102 -0.8579 0.5137
vn -0.8477 -0.5302 0.0166
vn 0.0102 -0.8579 0.5137
vn 0.5302 -0.0166 -0.8477
vn 0.8477 0.5302 0.0166
vn 0.8579 0.5137 -0.0102
vn -0.0102 0.8579 0.5137
vn -0.8414 0.5405 0.0000
vn -0.8477 0.5302 -0.0166
vn -0.5302 -0.0166 0.8477
vn 0.0102 0.8579 -0.5137
vn 0.3351 0.7351 0.5894
vn 0.7408 0.5801 0.3387
vn 0.5894 0.3351 0.7351
vn 0.3387 0.7408 0.5801
vn 0.7351 0.5894 0.3351
vn 0.5801 0.3387 0.7408
vn 0.5894 0.3351 -0.7351
vn 0.7408 0.5801 -0.3387
vn 0.3351 0.7351 -0.5894
vn 0.5801 0.3387 -0.7408
vn 0.7351 0.5894 -0.3351
vn 0.3387 0.7408 -0.5801
vn 0.5801 -0.3387 0.7408
vn 0.7351 -0.5894 0.3351
vn 0.3387 -0.7408 0.5801
vn 0.5894 -0.3351 0.7351
vn 0.7408 -0.5801 0.3387
vn 0.3351 -0.7351 0.5894
vn 0.5894 -0.3351 -0.7351
vn 0.3387 -0.7408 -0.5801
vn 0.7351 -0.5894 -0.3351
vn 0.5801 -0.3387 -0.7408
vn 0.3351 -0.7351 -0.5894
vn 0.7408 -0.5801 -0.3387
vn -0.5801 0.3387 0.7408
vn -0.7351 0.5894 0.3351
vn -0.3387 0.7408 0.5801
vn -0.5894 0.3351 0.7351
vn -0.7408 0.5801 0.3387
vn -0.3351 0.7351 0.5894
vn -0.5894 0.3351 -0.7351
vn -0.3387 0.7408 -0.5801
vn -0.7351 0.5894 -0.3351
vn -0.5801 0.3387 -0.7408
vn -0.3351 0.7351 -0.5894
vn -0.7408 0.5801 -0.3387
vn -0.7408 -0.5801 0.3387
vn -0.5894 -0.3351 0.7351
vn -0.3387 -0.7408 0.5801
vn -0.7351 -0.5894 0.3351
vn -0.5801 -0.3387 0.7408
vn -0.3351 -0.7351 0.5894
vn -0.7351 -0.5894 -0.3351
vn -0.3387 -0.7408 -0.5801
vn -0.5894 -0.3351 -0.7351
vn -0.7408 -0.5801 -0.3387
vn -0.3351 -0.7351 -0.5894
vn -0.5801 -0.3387 -0.7408
vn 0.2035 0.9479 0.2450
vn 0.2035 0.9479 -0.2450
vn 0.6093 0.7929 0.0058
vn 0.2129 0.9444 0.2508
vn 0.2129 0.9444 -0.2508
vn 0.6093 0.7929 -0.0058
vn -0.2129 0.9444 0.2508
vn -0.6093 0.7929 0.0058
vn -0.2035 0.9479 -0.2450
vn -0.2035 0.9479 0.2450
vn -0.6093 0.7929 -0.0058
vn -0.2129 0.9444 -0.2508
vn 0.2035 -0.9479 -0.2450
vn 0.2035 -0.9479 0.2450
vn 0.6093 -0.7929 -0.0058
vn 0.2129 -0.9444 -0.2508
vn 0.2129 -0.9444 0.2508
vn 0.6093 -0.7929 0.0058
vn -0.6093 -0.7929 -0.0058
vn -0.2035 -0.9479 0.2450
vn -0.2035 -0.9479 -0.2450
vn -0.6093 -0.7929 0.0058
vn -0.2129 -0.9444 0.2508
vn -0.2129 -0.9444 -0.2508
vn 0.7929 -0.0058 0.6093
vn 0.9479 0.2450 0.2035
vn 0.9479 -0.2450 0.2035
vn 0.7929 0.0058 0.6093
vn 0.9444 0.2508 0.2129
vn 0.9444 -0.2508 0.2129
vn 0.9444 -0.2508 -0.2129
vn 0.9444 0.2508 -0.2129
vn 0.7929 0.0058 -0.6093
vn 0.9479 -0.2450 -0.2035
vn 0.9479 0.2450 -0.2035
vn 0.7929 -0.0058 -0.6093
vn -0.7929 -0.0058 0.6093
vn -0.9444 -0.2508 0.2129
vn -0.9444 0.2508 0.2129
vn -0.7929 0.0058 0.6093
vn -0.9479 -0.2450 0.2035
vn -0.9479 0.2450 0.2035
vn -0.9479 -0.2450 -0.2035
vn -0.7929 0.0058 -0.6093
vn -0.9444 0.2508 -0.2129
vn -0.9444 -0.2508 -0.2129
vn -0.7929 -0.0058 -0.6093
vn -0.9479 0.2450 -0.2035
vn -0.0058 0.6093 0.7929
vn 0.2450 0.2035 0.9479
vn -0.2450 0.2035 0.9479
vn 0.0058 0.6093 0.7929
vn 0.2508 0.2129 0.9444
vn -0.2508 0.2129 0.9444
vn -0.2508 -0.2129 0.9444
vn 0.2508 -0.2129 0.9444
vn 0.0058 -0.6093 0.7929
vn -0.2450 -0.2035 0.9479
vn 0.2450 -0.2035 0.9479
vn -0.0058 -0.6093 0.7929
vn -0.2450 0.2035 -0.9479
vn 0.2450 0.2035 -0.9479
vn -0.0058 0.6093 -0.7929
vn -0.2508 0.2129 -0.9444
vn 0.2508 0.2129 -0.9444
vn 0.0058 0.6093 -0.7929
vn 0.2450 -0.2035 -0.9479
vn -0.2450 -0.2035 -0.9479
vn 0.0058 -0.6093 -0.7929
vn 0.2508 -0.2129 -0.9444
vn -0.2508 -0.2129 -0.9444
vn -0.0058 -0.6093 -0.7929
vn 0.7605 -0.2394 0.6036
vn 0.3874 -0.8431 0.3731
vn 0.3874 -0.8431 -0.3731
vn 0.7605 -0.2394 -0.6036
vn 0.9910 0.1337 0.0000
vn -0.2394 0.6036 0.7605
vn -0.8431 0.3731 0.3874
vn -0.8431 -0.3731 0.3874
vn -0.2394 -0.6036 0.7605
vn 0.1337 0.0000 0.9910
vn 0.6036 0.7605 0.2394
vn 0.0000 0.9910 -0.1336
vn -0.6036 0.7605 0.2394
vn -0.3731 0.3874 0.8431
vn 0.3731 0.3874 0.8431
vn -0.3874 -0.8431 -0.3731
vn -0.3874 -0.8431 0.3731
vn -0.7605 -0.2394 0.6036
vn -0.9910 0.1336 0.0000
vn -0.7605 -0.2394 -0.6036
vn -0.8431 -0.3731 -0.3874
vn -0.8431 0.3731 -0.3874
vn -0.2394 0.6036 -0.7605
vn 0.1336 0.0000 -0.9910
vn -0.2394 -0.6036 -0.7605
vn 0.2394 -0.6036 -0.7605
vn -0.1336 0.0000 -0.9910
vn 0.2394 0.6036 -0.7605
vn 0.8431 0.3731 -0.3874
vn 0.8431 -0.3731 -0.3874
vn -0.3731 -0.3874 -0.8431
vn 0.3731 -0.3874 -0.8431
vn 0.6036 -0.7605 -0.2394
vn 0.0000 -0.9910 0.1336
vn -0.6036 -0.7605 -0.2394
vn 0.2394 0.6036 0.7605
vn -0.1336 0.0000 0.9910
vn 0.2394 -0.6036 0.7605
vn 0.8431 -0.3731 0.3874
vn 0.8431 0.3731 0.3874
vn 0.6036 0.7605 -0.2394
vn 0.3731 0.3874 -0.8431
vn -0.3731 0.3874 -0.8431
vn -0.6036 0.7605 -0.2394
vn 0.0000 0.9910 0.1337
vn -0.6036 -0.7605 0.2394
vn 0.0000 -0.9910 -0.1336
vn 0.6036 -0.7605 0.2394
vn 0.3731 -0.3874 0.8431
vn -0.3731 -0.3874 0.8431
vn 0.7605 0.2394 0.6036
vn 0.9910 -0.1336 0.0000
vn 0.7605 0.2394 -0.6036
vn 0.3874 0.8431 -0.3731
vn 0.3874 0.8431 0.3731
vn -0.3874 0.8431 -0.3731
vn -0.7605 0.2394 -0.6036
vn -0.9910 -0.1336 0.0000
vn -0.7605 0.2394 0.6036
vn -0.3874 0.8431 0.3731
vn -0.4272 0.2752 -0.8613
vn -0.1701 0.6912 -0.7024
vn -0.7024 -0.1701 -0.6912
vn -0.8613 -0.4272 -0.2752
vn 0.4092 -0.2752 0.8700
vn 0.1584 -0.6810 0.7150
vn -0.0189 -0.9679 -0.2508
vn -0.0189 -0.9679 0.2508
vn 0.2752 0.8613 0.4272
vn 0.6912 0.7024 0.1701
vn 0.0000 0.9664 0.2571
vn -0.0000 0.9664 -0.2571
vn 0.6912 -0.7024 0.1701
vn 0.2752 -0.8613 0.4272
vn -0.2752 -0.8613 0.4272
vn -0.6912 -0.7024 0.1701
vn 0.8613 0.4272 0.2752
vn 0.7024 0.1701 0.6912
vn 0.9664 0.2571 0.0000
vn 0.9664 -0.2571 -0.0000
vn -0.7024 0.1701 0.6912
vn -0.8613 0.4272 0.2752
vn -0.8613 0.4272 -0.2752
vn -0.7024 0.1701 -0.6912
vn 0.4272 0.2752 0.8613
vn 0.1701 0.6912 0.7024
vn 0.2571 0.0000 0.9664
vn -0.2571 -0.0000 0.9664
vn 0.1701 0.6912 -0.7024
vn 0.4272 0.2752 -0.8613
vn 0.4272 -0.2752 -0.8613
vn 0.1701 -0.6912 -0.7024
vn -0.1701 -0.6912 -0.7024
vn -0.4272 -0.2752 -0.8613
vn 0.4092 -0.2752 -0.8700
vn 0.1584 -0.6810 -0.7150
vn 0.8510 0.4398 -0.2869
vn 0.6961 0.1890 -0.6926
vn -0.4272 -0.2752 0.8613
vn -0.1701 -0.6912 0.7024
vn 0.0000 -0.9664 -0.2571
vn -0.0000 -0.9664 0.2571
vn 0.6961 0.1890 0.6926
vn 0.8510 0.4398 0.2869
vn 0.6912 0.7024 -0.1701
vn 0.2752 0.8613 -0.4272
vn -0.6912 -0.7024 -0.1701
vn -0.2752 -0.8613 -0.4272
vn -0.9664 -0.2571 0.0000
vn -0.9664 0.2571 -0.0000
vn -0.2752 0.8700 0.4092
vn -0.6810 0.7150 0.1584
vn -0.9679 -0.2508 -0.0189
vn -0.9679 0.2508 -0.0189
vn -0.2752 -0.8700 0.4092
vn -0.6810 -0.7150 0.1584
vn 0.7024 0.1701 -0.6912
vn 0.8613 0.4272 -0.2752
vn 0.2752 -0.8613 -0.4272
vn 0.6912 -0.7024 -0.1701
vn 0.7024 -0.1701 0.6912
vn 0.8613 -0.4272 0.2752
vn -0.6912 0.7024 0.1701
vn -0.2752 0.8613 0.4272
vn 0.4398 -0.2869 0.8510
vn 0.1890 -0.6926 0.6961
vn -0.2752 0.8613 -0.4272
vn -0.6912 0.7024 -0.1701
vn 0.8613 -0.4272 -0.2752
vn 0.7024 -0.1701 -0.6912
vn 0.1890 0.6926 0.6961
vn 0.4398 0.2869 0.8510
vn 0.1701 -0.6912 0.7024
vn 0.4272 -0.2752 0.8613
vn 0.6926 0.6961 -0.1890
vn 0.2869 0.8510 -0.4398
vn -0.6926 0.6961 -0.1890
vn -0.2869 0.8510 -0.4398
vn -0.2571 0.0000 -0.9664
vn 0.2571 -0.0000 -0.9664
vn -0.1701 0.6912 0.7024
vn -0.4272 0.2752 0.8613
vn -0.8613 -0.4272 0.2752
vn -0.7024 -0.1701 0.6912
vn -0.7150 0.1584 0.6810
vn -0.8700 0.4092 0.2752
vn 0.2508 -0.0189 0.9679
vn -0.2508 -0.0189 0.9679
vn 0.8700 0.4092 0.2752
vn 0.7150 0.1584 0.6810
vn 0.0189 -0.9679 -0.2508
vn 0.0189 -0.9679 0.2508
vn -0.4092 -0.2752 0.8700
vn -0.1584 -0.6810 0.7150
vn -0.8510 0.4398 0.2869
vn -0.6961 0.1890 0.6926
vn -0.6961 0.1890 -0.6926
vn -0.8510 0.4398 -0.2869
vn -0.1584 -0.6810 -0.7150
vn -0.4092 -0.2752 -0.8700
vn -0.9679 -0.2508 0.0189
vn -0.9679 0.2508 0.0189
vn -0.2752 0.8700 -0.4092
vn -0.6810 0.7150 -0.1584
vn 0.4398 0.2869 -0.8510
vn 0.1890 0.6926 -0.6961
vn 0.1890 -0.6926 -0.6961
vn 0.4398 -0.2869 -0.8510
vn -0.6810 -0.7150 -0.1584
vn -0.2752 -0.8700 -0.4092
vn -0.1890 -0.6926 -0.6961
vn -0.4398 -0.2869 -0.8510
vn -0.1890 0.6926 -0.6961
vn -0.4398 0.2869 -0.8510
vn 0.6810 0.7150 -0.1584
vn 0.2752 0.8700 -0.4092
vn 0.9679 -0.2508 0.0189
vn 0.9679 0.2508 0.0189
vn 0.2752 -0.8700 -0.4092
vn 0.6810 -0.7150 -0.1584
vn -0.2508 0.0189 -0.9679
vn 0.2508 0.0189 -0.9679
vn 0.8700 -0.4092 -0.2752
vn 0.7150 -0.1584 -0.6810
vn 0.2869 -0.8510 0.4398
vn 0.6926 -0.6961 0.1890
vn -0.6926 -0.6961 0.1890
vn -0.2869 -0.8510 0.4398
vn -0.7150 -0.1584 -0.6810
vn -0.8700 -0.4092 -0.2752
vn -0.1890 0.6926 0.6961
vn -0.4398 0.2869 0.8510
vn -0.1890 -0.6926 0.6961
vn -0.4398 -0.2869 0.8510
vn 0.6810 -0.7150 0.1584
vn 0.2752 -0.8700 0.4092
vn 0.9679 0.2508 -0.0189
vn 0.9679 -0.2508 -0.0189
vn 0.2752 0.8700 0.4092
vn 0.6810 0.7150 0.1584
vn 0.8700 0.4092 -0.2752
vn 0.7150 0.1584 -0.6810
vn -0.2508 -0.0189 -0.9679
vn 0.2508 -0.0189 -0.9679
vn -0.8700 0.4092 -0.2752
vn -0.7150 0.1584 -0.6810
vn -0.2869 0.8510 0.4398
vn -0.6926 0.6961 0.1890
vn 0.6926 0.6961 0.1890
vn 0.2869 0.8510 0.4398
vn -0.6926 -0.6961 -0.1890
vn -0.2869 -0.8510 -0.4398
vn 0.6926 -0.6961 -0.1890
vn 0.2869 -0.8510 -0.4398
vn 0.7150 -0.1584 0.6810
vn 0.8700 -0.4092 0.2752
vn -0.2508 0.0189 0.9679
vn 0.2508 0.0189 0.9679
vn -0.8700 -0.4092 0.2752
vn -0.7150 -0.1584 0.6810
vn 0.6961 -0.1890 0.6926
vn 0.8510 -0.4398 0.2869
vn 0.6961 -0.1890 -0.6926
vn 0.8510 -0.4398 -0.2869
vn 0.1584 0.6810 -0.7150
vn 0.4092 0.2752 -0.8700
vn -0.0189 0.9679 0.2508
vn -0.0189 0.9679 -0.2508
vn 0.4092 0.2752 0.8700
vn 0.1584 0.6810 0.7150
vn -0.1584 0.6810 -0.7150
vn -0.4092 0.2752 -0.8700
vn -0.8510 -0.4398 -0.2869
vn -0.6961 -0.1890 -0.6926
vn -0.6961 -0.1890 0.6926
vn -0.8510 -0.4398 0.2869
vn -0.1584 0.6810 0.7150
vn -0.4092 0.2752 0.8700
vn 0.0189 0.9679 -0.2508
vn 0.0189 0.9679 0.2508
vn -0.0166 0.8477 0.5302
usemtl dtmo_base_mat
s off
f 212//1 55//1 272//1
f 187//2 82//2 274//2
f 28//3 159//3 341//3
f 45//4 136//4 329//4
f 135//5 148//5 330//5
f 122//6 57//6 285//6
f 225//7 80//7 364//7
f 239//8 251//8 308//8
f 79//9 144//9 360//9
f 83//10 186//10 296//10
f 235//11 66//11 351//11
f 183//12 53//12 385//12
f 6//13 157//13 371//13
f 223//14 213//14 276//14
f 199//15 184//15 384//15
f 16//16 106//16 374//16
f 158//17 5//17 342//17
f 162//18 170//18 372//18
f 58//19 121//19 386//19
f 171//20 161//20 265//20
f 32//21 132//21 262//21
f 71//22 119//22 352//22
f 173//23 42//23 320//23
f 145//24 84//24 295//24
f 214//25 222//25 339//25
f 250//26 93//26 309//26
f 197//27 97//27 298//27
f 69//28 200//28 383//28
f 252//29 238//29 317//29
f 147//30 95//30 331//30
f 94//31 249//31 327//31
f 107//32 15//32 349//32
f 160//33 27//33 261//33
f 248//34 40//34 328//34
f 131//35 44//35 263//35
f 43//36 172//36 264//36
f 149//37 134//37 361//37
f 118//38 108//38 353//38
f 96//39 146//39 294//39
f 133//40 31//40 362//40
f 30//41 226//41 363//41
f 237//42 19//42 318//42
f 210//43 3//43 287//43
f 120//44 70//44 382//44
f 201//45 68//45 306//45
f 109//46 123//46 284//46
f 175//47 17//47 373//47
f 41//48 253//48 316//48
f 227//49 29//49 340//49
f 92//50 196//50 305//50
f 81//51 224//51 275//51
f 14//52 236//52 350//52
f 18//53 174//53 319//53
f 2//54 110//54 283//54
f 4//55 209//55 338//55
f 185//56 198//56 297//56
f 54//57 188//57 273//57
f 56//58 211//58 286//58
f 67//59 240//59 307//59
f 1//60 7//60 8//60 13//60
f 2//61 9//61 8//61 7//61
f 3//62 10//62 8//62 9//62
f 4//63 11//63 8//63 10//63
f 5//64 12//64 8//64 11//64
f 6//65 13//65 8//65 12//65
f 14//66 20//66 21//66 26//66
f 15//67 22//67 21//67 20//67
f 16//68 23//68 21//68 22//68
f 17//69 24//69 21//69 23//69
f 18//70 25//70 21//70 24//70
f 19//71 26//71 21//71 25//71
f 27//72 33//72 34//72 39//72
f 28//73 35//73 34//73 33//73
f 29//74 36//74 34//74 35//74
f 30//75 37//75 34//75 36//75
f 31//76 38//76 34//76 37//76
f 32//77 39//77 34//77 38//77
f 40//78 46//78 47//78 52//78
f 41//79 48//79 47//79 46//79
f 42//80 49//80 47//80 48//80
f 43//81 50//81 47//81 49//81
f 44//82 51//82 47//82 50//82
f 45//83 52//83 47//83 51//83
f 53//84 59//84 60//84 65//84
f 54//85 61//85 60//85 59//85
f 55//86 62//86 60//86 61//86
f 56//87 63//87 60//87 62//87
f 57//88 64//88 60//88 63//88
f 58//89 65//89 60//89 64//89
f 66//90 72//90 73//90 78//90
f 67//91 74//91 73//91 72//91
f 68//92 75//92 73//92 74//92
f 69//93 76//93 73//93 75//93
f 70//94 77//94 73//94 76//94
f 71//95 78//95 73//95 77//95
f 79//96 85//96 86//96 91//96
f 80//97 87//97 86//97 85//97
f 81//98 88//98 86//98 87//98
f 82//99 89//99 86//99 88//99
f 83//100 90//100 86//100 89//100
f 84//101 91//101 86//101 90//101
f 92//102 98//102 99//102 104//102
f 93//103 100//103 99//103 98//103
f 94//104 101//104 99//104 100//104
f 95//105 102//105 99//105 101//105
f 96//106 103//106 99//106 102//106
f 97//107 104//107 99//107 103//107
f 105//108 111//108 112//108 117//108
f 106//109 113//109 112//109 111//109
f 107//110 114//110 112//110 113//110
f 108//111 115//111 112//111 114//111
f 109//112 116//112 112//112 115//112
f 110//113 117//113 112//113 116//113
f 118//114 124//114 125//114 130//114
f 119//115 126//115 125//115 124//115
f 120//116 127//116 125//116 126//116
f 121//117 128//117 125//117 127//117
f 122//118 129//118 125//118 128//118
f 123//119 130//119 125//119 129//119
f 131//120 137//120 138//120 143//120
f 132//121 139//121 138//121 137//121
f 133//122 140//122 138//122 139//122
f 134//123 141//123 138//123 140//123
f 135//124 142//124 138//124 141//124
f 136//125 143//125 138//125 142//125
f 144//126 150//126 151//126 156//126
f 145//127 152//127 151//127 150//127
f 146//128 153//128 151//128 152//128
f 147//129 154//129 151//129 153//129
f 148//130 155//130 151//130 154//130
f 149//131 156//131 151//131 155//131
f 157//132 163//132 164//132 169//132
f 158//133 165//133 164//133 163//133
f 159//134 166//134 164//134 165//134
f 160//135 167//135 164//135 166//135
f 161//136 168//136 164//136 167//136
f 162//137 169//137 164//137 168//137
f 170//138 176//138 177//138 182//138
f 171//139 178//139 177//139 176//139
f 172//140 179//140 177//140 178//140
f 173//141 180//141 177//141 179//141
f 174//142 181//142 177//142 180//142
f 175//143 182//143 177//143 181//143
f 183//144 189//144 190//144 195//144
f 184//145 191//145 190//145 189//145
f 185//146 192//146 190//146 191//146
f 186//147 193//147 190//147 192//147
f 187//148 194//148 190//148 193//148
f 188//149 195//149 190//149 194//149
f 196//150 202//150 203//150 208//150
f 197//151 204//151 203//151 202//151
f 198//152 205//152 203//152 204//152
f 199//153 206//153 203//153 205//153
f 200//154 207//154 203//154 206//154
f 201//155 208//155 203//155 207//155
f 209//156 215//156 216//156 221//156
f 210//157 217//157 216//157 215//157
f 211//158 218//158 216//158 217//158
f 212//159 219//159 216//159 218//159
f 213//160 220//160 216//160 219//160
f 214//161 221//161 216//161 220//161
f 222//162 228//162 229//162 234//162
f 223//163 230//163 229//163 228//163
f 224//164 231//164 229//164 230//164
f 225//165 232//165 229//165 231//165
f 226//166 233//166 229//166 232//166
f 227//167 234//167 229//167 233//167
f 235//168 241//168 242//168 247//168
f 236//169 243//169 242//169 241//169
f 237//170 244//170 242//170 243//170
f 238//171 245//171 242//171 244//171
f 239//172 246//172 242//172 245//172
f 240//173 247//173 242//173 246//173
f 248//174 254//174 255//174 260//174
f 249//175 256//175 255//175 254//175
f 250//176 257//176 255//176 256//176
f 251//177 258//177 255//177 257//177
f 252//178 259//178 255//178 258//178
f 253//179 260//179 255//179 259//179
f 261//180 266//180 267//180 271//180
f 262//181 268//181 267//181 266//181
f 263//182 269//182 267//182 268//182
f 264//183 270//183 267//183 269//183
f 265//184 271//184 267//184 270//184
f 272//185 277//185 278//185 282//185
f 273//186 279//186 278//186 277//186
f 274//187 280//187 278//187 279//187
f 275//188 281//188 278//188 280//188
f 276//189 282//189 278//189 281//189
f 283//190 288//190 289//190 293//190
f 284//191 290//191 289//191 288//191
f 285//192 291//192 289//192 290//192
f 286//193 292//193 289//193 291//193
f 287//194 293//194 289//194 292//194
f 294//195 299//195 300//195 304//195
f 295//196 301//196 300//196 299//196
f 296//197 302//197 300//197 301//197
f 297//198 303//198 300//198 302//198
f 298//199 304//199 300//199 303//199
f 305//200 310//200 311//200 315//200
f 306//201 312//201 311//201 310//201
f 307//202 313//202 311//202 312//202
f 308//203 314//203 311//203 313//203
f 309//204 315//204 311//204 314//204
f 316//205 321//205 322//205 326//205
f 317//206 323//206 322//206 321//206
f 318//207 324//207 322//207 323//207
f 319//208 325//208 322//208 324//208
f 320//209 326//209 322//209 325//209
f 327//210 332//210 333//210 337//210
f 328//211 334//211 333//211 332//211
f 329//212 335//212 333//212 334//212
f 330//213 336//213 333//213 335//213
f 331//214 337//214 333//214 336//214
f 338//215 343//215 344//215 348//215
f 339//216 345//216 344//216 343//216
f 340//217 346//217 344//217 345//217
f 341//218 347//218 344//218 346//218
f 342//219 348//219 344//219 347//219
f 349//220 354//220 355//220 359//220
f 350//221 356//221 355//221 354//221
f 351//222 357//222 355//222 356//222
f 352//223 358//223 355//223 357//223
f 353//224 359//224 355//224 358//224
f 360//225 365//225 366//225 370//225
f 361//226 367//226 366//226 365//226
f 362//227 368//227 366//227 367//227
f 363//228 369//228 366//228 368//228
f 364//229 370//229 366//229 369//229
f 371//230 376//230 377//230 381//230
f 372//231 378//231 377//231 376//231
f 373//232 379//232 377//232 378//232
f 374//233 380//233 377//233 379//233
f 375//234 381//234 377//234 380//234
f 382//235 387//235 388//235 392//235
f 383//236 389//236 388//236 387//236
f 384//237 390//237 388//237 389//237
f 385//238 391//238 388//238 390//238
f 386//239 392//239 388//239 391//239
f 66//240 235//240 247//240 72//240
f 72//241 247//241 240//241 67//241
f 97//242 197//242 202//242 104//242
f 104//243 202//243 196//243 92//243
f 261//244 27//244 39//244 266//244
f 266//245 39//245 32//245 262//245
f 131//246 263//246 268//246 137//246
f 137//247 268//247 262//247 132//247
f 1//248 105//248 117//248 7//248
f 7//249 117//249 110//249 2//249
f 108//250 118//250 130//250 115//250
f 115//251 130//251 123//251 109//251
f 31//252 133//252 139//252 38//252
f 38//253 139//253 132//253 32//253
f 84//254 145//254 150//254 91//254
f 91//255 150//255 144//255 79//255
f 5//256 158//256 163//256 12//256
f 12//257 163//257 157//257 6//257
f 161//258 171//258 176//258 168//258
f 168//259 176//259 170//259 162//259
f 53//260 183//260 195//260 59//260
f 59//261 195//261 188//261 54//261
f 68//262 201//262 207//262 75//262
f 75//263 207//263 200//263 69//263
f 3//264 210//264 215//264 10//264
f 10//265 215//265 209//265 4//265
f 213//266 223//266 228//266 220//266
f 220//267 228//267 222//267 214//267
f 19//268 237//268 243//268 26//268
f 26//269 243//269 236//269 14//269
f 40//270 248//270 260//270 46//270
f 46//271 260//271 253//271 41//271
f 93//272 250//272 256//272 100//272
f 100//273 256//273 249//273 94//273
f 43//274 264//274 269//274 50//274
f 50//275 269//275 263//275 44//275
f 171//276 265//276 270//276 178//276
f 178//277 270//277 264//277 172//277
f 80//278 225//278 231//278 87//278
f 87//279 231//279 224//279 81//279
f 134//280 149//280 155//280 141//280
f 141//281 155//281 148//281 135//281
f 160//282 261//282 271//282 167//282
f 167//283 271//283 265//283 161//283
f 15//284 107//284 113//284 22//284
f 22//285 113//285 106//285 16//285
f 95//286 147//286 153//286 102//286
f 102//287 153//287 146//287 96//287
f 184//288 199//288 205//288 191//288
f 191//289 205//289 198//289 185//289
f 272//290 55//290 61//290 277//290
f 277//291 61//291 54//291 273//291
f 187//292 274//292 279//292 194//292
f 194//293 279//293 273//293 188//293
f 81//294 275//294 280//294 88//294
f 88//295 280//295 274//295 82//295
f 17//296 175//296 181//296 24//296
f 24//297 181//297 174//297 18//297
f 44//298 131//298 143//298 51//298
f 51//299 143//299 136//299 45//299
f 27//300 160//300 166//300 33//300
f 33//301 166//301 159//301 28//301
f 57//302 122//302 128//302 64//302
f 64//303 128//303 121//303 58//303
f 223//304 276//304 281//304 230//304
f 230//305 281//305 275//305 224//305
f 70//306 120//306 126//306 77//306
f 77//307 126//307 119//307 71//307
f 42//308 173//308 179//308 49//308
f 49//309 179//309 172//309 43//309
f 212//310 272//310 282//310 219//310
f 219//311 282//311 276//311 213//311
f 29//312 227//312 233//312 36//312
f 36//313 233//313 226//313 30//313
f 283//314 110//314 116//314 288//314
f 288//315 116//315 109//315 284//315
f 122//316 285//316 290//316 129//316
f 129//317 290//317 284//317 123//317
f 238//318 252//318 258//318 245//318
f 245//319 258//319 251//319 239//319
f 55//320 212//320 218//320 62//320
f 62//321 218//321 211//321 56//321
f 82//322 187//322 193//322 89//322
f 89//323 193//323 186//323 83//323
f 56//324 286//324 291//324 63//324
f 63//325 291//325 285//325 57//325
f 210//326 287//326 292//326 217//326
f 217//327 292//327 286//327 211//327
f 2//328 283//328 293//328 9//328
f 9//329 293//329 287//329 3//329
f 294//330 146//330 152//330 299//330
f 299//331 152//331 145//331 295//331
f 83//332 296//332 301//332 90//332
f 90//333 301//333 295//333 84//333
f 185//334 297//334 302//334 192//334
f 192//335 302//335 296//335 186//335
f 197//336 298//336 303//336 204//336
f 204//337 303//337 297//337 198//337
f 96//338 294//338 304//338 103//338
f 103//339 304//339 298//339 97//339
f 305//340 196//340 208//340 310//340
f 310//341 208//341 201//341 306//341
f 67//342 307//342 312//342 74//342
f 74//343 312//343 306//343 68//343
f 239//344 308//344 313//344 246//344
f 246//345 313//345 307//345 240//345
f 250//346 309//346 314//346 257//346
f 257//347 314//347 308//347 251//347
f 92//348 305//348 315//348 98//348
f 98//349 315//349 309//349 93//349
f 316//350 253//350 259//350 321//350
f 321//351 259//351 252//351 317//351
f 237//352 318//352 323//352 244//352
f 244//353 323//353 317//353 238//353
f 18//354 319//354 324//354 25//354
f 25//355 324//355 318//355 19//355
f 173//356 320//356 325//356 180//356
f 180//357 325//357 319//357 174//357
f 41//358 316//358 326//358 48//358
f 48//359 326//359 320//359 42//359
f 327//360 249//360 254//360 332//360
f 332//361 254//361 248//361 328//361
f 45//362 329//362 334//362 52//362
f 52//363 334//363 328//363 40//363
f 135//364 330//364 335//364 142//364
f 142//365 335//365 329//365 136//365
f 147//366 331//366 336//366 154//366
f 154//367 336//367 330//367 148//367
f 94//368 327//368 337//368 101//368
f 101//369 337//369 331//369 95//369
f 338//370 209//370 221//370 343//370
f 343//371 221//371 214//371 339//371
f 227//372 340//372 345//372 234//372
f 234//373 345//373 339//373 222//373
f 28//374 341//374 346//374 35//374
f 35//375 346//375 340//375 29//375
f 158//376 342//376 347//376 165//376
f 165//377 347//377 341//377 159//377
f 4//378 338//378 348//378 11//378
f 11//379 348//379 342//379 5//379
f 349//380 15//380 20//380 354//380
f 354//381 20//381 14//381 350//381
f 235//382 351//382 356//382 241//382
f 241//383 356//383 350//383 236//383
f 71//384 352//384 357//384 78//384
f 78//385 357//385 351//385 66//385
f 118//386 353//386 358//386 124//386
f 124//387 358//387 352//387 119//387
f 107//388 349//388 359//388 114//388
f 114//389 359//389 353//389 108//389
f 360//390 144//390 156//390 365//390
f 365//391 156//391 149//391 361//391
f 133//392 362//392 367//392 140//392
f 140//393 367//393 361//393 134//393
f 30//394 363//394 368//394 37//394
f 37//395 368//395 362//395 31//395
f 225//396 364//396 369//396 232//396
f 232//397 369//397 363//397 226//397
f 79//398 360//398 370//398 85//398
f 85//399 370//399 364//399 80//399
f 371//400 157//400 169//400 376//400
f 376//401 169//401 162//401 372//401
f 175//402 373//402 378//402 182//402
f 182//403 378//403 372//403 170//403
f 16//404 374//404 379//404 23//404
f 23//405 379//405 373//405 17//405
f 105//406 375//406 380//406 111//406
f 111//407 380//407 374//407 106//407
f 6//408 371//408 381//408 13//408
f 13//409 381//409 375//409 1//409
f 382//410 70//410 76//410 387//410
f 387//411 76//411 69//411 383//411
f 199//412 384//412 389//412 206//412
f 206//413 389//413 383//413 200//413
f 183//414 385//414 390//414 189//414
f 189//415 390//415 384//415 184//415
f 58//416 386//416 391//416 65//416
f 65//417 391//417 385//417 53//417
f 120//418 382//418 392//418 127//418
f 127//419 392//419 386//419 121//419
f 105//420 1//420 375//420
