# Blender v2.90.0 OBJ File: ''
# www.blender.org
mtllib Tav.mtl
o Tav
v -0.130746 -0.045879 -0.131639
v -0.158864 -0.056611 -0.124536
v -0.146668 -0.039648 -0.126639
v -0.145930 -0.056171 -0.095377
v -0.134114 -0.043734 -0.100427
v 0.322643 0.050412 -0.143548
v 0.345002 0.064781 -0.098557
v 0.352225 0.053880 -0.122867
v 0.308025 0.013121 -0.144092
v 0.319024 0.012703 -0.160837
v 0.337382 0.025491 -0.119568
v 0.329777 0.022731 -0.163560
v 0.313358 0.036580 -0.176926
v 0.346190 0.046819 -0.078824
v 0.323840 0.026211 -0.123464
v 0.069366 -0.067914 0.059386
v 0.087124 -0.073593 0.053225
v 0.055932 -0.070126 0.099611
v 0.058672 -0.069029 -0.018292
v 0.076461 -0.050437 -0.024331
v 0.091959 -0.075546 -0.025758
v 0.081837 -0.058880 0.008933
v 0.076959 -0.064563 0.009324
v 0.082984 -0.070083 0.018357
v 0.080283 -0.056941 0.095735
v 0.059922 -0.051417 0.067550
v 0.093577 -0.079036 -0.012509
v 0.054188 -0.073406 0.014077
v 0.099344 -0.047860 -0.007596
v 0.086193 -0.047112 0.020661
v -0.344749 0.050728 0.138040
v -0.346123 0.046088 0.131954
v -0.387945 0.082431 0.106430
v -0.369986 0.043308 0.116990
v -0.342666 0.033568 0.130033
v -0.376611 0.061738 0.143396
v -0.340283 0.043327 0.157974
v -0.311138 0.052641 0.115871
v -0.320535 0.037823 0.075150
v -0.329898 0.036902 0.096418
v -0.078307 -0.072069 0.011833
v -0.069969 -0.055506 0.024478
v -0.070885 -0.072074 0.037671
v -0.080568 -0.075668 0.046208
v -0.084601 -0.073492 0.001183
v -0.311773 -0.013621 -0.177659
v -0.282212 -0.028421 -0.128262
v -0.308833 -0.027592 -0.158439
v -0.295649 -0.001742 -0.145996
v 0.313841 0.009554 -0.072974
v 0.302038 0.024631 -0.092108
v -0.100438 -0.051470 0.029097
v -0.114301 -0.060639 -0.002920
v -0.099862 -0.072864 0.016988
v -0.294299 -0.021685 -0.015720
v -0.302357 -0.010798 -0.045386
v -0.299625 -0.027708 -0.078056
v -0.346196 0.012943 -0.173640
v -0.351577 -0.003933 -0.183680
v -0.330902 -0.014381 -0.152653
v 0.280568 0.006702 -0.083612
v 0.290635 0.023479 -0.084001
v 0.278100 0.006596 -0.138822
v 0.277403 0.003563 0.069387
v 0.289199 0.010158 0.028927
v 0.262451 0.014524 0.069453
v -0.145532 -0.068487 -0.131093
v -0.127738 -0.078080 -0.084792
v -0.125259 -0.065602 -0.123779
v -0.120948 -0.046264 -0.102669
v -0.102110 -0.079040 -0.027106
v -0.122466 -0.071129 -0.041390
v -0.101525 -0.052920 -0.066387
v -0.111037 -0.046264 -0.049581
v -0.106657 -0.077418 -0.058773
v -0.128276 -0.054948 -0.055649
v -0.009114 -0.049827 0.102901
v -0.020424 -0.038236 0.116658
v 0.017424 -0.047583 0.110381
v -0.036382 -0.048685 0.122768
v 0.016479 -0.049854 0.141915
v 0.028686 -0.038145 0.133376
v 0.022290 -0.058825 0.143450
v -0.029389 -0.043823 0.092732
v -0.028989 -0.070804 0.111669
v 0.018424 -0.069513 0.126700
v -0.037002 -0.069036 0.114405
v 0.032193 -0.078400 0.004237
v 0.014852 -0.072977 0.021235
v 0.023039 -0.049665 0.020536
v -0.024514 -0.064544 0.022442
v -0.069139 -0.049757 0.018654
v 0.014564 -0.058182 0.113388
v -0.047675 -0.073516 0.083573
v 0.011909 -0.070203 -0.003249
v 0.494999 0.171325 0.051091
v 0.470352 0.143195 0.055521
v 0.500484 0.157978 0.067775
v 0.470385 0.122816 0.021447
v 0.476432 0.142739 0.030941
v 0.492392 0.125981 0.036728
v 0.500496 0.160203 0.035774
v 0.470329 0.117582 0.054836
v 0.490538 0.125237 0.054224
v 0.470071 0.103178 0.037783
v -0.174194 -0.047262 0.150583
v -0.157167 -0.056763 0.129842
v -0.163470 -0.038669 0.124264
v -0.208748 -0.025096 0.149658
v -0.182752 -0.047509 0.118529
v -0.181216 -0.065128 0.145277
v -0.237641 -0.023456 0.175945
v -0.175675 -0.064259 0.118743
v -0.207350 -0.059174 0.136952
v -0.298196 0.008260 -0.019093
v -0.290314 0.022760 0.022403
v -0.289660 -0.005505 -0.092019
v -0.279467 0.010223 0.001796
v -0.278089 -0.012173 -0.112258
v -0.313587 0.013471 0.177955
v -0.258596 -0.003389 0.173581
v -0.266318 -0.013985 0.149098
v -0.311621 0.016888 0.143610
v -0.256668 -0.003057 0.157098
v -0.282048 -0.036766 -0.082897
v -0.297129 -0.036853 -0.110341
v -0.289450 -0.019062 0.159327
v -0.274110 -0.022085 0.179084
v -0.333937 0.005572 0.161702
v -0.322774 0.035040 0.151512
v -0.280641 -0.003991 0.016974
v -0.297219 0.007339 0.066341
v -0.302399 -0.015500 -0.087872
v -0.065633 -0.042996 0.060491
v -0.088455 -0.043782 0.031987
v -0.048442 -0.054302 -0.010715
v -0.081800 -0.059484 -0.011686
v -0.089235 -0.045165 -0.004724
v -0.076403 -0.039343 0.003935
v -0.062804 -0.044061 0.085511
v 0.165388 -0.057357 -0.135697
v 0.149158 -0.061795 -0.152497
v 0.137990 -0.055150 -0.123771
v 0.151705 -0.086522 -0.122208
v 0.123555 -0.085213 -0.083911
v 0.127185 -0.083541 -0.112677
v 0.144059 -0.074127 -0.088081
v 0.152922 -0.063992 -0.109271
v 0.129181 -0.054524 -0.066700
v 0.137240 -0.074321 -0.143134
v 0.125316 -0.081028 -0.053671
v -0.236454 -0.048482 0.161690
v -0.227851 -0.037131 0.171185
v -0.230272 -0.029711 0.139114
v -0.401147 0.058180 0.130537
v -0.424686 0.070494 0.096344
v -0.400295 0.055588 0.106801
v -0.427781 0.096544 0.064733
v -0.429531 0.114494 0.067743
v -0.401233 0.079045 0.089930
v -0.401409 0.091115 0.114802
v -0.424885 0.104066 0.101411
v -0.429765 0.091580 0.107956
v -0.436450 0.082445 0.076018
v -0.420048 0.107855 0.089598
v -0.324898 0.024047 0.138321
v -0.305540 0.040385 0.126387
v -0.316712 0.014016 0.086939
v 0.276564 0.010399 -0.034214
v 0.283911 -0.006120 -0.034359
v 0.273972 0.010802 -0.222101
v 0.270835 -0.011426 -0.215494
v 0.255538 0.005120 -0.205918
v -0.048471 -0.056120 0.064064
v -0.268806 -0.024162 -0.077914
v 0.254411 -0.005392 0.038714
v 0.254490 -0.016296 0.059457
v 0.232461 -0.015717 0.103288
v 0.277802 0.014210 -0.166959
v 0.403098 0.061067 -0.026142
v 0.371610 0.042937 -0.075293
v 0.398112 0.059629 -0.049708
v 0.323200 0.047486 -0.117321
v 0.515238 0.148893 0.048826
v 0.354838 0.036007 -0.120198
v 0.396163 0.066711 -0.059299
v 0.295723 0.035732 -0.171440
v 0.300043 0.019133 -0.152291
v 0.292787 0.019867 -0.207559
v 0.297412 0.001238 -0.201863
v 0.374959 0.081193 -0.058703
v 0.378774 0.074294 -0.074350
v 0.366792 0.045881 -0.063251
v 0.379948 0.079884 -0.027879
v -0.452236 0.125134 0.068808
v -0.464685 0.144155 0.028583
v -0.471367 0.123633 0.060027
v -0.486111 0.130415 0.033865
v -0.463200 0.126252 0.018744
v -0.310644 -0.010291 -0.120497
v 0.305099 -0.008012 -0.156450
v -0.288381 0.023976 0.061243
v 0.382084 0.071051 -0.022488
v 0.128252 -0.062930 -0.038471
v 0.119195 -0.059711 -0.000945
v -0.311309 0.000977 0.031820
v 0.451964 0.130984 0.035430
v 0.437233 0.108258 0.000753
v 0.430433 0.114793 0.019571
v -0.320132 0.001294 -0.145922
v 0.299634 -0.008881 -0.032683
v 0.296987 -0.007030 -0.077783
v 0.304141 0.000247 -0.011327
v 0.307427 0.018586 -0.044082
v 0.240098 0.007006 0.088331
v 0.058299 -0.047627 -0.005384
v 0.040846 -0.059150 -0.011962
v 0.042213 -0.056983 0.092043
v 0.078701 -0.041259 0.087645
v 0.063593 -0.056017 0.118053
v 0.041010 -0.036891 0.110107
v 0.067169 -0.039405 0.076768
v -0.356817 0.012808 -0.199666
v -0.369459 0.036712 0.152878
v -0.374917 0.031751 0.133454
v -0.330937 0.008749 0.144194
v -0.333163 0.001420 -0.201705
v -0.328780 0.058239 0.139659
v -0.345541 0.024233 -0.195907
v -0.330061 0.020105 -0.193462
v -0.334276 -0.014564 -0.184818
v 0.294047 0.021319 -0.018738
v 0.275525 0.018728 0.005508
v 0.295459 -0.013350 -0.149626
v 0.280435 -0.010554 -0.158212
v 0.274277 0.023034 -0.199394
v 0.272496 -0.013158 0.012220
v 0.272099 -0.011917 0.073339
v 0.287586 -0.010170 0.021184
v 0.174112 -0.080304 -0.141060
v 0.161892 -0.082653 -0.155297
v 0.168861 -0.062387 -0.154922
v -0.103519 -0.069167 -0.077389
v -0.329506 0.025336 0.105075
v 0.405732 0.089936 -0.038478
v 0.095706 -0.069524 0.057506
v 0.405873 0.097236 0.001564
v 0.008985 -0.052834 -0.003986
v -0.001293 -0.044865 0.006743
v 0.416853 0.084060 0.015262
v -0.086229 -0.069293 0.057586
v -0.068784 -0.061481 0.091312
v 0.106587 -0.070771 0.029065
v 0.105684 -0.081342 -0.030980
v 0.109558 -0.050616 -0.042456
v 0.106859 -0.075747 -0.071939
v 0.093343 -0.060551 -0.034354
v 0.103021 -0.046724 0.031261
v 0.120457 -0.052991 -0.085103
v 0.114204 -0.069161 -0.102152
v 0.260100 0.010501 0.024520
v 0.099662 -0.054051 0.059004
v -0.446843 0.097746 0.051379
v -0.308641 0.000245 -0.173807
v -0.444755 0.125247 0.045346
v 0.415687 0.103486 -0.009423
v 0.447276 0.085997 0.015537
v 0.451294 0.097024 0.007405
v 0.446501 0.114188 0.045372
v 0.426414 0.077011 0.009880
v -0.320997 0.009878 -0.164106
v -0.319191 0.046853 0.148173
v -0.308791 0.041049 0.068775
v 0.250867 0.008798 0.108160
v 0.233635 -0.001646 0.115170
v 0.254752 -0.019377 0.105992
v 0.257773 -0.003708 0.115204
v -0.454358 0.096893 0.080028
v 0.261397 -0.007298 -0.203053
v 0.441599 0.089690 0.030974
v 0.458015 0.125445 0.019817
v -0.314923 -0.028778 -0.138008
v -0.471055 0.107068 0.053686
v -0.471091 0.112383 0.027694
vn 0.4450 0.4831 -0.7540
vn -0.9618 -0.0824 -0.2609
vn -0.3819 0.8249 -0.4166
vn -0.9242 0.0670 0.3759
vn -0.2176 0.9620 0.1652
vn -0.2124 0.9581 -0.1923
vn -0.4253 0.9037 -0.0492
vn 0.5816 0.5825 -0.5678
vn 0.8604 -0.3310 0.3875
vn 0.4635 -0.8856 0.0280
vn 0.1936 -0.9464 0.2586
vn 0.8482 -0.2935 -0.4409
vn 0.3505 0.7244 -0.5937
vn -0.6622 -0.4719 0.5821
vn -0.3553 -0.7235 0.5918
vn -0.6517 -0.7112 -0.2636
vn 0.0474 -0.9923 0.1141
vn 0.0106 -0.9968 0.0786
vn -0.2688 -0.4636 -0.8443
vn -0.1765 0.6427 -0.7455
vn -0.4482 -0.6849 -0.5745
vn -0.5301 0.6705 0.5190
vn -0.1259 -0.3308 0.9353
vn -0.8711 -0.4906 -0.0229
vn 0.7895 -0.2556 0.5580
vn -0.8185 0.2762 -0.5038
vn -0.1383 -0.9902 0.0191
vn 0.1918 -0.5822 0.7901
vn 0.1475 0.9875 -0.0550
vn -0.5453 0.8084 -0.2217
vn 0.0688 0.9967 -0.0422
vn 0.0290 0.5360 -0.8437
vn 0.7029 0.6660 -0.2498
vn 0.1977 -0.5114 -0.8363
vn -0.1488 -0.2525 -0.9561
vn -0.0597 0.6283 0.7757
vn 0.0098 0.6415 0.7670
vn 0.4056 0.9135 -0.0315
vn -0.6955 0.6245 -0.3553
vn -0.9333 -0.0466 -0.3562
vn 0.3192 -0.9433 0.0913
vn 0.9381 -0.1497 0.3124
vn 0.6032 -0.7486 -0.2751
vn -0.1316 -0.9865 0.0973
vn 0.2049 -0.9584 -0.1986
vn 0.6211 -0.4264 -0.6576
vn 0.7694 -0.5060 -0.3899
vn 0.0771 -0.9171 -0.3912
vn 0.6650 0.7309 -0.1536
vn 0.9995 0.0268 0.0194
vn 0.3766 0.9253 -0.0441
vn -0.8520 0.4254 0.3052
vn -0.9624 -0.0082 0.2716
vn -0.5871 -0.7742 0.2367
vn -0.2024 -0.9582 0.2021
vn -0.9973 -0.0726 0.0076
vn -0.8945 -0.4410 0.0733
vn -0.5987 0.5777 0.5548
vn -0.8556 -0.5176 -0.0117
vn -0.8176 -0.4187 0.3951
vn -0.9914 -0.1308 -0.0017
vn -0.5007 0.8656 -0.0104
vn -0.9897 0.0955 0.1070
vn 0.8876 0.3018 0.3481
vn 0.8195 0.4912 0.2951
vn 0.1142 0.9843 0.1347
vn -0.3253 -0.6596 -0.6776
vn -0.3006 -0.9535 0.0208
vn 0.6715 -0.4712 -0.5719
vn 0.6258 0.7390 -0.2497
vn 0.1045 -0.9941 0.0274
vn -0.7613 -0.6150 0.2055
vn 0.7878 0.5517 -0.2738
vn -0.0923 0.9948 0.0418
vn 0.3235 -0.9435 -0.0723
vn -0.8812 0.3680 0.2969
vn 0.4115 0.4458 -0.7950
vn -0.0841 0.9864 0.1411
vn -0.1839 0.1672 -0.9686
vn -0.5174 0.3038 0.8000
vn -0.1233 0.3590 0.9252
vn 0.2250 0.7783 0.5862
vn 0.1660 -0.3469 0.9231
vn 0.3306 0.8275 -0.4537
vn -0.0677 -0.9732 0.2199
vn 0.0539 -0.9899 0.1310
vn -0.3839 -0.7111 0.5890
vn -0.0501 -0.9948 -0.0887
vn 0.0430 -0.5899 0.8064
vn 0.1301 0.6109 0.7809
vn -0.0482 -0.1888 0.9808
vn 0.3701 0.8101 0.4546
vn 0.0107 -0.5310 -0.8473
vn 0.1210 -0.9915 -0.0484
vn -0.1093 -0.5127 -0.8516
vn -0.0435 0.9976 0.0541
vn -0.6660 0.4762 0.5741
vn 0.2776 0.3193 0.9061
vn 0.4388 0.1542 -0.8853
vn -0.1992 0.5750 -0.7935
vn 0.6786 -0.5396 -0.4983
vn 0.3395 0.5074 -0.7920
vn 0.0225 -0.5254 0.8505
vn 0.4614 -0.7440 0.4833
vn 0.5574 -0.7997 0.2233
vn 0.5863 0.1650 0.7931
vn 0.9468 -0.3176 -0.0511
vn 0.6331 0.6569 -0.4096
vn 0.3633 0.9308 -0.0398
vn -0.1887 0.2427 -0.9516
vn 0.1912 -0.8545 0.4830
vn 0.3511 0.2144 0.9115
vn 0.1002 -0.6817 -0.7247
vn -0.4314 -0.7885 -0.4385
vn -0.5704 0.7699 -0.2862
vn 0.4186 0.8835 -0.2101
vn -0.1348 0.9882 -0.0724
vn 0.8762 0.4807 -0.0350
vn 0.8439 0.4970 -0.2019
vn -0.1355 0.1616 0.9775
vn 0.3851 0.6843 0.6192
vn -0.0868 0.0607 -0.9944
vn 0.2966 0.1187 -0.9476
vn 0.3851 0.8225 -0.4185
vn 0.2843 -0.9551 0.0839
vn -0.2954 -0.9549 0.0294
vn -0.4480 -0.8242 -0.3464
vn -0.2463 -0.4919 0.8351
vn -0.5680 -0.7393 0.3618
vn 0.7946 0.5015 0.3422
vn 0.8242 -0.4971 0.2713
vn 0.4015 -0.8425 0.3591
vn -0.9625 0.2634 0.0651
vn 0.1592 0.9759 -0.1492
vn -0.2887 0.9427 0.1672
vn 0.0660 0.3090 -0.9488
vn 0.5973 -0.1087 -0.7946
vn -0.0215 0.9639 -0.2653
vn -0.0023 0.9917 -0.1288
vn -0.4752 0.8218 0.3144
vn 0.5861 0.7987 0.1366
vn -0.3931 0.5426 -0.7423
vn -0.2934 0.9332 -0.2075
vn 0.2987 -0.9408 0.1603
vn -0.0700 -0.9971 0.0289
vn -0.5288 -0.8013 -0.2798
vn 0.8507 -0.3441 0.3974
vn 0.8128 0.4248 0.3985
vn 0.5704 0.8124 0.1207
vn -0.7532 -0.2840 -0.5933
vn 0.5561 -0.7961 0.2385
vn -0.2854 -0.8859 0.3658
vn 0.2529 -0.3143 0.9150
vn -0.1399 0.2941 -0.9455
vn -0.7239 -0.3422 0.5991
vn -0.5157 -0.8474 -0.1262
vn -0.3209 -0.8202 -0.4737
vn 0.5780 -0.2352 -0.7814
vn 0.7210 0.6066 -0.3348
vn 0.5193 -0.1477 -0.8417
vn 0.2606 0.8542 0.4500
vn -0.0200 0.7632 0.6458
vn -0.6070 0.1073 0.7874
vn -0.2473 -0.8666 -0.4335
vn 0.5752 0.8103 0.1121
vn 0.5126 -0.6633 -0.5452
vn 0.9186 0.0573 0.3910
vn -0.5426 -0.8363 0.0790
vn -0.9443 0.2999 -0.1354
vn -0.5913 -0.7901 -0.1615
vn -0.0788 0.2973 -0.9515
vn -0.1167 -0.7487 -0.6525
vn -0.9791 0.1392 -0.1481
vn 0.8806 -0.1138 -0.4600
vn 0.9713 -0.2368 0.0233
vn -0.8878 -0.2763 -0.3680
vn -0.2739 -0.9417 -0.1954
vn -0.7899 -0.5876 0.1752
vn -0.7583 0.6030 0.2480
vn 0.1818 -0.9455 0.2703
vn 0.2830 -0.9498 0.1334
vn 0.8657 -0.4589 -0.2001
vn -0.8272 0.4437 0.3447
vn 0.9977 -0.0629 -0.0251
vn 0.8009 -0.4892 -0.3454
vn 0.8396 -0.0198 -0.5428
vn -0.5122 0.8582 0.0347
vn -0.5574 0.7449 0.3667
vn 0.4332 0.5300 -0.7290
vn 0.7141 -0.4604 -0.5274
vn -0.3243 0.9347 -0.1451
vn 0.3805 0.7486 -0.5429
vn -0.0688 -0.8881 0.4545
vn -0.7843 0.3750 0.4942
vn 0.0092 0.8660 0.5000
vn 0.0755 0.9347 -0.3474
vn -0.6994 0.3867 0.6011
vn -0.9508 0.2673 -0.1563
vn 0.1942 0.0044 -0.9810
vn -0.7601 0.5484 0.3486
vn 0.8101 -0.5697 -0.1384
vn 0.9531 0.2694 0.1377
vn -0.2844 -0.0486 0.9575
vn 0.9672 0.0698 0.2440
vn 0.9317 0.3086 0.1916
vn -0.7814 -0.6163 0.0978
vn -0.6072 0.7938 -0.0352
vn 0.3459 0.5933 -0.7269
vn -0.5853 0.8083 0.0636
vn -0.3559 0.7401 0.5705
vn 0.4297 -0.9029 -0.0074
vn -0.4357 -0.8999 -0.0173
vn 0.9595 -0.1478 0.2396
vn 0.7658 0.6231 0.1590
vn -0.7487 0.6532 -0.1127
vn -0.0485 0.9961 -0.0733
vn -0.2534 0.3253 -0.9110
vn -0.7301 -0.2033 -0.6524
vn 0.5472 0.7764 0.3128
vn 0.6727 -0.0960 0.7337
vn 0.0503 0.9891 -0.1383
vn -0.1928 0.9545 -0.2276
vn -0.8056 0.1474 -0.5738
vn -0.5758 -0.2168 0.7883
vn -0.5396 -0.8316 -0.1314
vn -0.1678 -0.7367 -0.6551
vn 0.1943 -0.2524 -0.9479
vn 0.0399 0.9875 0.1528
vn -0.1653 0.9048 -0.3923
vn 0.4621 0.7919 -0.3992
vn -0.2377 -0.8783 -0.4147
vn 0.2659 0.9532 0.1440
vn -0.2427 0.9701 0.0013
vn 0.1642 -0.9862 0.0227
vn -0.5700 -0.8037 0.1709
vn -0.4594 0.8741 -0.1580
vn -0.4387 -0.8747 -0.2059
vn 0.7089 -0.6801 0.1869
vn 0.6534 -0.7302 0.1996
vn 0.8911 -0.4512 0.0488
vn 0.0993 -0.6543 -0.7497
vn 0.5492 0.5001 -0.6695
vn 0.8221 -0.4229 -0.3812
vn -0.7974 -0.5735 -0.1877
vn 0.2826 0.7873 -0.5480
vn 0.6345 -0.6805 0.3665
vn -0.7741 0.5218 0.3584
vn -0.0490 0.4400 -0.8967
vn 0.0290 0.9942 -0.1037
vn -0.5683 -0.4230 0.7058
vn -0.7344 -0.5225 0.4332
vn -0.7616 -0.2649 0.5914
vn 0.7126 -0.6454 0.2749
vn -0.2575 -0.9637 -0.0700
vn -0.1532 0.9837 -0.0943
vn -0.8173 -0.5368 -0.2094
vn -0.7581 0.2646 -0.5960
vn 0.5128 0.8543 0.0847
vn -0.3818 0.9102 -0.1608
vn -0.9134 0.0843 -0.3983
vn -0.8614 0.4264 -0.2761
vn 0.9089 0.1942 0.3691
vn 0.2071 -0.7613 -0.6145
vn 0.8355 0.3741 -0.4025
vn 0.8588 0.4153 -0.3001
vn -0.3390 0.9043 -0.2596
vn 0.5936 -0.7916 -0.1449
vn 0.4765 -0.3631 -0.8007
vn -0.5509 -0.0446 0.8334
vn 0.0425 -0.9066 0.4199
vn 0.2576 0.9364 0.2382
vn 0.6440 0.4199 0.6395
vn -0.0333 0.9564 -0.2903
vn 0.1114 0.8686 0.4829
vn -0.6769 0.1903 0.7110
vn 0.3000 -0.8390 0.4540
vn 0.5287 0.0237 0.8485
vn -0.8066 -0.4750 0.3519
vn -0.7696 -0.6369 0.0464
vn -0.0344 -0.7276 0.6851
vn 0.0825 0.7834 -0.6160
vn -0.6483 -0.7505 0.1283
vn -0.7500 -0.6466 0.1394
vn -0.3655 -0.6901 -0.6247
usemtl Tav
s 1
f 1//1 2//2 3//3
f 3//3 4//4 5//5
f 6//6 7//7 8//8
f 9//9 10//10 11//11
f 12//12 13//13 8//8
f 11//11 10//10 12//12
f 14//14 15//15 11//11
f 8//8 13//13 6//6
f 9//9 11//11 15//15
f 16//16 17//17 18//18
f 19//19 20//20 21//21
f 22//22 23//23 24//24
f 18//18 17//17 25//25
f 16//16 24//24 17//17
f 24//24 16//16 26//26
f 19//19 21//21 27//27
f 28//28 27//27 23//23
f 29//29 22//22 30//30
f 31//31 32//32 33//33
f 34//34 32//32 35//35
f 31//31 36//36 37//37
f 38//38 39//39 31//31
f 31//31 39//39 40//40
f 41//41 42//42 43//43
f 43//43 44//44 45//45
f 46//46 47//47 48//48
f 49//49 47//47 46//46
f 50//50 9//9 51//51
f 52//52 53//53 54//54
f 55//55 56//56 57//57
f 58//58 59//59 60//60
f 61//61 62//62 63//63
f 64//64 65//65 66//66
f 2//2 67//67 4//4
f 68//68 4//4 67//67
f 69//69 67//67 1//1
f 1//1 67//67 2//2
f 3//3 5//5 1//1
f 1//1 5//5 70//70
f 71//71 53//53 72//72
f 73//73 70//70 74//74
f 71//71 72//72 75//75
f 70//70 69//69 1//1
f 69//69 70//70 73//73
f 76//76 53//53 74//74
f 72//72 68//68 75//75
f 77//77 78//78 79//79
f 80//80 81//81 82//82
f 83//83 81//81 80//80
f 78//78 77//77 84//84
f 85//85 86//86 87//87
f 88//88 89//89 41//41
f 90//90 91//91 89//89
f 92//92 91//91 90//90
f 86//86 83//83 87//87
f 87//87 83//83 80//80
f 93//93 86//86 94//94
f 94//94 86//86 85//85
f 88//88 41//41 95//95
f 96//96 97//97 98//98
f 99//99 100//100 101//101
f 101//101 100//100 102//102
f 96//96 100//100 97//97
f 102//102 100//100 96//96
f 98//98 97//97 103//103
f 98//98 103//103 104//104
f 105//105 99//99 101//101
f 106//106 107//107 108//108
f 109//109 106//106 108//108
f 110//110 109//109 108//108
f 111//111 106//106 112//112
f 110//110 113//113 114//114
f 111//111 114//114 113//113
f 115//115 116//116 117//117
f 117//117 116//116 118//118
f 47//47 49//49 119//119
f 37//37 120//120 121//121
f 122//122 123//123 124//124
f 125//125 126//126 47//47
f 127//127 128//128 129//129
f 57//57 126//126 55//55
f 55//55 126//126 125//125
f 130//130 37//37 121//121
f 123//123 130//130 124//124
f 55//55 131//131 132//132
f 48//48 47//47 126//126
f 127//127 123//123 122//122
f 49//49 117//117 119//119
f 115//115 117//117 133//133
f 119//119 117//117 118//118
f 4//4 76//76 5//5
f 68//68 67//67 69//69
f 74//74 5//5 76//76
f 45//45 41//41 43//43
f 134//134 92//92 135//135
f 136//136 137//137 138//138
f 139//139 136//136 138//138
f 140//140 134//134 52//52
f 135//135 92//92 139//139
f 52//52 134//134 135//135
f 92//92 134//134 42//42
f 141//141 142//142 143//143
f 144//144 145//145 146//146
f 147//147 145//145 144//144
f 141//141 143//143 148//148
f 149//149 148//148 143//143
f 146//146 150//150 144//144
f 145//145 147//147 151//151
f 106//106 111//111 107//107
f 107//107 111//111 113//113
f 108//108 113//113 110//110
f 107//107 113//113 108//108
f 111//111 152//152 114//114
f 153//153 152//152 111//111
f 114//114 154//154 110//110
f 155//155 156//156 157//157
f 158//158 159//159 160//160
f 161//161 162//162 163//163
f 158//158 160//160 164//164
f 165//165 162//162 33//33
f 159//159 165//165 160//160
f 160//160 165//165 33//33
f 164//164 160//160 156//156
f 163//163 156//156 155//155
f 166//166 132//132 167//167
f 168//168 132//132 166//166
f 169//169 61//61 170//170
f 171//171 172//172 173//173
f 84//84 174//174 134//134
f 47//47 175//175 125//125
f 42//42 174//174 43//43
f 176//176 177//177 178//178
f 63//63 62//62 179//179
f 180//180 181//181 182//182
f 183//183 7//7 6//6
f 184//184 101//101 102//102
f 185//185 186//186 182//182
f 187//187 188//188 183//183
f 33//33 161//161 36//36
f 171//171 189//189 190//190
f 8//8 191//191 192//192
f 7//7 191//191 8//8
f 14//14 181//181 193//193
f 11//11 185//185 181//181
f 194//194 191//191 7//7
f 11//11 181//181 14//14
f 186//186 8//8 192//192
f 195//195 196//196 197//197
f 197//197 196//196 198//198
f 196//196 199//199 198//198
f 117//117 200//200 133//133
f 9//9 50//50 201//201
f 190//190 201//201 172//172
f 118//118 116//116 202//202
f 7//7 183//183 203//203
f 203//203 183//183 14//14
f 151//151 204//204 205//205
f 147//147 149//149 204//204
f 206//206 40//40 39//39
f 207//207 208//208 209//209
f 186//186 180//180 182//182
f 58//58 60//60 210//210
f 187//187 6//6 13//13
f 211//211 201//201 50//50
f 212//212 201//201 211//211
f 39//39 115//115 56//56
f 213//213 50//50 214//214
f 176//176 178//178 215//215
f 101//101 184//184 104//104
f 104//104 184//184 98//98
f 98//98 184//184 96//96
f 96//96 184//184 102//102
f 88//88 27//27 28//28
f 29//29 216//216 22//22
f 95//95 27//27 88//88
f 90//90 23//23 22//22
f 19//19 217//217 20//20
f 16//16 18//18 218//218
f 25//25 219//219 220//220
f 220//220 219//219 221//221
f 219//219 222//222 221//221
f 20//20 216//216 29//29
f 217//217 216//216 20//20
f 90//90 22//22 216//216
f 19//19 27//27 95//95
f 223//223 59//59 58//58
f 120//120 37//37 224//224
f 224//224 37//37 36//36
f 166//166 34//34 35//35
f 225//225 34//34 226//226
f 226//226 34//34 166//166
f 59//59 223//223 227//227
f 225//225 129//129 224//224
f 226//226 129//129 225//225
f 31//31 37//37 228//228
f 229//229 58//58 230//230
f 231//231 59//59 227//227
f 227//227 223//223 230//230
f 230//230 223//223 229//229
f 65//65 232//232 233//233
f 233//233 232//232 169//169
f 234//234 235//235 172//172
f 236//236 187//187 189//189
f 189//189 187//187 13//13
f 170//170 61//61 212//212
f 61//61 235//235 212//212
f 212//212 235//235 234//234
f 237//237 170//170 211//211
f 238//238 239//239 64//64
f 237//237 239//239 238//238
f 179//179 62//62 188//188
f 188//188 62//62 51//51
f 239//239 237//237 211//211
f 171//171 190//190 172//172
f 66//66 65//65 233//233
f 211//211 170//170 212//212
f 51//51 62//62 232//232
f 169//169 232//232 62//62
f 234//234 172//172 201//201
f 240//240 241//241 242//242
f 75//75 68//68 243//243
f 40//40 32//32 31//31
f 244//244 32//32 40//40
f 35//35 32//32 244//244
f 186//186 245//245 208//208
f 246//246 25//25 17//17
f 25//25 220//220 18//18
f 247//247 191//191 194//194
f 68//68 76//76 4//4
f 61//61 169//169 62//62
f 87//87 94//94 85//85
f 95//95 136//136 248//248
f 249//249 92//92 90//90
f 137//137 95//95 45//45
f 136//136 95//95 137//137
f 41//41 45//45 95//95
f 181//181 180//180 203//203
f 245//245 191//191 247//247
f 245//245 192//192 191//191
f 194//194 203//203 180//180
f 250//250 194//194 180//180
f 193//193 181//181 203//203
f 121//121 124//124 130//130
f 120//120 112//112 121//121
f 128//128 112//112 120//120
f 128//128 127//127 152//152
f 52//52 251//251 252//252
f 54//54 45//45 44//44
f 135//135 139//139 138//138
f 140//140 52//52 252//252
f 44//44 251//251 54//54
f 253//253 246//246 254//254
f 254//254 246//246 27//27
f 255//255 29//29 205//205
f 256//256 254//254 257//257
f 205//205 29//29 258//258
f 27//27 246//246 17//17
f 21//21 254//254 27//27
f 254//254 256//256 145//145
f 29//29 255//255 257//257
f 149//149 255//255 205//205
f 255//255 259//259 260//260
f 110//110 154//154 109//109
f 34//34 157//157 160//160
f 33//33 36//36 31//31
f 32//32 160//160 33//33
f 34//34 160//160 32//32
f 225//225 157//157 34//34
f 4//4 3//3 2//2
f 261//261 233//233 169//169
f 130//130 123//123 166//166
f 262//262 219//219 25//25
f 143//143 150//150 260//260
f 38//38 167//167 202//202
f 12//12 8//8 185//185
f 147//147 204//204 151//151
f 240//240 148//148 144//144
f 141//141 148//148 240//240
f 165//165 195//195 162//162
f 164//164 263//263 158//158
f 163//163 162//162 195//195
f 159//159 195//195 165//165
f 69//69 73//73 243//243
f 82//82 83//83 220//220
f 227//227 230//230 264//264
f 9//9 201//201 190//190
f 263//263 265//265 159//159
f 169//169 170//170 237//237
f 137//137 75//75 243//243
f 71//71 75//75 137//137
f 147//147 144//144 148//148
f 97//97 100//100 207//207
f 43//43 77//77 94//94
f 84//84 77//77 43//43
f 63//63 235//235 61//61
f 209//209 208//208 266//266
f 186//186 208//208 267//267
f 267//267 208//208 268//268
f 247//247 269//269 209//209
f 250//250 269//269 247//247
f 180//180 186//186 267//267
f 180//180 270//270 250//250
f 266//266 208//208 245//245
f 218//218 18//18 93//93
f 81//81 83//83 82//82
f 90//90 216//216 249//249
f 217//217 19//19 95//95
f 83//83 86//86 18//18
f 248//248 216//216 217//217
f 249//249 216//216 248//248
f 90//90 89//89 28//28
f 23//23 90//90 28//28
f 220//220 221//221 82//82
f 35//35 244//244 166//166
f 166//166 244//244 168//168
f 129//129 226//226 127//127
f 58//58 271//271 230//230
f 167//167 38//38 228//228
f 37//37 130//130 272//272
f 167//167 228//228 272//272
f 228//228 38//38 31//31
f 210//210 271//271 58//58
f 60//60 59//59 48//48
f 48//48 59//59 231//231
f 273//273 39//39 38//38
f 129//129 120//120 224//224
f 37//37 272//272 228//228
f 215//215 274//274 66//66
f 275//275 274//274 215//215
f 275//275 178//178 276//276
f 274//274 275//275 277//277
f 276//276 178//178 177//177
f 277//277 275//275 276//276
f 133//133 56//56 115//115
f 116//116 115//115 273//273
f 227//227 264//264 46//46
f 156//156 163//163 278//278
f 142//142 141//141 242//242
f 72//72 76//76 68//68
f 15//15 14//14 188//188
f 188//188 14//14 183//183
f 235//235 63//63 279//279
f 279//279 63//63 179//179
f 203//203 14//14 193//193
f 9//9 190//190 10//10
f 253//253 205//205 262//262
f 262//262 205//205 258//258
f 143//143 259//259 149//149
f 103//103 105//105 101//101
f 257//257 254//254 21//21
f 259//259 143//143 260//260
f 74//74 53//53 52//52
f 189//189 13//13 12//12
f 9//9 15//15 188//188
f 119//119 175//175 47//47
f 262//262 246//246 253//253
f 241//241 240//240 144//144
f 263//263 199//199 265//265
f 236//236 173//173 179//179
f 171//171 173//173 236//236
f 127//127 114//114 152//152
f 154//154 114//114 127//127
f 132//132 131//131 167//167
f 167//167 131//131 202//202
f 151//151 205//205 253//253
f 25//25 246//246 262//262
f 235//235 279//279 172//172
f 179//179 187//187 236//236
f 280//280 267//267 105//105
f 105//105 267//267 268//268
f 169//169 237//237 261//261
f 203//203 194//194 7//7
f 16//16 218//218 26//26
f 87//87 80//80 252//252
f 281//281 268//268 208//208
f 268//268 281//281 99//99
f 207//207 281//281 208//208
f 103//103 269//269 105//105
f 97//97 207//207 269//269
f 99//99 281//281 207//207
f 97//97 269//269 103//103
f 99//99 207//207 100//100
f 269//269 280//280 105//105
f 142//142 150//150 143//143
f 148//148 149//149 147//147
f 150//150 146//146 260//260
f 161//161 33//33 162//162
f 157//157 156//156 160//160
f 69//69 243//243 68//68
f 104//104 103//103 101//101
f 214//214 50//50 51//51
f 60//60 282//282 200//200
f 115//115 39//39 273//273
f 173//173 279//279 179//179
f 167//167 272//272 130//130
f 185//185 11//11 12//12
f 86//86 93//93 18//18
f 28//28 89//89 88//88
f 93//93 79//79 218//218
f 248//248 217//217 95//95
f 231//231 46//46 48//48
f 271//271 264//264 230//230
f 123//123 226//226 166//166
f 49//49 271//271 210//210
f 264//264 271//271 49//49
f 48//48 282//282 60//60
f 273//273 38//38 116//116
f 196//196 195//195 265//265
f 197//197 283//283 278//278
f 263//263 284//284 199//199
f 215//215 261//261 176//176
f 244//244 40//40 168//168
f 168//168 40//40 206//206
f 251//251 52//52 54//54
f 130//130 166//166 167//167
f 118//118 175//175 119//119
f 239//239 211//211 213//213
f 229//229 223//223 58//58
f 232//232 213//213 214//214
f 65//65 213//213 232//232
f 24//24 30//30 22//22
f 73//73 137//137 243//243
f 254//254 151//151 253//253
f 186//186 192//192 245//245
f 26//26 222//222 30//30
f 236//236 189//189 171//171
f 237//237 238//238 177//177
f 66//66 233//233 261//261
f 176//176 237//237 177//177
f 131//131 118//118 202//202
f 186//186 185//185 8//8
f 270//270 180//180 267//267
f 72//72 53//53 76//76
f 252//252 80//80 140//140
f 38//38 202//202 116//116
f 260//260 257//257 255//255
f 29//29 257//257 20//20
f 30//30 258//258 29//29
f 219//219 262//262 258//258
f 24//24 27//27 17//17
f 23//23 27//27 24//24
f 20//20 257//257 21//21
f 219//219 258//258 30//30
f 224//224 155//155 225//225
f 36//36 155//155 224//224
f 209//209 269//269 207//207
f 277//277 238//238 64//64
f 276//276 238//238 277//277
f 198//198 283//283 197//197
f 284//284 283//283 198//198
f 266//266 247//247 209//209
f 257//257 260//260 256//256
f 181//181 185//185 182//182
f 221//221 78//78 82//82
f 79//79 78//78 221//221
f 93//93 77//77 79//79
f 282//282 126//126 133//133
f 133//133 126//126 57//57
f 200//200 117//117 49//49
f 206//206 55//55 132//132
f 206//206 132//132 168//168
f 123//123 127//127 226//226
f 48//48 126//126 282//282
f 142//142 241//241 150//150
f 150//150 241//241 144//144
f 142//142 242//242 241//241
f 159//159 158//158 263//263
f 164//164 156//156 278//278
f 43//43 94//94 44//44
f 177//177 238//238 276//276
f 213//213 65//65 239//239
f 245//245 247//247 266//266
f 275//275 215//215 178//178
f 206//206 39//39 56//56
f 247//247 194//194 250//250
f 277//277 64//64 274//274
f 239//239 65//65 64//64
f 137//137 45//45 71//71
f 198//198 199//199 284//284
f 118//118 131//131 175//175
f 45//45 54//54 71//71
f 71//71 54//54 53//53
f 74//74 138//138 73//73
f 73//73 138//138 137//137
f 135//135 138//138 52//52
f 52//52 138//138 74//74
f 26//26 30//30 24//24
f 106//106 109//109 112//112
f 112//112 153//153 111//111
f 74//74 70//70 5//5
f 136//136 139//139 248//248
f 140//140 78//78 84//84
f 89//89 91//91 41//41
f 43//43 174//174 84//84
f 78//78 140//140 80//80
f 94//94 87//87 252//252
f 248//248 139//139 249//249
f 139//139 92//92 249//249
f 42//42 91//91 92//92
f 183//183 6//6 187//187
f 12//12 190//190 189//189
f 188//188 51//51 9//9
f 232//232 214//214 51//51
f 212//212 234//234 201//201
f 109//109 124//124 121//121
f 153//153 128//128 152//152
f 122//122 154//154 127//127
f 154//154 122//122 124//124
f 109//109 121//121 112//112
f 80//80 82//82 78//78
f 30//30 222//222 219//219
f 77//77 93//93 94//94
f 280//280 270//270 267//267
f 280//280 269//269 250//250
f 280//280 250//250 270//270
f 55//55 125//125 175//175
f 131//131 55//55 175//175
f 205//205 204//204 149//149
f 146//146 145//145 256//256
f 255//255 149//149 259//259
f 145//145 151//151 254//254
f 36//36 161//161 163//163
f 163//163 155//155 36//36
f 179//179 188//188 187//187
f 46//46 264//264 49//49
f 210//210 60//60 200//200
f 163//163 197//197 278//278
f 195//195 197//197 163//163
f 263//263 278//278 283//283
f 196//196 265//265 199//199
f 263//263 283//283 284//284
f 265//265 195//195 159//159
f 46//46 231//231 227//227
f 18//18 220//220 83//83
f 129//129 128//128 120//120
f 105//105 268//268 99//99
f 221//221 222//222 26//26
f 221//221 26//26 218//218
f 140//140 84//84 134//134
f 41//41 91//91 42//42
f 134//134 174//174 42//42
f 176//176 261//261 237//237
f 274//274 64//64 66//66
f 172//172 279//279 173//173
f 153//153 112//112 128//128
f 154//154 124//124 109//109
f 211//211 50//50 213//213
f 133//133 57//57 56//56
f 56//56 55//55 206//206
f 242//242 141//141 240//240
f 225//225 155//155 157//157
f 10//10 190//190 12//12
f 164//164 278//278 263//263
f 79//79 221//221 218//218
f 251//251 94//94 252//252
f 44//44 94//94 251//251
f 146//146 256//256 260//260
f 282//282 133//133 200//200
f 261//261 215//215 66//66
f 210//210 200//200 49//49
