# Blender v2.90.0 OBJ File: ''
# www.blender.org
mtllib Teapot.mtl
o Teapot
v -0.222205 -0.067521 0.104992
v -0.216220 -0.065510 0.114818
v -0.227658 0.007121 0.114818
v -0.233959 0.007121 0.104992
v -0.210325 -0.063530 0.119732
v -0.221450 0.007121 0.119732
v -0.205940 -0.062057 0.119732
v -0.216834 0.007121 0.119732
v -0.204488 -0.061570 0.114818
v -0.215305 0.007121 0.114818
v -0.207392 -0.062545 0.104992
v -0.218362 0.007121 0.104992
v -0.189339 -0.131832 0.104992
v -0.184239 -0.128089 0.114818
v -0.179215 -0.124402 0.119732
v -0.175479 -0.121661 0.119732
v -0.174242 -0.120752 0.114818
v -0.176716 -0.122569 0.104992
v -0.138954 -0.182217 0.104992
v -0.135210 -0.177118 0.114818
v -0.131524 -0.172094 0.119732
v -0.128782 -0.168357 0.119732
v -0.127874 -0.167121 0.114818
v -0.129690 -0.169595 0.104992
v -0.074642 -0.215083 0.104992
v -0.072632 -0.209100 0.114818
v -0.070652 -0.203203 0.119732
v -0.069179 -0.198819 0.119732
v -0.068691 -0.197367 0.114818
v -0.069666 -0.200271 0.104992
v 0.000000 -0.226838 0.104992
v 0.000000 -0.220537 0.114818
v 0.000000 -0.214329 0.119732
v 0.000000 -0.209712 0.119732
v 0.000000 -0.208183 0.114818
v 0.000000 -0.211241 0.104992
v -0.074642 0.229326 0.104992
v -0.072632 0.223341 0.114818
v 0.000000 0.234779 0.114818
v 0.000000 0.241080 0.104992
v -0.070652 0.217446 0.119732
v 0.000000 0.228571 0.119732
v -0.069179 0.213061 0.119732
v 0.000000 0.223955 0.119732
v -0.068691 0.211609 0.114818
v 0.000000 0.222426 0.114818
v -0.069666 0.214513 0.104992
v 0.000000 0.225484 0.104992
v -0.138953 0.196460 0.104992
v -0.135210 0.191361 0.114818
v -0.131524 0.186337 0.119732
v -0.128782 0.182600 0.119732
v -0.127874 0.181363 0.114818
v -0.129690 0.183837 0.104992
v -0.189339 0.146075 0.104992
v -0.184239 0.142332 0.114818
v -0.179215 0.138645 0.119732
v -0.175479 0.135904 0.119732
v -0.174242 0.134995 0.114818
v -0.176716 0.136811 0.104992
v -0.222205 0.081764 0.104992
v -0.216220 0.079753 0.114818
v -0.210325 0.077773 0.119732
v -0.205940 0.076300 0.119732
v -0.204488 0.075813 0.114818
v -0.207392 0.076788 0.104992
v 0.222205 0.081764 0.104992
v 0.216220 0.079753 0.114818
v 0.227658 0.007121 0.114818
v 0.233959 0.007121 0.104992
v 0.210325 0.077773 0.119732
v 0.221450 0.007121 0.119732
v 0.205940 0.076300 0.119732
v 0.216834 0.007121 0.119732
v 0.204488 0.075813 0.114818
v 0.215305 0.007121 0.114818
v 0.207392 0.076788 0.104992
v 0.218362 0.007121 0.104992
v 0.189339 0.146074 0.104992
v 0.184239 0.142332 0.114818
v 0.179215 0.138645 0.119732
v 0.175479 0.135904 0.119732
v 0.174242 0.134995 0.114818
v 0.176716 0.136811 0.104992
v 0.138954 0.196460 0.104992
v 0.135210 0.191361 0.114818
v 0.131524 0.186337 0.119732
v 0.128782 0.182600 0.119732
v 0.127874 0.181363 0.114818
v 0.129690 0.183837 0.104992
v 0.074642 0.229326 0.104992
v 0.072632 0.223341 0.114818
v 0.070652 0.217446 0.119732
v 0.069179 0.213061 0.119732
v 0.068691 0.211609 0.114818
v 0.069666 0.214513 0.104992
v 0.074642 -0.215083 0.104992
v 0.072632 -0.209100 0.114818
v 0.070652 -0.203203 0.119732
v 0.069179 -0.198819 0.119732
v 0.068691 -0.197367 0.114818
v 0.069666 -0.200271 0.104992
v 0.138953 -0.182217 0.104992
v 0.135210 -0.177118 0.114818
v 0.131524 -0.172094 0.119732
v 0.128782 -0.168357 0.119732
v 0.127874 -0.167121 0.114818
v 0.129690 -0.169595 0.104992
v 0.189339 -0.131832 0.104992
v 0.184239 -0.128089 0.114818
v 0.179215 -0.124402 0.119732
v 0.175479 -0.121661 0.119732
v 0.174242 -0.120752 0.114818
v 0.176716 -0.122569 0.104992
v 0.222205 -0.067521 0.104992
v 0.216220 -0.065510 0.114818
v 0.210325 -0.063530 0.119732
v 0.205940 -0.062057 0.119732
v 0.204488 -0.061570 0.114818
v 0.207392 -0.062545 0.104992
v -0.296274 -0.092401 -0.128967
v -0.292126 -0.091008 -0.085545
v -0.307578 0.007121 -0.085545
v -0.311946 0.007121 -0.128967
v -0.280868 -0.087226 -0.039875
v -0.295725 0.007121 -0.039875
v -0.264276 -0.081653 0.007478
v -0.278255 0.007121 0.007478
v -0.244129 -0.074886 0.055954
v -0.257043 0.007121 0.055954
v -0.252452 -0.178150 -0.128967
v -0.248917 -0.175556 -0.085545
v -0.239324 -0.168515 -0.039875
v -0.225187 -0.158141 0.007478
v -0.208020 -0.145542 0.055954
v -0.185271 -0.245330 -0.128967
v -0.182677 -0.241796 -0.085545
v -0.175636 -0.232203 -0.039875
v -0.165262 -0.218065 0.007478
v -0.152664 -0.200898 0.055954
v -0.099523 -0.289153 -0.128967
v -0.098129 -0.285005 -0.085545
v -0.094348 -0.273747 -0.039875
v -0.088774 -0.257155 0.007478
v -0.082007 -0.237008 0.055954
v 0.000000 -0.304824 -0.128967
v 0.000000 -0.300457 -0.085545
v 0.000000 -0.288604 -0.039875
v 0.000000 -0.271134 0.007478
v 0.000000 -0.249922 0.055954
v -0.099523 0.303395 -0.128967
v -0.098129 0.299247 -0.085545
v 0.000000 0.314700 -0.085545
v 0.000000 0.319067 -0.128967
v -0.094348 0.287988 -0.039875
v 0.000000 0.302846 -0.039875
v -0.088774 0.271397 0.007478
v 0.000000 0.285377 0.007478
v -0.082007 0.251251 0.055954
v 0.000000 0.264165 0.055954
v -0.185271 0.259573 -0.128967
v -0.182677 0.256038 -0.085545
v -0.175636 0.246446 -0.039875
v -0.165262 0.232308 0.007478
v -0.152664 0.215141 0.055954
v -0.252452 0.192393 -0.128967
v -0.248917 0.189798 -0.085545
v -0.239324 0.182758 -0.039875
v -0.225187 0.172383 0.007478
v -0.208020 0.159785 0.055954
v -0.296274 0.106644 -0.128967
v -0.292126 0.105251 -0.085545
v -0.280868 0.101469 -0.039875
v -0.264276 0.095896 0.007478
v -0.244129 0.089128 0.055954
v 0.296274 0.106644 -0.128967
v 0.292126 0.105251 -0.085545
v 0.307578 0.007121 -0.085545
v 0.311946 0.007121 -0.128967
v 0.280868 0.101469 -0.039875
v 0.295725 0.007121 -0.039875
v 0.264276 0.095896 0.007478
v 0.278255 0.007121 0.007478
v 0.244129 0.089128 0.055954
v 0.257043 0.007121 0.055954
v 0.252452 0.192393 -0.128967
v 0.248917 0.189798 -0.085545
v 0.239324 0.182758 -0.039875
v 0.225187 0.172383 0.007478
v 0.208020 0.159785 0.055954
v 0.185271 0.259573 -0.128967
v 0.182677 0.256038 -0.085545
v 0.175636 0.246445 -0.039875
v 0.165262 0.232308 0.007478
v 0.152664 0.215141 0.055954
v 0.099523 0.303395 -0.128967
v 0.098129 0.299247 -0.085545
v 0.094348 0.287988 -0.039875
v 0.088774 0.271397 0.007478
v 0.082007 0.251251 0.055954
v 0.099523 -0.289153 -0.128967
v 0.098129 -0.285005 -0.085545
v 0.094348 -0.273747 -0.039875
v 0.088774 -0.257155 0.007478
v 0.082007 -0.237008 0.055954
v 0.185271 -0.245330 -0.128967
v 0.182677 -0.241796 -0.085545
v 0.175636 -0.232203 -0.039875
v 0.165262 -0.218065 0.007478
v 0.152664 -0.200898 0.055954
v 0.252452 -0.178150 -0.128967
v 0.248917 -0.175556 -0.085545
v 0.239324 -0.168516 -0.039875
v 0.225187 -0.158141 0.007478
v 0.208020 -0.145542 0.055954
v 0.296274 -0.092401 -0.128967
v 0.292126 -0.091008 -0.085545
v 0.280868 -0.087226 -0.039875
v 0.264276 -0.081653 0.007478
v 0.244129 -0.074886 0.055954
v -0.222205 -0.067521 -0.245947
v -0.229908 -0.070109 -0.236027
v -0.242070 0.007121 -0.236027
v -0.233959 0.007121 -0.245947
v -0.248278 -0.076279 -0.219931
v -0.261411 0.007121 -0.219931
v -0.270201 -0.083644 -0.197096
v -0.284495 0.007121 -0.197096
v -0.288571 -0.089814 -0.166962
v -0.303835 0.007121 -0.166962
v -0.189339 -0.131832 -0.245947
v -0.195902 -0.136649 -0.236027
v -0.211555 -0.148136 -0.219931
v -0.230236 -0.161846 -0.197096
v -0.245888 -0.173332 -0.166962
v -0.138954 -0.182217 -0.245947
v -0.143770 -0.188781 -0.236027
v -0.155257 -0.204433 -0.219931
v -0.168967 -0.223114 -0.197096
v -0.180454 -0.238767 -0.166962
v -0.074642 -0.215083 -0.245947
v -0.077230 -0.222787 -0.236027
v -0.083400 -0.241156 -0.219931
v -0.090765 -0.263080 -0.197096
v -0.096935 -0.281450 -0.166962
v 0.000000 -0.226838 -0.245947
v 0.000000 -0.234948 -0.236027
v 0.000000 -0.254289 -0.219931
v 0.000000 -0.277374 -0.197096
v 0.000000 -0.296713 -0.166962
v -0.074642 0.229326 -0.245947
v -0.077230 0.237029 -0.236027
v 0.000000 0.249191 -0.236027
v 0.000000 0.241080 -0.245947
v -0.083400 0.255399 -0.219931
v 0.000000 0.268532 -0.219931
v -0.090765 0.277323 -0.197096
v 0.000000 0.291616 -0.197096
v -0.096935 0.295692 -0.166962
v 0.000000 0.310956 -0.166962
v -0.138953 0.196460 -0.245947
v -0.143770 0.203024 -0.236027
v -0.155257 0.218676 -0.219931
v -0.168967 0.237357 -0.197096
v -0.180454 0.253009 -0.166962
v -0.189339 0.146075 -0.245947
v -0.195902 0.150891 -0.236027
v -0.211555 0.162378 -0.219931
v -0.230236 0.176088 -0.197096
v -0.245888 0.187575 -0.166962
v -0.222205 0.081764 -0.245947
v -0.229908 0.084351 -0.236027
v -0.248278 0.090522 -0.219931
v -0.270201 0.097886 -0.197096
v -0.288571 0.104057 -0.166962
v 0.222205 0.081764 -0.245947
v 0.229908 0.084351 -0.236027
v 0.242070 0.007121 -0.236027
v 0.233959 0.007121 -0.245947
v 0.248278 0.090522 -0.219931
v 0.261411 0.007121 -0.219931
v 0.270201 0.097886 -0.197096
v 0.284495 0.007121 -0.197096
v 0.288571 0.104057 -0.166962
v 0.303835 0.007121 -0.166962
v 0.189339 0.146074 -0.245947
v 0.195902 0.150891 -0.236027
v 0.211555 0.162378 -0.219931
v 0.230236 0.176088 -0.197096
v 0.245888 0.187575 -0.166962
v 0.138954 0.196460 -0.245947
v 0.143770 0.203024 -0.236027
v 0.155257 0.218676 -0.219931
v 0.168967 0.237357 -0.197096
v 0.180454 0.253009 -0.166962
v 0.074642 0.229326 -0.245947
v 0.077230 0.237029 -0.236027
v 0.083400 0.255399 -0.219931
v 0.090765 0.277323 -0.197096
v 0.096935 0.295692 -0.166962
v 0.074642 -0.215083 -0.245947
v 0.077230 -0.222787 -0.236027
v 0.083400 -0.241156 -0.219931
v 0.090765 -0.263080 -0.197096
v 0.096935 -0.281450 -0.166962
v 0.138953 -0.182217 -0.245947
v 0.143770 -0.188781 -0.236027
v 0.155257 -0.204433 -0.219931
v 0.168967 -0.223114 -0.197096
v 0.180454 -0.238767 -0.166962
v 0.189339 -0.131832 -0.245947
v 0.195902 -0.136649 -0.236027
v 0.211555 -0.148136 -0.219931
v 0.230236 -0.161846 -0.197096
v 0.245888 -0.173332 -0.166962
v 0.222205 -0.067521 -0.245947
v 0.229908 -0.070109 -0.236027
v 0.248278 -0.076279 -0.219931
v 0.270201 -0.083644 -0.197096
v 0.288571 -0.089814 -0.166962
v -0.022460 0.470174 0.011409
v -0.022460 0.461023 0.043879
v 0.000000 0.465681 0.045660
v 0.000000 0.475040 0.011409
v -0.022460 0.433623 0.063575
v 0.000000 0.437607 0.066435
v -0.022460 0.388050 0.073688
v 0.000000 0.390815 0.077104
v -0.022460 0.324384 0.077415
v 0.000000 0.325306 0.081035
v -0.022460 0.242702 0.077946
v 0.000000 0.241080 0.081596
v -0.033690 0.458570 0.011409
v -0.033690 0.449914 0.039632
v -0.033690 0.424123 0.056751
v -0.033690 0.381459 0.065542
v -0.033690 0.322187 0.068781
v -0.033690 0.246571 0.069243
v -0.033690 0.444719 0.011409
v -0.033690 0.436655 0.034562
v -0.033690 0.412784 0.048607
v -0.033690 0.373592 0.055819
v -0.033690 0.319565 0.058476
v -0.033690 0.251187 0.058855
v -0.022460 0.433114 0.011409
v -0.022460 0.425545 0.030315
v -0.022460 0.403284 0.041784
v -0.022460 0.367001 0.047672
v -0.022460 0.317368 0.049843
v -0.022460 0.255056 0.050152
v 0.000000 0.428249 0.011409
v 0.000000 0.420886 0.028534
v 0.000000 0.399300 0.038922
v 0.000000 0.364237 0.044257
v 0.000000 0.316447 0.046221
v 0.000000 0.256678 0.046502
v 0.022460 0.433114 0.011409
v 0.022460 0.425545 0.030315
v 0.022460 0.403284 0.041784
v 0.022460 0.367001 0.047672
v 0.022460 0.317368 0.049843
v 0.022460 0.255056 0.050152
v 0.033690 0.444719 0.011409
v 0.033690 0.436655 0.034562
v 0.033690 0.412784 0.048607
v 0.033690 0.373592 0.055819
v 0.033690 0.319565 0.058476
v 0.033690 0.251187 0.058855
v 0.033690 0.458570 0.011409
v 0.033690 0.449914 0.039632
v 0.033690 0.424123 0.056751
v 0.033690 0.381459 0.065542
v 0.033690 0.322187 0.068781
v 0.033690 0.246571 0.069243
v 0.022460 0.470174 0.011409
v 0.022460 0.461023 0.043879
v 0.022460 0.433623 0.063575
v 0.022460 0.388050 0.073688
v 0.022460 0.324384 0.077415
v 0.022460 0.242702 0.077946
v -0.022460 0.305092 -0.170893
v -0.022460 0.365623 -0.138807
v 0.000000 0.366234 -0.142817
v 0.000000 0.303469 -0.175759
v -0.022460 0.411984 -0.103933
v 0.000000 0.414397 -0.107349
v -0.022460 0.444588 -0.066871
v 0.000000 0.448338 -0.069634
v -0.022460 0.463846 -0.028223
v 0.000000 0.468427 -0.029956
v -0.033690 0.308960 -0.159288
v -0.033690 0.364169 -0.129246
v -0.033690 0.406228 -0.095787
v -0.033690 0.435644 -0.060279
v -0.033690 0.452922 -0.024092
v -0.033690 0.313576 -0.145437
v -0.033690 0.362433 -0.117833
v -0.033690 0.399358 -0.086064
v -0.033690 0.424970 -0.052413
v -0.033690 0.439885 -0.019161
v -0.022460 0.317445 -0.133833
v -0.022460 0.360979 -0.108271
v -0.022460 0.393603 -0.077917
v -0.022460 0.416027 -0.045821
v -0.022460 0.428961 -0.015030
v 0.000000 0.360369 -0.104261
v 0.000000 0.391189 -0.074501
v 0.000000 0.412276 -0.043057
v 0.000000 0.424380 -0.013297
v 0.022460 0.317445 -0.133833
v 0.022460 0.360979 -0.108271
v 0.022460 0.393603 -0.077917
v 0.022460 0.416027 -0.045821
v 0.022460 0.428961 -0.015030
v 0.033690 0.313576 -0.145437
v 0.033690 0.362433 -0.117833
v 0.033690 0.399358 -0.086064
v 0.033690 0.424970 -0.052413
v 0.033690 0.439885 -0.019161
v 0.033690 0.308960 -0.159288
v 0.033690 0.364169 -0.129246
v 0.033690 0.406228 -0.095787
v 0.033690 0.435644 -0.060279
v 0.033690 0.452922 -0.024092
v 0.022460 0.305092 -0.170893
v 0.022460 0.365623 -0.138807
v 0.022460 0.411984 -0.103933
v 0.022460 0.444588 -0.066871
v 0.022460 0.463846 -0.028223
v -0.018717 -0.497856 0.104992
v -0.021909 -0.442310 0.058212
v 0.000000 -0.448694 0.056703
v 0.000000 -0.507589 0.104992
v -0.029522 -0.416852 -0.004808
v 0.000000 -0.421992 -0.008993
v -0.038608 -0.395187 -0.071173
v 0.000000 -0.399781 -0.078619
v -0.046219 -0.351014 -0.127994
v 0.000000 -0.354361 -0.138700
v -0.049412 -0.258033 -0.162376
v 0.000000 -0.258033 -0.175759
v -0.028075 -0.474648 0.104992
v -0.032863 -0.427084 0.061809
v -0.044282 -0.404598 0.005172
v -0.057911 -0.384232 -0.053419
v -0.069330 -0.343030 -0.102464
v -0.074118 -0.258033 -0.130464
v -0.028075 -0.446947 0.104992
v -0.032863 -0.408913 0.066103
v -0.044282 -0.389973 0.017083
v -0.057911 -0.371158 -0.032228
v -0.069330 -0.333501 -0.071993
v -0.074118 -0.258033 -0.092375
v -0.018717 -0.423738 0.104992
v -0.021909 -0.393688 0.069700
v -0.029522 -0.377718 0.027063
v -0.038608 -0.360204 -0.014472
v -0.046219 -0.325517 -0.046464
v -0.049412 -0.258033 -0.060464
v 0.000000 -0.414006 0.104992
v 0.000000 -0.387303 0.071209
v 0.000000 -0.372579 0.031248
v 0.000000 -0.355609 -0.007027
v 0.000000 -0.322169 -0.035758
v 0.000000 -0.258033 -0.047081
v 0.018717 -0.423738 0.104992
v 0.021909 -0.393688 0.069700
v 0.029522 -0.377718 0.027063
v 0.038608 -0.360203 -0.014472
v 0.046219 -0.325517 -0.046464
v 0.049412 -0.258033 -0.060464
v 0.028075 -0.446947 0.104992
v 0.032863 -0.408913 0.066103
v 0.044282 -0.389973 0.017083
v 0.057911 -0.371158 -0.032228
v 0.069330 -0.333501 -0.071993
v 0.074118 -0.258033 -0.092375
v 0.028075 -0.474648 0.104992
v 0.032863 -0.427084 0.061809
v 0.044282 -0.404598 0.005172
v 0.057911 -0.384232 -0.053419
v 0.069330 -0.343030 -0.102464
v 0.074118 -0.258033 -0.130464
v 0.018717 -0.497856 0.104992
v 0.021909 -0.442310 0.058212
v 0.029522 -0.416852 -0.004808
v 0.038608 -0.395187 -0.071173
v 0.046219 -0.351014 -0.127994
v 0.049412 -0.258033 -0.162376
v -0.011230 -0.485504 0.104992
v -0.012009 -0.504002 0.112871
v 0.000000 -0.511957 0.113134
v 0.000000 -0.491992 0.104992
v -0.013866 -0.515169 0.116434
v 0.000000 -0.524435 0.116784
v -0.016081 -0.518322 0.116056
v 0.000000 -0.528490 0.116363
v -0.017938 -0.512779 0.112116
v 0.000000 -0.523187 0.112292
v -0.016845 -0.470031 0.104992
v -0.018013 -0.485033 0.112244
v -0.020798 -0.493074 0.115598
v -0.024122 -0.494076 0.115325
v -0.026907 -0.487961 0.111699
v -0.016845 -0.451564 0.104992
v -0.018013 -0.462392 0.111497
v -0.020798 -0.466703 0.114601
v -0.024122 -0.465139 0.114453
v -0.026907 -0.458340 0.111200
v -0.011230 -0.436091 0.104992
v -0.012009 -0.443422 0.110870
v -0.013866 -0.444608 0.113765
v -0.016081 -0.440893 0.113721
v -0.017938 -0.433522 0.110783
v 0.000000 -0.429603 0.104992
v 0.000000 -0.435467 0.110608
v 0.000000 -0.435343 0.113414
v 0.000000 -0.430726 0.113414
v 0.000000 -0.423114 0.110608
v 0.011230 -0.436091 0.104992
v 0.012009 -0.443422 0.110870
v 0.013866 -0.444608 0.113765
v 0.016081 -0.440893 0.113721
v 0.017938 -0.433522 0.110783
v 0.016845 -0.451564 0.104992
v 0.018013 -0.462392 0.111497
v 0.020798 -0.466703 0.114601
v 0.024122 -0.465139 0.114453
v 0.026907 -0.458340 0.111200
v 0.016845 -0.470031 0.104992
v 0.018013 -0.485033 0.112244
v 0.020798 -0.493074 0.115598
v 0.024122 -0.494076 0.115325
v 0.026907 -0.487961 0.111699
v 0.011230 -0.485504 0.104992
v 0.012009 -0.504002 0.112871
v 0.013866 -0.515169 0.116434
v 0.016081 -0.518322 0.116056
v 0.017938 -0.512779 0.112116
v -0.029628 -0.002831 0.151784
v -0.026549 -0.001808 0.168068
v -0.027951 0.007121 0.168068
v -0.031195 0.007121 0.151784
v -0.040539 -0.006528 0.186597
v -0.042674 0.007121 0.186597
v -0.053105 -0.010765 0.204004
v -0.055900 0.007121 0.204004
v -0.045756 -0.008291 0.216918
v -0.048165 0.007121 0.216918
v 0.000000 0.007121 0.221972
v -0.025245 -0.011406 0.151784
v -0.022628 -0.009492 0.168068
v -0.034561 -0.018263 0.186597
v -0.045278 -0.026137 0.204004
v -0.039013 -0.021536 0.216918
v -0.018527 -0.018124 0.151785
v -0.016613 -0.015507 0.168068
v -0.025384 -0.027440 0.186597
v -0.033259 -0.038157 0.204004
v -0.028657 -0.031891 0.216918
v -0.009952 -0.022506 0.151784
v -0.008929 -0.019427 0.168068
v -0.013649 -0.033417 0.186597
v -0.017886 -0.045984 0.204004
v -0.015412 -0.038635 0.216918
v 0.000000 -0.024074 0.151784
v 0.000000 -0.020829 0.168068
v 0.000000 -0.035553 0.186597
v 0.000000 -0.048779 0.204004
v 0.000000 -0.041043 0.216918
v -0.009952 0.036749 0.151784
v -0.008929 0.033670 0.168068
v 0.000000 0.035072 0.168068
v 0.000000 0.038316 0.151784
v -0.013649 0.047660 0.186597
v 0.000000 0.049796 0.186597
v -0.017886 0.060227 0.204004
v 0.000000 0.063022 0.204004
v -0.015412 0.052877 0.216918
v 0.000000 0.055286 0.216918
v -0.018527 0.032366 0.151784
v -0.016613 0.029750 0.168068
v -0.025384 0.041683 0.186597
v -0.033259 0.052399 0.204004
v -0.028657 0.046134 0.216918
v -0.025245 0.025649 0.151785
v -0.022628 0.023734 0.168068
v -0.034561 0.032506 0.186597
v -0.045278 0.040380 0.204004
v -0.039013 0.035779 0.216918
v -0.029628 0.017074 0.151784
v -0.026549 0.016050 0.168068
v -0.040539 0.020771 0.186597
v -0.053105 0.025007 0.204004
v -0.045756 0.022533 0.216918
v 0.029628 0.017074 0.151784
v 0.026549 0.016050 0.168068
v 0.027951 0.007121 0.168068
v 0.031195 0.007121 0.151784
v 0.040539 0.020771 0.186597
v 0.042674 0.007121 0.186597
v 0.053105 0.025007 0.204004
v 0.055900 0.007121 0.204004
v 0.045756 0.022533 0.216918
v 0.048165 0.007121 0.216918
v 0.025245 0.025649 0.151784
v 0.022628 0.023734 0.168068
v 0.034561 0.032506 0.186597
v 0.045278 0.040380 0.204004
v 0.039013 0.035779 0.216918
v 0.018527 0.032366 0.151785
v 0.016613 0.029750 0.168068
v 0.025384 0.041683 0.186597
v 0.033259 0.052399 0.204004
v 0.028657 0.046134 0.216918
v 0.009952 0.036749 0.151784
v 0.008929 0.033670 0.168068
v 0.013649 0.047660 0.186597
v 0.017886 0.060227 0.204004
v 0.015412 0.052877 0.216918
v 0.009952 -0.022506 0.151784
v 0.008929 -0.019427 0.168068
v 0.013649 -0.033417 0.186597
v 0.017886 -0.045984 0.204004
v 0.015412 -0.038635 0.216918
v 0.018527 -0.018124 0.151784
v 0.016613 -0.015507 0.168068
v 0.025384 -0.027440 0.186597
v 0.033259 -0.038157 0.204004
v 0.028657 -0.031891 0.216918
v 0.025245 -0.011406 0.151785
v 0.022628 -0.009492 0.168068
v 0.034561 -0.018263 0.186597
v 0.045278 -0.026137 0.204004
v 0.039013 -0.021536 0.216918
v 0.029628 -0.002831 0.151784
v 0.026549 -0.001808 0.168068
v 0.040539 -0.006528 0.186597
v 0.053105 -0.010765 0.204004
v 0.045756 -0.008291 0.216918
v -0.192578 -0.057569 0.104992
v -0.178475 -0.052831 0.116596
v -0.187916 0.007121 0.116596
v -0.202765 0.007121 0.104992
v -0.143752 -0.041167 0.124832
v -0.151356 0.007121 0.124832
v -0.099785 -0.026398 0.131945
v -0.105063 0.007121 0.131945
v -0.057952 -0.012346 0.140180
v -0.061017 0.007121 0.140180
v -0.164094 -0.113305 0.104992
v -0.152077 -0.104485 0.116596
v -0.122490 -0.082772 0.124832
v -0.085025 -0.055278 0.131945
v -0.049379 -0.029118 0.140180
v -0.120426 -0.156972 0.104992
v -0.111607 -0.144956 0.116596
v -0.089894 -0.115368 0.124832
v -0.062399 -0.077904 0.131945
v -0.036239 -0.042258 0.140180
v -0.064690 -0.185457 0.104992
v -0.059953 -0.171353 0.116596
v -0.048289 -0.136630 0.124832
v -0.033519 -0.092664 0.131945
v -0.019467 -0.050830 0.140180
v 0.000000 -0.195644 0.104992
v 0.000000 -0.180795 0.116596
v 0.000000 -0.144235 0.124832
v 0.000000 -0.097942 0.131945
v 0.000000 -0.053896 0.140180
v -0.064690 0.199699 0.104992
v -0.059953 0.185596 0.116596
v 0.000000 0.195038 0.116596
v 0.000000 0.209886 0.104992
v -0.048289 0.150873 0.124832
v 0.000000 0.158477 0.124832
v -0.033519 0.106907 0.131945
v 0.000000 0.112185 0.131945
v -0.019467 0.065073 0.140180
v 0.000000 0.068138 0.140180
v -0.120426 0.171215 0.104992
v -0.111607 0.159198 0.116596
v -0.089894 0.129611 0.124832
v -0.062399 0.092147 0.131945
v -0.036239 0.056501 0.140180
v -0.164094 0.127548 0.104992
v -0.152077 0.118728 0.116596
v -0.122490 0.097015 0.124832
v -0.085025 0.069520 0.131945
v -0.049379 0.043361 0.140180
v -0.192578 0.071811 0.104992
v -0.178475 0.067074 0.116596
v -0.143752 0.055410 0.124832
v -0.099785 0.040640 0.131945
v -0.057952 0.026588 0.140180
v 0.192578 0.071811 0.104992
v 0.178475 0.067074 0.116596
v 0.187916 0.007121 0.116596
v 0.202765 0.007121 0.104992
v 0.143752 0.055410 0.124832
v 0.151356 0.007121 0.124832
v 0.099785 0.040640 0.131945
v 0.105063 0.007121 0.131945
v 0.057952 0.026588 0.140180
v 0.061017 0.007121 0.140180
v 0.164094 0.127548 0.104992
v 0.152077 0.118728 0.116596
v 0.122490 0.097015 0.124832
v 0.085025 0.069520 0.131945
v 0.049379 0.043361 0.140180
v 0.120426 0.171215 0.104992
v 0.111607 0.159198 0.116596
v 0.089894 0.129611 0.124832
v 0.062400 0.092147 0.131945
v 0.036239 0.056501 0.140180
v 0.064690 0.199699 0.104992
v 0.059953 0.185596 0.116596
v 0.048289 0.150873 0.124832
v 0.033519 0.106907 0.131945
v 0.019467 0.065073 0.140180
v 0.064690 -0.185457 0.104992
v 0.059953 -0.171353 0.116596
v 0.048289 -0.136630 0.124832
v 0.033519 -0.092664 0.131945
v 0.019467 -0.050830 0.140180
v 0.120426 -0.156972 0.104992
v 0.111607 -0.144956 0.116596
v 0.089894 -0.115368 0.124832
v 0.062400 -0.077904 0.131945
v 0.036239 -0.042258 0.140180
v 0.164094 -0.113305 0.104992
v 0.152077 -0.104485 0.116596
v 0.122490 -0.082772 0.124832
v 0.085025 -0.055278 0.131945
v 0.049379 -0.029118 0.140180
v 0.192578 -0.057569 0.104992
v 0.178475 -0.052831 0.116596
v 0.143752 -0.041167 0.124832
v 0.099785 -0.026398 0.131945
v 0.057952 -0.012346 0.140180
v 0.219361 -0.066565 -0.252872
v 0.230965 0.007121 -0.252872
v 0.204784 -0.061669 -0.259236
v 0.215617 0.007121 -0.259236
v 0.169409 -0.049786 -0.264476
v 0.178371 0.007121 -0.264476
v 0.104170 -0.027871 -0.268033
v 0.109680 0.007121 -0.268033
v 0.000000 0.007121 -0.269343
v 0.186915 -0.130053 -0.252872
v 0.174495 -0.120938 -0.259236
v 0.144352 -0.098817 -0.264476
v 0.088762 -0.058020 -0.268033
v 0.137175 -0.179794 -0.252872
v 0.128059 -0.167374 -0.259236
v 0.105938 -0.137231 -0.264476
v 0.065141 -0.081641 -0.268033
v 0.073687 -0.212240 -0.252872
v 0.068790 -0.197663 -0.259236
v 0.056907 -0.162288 -0.264476
v 0.034992 -0.097049 -0.268033
v 0.000000 -0.223843 -0.252872
v 0.000000 -0.208496 -0.259236
v 0.000000 -0.171250 -0.264476
v 0.000000 -0.102558 -0.268033
v 0.073687 0.226482 -0.252872
v 0.000000 0.238086 -0.252872
v 0.068790 0.211906 -0.259236
v 0.000000 0.222738 -0.259236
v 0.056907 0.176531 -0.264476
v 0.000000 0.185492 -0.264476
v 0.034992 0.111291 -0.268033
v 0.000000 0.116801 -0.268033
v 0.137175 0.194037 -0.252872
v 0.128059 0.181616 -0.259236
v 0.105938 0.151473 -0.264476
v 0.065141 0.095883 -0.268033
v 0.186915 0.144296 -0.252872
v 0.174495 0.135180 -0.259236
v 0.144352 0.113060 -0.264476
v 0.088762 0.072262 -0.268033
v 0.219361 0.080808 -0.252872
v 0.204784 0.075912 -0.259236
v 0.169409 0.064029 -0.264476
v 0.104170 0.042114 -0.268033
v -0.219361 0.080808 -0.252872
v -0.230965 0.007121 -0.252872
v -0.204784 0.075912 -0.259236
v -0.215617 0.007121 -0.259236
v -0.169409 0.064029 -0.264476
v -0.178371 0.007121 -0.264476
v -0.104170 0.042114 -0.268033
v -0.109680 0.007121 -0.268033
v -0.186915 0.144296 -0.252872
v -0.174495 0.135180 -0.259236
v -0.144352 0.113060 -0.264476
v -0.088762 0.072262 -0.268033
v -0.137175 0.194037 -0.252872
v -0.128059 0.181616 -0.259236
v -0.105938 0.151473 -0.264476
v -0.065141 0.095883 -0.268033
v -0.073687 0.226482 -0.252872
v -0.068790 0.211906 -0.259236
v -0.056907 0.176531 -0.264476
v -0.034992 0.111291 -0.268033
v -0.073687 -0.212240 -0.252872
v -0.068790 -0.197663 -0.259236
v -0.056907 -0.162288 -0.264476
v -0.034992 -0.097049 -0.268033
v -0.137175 -0.179794 -0.252872
v -0.128059 -0.167374 -0.259236
v -0.105938 -0.137231 -0.264476
v -0.065141 -0.081641 -0.268033
v -0.186915 -0.130053 -0.252872
v -0.174495 -0.120938 -0.259236
v -0.144352 -0.098817 -0.264476
v -0.088762 -0.058020 -0.268033
v -0.219361 -0.066565 -0.252872
v -0.204784 -0.061669 -0.259236
v -0.169409 -0.049786 -0.264476
v -0.104170 -0.027871 -0.268033
vn -0.8333 -0.2709 0.4818
vn -0.7114 -0.2312 0.6636
vn -0.7485 -0.0000 0.6631
vn -0.8766 0.0000 0.4812
vn -0.3396 -0.1101 0.9341
vn -0.3571 -0.0000 0.9341
vn 0.5242 0.1706 0.8344
vn 0.5519 0.0000 0.8339
vn 0.9511 0.3089 -0.0000
vn 1.0000 0.0000 0.0000
vn 0.9078 0.2954 -0.2976
vn 0.9549 0.0000 -0.2971
vn -0.7083 -0.5152 0.4826
vn -0.6044 -0.4396 0.6644
vn -0.2881 -0.2094 0.9344
vn 0.4459 0.3244 0.8342
vn 0.8087 0.5882 -0.0000
vn 0.7718 0.5616 -0.2982
vn -0.5152 -0.7083 0.4826
vn -0.4396 -0.6044 0.6644
vn -0.2095 -0.2881 0.9344
vn 0.3245 0.4459 0.8342
vn 0.5882 0.8087 -0.0001
vn 0.5616 0.7718 -0.2981
vn -0.2709 -0.8334 0.4818
vn -0.2312 -0.7114 0.6636
vn -0.1101 -0.3395 0.9341
vn 0.1706 0.5241 0.8344
vn 0.3089 0.9511 -0.0000
vn 0.2954 0.9078 -0.2976
vn 0.0000 -0.8766 0.4812
vn 0.0000 -0.7485 0.6631
vn -0.0000 -0.3571 0.9341
vn -0.0000 0.5519 0.8339
vn 0.0000 1.0000 -0.0000
vn 0.0000 0.9548 -0.2972
vn -0.2709 0.8333 0.4818
vn -0.2312 0.7114 0.6636
vn -0.0000 0.7485 0.6631
vn 0.0000 0.8766 0.4812
vn -0.1101 0.3396 0.9341
vn -0.0000 0.3571 0.9341
vn 0.1706 -0.5241 0.8344
vn 0.0000 -0.5519 0.8339
vn 0.3089 -0.9511 -0.0000
vn -0.0000 -1.0000 -0.0000
vn 0.2954 -0.9078 -0.2976
vn -0.0000 -0.9548 -0.2972
vn -0.5152 0.7083 0.4826
vn -0.4396 0.6044 0.6644
vn -0.2094 0.2881 0.9344
vn 0.3245 -0.4459 0.8342
vn 0.5882 -0.8087 -0.0000
vn 0.5616 -0.7718 -0.2981
vn -0.7083 0.5152 0.4826
vn -0.6044 0.4396 0.6644
vn -0.2881 0.2094 0.9344
vn 0.4459 -0.3244 0.8342
vn 0.8087 -0.5882 0.0000
vn 0.7718 -0.5616 -0.2981
vn -0.8333 0.2709 0.4818
vn -0.7114 0.2312 0.6636
vn -0.3396 0.1101 0.9341
vn 0.5242 -0.1706 0.8344
vn 0.9511 -0.3089 -0.0000
vn 0.9078 -0.2954 -0.2976
vn 0.8333 0.2709 0.4818
vn 0.7114 0.2312 0.6636
vn 0.7485 -0.0000 0.6631
vn 0.8766 -0.0000 0.4812
vn 0.3396 0.1101 0.9341
vn 0.3571 0.0000 0.9341
vn -0.5242 -0.1706 0.8344
vn -0.5519 -0.0000 0.8339
vn -0.9511 -0.3089 -0.0000
vn -1.0000 -0.0000 0.0000
vn -0.9078 -0.2954 -0.2976
vn -0.9549 -0.0000 -0.2971
vn 0.7083 0.5152 0.4826
vn 0.6044 0.4396 0.6644
vn 0.2881 0.2094 0.9344
vn -0.4459 -0.3244 0.8342
vn -0.8087 -0.5882 0.0000
vn -0.7718 -0.5616 -0.2981
vn 0.5152 0.7083 0.4826
vn 0.4396 0.6044 0.6644
vn 0.2095 0.2881 0.9344
vn -0.3245 -0.4459 0.8342
vn -0.5882 -0.8087 -0.0000
vn -0.5616 -0.7718 -0.2981
vn 0.2709 0.8333 0.4818
vn 0.2312 0.7114 0.6636
vn 0.1101 0.3396 0.9341
vn -0.1706 -0.5241 0.8344
vn -0.3089 -0.9511 -0.0000
vn -0.2954 -0.9078 -0.2976
vn 0.2709 -0.8334 0.4818
vn 0.2312 -0.7114 0.6636
vn 0.1101 -0.3395 0.9341
vn -0.1706 0.5241 0.8344
vn -0.3089 0.9511 -0.0000
vn -0.2954 0.9078 -0.2976
vn 0.5152 -0.7083 0.4826
vn 0.4396 -0.6044 0.6644
vn 0.2095 -0.2881 0.9344
vn -0.3245 0.4459 0.8342
vn -0.5882 0.8087 -0.0001
vn -0.5616 0.7718 -0.2981
vn 0.7083 -0.5152 0.4826
vn 0.6044 -0.4396 0.6644
vn 0.2881 -0.2094 0.9344
vn -0.4459 0.3244 0.8342
vn -0.8087 0.5882 -0.0000
vn -0.7718 0.5616 -0.2982
vn 0.8333 -0.2709 0.4818
vn 0.7114 -0.2312 0.6636
vn 0.3396 -0.1101 0.9341
vn -0.5242 0.1706 0.8344
vn -0.9511 0.3089 -0.0000
vn -0.9078 0.2954 -0.2976
vn -0.9496 -0.3089 -0.0543
vn -0.9363 -0.3044 0.1752
vn -0.9846 -0.0000 0.1749
vn -0.9985 -0.0000 -0.0542
vn -0.9078 -0.2951 0.2981
vn -0.9547 -0.0000 0.2976
vn -0.8823 -0.2868 0.3732
vn -0.9280 -0.0000 0.3727
vn -0.8659 -0.2815 0.4136
vn -0.9108 0.0000 0.4129
vn -0.8074 -0.5875 -0.0544
vn -0.7961 -0.5792 0.1755
vn -0.7717 -0.5614 0.2987
vn -0.7500 -0.5456 0.3739
vn -0.7360 -0.5354 0.4142
vn -0.5875 -0.8074 -0.0544
vn -0.5792 -0.7961 0.1755
vn -0.5614 -0.7717 0.2987
vn -0.5456 -0.7500 0.3739
vn -0.5354 -0.7360 0.4142
vn -0.3089 -0.9496 -0.0543
vn -0.3044 -0.9363 0.1752
vn -0.2951 -0.9078 0.2981
vn -0.2868 -0.8823 0.3732
vn -0.2815 -0.8659 0.4136
vn -0.0000 -0.9985 -0.0542
vn -0.0000 -0.9846 0.1749
vn -0.0000 -0.9547 0.2976
vn -0.0000 -0.9280 0.3727
vn -0.0000 -0.9108 0.4129
vn -0.3089 0.9496 -0.0543
vn -0.3045 0.9363 0.1752
vn 0.0000 0.9846 0.1749
vn 0.0000 0.9985 -0.0542
vn -0.2951 0.9078 0.2981
vn 0.0000 0.9547 0.2976
vn -0.2868 0.8823 0.3732
vn -0.0000 0.9280 0.3726
vn -0.2815 0.8659 0.4136
vn -0.0000 0.9108 0.4129
vn -0.5875 0.8074 -0.0544
vn -0.5792 0.7961 0.1755
vn -0.5614 0.7718 0.2987
vn -0.5456 0.7500 0.3739
vn -0.5354 0.7360 0.4142
vn -0.8074 0.5875 -0.0544
vn -0.7961 0.5792 0.1755
vn -0.7717 0.5614 0.2987
vn -0.7500 0.5456 0.3739
vn -0.7360 0.5354 0.4142
vn -0.9496 0.3089 -0.0543
vn -0.9363 0.3045 0.1752
vn -0.9078 0.2951 0.2981
vn -0.8823 0.2868 0.3732
vn -0.8659 0.2815 0.4136
vn 0.9496 0.3089 -0.0543
vn 0.9363 0.3045 0.1752
vn 0.9846 -0.0000 0.1749
vn 0.9985 -0.0000 -0.0542
vn 0.9078 0.2951 0.2981
vn 0.9547 -0.0000 0.2976
vn 0.8823 0.2868 0.3732
vn 0.9280 -0.0000 0.3727
vn 0.8659 0.2815 0.4136
vn 0.9108 -0.0000 0.4129
vn 0.8074 0.5875 -0.0544
vn 0.7961 0.5792 0.1755
vn 0.7717 0.5614 0.2987
vn 0.7500 0.5456 0.3739
vn 0.7360 0.5354 0.4142
vn 0.5875 0.8074 -0.0544
vn 0.5792 0.7961 0.1755
vn 0.5614 0.7717 0.2987
vn 0.5456 0.7500 0.3739
vn 0.5354 0.7360 0.4142
vn 0.3089 0.9496 -0.0543
vn 0.3045 0.9363 0.1752
vn 0.2951 0.9078 0.2981
vn 0.2868 0.8823 0.3732
vn 0.2815 0.8659 0.4136
vn 0.3089 -0.9496 -0.0543
vn 0.3044 -0.9363 0.1752
vn 0.2951 -0.9078 0.2981
vn 0.2868 -0.8823 0.3732
vn 0.2815 -0.8659 0.4136
vn 0.5875 -0.8074 -0.0544
vn 0.5792 -0.7961 0.1755
vn 0.5614 -0.7717 0.2987
vn 0.5456 -0.7500 0.3739
vn 0.5354 -0.7360 0.4142
vn 0.8074 -0.5875 -0.0544
vn 0.7961 -0.5792 0.1755
vn 0.7717 -0.5614 0.2987
vn 0.7500 -0.5456 0.3739
vn 0.7360 -0.5354 0.4142
vn 0.9496 -0.3089 -0.0543
vn 0.9363 -0.3045 0.1752
vn 0.9078 -0.2951 0.2981
vn 0.8823 -0.2868 0.3732
vn 0.8659 -0.2815 0.4136
vn -0.8084 -0.2627 -0.5268
vn -0.6702 -0.2178 -0.7095
vn -0.7054 -0.0000 -0.7088
vn -0.8504 -0.0000 -0.5261
vn -0.6408 -0.2082 -0.7389
vn -0.6744 0.0000 -0.7384
vn -0.7426 -0.2414 -0.6247
vn -0.7814 -0.0000 -0.6241
vn -0.8816 -0.2867 -0.3750
vn -0.9272 -0.0000 -0.3745
vn -0.6870 -0.4997 -0.5275
vn -0.5694 -0.4142 -0.7101
vn -0.5443 -0.3959 -0.7396
vn -0.6310 -0.4590 -0.6255
vn -0.7494 -0.5452 -0.3756
vn -0.4997 -0.6870 -0.5275
vn -0.4142 -0.5694 -0.7101
vn -0.3959 -0.5443 -0.7396
vn -0.4590 -0.6310 -0.6255
vn -0.5452 -0.7494 -0.3756
vn -0.2627 -0.8084 -0.5268
vn -0.2178 -0.6702 -0.7095
vn -0.2082 -0.6408 -0.7389
vn -0.2414 -0.7426 -0.6247
vn -0.2867 -0.8816 -0.3750
vn -0.0000 -0.8504 -0.5261
vn 0.0000 -0.7054 -0.7088
vn -0.0000 -0.6744 -0.7384
vn 0.0000 -0.7814 -0.6241
vn 0.0000 -0.9272 -0.3745
vn -0.2627 0.8083 -0.5269
vn -0.2178 0.6702 -0.7095
vn -0.0000 0.7054 -0.7088
vn 0.0000 0.8504 -0.5261
vn -0.2082 0.6408 -0.7390
vn -0.0000 0.6744 -0.7384
vn -0.2414 0.7426 -0.6247
vn -0.0000 0.7814 -0.6241
vn -0.2867 0.8816 -0.3750
vn 0.0000 0.9272 -0.3745
vn -0.4997 0.6870 -0.5275
vn -0.4142 0.5694 -0.7101
vn -0.3959 0.5443 -0.7396
vn -0.4590 0.6310 -0.6255
vn -0.5452 0.7494 -0.3756
vn -0.6870 0.4997 -0.5275
vn -0.5694 0.4142 -0.7101
vn -0.5443 0.3959 -0.7396
vn -0.6310 0.4590 -0.6255
vn -0.7494 0.5452 -0.3756
vn -0.8084 0.2627 -0.5268
vn -0.6702 0.2178 -0.7095
vn -0.6408 0.2082 -0.7389
vn -0.7426 0.2414 -0.6247
vn -0.8816 0.2867 -0.3750
vn 0.8084 0.2627 -0.5268
vn 0.6702 0.2178 -0.7095
vn 0.7054 -0.0000 -0.7088
vn 0.8504 -0.0000 -0.5261
vn 0.6408 0.2082 -0.7389
vn 0.6744 -0.0000 -0.7384
vn 0.7426 0.2414 -0.6247
vn 0.7814 0.0000 -0.6241
vn 0.8816 0.2867 -0.3750
vn 0.9272 0.0000 -0.3745
vn 0.6870 0.4997 -0.5275
vn 0.5694 0.4142 -0.7101
vn 0.5443 0.3959 -0.7396
vn 0.6310 0.4590 -0.6255
vn 0.7494 0.5452 -0.3756
vn 0.4997 0.6870 -0.5275
vn 0.4142 0.5694 -0.7101
vn 0.3959 0.5443 -0.7396
vn 0.4590 0.6310 -0.6255
vn 0.5452 0.7494 -0.3756
vn 0.2627 0.8084 -0.5269
vn 0.2178 0.6702 -0.7095
vn 0.2082 0.6408 -0.7390
vn 0.2414 0.7426 -0.6247
vn 0.2867 0.8816 -0.3750
vn 0.2627 -0.8084 -0.5268
vn 0.2178 -0.6702 -0.7095
vn 0.2082 -0.6408 -0.7389
vn 0.2414 -0.7426 -0.6247
vn 0.2867 -0.8816 -0.3750
vn 0.4997 -0.6870 -0.5275
vn 0.4142 -0.5694 -0.7101
vn 0.3959 -0.5443 -0.7396
vn 0.4590 -0.6310 -0.6255
vn 0.5452 -0.7494 -0.3756
vn 0.6870 -0.4997 -0.5275
vn 0.5694 -0.4142 -0.7101
vn 0.5443 -0.3959 -0.7396
vn 0.6310 -0.4590 -0.6255
vn 0.7494 -0.5452 -0.3756
vn 0.8084 -0.2627 -0.5267
vn 0.6702 -0.2178 -0.7095
vn 0.6408 -0.2082 -0.7389
vn 0.7426 -0.2414 -0.6247
vn 0.8816 -0.2867 -0.3750
vn -0.4707 0.8808 0.0522
vn -0.4608 0.7291 0.5060
vn 0.0012 0.8303 0.5574
vn 0.0011 0.9986 0.0538
vn -0.4276 0.3730 0.8234
vn 0.0013 0.4287 0.9034
vn -0.4020 0.1282 0.9066
vn -0.0004 0.1482 0.9890
vn -0.3942 0.0299 0.9185
vn -0.0000 0.0344 0.9994
vn -0.3707 0.0059 0.9288
vn 0.0000 0.0066 1.0000
vn -0.9084 0.4172 0.0286
vn -0.8964 0.3457 0.2775
vn -0.8903 0.1562 0.4276
vn -0.8904 0.0525 0.4521
vn -0.8951 0.0127 0.4456
vn -0.8419 0.0033 0.5396
vn -0.9463 -0.3224 -0.0258
vn -0.9518 -0.2428 -0.1873
vn -0.9249 -0.1402 -0.3533
vn -0.9061 -0.0511 -0.4201
vn -0.8999 -0.0117 -0.4360
vn -0.9381 -0.0017 -0.3463
vn -0.5108 -0.8545 -0.0940
vn -0.5003 -0.6308 -0.5931
vn -0.4271 -0.2710 -0.8627
vn -0.4023 -0.0889 -0.9112
vn -0.3999 -0.0213 -0.9163
vn -0.4217 -0.0044 -0.9067
vn -0.0034 -0.9919 -0.1267
vn -0.0075 -0.7128 -0.7013
vn -0.0047 -0.2883 -0.9575
vn -0.0027 -0.0940 -0.9956
vn -0.0016 -0.0229 -0.9997
vn -0.0001 -0.0048 -1.0000
vn 0.5079 -0.8552 -0.1036
vn 0.4925 -0.6292 -0.6013
vn 0.4243 -0.2741 -0.8630
vn 0.4008 -0.0916 -0.9116
vn 0.3987 -0.0226 -0.9168
vn 0.4216 -0.0047 -0.9068
vn 0.9475 -0.3184 -0.0292
vn 0.9546 -0.2357 -0.1823
vn 0.9293 -0.1415 -0.3412
vn 0.9080 -0.0540 -0.4154
vn 0.9003 -0.0126 -0.4352
vn 0.9382 -0.0019 -0.3462
vn 0.9072 0.4193 0.0331
vn 0.8929 0.3480 0.2859
vn 0.8879 0.1586 0.4319
vn 0.8908 0.0524 0.4513
vn 0.8949 0.0133 0.4460
vn 0.8418 0.0035 0.5397
vn 0.4712 0.8804 0.0528
vn 0.4628 0.7270 0.5072
vn 0.4342 0.3756 0.8188
vn 0.4072 0.1298 0.9041
vn 0.3980 0.0305 0.9169
vn 0.3707 0.0061 0.9287
vn -0.3303 0.4402 -0.8350
vn -0.4001 0.4889 -0.7752
vn 0.0020 0.5298 -0.8481
vn 0.0011 0.4661 -0.8847
vn -0.4288 0.6145 -0.6622
vn 0.0031 0.6735 -0.7392
vn -0.4584 0.7389 -0.4939
vn 0.0014 0.8250 -0.5652
vn -0.4746 0.8386 -0.2674
vn -0.0003 0.9505 -0.3106
vn -0.7678 0.3007 -0.5657
vn -0.8907 0.2518 -0.3785
vn -0.9022 0.3001 -0.3099
vn -0.9125 0.3439 -0.2214
vn -0.9153 0.3852 -0.1181
vn -0.9659 -0.1273 0.2253
vn -0.9077 -0.2379 0.3456
vn -0.9184 -0.2901 0.2690
vn -0.9305 -0.3168 0.1838
vn -0.9372 -0.3348 0.0981
vn -0.4311 -0.4506 0.7817
vn -0.4030 -0.5464 0.7342
vn -0.4404 -0.6768 0.5900
vn -0.4782 -0.7696 0.4232
vn -0.4955 -0.8363 0.2346
vn -0.0028 -0.5108 0.8597
vn -0.0042 -0.6091 0.7931
vn -0.0055 -0.7648 0.6443
vn -0.0043 -0.8816 0.4720
vn -0.0016 -0.9634 0.2679
vn 0.4243 -0.4605 0.7797
vn 0.3978 -0.5540 0.7313
vn 0.4363 -0.6791 0.5903
vn 0.4757 -0.7690 0.4270
vn 0.4946 -0.8355 0.2395
vn 0.9662 -0.1296 0.2227
vn 0.9103 -0.2360 0.3400
vn 0.9220 -0.2831 0.2640
vn 0.9331 -0.3097 0.1828
vn 0.9381 -0.3317 0.1001
vn 0.7630 0.3090 -0.5678
vn 0.8879 0.2587 -0.3803
vn 0.8993 0.3051 -0.3135
vn 0.9105 0.3466 -0.2257
vn 0.9146 0.3857 -0.1211
vn 0.3296 0.4445 -0.8329
vn 0.4017 0.4908 -0.7731
vn 0.4317 0.6135 -0.6613
vn 0.4629 0.7353 -0.4950
vn 0.4779 0.8360 -0.2697
vn -0.5899 -0.4504 -0.6702
vn -0.5903 -0.6779 -0.4383
vn -0.0094 -0.8009 -0.5987
vn -0.0062 -0.5108 -0.8597
vn -0.4717 -0.8490 -0.2380
vn -0.0068 -0.9437 -0.3307
vn -0.4348 -0.8149 -0.3832
vn -0.0033 -0.8842 -0.4670
vn -0.4862 -0.5379 -0.6887
vn -0.0001 -0.5911 -0.8066
vn -0.5009 -0.3131 -0.8069
vn 0.0013 -0.3574 -0.9339
vn -0.9800 -0.1728 -0.0990
vn -0.9618 -0.2717 -0.0323
vn -0.8897 -0.4561 0.0191
vn -0.8523 -0.5157 -0.0875
vn -0.8972 -0.3379 -0.2843
vn -0.9132 -0.1749 -0.3680
vn -0.9071 0.1654 0.3870
vn -0.9179 0.2445 0.3126
vn -0.9265 0.2177 0.3069
vn -0.9400 0.0750 0.3328
vn -0.9531 0.0062 0.3025
vn -0.9610 0.0059 0.2764
vn -0.5716 0.4915 0.6571
vn -0.5377 0.6962 0.4756
vn -0.4953 0.7711 0.4002
vn -0.5101 0.6523 0.5607
vn -0.5558 0.3333 0.7616
vn -0.5723 0.1358 0.8088
vn 0.0161 0.6806 0.7325
vn 0.0149 0.8671 0.4979
vn 0.0096 0.9230 0.3846
vn 0.0034 0.8076 0.5897
vn -0.0025 0.4358 0.9001
vn -0.0049 0.1792 0.9838
vn 0.5835 0.4993 0.6405
vn 0.5368 0.6959 0.4771
vn 0.4955 0.7658 0.4099
vn 0.5108 0.6458 0.5674
vn 0.5532 0.3290 0.7653
vn 0.5680 0.1517 0.8090
vn 0.8993 0.1757 0.4004
vn 0.9065 0.2587 0.3337
vn 0.9203 0.2362 0.3120
vn 0.9386 0.0863 0.3340
vn 0.9535 0.0093 0.3011
vn 0.9621 0.0160 0.2723
vn 0.9829 -0.1695 -0.0721
vn 0.9641 -0.2651 -0.0161
vn 0.8910 -0.4535 0.0212
vn 0.8542 -0.5120 -0.0909
vn 0.8981 -0.3312 -0.2895
vn 0.9115 -0.1771 -0.3713
vn 0.5807 -0.4571 -0.6737
vn 0.5818 -0.6817 -0.4436
vn 0.4638 -0.8519 -0.2431
vn 0.4308 -0.8153 -0.3868
vn 0.4864 -0.5328 -0.6924
vn 0.5005 -0.3172 -0.8055
vn 0.5729 0.2994 0.7630
vn 0.3745 0.2750 0.8855
vn 0.0000 0.3129 0.9498
vn -0.0031 0.3797 0.9251
vn 0.0237 0.0802 0.9965
vn -0.0038 0.0193 0.9998
vn -0.6407 -0.6897 0.3374
vn -0.0100 -0.9747 0.2234
vn -0.7089 -0.4685 -0.5273
vn -0.0081 -0.5488 -0.8359
vn 0.9650 0.0481 0.2576
vn 0.7414 0.1325 0.6578
vn 0.2052 0.0897 0.9746
vn -0.6576 -0.1689 0.7342
vn -0.9790 -0.1874 0.0797
vn 0.9208 -0.2684 -0.2828
vn 0.9431 -0.1300 0.3062
vn 0.3715 0.0071 0.9284
vn -0.4213 0.0506 0.9055
vn -0.8188 0.1095 0.5635
vn 0.5231 -0.5621 -0.6406
vn 0.7993 -0.5844 -0.1399
vn 0.4317 -0.2193 0.8749
vn -0.2492 0.1585 0.9554
vn -0.4807 0.3429 0.8071
vn 0.0075 -0.6838 -0.7296
vn 0.0109 -0.8947 -0.4465
vn -0.0020 -0.5064 0.8623
vn 0.0027 0.2349 0.9720
vn 0.0071 0.4599 0.8879
vn -0.5409 -0.5697 -0.6188
vn -0.7928 -0.5886 -0.1583
vn -0.4356 -0.2193 0.8730
vn 0.2523 0.1616 0.9541
vn 0.4902 0.3429 0.8013
vn -0.9370 -0.2553 -0.2386
vn -0.9439 -0.1289 0.3041
vn -0.3760 0.0069 0.9266
vn 0.4165 0.0548 0.9075
vn 0.8156 0.1153 0.5669
vn -0.9620 0.0527 0.2680
vn -0.7332 0.1368 0.6662
vn -0.2099 0.0908 0.9735
vn 0.6440 -0.1496 0.7502
vn 0.9790 -0.1808 0.0941
vn -0.5837 0.3009 0.7542
vn -0.3703 0.2750 0.8873
vn -0.0262 0.0821 0.9963
vn 0.6463 -0.6808 0.3447
vn 0.6971 -0.4724 -0.5393
vn -0.7078 -0.2299 0.6679
vn -0.9220 -0.2987 -0.2461
vn -0.9694 -0.0001 -0.2453
vn -0.7448 -0.0000 0.6672
vn -0.7509 -0.2431 -0.6141
vn -0.7900 -0.0000 -0.6131
vn -0.9499 -0.3081 -0.0523
vn -0.9986 -0.0000 -0.0522
vn -0.5402 -0.1745 0.8232
vn -0.5677 0.0000 0.8232
vn -0.0000 -0.0000 1.0000
vn -0.6019 -0.4377 0.6679
vn -0.7840 -0.5696 -0.2468
vn -0.6379 -0.4633 -0.6152
vn -0.8078 -0.5871 -0.0524
vn -0.4588 -0.3331 0.8237
vn -0.4378 -0.6020 0.6678
vn -0.5697 -0.7839 -0.2468
vn -0.4633 -0.6378 -0.6152
vn -0.5871 -0.8078 -0.0524
vn -0.3331 -0.4588 0.8238
vn -0.2299 -0.7079 0.6678
vn -0.2987 -0.9221 -0.2461
vn -0.2431 -0.7509 -0.6141
vn -0.3081 -0.9499 -0.0522
vn -0.1745 -0.5402 0.8232
vn 0.0000 -0.7447 0.6674
vn 0.0001 -0.9694 -0.2453
vn 0.0000 -0.7900 -0.6131
vn 0.0000 -0.9986 -0.0522
vn 0.0000 -0.5677 0.8233
vn -0.2299 0.7078 0.6679
vn -0.2987 0.9221 -0.2461
vn -0.0001 0.9694 -0.2454
vn -0.0000 0.7448 0.6672
vn -0.2431 0.7509 -0.6141
vn -0.0000 0.7900 -0.6131
vn -0.3081 0.9499 -0.0523
vn -0.0000 0.9986 -0.0522
vn -0.1745 0.5402 0.8233
vn 0.0000 0.5677 0.8233
vn -0.4377 0.6019 0.6679
vn -0.5696 0.7840 -0.2468
vn -0.4633 0.6379 -0.6152
vn -0.5871 0.8078 -0.0524
vn -0.3331 0.4588 0.8237
vn -0.6019 0.4379 0.6678
vn -0.7839 0.5697 -0.2468
vn -0.6378 0.4634 -0.6152
vn -0.8078 0.5871 -0.0524
vn -0.4588 0.3331 0.8237
vn -0.7079 0.2299 0.6678
vn -0.9221 0.2987 -0.2461
vn -0.7509 0.2431 -0.6141
vn -0.9499 0.3081 -0.0522
vn -0.5402 0.1745 0.8233
vn 0.7078 0.2299 0.6679
vn 0.9221 0.2987 -0.2461
vn 0.9694 0.0001 -0.2453
vn 0.7448 0.0000 0.6672
vn 0.7509 0.2431 -0.6141
vn 0.7900 0.0000 -0.6131
vn 0.9499 0.3081 -0.0523
vn 0.9986 0.0000 -0.0522
vn 0.5402 0.1745 0.8233
vn 0.5677 -0.0000 0.8232
vn 0.6019 0.4377 0.6680
vn 0.7840 0.5696 -0.2468
vn 0.6379 0.4633 -0.6152
vn 0.8078 0.5871 -0.0524
vn 0.4588 0.3331 0.8237
vn 0.4378 0.6020 0.6678
vn 0.5697 0.7839 -0.2468
vn 0.4633 0.6379 -0.6152
vn 0.5871 0.8078 -0.0524
vn 0.3331 0.4588 0.8238
vn 0.2299 0.7079 0.6678
vn 0.2987 0.9221 -0.2461
vn 0.2431 0.7509 -0.6141
vn 0.3081 0.9499 -0.0522
vn 0.1745 0.5402 0.8233
vn 0.2299 -0.7078 0.6680
vn 0.2987 -0.9221 -0.2461
vn 0.2431 -0.7509 -0.6141
vn 0.3081 -0.9499 -0.0523
vn 0.1745 -0.5402 0.8232
vn 0.4377 -0.6020 0.6679
vn 0.5696 -0.7840 -0.2468
vn 0.4633 -0.6379 -0.6152
vn 0.5871 -0.8078 -0.0524
vn 0.3331 -0.4588 0.8238
vn 0.6019 -0.4379 0.6678
vn 0.7839 -0.5697 -0.2468
vn 0.6378 -0.4634 -0.6152
vn 0.8078 -0.5871 -0.0524
vn 0.4588 -0.3331 0.8237
vn 0.7079 -0.2299 0.6679
vn 0.9221 -0.2988 -0.2461
vn 0.7509 -0.2431 -0.6141
vn 0.9499 -0.3081 -0.0522
vn 0.5402 -0.1745 0.8233
vn -0.5848 -0.1906 0.7885
vn -0.4235 -0.1374 0.8954
vn -0.4456 -0.0000 0.8952
vn -0.6157 -0.0000 0.7879
vn -0.1797 -0.0583 0.9820
vn -0.1892 -0.0000 0.9819
vn -0.1578 -0.0513 0.9861
vn -0.1663 -0.0000 0.9861
vn -0.2522 -0.0820 0.9642
vn -0.2658 -0.0000 0.9640
vn -0.4966 -0.3615 0.7891
vn -0.3594 -0.2614 0.8958
vn -0.1525 -0.1109 0.9821
vn -0.1340 -0.0974 0.9862
vn -0.2142 -0.1558 0.9643
vn -0.3615 -0.4967 0.7891
vn -0.2614 -0.3594 0.8958
vn -0.1109 -0.1525 0.9821
vn -0.0974 -0.1340 0.9862
vn -0.1558 -0.2142 0.9643
vn -0.1905 -0.5848 0.7885
vn -0.1374 -0.4235 0.8954
vn -0.0583 -0.1797 0.9820
vn -0.0513 -0.1578 0.9861
vn -0.0820 -0.2522 0.9642
vn -0.0000 -0.6157 0.7879
vn -0.0000 -0.4456 0.8952
vn 0.0000 -0.1892 0.9819
vn 0.0000 -0.1663 0.9861
vn -0.0000 -0.2658 0.9640
vn -0.1906 0.5848 0.7885
vn -0.1375 0.4235 0.8954
vn 0.0000 0.4456 0.8952
vn 0.0000 0.6158 0.7879
vn -0.0583 0.1797 0.9820
vn -0.0000 0.1892 0.9819
vn -0.0513 0.1578 0.9861
vn -0.0000 0.1663 0.9861
vn -0.0820 0.2522 0.9642
vn -0.0000 0.2658 0.9640
vn -0.3615 0.4967 0.7891
vn -0.2614 0.3594 0.8958
vn -0.1109 0.1525 0.9821
vn -0.0974 0.1340 0.9862
vn -0.1558 0.2142 0.9643
vn -0.4966 0.3615 0.7891
vn -0.3594 0.2614 0.8958
vn -0.1525 0.1109 0.9821
vn -0.1340 0.0974 0.9862
vn -0.2142 0.1558 0.9643
vn -0.5848 0.1906 0.7885
vn -0.4235 0.1374 0.8954
vn -0.1797 0.0583 0.9820
vn -0.1578 0.0513 0.9861
vn -0.2522 0.0820 0.9642
vn 0.5848 0.1906 0.7885
vn 0.4235 0.1374 0.8954
vn 0.4456 -0.0000 0.8952
vn 0.6157 -0.0000 0.7879
vn 0.1797 0.0583 0.9820
vn 0.1892 -0.0000 0.9819
vn 0.1578 0.0513 0.9861
vn 0.1663 0.0000 0.9861
vn 0.2522 0.0820 0.9642
vn 0.2658 0.0000 0.9640
vn 0.4966 0.3615 0.7891
vn 0.3594 0.2614 0.8958
vn 0.1525 0.1109 0.9821
vn 0.1340 0.0974 0.9862
vn 0.2142 0.1558 0.9643
vn 0.3615 0.4966 0.7891
vn 0.2614 0.3594 0.8958
vn 0.1109 0.1525 0.9821
vn 0.0974 0.1340 0.9862
vn 0.1558 0.2142 0.9643
vn 0.1906 0.5848 0.7885
vn 0.1375 0.4235 0.8954
vn 0.0583 0.1797 0.9820
vn 0.0513 0.1578 0.9861
vn 0.0820 0.2522 0.9642
vn 0.1906 -0.5848 0.7885
vn 0.1375 -0.4235 0.8954
vn 0.0583 -0.1797 0.9820
vn 0.0513 -0.1578 0.9861
vn 0.0820 -0.2522 0.9642
vn 0.3615 -0.4967 0.7891
vn 0.2614 -0.3595 0.8958
vn 0.1109 -0.1525 0.9821
vn 0.0974 -0.1340 0.9862
vn 0.1558 -0.2142 0.9643
vn 0.4966 -0.3615 0.7891
vn 0.3594 -0.2614 0.8958
vn 0.1525 -0.1109 0.9821
vn 0.1340 -0.0974 0.9862
vn 0.2142 -0.1558 0.9643
vn 0.5848 -0.1906 0.7885
vn 0.4235 -0.1374 0.8954
vn 0.1797 -0.0583 0.9820
vn 0.1578 -0.0513 0.9861
vn 0.2522 -0.0820 0.9642
vn 0.6843 -0.2223 -0.6945
vn 0.7197 0.0000 -0.6942
vn 0.2612 -0.0847 -0.9616
vn 0.2749 -0.0000 -0.9615
vn 0.0949 -0.0308 -0.9950
vn 0.0999 -0.0000 -0.9950
vn 0.0321 -0.0104 -0.9994
vn 0.0338 -0.0000 -0.9994
vn 0.0000 -0.0000 -1.0000
vn 0.5813 -0.4228 -0.6952
vn 0.2216 -0.1611 -0.9617
vn 0.0805 -0.0586 -0.9950
vn 0.0272 -0.0198 -0.9994
vn 0.4229 -0.5813 -0.6952
vn 0.1611 -0.2216 -0.9617
vn 0.0586 -0.0805 -0.9950
vn 0.0198 -0.0272 -0.9994
vn 0.2224 -0.6843 -0.6945
vn 0.0847 -0.2612 -0.9616
vn 0.0308 -0.0949 -0.9950
vn 0.0104 -0.0321 -0.9994
vn -0.0000 -0.7197 -0.6943
vn 0.0000 -0.2749 -0.9615
vn -0.0000 -0.0999 -0.9950
vn -0.0000 -0.0338 -0.9994
vn 0.2224 0.6843 -0.6945
vn -0.0000 0.7197 -0.6942
vn 0.0847 0.2612 -0.9616
vn 0.0000 0.2749 -0.9615
vn 0.0308 0.0949 -0.9950
vn 0.0000 0.0999 -0.9950
vn 0.0104 0.0321 -0.9994
vn -0.0000 0.0338 -0.9994
vn 0.4228 0.5813 -0.6952
vn 0.1611 0.2216 -0.9617
vn 0.0586 0.0805 -0.9950
vn 0.0198 0.0272 -0.9994
vn 0.5813 0.4228 -0.6952
vn 0.2216 0.1611 -0.9617
vn 0.0805 0.0586 -0.9950
vn 0.0272 0.0198 -0.9994
vn 0.6842 0.2225 -0.6945
vn 0.2612 0.0847 -0.9616
vn 0.0949 0.0308 -0.9950
vn 0.0321 0.0104 -0.9994
vn -0.6842 0.2224 -0.6945
vn -0.7197 -0.0000 -0.6942
vn -0.2612 0.0847 -0.9616
vn -0.2749 -0.0000 -0.9615
vn -0.0949 0.0308 -0.9950
vn -0.0999 -0.0000 -0.9950
vn -0.0321 0.0104 -0.9994
vn -0.0338 0.0000 -0.9994
vn -0.5813 0.4228 -0.6952
vn -0.2216 0.1611 -0.9617
vn -0.0805 0.0586 -0.9950
vn -0.0272 0.0198 -0.9994
vn -0.4229 0.5813 -0.6952
vn -0.1611 0.2216 -0.9617
vn -0.0586 0.0805 -0.9950
vn -0.0198 0.0272 -0.9994
vn -0.2224 0.6843 -0.6945
vn -0.0847 0.2612 -0.9616
vn -0.0308 0.0949 -0.9950
vn -0.0104 0.0321 -0.9994
vn -0.2224 -0.6843 -0.6945
vn -0.0847 -0.2612 -0.9616
vn -0.0308 -0.0949 -0.9950
vn -0.0104 -0.0321 -0.9994
vn -0.4228 -0.5813 -0.6952
vn -0.1611 -0.2216 -0.9617
vn -0.0586 -0.0805 -0.9950
vn -0.0198 -0.0272 -0.9994
vn -0.5813 -0.4228 -0.6952
vn -0.2216 -0.1611 -0.9617
vn -0.0805 -0.0586 -0.9950
vn -0.0272 -0.0198 -0.9994
vn -0.6842 -0.2225 -0.6945
vn -0.2612 -0.0847 -0.9616
vn -0.0949 -0.0308 -0.9950
vn -0.0321 -0.0104 -0.9994
usemtl Teapot
s 1
f 1//1 2//2 3//3
f 3//3 4//4 1//1
f 2//2 5//5 6//6
f 6//6 3//3 2//2
f 5//5 7//7 8//8
f 8//8 6//6 5//5
f 7//7 9//9 10//10
f 10//10 8//8 7//7
f 9//9 11//11 12//12
f 12//12 10//10 9//9
f 2//2 1//1 13//13
f 13//13 14//14 2//2
f 14//14 15//15 5//5
f 5//5 2//2 14//14
f 15//15 16//16 7//7
f 7//7 5//5 15//15
f 16//16 17//17 9//9
f 9//9 7//7 16//16
f 17//17 18//18 11//11
f 11//11 9//9 17//17
f 19//19 20//20 14//14
f 14//14 13//13 19//19
f 20//20 21//21 15//15
f 15//15 14//14 20//20
f 21//21 22//22 16//16
f 16//16 15//15 21//21
f 22//22 23//23 17//17
f 17//17 16//16 22//22
f 23//23 24//24 18//18
f 18//18 17//17 23//23
f 25//25 26//26 20//20
f 20//20 19//19 25//25
f 26//26 27//27 21//21
f 21//21 20//20 26//26
f 27//27 28//28 22//22
f 22//22 21//21 27//27
f 28//28 29//29 23//23
f 23//23 22//22 28//28
f 29//29 30//30 24//24
f 24//24 23//23 29//29
f 31//31 32//32 26//26
f 26//26 25//25 31//31
f 32//32 33//33 27//27
f 27//27 26//26 32//32
f 33//33 34//34 28//28
f 28//28 27//27 33//33
f 34//34 35//35 29//29
f 29//29 28//28 34//34
f 35//35 36//36 30//30
f 30//30 29//29 35//35
f 37//37 38//38 39//39
f 39//39 40//40 37//37
f 38//38 41//41 42//42
f 42//42 39//39 38//38
f 41//41 43//43 44//44
f 44//44 42//42 41//41
f 43//43 45//45 46//46
f 46//46 44//44 43//43
f 45//45 47//47 48//48
f 48//48 46//46 45//45
f 49//49 50//50 38//38
f 38//38 37//37 49//49
f 50//50 51//51 41//41
f 41//41 38//38 50//50
f 51//51 52//52 43//43
f 43//43 41//41 51//51
f 52//52 53//53 45//45
f 45//45 43//43 52//52
f 53//53 54//54 47//47
f 47//47 45//45 53//53
f 55//55 56//56 50//50
f 50//50 49//49 55//55
f 56//56 57//57 51//51
f 51//51 50//50 56//56
f 57//57 58//58 52//52
f 52//52 51//51 57//57
f 58//58 59//59 53//53
f 53//53 52//52 58//58
f 59//59 60//60 54//54
f 54//54 53//53 59//59
f 61//61 62//62 56//56
f 56//56 55//55 61//61
f 62//62 63//63 57//57
f 57//57 56//56 62//62
f 63//63 64//64 58//58
f 58//58 57//57 63//63
f 64//64 65//65 59//59
f 59//59 58//58 64//64
f 65//65 66//66 60//60
f 60//60 59//59 65//65
f 4//4 3//3 62//62
f 62//62 61//61 4//4
f 3//3 6//6 63//63
f 63//63 62//62 3//3
f 6//6 8//8 64//64
f 64//64 63//63 6//6
f 8//8 10//10 65//65
f 65//65 64//64 8//8
f 10//10 12//12 66//66
f 66//66 65//65 10//10
f 67//67 68//68 69//69
f 69//69 70//70 67//67
f 68//68 71//71 72//72
f 72//72 69//69 68//68
f 71//71 73//73 74//74
f 74//74 72//72 71//71
f 73//73 75//75 76//76
f 76//76 74//74 73//73
f 75//75 77//77 78//78
f 78//78 76//76 75//75
f 79//79 80//80 68//68
f 68//68 67//67 79//79
f 80//80 81//81 71//71
f 71//71 68//68 80//80
f 81//81 82//82 73//73
f 73//73 71//71 81//81
f 82//82 83//83 75//75
f 75//75 73//73 82//82
f 83//83 84//84 77//77
f 77//77 75//75 83//83
f 85//85 86//86 80//80
f 80//80 79//79 85//85
f 86//86 87//87 81//81
f 81//81 80//80 86//86
f 87//87 88//88 82//82
f 82//82 81//81 87//87
f 88//88 89//89 83//83
f 83//83 82//82 88//88
f 89//89 90//90 84//84
f 84//84 83//83 89//89
f 91//91 92//92 86//86
f 86//86 85//85 91//91
f 92//92 93//93 87//87
f 87//87 86//86 92//92
f 93//93 94//94 88//88
f 88//88 87//87 93//93
f 94//94 95//95 89//89
f 89//89 88//88 94//94
f 95//95 96//96 90//90
f 90//90 89//89 95//95
f 40//40 39//39 92//92
f 92//92 91//91 40//40
f 39//39 42//42 93//93
f 93//93 92//92 39//39
f 42//42 44//44 94//94
f 94//94 93//93 42//42
f 44//44 46//46 95//95
f 95//95 94//94 44//44
f 46//46 48//48 96//96
f 96//96 95//95 46//46
f 97//97 98//98 32//32
f 32//32 31//31 97//97
f 98//98 99//99 33//33
f 33//33 32//32 98//98
f 99//99 100//100 34//34
f 34//34 33//33 99//99
f 100//100 101//101 35//35
f 35//35 34//34 100//100
f 101//101 102//102 36//36
f 36//36 35//35 101//101
f 103//103 104//104 98//98
f 98//98 97//97 103//103
f 104//104 105//105 99//99
f 99//99 98//98 104//104
f 105//105 106//106 100//100
f 100//100 99//99 105//105
f 106//106 107//107 101//101
f 101//101 100//100 106//106
f 107//107 108//108 102//102
f 102//102 101//101 107//107
f 109//109 110//110 104//104
f 104//104 103//103 109//109
f 110//110 111//111 105//105
f 105//105 104//104 110//110
f 111//111 112//112 106//106
f 106//106 105//105 111//111
f 112//112 113//113 107//107
f 107//107 106//106 112//112
f 113//113 114//114 108//108
f 108//108 107//107 113//113
f 115//115 116//116 110//110
f 110//110 109//109 115//115
f 116//116 117//117 111//111
f 111//111 110//110 116//116
f 117//117 118//118 112//112
f 112//112 111//111 117//117
f 118//118 119//119 113//113
f 113//113 112//112 118//118
f 119//119 120//120 114//114
f 114//114 113//113 119//119
f 70//70 69//69 116//116
f 116//116 115//115 70//70
f 69//69 72//72 117//117
f 117//117 116//116 69//69
f 72//72 74//74 118//118
f 118//118 117//117 72//72
f 74//74 76//76 119//119
f 119//119 118//118 74//74
f 76//76 78//78 120//120
f 120//120 119//119 76//76
f 121//121 122//122 123//123
f 123//123 124//124 121//121
f 122//122 125//125 126//126
f 126//126 123//123 122//122
f 125//125 127//127 128//128
f 128//128 126//126 125//125
f 127//127 129//129 130//130
f 130//130 128//128 127//127
f 129//129 1//1 4//4
f 4//4 130//130 129//129
f 131//131 132//132 122//122
f 122//122 121//121 131//131
f 132//132 133//133 125//125
f 125//125 122//122 132//132
f 133//133 134//134 127//127
f 127//127 125//125 133//133
f 134//134 135//135 129//129
f 129//129 127//127 134//134
f 1//1 129//129 135//135
f 135//135 13//13 1//1
f 136//136 137//137 132//132
f 132//132 131//131 136//136
f 137//137 138//138 133//133
f 133//133 132//132 137//137
f 138//138 139//139 134//134
f 134//134 133//133 138//138
f 139//139 140//140 135//135
f 135//135 134//134 139//139
f 140//140 19//19 13//13
f 13//13 135//135 140//140
f 141//141 142//142 137//137
f 137//137 136//136 141//141
f 142//142 143//143 138//138
f 138//138 137//137 142//142
f 143//143 144//144 139//139
f 139//139 138//138 143//143
f 144//144 145//145 140//140
f 140//140 139//139 144//144
f 145//145 25//25 19//19
f 19//19 140//140 145//145
f 146//146 147//147 142//142
f 142//142 141//141 146//146
f 147//147 148//148 143//143
f 143//143 142//142 147//147
f 148//148 149//149 144//144
f 144//144 143//143 148//148
f 149//149 150//150 145//145
f 145//145 144//144 149//149
f 150//150 31//31 25//25
f 25//25 145//145 150//150
f 151//151 152//152 153//153
f 153//153 154//154 151//151
f 152//152 155//155 156//156
f 156//156 153//153 152//152
f 155//155 157//157 158//158
f 158//158 156//156 155//155
f 157//157 159//159 160//160
f 160//160 158//158 157//157
f 159//159 37//37 40//40
f 40//40 160//160 159//159
f 161//161 162//162 152//152
f 152//152 151//151 161//161
f 162//162 163//163 155//155
f 155//155 152//152 162//162
f 163//163 164//164 157//157
f 157//157 155//155 163//163
f 164//164 165//165 159//159
f 159//159 157//157 164//164
f 165//165 49//49 37//37
f 37//37 159//159 165//165
f 166//166 167//167 162//162
f 162//162 161//161 166//166
f 167//167 168//168 163//163
f 163//163 162//162 167//167
f 168//168 169//169 164//164
f 164//164 163//163 168//168
f 169//169 170//170 165//165
f 165//165 164//164 169//169
f 170//170 55//55 49//49
f 49//49 165//165 170//170
f 171//171 172//172 167//167
f 167//167 166//166 171//171
f 172//172 173//173 168//168
f 168//168 167//167 172//172
f 173//173 174//174 169//169
f 169//169 168//168 173//173
f 174//174 175//175 170//170
f 170//170 169//169 174//174
f 175//175 61//61 55//55
f 55//55 170//170 175//175
f 124//124 123//123 172//172
f 172//172 171//171 124//124
f 123//123 126//126 173//173
f 173//173 172//172 123//123
f 126//126 128//128 174//174
f 174//174 173//173 126//126
f 128//128 130//130 175//175
f 175//175 174//174 128//128
f 130//130 4//4 61//61
f 61//61 175//175 130//130
f 176//176 177//177 178//178
f 178//178 179//179 176//176
f 177//177 180//180 181//181
f 181//181 178//178 177//177
f 180//180 182//182 183//183
f 183//183 181//181 180//180
f 182//182 184//184 185//185
f 185//185 183//183 182//182
f 184//184 67//67 70//70
f 70//70 185//185 184//184
f 186//186 187//187 177//177
f 177//177 176//176 186//186
f 187//187 188//188 180//180
f 180//180 177//177 187//187
f 188//188 189//189 182//182
f 182//182 180//180 188//188
f 189//189 190//190 184//184
f 184//184 182//182 189//189
f 190//190 79//79 67//67
f 67//67 184//184 190//190
f 191//191 192//192 187//187
f 187//187 186//186 191//191
f 192//192 193//193 188//188
f 188//188 187//187 192//192
f 193//193 194//194 189//189
f 189//189 188//188 193//193
f 194//194 195//195 190//190
f 190//190 189//189 194//194
f 195//195 85//85 79//79
f 79//79 190//190 195//195
f 196//196 197//197 192//192
f 192//192 191//191 196//196
f 197//197 198//198 193//193
f 193//193 192//192 197//197
f 198//198 199//199 194//194
f 194//194 193//193 198//198
f 199//199 200//200 195//195
f 195//195 194//194 199//199
f 200//200 91//91 85//85
f 85//85 195//195 200//200
f 154//154 153//153 197//197
f 197//197 196//196 154//154
f 153//153 156//156 198//198
f 198//198 197//197 153//153
f 156//156 158//158 199//199
f 199//199 198//198 156//156
f 158//158 160//160 200//200
f 200//200 199//199 158//158
f 160//160 40//40 91//91
f 91//91 200//200 160//160
f 201//201 202//202 147//147
f 147//147 146//146 201//201
f 202//202 203//203 148//148
f 148//148 147//147 202//202
f 203//203 204//204 149//149
f 149//149 148//148 203//203
f 204//204 205//205 150//150
f 150//150 149//149 204//204
f 205//205 97//97 31//31
f 31//31 150//150 205//205
f 206//206 207//207 202//202
f 202//202 201//201 206//206
f 207//207 208//208 203//203
f 203//203 202//202 207//207
f 208//208 209//209 204//204
f 204//204 203//203 208//208
f 209//209 210//210 205//205
f 205//205 204//204 209//209
f 210//210 103//103 97//97
f 97//97 205//205 210//210
f 211//211 212//212 207//207
f 207//207 206//206 211//211
f 212//212 213//213 208//208
f 208//208 207//207 212//212
f 213//213 214//214 209//209
f 209//209 208//208 213//213
f 214//214 215//215 210//210
f 210//210 209//209 214//214
f 215//215 109//109 103//103
f 103//103 210//210 215//215
f 216//216 217//217 212//212
f 212//212 211//211 216//216
f 217//217 218//218 213//213
f 213//213 212//212 217//217
f 218//218 219//219 214//214
f 214//214 213//213 218//218
f 219//219 220//220 215//215
f 215//215 214//214 219//219
f 220//220 115//115 109//109
f 109//109 215//215 220//220
f 179//179 178//178 217//217
f 217//217 216//216 179//179
f 178//178 181//181 218//218
f 218//218 217//217 178//178
f 181//181 183//183 219//219
f 219//219 218//218 181//181
f 183//183 185//185 220//220
f 220//220 219//219 183//183
f 185//185 70//70 115//115
f 115//115 220//220 185//185
f 221//221 222//222 223//223
f 223//223 224//224 221//221
f 222//222 225//225 226//226
f 226//226 223//223 222//222
f 225//225 227//227 228//228
f 228//228 226//226 225//225
f 227//227 229//229 230//230
f 230//230 228//228 227//227
f 229//229 121//121 124//124
f 124//124 230//230 229//229
f 231//231 232//232 222//222
f 222//222 221//221 231//231
f 232//232 233//233 225//225
f 225//225 222//222 232//232
f 233//233 234//234 227//227
f 227//227 225//225 233//233
f 234//234 235//235 229//229
f 229//229 227//227 234//234
f 235//235 131//131 121//121
f 121//121 229//229 235//235
f 236//236 237//237 232//232
f 232//232 231//231 236//236
f 237//237 238//238 233//233
f 233//233 232//232 237//237
f 238//238 239//239 234//234
f 234//234 233//233 238//238
f 239//239 240//240 235//235
f 235//235 234//234 239//239
f 240//240 136//136 131//131
f 131//131 235//235 240//240
f 241//241 242//242 237//237
f 237//237 236//236 241//241
f 242//242 243//243 238//238
f 238//238 237//237 242//242
f 243//243 244//244 239//239
f 239//239 238//238 243//243
f 244//244 245//245 240//240
f 240//240 239//239 244//244
f 245//245 141//141 136//136
f 136//136 240//240 245//245
f 246//246 247//247 242//242
f 242//242 241//241 246//246
f 247//247 248//248 243//243
f 243//243 242//242 247//247
f 248//248 249//249 244//244
f 244//244 243//243 248//248
f 249//249 250//250 245//245
f 245//245 244//244 249//249
f 250//250 146//146 141//141
f 141//141 245//245 250//250
f 251//251 252//252 253//253
f 253//253 254//254 251//251
f 252//252 255//255 256//256
f 256//256 253//253 252//252
f 255//255 257//257 258//258
f 258//258 256//256 255//255
f 257//257 259//259 260//260
f 260//260 258//258 257//257
f 259//259 151//151 154//154
f 154//154 260//260 259//259
f 261//261 262//262 252//252
f 252//252 251//251 261//261
f 262//262 263//263 255//255
f 255//255 252//252 262//262
f 263//263 264//264 257//257
f 257//257 255//255 263//263
f 264//264 265//265 259//259
f 259//259 257//257 264//264
f 265//265 161//161 151//151
f 151//151 259//259 265//265
f 266//266 267//267 262//262
f 262//262 261//261 266//266
f 267//267 268//268 263//263
f 263//263 262//262 267//267
f 268//268 269//269 264//264
f 264//264 263//263 268//268
f 269//269 270//270 265//265
f 265//265 264//264 269//269
f 270//270 166//166 161//161
f 161//161 265//265 270//270
f 271//271 272//272 267//267
f 267//267 266//266 271//271
f 272//272 273//273 268//268
f 268//268 267//267 272//272
f 273//273 274//274 269//269
f 269//269 268//268 273//273
f 274//274 275//275 270//270
f 270//270 269//269 274//274
f 275//275 171//171 166//166
f 166//166 270//270 275//275
f 224//224 223//223 272//272
f 272//272 271//271 224//224
f 223//223 226//226 273//273
f 273//273 272//272 223//223
f 226//226 228//228 274//274
f 274//274 273//273 226//226
f 228//228 230//230 275//275
f 275//275 274//274 228//228
f 230//230 124//124 171//171
f 171//171 275//275 230//230
f 276//276 277//277 278//278
f 278//278 279//279 276//276
f 277//277 280//280 281//281
f 281//281 278//278 277//277
f 280//280 282//282 283//283
f 283//283 281//281 280//280
f 282//282 284//284 285//285
f 285//285 283//283 282//282
f 284//284 176//176 179//179
f 179//179 285//285 284//284
f 286//286 287//287 277//277
f 277//277 276//276 286//286
f 287//287 288//288 280//280
f 280//280 277//277 287//287
f 288//288 289//289 282//282
f 282//282 280//280 288//288
f 289//289 290//290 284//284
f 284//284 282//282 289//289
f 290//290 186//186 176//176
f 176//176 284//284 290//290
f 291//291 292//292 287//287
f 287//287 286//286 291//291
f 292//292 293//293 288//288
f 288//288 287//287 292//292
f 293//293 294//294 289//289
f 289//289 288//288 293//293
f 294//294 295//295 290//290
f 290//290 289//289 294//294
f 295//295 191//191 186//186
f 186//186 290//290 295//295
f 296//296 297//297 292//292
f 292//292 291//291 296//296
f 297//297 298//298 293//293
f 293//293 292//292 297//297
f 298//298 299//299 294//294
f 294//294 293//293 298//298
f 299//299 300//300 295//295
f 295//295 294//294 299//299
f 300//300 196//196 191//191
f 191//191 295//295 300//300
f 254//254 253//253 297//297
f 297//297 296//296 254//254
f 253//253 256//256 298//298
f 298//298 297//297 253//253
f 256//256 258//258 299//299
f 299//299 298//298 256//256
f 258//258 260//260 300//300
f 300//300 299//299 258//258
f 260//260 154//154 196//196
f 196//196 300//300 260//260
f 301//301 302//302 247//247
f 247//247 246//246 301//301
f 302//302 303//303 248//248
f 248//248 247//247 302//302
f 303//303 304//304 249//249
f 249//249 248//248 303//303
f 304//304 305//305 250//250
f 250//250 249//249 304//304
f 305//305 201//201 146//146
f 146//146 250//250 305//305
f 306//306 307//307 302//302
f 302//302 301//301 306//306
f 307//307 308//308 303//303
f 303//303 302//302 307//307
f 308//308 309//309 304//304
f 304//304 303//303 308//308
f 309//309 310//310 305//305
f 305//305 304//304 309//309
f 310//310 206//206 201//201
f 201//201 305//305 310//310
f 311//311 312//312 307//307
f 307//307 306//306 311//311
f 312//312 313//313 308//308
f 308//308 307//307 312//312
f 313//313 314//314 309//309
f 309//309 308//308 313//313
f 314//314 315//315 310//310
f 310//310 309//309 314//314
f 315//315 211//211 206//206
f 206//206 310//310 315//315
f 316//316 317//317 312//312
f 312//312 311//311 316//316
f 317//317 318//318 313//313
f 313//313 312//312 317//317
f 318//318 319//319 314//314
f 314//314 313//313 318//318
f 319//319 320//320 315//315
f 315//315 314//314 319//319
f 320//320 216//216 211//211
f 211//211 315//315 320//320
f 279//279 278//278 317//317
f 317//317 316//316 279//279
f 278//278 281//281 318//318
f 318//318 317//317 278//278
f 281//281 283//283 319//319
f 319//319 318//318 281//281
f 283//283 285//285 320//320
f 320//320 319//319 283//283
f 285//285 179//179 216//216
f 216//216 320//320 285//285
f 321//321 322//322 323//323
f 323//323 324//324 321//321
f 322//322 325//325 326//326
f 326//326 323//323 322//322
f 325//325 327//327 328//328
f 328//328 326//326 325//325
f 327//327 329//329 330//330
f 330//330 328//328 327//327
f 329//329 331//331 332//332
f 332//332 330//330 329//329
f 333//333 334//334 322//322
f 322//322 321//321 333//333
f 334//334 335//335 325//325
f 325//325 322//322 334//334
f 335//335 336//336 327//327
f 327//327 325//325 335//335
f 336//336 337//337 329//329
f 329//329 327//327 336//336
f 337//337 338//338 331//331
f 331//331 329//329 337//337
f 339//339 340//340 334//334
f 334//334 333//333 339//339
f 340//340 341//341 335//335
f 335//335 334//334 340//340
f 341//341 342//342 336//336
f 336//336 335//335 341//341
f 342//342 343//343 337//337
f 337//337 336//336 342//342
f 343//343 344//344 338//338
f 338//338 337//337 343//343
f 345//345 346//346 340//340
f 340//340 339//339 345//345
f 346//346 347//347 341//341
f 341//341 340//340 346//346
f 347//347 348//348 342//342
f 342//342 341//341 347//347
f 348//348 349//349 343//343
f 343//343 342//342 348//348
f 349//349 350//350 344//344
f 344//344 343//343 349//349
f 351//351 352//352 346//346
f 346//346 345//345 351//351
f 352//352 353//353 347//347
f 347//347 346//346 352//352
f 353//353 354//354 348//348
f 348//348 347//347 353//353
f 354//354 355//355 349//349
f 349//349 348//348 354//354
f 355//355 356//356 350//350
f 350//350 349//349 355//355
f 357//357 358//358 352//352
f 352//352 351//351 357//357
f 358//358 359//359 353//353
f 353//353 352//352 358//358
f 359//359 360//360 354//354
f 354//354 353//353 359//359
f 360//360 361//361 355//355
f 355//355 354//354 360//360
f 361//361 362//362 356//356
f 356//356 355//355 361//361
f 363//363 364//364 358//358
f 358//358 357//357 363//363
f 364//364 365//365 359//359
f 359//359 358//358 364//364
f 365//365 366//366 360//360
f 360//360 359//359 365//365
f 366//366 367//367 361//361
f 361//361 360//360 366//366
f 367//367 368//368 362//362
f 362//362 361//361 367//367
f 369//369 370//370 364//364
f 364//364 363//363 369//369
f 370//370 371//371 365//365
f 365//365 364//364 370//370
f 371//371 372//372 366//366
f 366//366 365//365 371//371
f 372//372 373//373 367//367
f 367//367 366//366 372//372
f 373//373 374//374 368//368
f 368//368 367//367 373//373
f 375//375 376//376 370//370
f 370//370 369//369 375//375
f 376//376 377//377 371//371
f 371//371 370//370 376//376
f 377//377 378//378 372//372
f 372//372 371//371 377//377
f 378//378 379//379 373//373
f 373//373 372//372 378//378
f 379//379 380//380 374//374
f 374//374 373//373 379//379
f 324//324 323//323 376//376
f 376//376 375//375 324//324
f 323//323 326//326 377//377
f 377//377 376//376 323//323
f 326//326 328//328 378//378
f 378//378 377//377 326//326
f 328//328 330//330 379//379
f 379//379 378//378 328//328
f 330//330 332//332 380//380
f 380//380 379//379 330//330
f 381//381 382//382 383//383
f 383//383 384//384 381//381
f 382//382 385//385 386//386
f 386//386 383//383 382//382
f 385//385 387//387 388//388
f 388//388 386//386 385//385
f 387//387 389//389 390//390
f 390//390 388//388 387//387
f 389//389 321//321 324//324
f 324//324 390//390 389//389
f 391//391 392//392 382//382
f 382//382 381//381 391//391
f 392//392 393//393 385//385
f 385//385 382//382 392//392
f 393//393 394//394 387//387
f 387//387 385//385 393//393
f 394//394 395//395 389//389
f 389//389 387//387 394//394
f 395//395 333//333 321//321
f 321//321 389//389 395//395
f 396//396 397//397 392//392
f 392//392 391//391 396//396
f 397//397 398//398 393//393
f 393//393 392//392 397//397
f 398//398 399//399 394//394
f 394//394 393//393 398//398
f 399//399 400//400 395//395
f 395//395 394//394 399//399
f 400//400 339//339 333//333
f 333//333 395//395 400//400
f 401//401 402//402 397//397
f 397//397 396//396 401//401
f 402//402 403//403 398//398
f 398//398 397//397 402//402
f 403//403 404//404 399//399
f 399//399 398//398 403//403
f 404//404 405//405 400//400
f 400//400 399//399 404//404
f 405//405 345//345 339//339
f 339//339 400//400 405//405
f 154//406 406//407 402//402
f 402//402 401//401 154//406
f 406//407 407//408 403//403
f 403//403 402//402 406//407
f 407//408 408//409 404//404
f 404//404 403//403 407//408
f 408//409 409//410 405//405
f 405//405 404//404 408//409
f 409//410 351//351 345//345
f 345//345 405//405 409//410
f 410//411 411//412 406//407
f 406//407 154//406 410//411
f 411//412 412//413 407//408
f 407//408 406//407 411//412
f 412//413 413//414 408//409
f 408//409 407//408 412//413
f 413//414 414//415 409//410
f 409//410 408//409 413//414
f 414//415 357//357 351//351
f 351//351 409//410 414//415
f 415//416 416//417 411//412
f 411//412 410//411 415//416
f 416//417 417//418 412//413
f 412//413 411//412 416//417
f 417//418 418//419 413//414
f 413//414 412//413 417//418
f 418//419 419//420 414//415
f 414//415 413//414 418//419
f 419//420 363//363 357//357
f 357//357 414//415 419//420
f 420//421 421//422 416//417
f 416//417 415//416 420//421
f 421//422 422//423 417//418
f 417//418 416//417 421//422
f 422//423 423//424 418//419
f 418//419 417//418 422//423
f 423//424 424//425 419//420
f 419//420 418//419 423//424
f 424//425 369//369 363//363
f 363//363 419//420 424//425
f 425//426 426//427 421//422
f 421//422 420//421 425//426
f 426//427 427//428 422//423
f 422//423 421//422 426//427
f 427//428 428//429 423//424
f 423//424 422//423 427//428
f 428//429 429//430 424//425
f 424//425 423//424 428//429
f 429//430 375//375 369//369
f 369//369 424//425 429//430
f 384//384 383//383 426//427
f 426//427 425//426 384//384
f 383//383 386//386 427//428
f 427//428 426//427 383//383
f 386//386 388//388 428//429
f 428//429 427//428 386//386
f 388//388 390//390 429//430
f 429//430 428//429 388//388
f 390//390 324//324 375//375
f 375//375 429//430 390//390
f 430//431 431//432 432//433
f 432//433 433//434 430//431
f 431//432 434//435 435//436
f 435//436 432//433 431//432
f 434//435 436//437 437//438
f 437//438 435//436 434//435
f 436//437 438//439 439//440
f 439//440 437//438 436//437
f 438//439 440//441 441//442
f 441//442 439//440 438//439
f 442//443 443//444 431//432
f 431//432 430//431 442//443
f 443//444 444//445 434//435
f 434//435 431//432 443//444
f 444//445 445//446 436//437
f 436//437 434//435 444//445
f 445//446 446//447 438//439
f 438//439 436//437 445//446
f 446//447 447//448 440//441
f 440//441 438//439 446//447
f 448//449 449//450 443//444
f 443//444 442//443 448//449
f 449//450 450//451 444//445
f 444//445 443//444 449//450
f 450//451 451//452 445//446
f 445//446 444//445 450//451
f 451//452 452//453 446//447
f 446//447 445//446 451//452
f 452//453 453//454 447//448
f 447//448 446//447 452//453
f 454//455 455//456 449//450
f 449//450 448//449 454//455
f 455//456 456//457 450//451
f 450//451 449//450 455//456
f 456//457 457//458 451//452
f 451//452 450//451 456//457
f 457//458 458//459 452//453
f 452//453 451//452 457//458
f 458//459 459//460 453//454
f 453//454 452//453 458//459
f 460//461 461//462 455//456
f 455//456 454//455 460//461
f 461//462 462//463 456//457
f 456//457 455//456 461//462
f 462//463 463//464 457//458
f 457//458 456//457 462//463
f 463//464 464//465 458//459
f 458//459 457//458 463//464
f 464//465 465//466 459//460
f 459//460 458//459 464//465
f 466//467 467//468 461//462
f 461//462 460//461 466//467
f 467//468 468//469 462//463
f 462//463 461//462 467//468
f 468//469 469//470 463//464
f 463//464 462//463 468//469
f 469//470 470//471 464//465
f 464//465 463//464 469//470
f 470//471 471//472 465//466
f 465//466 464//465 470//471
f 472//473 473//474 467//468
f 467//468 466//467 472//473
f 473//474 474//475 468//469
f 468//469 467//468 473//474
f 474//475 475//476 469//470
f 469//470 468//469 474//475
f 475//476 476//477 470//471
f 470//471 469//470 475//476
f 476//477 477//478 471//472
f 471//472 470//471 476//477
f 478//479 479//480 473//474
f 473//474 472//473 478//479
f 479//480 480//481 474//475
f 474//475 473//474 479//480
f 480//481 481//482 475//476
f 475//476 474//475 480//481
f 481//482 482//483 476//477
f 476//477 475//476 481//482
f 482//483 483//484 477//478
f 477//478 476//477 482//483
f 484//485 485//486 479//480
f 479//480 478//479 484//485
f 485//486 486//487 480//481
f 480//481 479//480 485//486
f 486//487 487//488 481//482
f 481//482 480//481 486//487
f 487//488 488//489 482//483
f 482//483 481//482 487//488
f 488//489 489//490 483//484
f 483//484 482//483 488//489
f 433//434 432//433 485//486
f 485//486 484//485 433//434
f 432//433 435//436 486//487
f 486//487 485//486 432//433
f 435//436 437//438 487//488
f 487//488 486//487 435//436
f 437//438 439//440 488//489
f 488//489 487//488 437//438
f 439//440 441//442 489//490
f 489//490 488//489 439//440
f 490//491 491//492 492//493
f 492//493 493//494 490//491
f 491//492 494//495 495//496
f 495//496 492//493 491//492
f 494//495 496//497 497//498
f 497//498 495//496 494//495
f 496//497 498//499 499//500
f 499//500 497//498 496//497
f 498//499 430//431 433//434
f 433//434 499//500 498//499
f 500//501 501//502 491//492
f 491//492 490//491 500//501
f 501//502 502//503 494//495
f 494//495 491//492 501//502
f 502//503 503//504 496//497
f 496//497 494//495 502//503
f 503//504 504//505 498//499
f 498//499 496//497 503//504
f 504//505 442//443 430//431
f 430//431 498//499 504//505
f 505//506 506//507 501//502
f 501//502 500//501 505//506
f 506//507 507//508 502//503
f 502//503 501//502 506//507
f 507//508 508//509 503//504
f 503//504 502//503 507//508
f 508//509 509//510 504//505
f 504//505 503//504 508//509
f 509//510 448//449 442//443
f 442//443 504//505 509//510
f 510//511 511//512 506//507
f 506//507 505//506 510//511
f 511//512 512//513 507//508
f 507//508 506//507 511//512
f 512//513 513//514 508//509
f 508//509 507//508 512//513
f 513//514 514//515 509//510
f 509//510 508//509 513//514
f 514//515 454//455 448//449
f 448//449 509//510 514//515
f 515//516 516//517 511//512
f 511//512 510//511 515//516
f 516//517 517//518 512//513
f 512//513 511//512 516//517
f 517//518 518//519 513//514
f 513//514 512//513 517//518
f 518//519 519//520 514//515
f 514//515 513//514 518//519
f 519//520 460//461 454//455
f 454//455 514//515 519//520
f 520//521 521//522 516//517
f 516//517 515//516 520//521
f 521//522 522//523 517//518
f 517//518 516//517 521//522
f 522//523 523//524 518//519
f 518//519 517//518 522//523
f 523//524 524//525 519//520
f 519//520 518//519 523//524
f 524//525 466//467 460//461
f 460//461 519//520 524//525
f 525//526 526//527 521//522
f 521//522 520//521 525//526
f 526//527 527//528 522//523
f 522//523 521//522 526//527
f 527//528 528//529 523//524
f 523//524 522//523 527//528
f 528//529 529//530 524//525
f 524//525 523//524 528//529
f 529//530 472//473 466//467
f 466//467 524//525 529//530
f 530//531 531//532 526//527
f 526//527 525//526 530//531
f 531//532 532//533 527//528
f 527//528 526//527 531//532
f 532//533 533//534 528//529
f 528//529 527//528 532//533
f 533//534 534//535 529//530
f 529//530 528//529 533//534
f 534//535 478//479 472//473
f 472//473 529//530 534//535
f 535//536 536//537 531//532
f 531//532 530//531 535//536
f 536//537 537//538 532//533
f 532//533 531//532 536//537
f 537//538 538//539 533//534
f 533//534 532//533 537//538
f 538//539 539//540 534//535
f 534//535 533//534 538//539
f 539//540 484//485 478//479
f 478//479 534//535 539//540
f 493//494 492//493 536//537
f 536//537 535//536 493//494
f 492//493 495//496 537//538
f 537//538 536//537 492//493
f 495//496 497//498 538//539
f 538//539 537//538 495//496
f 497//498 499//500 539//540
f 539//540 538//539 497//498
f 499//500 433//434 484//485
f 484//485 539//540 499//500
f 540//541 541//542 542//543
f 542//543 543//544 540//541
f 541//542 544//545 545//546
f 545//546 542//543 541//542
f 544//545 546//547 547//548
f 547//548 545//546 544//545
f 546//547 548//549 549//550
f 549//550 547//548 546//547
f 548//549 550//551 549//550
f 551//552 552//553 541//542
f 541//542 540//541 551//552
f 552//553 553//554 544//545
f 544//545 541//542 552//553
f 553//554 554//555 546//547
f 546//547 544//545 553//554
f 554//555 555//556 548//549
f 548//549 546//547 554//555
f 555//556 550//551 548//549
f 556//557 557//558 552//553
f 552//553 551//552 556//557
f 557//558 558//559 553//554
f 553//554 552//553 557//558
f 558//559 559//560 554//555
f 554//555 553//554 558//559
f 559//560 560//561 555//556
f 555//556 554//555 559//560
f 560//561 550//551 555//556
f 561//562 562//563 557//558
f 557//558 556//557 561//562
f 562//563 563//564 558//559
f 558//559 557//558 562//563
f 563//564 564//565 559//560
f 559//560 558//559 563//564
f 564//565 565//566 560//561
f 560//561 559//560 564//565
f 565//566 550//551 560//561
f 566//567 567//568 562//563
f 562//563 561//562 566//567
f 567//568 568//569 563//564
f 563//564 562//563 567//568
f 568//569 569//570 564//565
f 564//565 563//564 568//569
f 569//570 570//571 565//566
f 565//566 564//565 569//570
f 570//571 550//551 565//566
f 571//572 572//573 573//574
f 573//574 574//575 571//572
f 572//573 575//576 576//577
f 576//577 573//574 572//573
f 575//576 577//578 578//579
f 578//579 576//577 575//576
f 577//578 579//580 580//581
f 580//581 578//579 577//578
f 579//580 550//551 580//581
f 581//582 582//583 572//573
f 572//573 571//572 581//582
f 582//583 583//584 575//576
f 575//576 572//573 582//583
f 583//584 584//585 577//578
f 577//578 575//576 583//584
f 584//585 585//586 579//580
f 579//580 577//578 584//585
f 585//586 550//551 579//580
f 586//587 587//588 582//583
f 582//583 581//582 586//587
f 587//588 588//589 583//584
f 583//584 582//583 587//588
f 588//589 589//590 584//585
f 584//585 583//584 588//589
f 589//590 590//591 585//586
f 585//586 584//585 589//590
f 590//591 550//551 585//586
f 591//592 592//593 587//588
f 587//588 586//587 591//592
f 592//593 593//594 588//589
f 588//589 587//588 592//593
f 593//594 594//595 589//590
f 589//590 588//589 593//594
f 594//595 595//596 590//591
f 590//591 589//590 594//595
f 595//596 550//551 590//591
f 543//544 542//543 592//593
f 592//593 591//592 543//544
f 542//543 545//546 593//594
f 593//594 592//593 542//543
f 545//546 547//548 594//595
f 594//595 593//594 545//546
f 547//548 549//550 595//596
f 595//596 594//595 547//548
f 549//550 550//551 595//596
f 596//597 597//598 598//599
f 598//599 599//600 596//597
f 597//598 600//601 601//602
f 601//602 598//599 597//598
f 600//601 602//603 603//604
f 603//604 601//602 600//601
f 602//603 604//605 605//606
f 605//606 603//604 602//603
f 604//605 550//551 605//606
f 606//607 607//608 597//598
f 597//598 596//597 606//607
f 607//608 608//609 600//601
f 600//601 597//598 607//608
f 608//609 609//610 602//603
f 602//603 600//601 608//609
f 609//610 610//611 604//605
f 604//605 602//603 609//610
f 610//611 550//551 604//605
f 611//612 612//613 607//608
f 607//608 606//607 611//612
f 612//613 613//614 608//609
f 608//609 607//608 612//613
f 613//614 614//615 609//610
f 609//610 608//609 613//614
f 614//615 615//616 610//611
f 610//611 609//610 614//615
f 615//616 550//551 610//611
f 616//617 617//618 612//613
f 612//613 611//612 616//617
f 617//618 618//619 613//614
f 613//614 612//613 617//618
f 618//619 619//620 614//615
f 614//615 613//614 618//619
f 619//620 620//621 615//616
f 615//616 614//615 619//620
f 620//621 550//551 615//616
f 574//575 573//574 617//618
f 617//618 616//617 574//575
f 573//574 576//577 618//619
f 618//619 617//618 573//574
f 576//577 578//579 619//620
f 619//620 618//619 576//577
f 578//579 580//581 620//621
f 620//621 619//620 578//579
f 580//581 550//551 620//621
f 621//622 622//623 567//568
f 567//568 566//567 621//622
f 622//623 623//624 568//569
f 568//569 567//568 622//623
f 623//624 624//625 569//570
f 569//570 568//569 623//624
f 624//625 625//626 570//571
f 570//571 569//570 624//625
f 625//626 550//551 570//571
f 626//627 627//628 622//623
f 622//623 621//622 626//627
f 627//628 628//629 623//624
f 623//624 622//623 627//628
f 628//629 629//630 624//625
f 624//625 623//624 628//629
f 629//630 630//631 625//626
f 625//626 624//625 629//630
f 630//631 550//551 625//626
f 631//632 632//633 627//628
f 627//628 626//627 631//632
f 632//633 633//634 628//629
f 628//629 627//628 632//633
f 633//634 634//635 629//630
f 629//630 628//629 633//634
f 634//635 635//636 630//631
f 630//631 629//630 634//635
f 635//636 550//551 630//631
f 636//637 637//638 632//633
f 632//633 631//632 636//637
f 637//638 638//639 633//634
f 633//634 632//633 637//638
f 638//639 639//640 634//635
f 634//635 633//634 638//639
f 639//640 640//641 635//636
f 635//636 634//635 639//640
f 640//641 550//551 635//636
f 599//600 598//599 637//638
f 637//638 636//637 599//600
f 598//599 601//602 638//639
f 638//639 637//638 598//599
f 601//602 603//604 639//640
f 639//640 638//639 601//602
f 603//604 605//606 640//641
f 640//641 639//640 603//604
f 605//606 550//551 640//641
f 641//642 642//643 643//644
f 643//644 644//645 641//642
f 642//643 645//646 646//647
f 646//647 643//644 642//643
f 645//646 647//648 648//649
f 648//649 646//647 645//646
f 647//648 649//650 650//651
f 650//651 648//649 647//648
f 649//650 540//541 543//544
f 543//544 650//651 649//650
f 651//652 652//653 642//643
f 642//643 641//642 651//652
f 652//653 653//654 645//646
f 645//646 642//643 652//653
f 653//654 654//655 647//648
f 647//648 645//646 653//654
f 654//655 655//656 649//650
f 649//650 647//648 654//655
f 655//656 551//552 540//541
f 540//541 649//650 655//656
f 656//657 657//658 652//653
f 652//653 651//652 656//657
f 657//658 658//659 653//654
f 653//654 652//653 657//658
f 658//659 659//660 654//655
f 654//655 653//654 658//659
f 659//660 660//661 655//656
f 655//656 654//655 659//660
f 660//661 556//557 551//552
f 551//552 655//656 660//661
f 661//662 662//663 657//658
f 657//658 656//657 661//662
f 662//663 663//664 658//659
f 658//659 657//658 662//663
f 663//664 664//665 659//660
f 659//660 658//659 663//664
f 664//665 665//666 660//661
f 660//661 659//660 664//665
f 665//666 561//562 556//557
f 556//557 660//661 665//666
f 666//667 667//668 662//663
f 662//663 661//662 666//667
f 667//668 668//669 663//664
f 663//664 662//663 667//668
f 668//669 669//670 664//665
f 664//665 663//664 668//669
f 669//670 670//671 665//666
f 665//666 664//665 669//670
f 670//671 566//567 561//562
f 561//562 665//666 670//671
f 671//672 672//673 673//674
f 673//674 674//675 671//672
f 672//673 675//676 676//677
f 676//677 673//674 672//673
f 675//676 677//678 678//679
f 678//679 676//677 675//676
f 677//678 679//680 680//681
f 680//681 678//679 677//678
f 679//680 571//572 574//575
f 574//575 680//681 679//680
f 681//682 682//683 672//673
f 672//673 671//672 681//682
f 682//683 683//684 675//676
f 675//676 672//673 682//683
f 683//684 684//685 677//678
f 677//678 675//676 683//684
f 684//685 685//686 679//680
f 679//680 677//678 684//685
f 685//686 581//582 571//572
f 571//572 679//680 685//686
f 686//687 687//688 682//683
f 682//683 681//682 686//687
f 687//688 688//689 683//684
f 683//684 682//683 687//688
f 688//689 689//690 684//685
f 684//685 683//684 688//689
f 689//690 690//691 685//686
f 685//686 684//685 689//690
f 690//691 586//587 581//582
f 581//582 685//686 690//691
f 691//692 692//693 687//688
f 687//688 686//687 691//692
f 692//693 693//694 688//689
f 688//689 687//688 692//693
f 693//694 694//695 689//690
f 689//690 688//689 693//694
f 694//695 695//696 690//691
f 690//691 689//690 694//695
f 695//696 591//592 586//587
f 586//587 690//691 695//696
f 644//645 643//644 692//693
f 692//693 691//692 644//645
f 643//644 646//647 693//694
f 693//694 692//693 643//644
f 646//647 648//649 694//695
f 694//695 693//694 646//647
f 648//649 650//651 695//696
f 695//696 694//695 648//649
f 650//651 543//544 591//592
f 591//592 695//696 650//651
f 696//697 697//698 698//699
f 698//699 699//700 696//697
f 697//698 700//701 701//702
f 701//702 698//699 697//698
f 700//701 702//703 703//704
f 703//704 701//702 700//701
f 702//703 704//705 705//706
f 705//706 703//704 702//703
f 704//705 596//597 599//600
f 599//600 705//706 704//705
f 706//707 707//708 697//698
f 697//698 696//697 706//707
f 707//708 708//709 700//701
f 700//701 697//698 707//708
f 708//709 709//710 702//703
f 702//703 700//701 708//709
f 709//710 710//711 704//705
f 704//705 702//703 709//710
f 710//711 606//607 596//597
f 596//597 704//705 710//711
f 711//712 712//713 707//708
f 707//708 706//707 711//712
f 712//713 713//714 708//709
f 708//709 707//708 712//713
f 713//714 714//715 709//710
f 709//710 708//709 713//714
f 714//715 715//716 710//711
f 710//711 709//710 714//715
f 715//716 611//612 606//607
f 606//607 710//711 715//716
f 716//717 717//718 712//713
f 712//713 711//712 716//717
f 717//718 718//719 713//714
f 713//714 712//713 717//718
f 718//719 719//720 714//715
f 714//715 713//714 718//719
f 719//720 720//721 715//716
f 715//716 714//715 719//720
f 720//721 616//617 611//612
f 611//612 715//716 720//721
f 674//675 673//674 717//718
f 717//718 716//717 674//675
f 673//674 676//677 718//719
f 718//719 717//718 673//674
f 676//677 678//679 719//720
f 719//720 718//719 676//677
f 678//679 680//681 720//721
f 720//721 719//720 678//679
f 680//681 574//575 616//617
f 616//617 720//721 680//681
f 721//722 722//723 667//668
f 667//668 666//667 721//722
f 722//723 723//724 668//669
f 668//669 667//668 722//723
f 723//724 724//725 669//670
f 669//670 668//669 723//724
f 724//725 725//726 670//671
f 670//671 669//670 724//725
f 725//726 621//622 566//567
f 566//567 670//671 725//726
f 726//727 727//728 722//723
f 722//723 721//722 726//727
f 727//728 728//729 723//724
f 723//724 722//723 727//728
f 728//729 729//730 724//725
f 724//725 723//724 728//729
f 729//730 730//731 725//726
f 725//726 724//725 729//730
f 730//731 626//627 621//622
f 621//622 725//726 730//731
f 731//732 732//733 727//728
f 727//728 726//727 731//732
f 732//733 733//734 728//729
f 728//729 727//728 732//733
f 733//734 734//735 729//730
f 729//730 728//729 733//734
f 734//735 735//736 730//731
f 730//731 729//730 734//735
f 735//736 631//632 626//627
f 626//627 730//731 735//736
f 736//737 737//738 732//733
f 732//733 731//732 736//737
f 737//738 738//739 733//734
f 733//734 732//733 737//738
f 738//739 739//740 734//735
f 734//735 733//734 738//739
f 739//740 740//741 735//736
f 735//736 734//735 739//740
f 740//741 636//637 631//632
f 631//632 735//736 740//741
f 699//700 698//699 737//738
f 737//738 736//737 699//700
f 698//699 701//702 738//739
f 738//739 737//738 698//699
f 701//702 703//704 739//740
f 739//740 738//739 701//702
f 703//704 705//706 740//741
f 740//741 739//740 703//704
f 705//706 599//600 636//637
f 636//637 740//741 705//706
f 316//316 741//742 742//743
f 742//743 279//279 316//316
f 741//742 743//744 744//745
f 744//745 742//743 741//742
f 743//744 745//746 746//747
f 746//747 744//745 743//744
f 745//746 747//748 748//749
f 748//749 746//747 745//746
f 747//748 749//750 748//749
f 311//311 750//751 741//742
f 741//742 316//316 311//311
f 750//751 751//752 743//744
f 743//744 741//742 750//751
f 751//752 752//753 745//746
f 745//746 743//744 751//752
f 752//753 753//754 747//748
f 747//748 745//746 752//753
f 753//754 749//750 747//748
f 306//306 754//755 750//751
f 750//751 311//311 306//306
f 754//755 755//756 751//752
f 751//752 750//751 754//755
f 755//756 756//757 752//753
f 752//753 751//752 755//756
f 756//757 757//758 753//754
f 753//754 752//753 756//757
f 757//758 749//750 753//754
f 301//301 758//759 754//755
f 754//755 306//306 301//301
f 758//759 759//760 755//756
f 755//756 754//755 758//759
f 759//760 760//761 756//757
f 756//757 755//756 759//760
f 760//761 761//762 757//758
f 757//758 756//757 760//761
f 761//762 749//750 757//758
f 246//246 762//763 758//759
f 758//759 301//301 246//246
f 762//763 763//764 759//760
f 759//760 758//759 762//763
f 763//764 764//765 760//761
f 760//761 759//760 763//764
f 764//765 765//766 761//762
f 761//762 760//761 764//765
f 765//766 749//750 761//762
f 296//296 766//767 767//768
f 767//768 254//254 296//296
f 766//767 768//769 769//770
f 769//770 767//768 766//767
f 768//769 770//771 771//772
f 771//772 769//770 768//769
f 770//771 772//773 773//774
f 773//774 771//772 770//771
f 772//773 749//750 773//774
f 291//291 774//775 766//767
f 766//767 296//296 291//291
f 774//775 775//776 768//769
f 768//769 766//767 774//775
f 775//776 776//777 770//771
f 770//771 768//769 775//776
f 776//777 777//778 772//773
f 772//773 770//771 776//777
f 777//778 749//750 772//773
f 286//286 778//779 774//775
f 774//775 291//291 286//286
f 778//779 779//780 775//776
f 775//776 774//775 778//779
f 779//780 780//781 776//777
f 776//777 775//776 779//780
f 780//781 781//782 777//778
f 777//778 776//777 780//781
f 781//782 749//750 777//778
f 276//276 782//783 778//779
f 778//779 286//286 276//276
f 782//783 783//784 779//780
f 779//780 778//779 782//783
f 783//784 784//785 780//781
f 780//781 779//780 783//784
f 784//785 785//786 781//782
f 781//782 780//781 784//785
f 785//786 749//750 781//782
f 279//279 742//743 782//783
f 782//783 276//276 279//279
f 742//743 744//745 783//784
f 783//784 782//783 742//743
f 744//745 746//747 784//785
f 784//785 783//784 744//745
f 746//747 748//749 785//786
f 785//786 784//785 746//747
f 748//749 749//750 785//786
f 271//271 786//787 787//788
f 787//788 224//224 271//271
f 786//787 788//789 789//790
f 789//790 787//788 786//787
f 788//789 790//791 791//792
f 791//792 789//790 788//789
f 790//791 792//793 793//794
f 793//794 791//792 790//791
f 792//793 749//750 793//794
f 266//266 794//795 786//787
f 786//787 271//271 266//266
f 794//795 795//796 788//789
f 788//789 786//787 794//795
f 795//796 796//797 790//791
f 790//791 788//789 795//796
f 796//797 797//798 792//793
f 792//793 790//791 796//797
f 797//798 749//750 792//793
f 261//261 798//799 794//795
f 794//795 266//266 261//261
f 798//799 799//800 795//796
f 795//796 794//795 798//799
f 799//800 800//801 796//797
f 796//797 795//796 799//800
f 800//801 801//802 797//798
f 797//798 796//797 800//801
f 801//802 749//750 797//798
f 251//251 802//803 798//799
f 798//799 261//261 251//251
f 802//803 803//804 799//800
f 799//800 798//799 802//803
f 803//804 804//805 800//801
f 800//801 799//800 803//804
f 804//805 805//806 801//802
f 801//802 800//801 804//805
f 805//806 749//750 801//802
f 254//254 767//768 802//803
f 802//803 251//251 254//254
f 767//768 769//770 803//804
f 803//804 802//803 767//768
f 769//770 771//772 804//805
f 804//805 803//804 769//770
f 771//772 773//774 805//806
f 805//806 804//805 771//772
f 773//774 749//750 805//806
f 241//241 806//807 762//763
f 762//763 246//246 241//241
f 806//807 807//808 763//764
f 763//764 762//763 806//807
f 807//808 808//809 764//765
f 764//765 763//764 807//808
f 808//809 809//810 765//766
f 765//766 764//765 808//809
f 809//810 749//750 765//766
f 236//236 810//811 806//807
f 806//807 241//241 236//236
f 810//811 811//812 807//808
f 807//808 806//807 810//811
f 811//812 812//813 808//809
f 808//809 807//808 811//812
f 812//813 813//814 809//810
f 809//810 808//809 812//813
f 813//814 749//750 809//810
f 231//231 814//815 810//811
f 810//811 236//236 231//231
f 814//815 815//816 811//812
f 811//812 810//811 814//815
f 815//816 816//817 812//813
f 812//813 811//812 815//816
f 816//817 817//818 813//814
f 813//814 812//813 816//817
f 817//818 749//750 813//814
f 221//221 818//819 814//815
f 814//815 231//231 221//221
f 818//819 819//820 815//816
f 815//816 814//815 818//819
f 819//820 820//821 816//817
f 816//817 815//816 819//820
f 820//821 821//822 817//818
f 817//818 816//817 820//821
f 821//822 749//750 817//818
f 224//224 787//788 818//819
f 818//819 221//221 224//224
f 787//788 789//790 819//820
f 819//820 818//819 787//788
f 789//790 791//792 820//821
f 820//821 819//820 789//790
f 791//792 793//794 821//822
f 821//822 820//821 791//792
f 793//794 749//750 821//822
