# Blender v2.90.0 OBJ File: 'rotation_world.blend'
# www.blender.org
mtllib Testplus.mtl
o Testplus
v 0.167285 -0.172634 -0.161936
v 0.167285 -0.172634 0.161936
v 0.167285 -0.496505 0.161936
v 0.167285 -0.496505 -0.161936
v -0.172634 -0.161936 0.167285
v -0.172634 0.161936 0.167285
v -0.496505 0.161936 0.167285
v -0.496505 -0.161936 0.167285
v -0.172634 0.161936 -0.167285
v -0.172634 -0.161936 -0.167285
v -0.496505 -0.161936 -0.167285
v -0.496505 0.161936 -0.167285
v 0.172634 0.167285 -0.161936
v 0.172634 0.167285 0.161936
v 0.496505 0.167285 0.161936
v 0.496505 0.167285 -0.161936
v 0.161936 -0.167285 -0.172634
v -0.161936 -0.167285 -0.172634
v -0.161936 -0.167285 -0.496505
v 0.161936 -0.167285 -0.496505
v 0.167285 0.172634 0.161936
v 0.167285 0.172634 -0.161936
v 0.167285 0.496505 -0.161936
v 0.167285 0.496505 0.161936
v -0.161936 0.501854 0.161936
v 0.161936 0.501854 0.161936
v 0.161936 0.501854 -0.161936
v -0.161936 0.501854 -0.161936
v 0.161936 0.172634 -0.167285
v -0.161936 0.172634 -0.167285
v -0.161936 0.496505 -0.167285
v 0.161936 0.496505 -0.167285
v -0.167285 0.161936 0.172634
v -0.167285 -0.161936 0.172634
v -0.167285 -0.161936 0.496505
v -0.167285 0.161936 0.496505
v 0.172634 0.161936 0.167285
v 0.172634 -0.161936 0.167285
v 0.496505 -0.161936 0.167285
v 0.496505 0.161936 0.167285
v 0.501854 0.161936 0.161936
v 0.501854 -0.161936 0.161936
v 0.501854 -0.161936 -0.161936
v 0.501854 0.161936 -0.161936
v -0.161936 0.167285 -0.172634
v 0.161936 0.167285 -0.172634
v 0.161936 0.167285 -0.496505
v -0.161936 0.167285 -0.496505
v -0.172634 0.167285 0.161936
v -0.172634 0.167285 -0.161936
v -0.496505 0.167285 -0.161936
v -0.496505 0.167285 0.161936
v -0.161936 0.172634 0.167285
v 0.161936 0.172634 0.167285
v 0.161936 0.496505 0.167285
v -0.161936 0.496505 0.167285
v 0.161936 0.161936 -0.501854
v 0.161936 -0.161936 -0.501854
v -0.161936 -0.161936 -0.501854
v -0.161936 0.161936 -0.501854
v -0.161936 -0.167285 0.172634
v 0.161936 -0.167285 0.172634
v 0.161936 -0.167285 0.496505
v -0.161936 -0.167285 0.496505
v 0.167285 0.161936 -0.172634
v 0.167285 -0.161936 -0.172634
v 0.167285 -0.161936 -0.496505
v 0.167285 0.161936 -0.496505
v 0.161936 -0.172634 0.167285
v -0.161936 -0.172634 0.167285
v -0.161936 -0.496505 0.167285
v 0.161936 -0.496505 0.167285
v -0.161936 0.161936 0.501854
v -0.161936 -0.161936 0.501854
v 0.161936 -0.161936 0.501854
v 0.161936 0.161936 0.501854
v -0.161936 -0.172634 -0.167285
v 0.161936 -0.172634 -0.167285
v 0.161936 -0.496505 -0.167285
v -0.161936 -0.496505 -0.167285
v 0.172634 -0.161936 -0.167285
v 0.172634 0.161936 -0.167285
v 0.496505 0.161936 -0.167285
v 0.496505 -0.161936 -0.167285
v 0.161936 -0.501854 0.161936
v -0.161936 -0.501854 0.161936
v -0.161936 -0.501854 -0.161936
v 0.161936 -0.501854 -0.161936
v -0.501854 0.161936 -0.161936
v -0.501854 -0.161936 -0.161936
v -0.501854 -0.161936 0.161936
v -0.501854 0.161936 0.161936
v 0.161936 0.167285 0.172634
v -0.161936 0.167285 0.172634
v -0.161936 0.167285 0.496505
v 0.161936 0.167285 0.496505
v 0.172634 -0.167285 0.161936
v 0.172634 -0.167285 -0.161936
v 0.496505 -0.167285 -0.161936
v 0.496505 -0.167285 0.161936
v -0.172634 -0.167285 -0.161936
v -0.172634 -0.167285 0.161936
v -0.496505 -0.167285 0.161936
v -0.496505 -0.167285 -0.161936
v -0.167285 0.172634 -0.161936
v -0.167285 0.172634 0.161936
v -0.167285 0.496505 0.161936
v -0.167285 0.496505 -0.161936
v -0.167285 -0.172634 0.161936
v -0.167285 -0.172634 -0.161936
v -0.167285 -0.496505 -0.161936
v -0.167285 -0.496505 0.161936
v -0.167285 -0.161936 -0.172634
v -0.167285 0.161936 -0.172634
v -0.167285 0.161936 -0.496505
v -0.167285 -0.161936 -0.496505
v 0.167285 -0.161936 0.172634
v 0.166491 -0.164561 0.172634
v 0.167285 -0.165104 0.169466
v 0.168078 -0.161936 0.170008
v 0.164561 -0.166491 0.172634
v 0.165104 -0.167285 0.169466
v 0.161936 -0.168078 0.170008
v 0.161936 -0.170008 0.168078
v 0.165104 -0.169466 0.167285
v 0.164561 -0.172634 0.166491
v 0.166491 -0.172634 0.164561
v 0.167285 -0.169466 0.165104
v 0.168078 -0.170008 0.161936
v 0.170008 -0.168078 0.161936
v 0.169466 -0.167285 0.165104
v 0.172634 -0.166491 0.164561
v 0.172634 -0.164561 0.166491
v 0.169466 -0.165104 0.167285
v 0.170008 -0.161936 0.168078
v 0.164561 0.166491 0.172634
v 0.165104 0.167285 0.169466
v 0.161936 0.168078 0.170008
v 0.166491 0.164561 0.172634
v 0.167285 0.165104 0.169466
v 0.167285 0.161936 0.172634
v 0.168078 0.161936 0.170008
v 0.170008 0.161936 0.168078
v 0.169466 0.165104 0.167285
v 0.172634 0.164561 0.166491
v 0.172634 0.166491 0.164561
v 0.169466 0.167285 0.165104
v 0.170008 0.168078 0.161936
v 0.168078 0.170008 0.161936
v 0.167285 0.169466 0.165104
v 0.166491 0.172634 0.164561
v 0.164561 0.172634 0.166491
v 0.165104 0.169466 0.167285
v 0.161936 0.170008 0.168078
v 0.168078 -0.161936 -0.170008
v 0.167285 -0.165104 -0.169466
v 0.166491 -0.164561 -0.172634
v 0.170008 -0.161936 -0.168078
v 0.169466 -0.165104 -0.167285
v 0.172634 -0.164561 -0.166491
v 0.172634 -0.166491 -0.164561
v 0.169466 -0.167285 -0.165104
v 0.170008 -0.168078 -0.161936
v 0.168078 -0.170008 -0.161936
v 0.167285 -0.169466 -0.165104
v 0.166491 -0.172634 -0.164561
v 0.164561 -0.172634 -0.166491
v 0.165104 -0.169466 -0.167285
v 0.161936 -0.170008 -0.168078
v 0.161936 -0.168078 -0.170008
v 0.165104 -0.167285 -0.169466
v 0.164561 -0.166491 -0.172634
v 0.166491 0.164561 -0.172634
v 0.167285 0.165104 -0.169466
v 0.168078 0.161936 -0.170008
v 0.164561 0.166491 -0.172634
v 0.165104 0.167285 -0.169466
v 0.161936 0.168078 -0.170008
v 0.161936 0.170008 -0.168078
v 0.165104 0.169466 -0.167285
v 0.164561 0.172634 -0.166491
v 0.166491 0.172634 -0.164561
v 0.167285 0.169466 -0.165104
v 0.168078 0.170008 -0.161936
v 0.170008 0.168078 -0.161936
v 0.169466 0.167285 -0.165104
v 0.172634 0.166491 -0.164561
v 0.172634 0.164561 -0.166491
v 0.169466 0.165104 -0.167285
v 0.170008 0.161936 -0.168078
v -0.172634 -0.164561 0.166491
v -0.169466 -0.165104 0.167285
v -0.170008 -0.161936 0.168078
v -0.172634 -0.166491 0.164561
v -0.169466 -0.167285 0.165104
v -0.170008 -0.168078 0.161936
v -0.168078 -0.170008 0.161936
v -0.167285 -0.169466 0.165104
v -0.166491 -0.172634 0.164561
v -0.164561 -0.172634 0.166491
v -0.165104 -0.169466 0.167285
v -0.161936 -0.170008 0.168078
v -0.161936 -0.168078 0.170008
v -0.165104 -0.167285 0.169466
v -0.164561 -0.166491 0.172634
v -0.166491 -0.164561 0.172634
v -0.167285 -0.165104 0.169466
v -0.168078 -0.161936 0.170008
v -0.172634 0.166491 0.164561
v -0.169466 0.167285 0.165104
v -0.170008 0.168078 0.161936
v -0.172634 0.164561 0.166491
v -0.169466 0.165104 0.167285
v -0.170008 0.161936 0.168078
v -0.168078 0.161936 0.170008
v -0.167285 0.165104 0.169466
v -0.166491 0.164561 0.172634
v -0.164561 0.166491 0.172634
v -0.165104 0.167285 0.169466
v -0.161936 0.168078 0.170008
v -0.161936 0.170008 0.168078
v -0.165104 0.169466 0.167285
v -0.164561 0.172634 0.166491
v -0.166491 0.172634 0.164561
v -0.167285 0.169466 0.165104
v -0.168078 0.170008 0.161936
v -0.170008 -0.161936 -0.168078
v -0.169466 -0.165104 -0.167285
v -0.172634 -0.164561 -0.166491
v -0.168078 -0.161936 -0.170008
v -0.167285 -0.165104 -0.169466
v -0.166491 -0.164561 -0.172634
v -0.164561 -0.166491 -0.172634
v -0.165104 -0.167285 -0.169466
v -0.161936 -0.168078 -0.170008
v -0.161936 -0.170008 -0.168078
v -0.165104 -0.169466 -0.167285
v -0.164561 -0.172634 -0.166491
v -0.166491 -0.172634 -0.164561
v -0.167285 -0.169466 -0.165104
v -0.168078 -0.170008 -0.161936
v -0.170008 -0.168078 -0.161936
v -0.169466 -0.167285 -0.165104
v -0.172634 -0.166491 -0.164561
v -0.170008 0.168078 -0.161936
v -0.169466 0.167285 -0.165104
v -0.172634 0.166491 -0.164561
v -0.168078 0.170008 -0.161936
v -0.167285 0.169466 -0.165104
v -0.166491 0.172634 -0.164561
v -0.164561 0.172634 -0.166491
v -0.165104 0.169466 -0.167285
v -0.161936 0.170008 -0.168078
v -0.161936 0.168078 -0.170008
v -0.165104 0.167285 -0.169466
v -0.164561 0.166491 -0.172634
v -0.166491 0.164561 -0.172634
v -0.167285 0.165104 -0.169466
v -0.168078 0.161936 -0.170008
v -0.170008 0.161936 -0.168078
v -0.169466 0.165104 -0.167285
v -0.172634 0.164561 -0.166491
v 0.164607 -0.496505 -0.166570
v 0.164494 -0.499063 -0.165876
v 0.161936 -0.499176 -0.166570
v 0.166570 -0.496505 -0.164607
v 0.165876 -0.499063 -0.164494
v 0.166570 -0.499176 -0.161936
v 0.164607 -0.501139 -0.161936
v 0.164494 -0.500445 -0.164494
v 0.161936 -0.501139 -0.164607
v -0.161936 -0.499176 -0.166570
v -0.164494 -0.499063 -0.165876
v -0.164607 -0.496505 -0.166570
v -0.161936 -0.501139 -0.164607
v -0.164494 -0.500445 -0.164494
v -0.164607 -0.501139 -0.161936
v -0.166570 -0.499176 -0.161936
v -0.165876 -0.499063 -0.164494
v -0.166570 -0.496505 -0.164607
v 0.166570 -0.496505 0.164607
v 0.165876 -0.499063 0.164494
v 0.166570 -0.499176 0.161936
v 0.164607 -0.496505 0.166570
v 0.164494 -0.499063 0.165876
v 0.161936 -0.499176 0.166570
v 0.161936 -0.501139 0.164607
v 0.164494 -0.500445 0.164494
v 0.164607 -0.501139 0.161936
v -0.166570 -0.499176 0.161936
v -0.165876 -0.499063 0.164494
v -0.166570 -0.496505 0.164607
v -0.164607 -0.501139 0.161936
v -0.164494 -0.500445 0.164494
v -0.161936 -0.501139 0.164607
v -0.161936 -0.499176 0.166570
v -0.164494 -0.499063 0.165876
v -0.164607 -0.496505 0.166570
v -0.166570 0.496505 0.164607
v -0.165876 0.499063 0.164494
v -0.166570 0.499176 0.161936
v -0.164607 0.496505 0.166570
v -0.164494 0.499063 0.165876
v -0.161936 0.499176 0.166570
v -0.161936 0.501139 0.164607
v -0.164494 0.500445 0.164494
v -0.164607 0.501139 0.161936
v -0.166570 0.499176 -0.161936
v -0.165876 0.499063 -0.164494
v -0.166570 0.496505 -0.164607
v -0.164607 0.501139 -0.161936
v -0.164494 0.500445 -0.164494
v -0.161936 0.501139 -0.164607
v -0.161936 0.499176 -0.166570
v -0.164494 0.499063 -0.165876
v -0.164607 0.496505 -0.166570
v 0.164607 0.496505 0.166570
v 0.164494 0.499063 0.165876
v 0.161936 0.499176 0.166570
v 0.166570 0.496505 0.164607
v 0.165876 0.499063 0.164494
v 0.166570 0.499176 0.161936
v 0.164607 0.501139 0.161936
v 0.164494 0.500445 0.164494
v 0.161936 0.501139 0.164607
v 0.161936 0.499176 -0.166570
v 0.164494 0.499063 -0.165876
v 0.164607 0.496505 -0.166570
v 0.161936 0.501139 -0.164607
v 0.164494 0.500445 -0.164494
v 0.164607 0.501139 -0.161936
v 0.166570 0.499176 -0.161936
v 0.165876 0.499063 -0.164494
v 0.166570 0.496505 -0.164607
v 0.496505 -0.164607 0.166570
v 0.499063 -0.164494 0.165876
v 0.499176 -0.161936 0.166570
v 0.496505 -0.166570 0.164607
v 0.499063 -0.165876 0.164494
v 0.499176 -0.166570 0.161936
v 0.501139 -0.164607 0.161936
v 0.500445 -0.164494 0.164494
v 0.501139 -0.161936 0.164607
v 0.499176 0.161936 0.166570
v 0.499063 0.164494 0.165876
v 0.496505 0.164607 0.166570
v 0.501139 0.161936 0.164607
v 0.500445 0.164494 0.164494
v 0.501139 0.164607 0.161936
v 0.499176 0.166570 0.161936
v 0.499063 0.165876 0.164494
v 0.496505 0.166570 0.164607
v 0.499176 -0.161936 -0.166570
v 0.499063 -0.164494 -0.165876
v 0.496505 -0.164607 -0.166570
v 0.501139 -0.161936 -0.164607
v 0.500445 -0.164494 -0.164494
v 0.501139 -0.164607 -0.161936
v 0.499176 -0.166570 -0.161936
v 0.499063 -0.165876 -0.164494
v 0.496505 -0.166570 -0.164607
v 0.496505 0.164607 -0.166570
v 0.499063 0.164494 -0.165876
v 0.499176 0.161936 -0.166570
v 0.496505 0.166570 -0.164607
v 0.499063 0.165876 -0.164494
v 0.499176 0.166570 -0.161936
v 0.501139 0.164607 -0.161936
v 0.500445 0.164494 -0.164494
v 0.501139 0.161936 -0.164607
v -0.166570 0.164607 -0.496505
v -0.165876 0.164494 -0.499063
v -0.166570 0.161936 -0.499176
v -0.164607 0.166570 -0.496505
v -0.164494 0.165876 -0.499063
v -0.161936 0.166570 -0.499176
v -0.161936 0.164607 -0.501139
v -0.164494 0.164494 -0.500445
v -0.164607 0.161936 -0.501139
v -0.166570 -0.161936 -0.499176
v -0.165876 -0.164494 -0.499063
v -0.166570 -0.164607 -0.496505
v -0.164607 -0.161936 -0.501139
v -0.164494 -0.164494 -0.500445
v -0.161936 -0.164607 -0.501139
v -0.161936 -0.166570 -0.499176
v -0.164494 -0.165876 -0.499063
v -0.164607 -0.166570 -0.496505
v 0.166570 -0.164607 -0.496505
v 0.165876 -0.164494 -0.499063
v 0.166570 -0.161936 -0.499176
v 0.164607 -0.166570 -0.496505
v 0.164494 -0.165876 -0.499063
v 0.161936 -0.166570 -0.499176
v 0.161936 -0.164607 -0.501139
v 0.164494 -0.164494 -0.500445
v 0.164607 -0.161936 -0.501139
v 0.166570 0.161936 -0.499176
v 0.165876 0.164494 -0.499063
v 0.166570 0.164607 -0.496505
v 0.164607 0.161936 -0.501139
v 0.164494 0.164494 -0.500445
v 0.161936 0.164607 -0.501139
v 0.161936 0.166570 -0.499176
v 0.164494 0.165876 -0.499063
v 0.164607 0.166570 -0.496505
v 0.161936 0.166570 0.499176
v 0.164494 0.165876 0.499063
v 0.164607 0.166570 0.496505
v 0.161936 0.164607 0.501139
v 0.164494 0.164494 0.500445
v 0.164607 0.161936 0.501139
v 0.166570 0.161936 0.499176
v 0.165876 0.164494 0.499063
v 0.167285 0.161936 0.496505
v 0.166570 0.164607 0.496505
v -0.164607 0.166570 0.496505
v -0.164494 0.165876 0.499063
v -0.161936 0.166570 0.499176
v -0.166570 0.164607 0.496505
v -0.165876 0.164494 0.499063
v -0.166570 0.161936 0.499176
v -0.164607 0.161936 0.501139
v -0.164494 0.164494 0.500445
v -0.161936 0.164607 0.501139
v 0.167285 -0.161936 0.496505
v 0.166570 -0.161936 0.499176
v 0.165876 -0.164494 0.499063
v 0.166570 -0.164607 0.496505
v 0.164607 -0.161936 0.501139
v 0.164494 -0.164494 0.500445
v 0.161936 -0.164607 0.501139
v 0.161936 -0.166570 0.499176
v 0.164494 -0.165876 0.499063
v 0.164607 -0.166570 0.496505
v -0.166570 -0.164607 0.496505
v -0.165876 -0.164494 0.499063
v -0.166570 -0.161936 0.499176
v -0.164607 -0.166570 0.496505
v -0.164494 -0.165876 0.499063
v -0.161936 -0.166570 0.499176
v -0.161936 -0.164607 0.501139
v -0.164494 -0.164494 0.500445
v -0.164607 -0.161936 0.501139
v -0.499176 0.166570 0.161936
v -0.499063 0.165876 0.164494
v -0.496505 0.166570 0.164607
v -0.501139 0.164607 0.161936
v -0.500445 0.164494 0.164494
v -0.501139 0.161936 0.164607
v -0.499176 0.161936 0.166570
v -0.499063 0.164494 0.165876
v -0.496505 0.164607 0.166570
v -0.496505 0.166570 -0.164607
v -0.499063 0.165876 -0.164494
v -0.499176 0.166570 -0.161936
v -0.496505 0.164607 -0.166570
v -0.499063 0.164494 -0.165876
v -0.499176 0.161936 -0.166570
v -0.501139 0.161936 -0.164607
v -0.500445 0.164494 -0.164494
v -0.501139 0.164607 -0.161936
v -0.496505 -0.164607 -0.166570
v -0.499063 -0.164494 -0.165876
v -0.499176 -0.161936 -0.166570
v -0.496505 -0.166570 -0.164607
v -0.499063 -0.165876 -0.164494
v -0.499176 -0.166570 -0.161936
v -0.501139 -0.164607 -0.161936
v -0.500445 -0.164494 -0.164494
v -0.501139 -0.161936 -0.164607
v -0.499176 -0.161936 0.166570
v -0.499063 -0.164494 0.165876
v -0.496505 -0.164607 0.166570
v -0.501139 -0.161936 0.164607
v -0.500445 -0.164494 0.164494
v -0.501139 -0.164607 0.161936
v -0.499176 -0.166570 0.161936
v -0.499063 -0.165876 0.164494
v -0.496505 -0.166570 0.164607
vt 0.625000 0.746003
vt 0.625000 0.503997
vt 0.625000 0.503997
vt 0.625000 0.746003
vt 0.621003 0.250000
vt 0.378997 0.250000
vt 0.378997 0.250000
vt 0.621003 0.250000
vt 0.378997 0.000000
vt 0.621003 0.000000
vt 0.621003 0.000000
vt 0.378997 0.000000
vt 0.375000 0.746003
vt 0.375000 0.503997
vt 0.375000 0.503997
vt 0.375000 0.746003
vt 0.625000 0.753997
vt 0.625000 0.996003
vt 0.625000 0.996003
vt 0.625000 0.753997
vt 0.375000 0.503997
vt 0.375000 0.746003
vt 0.375000 0.746003
vt 0.375000 0.503997
vt 0.128997 0.503997
vt 0.371003 0.503997
vt 0.371003 0.746003
vt 0.128997 0.746003
vt 0.375000 0.753997
vt 0.375000 0.996003
vt 0.375000 0.996003
vt 0.375000 0.753997
vt 0.378997 0.250000
vt 0.621003 0.250000
vt 0.621003 0.250000
vt 0.378997 0.250000
vt 0.378997 0.500000
vt 0.621003 0.500000
vt 0.621003 0.500000
vt 0.378997 0.500000
vt 0.378997 0.503997
vt 0.621003 0.503997
vt 0.621003 0.746003
vt 0.378997 0.746003
vt 0.375000 0.996003
vt 0.375000 0.753997
vt 0.375000 0.753997
vt 0.375000 0.996003
vt 0.375000 0.246003
vt 0.375000 0.003997
vt 0.375000 0.003997
vt 0.375000 0.246003
vt 0.375000 0.253997
vt 0.375000 0.496003
vt 0.375000 0.496003
vt 0.375000 0.253997
vt 0.378997 0.753997
vt 0.621003 0.753997
vt 0.621003 0.996003
vt 0.378997 0.996003
vt 0.625000 0.253997
vt 0.625000 0.496003
vt 0.625000 0.496003
vt 0.625000 0.253997
vt 0.378997 0.750000
vt 0.621003 0.750000
vt 0.621003 0.750000
vt 0.378997 0.750000
vt 0.625000 0.496003
vt 0.625000 0.253997
vt 0.625000 0.253997
vt 0.625000 0.496003
vt 0.378997 0.253997
vt 0.621003 0.253997
vt 0.621003 0.496003
vt 0.378997 0.496003
vt 0.625000 0.996003
vt 0.625000 0.753997
vt 0.625000 0.753997
vt 0.625000 0.996003
vt 0.621003 0.750000
vt 0.378997 0.750000
vt 0.378997 0.750000
vt 0.621003 0.750000
vt 0.378997 0.003997
vt 0.621003 0.003997
vt 0.621003 0.246003
vt 0.378997 0.246003
vt 0.375000 0.496003
vt 0.375000 0.253997
vt 0.375000 0.253997
vt 0.375000 0.496003
vt 0.625000 0.503997
vt 0.625000 0.746003
vt 0.625000 0.746003
vt 0.625000 0.503997
vt 0.625000 0.003997
vt 0.625000 0.246003
vt 0.625000 0.246003
vt 0.625000 0.003997
vt 0.375000 0.003997
vt 0.375000 0.246003
vt 0.375000 0.246003
vt 0.375000 0.003997
vt 0.625000 0.246003
vt 0.625000 0.003997
vt 0.625000 0.003997
vt 0.625000 0.246003
vt 0.621003 0.000000
vt 0.378997 0.000000
vt 0.378997 0.000000
vt 0.621003 0.000000
vt 0.621003 0.500000
vt 0.622965 0.500000
vt 0.623370 0.500000
vt 0.621003 0.500000
vt 0.625000 0.500000
vt 0.625000 0.500000
vt 0.625000 0.496003
vt 0.625000 0.498370
vt 0.625000 0.497965
vt 0.625000 0.496003
vt 0.625000 0.498370
vt 0.625000 0.497965
vt 0.625000 0.500000
vt 0.625000 0.500000
vt 0.625000 0.503997
vt 0.625000 0.501630
vt 0.625000 0.502035
vt 0.625000 0.503997
vt 0.625000 0.501630
vt 0.625000 0.502035
vt 0.625000 0.500000
vt 0.625000 0.500000
vt 0.621003 0.500000
vt 0.623370 0.500000
vt 0.622965 0.500000
vt 0.375000 0.497965
vt 0.375000 0.498370
vt 0.375000 0.496003
vt 0.375000 0.500000
vt 0.375000 0.500000
vt 0.378997 0.500000
vt 0.378997 0.500000
vt 0.376630 0.500000
vt 0.377035 0.500000
vt 0.378997 0.500000
vt 0.376630 0.500000
vt 0.377035 0.500000
vt 0.375000 0.500000
vt 0.375000 0.500000
vt 0.375000 0.503997
vt 0.375000 0.501630
vt 0.375000 0.502035
vt 0.375000 0.503997
vt 0.375000 0.501630
vt 0.375000 0.502035
vt 0.375000 0.500000
vt 0.375000 0.500000
vt 0.375000 0.496003
vt 0.375000 0.498370
vt 0.375000 0.497965
vt 0.621003 0.750000
vt 0.623370 0.750000
vt 0.622965 0.750000
vt 0.621003 0.750000
vt 0.623370 0.750000
vt 0.622965 0.750000
vt 0.625000 0.750000
vt 0.625000 0.750000
vt 0.625000 0.746003
vt 0.625000 0.748370
vt 0.625000 0.747965
vt 0.625000 0.746003
vt 0.625000 0.748370
vt 0.625000 0.747965
vt 0.625000 0.750000
vt 0.625000 0.750000
vt 0.625000 0.753997
vt 0.625000 0.751630
vt 0.625000 0.752035
vt 0.625000 0.753997
vt 0.625000 0.751630
vt 0.625000 0.752035
vt 0.625000 0.750000
vt 0.625000 0.750000
vt 0.377035 0.750000
vt 0.376630 0.750000
vt 0.378997 0.750000
vt 0.375000 0.750000
vt 0.375000 0.750000
vt 0.375000 0.753997
vt 0.375000 0.751630
vt 0.375000 0.752035
vt 0.375000 0.753997
vt 0.375000 0.751630
vt 0.375000 0.752035
vt 0.375000 0.750000
vt 0.375000 0.750000
vt 0.375000 0.746003
vt 0.375000 0.748370
vt 0.375000 0.747965
vt 0.375000 0.746003
vt 0.375000 0.748370
vt 0.375000 0.747965
vt 0.375000 0.750000
vt 0.375000 0.750000
vt 0.378997 0.750000
vt 0.376630 0.750000
vt 0.377035 0.750000
vt 0.622965 0.250000
vt 0.623370 0.250000
vt 0.621003 0.250000
vt 0.625000 0.250000
vt 0.625000 0.250000
vt 0.625000 0.246003
vt 0.625000 0.248370
vt 0.625000 0.247965
vt 0.625000 0.246003
vt 0.625000 0.248370
vt 0.625000 0.247965
vt 0.625000 0.250000
vt 0.625000 0.250000
vt 0.625000 0.253997
vt 0.625000 0.251630
vt 0.625000 0.252035
vt 0.625000 0.253997
vt 0.625000 0.251630
vt 0.625000 0.252035
vt 0.625000 0.250000
vt 0.625000 0.250000
vt 0.621003 0.250000
vt 0.623370 0.250000
vt 0.622965 0.250000
vt 0.375000 0.247965
vt 0.375000 0.248370
vt 0.375000 0.246003
vt 0.375000 0.250000
vt 0.375000 0.250000
vt 0.378997 0.250000
vt 0.376630 0.250000
vt 0.377035 0.250000
vt 0.378997 0.250000
vt 0.376630 0.250000
vt 0.377035 0.250000
vt 0.375000 0.250000
vt 0.375000 0.250000
vt 0.375000 0.253997
vt 0.375000 0.251630
vt 0.375000 0.252035
vt 0.375000 0.253997
vt 0.375000 0.251630
vt 0.375000 0.252035
vt 0.375000 0.250000
vt 0.375000 0.250000
vt 0.375000 0.246003
vt 0.375000 0.248370
vt 0.375000 0.247965
vt 0.621003 0.000000
vt 0.623370 0.000000
vt 0.622965 0.000000
vt 0.621003 0.000000
vt 0.623370 0.000000
vt 0.622965 0.000000
vt 0.625000 0.000000
vt 0.625000 0.000000
vt 0.625000 0.996003
vt 0.625000 0.998370
vt 0.625000 0.997965
vt 0.625000 0.996003
vt 0.625000 0.998370
vt 0.625000 0.997965
vt 0.625000 0.000593
vt 0.625000 0.000000
vt 0.625000 0.000000
vt 0.625000 0.000000
vt 0.625000 0.003997
vt 0.625000 0.001630
vt 0.625000 0.002035
vt 0.625000 0.003997
vt 0.625000 0.001630
vt 0.625000 0.002035
vt 0.625000 0.000000
vt 0.625000 0.000000
vt 0.625000 0.000000
vt 0.375000 0.003997
vt 0.375000 0.001630
vt 0.375000 0.002035
vt 0.375000 0.003997
vt 0.375000 0.001630
vt 0.375000 0.002035
vt 0.375000 0.000000
vt 0.375000 0.000000
vt 0.375000 0.996003
vt 0.375000 0.998370
vt 0.375000 0.997965
vt 0.375000 0.996003
vt 0.375000 0.998370
vt 0.375000 0.997965
vt 0.375000 1.000000
vt 0.375000 1.000000
vt 0.378997 0.000000
vt 0.376630 0.000000
vt 0.377035 0.000000
vt 0.378997 0.000000
vt 0.376630 0.000000
vt 0.377035 0.000000
vt 0.375000 0.000000
vt 0.375000 0.000000
vt 0.375000 0.000000
vt 0.375000 0.000000
vt 0.375000 0.000000
vt 0.625000 0.752001
vt 0.625000 0.752086
vt 0.625000 0.753997
vt 0.625000 0.750000
vt 0.625000 0.750000
vt 0.625000 0.746003
vt 0.625000 0.747914
vt 0.625000 0.747999
vt 0.625000 0.746003
vt 0.625000 0.747914
vt 0.628997 0.746003
vt 0.628997 0.747999
vt 0.627086 0.747914
vt 0.627001 0.746003
vt 0.625000 0.753997
vt 0.625000 0.752086
vt 0.625000 0.996003
vt 0.625000 0.997914
vt 0.625000 0.997999
vt 0.625000 0.996003
vt 0.625000 0.997914
vt 0.871003 0.746003
vt 0.872999 0.746003
vt 0.872914 0.747914
vt 0.871003 0.747999
vt 0.625000 0.003997
vt 0.625000 0.003997
vt 0.625000 0.002086
vt 0.625000 0.002086
vt 0.625000 0.002001
vt 0.625000 0.000000
vt 0.625000 0.000000
vt 0.625000 1.000000
vt 0.625000 0.502001
vt 0.625000 0.502086
vt 0.625000 0.503997
vt 0.625000 0.500000
vt 0.625000 0.500000
vt 0.625000 0.496003
vt 0.625000 0.497914
vt 0.625000 0.497999
vt 0.625000 0.496003
vt 0.625000 0.497914
vt 0.628997 0.503997
vt 0.627001 0.503997
vt 0.627086 0.502086
vt 0.628997 0.502001
vt 0.625000 0.498947
vt 0.625000 0.246003
vt 0.625000 0.247914
vt 0.625000 0.247999
vt 0.625000 0.246003
vt 0.625000 0.247914
vt 0.871003 0.503997
vt 0.871003 0.502001
vt 0.872914 0.502086
vt 0.872999 0.503997
vt 0.625000 0.253997
vt 0.625000 0.253997
vt 0.625000 0.252086
vt 0.625000 0.252086
vt 0.625000 0.252001
vt 0.625000 0.250000
vt 0.625000 0.250000
vt 0.625000 0.250000
vt 0.375000 0.247999
vt 0.375000 0.247914
vt 0.375000 0.246003
vt 0.375000 0.250000
vt 0.375000 0.250000
vt 0.375000 0.253997
vt 0.375000 0.252086
vt 0.375000 0.252001
vt 0.128997 0.500534
vt 0.128997 0.500000
vt 0.127086 0.500000
vt 0.127086 0.501053
vt 0.127001 0.503997
vt 0.127086 0.502086
vt 0.128997 0.502001
vt 0.125000 0.503997
vt 0.125000 0.502086
vt 0.375000 0.247914
vt 0.375000 0.003997
vt 0.375000 0.002086
vt 0.375000 0.002001
vt 0.125534 0.746003
vt 0.125000 0.746003
vt 0.125000 0.747914
vt 0.126053 0.747914
vt 0.128997 0.747999
vt 0.127086 0.747914
vt 0.127001 0.746003
vt 0.128997 0.750000
vt 0.127086 0.750000
vt 0.375000 0.997999
vt 0.375000 0.997914
vt 0.375000 0.996003
vt 0.375000 0.000534
vt 0.375000 0.000000
vt 0.375000 0.000000
vt 0.375000 0.001053
vt 0.375000 0.497999
vt 0.375000 0.497914
vt 0.375000 0.496003
vt 0.375000 0.500000
vt 0.375000 0.500000
vt 0.375000 0.503997
vt 0.375000 0.502086
vt 0.375000 0.502001
vt 0.375000 0.503997
vt 0.375000 0.502086
vt 0.371003 0.502001
vt 0.372914 0.502086
vt 0.372999 0.503997
vt 0.371003 0.500000
vt 0.372914 0.500000
vt 0.375000 0.497914
vt 0.375000 0.753997
vt 0.375000 0.752086
vt 0.375000 0.752001
vt 0.371003 0.749466
vt 0.371003 0.750000
vt 0.372914 0.750000
vt 0.372914 0.748947
vt 0.372999 0.746003
vt 0.372914 0.747914
vt 0.371003 0.747999
vt 0.375000 0.746003
vt 0.375000 0.747914
vt 0.375000 0.747999
vt 0.375000 0.750000
vt 0.375000 0.750000
vt 0.622999 0.500000
vt 0.622914 0.500000
vt 0.621003 0.500000
vt 0.625000 0.500000
vt 0.625000 0.500000
vt 0.625000 0.503997
vt 0.625000 0.502086
vt 0.625000 0.502001
vt 0.625000 0.503997
vt 0.625000 0.502086
vt 0.621003 0.502001
vt 0.622914 0.502086
vt 0.622999 0.503997
vt 0.378997 0.500000
vt 0.377086 0.500000
vt 0.377001 0.500000
vt 0.378997 0.500000
vt 0.377086 0.500000
vt 0.377001 0.503997
vt 0.377086 0.502086
vt 0.378997 0.502001
vt 0.375000 0.503997
vt 0.375000 0.502086
vt 0.375000 0.502001
vt 0.375000 0.500000
vt 0.375000 0.500000
vt 0.621003 0.750000
vt 0.622914 0.750000
vt 0.622999 0.750000
vt 0.621003 0.750000
vt 0.622914 0.750000
vt 0.622999 0.746003
vt 0.622914 0.747914
vt 0.621003 0.747999
vt 0.625000 0.746003
vt 0.625000 0.747914
vt 0.625000 0.747999
vt 0.625000 0.750000
vt 0.625000 0.750000
vt 0.377001 0.750000
vt 0.377086 0.750000
vt 0.378997 0.750000
vt 0.375000 0.750000
vt 0.375000 0.750000
vt 0.375000 0.746003
vt 0.375000 0.747914
vt 0.375000 0.747999
vt 0.375000 0.746003
vt 0.375000 0.747914
vt 0.378997 0.747999
vt 0.377086 0.747914
vt 0.377001 0.746003
vt 0.377001 0.000000
vt 0.377086 0.000000
vt 0.378997 0.000000
vt 0.375000 0.999466
vt 0.375000 1.000000
vt 0.375000 1.000000
vt 0.375000 0.998947
vt 0.375000 0.996003
vt 0.375000 0.997914
vt 0.375000 0.997999
vt 0.375000 0.996003
vt 0.375000 0.997914
vt 0.378997 0.997999
vt 0.377086 0.997914
vt 0.377001 0.996003
vt 0.378997 0.000000
vt 0.377086 0.000000
vt 0.621003 0.000000
vt 0.622914 0.000000
vt 0.622999 0.000000
vt 0.621003 0.000000
vt 0.622914 0.000000
vt 0.622999 0.996003
vt 0.622914 0.997914
vt 0.621003 0.997999
vt 0.625000 0.996003
vt 0.625000 0.997914
vt 0.625000 0.997999
vt 0.624466 0.000000
vt 0.625000 0.000000
vt 0.625000 0.000000
vt 0.623947 0.000000
vt 0.625000 0.000000
vt 0.622999 0.750000
vt 0.622914 0.750000
vt 0.621003 0.750000
vt 0.625000 0.750000
vt 0.625000 0.750000
vt 0.625000 0.753997
vt 0.625000 0.752086
vt 0.625000 0.752001
vt 0.625000 0.753997
vt 0.625000 0.752086
vt 0.621003 0.752001
vt 0.622914 0.752086
vt 0.622999 0.753997
vt 0.378997 0.750000
vt 0.377086 0.750000
vt 0.377001 0.750000
vt 0.378997 0.750000
vt 0.377086 0.750000
vt 0.377001 0.753997
vt 0.377086 0.752086
vt 0.378997 0.752001
vt 0.375000 0.753997
vt 0.375000 0.752086
vt 0.375000 0.752001
vt 0.375000 0.750000
vt 0.375000 0.750000
vt 0.375000 0.496003
vt 0.375000 0.497914
vt 0.375000 0.497999
vt 0.375000 0.496003
vt 0.375000 0.497914
vt 0.378997 0.497999
vt 0.377086 0.497914
vt 0.377001 0.496003
vt 0.378997 0.500000
vt 0.377086 0.500000
vt 0.378997 0.500000
vt 0.377001 0.500000
vt 0.375000 0.500000
vt 0.375000 0.500000
vt 0.375000 0.252001
vt 0.375000 0.252086
vt 0.375000 0.253997
vt 0.375000 0.250000
vt 0.375000 0.250000
vt 0.378997 0.250000
vt 0.377086 0.250000
vt 0.377001 0.250000
vt 0.378997 0.250000
vt 0.377086 0.250000
vt 0.377001 0.253997
vt 0.377086 0.252086
vt 0.378997 0.252001
vt 0.621003 0.500000
vt 0.621003 0.500000
vt 0.622914 0.500000
vt 0.622999 0.500000
vt 0.621003 0.500000
vt 0.622914 0.500000
vt 0.622999 0.496003
vt 0.622914 0.497914
vt 0.621003 0.497999
vt 0.625000 0.496003
vt 0.625000 0.497914
vt 0.625000 0.497999
vt 0.625000 0.500000
vt 0.625000 0.500000
vt 0.622999 0.250000
vt 0.622914 0.250000
vt 0.621003 0.250000
vt 0.625000 0.250000
vt 0.625000 0.250000
vt 0.625000 0.253997
vt 0.625000 0.252086
vt 0.625000 0.252001
vt 0.625000 0.253997
vt 0.625000 0.252086
vt 0.621003 0.252001
vt 0.622914 0.252086
vt 0.622999 0.253997
vt 0.375000 0.246003
vt 0.375000 0.247914
vt 0.375000 0.247999
vt 0.375000 0.246003
vt 0.375000 0.247914
vt 0.378997 0.247999
vt 0.377086 0.247914
vt 0.377001 0.246003
vt 0.378997 0.250000
vt 0.377086 0.250000
vt 0.377001 0.250000
vt 0.375000 0.250000
vt 0.375000 0.250000
vt 0.375000 0.002001
vt 0.375000 0.002086
vt 0.375000 0.003997
vt 0.375000 0.000000
vt 0.375000 0.000000
vt 0.378997 0.000000
vt 0.377086 0.000000
vt 0.377001 0.000000
vt 0.378997 0.000000
vt 0.377086 0.000000
vt 0.377001 0.003997
vt 0.377086 0.002086
vt 0.378997 0.002001
vt 0.622999 0.000000
vt 0.622914 0.000000
vt 0.621003 0.000000
vt 0.625000 0.000000
vt 0.625000 0.000000
vt 0.625000 0.003997
vt 0.625000 0.002086
vt 0.625000 0.002001
vt 0.625000 0.003997
vt 0.625000 0.002086
vt 0.621003 0.002001
vt 0.622914 0.002086
vt 0.622999 0.003997
vt 0.621003 0.250000
vt 0.622914 0.250000
vt 0.622999 0.250000
vt 0.621003 0.250000
vt 0.622914 0.250000
vt 0.622999 0.246003
vt 0.622914 0.247914
vt 0.621003 0.247999
vt 0.625000 0.246003
vt 0.625000 0.247914
vt 0.625000 0.247999
vt 0.625000 0.250000
vt 0.625000 0.250000
vt 0.625000 0.000000
vt 0.125000 0.746003
vt 0.128997 0.500000
vt 0.371003 0.750000
vt 0.375000 0.000000
vt 0.375000 1.000000
vt 0.625000 0.000000
vn 1.0000 0.0000 0.0000
vn 0.0000 0.0000 1.0000
vn 0.0000 0.0000 -1.0000
vn 0.0000 1.0000 0.0000
vn 0.0000 -1.0000 0.0000
vn -1.0000 0.0000 0.0000
vn 0.9195 -0.2779 0.2779
vn 0.6776 -0.6776 0.2856
vn 0.2779 -0.9195 0.2779
vn 0.2856 -0.6777 0.6777
vn 0.2779 -0.2779 0.9195
vn 0.6776 -0.2856 0.6776
vn 0.6777 -0.6777 0.2856
vn 0.2856 -0.6776 0.6776
vn 0.6777 -0.2856 0.6777
vn 0.5773 -0.5774 0.5774
vn 0.2779 0.9195 0.2779
vn 0.6776 0.6776 0.2856
vn 0.9195 0.2779 0.2779
vn 0.6776 0.2860 0.6776
vn 0.2779 0.2779 0.9195
vn 0.2856 0.6776 0.6776
vn 0.6776 0.6776 0.2860
vn 0.6776 0.2856 0.6776
vn 0.2860 0.6776 0.6776
vn 0.5773 0.5774 0.5774
vn 0.9195 -0.2779 -0.2779
vn 0.6776 -0.2860 -0.6776
vn 0.2779 -0.2779 -0.9195
vn 0.2856 -0.6776 -0.6776
vn 0.2779 -0.9195 -0.2779
vn 0.6776 -0.6776 -0.2860
vn 0.6776 -0.2856 -0.6776
vn 0.2860 -0.6776 -0.6776
vn 0.6776 -0.6776 -0.2856
vn 0.5774 -0.5773 -0.5774
vn 0.9195 0.2779 -0.2779
vn 0.6776 0.6776 -0.2856
vn 0.2779 0.9195 -0.2779
vn 0.2856 0.6777 -0.6777
vn 0.2779 0.2779 -0.9195
vn 0.6776 0.2856 -0.6776
vn 0.6777 0.6777 -0.2856
vn 0.2856 0.6776 -0.6776
vn 0.6777 0.2856 -0.6777
vn 0.5773 0.5774 -0.5774
vn -0.2779 -0.2779 0.9195
vn -0.2856 -0.6776 0.6776
vn -0.2779 -0.9195 0.2779
vn -0.6776 -0.6776 0.2860
vn -0.9195 -0.2779 0.2779
vn -0.6776 -0.2856 0.6776
vn -0.2860 -0.6776 0.6776
vn -0.6776 -0.6776 0.2856
vn -0.6776 -0.2860 0.6776
vn -0.5774 -0.5773 0.5774
vn -0.2779 0.9195 0.2779
vn -0.2856 0.6776 0.6776
vn -0.2779 0.2779 0.9195
vn -0.6777 0.2856 0.6777
vn -0.9195 0.2779 0.2779
vn -0.6776 0.6776 0.2856
vn -0.2856 0.6777 0.6777
vn -0.6776 0.2856 0.6776
vn -0.6777 0.6777 0.2856
vn -0.5774 0.5773 0.5774
vn -0.2779 -0.2779 -0.9195
vn -0.6777 -0.2856 -0.6777
vn -0.9195 -0.2779 -0.2779
vn -0.6776 -0.6776 -0.2856
vn -0.2779 -0.9195 -0.2779
vn -0.2856 -0.6777 -0.6777
vn -0.6776 -0.2856 -0.6776
vn -0.6777 -0.6777 -0.2856
vn -0.2856 -0.6776 -0.6776
vn -0.5774 -0.5773 -0.5774
vn -0.2779 0.9195 -0.2779
vn -0.6776 0.6776 -0.2860
vn -0.9195 0.2779 -0.2779
vn -0.6776 0.2856 -0.6776
vn -0.2779 0.2779 -0.9195
vn -0.2860 0.6776 -0.6776
vn -0.6776 0.6776 -0.2856
vn -0.6776 0.2860 -0.6776
vn -0.2856 0.6776 -0.6776
vn -0.5774 0.5774 -0.5773
vn 0.2566 -0.2566 -0.9318
vn 0.6901 -0.2177 -0.6901
vn 0.9318 -0.2566 -0.2566
vn 0.6901 -0.6901 -0.2177
vn 0.2566 -0.9318 -0.2566
vn 0.2177 -0.6901 -0.6901
vn 0.5773 -0.5773 -0.5774
vn -0.2566 -0.2566 -0.9318
vn -0.2177 -0.6901 -0.6901
vn -0.2566 -0.9318 -0.2566
vn -0.6901 -0.6901 -0.2177
vn -0.9318 -0.2566 -0.2566
vn -0.6901 -0.2177 -0.6901
vn -0.5773 -0.5773 -0.5774
vn 0.9318 -0.2566 0.2566
vn 0.6901 -0.2177 0.6901
vn 0.2566 -0.2566 0.9318
vn 0.2177 -0.6901 0.6901
vn 0.2566 -0.9318 0.2566
vn 0.6901 -0.6901 0.2177
vn 0.5773 -0.5773 0.5774
vn -0.9318 -0.2566 0.2566
vn -0.6901 -0.6901 0.2177
vn -0.2566 -0.9318 0.2566
vn -0.2177 -0.6901 0.6901
vn -0.2566 -0.2566 0.9318
vn -0.6901 -0.2177 0.6901
vn -0.5773 -0.5773 0.5774
vn -0.9318 0.2566 0.2566
vn -0.6901 0.2177 0.6901
vn -0.2566 0.2566 0.9318
vn -0.2177 0.6901 0.6901
vn -0.2566 0.9318 0.2566
vn -0.6901 0.6901 0.2177
vn -0.5773 0.5773 0.5774
vn -0.9318 0.2566 -0.2566
vn -0.6901 0.6901 -0.2177
vn -0.2566 0.9318 -0.2566
vn -0.2177 0.6901 -0.6901
vn -0.2566 0.2566 -0.9318
vn -0.6901 0.2177 -0.6901
vn -0.5773 0.5773 -0.5774
vn 0.2566 0.2566 0.9318
vn 0.6901 0.2177 0.6901
vn 0.9318 0.2566 0.2566
vn 0.6901 0.6901 0.2177
vn 0.2566 0.9318 0.2566
vn 0.2177 0.6901 0.6901
vn 0.5773 0.5773 0.5774
vn 0.2566 0.2566 -0.9318
vn 0.2177 0.6901 -0.6901
vn 0.2566 0.9318 -0.2566
vn 0.6901 0.6901 -0.2177
vn 0.9318 0.2566 -0.2566
vn 0.6901 0.2177 -0.6901
vn 0.5773 0.5773 -0.5774
vn 0.5773 -0.5774 0.5773
vn 0.5773 0.5774 0.5773
vn 0.5773 -0.5774 -0.5773
vn 0.5773 0.5774 -0.5773
vn -0.5774 -0.5774 -0.5773
vn 0.5774 -0.5774 -0.5773
vn 0.5774 0.5774 -0.5773
vn 0.5774 0.5774 0.5773
vn -0.5774 0.5774 0.5773
vn 0.5774 -0.5774 0.5773
vn -0.5774 -0.5774 0.5773
vn -0.5773 0.5774 0.5773
vn -0.5773 0.5774 -0.5773
vn -0.5773 -0.5774 -0.5773
vn -0.5773 -0.5774 0.5773
vn -0.9573 0.2891 0.0000
vn -0.7071 0.7071 0.0000
vn -0.2891 0.9573 0.0000
vn 0.0000 0.2891 0.9573
vn 0.0000 0.7071 0.7071
vn 0.0000 0.9573 0.2891
vn 0.2891 0.0000 0.9573
vn 0.7071 0.0000 0.7071
vn 0.9573 0.0000 0.2891
vn -0.9573 0.0000 -0.2891
vn -0.7071 0.0000 -0.7071
vn -0.2891 0.0000 -0.9573
vn 0.9573 0.0000 -0.2891
vn 0.7071 0.0000 -0.7071
vn 0.2891 0.0000 -0.9573
vn -0.9573 0.0000 0.2891
vn -0.7071 0.0000 0.7071
vn -0.2891 0.0000 0.9573
vn 0.0000 -0.2891 -0.9573
vn 0.0000 -0.7071 -0.7071
vn 0.0000 -0.9573 -0.2891
vn 0.9573 -0.2891 0.0000
vn 0.7071 -0.7071 0.0000
vn 0.2891 -0.9573 0.0000
vn 0.0000 0.2891 -0.9573
vn 0.0000 0.7071 -0.7071
vn 0.0000 0.9573 -0.2891
vn -0.9573 -0.2891 0.0000
vn -0.7071 -0.7071 0.0000
vn -0.2891 -0.9573 0.0000
vn 0.0000 -0.2891 0.9573
vn 0.0000 -0.7071 0.7071
vn 0.0000 -0.9573 0.2891
vn 0.9573 0.2891 0.0000
vn 0.7071 0.7071 0.0000
vn 0.2891 0.9573 0.0000
vn 0.0000 -0.9660 -0.2586
vn 0.0000 -0.2586 -0.9660
vn 0.2586 -0.9660 0.0000
vn 0.9660 -0.2586 0.0000
vn -0.2586 -0.9660 0.0000
vn -0.9660 -0.2586 0.0000
vn 0.0000 -0.9660 0.2586
vn 0.0000 -0.2586 0.9660
vn -0.9617 0.0001 0.2740
vn -0.7071 0.0003 0.7071
vn -0.2740 0.0001 0.9617
vn 0.9617 0.0001 0.2740
vn 0.7071 0.0003 0.7071
vn 0.2740 0.0001 0.9617
vn 0.9617 0.0001 -0.2740
vn 0.7071 0.0003 -0.7071
vn 0.2740 0.0001 -0.9617
vn -0.9617 0.0001 -0.2740
vn -0.7071 0.0003 -0.7071
vn -0.2740 0.0001 -0.9617
vn -0.2586 0.9660 0.0000
vn -0.9660 0.2586 0.0000
vn 0.0000 0.9660 0.2586
vn 0.0000 0.2586 0.9660
vn 0.0000 0.9660 -0.2586
vn 0.0000 0.2586 -0.9660
vn 0.2586 0.9660 0.0000
vn 0.9660 0.2586 0.0000
vn 0.9617 -0.0001 0.2740
vn 0.7071 -0.0003 0.7071
vn 0.2740 -0.0001 0.9617
vn -0.9617 -0.0001 0.2740
vn -0.7071 -0.0003 0.7071
vn -0.2740 -0.0001 0.9617
vn -0.9617 -0.0001 -0.2740
vn -0.7071 -0.0003 -0.7071
vn -0.2740 -0.0001 -0.9617
vn 0.9617 -0.0001 -0.2740
vn 0.7071 -0.0003 -0.7071
vn 0.2740 -0.0001 -0.9617
vn 0.9660 0.0000 0.2586
vn 0.2586 0.0000 0.9660
vn 0.2586 0.0000 -0.9660
vn 0.9660 0.0000 -0.2586
vn -0.0001 0.9617 -0.2740
vn -0.0003 0.7071 -0.7071
vn -0.0001 0.2740 -0.9617
vn -0.0001 -0.9617 -0.2740
vn -0.0003 -0.7071 -0.7071
vn -0.0001 -0.2740 -0.9617
vn -0.0001 -0.9617 0.2740
vn -0.0003 -0.7071 0.7071
vn -0.0001 -0.2740 0.9617
vn -0.0001 0.9617 0.2740
vn -0.0003 0.7071 0.7071
vn -0.0001 0.2740 0.9617
vn -0.2586 0.0000 -0.9660
vn -0.9660 0.0000 -0.2586
vn 0.9617 0.2740 0.0001
vn 0.7071 0.7071 0.0003
vn 0.2740 0.9617 0.0001
vn -0.9617 0.2740 0.0001
vn -0.7071 0.7071 0.0003
vn -0.2740 0.9617 0.0001
vn -0.9617 -0.2740 0.0001
vn -0.7071 -0.7071 0.0003
vn -0.2740 -0.9617 0.0001
vn 0.9617 -0.2740 0.0001
vn 0.7071 -0.7071 0.0003
vn 0.2740 -0.9617 0.0001
vn -0.2586 0.0000 0.9660
vn -0.9660 0.0000 0.2586
vn -0.9617 0.2740 -0.0001
vn -0.7071 0.7071 -0.0003
vn -0.2740 0.9617 -0.0001
vn 0.9617 0.2740 -0.0001
vn 0.7071 0.7071 -0.0003
vn 0.2740 0.9617 -0.0001
vn 0.9617 -0.2740 -0.0001
vn 0.7071 -0.7071 -0.0003
vn 0.2740 -0.9617 -0.0001
vn -0.9617 -0.2740 -0.0001
vn -0.7071 -0.7071 -0.0003
vn -0.2740 -0.9617 -0.0001
vn 0.0001 0.2740 -0.9617
vn 0.0003 0.7071 -0.7071
vn 0.0001 0.9617 -0.2740
vn 0.0001 0.2740 0.9617
vn 0.0003 0.7071 0.7071
vn 0.0001 0.9617 0.2740
vn 0.0001 -0.2740 0.9617
vn 0.0003 -0.7071 0.7071
vn 0.0001 -0.9617 0.2740
vn 0.0001 -0.2740 -0.9617
vn 0.0003 -0.7071 -0.7071
vn 0.0001 -0.9617 -0.2740
usemtl Testplusblue
s 1
f 1/1/1 2/2/1 3/3/1 4/4/1
f 5/5/2 6/6/2 7/7/2 8/8/2
f 9/9/3 10/10/3 11/11/3 12/12/3
f 13/13/4 14/14/4 15/15/4 16/16/4
f 17/17/5 18/18/5 19/19/5 20/20/5
f 21/21/1 22/22/1 23/23/1 24/24/1
f 25/25/4 26/26/4 27/27/4 28/28/4
f 29/29/3 30/30/3 31/31/3 32/32/3
f 33/33/6 34/34/6 35/35/6 36/36/6
f 37/37/2 38/38/2 39/39/2 40/40/2
f 41/41/1 42/42/1 43/43/1 44/44/1
f 45/45/4 46/46/4 47/47/4 48/48/4
f 49/49/4 50/50/4 51/51/4 52/52/4
f 53/53/2 54/54/2 55/55/2 56/56/2
f 57/57/3 58/58/3 59/59/3 60/60/3
f 61/61/5 62/62/5 63/63/5 64/64/5
f 65/65/1 66/66/1 67/67/1 68/68/1
f 69/69/2 70/70/2 71/71/2 72/72/2
f 73/73/2 74/74/2 75/75/2 76/76/2
f 77/77/3 78/78/3 79/79/3 80/80/3
f 81/81/3 82/82/3 83/83/3 84/84/3
f 89/85/6 90/86/6 91/87/6 92/88/6
f 93/89/4 94/90/4 95/91/4 96/92/4
f 97/93/5 98/94/5 99/95/5 100/96/5
f 101/97/5 102/98/5 103/99/5 104/100/5
f 105/101/6 106/102/6 107/103/6 108/104/6
f 109/105/6 110/106/6 111/107/6 112/108/6
f 113/109/6 114/110/6 115/111/6 116/112/6
f 117/113/7 118/114/7 119/115/7 120/116/7
f 118/114/8 121/117/8 122/118/8 119/115/8
f 62/62/9 123/119/9 122/120/9 121/121/9
f 123/119/10 124/122/10 125/123/10 122/120/10
f 69/69/11 126/124/11 125/123/11 124/122/11
f 126/124/12 127/125/12 128/126/12 125/123/12
f 2/2/7 129/127/7 128/128/7 127/129/7
f 129/127/13 130/130/13 131/131/13 128/128/13
f 97/93/9 132/132/9 131/131/9 130/130/9
f 132/132/14 133/133/14 134/134/14 131/131/14
f 38/38/11 135/135/11 134/136/11 133/137/11
f 135/135/15 120/116/15 119/115/15 134/136/15
f 119/115/16 122/120/16 125/123/16 128/128/16 131/131/16 134/136/16
f 93/89/17 136/138/17 137/139/17 138/140/17
f 136/138/18 139/141/18 140/142/18 137/139/18
f 141/143/19 142/144/19 140/145/19 139/146/19
f 142/144/20 143/147/20 144/148/20 140/145/20
f 37/37/21 145/149/21 144/148/21 143/147/21
f 145/149/22 146/150/22 147/151/22 144/148/22
f 14/14/17 148/152/17 147/153/17 146/154/17
f 148/152/23 149/155/23 150/156/23 147/153/23
f 21/21/19 151/157/19 150/156/19 149/155/19
f 151/157/24 152/158/24 153/159/24 150/156/24
f 54/54/21 154/160/21 153/161/21 152/162/21
f 154/160/25 138/140/25 137/139/25 153/161/25
f 137/139/26 140/145/26 144/148/26 147/153/26 150/156/26 153/161/26
f 66/66/27 155/163/27 156/164/27 157/165/27
f 155/163/28 158/166/28 159/167/28 156/164/28
f 81/81/29 160/168/29 159/167/29 158/166/29
f 160/168/30 161/169/30 162/170/30 159/167/30
f 98/94/31 163/171/31 162/172/31 161/173/31
f 163/171/32 164/174/32 165/175/32 162/172/32
f 1/1/27 166/176/27 165/175/27 164/174/27
f 166/176/33 167/177/33 168/178/33 165/175/33
f 78/78/29 169/179/29 168/180/29 167/181/29
f 169/179/34 170/182/34 171/183/34 168/180/34
f 17/17/31 172/184/31 171/183/31 170/182/31
f 172/184/35 157/185/35 156/186/35 171/183/35
f 156/164/36 159/167/36 162/172/36 165/175/36 168/180/36 171/183/36
f 65/65/37 173/187/37 174/188/37 175/189/37
f 173/187/38 176/190/38 177/191/38 174/188/38
f 46/46/39 178/192/39 177/193/39 176/194/39
f 178/192/40 179/195/40 180/196/40 177/193/40
f 29/29/41 181/197/41 180/196/41 179/195/41
f 181/197/42 182/198/42 183/199/42 180/196/42
f 22/22/37 184/200/37 183/201/37 182/202/37
f 184/200/43 185/203/43 186/204/43 183/201/43
f 13/13/39 187/205/39 186/204/39 185/203/39
f 187/205/44 188/206/44 189/207/44 186/204/44
f 82/82/41 190/208/41 189/209/41 188/210/41
f 190/208/45 175/189/45 174/188/45 189/209/45
f 174/188/46 177/193/46 180/196/46 183/201/46 186/204/46 189/209/46
f 5/5/47 191/211/47 192/212/47 193/213/47
f 191/211/48 194/214/48 195/215/48 192/212/48
f 102/98/49 196/216/49 195/217/49 194/218/49
f 196/216/50 197/219/50 198/220/50 195/217/50
f 109/105/51 199/221/51 198/220/51 197/219/51
f 199/221/52 200/222/52 201/223/52 198/220/52
f 70/70/47 202/224/47 201/225/47 200/226/47
f 202/224/53 203/227/53 204/228/53 201/225/53
f 61/61/49 205/229/49 204/228/49 203/227/49
f 205/229/54 206/230/54 207/231/54 204/228/54
f 34/34/51 208/232/51 207/233/51 206/234/51
f 208/232/55 193/213/55 192/212/55 207/233/55
f 192/212/56 195/217/56 198/220/56 201/225/56 204/228/56 207/233/56
f 49/49/57 209/235/57 210/236/57 211/237/57
f 209/235/58 212/238/58 213/239/58 210/236/58
f 6/6/59 214/240/59 213/241/59 212/242/59
f 214/240/60 215/243/60 216/244/60 213/241/60
f 33/33/61 217/245/61 216/244/61 215/243/61
f 217/245/62 218/246/62 219/247/62 216/244/62
f 94/90/57 220/248/57 219/249/57 218/250/57
f 220/248/63 221/251/63 222/252/63 219/249/63
f 53/53/59 223/253/59 222/252/59 221/251/59
f 223/253/64 224/254/64 225/255/64 222/252/64
f 106/102/61 226/256/61 225/257/61 224/258/61
f 226/256/65 211/237/65 210/236/65 225/257/65
f 210/236/66 213/241/66 216/244/66 219/249/66 222/252/66 225/257/66
f 10/10/67 227/259/67 228/260/67 229/261/67
f 227/259/68 230/262/68 231/263/68 228/260/68
f 113/109/69 232/264/69 231/263/69 230/262/69
f 232/264/70 233/265/70 234/266/70 231/263/70
f 18/18/71 235/267/71 234/268/71 233/269/71
f 235/267/72 236/270/72 237/271/72 234/268/72
f 77/77/67 238/272/67 237/271/67 236/270/67
f 238/273/73 239/274/73 240/275/73 237/276/73
f 110/106/69 241/277/69 240/278/69 239/279/69
f 241/277/74 242/280/74 243/281/74 240/278/74
f 101/97/71 244/282/71 243/281/71 242/280/71
f 244/282/75 229/283/75 228/284/75 243/281/75
f 228/260/76 231/263/76 234/266/76 237/276/76 240/275/76 243/285/76
f 50/50/77 245/286/77 246/287/77 247/288/77
f 245/286/78 248/289/78 249/290/78 246/287/78
f 105/101/79 250/291/79 249/290/79 248/289/79
f 250/291/80 251/292/80 252/293/80 249/290/80
f 30/30/81 253/294/81 252/295/81 251/296/81
f 253/294/82 254/297/82 255/298/82 252/295/82
f 45/45/77 256/299/77 255/298/77 254/297/77
f 256/299/83 257/300/83 258/301/83 255/298/83
f 114/110/79 259/302/79 258/303/79 257/304/79
f 259/302/84 260/305/84 261/306/84 258/303/84
f 9/9/81 262/307/81 261/306/81 260/305/81
f 262/307/85 247/308/85 246/309/85 261/306/85
f 246/287/86 249/290/86 252/293/86 255/310/86 258/311/86 261/312/86
f 79/79/87 263/313/87 264/314/87 265/315/87
f 263/313/88 266/316/88 267/317/88 264/314/88
f 4/4/89 268/318/89 267/319/89 266/320/89
f 268/318/90 269/321/90 270/322/90 267/319/90
f 88/323/91 271/324/91 270/325/91 269/326/91
f 271/327/92 265/315/92 264/314/92 270/328/92
f 264/314/93 267/317/93 270/328/93
f 80/80/94 272/329/94 273/330/94 274/331/94
f 272/329/95 275/332/95 276/333/95 273/330/95
f 87/334/96 277/335/96 276/336/96 275/337/96
f 277/338/97 278/339/97 279/340/97 276/341/97
f 111/107/98 280/342/98 279/340/98 278/339/98
f 280/342/99 274/343/99 273/344/99 279/340/99
f 273/330/100 276/333/100 279/345/100
f 3/3/101 281/346/101 282/347/101 283/348/101
f 281/346/102 284/349/102 285/350/102 282/347/102
f 72/72/103 286/351/103 285/352/103 284/353/103
f 286/351/104 287/354/104 288/355/104 285/352/104
f 85/356/105 289/357/105 288/358/105 287/359/105
f 289/357/106 283/348/106 282/347/106 288/358/106
f 282/360/107 285/352/107 288/355/107
f 112/108/108 290/361/108 291/362/108 292/363/108
f 290/361/109 293/364/109 294/365/109 291/362/109
f 86/366/110 295/367/110 294/368/110 293/369/110
f 295/370/111 296/371/111 297/372/111 294/373/111
f 71/71/112 298/374/112 297/372/112 296/371/112
f 298/374/113 292/375/113 291/376/113 297/372/113
f 291/362/114 294/365/114 297/377/114
f 107/103/115 299/378/115 300/379/115 301/380/115
f 299/378/116 302/381/116 303/382/116 300/379/116
f 56/56/117 304/383/117 303/384/117 302/385/117
f 304/386/118 305/387/118 306/388/118 303/389/118
f 25/25/119 307/390/119 306/391/119 305/392/119
f 307/390/120 301/393/120 300/394/120 306/391/120
f 300/379/121 303/382/121 306/395/121
f 108/104/122 308/396/122 309/397/122 310/398/122
f 308/399/123 311/400/123 312/401/123 309/402/123
f 28/28/124 313/403/124 312/404/124 311/405/124
f 313/403/125 314/406/125 315/407/125 312/404/125
f 31/31/126 316/408/126 315/409/126 314/410/126
f 316/411/127 310/412/127 309/413/127 315/414/127
f 309/402/128 312/401/128 315/407/128
f 55/55/129 317/415/129 318/416/129 319/417/129
f 317/415/130 320/418/130 321/419/130 318/416/130
f 24/24/131 322/420/131 321/421/131 320/422/131
f 322/420/132 323/423/132 324/424/132 321/421/132
f 26/26/133 325/425/133 324/426/133 323/427/133
f 325/425/134 319/428/134 318/429/134 324/426/134
f 318/416/135 321/419/135 324/430/135
f 32/32/136 326/431/136 327/432/136 328/433/136
f 326/434/137 329/435/137 330/436/137 327/437/137
f 27/27/138 331/438/138 330/439/138 329/440/138
f 331/438/139 332/441/139 333/442/139 330/439/139
f 23/23/140 334/443/140 333/442/140 332/441/140
f 334/443/141 328/444/141 327/445/141 333/442/141
f 327/437/142 330/436/142 333/442/142
f 39/39/103 335/446/103 336/447/103 337/448/103
f 335/446/104 338/449/104 339/450/104 336/447/104
f 100/96/105 340/451/105 339/452/105 338/453/105
f 340/451/106 341/454/106 342/455/106 339/452/106
f 42/42/101 343/456/101 342/457/101 341/458/101
f 343/456/102 337/448/102 336/447/102 342/457/102
f 336/447/143 339/452/143 342/457/143
f 40/40/129 344/459/129 345/460/129 346/461/129
f 344/459/130 347/462/130 348/463/130 345/460/130
f 41/41/131 349/464/131 348/465/131 347/466/131
f 349/464/132 350/467/132 351/468/132 348/465/132
f 15/15/133 352/469/133 351/468/133 350/467/133
f 352/469/134 346/470/134 345/471/134 351/468/134
f 345/460/144 348/465/144 351/468/144
f 84/84/87 353/472/87 354/473/87 355/474/87
f 353/472/88 356/475/88 357/476/88 354/473/88
f 43/43/89 358/477/89 357/478/89 356/479/89
f 358/477/90 359/480/90 360/481/90 357/478/90
f 99/95/91 361/482/91 360/481/91 359/480/91
f 361/482/92 355/483/92 354/484/92 360/481/92
f 354/473/145 357/478/145 360/481/145
f 83/83/136 362/485/136 363/486/136 364/487/136
f 362/485/137 365/488/137 366/489/137 363/486/137
f 16/16/138 367/490/138 366/491/138 365/492/138
f 367/490/139 368/493/139 369/494/139 366/491/139
f 44/44/140 370/495/140 369/496/140 368/497/140
f 370/495/141 364/487/141 363/486/141 369/496/141
f 363/486/146 366/491/146 369/496/146
f 115/111/122 371/498/122 372/499/122 373/500/122
f 371/501/123 374/502/123 375/503/123 372/504/123
f 48/48/124 376/505/124 375/506/124 374/507/124
f 376/505/125 377/508/125 378/509/125 375/506/125
f 60/60/126 379/510/126 378/511/126 377/512/126
f 379/513/127 373/500/127 372/499/127 378/514/127
f 372/504/86 375/506/86 378/509/86
f 116/112/98 380/515/98 381/516/98 382/517/98
f 380/515/99 383/518/99 384/519/99 381/516/99
f 59/59/94 385/520/94 384/521/94 383/522/94
f 385/520/95 386/523/95 387/524/95 384/521/95
f 19/19/96 388/525/96 387/524/96 386/523/96
f 388/526/97 382/527/97 381/528/97 387/529/97
f 381/516/147 384/519/147 387/530/147
f 67/67/89 389/531/89 390/532/89 391/533/89
f 389/531/90 392/534/90 393/535/90 390/532/90
f 20/20/91 394/536/91 393/537/91 392/538/91
f 394/536/92 395/539/92 396/540/92 393/537/92
f 58/58/87 397/541/87 396/542/87 395/543/87
f 397/541/88 391/533/88 390/532/88 396/542/88
f 390/532/148 393/537/148 396/542/148
f 68/68/140 398/544/140 399/545/140 400/546/140
f 398/544/141 401/547/141 402/548/141 399/545/141
f 57/57/136 403/549/136 402/550/136 401/551/136
f 403/549/137 404/552/137 405/553/137 402/550/137
f 47/47/138 406/554/138 405/553/138 404/552/138
f 406/554/139 400/555/139 399/556/139 405/553/139
f 399/545/149 402/550/149 405/553/149
f 96/92/133 407/557/133 408/558/133 409/559/133
f 407/557/134 410/560/134 411/561/134 408/558/134
f 76/76/129 412/562/129 411/563/129 410/564/129
f 412/562/130 413/565/130 414/566/130 411/563/130
f 415/567/131 416/568/131 414/566/131 413/565/131
f 416/568/132 409/569/132 408/570/132 414/566/132
f 408/558/150 411/563/150 414/566/150
f 95/91/119 417/571/119 418/572/119 419/573/119
f 417/571/120 420/574/120 421/575/120 418/572/120
f 36/36/115 422/576/115 421/577/115 420/578/115
f 422/576/116 423/579/116 424/580/116 421/577/116
f 73/73/117 425/581/117 424/582/117 423/583/117
f 425/581/118 419/573/118 418/572/118 424/582/118
f 418/572/151 421/577/151 424/582/151
f 426/584/101 427/585/101 428/586/101 429/587/101
f 427/585/102 430/588/102 431/589/102 428/586/102
f 75/75/103 432/590/103 431/591/103 430/592/103
f 432/590/104 433/593/104 434/594/104 431/591/104
f 63/63/105 435/595/105 434/594/105 433/593/105
f 435/595/106 429/596/106 428/597/106 434/594/106
f 428/586/152 431/591/152 434/594/152
f 35/35/108 436/598/108 437/599/108 438/600/108
f 436/598/109 439/601/109 440/602/109 437/599/109
f 64/64/110 441/603/110 440/604/110 439/605/110
f 441/603/111 442/606/111 443/607/111 440/604/111
f 74/74/112 444/608/112 443/609/112 442/610/112
f 444/608/113 438/600/113 437/599/113 443/609/113
f 437/599/153 440/604/153 443/609/153
f 52/52/119 445/611/119 446/612/119 447/613/119
f 445/611/120 448/614/120 449/615/120 446/612/120
f 92/88/115 450/616/115 449/617/115 448/618/115
f 450/616/116 451/619/116 452/620/116 449/617/116
f 7/7/117 453/621/117 452/620/117 451/619/117
f 453/621/118 447/622/118 446/623/118 452/620/118
f 446/612/154 449/617/154 452/620/154
f 51/51/124 454/624/124 455/625/124 456/626/124
f 454/624/125 457/627/125 458/628/125 455/625/125
f 12/12/126 459/629/126 458/630/126 457/631/126
f 459/629/127 460/632/127 461/633/127 458/630/127
f 89/85/122 462/634/122 461/635/122 460/636/122
f 462/634/123 456/626/123 455/625/123 461/635/123
f 455/625/155 458/630/155 461/635/155
f 11/11/94 463/637/94 464/638/94 465/639/94
f 463/637/95 466/640/95 467/641/95 464/638/95
f 104/100/96 468/642/96 467/643/96 466/644/96
f 468/642/97 469/645/97 470/646/97 467/643/97
f 90/86/98 471/647/98 470/648/98 469/649/98
f 471/647/99 465/639/99 464/638/99 470/648/99
f 464/638/156 467/643/156 470/648/156
f 8/8/112 472/650/112 473/651/112 474/652/112
f 472/650/113 475/653/113 476/654/113 473/651/113
f 91/87/108 477/655/108 476/656/108 475/657/108
f 477/655/109 478/658/109 479/659/109 476/656/109
f 103/99/110 480/660/110 479/659/110 478/658/110
f 480/660/111 474/661/111 473/662/111 479/659/111
f 473/651/157 476/656/157 479/659/157
f 106/102/158 105/101/158 248/289/158 226/256/158
f 226/256/159 248/289/159 245/286/159 211/237/159
f 211/237/160 245/286/160 50/50/160 49/49/160
f 54/54/161 53/53/161 221/251/161 154/160/161
f 154/160/162 221/251/162 220/248/162 138/140/162
f 138/140/163 220/248/163 94/90/163 93/89/163
f 38/38/164 37/37/164 143/147/164 135/135/164
f 135/135/165 143/147/165 142/144/165 120/116/165
f 120/116/166 142/144/166 141/143/166 117/113/166
f 114/110/167 113/109/167 230/262/167 259/302/167
f 259/302/168 230/262/168 227/259/168 260/305/168
f 260/305/169 227/259/169 10/10/169 9/9/169
f 66/66/170 65/65/170 175/189/170 155/163/170
f 155/163/171 175/189/171 190/208/171 158/166/171
f 158/166/172 190/208/172 82/82/172 81/81/172
f 34/34/173 33/33/173 215/243/173 208/232/173
f 208/232/174 215/243/174 214/240/174 193/213/174
f 193/213/175 214/240/175 6/6/175 5/5/175
f 78/78/176 77/77/176 236/270/176 169/179/176
f 169/179/177 236/270/177 235/267/177 170/182/177
f 170/182/178 235/267/178 18/18/178 17/17/178
f 2/2/179 1/1/179 164/174/179 129/127/179
f 129/127/180 164/174/180 163/171/180 130/130/180
f 130/130/181 163/171/181 98/94/181 97/93/181
f 30/30/182 29/29/182 179/195/182 253/294/182
f 253/294/183 179/195/183 178/192/183 254/297/183
f 254/297/184 178/192/184 46/46/184 45/45/184
f 110/106/185 109/105/185 197/219/185 241/277/185
f 241/277/186 197/219/186 196/216/186 242/280/186
f 242/280/187 196/216/187 102/98/187 101/97/187
f 70/70/188 69/69/188 124/122/188 202/224/188
f 202/224/189 124/122/189 123/119/189 203/227/189
f 203/227/190 123/119/190 62/62/190 61/61/190
f 22/22/191 21/21/191 149/155/191 184/200/191
f 184/200/192 149/155/192 148/152/192 185/203/192
f 185/203/193 148/152/193 14/14/193 13/13/193
f 88/323/194 87/334/194 275/337/194 271/324/194
f 271/327/177 275/332/177 272/329/177 265/315/177
f 265/315/195 272/329/195 80/80/195 79/79/195
f 85/356/196 88/323/196 269/326/196 289/357/196
f 289/357/180 269/326/180 268/318/180 283/348/180
f 283/348/197 268/318/197 4/4/197 3/3/197
f 87/334/198 86/366/198 293/369/198 277/335/198
f 277/338/186 293/364/186 290/361/186 278/339/186
f 278/339/199 290/361/199 112/108/199 111/107/199
f 86/366/200 85/356/200 287/359/200 295/367/200
f 295/370/189 287/354/189 286/351/189 296/371/189
f 296/371/201 286/351/201 72/72/201 71/71/201
f 109/105/202 112/108/202 292/363/202 199/221/202
f 199/221/203 292/363/203 298/374/203 200/226/203
f 200/226/204 298/374/204 71/71/204 70/70/204
f 3/3/205 2/2/205 127/129/205 281/346/205
f 281/346/206 127/129/206 126/124/206 284/353/206
f 284/353/207 126/124/207 69/69/207 72/72/207
f 1/1/208 4/4/208 266/320/208 166/176/208
f 166/176/209 266/320/209 263/313/209 167/181/209
f 167/181/210 263/313/210 79/79/210 78/78/210
f 111/107/211 110/106/211 239/279/211 280/342/211
f 280/342/212 239/279/212 238/663/212 274/343/212
f 274/331/213 238/272/213 77/77/213 80/80/213
f 25/25/214 28/28/214 311/405/214 307/390/214
f 307/390/159 311/405/159 308/664/159 301/393/159
f 301/380/215 308/396/215 108/104/215 107/103/215
f 26/26/216 25/25/216 305/392/216 325/425/216
f 325/425/162 305/392/162 304/665/162 319/428/162
f 319/417/217 304/383/217 56/56/217 55/55/217
f 28/28/218 27/27/218 329/440/218 313/403/218
f 313/403/183 329/440/183 326/666/183 314/406/183
f 314/410/219 326/431/219 32/32/219 31/31/219
f 27/27/220 26/26/220 323/427/220 331/438/220
f 331/438/192 323/427/192 322/420/192 332/441/192
f 332/441/221 322/420/221 24/24/221 23/23/221
f 21/21/222 24/24/222 320/422/222 151/157/222
f 151/157/223 320/422/223 317/415/223 152/162/223
f 152/162/224 317/415/224 55/55/224 54/54/224
f 107/103/225 106/102/225 224/258/225 299/378/225
f 299/378/226 224/258/226 223/253/226 302/385/226
f 302/385/227 223/253/227 53/53/227 56/56/227
f 105/101/228 108/104/228 310/398/228 250/291/228
f 250/291/229 310/398/229 316/667/229 251/292/229
f 251/296/230 316/408/230 31/31/230 30/30/230
f 23/23/231 22/22/231 182/202/231 334/443/231
f 334/443/232 182/202/232 181/197/232 328/433/232
f 328/433/233 181/197/233 29/29/233 32/32/233
f 42/42/234 41/41/234 347/466/234 343/456/234
f 343/456/165 347/466/165 344/459/165 337/448/165
f 337/448/235 344/459/235 40/40/235 39/39/235
f 84/84/236 83/83/236 364/487/236 353/472/236
f 353/472/171 364/487/171 370/495/171 356/479/171
f 356/479/237 370/495/237 44/44/237 43/43/237
f 100/96/196 99/95/196 359/480/196 340/451/196
f 340/451/180 359/480/180 358/477/180 341/458/180
f 341/458/197 358/477/197 43/43/197 42/42/197
f 16/16/220 15/15/220 350/467/220 367/490/220
f 367/490/192 350/467/192 349/464/192 368/497/192
f 368/497/221 349/464/221 41/41/221 44/44/221
f 13/13/238 16/16/238 365/492/238 187/205/238
f 187/205/239 365/492/239 362/485/239 188/210/239
f 188/210/240 362/485/240 83/83/240 82/82/240
f 99/95/241 98/94/241 161/173/241 361/482/241
f 361/482/242 161/173/242 160/168/242 355/474/242
f 355/474/243 160/168/243 81/81/243 84/84/243
f 97/93/244 100/96/244 338/453/244 132/132/244
f 132/132/245 338/453/245 335/446/245 133/137/245
f 133/137/246 335/446/246 39/39/246 38/38/246
f 15/15/247 14/14/247 146/154/247 352/469/247
f 352/469/248 146/154/248 145/149/248 346/461/248
f 346/461/249 145/149/249 37/37/249 40/40/249
f 60/60/250 59/59/250 383/522/250 379/510/250
f 379/513/168 383/518/168 380/515/168 373/500/168
f 373/500/251 380/515/251 116/112/251 115/111/251
f 58/58/236 57/57/236 401/551/236 397/541/236
f 397/541/171 401/551/171 398/544/171 391/533/171
f 391/533/237 398/544/237 68/68/237 67/67/237
f 20/20/194 19/19/194 386/523/194 394/536/194
f 394/536/177 386/523/177 385/520/177 395/543/177
f 395/543/195 385/520/195 59/59/195 58/58/195
f 48/48/218 47/47/218 404/552/218 376/505/218
f 376/505/183 404/552/183 403/549/183 377/512/183
f 377/512/219 403/549/219 57/57/219 60/60/219
f 65/65/252 68/68/252 400/546/252 173/187/252
f 173/187/253 400/546/253 406/554/253 176/194/253
f 176/194/254 406/554/254 47/47/254 46/46/254
f 115/111/255 114/110/255 257/304/255 371/498/255
f 371/668/256 257/300/256 256/299/256 374/507/256
f 374/507/257 256/299/257 45/45/257 48/48/257
f 113/109/258 116/112/258 382/517/258 232/264/258
f 232/264/259 382/517/259 388/669/259 233/265/259
f 233/269/260 388/525/260 19/19/260 18/18/260
f 67/67/261 66/66/261 157/165/261 389/531/261
f 389/531/262 157/165/262 172/184/262 392/538/262
f 392/538/263 172/184/263 17/17/263 20/20/263
f 96/92/216 95/91/216 419/573/216 407/557/216
f 407/557/162 419/573/162 425/581/162 410/564/162
f 410/564/217 425/581/217 73/73/217 76/76/217
f 426/584/234 415/567/234 413/565/234 427/585/234
f 427/585/165 413/565/165 412/562/165 430/592/165
f 430/592/235 412/562/235 76/76/235 75/75/235
f 74/74/264 73/73/264 423/583/264 444/608/264
f 444/608/174 423/583/174 422/576/174 438/600/174
f 438/600/265 422/576/265 36/36/265 35/35/265
f 64/64/200 63/63/200 433/593/200 441/603/200
f 441/603/189 433/593/189 432/590/189 442/610/189
f 442/610/201 432/590/201 75/75/201 74/74/201
f 33/33/266 36/36/266 420/578/266 217/245/266
f 217/245/267 420/578/267 417/571/267 218/250/267
f 218/250/268 417/571/268 95/91/268 94/90/268
f 415/567/269 141/143/269 139/146/269 416/568/269
f 416/568/270 139/146/270 136/138/270 409/559/270
f 409/559/271 136/138/271 93/89/271 96/92/271
f 117/113/272 426/584/272 429/587/272 118/114/272
f 118/114/273 429/587/273 435/595/273 121/121/273
f 121/121/274 435/595/274 63/63/274 62/62/274
f 35/35/275 34/34/275 206/234/275 436/598/275
f 436/598/276 206/234/276 205/229/276 439/605/276
f 439/605/277 205/229/277 61/61/277 64/64/277
f 52/52/214 51/51/214 456/626/214 445/611/214
f 445/611/159 456/626/159 462/634/159 448/618/159
f 448/618/215 462/634/215 89/85/215 92/88/215
f 12/12/250 11/11/250 465/639/250 459/629/250
f 459/629/168 465/639/168 471/647/168 460/636/168
f 460/636/251 471/647/251 90/86/251 89/85/251
f 8/8/264 7/7/264 451/619/264 472/650/264
f 472/650/174 451/619/174 450/616/174 475/657/174
f 475/657/265 450/616/265 92/88/265 91/87/265
f 104/100/198 103/99/198 478/658/198 468/642/198
f 468/642/186 478/658/186 477/655/186 469/649/186
f 469/649/199 477/655/199 91/87/199 90/86/199
f 9/9/278 12/12/278 457/631/278 262/307/278
f 262/307/279 457/631/279 454/624/279 247/288/279
f 247/288/280 454/624/280 51/51/280 50/50/280
f 7/7/281 6/6/281 212/242/281 453/621/281
f 453/621/282 212/242/282 209/235/282 447/613/282
f 447/613/283 209/235/283 49/49/283 52/52/283
f 5/5/284 8/8/284 474/652/284 191/211/284
f 191/211/285 474/652/285 480/660/285 194/218/285
f 194/218/286 480/660/286 103/99/286 102/98/286
f 11/11/287 10/10/287 229/261/287 463/637/287
f 463/637/288 229/261/288 244/282/288 466/644/288
f 466/644/289 244/282/289 101/97/289 104/100/289
f 117/113/1 141/143/1 415/567/1 426/584/1
usemtl redface
f 85/356/5 86/366/5 87/334/5 88/323/5
