# Blender v3.1.2 OBJ File: ''
# www.blender.org
mtllib Truncatedcube.mtl
o Truncatedcube
v -0.174836 -0.495930 -0.495930
v -0.165605 -0.495013 -0.500013
v -0.166671 -0.500013 -0.493987
v -0.170339 -0.495760 -0.498818
v -0.168522 -0.498154 -0.497932
v -0.166095 -0.498532 -0.498261
v -0.170886 -0.498819 -0.495224
v -0.495013 -0.500013 -0.165605
v -0.500013 -0.493987 -0.166671
v -0.495930 -0.495930 -0.174836
v -0.498532 -0.498261 -0.166095
v -0.498154 -0.497932 -0.168522
v -0.498819 -0.495224 -0.170886
v -0.495760 -0.498818 -0.170339
v -0.495930 -0.174836 -0.495930
v -0.500013 -0.165605 -0.495013
v -0.493987 -0.166671 -0.500013
v -0.498818 -0.170339 -0.495760
v -0.497932 -0.168522 -0.498154
v -0.498261 -0.166095 -0.498532
v -0.495224 -0.170886 -0.498819
v 0.495930 -0.174836 -0.495930
v 0.493987 -0.166671 -0.500013
v 0.500013 -0.166671 -0.493987
v 0.495224 -0.170886 -0.498819
v 0.497932 -0.168804 -0.497932
v 0.498248 -0.166671 -0.498248
v 0.498819 -0.170886 -0.495224
v 0.495930 -0.495930 -0.174836
v 0.500013 -0.495013 -0.165605
v 0.495013 -0.500013 -0.165605
v 0.498818 -0.495760 -0.170339
v 0.498154 -0.498154 -0.168256
v 0.498548 -0.498548 -0.165605
v 0.495760 -0.498818 -0.170339
v 0.174836 -0.495930 -0.495930
v 0.166671 -0.500013 -0.493987
v 0.165605 -0.495013 -0.500013
v 0.170886 -0.498819 -0.495224
v 0.168522 -0.498154 -0.497932
v 0.166095 -0.498532 -0.498261
v 0.170339 -0.495760 -0.498818
v 0.165605 0.500013 -0.495013
v 0.174836 0.495930 -0.495930
v 0.165605 0.495013 -0.500013
v 0.170339 0.498818 -0.495760
v 0.168256 0.498154 -0.498154
v 0.170339 0.495760 -0.498818
v 0.165605 0.498548 -0.498548
v 0.493987 0.500013 -0.166671
v 0.500013 0.495013 -0.165605
v 0.495930 0.495930 -0.174836
v 0.498261 0.498532 -0.166095
v 0.497932 0.498154 -0.168522
v 0.498818 0.495760 -0.170339
v 0.495224 0.498819 -0.170886
v 0.495930 0.174836 -0.495930
v 0.500013 0.166671 -0.493987
v 0.493987 0.166671 -0.500013
v 0.498819 0.170886 -0.495224
v 0.497932 0.168804 -0.497932
v 0.498248 0.166671 -0.498248
v 0.495224 0.170886 -0.498819
v -0.500013 0.165605 -0.495013
v -0.495930 0.174836 -0.495930
v -0.493987 0.166671 -0.500013
v -0.498818 0.170339 -0.495760
v -0.497932 0.168522 -0.498154
v -0.495224 0.170886 -0.498819
v -0.498261 0.166095 -0.498532
v -0.500013 0.493987 -0.166671
v -0.493987 0.500013 -0.166671
v -0.495930 0.495930 -0.174836
v -0.498248 0.498248 -0.166671
v -0.497932 0.497932 -0.168804
v -0.495224 0.498819 -0.170886
v -0.498819 0.495224 -0.170886
v -0.165605 0.495013 -0.500013
v -0.174836 0.495930 -0.495930
v -0.165605 0.500013 -0.495013
v -0.170339 0.495760 -0.498818
v -0.168256 0.498154 -0.498154
v -0.170339 0.498818 -0.495760
v -0.165605 0.498548 -0.498548
v -0.174836 -0.495930 0.495930
v -0.166671 -0.500013 0.493987
v -0.166671 -0.493987 0.500013
v -0.170886 -0.498819 0.495224
v -0.168804 -0.497932 0.497932
v -0.166671 -0.498248 0.498248
v -0.170886 -0.495224 0.498819
v -0.495930 -0.174836 0.495930
v -0.495013 -0.165605 0.500013
v -0.500013 -0.165605 0.495013
v -0.495760 -0.170339 0.498818
v -0.498154 -0.168256 0.498154
v -0.498548 -0.165605 0.498548
v -0.498818 -0.170339 0.495760
v -0.495013 -0.500013 0.165605
v -0.495930 -0.495930 0.174836
v -0.500013 -0.493987 0.166671
v -0.495760 -0.498818 0.170339
v -0.498154 -0.497932 0.168522
v -0.498819 -0.495224 0.170886
v -0.498532 -0.498261 0.166095
v 0.495013 -0.500013 0.165605
v 0.500013 -0.495013 0.165605
v 0.495930 -0.495930 0.174836
v 0.498548 -0.498548 0.165605
v 0.498154 -0.498154 0.168256
v 0.498818 -0.495760 0.170339
v 0.495760 -0.498818 0.170339
v 0.500013 -0.166671 0.493987
v 0.495013 -0.165605 0.500013
v 0.495930 -0.174836 0.495930
v 0.498532 -0.166095 0.498261
v 0.498154 -0.168522 0.497932
v 0.495760 -0.170339 0.498818
v 0.498819 -0.170886 0.495224
v 0.174836 -0.495930 0.495930
v 0.166671 -0.493987 0.500013
v 0.166671 -0.500013 0.493987
v 0.170886 -0.495224 0.498819
v 0.168804 -0.497932 0.497932
v 0.166671 -0.498248 0.498248
v 0.170886 -0.498819 0.495224
v 0.493987 0.500013 0.166671
v 0.495930 0.495930 0.174836
v 0.500013 0.495013 0.165605
v 0.495224 0.498819 0.170886
v 0.497932 0.498154 0.168522
v 0.498818 0.495760 0.170339
v 0.498261 0.498532 0.166095
v 0.165605 0.500013 0.495013
v 0.166671 0.493987 0.500013
v 0.174836 0.495930 0.495930
v 0.166095 0.498261 0.498532
v 0.168522 0.497932 0.498154
v 0.170886 0.495224 0.498819
v 0.170339 0.498818 0.495760
v 0.495930 0.174836 0.495930
v 0.495013 0.165605 0.500013
v 0.500013 0.166671 0.493987
v 0.495760 0.170339 0.498818
v 0.498154 0.168522 0.497932
v 0.498532 0.166095 0.498261
v 0.498819 0.170886 0.495224
v -0.500013 0.165605 0.495013
v -0.495013 0.165605 0.500013
v -0.495930 0.174836 0.495930
v -0.498548 0.165605 0.498548
v -0.498154 0.168256 0.498154
v -0.495760 0.170339 0.498818
v -0.498818 0.170339 0.495760
v -0.166671 0.493987 0.500013
v -0.165605 0.500013 0.495013
v -0.174836 0.495930 0.495930
v -0.166095 0.498261 0.498532
v -0.168522 0.497932 0.498154
v -0.170339 0.498818 0.495760
v -0.170886 0.495224 0.498819
v -0.495930 0.495930 0.174836
v -0.493987 0.500013 0.166671
v -0.500013 0.493987 0.166671
v -0.495224 0.498819 0.170886
v -0.497932 0.497932 0.168804
v -0.498248 0.498248 0.166671
v -0.498819 0.495224 0.170886
vn 0.0000 0.0000 -1.0000
vn 1.0000 0.0000 0.0000
vn 0.0000 0.0000 1.0000
vn 0.0000 1.0000 0.0000
vn -1.0000 0.0000 0.0000
vn 0.0000 -1.0000 0.0000
vn -0.5774 -0.5774 -0.5774
vn 0.5774 -0.5774 0.5774
vn -0.5774 0.5774 -0.5774
vn 0.5774 -0.5774 -0.5774
vn -0.5774 0.5774 0.5774
vn 0.5774 0.5774 -0.5774
vn 0.5774 0.5774 0.5774
vn -0.5774 -0.5774 0.5774
vn -0.4280 -0.6551 -0.6226
vn -0.1663 -0.4326 -0.8861
vn -0.1694 -0.9198 -0.3540
vn -0.4326 -0.8861 -0.1663
vn -0.9198 -0.3540 -0.1694
vn -0.6551 -0.6226 -0.4280
vn -0.6226 -0.4280 -0.6551
vn -0.8861 -0.1663 -0.4326
vn -0.3540 -0.1694 -0.9198
vn 0.6401 -0.4249 -0.6401
vn 0.3921 -0.1587 -0.9061
vn 0.9061 -0.1587 -0.3921
vn 0.6380 -0.6380 -0.4311
vn 0.9051 -0.3870 -0.1763
vn 0.3870 -0.9051 -0.1763
vn 0.4280 -0.6551 -0.6226
vn 0.1694 -0.9198 -0.3541
vn 0.1662 -0.4326 -0.8861
vn 0.1763 0.9051 -0.3870
vn 0.4311 0.6380 -0.6380
vn 0.1763 0.3870 -0.9051
vn 0.3540 0.9198 -0.1694
vn 0.8861 0.4327 -0.1662
vn 0.6226 0.6551 -0.4280
vn 0.6401 0.4249 -0.6401
vn 0.9061 0.1587 -0.3921
vn 0.3921 0.1587 -0.9061
vn -0.8861 0.1662 -0.4326
vn -0.6226 0.4280 -0.6551
vn -0.3540 0.1694 -0.9198
vn -0.9061 0.3921 -0.1587
vn -0.3921 0.9061 -0.1587
vn -0.6401 0.6401 -0.4249
vn -0.1763 0.3870 -0.9051
vn -0.4311 0.6380 -0.6380
vn -0.1763 0.9051 -0.3870
vn -0.4249 -0.6401 0.6401
vn -0.1587 -0.9061 0.3921
vn -0.1587 -0.3921 0.9061
vn -0.6380 -0.4311 0.6380
vn -0.3870 -0.1763 0.9051
vn -0.9051 -0.1763 0.3870
vn -0.4326 -0.8861 0.1662
vn -0.6551 -0.6226 0.4280
vn -0.9198 -0.3540 0.1694
vn 0.3870 -0.9051 0.1763
vn 0.9051 -0.3870 0.1763
vn 0.6380 -0.6380 0.4311
vn 0.9198 -0.1694 0.3540
vn 0.4327 -0.1662 0.8861
vn 0.6551 -0.4280 0.6226
vn 0.4249 -0.6401 0.6401
vn 0.1587 -0.3921 0.9061
vn 0.1587 -0.9061 0.3921
vn 0.3540 0.9198 0.1694
vn 0.6226 0.6551 0.4280
vn 0.8861 0.4327 0.1662
vn 0.1662 0.8861 0.4327
vn 0.1694 0.3540 0.9198
vn 0.4280 0.6226 0.6551
vn 0.6551 0.4280 0.6226
vn 0.4327 0.1662 0.8861
vn 0.9198 0.1694 0.3540
vn -0.9051 0.1763 0.3870
vn -0.3870 0.1763 0.9051
vn -0.6380 0.4311 0.6380
vn -0.1694 0.3540 0.9198
vn -0.1662 0.8861 0.4327
vn -0.4280 0.6226 0.6551
vn -0.6401 0.6401 0.4249
vn -0.3921 0.9061 0.1587
vn -0.9061 0.3921 0.1587
vn -0.2088 -0.9554 -0.2088
vn -0.4660 -0.7521 -0.4660
vn -0.4660 -0.4660 -0.7521
vn -0.2088 -0.2088 -0.9554
vn 0.9554 -0.2088 -0.2087
vn 0.7521 -0.4660 -0.4660
vn 0.4660 -0.4660 -0.7521
vn 0.2088 -0.2088 -0.9554
vn 0.2088 0.9554 -0.2088
vn 0.4660 0.7521 -0.4660
vn 0.4660 0.4660 -0.7521
vn 0.2088 0.2088 -0.9554
vn -0.8952 0.0000 -0.4456
vn -0.3274 0.0000 -0.9449
vn -0.9554 0.2088 -0.2088
vn -0.7521 0.4660 -0.4660
vn -0.4660 0.4660 -0.7521
vn -0.2088 0.2088 -0.9554
vn -0.2088 -0.2087 0.9554
vn -0.4660 -0.4660 0.7521
vn -0.4660 -0.7521 0.4660
vn -0.2088 -0.9554 0.2088
vn 0.9239 -0.3827 0.0000
vn 0.3827 -0.9239 0.0000
vn 0.9554 -0.2088 0.2088
vn 0.7521 -0.4660 0.4660
vn 0.4660 -0.7521 0.4660
vn 0.2088 -0.9554 0.2088
vn 0.3274 0.9449 -0.0000
vn 0.8952 0.4456 0.0000
vn -0.9554 -0.2088 -0.2088
vn -0.7521 -0.4660 -0.4660
vn 0.7521 0.4660 0.4660
vn 0.9554 0.2088 0.2087
vn -0.3827 0.0000 0.9239
vn -0.9239 0.0000 0.3827
vn -0.2088 0.2088 0.9554
vn -0.4660 0.4660 0.7521
vn -0.7521 0.4660 0.4660
vn -0.9554 0.2088 0.2088
vn 0.0000 -0.4456 -0.8952
vn 0.0000 -0.9449 -0.3274
vn -0.2088 0.9554 0.2088
vn -0.4660 0.7521 0.4660
vn -0.0000 0.8952 0.4456
vn 0.0000 0.3274 0.9449
vn -0.2087 0.9554 -0.2088
vn -0.4660 0.7521 -0.4660
vn -0.9554 -0.2088 0.2088
vn -0.7521 -0.4660 0.4660
vn 0.0000 -0.9239 0.3827
vn 0.0000 -0.3827 0.9239
vn 0.2088 -0.9554 -0.2088
vn 0.4660 -0.7521 -0.4660
vn 0.3827 0.0000 -0.9239
vn 0.9239 0.0000 -0.3827
vn -0.9239 0.3827 0.0000
vn -0.3827 0.9239 0.0000
vn -0.4456 -0.8952 0.0000
vn -0.9449 -0.3274 0.0000
vn 0.2088 -0.2088 0.9554
vn 0.4660 -0.4660 0.7521
vn 0.9554 0.2088 -0.2088
vn 0.7521 0.4660 -0.4660
vn 0.9449 -0.0000 0.3274
vn 0.4456 0.0000 0.8952
vn 0.0000 0.3827 -0.9239
vn 0.0000 0.9239 -0.3827
vn 0.2087 0.9554 0.2088
vn 0.4660 0.7521 0.4660
vn 0.2088 0.2087 0.9554
vn 0.4660 0.4660 0.7521
usemtl dtmo_base_mat
s off
f 2//1 17//1 23//1 38//1
f 143//2 113//2 24//2 58//2
f 66//1 78//1 45//1 59//1
f 155//3 149//3 93//3 87//3
f 135//3 155//3 87//3 121//3
f 142//3 135//3 121//3 114//3
f 134//4 127//4 163//4 156//4
f 16//5 9//5 71//5 64//5
f 113//2 107//2 30//2 24//2
f 127//4 50//4 72//4 163//4
f 3//6 37//6 122//6 86//6
f 1//7 10//7 15//7
f 50//4 43//4 80//4 72//4
f 9//5 101//5 164//5 71//5
f 17//1 66//1 59//1 23//1
f 108//8 115//8 120//8
f 65//9 73//9 79//9
f 37//6 31//6 106//6 122//6
f 22//10 29//10 36//10
f 150//11 157//11 162//11
f 129//2 143//2 58//2 51//2
f 44//12 52//12 57//12
f 128//13 136//13 141//13
f 101//5 94//5 148//5 164//5
f 85//14 92//14 100//14
f 1//15 4//15 5//15 7//15
f 2//16 6//16 5//16 4//16
f 3//17 7//17 5//17 6//17
f 8//18 11//18 12//18 14//18
f 9//19 13//19 12//19 11//19
f 10//20 14//20 12//20 13//20
f 15//21 18//21 19//21 21//21
f 16//22 20//22 19//22 18//22
f 17//23 21//23 19//23 20//23
f 22//24 25//24 26//24 28//24
f 23//25 27//25 26//25 25//25
f 24//26 28//26 26//26 27//26
f 29//27 32//27 33//27 35//27
f 30//28 34//28 33//28 32//28
f 31//29 35//29 33//29 34//29
f 36//30 39//30 40//30 42//30
f 37//31 41//31 40//31 39//31
f 38//32 42//32 40//32 41//32
f 43//33 46//33 47//33 49//33
f 44//34 48//34 47//34 46//34
f 45//35 49//35 47//35 48//35
f 50//36 53//36 54//36 56//36
f 51//37 55//37 54//37 53//37
f 52//38 56//38 54//38 55//38
f 57//39 60//39 61//39 63//39
f 58//40 62//40 61//40 60//40
f 59//41 63//41 61//41 62//41
f 64//42 67//42 68//42 70//42
f 65//43 69//43 68//43 67//43
f 66//44 70//44 68//44 69//44
f 71//45 74//45 75//45 77//45
f 72//46 76//46 75//46 74//46
f 73//47 77//47 75//47 76//47
f 78//48 81//48 82//48 84//48
f 79//49 83//49 82//49 81//49
f 80//50 84//50 82//50 83//50
f 85//51 88//51 89//51 91//51
f 86//52 90//52 89//52 88//52
f 87//53 91//53 89//53 90//53
f 92//54 95//54 96//54 98//54
f 93//55 97//55 96//55 95//55
f 94//56 98//56 96//56 97//56
f 99//57 102//57 103//57 105//57
f 100//58 104//58 103//58 102//58
f 101//59 105//59 103//59 104//59
f 106//60 109//60 110//60 112//60
f 107//61 111//61 110//61 109//61
f 108//62 112//62 110//62 111//62
f 113//63 116//63 117//63 119//63
f 114//64 118//64 117//64 116//64
f 115//65 119//65 117//65 118//65
f 120//66 123//66 124//66 126//66
f 121//67 125//67 124//67 123//67
f 122//68 126//68 124//68 125//68
f 127//69 130//69 131//69 133//69
f 128//70 132//70 131//70 130//70
f 129//71 133//71 131//71 132//71
f 134//72 137//72 138//72 140//72
f 135//73 139//73 138//73 137//73
f 136//74 140//74 138//74 139//74
f 141//75 144//75 145//75 147//75
f 142//76 146//76 145//76 144//76
f 143//77 147//77 145//77 146//77
f 148//78 151//78 152//78 154//78
f 149//79 153//79 152//79 151//79
f 150//80 154//80 152//80 153//80
f 155//81 158//81 159//81 161//81
f 156//82 160//82 159//82 158//82
f 157//83 161//83 159//83 160//83
f 162//84 165//84 166//84 168//84
f 163//85 167//85 166//85 165//85
f 164//86 168//86 166//86 167//86
f 3//87 8//87 14//87 7//87
f 7//88 14//88 10//88 1//88
f 1//89 15//89 21//89 4//89
f 4//90 21//90 17//90 2//90
f 24//91 30//91 32//91 28//91
f 28//92 32//92 29//92 22//92
f 22//93 36//93 42//93 25//93
f 25//94 42//94 38//94 23//94
f 43//95 50//95 56//95 46//95
f 46//96 56//96 52//96 44//96
f 44//97 57//97 63//97 48//97
f 48//98 63//98 59//98 45//98
f 16//99 64//99 70//99 20//99
f 20//100 70//100 66//100 17//100
f 64//101 71//101 77//101 67//101
f 67//102 77//102 73//102 65//102
f 65//103 79//103 81//103 69//103
f 69//104 81//104 78//104 66//104
f 87//105 93//105 95//105 91//105
f 91//106 95//106 92//106 85//106
f 85//107 100//107 102//107 88//107
f 88//108 102//108 99//108 86//108
f 30//109 107//109 109//109 34//109
f 34//110 109//110 106//110 31//110
f 107//111 113//111 119//111 111//111
f 111//112 119//112 115//112 108//112
f 108//113 120//113 126//113 112//113
f 112//114 126//114 122//114 106//114
f 50//115 127//115 133//115 53//115
f 53//116 133//116 129//116 51//116
f 9//117 16//117 18//117 13//117
f 13//118 18//118 15//118 10//118
f 128//119 141//119 147//119 132//119
f 132//120 147//120 143//120 129//120
f 93//121 149//121 151//121 97//121
f 97//122 151//122 148//122 94//122
f 149//123 155//123 161//123 153//123
f 153//124 161//124 157//124 150//124
f 150//125 162//125 168//125 154//125
f 154//126 168//126 164//126 148//126
f 2//127 38//127 41//127 6//127
f 6//128 41//128 37//128 3//128
f 156//129 163//129 165//129 160//129
f 160//130 165//130 162//130 157//130
f 134//131 156//131 158//131 137//131
f 137//132 158//132 155//132 135//132
f 72//133 80//133 83//133 76//133
f 76//134 83//134 79//134 73//134
f 94//135 101//135 104//135 98//135
f 98//136 104//136 100//136 92//136
f 86//137 122//137 125//137 90//137
f 90//138 125//138 121//138 87//138
f 31//139 37//139 39//139 35//139
f 35//140 39//140 36//140 29//140
f 23//141 59//141 62//141 27//141
f 27//142 62//142 58//142 24//142
f 71//143 164//143 167//143 74//143
f 74//144 167//144 163//144 72//144
f 8//145 99//145 105//145 11//145
f 11//146 105//146 101//146 9//146
f 114//147 121//147 123//147 118//147
f 118//148 123//148 120//148 115//148
f 51//149 58//149 60//149 55//149
f 55//150 60//150 57//150 52//150
f 113//151 143//151 146//151 116//151
f 116//152 146//152 142//152 114//152
f 45//153 78//153 84//153 49//153
f 49//154 84//154 80//154 43//154
f 127//155 134//155 140//155 130//155
f 130//156 140//156 136//156 128//156
f 135//157 142//157 144//157 139//157
f 139//158 144//158 141//158 136//158
f 8//6 3//6 86//6 99//6
