# Blender v3.1.2 OBJ File: ''
# www.blender.org
mtllib Twistytorus.mtl
o Twistytorus
v 0.500816 0.000000 0.000000
v 0.495682 0.065258 0.013074
v 0.476010 0.062668 0.060976
v 0.487397 0.000000 0.050082
v 0.350571 0.000000 0.086744
v 0.336771 0.044337 0.079465
v 0.305478 0.040218 0.038331
v 0.313909 0.000000 0.050082
v 0.300490 0.000000 0.000000
v 0.298768 0.039333 -0.013074
v 0.318440 0.041924 -0.060976
v 0.313909 0.000000 -0.050082
v 0.480455 0.128738 0.025924
v 0.488972 0.064375 -0.038331
v 0.480455 0.128738 -0.025924
v 0.318588 0.085366 0.070826
v 0.293547 0.078656 0.025924
v 0.293547 0.078656 -0.025924
v 0.318588 0.085366 -0.070826
v 0.455649 0.188736 0.038331
v 0.426488 0.176657 0.079465
v 0.455413 0.122027 0.070826
v 0.296739 0.122914 0.060976
v 0.278408 0.115320 0.013074
v 0.284660 0.117910 -0.038331
v 0.313821 0.129989 -0.079465
v 0.422097 0.243698 0.050082
v 0.461902 0.191326 -0.013074
v 0.433720 0.250408 0.000000
v 0.271853 0.156955 0.050082
v 0.260232 0.150245 0.000000
v 0.271853 0.156955 -0.050082
v 0.303603 0.175285 -0.086744
v 0.380903 0.292277 0.060976
v 0.348269 0.267236 0.092539
v 0.390348 0.225367 0.086744
v 0.244444 0.187568 0.038331
v 0.239075 0.183448 -0.013074
v 0.254815 0.195527 -0.060976
v 0.287449 0.220568 -0.092539
v 0.333386 0.333386 0.070826
v 0.396644 0.304355 0.013074
v 0.351717 0.351717 0.025925
v 0.214892 0.214892 0.025925
v 0.214892 0.214892 -0.025924
v 0.233223 0.233223 -0.070826
v 0.264974 0.264974 -0.096750
v 0.281021 0.366234 0.079465
v 0.251860 0.328231 0.099306
v 0.301635 0.301635 0.096750
v 0.183448 0.239075 0.013074
v 0.187568 0.244443 -0.038331
v 0.206782 0.269484 -0.079465
v 0.235943 0.307487 -0.099306
v 0.225367 0.390348 0.086744
v 0.300236 0.391275 0.038331
v 0.243698 0.422097 0.050082
v 0.150245 0.260232 0.000000
v 0.156955 0.271853 -0.050082
v 0.175285 0.303603 -0.086744
v 0.200327 0.346975 -0.100163
v 0.167992 0.405568 0.092539
v 0.148320 0.358076 0.099306
v 0.200327 0.346975 0.100163
v 0.115320 0.278408 -0.013074
v 0.122914 0.296739 -0.060976
v 0.138654 0.334742 -0.092539
v 0.158327 0.382233 -0.099306
v 0.110406 0.412042 0.096750
v 0.183733 0.443571 0.060976
v 0.122027 0.455413 0.070826
v 0.078656 0.293547 -0.025924
v 0.085366 0.318588 -0.070826
v 0.096987 0.361960 -0.096750
v 0.110406 0.412042 -0.096750
v 0.054002 0.410187 0.099306
v 0.047293 0.359222 0.092539
v 0.096987 0.361960 0.096750
v 0.040217 0.305478 -0.038331
v 0.044337 0.336771 -0.079465
v 0.050589 0.384262 -0.099306
v 0.057299 0.435228 -0.092539
v 0.000000 0.400652 0.100163
v 0.060254 0.457678 0.079465
v 0.000000 0.450734 0.086744
v 0.000000 0.313909 -0.050082
v 0.000000 0.350571 -0.086744
v 0.000000 0.400652 -0.100163
v 0.000000 0.450734 -0.086744
v -0.050589 0.384262 0.099306
v -0.044337 0.336771 0.079465
v 0.000000 0.350571 0.086744
v -0.041924 0.318440 -0.060976
v -0.047293 0.359222 -0.092539
v -0.054002 0.410187 -0.099306
v -0.060254 0.457678 -0.079465
v -0.096987 0.361960 0.096750
v -0.057299 0.435228 0.092539
v -0.110406 0.412042 0.096750
v -0.085366 0.318588 -0.070826
v -0.096987 0.361960 -0.096750
v -0.110406 0.412042 -0.096750
v -0.122027 0.455413 -0.070826
v -0.138654 0.334742 0.092539
v -0.122914 0.296739 0.060976
v -0.085366 0.318588 0.070826
v -0.129989 0.313821 -0.079465
v -0.148320 0.358076 -0.099306
v -0.167992 0.405568 -0.092539
v -0.183733 0.443571 -0.060976
v -0.175285 0.303603 0.086744
v -0.158327 0.382233 0.099306
v -0.200327 0.346976 0.100163
v -0.175285 0.303603 -0.086744
v -0.200327 0.346976 -0.100163
v -0.225367 0.390348 -0.086744
v -0.243698 0.422097 -0.050082
v -0.206782 0.269484 0.079465
v -0.187568 0.244444 0.038331
v -0.156955 0.271853 0.050082
v -0.220568 0.287449 -0.092539
v -0.251860 0.328231 -0.099306
v -0.281021 0.366234 -0.079465
v -0.300236 0.391275 -0.038331
v -0.233223 0.233223 0.070826
v -0.235943 0.307487 0.099306
v -0.264974 0.264973 0.096750
v -0.264974 0.264973 -0.096750
v -0.301635 0.301635 -0.096750
v -0.333386 0.333386 -0.070826
v -0.351717 0.351717 -0.025924
v -0.254815 0.195527 0.060976
v -0.239075 0.183448 0.013074
v -0.214892 0.214891 0.025925
v -0.307487 0.235943 -0.099306
v -0.348269 0.267236 -0.092539
v -0.380903 0.292277 -0.060976
v -0.396644 0.304355 -0.013074
v -0.271853 0.156955 0.050082
v -0.287449 0.220568 0.092539
v -0.303603 0.175285 0.086744
v -0.346975 0.200327 -0.100163
v -0.390348 0.225367 -0.086744
v -0.422097 0.243698 -0.050082
v -0.433720 0.250408 0.000000
v -0.284660 0.117910 0.038331
v -0.278408 0.115320 -0.013074
v -0.260232 0.150245 0.000000
v -0.382233 0.158327 -0.099306
v -0.426488 0.176657 -0.079465
v -0.455649 0.188736 -0.038331
v -0.461901 0.191326 0.013074
v -0.293547 0.078656 0.025924
v -0.313821 0.129989 0.079465
v -0.318588 0.085366 0.070826
v -0.412042 0.110406 -0.096750
v -0.455413 0.122027 -0.070826
v -0.480455 0.128738 -0.025924
v -0.480455 0.128738 0.025924
v -0.298768 0.039333 0.013074
v -0.305478 0.040218 -0.038331
v -0.293547 0.078656 -0.025924
v -0.435228 0.057299 -0.092539
v -0.476010 0.062668 -0.060976
v -0.495682 0.065258 -0.013074
v -0.488972 0.064375 0.038331
v -0.300490 0.000000 0.000000
v -0.318440 0.041924 0.060976
v -0.313909 0.000000 0.050082
v -0.450734 0.000000 -0.086744
v -0.487397 0.000000 -0.050082
v -0.500816 0.000000 0.000000
v -0.487397 0.000000 0.050082
v -0.298768 -0.039333 -0.013074
v -0.318440 -0.041924 -0.060976
v -0.313909 0.000000 -0.050082
v -0.457678 -0.060254 -0.079465
v -0.488972 -0.064375 -0.038331
v -0.495682 -0.065258 0.013074
v -0.476010 -0.062668 0.060976
v -0.293547 -0.078656 -0.025924
v -0.305478 -0.040218 0.038331
v -0.293547 -0.078656 0.025924
v -0.455413 -0.122027 -0.070826
v -0.480455 -0.128738 -0.025924
v -0.480455 -0.128738 0.025924
v -0.455413 -0.122027 0.070826
v -0.284660 -0.117910 -0.038331
v -0.313821 -0.129989 -0.079465
v -0.318588 -0.085366 -0.070826
v -0.443571 -0.183733 -0.060976
v -0.461902 -0.191326 -0.013074
v -0.455649 -0.188736 0.038331
v -0.426488 -0.176657 0.079465
v -0.271854 -0.156955 -0.050082
v -0.278408 -0.115320 0.013074
v -0.260232 -0.150245 0.000000
v -0.422098 -0.243698 -0.050082
v -0.433720 -0.250408 0.000000
v -0.422098 -0.243698 0.050082
v -0.390348 -0.225367 0.086744
v -0.254815 -0.195527 -0.060976
v -0.287449 -0.220568 -0.092539
v -0.303603 -0.175285 -0.086744
v -0.391275 -0.300236 -0.038331
v -0.396644 -0.304355 0.013074
v -0.380903 -0.292277 0.060976
v -0.348269 -0.267236 0.092539
v -0.233223 -0.233223 -0.070826
v -0.239075 -0.183448 -0.013074
v -0.214892 -0.214891 -0.025925
v -0.351717 -0.351717 -0.025925
v -0.351717 -0.351717 0.025924
v -0.333386 -0.333386 0.070826
v -0.301635 -0.301635 0.096750
v -0.206782 -0.269484 -0.079465
v -0.235943 -0.307487 -0.099306
v -0.264974 -0.264973 -0.096750
v -0.304355 -0.396644 -0.013074
v -0.300236 -0.391275 0.038331
v -0.281022 -0.366234 0.079465
v -0.251861 -0.328231 0.099306
v -0.175285 -0.303603 -0.086744
v -0.187568 -0.244443 -0.038331
v -0.156955 -0.271853 -0.050082
v -0.250408 -0.433720 0.000000
v -0.243698 -0.422097 0.050082
v -0.225367 -0.390348 0.086744
v -0.200327 -0.346976 0.100163
v -0.138654 -0.334742 -0.092539
v -0.158327 -0.382233 -0.099306
v -0.200327 -0.346976 -0.100163
v -0.191326 -0.461902 0.013074
v -0.183733 -0.443571 0.060976
v -0.167992 -0.405568 0.092539
v -0.148320 -0.358076 0.099306
v -0.096987 -0.361960 -0.096750
v -0.122914 -0.296739 -0.060976
v -0.085366 -0.318588 -0.070826
v -0.128738 -0.480455 0.025924
v -0.122028 -0.455413 0.070826
v -0.110406 -0.412042 0.096750
v -0.096987 -0.361960 0.096750
v -0.050589 -0.384262 -0.099306
v -0.057299 -0.435228 -0.092539
v -0.110406 -0.412042 -0.096750
v -0.064375 -0.488972 0.038331
v -0.060255 -0.457678 0.079465
v -0.054002 -0.410187 0.099306
v -0.047293 -0.359222 0.092539
v 0.000000 -0.400652 -0.100163
v -0.044337 -0.336771 -0.079465
v 0.000000 -0.350571 -0.086744
v 0.000000 -0.487397 0.050082
v 0.000000 -0.450734 0.086744
v 0.000000 -0.400652 0.100163
v 0.000000 -0.350571 0.086744
v 0.054002 -0.410187 -0.099306
v 0.060254 -0.457678 -0.079465
v 0.000000 -0.450734 -0.086744
v 0.062667 -0.476011 0.060976
v 0.057299 -0.435228 0.092539
v 0.050589 -0.384262 0.099306
v 0.044337 -0.336771 0.079465
v 0.110406 -0.412042 -0.096750
v 0.047293 -0.359222 -0.092539
v 0.096987 -0.361960 -0.096750
v 0.122027 -0.455413 0.070826
v 0.110406 -0.412042 0.096750
v 0.096987 -0.361960 0.096750
v 0.085365 -0.318588 0.070826
v 0.167992 -0.405568 -0.092539
v 0.183733 -0.443571 -0.060976
v 0.122027 -0.455413 -0.070826
v 0.176657 -0.426488 0.079465
v 0.158327 -0.382233 0.099306
v 0.138654 -0.334742 0.092539
v 0.122914 -0.296739 0.060976
v 0.225367 -0.390348 -0.086744
v 0.148320 -0.358076 -0.099306
v 0.200327 -0.346975 -0.100163
v 0.225367 -0.390348 0.086744
v 0.200327 -0.346975 0.100163
v 0.175285 -0.303603 0.086744
v 0.156955 -0.271853 0.050082
v 0.281021 -0.366234 -0.079465
v 0.300236 -0.391275 -0.038331
v 0.243698 -0.422097 -0.050082
v 0.267236 -0.348269 0.092539
v 0.235943 -0.307487 0.099306
v 0.206782 -0.269484 0.079465
v 0.187568 -0.244444 0.038331
v 0.333386 -0.333386 -0.070826
v 0.251860 -0.328231 -0.099306
v 0.301635 -0.301635 -0.096750
v 0.301635 -0.301635 0.096750
v 0.264973 -0.264974 0.096750
v 0.233222 -0.233223 0.070826
v 0.214891 -0.214892 0.025924
v 0.380903 -0.292277 -0.060976
v 0.396644 -0.304355 -0.013074
v 0.351717 -0.351717 -0.025925
v 0.328231 -0.251860 0.099306
v 0.287449 -0.220568 0.092539
v 0.254815 -0.195527 0.060976
v 0.239075 -0.183448 0.013074
v 0.422097 -0.243698 -0.050082
v 0.348269 -0.267236 -0.092539
v 0.390348 -0.225367 -0.086744
v 0.346975 -0.200327 0.100163
v 0.303603 -0.175285 0.086744
v 0.271853 -0.156955 0.050082
v 0.260232 -0.150245 0.000000
v 0.455649 -0.188736 -0.038331
v 0.461901 -0.191326 0.013074
v 0.433720 -0.250408 0.000000
v 0.358076 -0.148320 0.099306
v 0.313821 -0.129989 0.079465
v 0.284660 -0.117910 0.038331
v 0.278408 -0.115320 -0.013074
v 0.480455 -0.128738 -0.025924
v 0.426488 -0.176658 -0.079465
v 0.455413 -0.122027 -0.070826
v 0.361960 -0.096987 0.096750
v 0.318588 -0.085366 0.070826
v 0.293547 -0.078656 0.025924
v 0.293547 -0.078656 -0.025924
v 0.495682 -0.065258 -0.013074
v 0.488972 -0.064375 0.038331
v 0.480455 -0.128738 0.025924
v 0.359222 -0.047293 0.092539
v 0.318440 -0.041924 0.060976
v 0.298768 -0.039333 0.013074
v 0.305478 -0.040218 -0.038331
v 0.476010 -0.062668 -0.060976
v 0.487397 0.000000 -0.050082
vn 0.9474 0.0717 0.3118
vn 0.9251 -0.0033 0.3797
vn 0.9428 0.0529 0.3291
vn 0.9578 0.1294 0.2566
vn -0.7262 -0.0482 0.6858
vn -0.7962 -0.1546 0.5849
vn -0.7745 -0.0454 0.6309
vn -0.6850 0.0555 0.7264
vn -0.9563 -0.0562 -0.2869
vn -0.8955 -0.1749 -0.4093
vn -0.9322 -0.0705 -0.3550
vn -0.9718 0.0530 -0.2300
vn 0.9811 0.1854 -0.0557
vn 0.9580 0.2560 -0.1294
vn 0.9762 0.2037 -0.0747
vn 0.9914 0.1312 0.0000
vn -0.8360 -0.2764 0.4740
vn -0.8351 -0.1653 0.5246
vn -0.8059 -0.2744 -0.5246
vn -0.8622 -0.1787 -0.4740
vn 0.7895 0.2777 0.5473
vn 0.7724 0.1943 0.6047
vn 0.7863 0.2586 0.5611
vn 0.7974 0.3437 0.4961
vn -0.8425 -0.4051 0.3550
vn -0.8629 -0.2963 0.4093
vn -0.6934 -0.3480 -0.6309
vn -0.7669 -0.2642 -0.5849
vn 0.8821 0.4248 0.2037
vn 0.8584 0.4964 0.1294
vn 0.8771 0.4432 0.1853
vn 0.8932 0.3692 0.2568
vn -0.8151 -0.5318 0.2300
vn -0.8563 -0.4294 0.2869
vn -0.5655 -0.3906 -0.7264
vn -0.6530 -0.3214 -0.6858
vn 0.5491 0.3770 0.7459
vn 0.5445 0.2848 0.7889
vn 0.5487 0.3587 0.7552
vn 0.5485 0.4541 0.7021
vn -0.7552 -0.6476 0.1011
vn -0.8159 -0.5558 0.1597
vn -0.4304 -0.3993 -0.8095
vn -0.5287 -0.3464 -0.7749
vn 0.6773 0.5828 0.4490
vn 0.6491 0.6593 0.3795
vn 0.6714 0.6013 0.4332
vn 0.6931 0.5228 0.4964
vn -0.6668 -0.7446 -0.0296
vn -0.7446 -0.6669 0.0296
vn -0.2972 -0.3733 -0.8788
vn -0.4027 -0.3378 -0.8507
vn 0.2905 0.3421 0.8936
vn 0.3058 0.2456 0.9199
vn 0.2931 0.3271 0.8984
vn 0.2736 0.4292 0.8608
vn -0.5558 -0.8159 -0.1596
vn -0.6476 -0.7552 -0.1010
vn -0.1747 -0.3142 -0.9331
vn -0.2840 -0.2962 -0.9119
vn 0.4216 0.6178 0.6638
vn 0.3820 0.6993 0.6042
vn 0.4138 0.6352 0.6521
vn 0.4476 0.5531 0.7027
vn -0.4294 -0.8563 -0.2869
vn -0.5318 -0.8151 -0.2300
vn -0.0710 -0.2260 -0.9715
vn -0.1807 -0.2248 -0.9575
vn 0.0836 0.1817 0.9798
vn 0.1236 0.0896 0.9883
vn 0.0877 0.1725 0.9811
vn 0.0424 0.2729 0.9611
vn -0.2963 -0.8629 -0.4093
vn -0.4051 -0.8425 -0.3550
vn 0.0071 -0.1142 -0.9934
vn -0.1002 -0.1288 -0.9866
vn 0.1828 0.5209 0.8338
vn 0.1254 0.6026 0.7881
vn 0.1734 0.5350 0.8269
vn 0.2248 0.4548 0.8617
vn -0.1653 -0.8351 -0.5246
vn -0.2764 -0.8360 -0.4740
vn 0.0544 0.0138 -0.9984
vn -0.0481 -0.0150 -0.9987
vn -0.0153 -0.0613 0.9980
vn 0.0494 -0.1378 0.9892
vn -0.0132 -0.0638 0.9979
vn -0.0857 0.0230 0.9961
vn -0.0454 -0.7745 -0.6309
vn -0.1546 -0.7962 -0.5849
vn 0.0679 0.1495 -0.9864
vn -0.0281 0.1085 -0.9937
vn 0.0244 0.3182 0.9477
vn -0.0545 0.3910 0.9188
vn 0.0151 0.3270 0.9449
vn 0.0865 0.2578 0.9623
vn 0.0556 -0.6850 -0.7264
vn -0.0482 -0.7262 -0.6858
vn 0.0467 0.2842 -0.9576
vn -0.0415 0.2330 -0.9716
vn 0.0209 -0.3213 0.9468
vn 0.1048 -0.3716 0.9225
vn 0.0171 -0.3189 0.9476
vn -0.0778 -0.2580 0.9630
vn 0.1306 -0.5724 -0.8095
vn 0.0357 -0.6311 -0.7749
vn -0.0078 0.4089 -0.9125
vn -0.0874 0.3497 -0.9328
vn -0.0117 0.0637 0.9979
vn -0.1104 0.1165 0.9870
vn -0.0176 0.0669 0.9976
vn 0.0708 0.0190 0.9973
vn 0.1747 -0.4441 -0.8788
vn 0.0911 -0.5177 -0.8507
vn -0.0919 0.5156 -0.8519
vn -0.1628 0.4503 -0.8779
vn 0.1824 -0.5276 0.8297
vn 0.2754 -0.5442 0.7925
vn 0.1708 -0.5252 0.8337
vn 0.0639 -0.4993 0.8641
vn 0.1848 -0.3084 -0.9331
vn 0.1145 -0.3940 -0.9119
vn -0.2000 0.5972 -0.7767
vn -0.2623 0.5276 -0.8080
vn 0.0839 -0.1748 0.9810
vn -0.0271 -0.1520 0.9880
vn 0.0844 -0.1749 0.9810
vn 0.1819 -0.1933 0.9641
vn 0.1602 -0.1745 -0.9715
vn 0.1044 -0.2689 -0.9575
vn -0.3249 0.6486 -0.6883
vn -0.3790 0.5761 -0.7242
vn 0.4251 -0.6245 0.6552
vn 0.5143 -0.6046 0.6083
vn 0.4072 -0.6276 0.6636
vn 0.3025 -0.6405 0.7059
vn 0.1024 -0.0510 -0.9934
vn 0.0615 -0.1512 -0.9866
vn -0.4582 0.6665 -0.5881
vn -0.5049 0.5922 -0.6280
vn 0.2857 -0.3340 0.8982
vn 0.1748 -0.3470 0.9214
vn 0.2938 -0.3329 0.8960
vn 0.3887 -0.3175 0.8649
vn 0.0153 0.0540 -0.9984
vn -0.0111 -0.0492 -0.9987
vn -0.5910 0.6499 -0.4778
vn -0.6311 0.5746 -0.5210
vn 0.6830 -0.5861 0.4359
vn 0.7551 -0.5325 0.3824
vn 0.6638 -0.5985 0.4486
vn 0.5760 -0.6471 0.4994
vn -0.0955 0.1336 -0.9864
vn -0.1080 0.0300 -0.9937
vn -0.7146 0.6002 -0.3593
vn -0.7489 0.5244 -0.4051
vn 0.5403 -0.3714 0.7550
vn 0.4438 -0.4197 0.7918
vn 0.5536 -0.3641 0.7489
vn 0.6332 -0.3163 0.7065
vn -0.2228 0.1825 -0.9576
vn -0.2225 0.0806 -0.9716
vn -0.8207 0.5209 -0.2347
vn -0.8500 0.4446 -0.2824
vn 0.8863 -0.4236 0.1873
vn 0.9298 -0.3442 0.1304
vn 0.8723 -0.4449 0.2028
vn 0.8139 -0.5204 0.2586
vn -0.3580 0.1977 -0.9125
vn -0.3466 0.0991 -0.9328
vn -0.9024 0.4176 -0.1060
vn -0.9273 0.3408 -0.1548
vn 0.7803 -0.2768 0.5609
vn 0.7112 -0.3531 0.6079
vn 0.7932 -0.2607 0.5503
vn 0.8458 -0.1871 0.4996
vn -0.4925 0.1782 -0.8519
vn -0.4713 0.0842 -0.8779
vn -0.9544 0.2974 0.0246
vn -0.9753 0.2197 -0.0246
vn 0.9806 -0.1816 -0.0735
vn 0.9875 -0.0885 -0.1304
vn 0.9766 -0.2073 -0.0573
vn 0.9551 -0.2964 0.0000
vn -0.6172 0.1254 -0.7767
vn -0.5880 0.0367 -0.8080
vn -0.9735 0.1685 0.1548
vn -0.9903 0.0896 0.1060
vn 0.9415 -0.0747 0.3285
vn 0.9089 -0.1669 0.3823
vn 0.9480 -0.0512 0.3142
vn 0.9653 0.0371 0.2586
vn -0.7241 0.0429 -0.6883
vn -0.6884 -0.0402 -0.7242
vn -0.9585 0.0399 0.2824
vn -0.9712 -0.0408 0.2347
vn 0.9415 0.0747 -0.3285
vn 0.9089 0.1669 -0.3823
vn 0.9480 0.0512 -0.3142
vn 0.9653 -0.0371 -0.2586
vn -0.8063 -0.0635 -0.5881
vn -0.7653 -0.1411 -0.6280
vn -0.9108 -0.0797 0.4052
vn -0.9189 -0.1625 0.3594
vn 0.9806 0.1816 0.0735
vn 0.9875 0.0885 0.1304
vn 0.9766 0.2073 0.0573
vn 0.9551 0.2964 0.0000
vn -0.8583 -0.1868 -0.4778
vn -0.8132 -0.2592 -0.5211
vn -0.8339 -0.1821 0.5211
vn -0.8368 -0.2674 0.4778
vn 0.7803 0.2768 -0.5609
vn 0.7112 0.3531 -0.6079
vn 0.7932 0.2607 -0.5503
vn 0.8458 0.1871 -0.4996
vn -0.8771 -0.3187 -0.3594
vn -0.8286 -0.3864 -0.4052
vn -0.7333 -0.2604 0.6280
vn -0.7300 -0.3481 0.5881
vn 0.8863 0.4236 -0.1873
vn 0.9298 0.3442 -0.1304
vn 0.8723 0.4449 -0.2028
vn 0.8139 0.5204 -0.2586
vn -0.8615 -0.4503 -0.2347
vn -0.8101 -0.5138 -0.2824
vn -0.6163 -0.3094 0.7242
vn -0.6057 -0.3993 0.6883
vn 0.5403 0.3715 -0.7550
vn 0.4438 0.4197 -0.7918
vn 0.5536 0.3641 -0.7489
vn 0.6332 0.3163 -0.7064
vn -0.8129 -0.5727 -0.1060
vn -0.7588 -0.6327 -0.1548
vn -0.4909 -0.3258 0.8080
vn -0.4718 -0.4172 0.7767
vn 0.6830 0.5861 -0.4359
vn 0.7551 0.5325 -0.3824
vn 0.6638 0.5985 -0.4486
vn 0.5760 0.6471 -0.4994
vn -0.7348 -0.6779 0.0246
vn -0.6779 -0.7348 -0.0246
vn -0.3661 -0.3086 0.8779
vn -0.3374 -0.4005 0.8519
vn 0.2857 0.3340 -0.8982
vn 0.1748 0.3470 -0.9214
vn 0.2938 0.3329 -0.8960
vn 0.3887 0.3175 -0.8649
vn -0.6327 -0.7588 0.1548
vn -0.5727 -0.8129 0.1060
vn -0.2506 -0.2591 0.9328
vn -0.2112 -0.3502 0.9126
vn 0.4251 0.6245 -0.6552
vn 0.5143 0.6046 -0.6083
vn 0.4072 0.6276 -0.6636
vn 0.3025 0.6405 -0.7059
vn -0.5138 -0.8101 0.2824
vn -0.4503 -0.8615 0.2347
vn -0.1524 -0.1811 0.9716
vn -0.1017 -0.2694 0.9576
vn 0.0839 0.1748 -0.9810
vn -0.0271 0.1520 -0.9880
vn 0.0844 0.1749 -0.9810
vn 0.1819 0.1933 -0.9641
vn -0.3864 -0.8286 0.4052
vn -0.3187 -0.8771 0.3594
vn -0.0786 -0.0799 0.9937
vn -0.0160 -0.1634 0.9864
vn 0.1824 0.5276 -0.8297
vn 0.2754 0.5442 -0.7925
vn 0.1708 0.5252 -0.8337
vn 0.0639 0.4993 -0.8641
vn -0.2592 -0.8132 0.5211
vn -0.1868 -0.8583 0.4778
vn -0.0342 0.0371 0.9987
vn 0.0402 -0.0391 0.9984
vn -0.0117 -0.0637 -0.9979
vn -0.1104 -0.1165 -0.9870
vn -0.0176 -0.0669 -0.9976
vn 0.0708 -0.0190 -0.9973
vn -0.1411 -0.7653 0.6280
vn -0.0635 -0.8063 0.5881
vn -0.0224 0.1617 0.9866
vn 0.0632 0.0953 0.9934
vn 0.0209 0.3213 -0.9468
vn 0.1048 0.3716 -0.9225
vn 0.0171 0.3189 -0.9476
vn -0.0778 0.2580 -0.9630
vn -0.0402 -0.6884 0.7242
vn 0.0429 -0.7241 0.6883
vn -0.0441 0.2851 0.9575
vn 0.0515 0.2312 0.9715
vn 0.0244 -0.3182 -0.9477
vn -0.0545 -0.3910 -0.9188
vn 0.0151 -0.3270 -0.9449
vn 0.0865 -0.2578 -0.9623
vn 0.0367 -0.5880 0.8080
vn 0.1254 -0.6172 0.7767
vn -0.0978 0.3985 0.9119
vn 0.0058 0.3595 0.9331
vn -0.0153 0.0613 -0.9980
vn 0.0494 0.1378 -0.9892
vn -0.0132 0.0638 -0.9979
vn -0.0857 -0.0230 -0.9961
vn 0.0842 -0.4713 0.8779
vn 0.1782 -0.4925 0.8519
vn -0.1799 0.4939 0.8507
vn -0.0708 0.4719 0.8788
vn 0.1828 -0.5209 -0.8338
vn 0.1254 -0.6026 -0.7881
vn 0.1734 -0.5350 -0.8269
vn 0.2248 -0.4548 -0.8617
vn 0.0991 -0.3466 0.9328
vn 0.1977 -0.3580 0.9125
vn -0.2847 0.5644 0.7749
vn -0.1731 0.5610 0.8095
vn 0.0836 -0.1817 -0.9798
vn 0.1236 -0.0896 -0.9883
vn 0.0877 -0.1725 -0.9811
vn 0.0424 -0.2729 -0.9611
vn 0.0806 -0.2225 0.9716
vn 0.1825 -0.2228 0.9576
vn -0.4048 0.6049 0.6858
vn -0.2944 0.6210 0.7264
vn 0.4216 -0.6178 -0.6638
vn 0.3820 -0.6993 -0.6042
vn 0.4138 -0.6352 -0.6521
vn 0.4476 -0.5531 -0.7027
vn 0.0300 -0.1080 0.9937
vn 0.1336 -0.0955 0.9864
vn -0.5320 0.6123 0.5849
vn -0.4266 0.6481 0.6309
vn 0.2905 -0.3421 -0.8936
vn 0.3058 -0.2456 -0.9199
vn 0.2931 -0.3271 -0.8984
vn 0.2736 -0.4292 -0.8608
vn -0.0492 -0.0111 0.9987
vn 0.0540 0.0153 0.9984
vn -0.6574 0.5858 0.4740
vn -0.5608 0.6406 0.5246
vn 0.6773 -0.5828 -0.4490
vn 0.6491 -0.6593 -0.3795
vn 0.6714 -0.6013 -0.4332
vn 0.6931 -0.5228 -0.4964
vn -0.1512 0.0615 0.9866
vn -0.0510 0.1024 0.9934
vn -0.7721 0.5271 0.3550
vn -0.6881 0.5992 0.4093
vn 0.5491 -0.3770 -0.7459
vn 0.5445 -0.2848 -0.7889
vn 0.5487 -0.3587 -0.7552
vn 0.5485 -0.4541 -0.7021
vn -0.2689 0.1044 0.9575
vn -0.1745 0.1602 0.9715
vn -0.8680 0.4400 0.2300
vn -0.8001 0.5268 0.2869
vn 0.8821 -0.4248 -0.2037
vn 0.8584 -0.4964 -0.1294
vn 0.8771 -0.4432 -0.1853
vn 0.8932 -0.3692 -0.2568
vn -0.3940 0.1145 0.9119
vn -0.3084 0.1848 0.9331
vn -0.9385 0.3302 0.1010
vn -0.8893 0.4286 0.1596
vn 0.7895 -0.2777 -0.5473
vn 0.7724 -0.1943 -0.6046
vn 0.7863 -0.2586 -0.5611
vn 0.7974 -0.3437 -0.4961
vn -0.5177 0.0911 0.8507
vn -0.4441 0.1747 0.8788
vn -0.9783 0.2052 -0.0296
vn -0.9498 0.3114 0.0296
vn 0.9811 -0.1854 0.0557
vn 0.9580 -0.2560 0.1294
vn 0.9762 -0.2037 0.0747
vn 0.9914 -0.1312 0.0000
vn -0.6311 0.0357 0.7749
vn -0.5724 0.1306 0.8095
vn -0.9844 0.0734 -0.1597
vn -0.9779 0.1833 -0.1011
vn 0.9474 -0.0717 -0.3118
vn 0.9251 0.0033 -0.3797
vn 0.9428 -0.0529 -0.3291
vn 0.9578 -0.1294 -0.2566
usemtl Twisteorus
s 1
f 1//1 2//2 3//3
f 3//3 4//4 1//1
f 5//5 6//6 7//7
f 7//7 8//8 5//5
f 9//9 10//10 11//11
f 11//11 12//12 9//9
f 13//13 2//14 14//15
f 14//15 15//16 13//13
f 6//6 16//17 17//18
f 17//18 7//7 6//6
f 10//10 18//19 19//20
f 19//20 11//11 10//10
f 13//21 20//22 21//23
f 21//23 22//24 13//21
f 16//17 23//25 24//26
f 24//26 17//18 16//17
f 18//19 25//27 26//28
f 26//28 19//20 18//19
f 27//29 20//30 28//31
f 28//31 29//32 27//29
f 23//25 30//33 31//34
f 31//34 24//26 23//25
f 25//27 32//35 33//36
f 33//36 26//28 25//27
f 27//37 34//38 35//39
f 35//39 36//40 27//37
f 30//33 37//41 38//42
f 38//42 31//34 30//33
f 32//35 39//43 40//44
f 40//44 33//36 32//35
f 41//45 34//46 42//47
f 42//47 43//48 41//45
f 37//41 44//49 45//50
f 45//50 38//42 37//41
f 39//43 46//51 47//52
f 47//52 40//44 39//43
f 41//53 48//54 49//55
f 49//55 50//56 41//53
f 44//49 51//57 52//58
f 52//58 45//50 44//49
f 46//51 53//59 54//60
f 54//60 47//52 46//51
f 55//61 48//62 56//63
f 56//63 57//64 55//61
f 51//57 58//65 59//66
f 59//66 52//58 51//57
f 53//59 60//67 61//68
f 61//68 54//60 53//59
f 55//69 62//70 63//71
f 63//71 64//72 55//69
f 58//65 65//73 66//74
f 66//74 59//66 58//65
f 60//67 67//75 68//76
f 68//76 61//68 60//67
f 69//77 62//78 70//79
f 70//79 71//80 69//77
f 65//73 72//81 73//82
f 73//82 66//74 65//73
f 67//75 74//83 75//84
f 75//84 68//76 67//75
f 69//85 76//86 77//87
f 77//87 78//88 69//85
f 72//81 79//89 80//90
f 80//90 73//82 72//81
f 74//83 81//91 82//92
f 82//92 75//84 74//83
f 83//93 76//94 84//95
f 84//95 85//96 83//93
f 79//89 86//97 87//98
f 87//98 80//90 79//89
f 81//91 88//99 89//100
f 89//100 82//92 81//91
f 83//101 90//102 91//103
f 91//103 92//104 83//101
f 86//97 93//105 94//106
f 94//106 87//98 86//97
f 88//99 95//107 96//108
f 96//108 89//100 88//99
f 97//109 90//110 98//111
f 98//111 99//112 97//109
f 93//105 100//113 101//114
f 101//114 94//106 93//105
f 95//107 102//115 103//116
f 103//116 96//108 95//107
f 97//117 104//118 105//119
f 105//119 106//120 97//117
f 100//113 107//121 108//122
f 108//122 101//114 100//113
f 102//115 109//123 110//124
f 110//124 103//116 102//115
f 111//125 104//126 112//127
f 112//127 113//128 111//125
f 107//121 114//129 115//130
f 115//130 108//122 107//121
f 109//123 116//131 117//132
f 117//132 110//124 109//123
f 111//133 118//134 119//135
f 119//135 120//136 111//133
f 114//129 121//137 122//138
f 122//138 115//130 114//129
f 116//131 123//139 124//140
f 124//140 117//132 116//131
f 125//141 118//142 126//143
f 126//143 127//144 125//141
f 121//137 128//145 129//146
f 129//146 122//138 121//137
f 123//139 130//147 131//148
f 131//148 124//140 123//139
f 125//149 132//150 133//151
f 133//151 134//152 125//149
f 128//145 135//153 136//154
f 136//154 129//146 128//145
f 130//147 137//155 138//156
f 138//156 131//148 130//147
f 139//157 132//158 140//159
f 140//159 141//160 139//157
f 135//153 142//161 143//162
f 143//162 136//154 135//153
f 137//155 144//163 145//164
f 145//164 138//156 137//155
f 139//165 146//166 147//167
f 147//167 148//168 139//165
f 142//161 149//169 150//170
f 150//170 143//162 142//161
f 144//163 151//171 152//172
f 152//172 145//164 144//163
f 153//173 146//174 154//175
f 154//175 155//176 153//173
f 149//169 156//177 157//178
f 157//178 150//170 149//169
f 151//171 158//179 159//180
f 159//180 152//172 151//171
f 153//181 160//182 161//183
f 161//183 162//184 153//181
f 156//177 163//185 164//186
f 164//186 157//178 156//177
f 158//179 165//187 166//188
f 166//188 159//180 158//179
f 167//189 160//190 168//191
f 168//191 169//192 167//189
f 163//185 170//193 171//194
f 171//194 164//186 163//185
f 165//187 172//195 173//196
f 173//196 166//188 165//187
f 167//197 174//198 175//199
f 175//199 176//200 167//197
f 170//193 177//201 178//202
f 178//202 171//194 170//193
f 172//195 179//203 180//204
f 180//204 173//196 172//195
f 181//205 174//206 182//207
f 182//207 183//208 181//205
f 177//201 184//209 185//210
f 185//210 178//202 177//201
f 179//203 186//211 187//212
f 187//212 180//204 179//203
f 181//213 188//214 189//215
f 189//215 190//216 181//213
f 184//209 191//217 192//218
f 192//218 185//210 184//209
f 186//211 193//219 194//220
f 194//220 187//212 186//211
f 195//221 188//222 196//223
f 196//223 197//224 195//221
f 191//217 198//225 199//226
f 199//226 192//218 191//217
f 193//219 200//227 201//228
f 201//228 194//220 193//219
f 195//229 202//230 203//231
f 203//231 204//232 195//229
f 198//225 205//233 206//234
f 206//234 199//226 198//225
f 200//227 207//235 208//236
f 208//236 201//228 200//227
f 209//237 202//238 210//239
f 210//239 211//240 209//237
f 205//233 212//241 213//242
f 213//242 206//234 205//233
f 207//235 214//243 215//244
f 215//244 208//236 207//235
f 209//245 216//246 217//247
f 217//247 218//248 209//245
f 212//241 219//249 220//250
f 220//250 213//242 212//241
f 214//243 221//251 222//252
f 222//252 215//244 214//243
f 223//253 216//254 224//255
f 224//255 225//256 223//253
f 219//249 226//257 227//258
f 227//258 220//250 219//249
f 221//251 228//259 229//260
f 229//260 222//252 221//251
f 223//261 230//262 231//263
f 231//263 232//264 223//261
f 226//257 233//265 234//266
f 234//266 227//258 226//257
f 228//259 235//267 236//268
f 236//268 229//260 228//259
f 237//269 230//270 238//271
f 238//271 239//272 237//269
f 233//265 240//273 241//274
f 241//274 234//266 233//265
f 235//267 242//275 243//276
f 243//276 236//268 235//267
f 237//277 244//278 245//279
f 245//279 246//280 237//277
f 240//273 247//281 248//282
f 248//282 241//274 240//273
f 242//275 249//283 250//284
f 250//284 243//276 242//275
f 251//285 244//286 252//287
f 252//287 253//288 251//285
f 247//281 254//289 255//290
f 255//290 248//282 247//281
f 249//283 256//291 257//292
f 257//292 250//284 249//283
f 251//293 258//294 259//295
f 259//295 260//296 251//293
f 254//289 261//297 262//298
f 262//298 255//290 254//289
f 256//291 263//299 264//300
f 264//300 257//292 256//291
f 265//301 258//302 266//303
f 266//303 267//304 265//301
f 261//297 268//305 269//306
f 269//306 262//298 261//297
f 263//299 270//307 271//308
f 271//308 264//300 263//299
f 265//309 272//310 273//311
f 273//311 274//312 265//309
f 268//305 275//313 276//314
f 276//314 269//306 268//305
f 270//307 277//315 278//316
f 278//316 271//308 270//307
f 279//317 272//318 280//319
f 280//319 281//320 279//317
f 275//313 282//321 283//322
f 283//322 276//314 275//313
f 277//315 284//323 285//324
f 285//324 278//316 277//315
f 279//325 286//326 287//327
f 287//327 288//328 279//325
f 282//321 289//329 290//330
f 290//330 283//322 282//321
f 284//323 291//331 292//332
f 292//332 285//324 284//323
f 293//333 286//334 294//335
f 294//335 295//336 293//333
f 289//329 296//337 297//338
f 297//338 290//330 289//329
f 291//331 298//339 299//340
f 299//340 292//332 291//331
f 293//341 300//342 301//343
f 301//343 302//344 293//341
f 296//337 303//345 304//346
f 304//346 297//338 296//337
f 298//339 305//347 306//348
f 306//348 299//340 298//339
f 307//349 300//350 308//351
f 308//351 309//352 307//349
f 303//345 310//353 311//354
f 311//354 304//346 303//345
f 305//347 312//355 313//356
f 313//356 306//348 305//347
f 307//357 314//358 315//359
f 315//359 316//360 307//357
f 310//353 317//361 318//362
f 318//362 311//354 310//353
f 312//355 319//363 320//364
f 320//364 313//356 312//355
f 321//365 314//366 322//367
f 322//367 323//368 321//365
f 317//361 324//369 325//370
f 325//370 318//362 317//361
f 319//363 326//371 327//372
f 327//372 320//364 319//363
f 321//373 328//374 329//375
f 329//375 330//376 321//373
f 324//369 331//377 332//378
f 332//378 325//370 324//369
f 326//371 333//379 334//380
f 334//380 327//372 326//371
f 1//381 328//382 335//383
f 335//383 336//384 1//381
f 331//377 5//5 8//8
f 8//8 332//378 331//377
f 333//379 9//9 12//12
f 12//12 334//380 333//379
