# Blender v2.90.0 OBJ File: 'convert2obj.blend'
# www.blender.org
mtllib Whitekey.mtl
o Whitekey
v 0.174038 -1.218109 -0.025207
v 0.174038 -1.218109 0.218119
v 0.144378 0.538213 0.214060
v 0.144378 0.538213 -0.029265
v 0.387703 0.538213 0.214060
v 0.387703 0.538213 -0.029265
v 0.417363 -1.218109 0.218119
v 0.417363 -1.218109 -0.025207
vn -0.9999 -0.0169 0.0000
vn 0.0000 1.0000 0.0000
vn 0.9999 0.0169 0.0000
vn 0.0000 -1.0000 0.0000
vn 0.0000 -0.0023 -1.0000
vn 0.0000 0.0023 1.0000
usemtl Whitekey
s off
f 1//1 2//1 3//1
f 3//1 4//1 1//1
f 4//2 3//2 5//2
f 5//2 6//2 4//2
f 6//3 5//3 7//3
f 7//3 8//3 6//3
f 2//4 1//4 8//4
f 8//4 7//4 2//4
f 8//5 1//5 4//5
f 4//5 6//5 8//5
f 5//6 3//6 2//6
f 2//6 7//6 5//6
