# Blender v3.1.2 OBJ File: ''
# www.blender.org
mtllib Wiretetrahedron.mtl
o Wiretetrahedron
v 0.000161 0.013619 0.550030
v 0.011714 0.006948 0.550030
v 0.011714 -0.006948 0.550030
v 0.000161 -0.013619 0.550030
v -0.011875 -0.006670 0.550030
v -0.011874 0.006670 0.550030
v 0.004304 0.012321 0.550744
v -0.004061 0.012109 0.550597
v 0.000060 0.006909 0.555497
v 0.012517 0.002538 0.550597
v 0.008518 0.009888 0.550744
v 0.005953 0.003506 0.555497
v 0.008518 -0.009888 0.550744
v 0.012517 -0.002538 0.550597
v 0.005953 -0.003506 0.555497
v -0.004061 -0.012109 0.550597
v 0.004304 -0.012321 0.550744
v 0.000060 -0.006909 0.555497
v -0.012823 -0.002433 0.550744
v -0.008456 -0.009571 0.550597
v -0.006013 -0.003403 0.555497
v -0.008456 0.009571 0.550597
v -0.012823 0.002433 0.550744
v -0.006013 0.003403 0.555497
v 0.001662 0.002878 0.609125
v -0.003323 0.000000 0.609125
v 0.001662 -0.002878 0.609125
v -0.000985 0.003628 0.610520
v 0.003635 0.000961 0.610520
v 0.000588 0.001018 0.613312
v -0.002650 -0.002667 0.610520
v -0.002650 0.002667 0.610520
v -0.001176 -0.000000 0.613312
v 0.003635 -0.000961 0.610520
v -0.000985 -0.003628 0.610520
v 0.000588 -0.001018 0.613312
v 0.518627 0.013619 -0.183192
v 0.514615 0.006670 -0.194539
v 0.514615 -0.006670 -0.194539
v 0.518627 -0.013619 -0.183192
v 0.522478 -0.006948 -0.172299
v 0.522478 0.006948 -0.172299
v 0.517755 0.012109 -0.187361
v 0.520681 0.012321 -0.179523
v 0.523747 0.006909 -0.185109
v 0.514972 0.002433 -0.195671
v 0.516290 0.009571 -0.191505
v 0.521723 0.003403 -0.190835
v 0.516290 -0.009571 -0.191505
v 0.514972 -0.002433 -0.195671
v 0.521723 -0.003403 -0.190835
v 0.520681 -0.012321 -0.179523
v 0.517755 -0.012109 -0.187361
v 0.523747 -0.006909 -0.185109
v 0.523281 -0.002538 -0.171732
v 0.522086 -0.009889 -0.175550
v 0.525712 -0.003506 -0.179553
v 0.522086 0.009888 -0.175550
v 0.523281 0.002538 -0.171732
v 0.525712 0.003506 -0.179553
v 0.574842 -0.002878 -0.201475
v 0.573181 0.000000 -0.206175
v 0.574842 0.002878 -0.201475
v 0.575276 -0.003628 -0.204435
v 0.576815 -0.000961 -0.200080
v 0.578432 -0.001018 -0.203883
v 0.574721 0.002667 -0.206005
v 0.574721 -0.002667 -0.206005
v 0.577844 -0.000000 -0.205546
v 0.576815 0.000961 -0.200080
v 0.575276 0.003628 -0.204435
v 0.578432 0.001018 -0.203883
v -0.255221 0.455953 -0.172299
v -0.267256 0.449005 -0.172299
v -0.271108 0.442334 -0.183192
v -0.263084 0.442334 -0.194539
v -0.251531 0.449005 -0.194539
v -0.247519 0.455953 -0.183192
v -0.259443 0.454443 -0.171732
v -0.252479 0.457084 -0.175550
v -0.259819 0.457033 -0.179553
v -0.269606 0.447195 -0.175550
v -0.263838 0.451905 -0.171732
v -0.265892 0.453527 -0.179553
v -0.269364 0.442334 -0.187361
v -0.271011 0.444762 -0.179523
v -0.267857 0.450124 -0.185109
v -0.259593 0.444762 -0.195671
v -0.266433 0.442334 -0.191505
v -0.263808 0.450124 -0.190835
v -0.249856 0.451905 -0.191505
v -0.255379 0.447195 -0.195671
v -0.257915 0.453527 -0.190835
v -0.249670 0.457084 -0.179523
v -0.248391 0.454443 -0.187361
v -0.255891 0.457033 -0.185109
v -0.286590 0.496389 -0.206175
v -0.289914 0.496389 -0.201475
v -0.284929 0.499267 -0.201475
v -0.289670 0.496389 -0.206005
v -0.285050 0.499056 -0.206005
v -0.288922 0.500428 -0.205546
v -0.289240 0.499056 -0.200080
v -0.290780 0.496389 -0.204435
v -0.290098 0.500428 -0.203883
v -0.284495 0.500017 -0.204435
v -0.287575 0.500017 -0.200080
v -0.288334 0.501446 -0.203883
v -0.267256 -0.449005 -0.172299
v -0.255221 -0.455953 -0.172299
v -0.247519 -0.455953 -0.183192
v -0.251531 -0.449005 -0.194539
v -0.263084 -0.442334 -0.194539
v -0.271108 -0.442334 -0.183192
v -0.263838 -0.451905 -0.171732
v -0.269606 -0.447195 -0.175550
v -0.265892 -0.453527 -0.179553
v -0.252479 -0.457084 -0.175550
v -0.259443 -0.454443 -0.171732
v -0.259819 -0.457033 -0.179553
v -0.248391 -0.454443 -0.187361
v -0.249670 -0.457084 -0.179523
v -0.255890 -0.457033 -0.185109
v -0.255379 -0.447195 -0.195671
v -0.249856 -0.451905 -0.191505
v -0.257915 -0.453527 -0.190835
v -0.266433 -0.442334 -0.191505
v -0.259593 -0.444762 -0.195671
v -0.263808 -0.450124 -0.190835
v -0.271011 -0.444762 -0.179523
v -0.269364 -0.442334 -0.187361
v -0.267857 -0.450124 -0.185109
v -0.286590 -0.496389 -0.206175
v -0.284929 -0.499267 -0.201475
v -0.289914 -0.496389 -0.201475
v -0.285050 -0.499056 -0.206005
v -0.289670 -0.496389 -0.206005
v -0.288922 -0.500428 -0.205546
v -0.287575 -0.500017 -0.200080
v -0.284495 -0.500017 -0.204435
v -0.288334 -0.501446 -0.203883
v -0.290780 -0.496389 -0.204435
v -0.289240 -0.499056 -0.200080
v -0.290098 -0.500428 -0.203883
v 0.000792 0.014713 0.548352
v 0.006993 0.012112 0.562971
v 0.012345 0.008042 0.548352
v 0.004912 0.013535 0.552043
v 0.004936 0.013415 0.549066
v 0.006684 0.013289 0.551044
v 0.007327 0.012496 0.557339
v 0.007158 0.012593 0.557339
v 0.007491 0.012975 0.553712
v 0.009150 0.010982 0.549066
v 0.009266 0.011021 0.552043
v 0.008166 0.012433 0.551044
v 0.533106 0.012112 -0.181064
v 0.517255 0.014713 -0.182037
v 0.521106 0.008042 -0.171145
v 0.527850 0.012593 -0.179031
v 0.527906 0.012496 -0.178871
v 0.524542 0.012975 -0.177508
v 0.519310 0.013415 -0.178368
v 0.522109 0.013535 -0.179384
v 0.521757 0.013289 -0.177380
v 0.523560 0.011021 -0.175278
v 0.520714 0.010982 -0.174395
v 0.522251 0.012433 -0.175982
v -0.256063 0.467739 -0.181064
v -0.253588 0.455313 -0.171145
v -0.245886 0.455313 -0.182037
v -0.253132 0.463428 -0.178871
v -0.253019 0.463428 -0.179031
v -0.251034 0.460754 -0.177508
v -0.250846 0.456443 -0.174395
v -0.252235 0.458927 -0.175278
v -0.250359 0.458499 -0.175982
v -0.249332 0.458927 -0.179384
v -0.248037 0.456443 -0.178368
v -0.249370 0.458499 -0.177380
v -0.013137 -0.006670 0.548352
v -0.013986 0.000000 0.562971
v -0.013137 0.006670 0.548352
v -0.014178 -0.002514 0.552044
v -0.014086 -0.002433 0.549066
v -0.014850 -0.000856 0.551044
v -0.014485 0.000098 0.557339
v -0.014485 -0.000098 0.557339
v -0.014982 0.000000 0.553712
v -0.014086 0.002433 0.549066
v -0.014178 0.002514 0.552043
v -0.014850 0.000856 0.551044
v -0.277042 0.455627 -0.181064
v -0.271369 0.440600 -0.182037
v -0.267518 0.447270 -0.171145
v -0.274831 0.450835 -0.179031
v -0.274775 0.450933 -0.178871
v -0.273508 0.447779 -0.177508
v -0.271273 0.443028 -0.178368
v -0.272776 0.445392 -0.179384
v -0.272387 0.445211 -0.177380
v -0.271325 0.447906 -0.175278
v -0.269868 0.445461 -0.174395
v -0.271893 0.446066 -0.175982
v -0.277042 -0.455627 -0.181064
v -0.267518 -0.447270 -0.171145
v -0.271369 -0.440600 -0.182037
v -0.274775 -0.450933 -0.178871
v -0.274831 -0.450835 -0.179031
v -0.273508 -0.447779 -0.177508
v -0.269868 -0.445461 -0.174395
v -0.271325 -0.447906 -0.175278
v -0.271893 -0.446066 -0.175982
v -0.272776 -0.445392 -0.179384
v -0.271273 -0.443028 -0.178368
v -0.272387 -0.445211 -0.177380
v 0.012345 -0.008042 0.548352
v 0.006993 -0.012112 0.562971
v 0.000792 -0.014713 0.548352
v 0.009266 -0.011021 0.552043
v 0.009150 -0.010982 0.549066
v 0.008166 -0.012433 0.551044
v 0.007158 -0.012593 0.557339
v 0.007327 -0.012496 0.557339
v 0.007491 -0.012975 0.553712
v 0.004936 -0.013415 0.549066
v 0.004912 -0.013535 0.552043
v 0.006684 -0.013289 0.551044
v -0.256063 -0.467739 -0.181064
v -0.245886 -0.455313 -0.182037
v -0.253588 -0.455313 -0.171145
v -0.253019 -0.463428 -0.179031
v -0.253132 -0.463428 -0.178871
v -0.251034 -0.460754 -0.177508
v -0.248037 -0.456443 -0.178368
v -0.249332 -0.458927 -0.179384
v -0.249370 -0.458499 -0.177380
v -0.252235 -0.458927 -0.175278
v -0.250846 -0.456443 -0.174395
v -0.250359 -0.458499 -0.175982
v 0.533106 -0.012112 -0.181064
v 0.521106 -0.008042 -0.171145
v 0.517255 -0.014713 -0.182037
v 0.527907 -0.012496 -0.178871
v 0.527850 -0.012593 -0.179031
v 0.524542 -0.012975 -0.177508
v 0.520714 -0.010982 -0.174395
v 0.523560 -0.011021 -0.175278
v 0.522251 -0.012433 -0.175982
v 0.522109 -0.013535 -0.179384
v 0.519310 -0.013415 -0.178368
v 0.521757 -0.013289 -0.177380
v 0.512612 0.006670 -0.195170
v 0.526112 0.000000 -0.200843
v 0.512612 -0.006670 -0.195170
v 0.515746 0.002514 -0.197381
v 0.512969 0.002433 -0.196302
v 0.514579 0.000856 -0.197682
v 0.520636 -0.000098 -0.199436
v 0.520636 0.000098 -0.199436
v 0.517051 0.000000 -0.198696
v 0.512969 -0.002433 -0.196302
v 0.515746 -0.002514 -0.197381
v 0.514579 -0.000856 -0.197682
v -0.263056 -0.455627 -0.200843
v -0.262083 -0.440600 -0.195170
v -0.250529 -0.447270 -0.195170
v -0.260403 -0.450835 -0.199436
v -0.260233 -0.450933 -0.199436
v -0.258525 -0.447779 -0.198696
v -0.258591 -0.443028 -0.196302
v -0.260050 -0.445392 -0.197381
v -0.258031 -0.445211 -0.197682
v -0.255696 -0.447906 -0.197381
v -0.254378 -0.445461 -0.196302
v -0.256548 -0.446067 -0.197682
v -0.263056 0.455627 -0.200843
v -0.250529 0.447270 -0.195170
v -0.262083 0.440600 -0.195170
v -0.260233 0.450933 -0.199436
v -0.260403 0.450835 -0.199436
v -0.258525 0.447779 -0.198696
v -0.254378 0.445461 -0.196302
v -0.255696 0.447906 -0.197381
v -0.256548 0.446067 -0.197682
v -0.260050 0.445392 -0.197381
v -0.258591 0.443028 -0.196302
v -0.258031 0.445211 -0.197682
v -0.003142 0.008745 0.566287
v -0.006002 0.007093 0.566287
v -0.006002 -0.007093 0.566287
v -0.003142 -0.008745 0.566287
v 0.009144 -0.001652 0.566287
v 0.009144 0.001652 0.566287
v -0.005244 0.010010 0.567805
v 0.000333 0.005761 0.566172
v -0.001334 0.004255 0.573294
v -0.005156 0.002592 0.566172
v -0.006047 0.009547 0.567805
v -0.003018 0.003283 0.573294
v -0.006047 -0.009547 0.567805
v -0.005156 -0.002592 0.566172
v -0.003018 -0.003283 0.573294
v 0.000333 -0.005761 0.566172
v -0.005244 -0.010010 0.567805
v -0.001334 -0.004255 0.573294
v 0.011291 -0.000463 0.567805
v 0.004823 -0.003169 0.566172
v 0.004352 -0.000972 0.573294
v 0.004823 0.003169 0.566172
v 0.011291 0.000463 0.567805
v 0.004352 0.000972 0.573294
v -0.003338 0.008101 0.578011
v 0.008685 0.001160 0.578011
v 0.008685 -0.001160 0.578011
v -0.003338 -0.008101 0.578011
v -0.005347 -0.006941 0.578011
v -0.005347 0.006941 0.578011
v -0.000014 0.005046 0.577916
v -0.005223 0.009589 0.579588
v -0.001464 0.003868 0.585225
v 0.010916 0.000271 0.579588
v 0.004377 0.002511 0.577916
v 0.004082 0.000666 0.585225
v 0.004377 -0.002511 0.577916
v 0.010916 -0.000271 0.579588
v 0.004082 -0.000666 0.585225
v -0.005223 -0.009589 0.579588
v -0.000014 -0.005046 0.577916
v -0.001464 -0.003868 0.585225
v -0.004363 -0.002535 0.577916
v -0.005693 -0.009318 0.579588
v -0.002618 -0.003202 0.585225
v -0.005693 0.009318 0.579588
v -0.004363 0.002535 0.577916
v -0.002618 0.003202 0.585225
v 0.532853 0.008745 -0.191724
v 0.536949 0.001652 -0.180141
v 0.536949 -0.001652 -0.180141
v 0.532853 -0.008745 -0.191724
v 0.531900 -0.007093 -0.194421
v 0.531900 0.007093 -0.194421
v 0.533903 0.005761 -0.188410
v 0.533584 0.010010 -0.194213
v 0.540062 0.004255 -0.192356
v 0.539096 0.000463 -0.178623
v 0.535400 0.003169 -0.184177
v 0.541958 0.000972 -0.186995
v 0.535400 -0.003169 -0.184177
v 0.539096 -0.000463 -0.178623
v 0.541958 -0.000972 -0.186995
v 0.533584 -0.010010 -0.194213
v 0.533903 -0.005761 -0.188410
v 0.540062 -0.004255 -0.192356
v 0.532074 -0.002592 -0.193585
v 0.533316 -0.009547 -0.194969
v 0.539501 -0.003283 -0.193943
v 0.533316 0.009547 -0.194969
v 0.532074 0.002592 -0.193585
v 0.539501 0.003283 -0.193943
v 0.543841 0.008101 -0.195817
v 0.543172 0.006941 -0.197711
v 0.543172 -0.006941 -0.197711
v 0.543841 -0.008101 -0.195817
v 0.547849 -0.001160 -0.184482
v 0.547849 0.001160 -0.184482
v 0.544700 0.009589 -0.198120
v 0.544859 0.005046 -0.192652
v 0.551267 0.003868 -0.196455
v 0.543410 0.002535 -0.196752
v 0.544544 0.009318 -0.198563
v 0.550883 0.003202 -0.197543
v 0.544544 -0.009318 -0.198563
v 0.543410 -0.002535 -0.196752
v 0.550883 -0.003202 -0.197543
v 0.544859 -0.005046 -0.192652
v 0.544700 -0.009589 -0.198120
v 0.551267 -0.003868 -0.196455
v 0.550080 -0.000271 -0.182905
v 0.546323 -0.002511 -0.188512
v 0.553116 -0.000666 -0.191227
v 0.546323 0.002511 -0.188512
v 0.550080 0.000271 -0.182905
v 0.553116 0.000666 -0.191227
v -0.267044 0.465837 -0.180141
v -0.258854 0.465837 -0.191724
v -0.259807 0.464185 -0.194421
v -0.272093 0.457092 -0.194421
v -0.274000 0.457092 -0.191724
v -0.269905 0.464185 -0.180141
v -0.264955 0.465254 -0.184177
v -0.269147 0.467102 -0.178623
v -0.270137 0.469835 -0.186995
v -0.258123 0.467102 -0.194213
v -0.261962 0.465254 -0.188410
v -0.266346 0.469835 -0.192356
v -0.263792 0.462085 -0.193585
v -0.258390 0.466639 -0.194969
v -0.266907 0.468863 -0.193943
v -0.274926 0.457092 -0.194969
v -0.268282 0.459493 -0.193585
v -0.272594 0.465580 -0.193943
v -0.271941 0.459493 -0.188410
v -0.275461 0.457092 -0.194213
v -0.273716 0.465580 -0.192356
v -0.269949 0.466639 -0.178623
v -0.270445 0.462085 -0.184177
v -0.271821 0.468863 -0.186995
v -0.272920 0.475031 -0.184482
v -0.274929 0.473871 -0.184482
v -0.278937 0.466930 -0.195817
v -0.277597 0.466930 -0.197711
v -0.265574 0.473871 -0.197711
v -0.264905 0.475031 -0.195817
v -0.274805 0.476519 -0.182905
v -0.270987 0.474385 -0.188512
v -0.275981 0.479346 -0.191227
v -0.275336 0.471874 -0.188512
v -0.275275 0.476247 -0.182905
v -0.277135 0.478679 -0.191227
v -0.280654 0.466930 -0.198120
v -0.276799 0.469339 -0.192652
v -0.278983 0.475478 -0.196455
v -0.273900 0.469339 -0.196752
v -0.280341 0.466930 -0.198563
v -0.278214 0.475478 -0.197543
v -0.264202 0.476247 -0.198563
v -0.269509 0.471874 -0.196752
v -0.272668 0.478679 -0.197543
v -0.268060 0.474385 -0.192652
v -0.264046 0.476519 -0.198120
v -0.272284 0.479346 -0.196455
v -0.269905 -0.464185 -0.180141
v -0.274000 -0.457092 -0.191724
v -0.272093 -0.457092 -0.194421
v -0.259807 -0.464185 -0.194421
v -0.258854 -0.465837 -0.191724
v -0.267044 -0.465837 -0.180141
v -0.270445 -0.462085 -0.184177
v -0.269949 -0.466639 -0.178623
v -0.271820 -0.468863 -0.186995
v -0.275461 -0.457092 -0.194213
v -0.271941 -0.459493 -0.188410
v -0.273716 -0.465580 -0.192356
v -0.268282 -0.459493 -0.193585
v -0.274926 -0.457092 -0.194969
v -0.272594 -0.465580 -0.193943
v -0.258391 -0.466639 -0.194969
v -0.263792 -0.462085 -0.193585
v -0.266907 -0.468863 -0.193943
v -0.261962 -0.465254 -0.188410
v -0.258123 -0.467102 -0.194213
v -0.266346 -0.469835 -0.192356
v -0.269147 -0.467102 -0.178623
v -0.264955 -0.465254 -0.184177
v -0.270137 -0.469835 -0.186995
v -0.274929 -0.473871 -0.184482
v -0.272920 -0.475031 -0.184482
v -0.264905 -0.475031 -0.195817
v -0.265574 -0.473871 -0.197711
v -0.277597 -0.466930 -0.197711
v -0.278936 -0.466930 -0.195817
v -0.275275 -0.476247 -0.182905
v -0.275336 -0.471874 -0.188512
v -0.277135 -0.478680 -0.191227
v -0.270987 -0.474385 -0.188512
v -0.274805 -0.476519 -0.182905
v -0.275981 -0.479346 -0.191227
v -0.264046 -0.476519 -0.198120
v -0.268060 -0.474385 -0.192652
v -0.272284 -0.479346 -0.196455
v -0.269509 -0.471874 -0.196752
v -0.264203 -0.476247 -0.198563
v -0.272668 -0.478679 -0.197543
v -0.280341 -0.466930 -0.198563
v -0.273900 -0.469339 -0.196752
v -0.278214 -0.475477 -0.197543
v -0.276799 -0.469339 -0.192652
v -0.280654 -0.466930 -0.198120
v -0.278983 -0.475478 -0.196455
v -0.003142 0.008745 0.566287
v 0.009144 0.001652 0.566287
v 0.009253 0.002143 0.566295
v -0.002770 0.009085 0.566295
v 0.000333 0.005761 0.566172
v -0.001271 0.007092 0.564582
v 0.001155 0.005153 0.564888
v 0.006777 0.002445 0.564582
v 0.004823 0.003169 0.566172
v 0.003885 0.003576 0.564888
v 0.004945 0.003494 0.566200
v 0.006785 0.002478 0.564582
v 0.003892 0.003597 0.564890
v -0.001247 0.007114 0.564582
v 0.000554 0.006029 0.566200
v 0.001169 0.005169 0.564890
v 0.536993 0.002143 -0.180042
v 0.536948 0.001652 -0.180141
v 0.532853 0.008745 -0.191724
v 0.532985 0.009085 -0.191377
v 0.534555 0.002478 -0.181798
v 0.535467 0.003494 -0.184072
v 0.533881 0.003597 -0.184627
v 0.535400 0.003169 -0.184177
v 0.534552 0.002445 -0.181804
v 0.533877 0.003576 -0.184633
v 0.531869 0.007092 -0.189393
v 0.533903 0.005761 -0.188410
v 0.532967 0.005153 -0.187208
v 0.534003 0.006029 -0.188211
v 0.531878 0.007114 -0.189369
v 0.532973 0.005169 -0.187195
v -0.258625 0.466121 -0.191377
v -0.258854 0.465837 -0.191724
v -0.267044 0.465837 -0.180141
v -0.266640 0.466121 -0.180042
v -0.259778 0.464177 -0.189369
v -0.261780 0.465475 -0.188211
v -0.262010 0.464153 -0.187194
v -0.261962 0.465254 -0.188410
v -0.259793 0.464158 -0.189393
v -0.262021 0.464139 -0.187208
v -0.265159 0.464158 -0.181804
v -0.264955 0.465254 -0.184177
v -0.263841 0.464139 -0.184633
v -0.264707 0.465475 -0.184072
v -0.265132 0.464177 -0.181797
v -0.263825 0.464153 -0.184627
v -0.006002 -0.007093 0.566287
v -0.006002 0.007093 0.566287
v -0.006483 0.006941 0.566295
v -0.006483 -0.006941 0.566295
v -0.005156 -0.002592 0.566172
v -0.005506 -0.004647 0.564582
v -0.005040 -0.001576 0.564888
v -0.005506 0.004647 0.564582
v -0.005156 0.002592 0.566172
v -0.005040 0.001576 0.564888
v -0.005498 0.002535 0.566200
v -0.005538 0.004637 0.564582
v -0.005061 0.001572 0.564890
v -0.005538 -0.004637 0.564582
v -0.005498 -0.002535 0.566200
v -0.005061 -0.001572 0.564890
v -0.270353 0.463978 -0.180042
v -0.269905 0.464185 -0.180141
v -0.274000 0.457092 -0.191724
v -0.274360 0.457036 -0.191377
v -0.269423 0.461699 -0.181798
v -0.270759 0.461981 -0.184072
v -0.270055 0.460556 -0.184627
v -0.270445 0.462085 -0.184177
v -0.269393 0.461713 -0.181804
v -0.270035 0.460563 -0.184633
v -0.272076 0.457066 -0.189393
v -0.271941 0.459493 -0.188410
v -0.270946 0.458987 -0.187207
v -0.272223 0.459446 -0.188211
v -0.272100 0.457062 -0.189369
v -0.270963 0.458984 -0.187194
v -0.274360 -0.457036 -0.191377
v -0.274000 -0.457092 -0.191724
v -0.269905 -0.464185 -0.180141
v -0.270353 -0.463978 -0.180042
v -0.272100 -0.457062 -0.189369
v -0.272223 -0.459446 -0.188211
v -0.270963 -0.458984 -0.187194
v -0.271941 -0.459493 -0.188410
v -0.272076 -0.457066 -0.189393
v -0.270946 -0.458987 -0.187207
v -0.269393 -0.461713 -0.181804
v -0.270444 -0.462085 -0.184177
v -0.270035 -0.460563 -0.184633
v -0.270759 -0.461981 -0.184072
v -0.269423 -0.461699 -0.181797
v -0.270055 -0.460556 -0.184627
v 0.009144 -0.001652 0.566287
v -0.003142 -0.008745 0.566287
v -0.002770 -0.009085 0.566295
v 0.009253 -0.002143 0.566295
v 0.004823 -0.003169 0.566172
v 0.006777 -0.002445 0.564582
v 0.003885 -0.003576 0.564888
v -0.001271 -0.007092 0.564582
v 0.000333 -0.005761 0.566172
v 0.001155 -0.005153 0.564888
v 0.000554 -0.006029 0.566200
v -0.001247 -0.007114 0.564582
v 0.001169 -0.005169 0.564890
v 0.006785 -0.002478 0.564582
v 0.004945 -0.003494 0.566200
v 0.003892 -0.003597 0.564890
v -0.266640 -0.466121 -0.180042
v -0.267044 -0.465837 -0.180141
v -0.258854 -0.465837 -0.191724
v -0.258625 -0.466121 -0.191377
v -0.265132 -0.464177 -0.181797
v -0.264707 -0.465475 -0.184072
v -0.263825 -0.464153 -0.184627
v -0.264955 -0.465254 -0.184177
v -0.265159 -0.464158 -0.181804
v -0.263841 -0.464139 -0.184633
v -0.259793 -0.464158 -0.189393
v -0.261962 -0.465254 -0.188410
v -0.262021 -0.464139 -0.187208
v -0.261780 -0.465475 -0.188211
v -0.259778 -0.464177 -0.189369
v -0.262010 -0.464153 -0.187194
v 0.532985 -0.009085 -0.191377
v 0.532853 -0.008745 -0.191724
v 0.536949 -0.001652 -0.180141
v 0.536993 -0.002143 -0.180042
v 0.531878 -0.007114 -0.189369
v 0.534003 -0.006029 -0.188211
v 0.532973 -0.005169 -0.187195
v 0.533903 -0.005761 -0.188410
v 0.531869 -0.007092 -0.189393
v 0.532967 -0.005153 -0.187208
v 0.534552 -0.002445 -0.181804
v 0.535400 -0.003169 -0.184177
v 0.533877 -0.003576 -0.184633
v 0.535467 -0.003494 -0.184072
v 0.534555 -0.002478 -0.181797
v 0.533881 -0.003597 -0.184627
v 0.531900 0.007093 -0.194421
v 0.531900 -0.007093 -0.194421
v 0.531748 -0.006941 -0.194877
v 0.531748 0.006941 -0.194877
v 0.532074 0.002592 -0.193585
v 0.530457 0.004647 -0.193385
v 0.530902 0.001576 -0.193047
v 0.530457 -0.004647 -0.193385
v 0.532074 -0.002592 -0.193585
v 0.530902 -0.001576 -0.193047
v 0.531986 -0.002535 -0.193917
v 0.530447 -0.004637 -0.193415
v 0.530896 -0.001572 -0.193068
v 0.530447 0.004637 -0.193415
v 0.531986 0.002535 -0.193917
v 0.530896 0.001572 -0.193068
v -0.259862 -0.463978 -0.194877
v -0.259807 -0.464185 -0.194421
v -0.272093 -0.457092 -0.194421
v -0.271885 -0.457036 -0.194877
v -0.261208 -0.461699 -0.193415
v -0.263797 -0.461981 -0.193917
v -0.264087 -0.460556 -0.193068
v -0.263792 -0.462085 -0.193585
v -0.261204 -0.461713 -0.193385
v -0.264086 -0.460563 -0.193047
v -0.269253 -0.457066 -0.193385
v -0.268282 -0.459493 -0.193585
v -0.266816 -0.458986 -0.193047
v -0.268188 -0.459446 -0.193917
v -0.269239 -0.457062 -0.193415
v -0.266810 -0.458984 -0.193068
v -0.271885 0.457036 -0.194877
v -0.272093 0.457092 -0.194421
v -0.259807 0.464185 -0.194421
v -0.259862 0.463978 -0.194877
v -0.269239 0.457062 -0.193415
v -0.268188 0.459446 -0.193917
v -0.266810 0.458984 -0.193068
v -0.268282 0.459493 -0.193585
v -0.269253 0.457066 -0.193385
v -0.266816 0.458986 -0.193047
v -0.261204 0.461713 -0.193385
v -0.263792 0.462085 -0.193585
v -0.264086 0.460563 -0.193047
v -0.263797 0.461981 -0.193917
v -0.261208 0.461699 -0.193415
v -0.264087 0.460556 -0.193068
vn -0.7543 0.3828 -0.5334
vn -0.9563 -0.1913 0.2209
vn -0.2667 -0.4619 0.8459
vn 0.4229 -0.7325 0.5334
vn 0.7086 -0.4619 -0.5334
vn 0.3125 0.9239 0.2209
vn 0.7086 0.4619 -0.5334
vn -0.9563 0.1913 0.2209
vn 0.5334 0.0000 0.8459
vn 0.2209 0.0000 -0.9753
vn 0.0457 0.8446 -0.5334
vn 0.6439 -0.7325 0.2209
vn -0.7543 -0.3827 -0.5334
vn 0.3125 -0.9239 0.2209
vn -0.2667 0.4619 0.8459
vn -0.1105 0.1913 -0.9753
vn 0.6439 0.7325 0.2209
vn -0.4876 -0.8446 0.2210
vn 0.4229 0.7325 0.5334
vn -0.1105 -0.1913 -0.9753
vn -0.8459 0.0000 0.5334
vn 0.8715 0.4650 0.1558
vn -0.4876 0.8446 0.2210
vn 0.9753 0.0000 0.2209
vn -0.8218 -0.5697 0.0000
vn -0.1259 0.9880 -0.0890
vn 0.3871 -0.5848 0.7129
vn 0.2223 0.3850 0.8958
vn 0.2009 0.9693 0.1415
vn 0.9186 0.3850 -0.0890
vn -0.8968 0.4425 -0.0019
vn 0.9186 -0.3850 -0.0890
vn 0.5558 0.0000 -0.8313
vn -0.4445 0.0000 0.8958
vn 0.9657 -0.2596 0.0000
vn -0.7927 0.6031 -0.0890
vn 0.0872 -0.9941 0.0647
vn -0.1259 -0.9880 -0.0890
vn -0.1048 0.1867 -0.9768
vn 0.2223 -0.3850 0.8958
vn -0.7927 -0.6031 -0.0890
vn 0.1047 0.3555 0.9288
vn -0.0029 -0.3726 -0.9280
vn -0.5591 -0.0000 0.8291
vn 0.6964 0.0000 -0.7177
vn -0.3482 -0.6031 -0.7177
vn -0.3482 0.6031 -0.7177
vn 0.0296 -0.6316 -0.7747
vn -0.2862 -0.4957 -0.8200
vn -0.5618 -0.2902 -0.7747
vn -0.5982 -0.0000 -0.8014
vn -0.5618 0.2902 -0.7747
vn -0.2862 0.4957 -0.8200
vn 0.0296 0.6316 -0.7747
vn 0.2991 0.5180 -0.8014
vn 0.5322 0.3415 -0.7747
vn 0.5724 -0.0000 -0.8200
vn 0.5322 -0.3415 -0.7747
vn 0.2991 -0.5180 -0.8014
vn 0.0000 0.0000 -1.0000
vn 0.4449 0.7706 0.4563
vn -0.3378 0.5851 0.7373
vn -0.8898 0.0000 0.4564
vn -0.3378 -0.5851 0.7373
vn 0.4449 -0.7706 0.4563
vn 0.6756 0.0000 0.7373
vn -0.0000 0.0000 1.0000
vn -0.7205 -0.6316 0.2862
vn -0.6558 -0.5180 0.5491
vn -0.5530 -0.3415 0.7600
vn -0.5823 -0.0000 0.8129
vn -0.5530 0.3415 0.7600
vn -0.6558 0.5180 0.5491
vn -0.7205 0.6316 0.2862
vn -0.8685 0.4957 0.0035
vn -0.9177 0.2902 -0.2714
vn -0.9549 -0.0000 -0.2968
vn -0.9177 -0.2902 -0.2714
vn -0.8685 -0.4957 0.0035
vn -0.9428 -0.0000 0.3333
vn 0.5786 -0.7706 0.2673
vn 0.5825 -0.5851 -0.5642
vn 0.1337 0.0000 -0.9910
vn 0.5825 0.5851 -0.5642
vn 0.5785 0.7706 0.2673
vn 0.9203 -0.0000 0.3912
vn 0.9428 -0.0000 -0.3333
vn 0.2075 -0.9398 -0.2714
vn 0.4775 -0.8270 -0.2969
vn 0.7101 -0.6496 -0.2714
vn 0.8635 -0.5043 0.0035
vn 0.9073 -0.3082 0.2862
vn 0.7766 -0.3089 0.5491
vn 0.5722 -0.3082 0.7600
vn 0.2912 -0.5043 0.8130
vn -0.0192 -0.6496 0.7600
vn -0.1207 -0.8270 0.5491
vn -0.1867 -0.9398 0.2862
vn 0.0050 -1.0000 0.0035
vn 0.4714 -0.8165 0.3333
vn -0.0668 0.1157 -0.9910
vn -0.7980 0.2119 -0.5642
vn -0.9566 0.1157 0.2673
vn -0.4602 0.7970 0.3912
vn 0.3781 0.8863 0.2673
vn 0.2154 0.7970 -0.5642
vn -0.4714 0.8165 -0.3333
vn 0.7101 0.6496 -0.2714
vn 0.4775 0.8270 -0.2969
vn 0.2075 0.9398 -0.2714
vn 0.0050 1.0000 0.0035
vn -0.1867 0.9398 0.2862
vn -0.1207 0.8270 0.5491
vn -0.0192 0.6496 0.7600
vn 0.2912 0.5043 0.8129
vn 0.5722 0.3082 0.7600
vn 0.7766 0.3089 0.5491
vn 0.9073 0.3082 0.2862
vn 0.8635 0.5043 0.0035
vn 0.4714 0.8165 0.3333
vn -0.0668 -0.1158 -0.9910
vn 0.2154 -0.7970 -0.5642
vn 0.3781 -0.8863 0.2673
vn -0.4602 -0.7970 0.3912
vn -0.9566 -0.1157 0.2673
vn -0.7979 -0.2119 -0.5642
vn -0.4714 -0.8165 -0.3333
vn 0.2507 0.9674 -0.0370
vn 0.1507 0.9838 0.0973
vn 0.4972 0.8610 0.1070
vn 0.7767 0.6224 0.0973
vn 0.7124 0.7008 -0.0370
vn 0.4664 0.8078 -0.3605
vn 0.4994 0.8650 -0.0494
vn 0.2666 0.8611 0.4330
vn 0.1420 0.9838 0.1096
vn 0.0487 0.9674 0.2487
vn -0.1845 0.8078 0.5599
vn 0.2026 0.7008 0.6840
vn 0.3506 0.6224 0.6998
vn 0.1198 0.8650 0.4873
vn 0.6124 0.6614 0.4330
vn 0.3637 0.6148 0.6998
vn 0.5056 0.5258 0.6840
vn 0.7918 0.2441 0.5599
vn 0.8134 0.5258 0.2487
vn 0.7810 0.6148 0.1096
vn 0.6892 0.5363 0.4873
vn -0.9631 -0.2666 -0.0370
vn -0.9273 -0.3614 0.0973
vn -0.9943 -0.0001 0.1070
vn -0.9273 0.3614 0.0973
vn -0.9631 0.2666 -0.0370
vn -0.9328 -0.0000 -0.3605
vn -0.9988 -0.0000 -0.0494
vn -0.8791 -0.1996 0.4329
vn -0.9230 -0.3689 0.1096
vn -0.8621 -0.4415 0.2487
vn -0.6073 -0.5636 0.5599
vn -0.7082 -0.1749 0.6840
vn -0.7143 -0.0075 0.6998
vn -0.8090 -0.3287 0.4873
vn -0.8790 0.1996 0.4330
vn -0.7143 0.0075 0.6998
vn -0.7082 0.1749 0.6840
vn -0.6073 0.5636 0.5599
vn -0.8621 0.4415 0.2487
vn -0.9230 0.3689 0.1096
vn -0.8090 0.3287 0.4873
vn 0.7124 -0.7008 -0.0370
vn 0.7766 -0.6224 0.0973
vn 0.4972 -0.8610 0.1070
vn 0.1507 -0.9838 0.0973
vn 0.2507 -0.9674 -0.0370
vn 0.4664 -0.8078 -0.3605
vn 0.4994 -0.8650 -0.0495
vn 0.6123 -0.6614 0.4331
vn 0.7810 -0.6148 0.1096
vn 0.8134 -0.5258 0.2487
vn 0.7918 -0.2442 0.5599
vn 0.5056 -0.5258 0.6840
vn 0.3637 -0.6148 0.6998
vn 0.6891 -0.5363 0.4873
vn 0.2665 -0.8611 0.4330
vn 0.3506 -0.6224 0.6998
vn 0.2026 -0.7008 0.6840
vn -0.1844 -0.8078 0.5599
vn 0.0487 -0.9674 0.2487
vn 0.1420 -0.9838 0.1096
vn 0.1198 -0.8650 0.4873
vn -0.3559 0.2666 -0.8957
vn -0.2173 0.3614 -0.9067
vn -0.2306 0.0000 -0.9731
vn -0.2174 -0.3614 -0.9067
vn -0.3559 -0.2666 -0.8957
vn -0.6508 0.0000 -0.7592
vn -0.3795 0.0000 -0.9252
vn 0.1152 0.1997 -0.9731
vn -0.2043 0.3689 -0.9067
vn -0.0529 0.4415 -0.8957
vn 0.3254 0.5636 -0.7592
vn 0.4088 0.1749 -0.8957
vn 0.4217 0.0075 -0.9067
vn 0.1898 0.3287 -0.9252
vn 0.1152 -0.1997 -0.9731
vn 0.4217 -0.0075 -0.9067
vn 0.4088 -0.1749 -0.8957
vn 0.3254 -0.5636 -0.7592
vn -0.0529 -0.4415 -0.8957
vn -0.2043 -0.3689 -0.9067
vn 0.1898 -0.3287 -0.9252
vn 0.6322 0.7161 0.2958
vn -0.3102 0.5373 0.7843
vn -0.9363 -0.1894 0.2958
vn -0.9578 0.0000 0.2876
vn -0.9363 0.1894 0.2958
vn -0.3102 -0.5373 0.7843
vn 0.6322 -0.7161 0.2958
vn 0.4789 -0.8294 0.2876
vn 0.3041 -0.9055 0.2958
vn 0.6204 0.0000 0.7843
vn 0.3041 0.9055 0.2958
vn 0.4789 0.8294 0.2876
vn -0.6806 -0.6952 -0.2312
vn -0.4863 -0.8424 -0.2322
vn -0.2618 -0.9370 -0.2312
vn -0.6363 0.0000 -0.7714
vn -0.2618 0.9370 -0.2312
vn -0.4863 0.8424 -0.2322
vn -0.6806 0.6952 -0.2312
vn 0.3181 0.5511 -0.7714
vn 0.9424 -0.2418 -0.2312
vn 0.9727 0.0000 -0.2322
vn 0.9424 0.2418 -0.2312
vn 0.3182 -0.5510 -0.7714
vn 0.4896 0.7161 0.4974
vn 0.4307 0.8295 0.3556
vn 0.3803 0.9055 0.1881
vn 0.9462 0.0000 0.3235
vn 0.3803 -0.9055 0.1881
vn 0.4307 -0.8294 0.3556
vn 0.4896 -0.7161 0.4974
vn 0.6360 -0.5373 -0.5539
vn -0.0332 0.1894 -0.9813
vn -0.0481 0.0000 -0.9988
vn -0.0332 -0.1894 -0.9813
vn 0.6360 0.5373 -0.5539
vn -0.4448 -0.6952 -0.5646
vn -0.6212 -0.5510 0.5572
vn 0.0962 0.2418 0.9655
vn 0.1053 0.0000 0.9944
vn 0.0962 -0.2418 0.9655
vn -0.6213 0.5511 0.5571
vn -0.4448 0.6952 -0.5646
vn -0.3810 0.8424 -0.3811
vn -0.3052 0.9370 -0.1697
vn -0.9394 0.0001 -0.3428
vn -0.3052 -0.9370 -0.1697
vn -0.3810 -0.8424 -0.3811
vn 0.5941 0.7821 0.1881
vn 0.5030 0.7877 0.3557
vn 0.3754 0.7821 0.4974
vn 0.1473 0.8195 -0.5539
vn -0.1474 -0.1234 -0.9813
vn 0.0241 -0.0417 -0.9988
vn 0.1806 0.0660 -0.9813
vn -0.7833 0.2822 -0.5539
vn -0.8650 0.0660 0.4974
vn -0.9337 -0.0417 0.3556
vn -0.9744 -0.1234 0.1881
vn -0.4731 0.8195 0.3235
vn -0.6589 -0.7328 -0.1697
vn 0.4698 -0.8135 -0.3427
vn 0.9641 0.2042 -0.1697
vn 0.9200 0.0912 -0.3811
vn 0.8245 -0.0376 -0.5647
vn 0.7879 -0.2625 0.5571
vn -0.2575 -0.0376 0.9655
vn -0.0527 0.0912 0.9944
vn 0.1613 0.2042 0.9655
vn -0.1666 -0.8136 0.5571
vn -0.3797 -0.7328 -0.5646
vn -0.5390 -0.7512 -0.3811
vn -0.9744 0.1234 0.1881
vn -0.9337 0.0417 0.3556
vn -0.8650 -0.0659 0.4974
vn -0.7833 -0.2822 -0.5539
vn 0.1806 -0.0660 -0.9813
vn 0.0241 0.0417 -0.9988
vn -0.1474 0.1234 -0.9813
vn 0.1473 -0.8194 -0.5539
vn 0.3754 -0.7821 0.4974
vn 0.5030 -0.7877 0.3556
vn 0.5941 -0.7821 0.1881
vn -0.4732 -0.8194 0.3235
vn 0.9641 -0.2042 -0.1697
vn 0.4697 0.8136 -0.3428
vn -0.6589 0.7328 -0.1697
vn -0.5390 0.7512 -0.3811
vn -0.3797 0.7328 -0.5646
vn -0.1666 0.8136 0.5571
vn 0.1613 -0.2042 0.9655
vn -0.0527 -0.0912 0.9944
vn -0.2575 0.0376 0.9655
vn 0.7879 0.2625 0.5571
vn 0.8245 0.0376 -0.5647
vn 0.9200 -0.0912 -0.3811
vn 0.6407 0.7678 -0.0041
vn 0.4979 0.8625 -0.0903
vn 0.3446 0.9387 -0.0041
vn 0.0799 -0.0639 0.9948
vn -0.3100 -0.9231 0.2275
vn -0.4743 -0.8215 0.3165
vn -0.6445 -0.7300 0.2275
vn -0.0954 0.0381 0.9947
vn -0.0385 -0.0681 0.9969
vn 0.1112 -0.9231 -0.3681
vn 0.9645 -0.0654 -0.2559
vn 0.1110 0.9387 0.3263
vn 0.0808 0.8625 0.4996
vn 0.2097 0.7678 0.6054
vn 0.9056 0.0379 -0.4225
vn -0.0003 -0.7300 -0.6835
vn 0.1403 -0.8215 -0.5527
vn 0.9262 -0.0701 -0.3705
vn -0.6320 -0.3653 -0.6835
vn -0.4193 0.8044 -0.4209
vn 0.5601 0.5655 0.6054
vn 0.7065 0.5012 0.4996
vn 0.7574 0.5655 0.3263
vn -0.5380 0.8031 -0.2561
vn -0.8550 -0.3653 -0.3681
vn -0.7816 -0.2892 -0.5527
vn -0.5216 0.7695 -0.3684
vn -0.9853 0.1709 -0.0041
vn -0.9959 -0.0000 -0.0903
vn -0.9853 -0.1709 -0.0041
vn 0.0145 0.1019 0.9947
vn 0.9544 0.1931 0.2275
vn 0.9486 0.0000 0.3166
vn 0.9544 -0.1931 0.2275
vn 0.0182 -0.1021 0.9946
vn 0.0787 0.0000 0.9969
vn 0.7439 0.5578 -0.3681
vn -0.4269 0.8676 -0.2549
vn -0.8685 -0.3732 0.3263
vn -0.7873 -0.3613 0.4996
vn -0.7698 -0.2023 0.6054
vn -0.4870 0.7652 -0.4211
vn 0.6324 0.3647 -0.6834
vn 0.6413 0.5323 -0.5527
vn -0.4037 0.8370 -0.3694
vn 0.6324 -0.3647 -0.6834
vn -0.4876 -0.7652 -0.4204
vn -0.7698 0.2023 0.6054
vn -0.7873 0.3613 0.4996
vn -0.8685 0.3732 0.3263
vn -0.4277 -0.8673 -0.2548
vn 0.7439 -0.5578 -0.3681
vn 0.6413 -0.5323 -0.5527
vn -0.4067 -0.8356 -0.3693
vn 0.3446 -0.9387 -0.0041
vn 0.4980 -0.8625 -0.0903
vn 0.6407 -0.7678 -0.0041
vn -0.0981 -0.0372 0.9945
vn -0.6445 0.7300 0.2275
vn -0.4743 0.8215 0.3165
vn -0.3100 0.9231 0.2275
vn 0.0807 0.0637 0.9947
vn -0.0394 0.0705 0.9967
vn -0.8550 0.3653 -0.3680
vn -0.5370 -0.8041 -0.2552
vn 0.7575 -0.5655 0.3263
vn 0.7065 -0.5013 0.4996
vn 0.5601 -0.5655 0.6054
vn -0.4191 -0.8034 -0.4229
vn -0.6320 0.3653 -0.6834
vn -0.7816 0.2892 -0.5527
vn -0.5221 -0.7689 -0.3691
vn -0.0004 0.7300 -0.6834
vn 0.9057 -0.0384 -0.4221
vn 0.2097 -0.7678 0.6054
vn 0.0808 -0.8625 0.4996
vn 0.1110 -0.9387 0.3263
vn 0.9642 0.0667 -0.2566
vn 0.1112 0.9231 -0.3681
vn 0.1403 0.8215 -0.5527
vn 0.9258 0.0696 -0.3716
vn -0.3323 -0.1709 -0.9276
vn -0.4172 0.0000 -0.9088
vn -0.3323 0.1709 -0.9276
vn 0.9431 -0.1020 -0.3164
vn 0.5326 -0.1931 0.8240
vn 0.6147 0.0000 0.7888
vn 0.5326 0.1931 0.8240
vn 0.9429 0.1021 -0.3170
vn 0.9669 -0.0000 -0.2552
vn -0.0991 -0.5578 0.8240
vn -0.3828 -0.8668 -0.3196
vn 0.0181 0.3732 -0.9276
vn 0.2086 0.3613 -0.9088
vn 0.3142 0.2023 -0.9276
vn -0.5595 -0.7657 -0.3174
vn -0.4336 -0.3647 0.8240
vn -0.3073 -0.5323 0.7888
vn -0.4826 -0.8366 -0.2593
vn -0.4336 0.3647 0.8240
vn -0.5592 0.7650 -0.3196
vn 0.3142 -0.2023 -0.9276
vn 0.2086 -0.3612 -0.9088
vn 0.0181 -0.3732 -0.9276
vn -0.3829 0.8677 -0.3169
vn -0.0991 0.5578 0.8240
vn -0.3073 0.5323 0.7888
vn -0.4836 0.8369 -0.2563
vn -0.1511 -0.8011 -0.5791
vn -0.3995 -0.6919 -0.6014
vn -0.6183 -0.5314 -0.5791
vn 0.1042 0.9918 0.0737
vn -0.5774 0.7071 -0.4082
vn -0.8098 -0.1276 -0.5726
vn -0.5964 -0.8011 0.0506
vn -0.7002 -0.6919 -0.1762
vn -0.7521 -0.5314 -0.3899
vn -0.7969 0.2175 -0.5635
vn -0.8165 0.0000 -0.5774
vn -0.7969 -0.2176 -0.5635
vn 0.5074 -0.7834 0.3588
vn 0.8165 0.0000 0.5774
vn 0.5074 0.7834 0.3588
vn 0.3384 0.5861 0.7362
vn -0.0845 -0.1464 0.9856
vn -0.4417 -0.7651 0.4685
vn -0.0841 -0.9170 -0.3899
vn -0.2491 -0.9523 -0.1762
vn -0.3956 -0.9170 0.0506
vn -0.3357 -0.5814 0.7411
vn -0.4082 -0.7071 0.5773
vn -0.4613 -0.7989 0.3859
vn 0.0276 0.0477 -0.9985
vn 0.4082 0.7071 -0.5774
vn 0.4799 0.8312 0.2809
vn 0.8069 0.5861 0.0736
vn 0.9010 -0.1465 -0.4083
vn 0.2944 -0.7651 -0.5726
vn 0.5869 -0.5814 -0.5635
vn 0.4082 -0.7071 -0.5773
vn 0.2101 -0.7989 -0.5635
vn -0.9322 0.0477 0.3588
vn -0.4082 0.7071 0.5774
vn 0.4247 0.8312 0.3588
vn 0.7693 0.2697 -0.5791
vn 0.7989 -0.0000 -0.6014
vn 0.7693 -0.2697 -0.5791
vn -0.9110 -0.4057 0.0737
vn -0.3237 -0.8536 -0.4083
vn 0.5154 -0.6376 -0.5726
vn 0.9920 -0.1159 0.0506
vn 0.9493 -0.2604 -0.1762
vn 0.8362 -0.3856 -0.3899
vn -0.6768 0.0000 0.7362
vn 0.1691 0.0000 0.9856
vn 0.8835 0.0000 0.4685
vn 0.8362 0.3856 -0.3899
vn 0.9493 0.2604 -0.1762
vn 0.9920 0.1159 0.0506
vn 0.6713 -0.0000 0.7411
vn 0.8165 -0.0000 0.5773
vn 0.9225 0.0000 0.3859
vn -0.0551 0.0000 -0.9985
vn -0.9597 0.0000 0.2809
vn -0.9110 0.4057 0.0736
vn -0.3237 0.8536 -0.4083
vn 0.5154 0.6376 -0.5726
vn 0.2101 0.7989 -0.5635
vn 0.4083 0.7071 -0.5774
vn 0.5869 0.5814 -0.5635
vn 0.4247 -0.8312 0.3588
vn -0.4082 -0.7071 0.5774
vn -0.9322 -0.0477 0.3588
vn -0.6183 0.5314 -0.5791
vn -0.3995 0.6919 -0.6014
vn -0.1511 0.8011 -0.5791
vn 0.8069 -0.5861 0.0736
vn 0.9010 0.1465 -0.4083
vn 0.2944 0.7651 -0.5726
vn -0.3956 0.9170 0.0506
vn -0.2491 0.9523 -0.1761
vn -0.0841 0.9170 -0.3899
vn 0.3384 -0.5861 0.7362
vn -0.0845 0.1464 0.9856
vn -0.4417 0.7651 0.4685
vn -0.7521 0.5314 -0.3899
vn -0.7001 0.6919 -0.1762
vn -0.5963 0.8011 0.0506
vn -0.3357 0.5814 0.7411
vn -0.4082 0.7071 0.5773
vn -0.4613 0.7989 0.3859
vn 0.0276 -0.0477 -0.9985
vn 0.4082 -0.7071 -0.5774
vn 0.4799 -0.8312 0.2809
vn 0.1042 -0.9918 0.0737
vn -0.5773 -0.7071 -0.4082
vn -0.8098 0.1275 -0.5726
vn -0.2896 -0.2697 0.9184
vn -0.3007 -0.0000 0.9537
vn -0.2896 0.2697 0.9184
vn -0.2342 0.4057 -0.8835
vn -0.4928 0.8536 -0.1691
vn -0.3681 0.6375 0.6768
vn 0.3784 0.1159 0.9184
vn 0.1503 0.2604 0.9537
vn -0.0888 0.3856 0.9184
vn 0.4685 0.0000 -0.8835
vn 0.9856 0.0000 -0.1691
vn 0.7362 0.0000 0.6768
vn -0.0888 -0.3856 0.9184
vn 0.1504 -0.2604 0.9537
vn 0.3784 -0.1159 0.9184
vn -0.2342 -0.4057 -0.8835
vn -0.4928 -0.8536 -0.1691
vn -0.3681 -0.6375 0.6768
vn 0.2593 0.9540 0.1508
vn 0.4514 0.8821 0.1347
vn 0.7721 0.6282 0.0964
vn 0.2142 0.9650 0.1515
vn 0.8018 -0.1887 0.5670
vn -0.0903 -0.9939 -0.0638
vn 0.3177 0.6136 0.7229
vn 0.0940 0.9719 0.2160
vn 0.2496 0.8961 0.3670
vn 0.3362 0.9113 0.2377
vn 0.3362 -0.9113 0.2377
vn -0.1874 -0.9506 -0.2476
vn -0.2568 -0.8620 -0.4370
vn -0.3138 -0.7316 -0.6052
vn -0.2959 -0.9506 -0.0941
vn -0.4977 -0.8620 -0.0965
vn -0.6752 -0.7316 -0.0941
vn -0.2525 -0.9510 -0.1786
vn -0.2525 0.9510 -0.1786
vn 0.3857 0.6680 0.6364
vn 0.3471 0.6008 -0.7201
vn -0.3320 -0.5751 -0.7477
vn 0.3955 0.8873 0.2371
vn 0.2708 0.9569 -0.1051
vn 0.6495 0.7466 0.1442
vn 0.4312 0.7468 0.5063
vn 0.4083 0.7071 -0.5773
vn -0.0950 -0.1645 -0.9818
vn -0.4766 -0.6376 -0.6052
vn -0.6181 -0.6534 -0.4370
vn -0.7295 -0.6376 -0.2476
vn -0.4008 -0.6942 -0.5979
vn 0.1483 0.2568 0.9550
vn 0.7286 0.6680 0.1515
vn -0.5630 0.6010 0.5673
vn -0.8156 -0.5751 -0.0638
vn 0.6211 0.7468 0.2377
vn -0.9573 -0.1645 0.2377
vn -0.6973 -0.6942 -0.1786
vn 0.4083 -0.7071 -0.5773
vn 0.9498 0.2568 -0.1786
vn -0.8212 -0.4562 0.3429
vn -0.9956 0.0000 0.0942
vn -0.7384 0.6112 0.2849
vn -0.9428 -0.2970 0.1515
vn -0.2389 0.7882 0.5672
vn 0.9059 0.4188 -0.0638
vn 0.4982 0.7635 0.4108
vn -0.5565 -0.5453 0.6269
vn -0.7895 -0.3481 0.5054
vn 0.9169 0.3130 -0.2476
vn 0.8749 0.2086 -0.4370
vn 0.7905 0.0940 -0.6052
vn 0.9712 0.2190 -0.0941
vn 0.9953 -0.0000 -0.0965
vn 0.9712 -0.2190 -0.0941
vn -0.7714 0.0000 0.6364
vn -0.6939 0.0000 -0.7200
vn 0.6641 -0.0000 -0.7477
vn -0.7547 0.3046 0.5810
vn -0.4127 -0.3959 0.8204
vn 0.4364 0.8729 0.2182
vn -0.8623 -0.0000 0.5063
vn 0.1899 0.0000 -0.9818
vn 0.7905 -0.0940 -0.6052
vn 0.8749 -0.2086 -0.4370
vn 0.9169 -0.3130 -0.2476
vn 0.8016 0.0000 -0.5979
vn -0.2965 0.0000 0.9550
vn -0.9428 0.2970 0.1515
vn -0.2385 -0.7883 0.5672
vn 0.9058 -0.4188 -0.0638
vn -0.9573 0.1645 0.2377
vn -0.4083 -0.7071 0.5774
vn 0.6211 -0.7468 0.2377
vn 0.9498 -0.2568 -0.1786
vn -0.6973 0.6942 -0.1786
vn 0.6520 -0.7412 0.1599
vn 0.2048 -0.9696 0.1339
vn 0.2784 -0.9574 0.0764
vn 0.7286 -0.6680 0.1515
vn -0.5629 -0.6011 0.5673
vn -0.8156 0.5751 -0.0638
vn -0.0226 0.9299 0.3672
vn -0.4764 0.8792 0.0000
vn 0.2971 -0.3288 0.8965
vn -0.7295 0.6376 -0.2476
vn -0.6181 0.6534 -0.4370
vn -0.4766 0.6376 -0.6052
vn -0.6752 0.7316 -0.0941
vn -0.4977 0.8620 -0.0965
vn -0.2959 0.9506 -0.0941
vn 0.3857 -0.6680 0.6364
vn 0.3469 -0.6009 -0.7201
vn -0.3320 0.5751 -0.7477
vn 0.1190 -0.7811 0.6130
vn -0.2300 0.8060 0.5453
vn -0.9995 0.0000 0.0318
vn 0.4312 -0.7468 0.5063
vn -0.0950 0.1645 -0.9818
vn -0.3138 0.7316 -0.6052
vn -0.2568 0.8620 -0.4370
vn -0.1874 0.9506 -0.2476
vn -0.4008 0.6942 -0.5979
vn 0.1483 -0.2568 0.9550
vn 0.2142 -0.9650 0.1515
vn 0.8020 0.1878 0.5671
vn -0.0903 0.9939 -0.0638
vn -0.4138 0.3938 -0.8208
vn -0.1085 0.0000 -0.9941
vn 0.1112 -0.3670 -0.9235
vn -0.1715 0.2970 -0.9394
vn 0.4554 -0.7882 -0.4140
vn 0.2418 -0.4188 0.8753
vn -0.0603 0.2008 -0.9778
vn 0.4408 0.6813 -0.5844
vn 0.3671 0.1516 -0.9177
vn 0.0722 -0.3130 0.9470
vn -0.1204 -0.2086 0.9706
vn -0.3071 -0.0940 0.9470
vn 0.2350 -0.2190 0.9470
vn 0.2408 -0.0000 0.9706
vn 0.2350 0.2190 0.9470
vn 0.3429 -0.0000 -0.9394
vn -0.9102 0.0000 -0.4142
vn -0.4835 0.0000 0.8753
vn 0.2595 -0.1306 -0.9569
vn 0.2742 -0.3563 -0.8932
vn -0.0144 -0.3677 -0.9298
vn -0.3071 0.0940 0.9470
vn -0.1204 0.2086 0.9706
vn 0.0722 0.3130 0.9470
vn -0.1715 -0.2970 -0.9394
vn 0.4550 0.7879 -0.4150
vn 0.2418 0.4188 0.8753
vn 0.0457 -0.8446 -0.5334
usemtl Torus
s off
f 242//1 217//1 3//1 41//1
f 193//2 182//2 26//2 98//2
f 278//3 253//3 38//3 77//3
f 241//4 229//4 134//4 61//4
f 183//5 195//5 74//5 6//5
f 157//6 146//6 25//6 63//6
f 206//7 181//7 5//7 109//7
f 182//8 205//8 135//8 26//8
f 266//9 279//9 76//9 113//9
f 277//10 265//10 133//10 97//10
f 219//11 231//11 110//11 4//11
f 229//12 218//12 27//12 134//12
f 147//13 159//13 42//13 2//13
f 218//14 241//14 61//14 27//14
f 255//15 267//15 112//15 39//15
f 265//16 254//16 62//16 133//16
f 146//17 169//17 99//17 25//17
f 158//18 171//18 78//18 37//18
f 169//19 157//19 63//19 99//19
f 254//20 277//20 97//20 62//20
f 205//21 193//21 98//21 135//21
f 515//22 385//22 289//22 481//22
f 230//23 243//23 40//23 111//23
f 194//24 207//24 114//24 75//24
f 530//25 290//25 390//25 546//25
f 580//26 315//26 365//26 612//26
f 595//27 437//27 340//27 610//27
f 628//28 362//28 413//28 660//28
f 482//29 294//29 338//29 498//29
f 545//30 410//30 318//30 531//30
f 563//31 433//31 291//31 529//31
f 532//32 317//32 457//32 564//32
f 643//33 435//33 388//33 658//33
f 657//34 412//34 461//34 644//34
f 578//35 292//35 438//35 594//35
f 593//36 458//36 316//36 579//36
f 611//37 339//37 293//37 577//37
f 497//38 366//38 314//38 483//38
f 626//39 341//39 436//39 642//39
f 641//40 460//40 363//40 627//40
f 484//41 313//41 409//41 516//41
f 499//42 337//42 386//42 514//42
f 659//43 387//43 342//43 625//43
f 547//44 389//44 434//44 562//44
f 561//45 462//45 411//45 548//45
f 513//46 414//46 361//46 500//46
f 609//47 364//47 459//47 596//47
f 1//48 7//48 9//48 8//48
f 7//49 11//49 12//49 9//49
f 2//50 10//50 12//50 11//50
f 10//51 14//51 15//51 12//51
f 3//52 13//52 15//52 14//52
f 13//53 17//53 18//53 15//53
f 4//54 16//54 18//54 17//54
f 16//55 20//55 21//55 18//55
f 5//56 19//56 21//56 20//56
f 19//57 23//57 24//57 21//57
f 6//58 22//58 24//58 23//58
f 22//59 8//59 9//59 24//59
f 9//60 12//60 15//60 18//60 21//60 24//60
f 25//61 28//61 30//61 29//61
f 28//62 32//62 33//62 30//62
f 26//63 31//63 33//63 32//63
f 31//64 35//64 36//64 33//64
f 27//65 34//65 36//65 35//65
f 34//66 29//66 30//66 36//66
f 30//67 33//67 36//67
f 37//68 43//68 45//68 44//68
f 43//69 47//69 48//69 45//69
f 38//70 46//70 48//70 47//70
f 46//71 50//71 51//71 48//71
f 39//72 49//72 51//72 50//72
f 49//73 53//73 54//73 51//73
f 40//74 52//74 54//74 53//74
f 52//75 56//75 57//75 54//75
f 41//76 55//76 57//76 56//76
f 55//77 59//77 60//77 57//77
f 42//78 58//78 60//78 59//78
f 58//79 44//79 45//79 60//79
f 45//80 48//80 51//80 54//80 57//80 60//80
f 61//81 64//81 66//81 65//81
f 64//82 68//82 69//82 66//82
f 62//83 67//83 69//83 68//83
f 67//84 71//84 72//84 69//84
f 63//85 70//85 72//85 71//85
f 70//86 65//86 66//86 72//86
f 66//87 69//87 72//87
f 73//88 79//88 81//88 80//88
f 79//89 83//89 84//89 81//89
f 74//90 82//90 84//90 83//90
f 82//91 86//91 87//91 84//91
f 75//92 85//92 87//92 86//92
f 85//93 89//93 90//93 87//93
f 76//94 88//94 90//94 89//94
f 88//95 92//95 93//95 90//95
f 77//96 91//96 93//96 92//96
f 91//97 95//97 96//97 93//97
f 78//98 94//98 96//98 95//98
f 94//99 80//99 81//99 96//99
f 81//100 84//100 87//100 90//100 93//100 96//100
f 97//101 100//101 102//101 101//101
f 100//102 104//102 105//102 102//102
f 98//103 103//103 105//103 104//103
f 103//104 107//104 108//104 105//104
f 99//105 106//105 108//105 107//105
f 106//106 101//106 102//106 108//106
f 102//107 105//107 108//107
f 109//108 115//108 117//108 116//108
f 115//109 119//109 120//109 117//109
f 110//110 118//110 120//110 119//110
f 118//111 122//111 123//111 120//111
f 111//112 121//112 123//112 122//112
f 121//113 125//113 126//113 123//113
f 112//114 124//114 126//114 125//114
f 124//115 128//115 129//115 126//115
f 113//116 127//116 129//116 128//116
f 127//117 131//117 132//117 129//117
f 114//118 130//118 132//118 131//118
f 130//119 116//119 117//119 132//119
f 117//120 120//120 123//120 126//120 129//120 132//120
f 133//121 136//121 138//121 137//121
f 136//122 140//122 141//122 138//122
f 134//123 139//123 141//123 140//123
f 139//124 143//124 144//124 141//124
f 135//125 142//125 144//125 143//125
f 142//126 137//126 138//126 144//126
f 138//127 141//127 144//127
f 145//128 148//128 150//128 149//128
f 148//129 152//129 153//129 150//129
f 146//130 151//130 153//130 152//130
f 151//131 155//131 156//131 153//131
f 147//132 154//132 156//132 155//132
f 154//133 149//133 150//133 156//133
f 150//134 153//134 156//134
f 157//135 160//135 162//135 161//135
f 160//136 164//136 165//136 162//136
f 158//137 163//137 165//137 164//137
f 163//138 167//138 168//138 165//138
f 159//139 166//139 168//139 167//139
f 166//140 161//140 162//140 168//140
f 162//141 165//141 168//141
f 169//142 172//142 174//142 173//142
f 172//143 176//143 177//143 174//143
f 170//144 175//144 177//144 176//144
f 175//145 179//145 180//145 177//145
f 171//146 178//146 180//146 179//146
f 178//147 173//147 174//147 180//147
f 174//148 177//148 180//148
f 181//149 184//149 186//149 185//149
f 184//150 188//150 189//150 186//150
f 182//151 187//151 189//151 188//151
f 187//152 191//152 192//152 189//152
f 183//153 190//153 192//153 191//153
f 190//154 185//154 186//154 192//154
f 186//155 189//155 192//155
f 193//156 196//156 198//156 197//156
f 196//157 200//157 201//157 198//157
f 194//158 199//158 201//158 200//158
f 199//159 203//159 204//159 201//159
f 195//160 202//160 204//160 203//160
f 202//161 197//161 198//161 204//161
f 198//162 201//162 204//162
f 205//163 208//163 210//163 209//163
f 208//164 212//164 213//164 210//164
f 206//165 211//165 213//165 212//165
f 211//166 215//166 216//166 213//166
f 207//167 214//167 216//167 215//167
f 214//168 209//168 210//168 216//168
f 210//169 213//169 216//169
f 217//170 220//170 222//170 221//170
f 220//171 224//171 225//171 222//171
f 218//172 223//172 225//172 224//172
f 223//173 227//173 228//173 225//173
f 219//174 226//174 228//174 227//174
f 226//175 221//175 222//175 228//175
f 222//176 225//176 228//176
f 229//177 232//177 234//177 233//177
f 232//178 236//178 237//178 234//178
f 230//179 235//179 237//179 236//179
f 235//180 239//180 240//180 237//180
f 231//181 238//181 240//181 239//181
f 238//182 233//182 234//182 240//182
f 234//183 237//183 240//183
f 241//184 244//184 246//184 245//184
f 244//185 248//185 249//185 246//185
f 242//186 247//186 249//186 248//186
f 247//187 251//187 252//187 249//187
f 243//188 250//188 252//188 251//188
f 250//189 245//189 246//189 252//189
f 246//190 249//190 252//190
f 253//191 256//191 258//191 257//191
f 256//192 260//192 261//192 258//192
f 254//193 259//193 261//193 260//193
f 259//194 263//194 264//194 261//194
f 255//195 262//195 264//195 263//195
f 262//196 257//196 258//196 264//196
f 258//197 261//197 264//197
f 265//198 268//198 270//198 269//198
f 268//199 272//199 273//199 270//199
f 266//200 271//200 273//200 272//200
f 271//201 275//201 276//201 273//201
f 267//202 274//202 276//202 275//202
f 274//203 269//203 270//203 276//203
f 270//204 273//204 276//204
f 277//205 280//205 282//205 281//205
f 280//206 284//206 285//206 282//206
f 278//207 283//207 285//207 284//207
f 283//208 287//208 288//208 285//208
f 279//209 286//209 288//209 287//209
f 286//210 281//210 282//210 288//210
f 282//211 285//211 288//211
f 289//212 295//212 297//212 296//212
f 295//213 299//213 300//213 297//213
f 290//214 298//214 300//214 299//214
f 298//215 302//215 303//215 300//215
f 291//216 301//216 303//216 302//216
f 301//217 305//217 306//217 303//217
f 292//218 304//218 306//218 305//218
f 304//219 308//219 309//219 306//219
f 293//220 307//220 309//220 308//220
f 307//221 311//221 312//221 309//221
f 294//222 310//222 312//222 311//222
f 310//223 296//223 297//223 312//223
f 297//67 300//67 303//67 306//67 309//67 312//67
f 313//224 319//224 321//224 320//224
f 319//225 323//225 324//225 321//225
f 314//226 322//226 324//226 323//226
f 322//227 326//227 327//227 324//227
f 315//228 325//228 327//228 326//228
f 325//229 329//229 330//229 327//229
f 316//230 328//230 330//230 329//230
f 328//231 332//231 333//231 330//231
f 317//232 331//232 333//232 332//232
f 331//233 335//233 336//233 333//233
f 318//234 334//234 336//234 335//234
f 334//235 320//235 321//235 336//235
f 321//60 324//60 327//60 330//60 333//60 336//60
f 337//236 343//236 345//236 344//236
f 343//237 347//237 348//237 345//237
f 338//238 346//238 348//238 347//238
f 346//239 350//239 351//239 348//239
f 339//240 349//240 351//240 350//240
f 349//241 353//241 354//241 351//241
f 340//242 352//242 354//242 353//242
f 352//243 356//243 357//243 354//243
f 341//244 355//244 357//244 356//244
f 355//245 359//245 360//245 357//245
f 342//246 358//246 360//246 359//246
f 358//247 344//247 345//247 360//247
f 345//87 348//87 351//87 354//87 357//87 360//87
f 361//248 367//248 369//248 368//248
f 367//249 371//249 372//249 369//249
f 362//250 370//250 372//250 371//250
f 370//251 374//251 375//251 372//251
f 363//252 373//252 375//252 374//252
f 373//253 377//253 378//253 375//253
f 364//254 376//254 378//254 377//254
f 376//255 380//255 381//255 378//255
f 365//256 379//256 381//256 380//256
f 379//257 383//257 384//257 381//257
f 366//258 382//258 384//258 383//258
f 382//259 368//259 369//259 384//259
f 369//80 372//80 375//80 378//80 381//80 384//80
f 385//260 391//260 393//260 392//260
f 391//261 395//261 396//261 393//261
f 386//262 394//262 396//262 395//262
f 394//263 398//263 399//263 396//263
f 387//264 397//264 399//264 398//264
f 397//265 401//265 402//265 399//265
f 388//266 400//266 402//266 401//266
f 400//267 404//267 405//267 402//267
f 389//268 403//268 405//268 404//268
f 403//269 407//269 408//269 405//269
f 390//270 406//270 408//270 407//270
f 406//271 392//271 393//271 408//271
f 393//107 396//107 399//107 402//107 405//107 408//107
f 409//272 415//272 417//272 416//272
f 415//273 419//273 420//273 417//273
f 410//274 418//274 420//274 419//274
f 418//275 422//275 423//275 420//275
f 411//276 421//276 423//276 422//276
f 421//277 425//277 426//277 423//277
f 412//278 424//278 426//278 425//278
f 424//279 428//279 429//279 426//279
f 413//280 427//280 429//280 428//280
f 427//281 431//281 432//281 429//281
f 414//282 430//282 432//282 431//282
f 430//283 416//283 417//283 432//283
f 417//100 420//100 423//100 426//100 429//100 432//100
f 433//284 439//284 441//284 440//284
f 439//285 443//285 444//285 441//285
f 434//286 442//286 444//286 443//286
f 442//287 446//287 447//287 444//287
f 435//288 445//288 447//288 446//288
f 445//289 449//289 450//289 447//289
f 436//290 448//290 450//290 449//290
f 448//291 452//291 453//291 450//291
f 437//292 451//292 453//292 452//292
f 451//293 455//293 456//293 453//293
f 438//294 454//294 456//294 455//294
f 454//295 440//295 441//295 456//295
f 441//127 444//127 447//127 450//127 453//127 456//127
f 457//296 463//296 465//296 464//296
f 463//297 467//297 468//297 465//297
f 458//298 466//298 468//298 467//298
f 466//299 470//299 471//299 468//299
f 459//300 469//300 471//300 470//300
f 469//301 473//301 474//301 471//301
f 460//302 472//302 474//302 473//302
f 472//303 476//303 477//303 474//303
f 461//304 475//304 477//304 476//304
f 475//305 479//305 480//305 477//305
f 462//306 478//306 480//306 479//306
f 478//307 464//307 465//307 480//307
f 465//120 468//120 471//120 474//120 477//120 480//120
f 481//308 485//308 487//308 486//308
f 485//309 489//309 490//309 487//309
f 482//310 488//310 490//310 489//310
f 488//311 492//311 493//311 490//311
f 483//312 491//312 493//312 492//312
f 491//313 495//313 496//313 493//313
f 484//314 494//314 496//314 495//314
f 494//315 486//315 487//315 496//315
f 487//316 490//316 493//316 496//316
f 497//317 501//317 503//317 502//317
f 501//318 505//318 506//318 503//318
f 498//319 504//319 506//319 505//319
f 504//320 508//320 509//320 506//320
f 499//321 507//321 509//321 508//321
f 507//322 511//322 512//322 509//322
f 500//323 510//323 512//323 511//323
f 510//324 502//324 503//324 512//324
f 503//325 506//325 509//325 512//325
f 513//326 517//326 519//326 518//326
f 517//327 521//327 522//327 519//327
f 514//328 520//328 522//328 521//328
f 520//329 524//329 525//329 522//329
f 515//330 523//330 525//330 524//330
f 523//331 527//331 528//331 525//331
f 516//332 526//332 528//332 527//332
f 526//333 518//333 519//333 528//333
f 519//334 522//334 525//334 528//334
f 529//335 533//335 535//335 534//335
f 533//336 537//336 538//336 535//336
f 530//337 536//337 538//337 537//337
f 536//338 540//338 541//338 538//338
f 531//339 539//339 541//339 540//339
f 539//340 543//340 544//340 541//340
f 532//341 542//341 544//341 543//341
f 542//342 534//342 535//342 544//342
f 535//343 538//343 541//343 544//343
f 545//344 549//344 551//344 550//344
f 549//345 553//345 554//345 551//345
f 546//346 552//346 554//346 553//346
f 552//347 556//347 557//347 554//347
f 547//348 555//348 557//348 556//348
f 555//349 559//349 560//349 557//349
f 548//350 558//350 560//350 559//350
f 558//351 550//351 551//351 560//351
f 551//352 554//352 557//352 560//352
f 561//353 565//353 567//353 566//353
f 565//354 569//354 570//354 567//354
f 562//355 568//355 570//355 569//355
f 568//356 572//356 573//356 570//356
f 563//357 571//357 573//357 572//357
f 571//358 575//358 576//358 573//358
f 564//359 574//359 576//359 575//359
f 574//360 566//360 567//360 576//360
f 567//361 570//361 573//361 576//361
f 577//362 581//362 583//362 582//362
f 581//363 585//363 586//363 583//363
f 578//364 584//364 586//364 585//364
f 584//365 588//365 589//365 586//365
f 579//366 587//366 589//366 588//366
f 587//367 591//367 592//367 589//367
f 580//368 590//368 592//368 591//368
f 590//369 582//369 583//369 592//369
f 583//370 586//370 589//370 592//370
f 593//371 597//371 599//371 598//371
f 597//372 601//372 602//372 599//372
f 594//373 600//373 602//373 601//373
f 600//374 604//374 605//374 602//374
f 595//375 603//375 605//375 604//375
f 603//376 607//376 608//376 605//376
f 596//377 606//377 608//377 607//377
f 606//378 598//378 599//378 608//378
f 599//379 602//379 605//379 608//379
f 609//380 613//380 615//380 614//380
f 613//381 617//381 618//381 615//381
f 610//382 616//382 618//382 617//382
f 616//383 620//383 621//383 618//383
f 611//384 619//384 621//384 620//384
f 619//385 623//385 624//385 621//385
f 612//386 622//386 624//386 623//386
f 622//387 614//387 615//387 624//387
f 615//388 618//388 621//388 624//388
f 625//389 629//389 631//389 630//389
f 629//390 633//390 634//390 631//390
f 626//391 632//391 634//391 633//391
f 632//392 636//392 637//392 634//392
f 627//393 635//393 637//393 636//393
f 635//394 639//394 640//394 637//394
f 628//395 638//395 640//395 639//395
f 638//396 630//396 631//396 640//396
f 631//397 634//397 637//397 640//397
f 641//398 645//398 647//398 646//398
f 645//399 649//399 650//399 647//399
f 642//400 648//400 650//400 649//400
f 648//401 652//401 653//401 650//401
f 643//402 651//402 653//402 652//402
f 651//403 655//403 656//403 653//403
f 644//404 654//404 656//404 655//404
f 654//405 646//405 647//405 656//405
f 647//406 650//406 653//406 656//406
f 657//407 661//407 663//407 662//407
f 661//408 665//408 666//408 663//408
f 658//409 664//409 666//409 665//409
f 664//410 668//410 669//410 666//410
f 659//411 667//411 669//411 668//411
f 667//412 671//412 672//412 669//412
f 660//413 670//413 672//413 671//413
f 670//414 662//414 663//414 672//414
f 663//415 666//415 669//415 672//415
f 1//416 145//416 149//416 7//416
f 7//417 149//417 154//417 11//417
f 11//418 154//418 147//418 2//418
f 146//419 157//419 161//419 151//419
f 151//420 161//420 166//420 155//420
f 155//421 166//421 159//421 147//421
f 158//422 37//422 44//422 163//422
f 163//423 44//423 58//423 167//423
f 167//424 58//424 42//424 159//424
f 41//425 3//425 14//425 55//425
f 55//426 14//426 10//426 59//426
f 59//427 10//427 2//427 42//427
f 27//428 61//428 65//428 34//428
f 34//429 65//429 70//429 29//429
f 29//430 70//430 63//430 25//430
f 157//431 169//431 173//431 160//431
f 160//432 173//432 178//432 164//432
f 164//433 178//433 171//433 158//433
f 170//434 73//434 80//434 175//434
f 175//435 80//435 94//435 179//435
f 179//436 94//436 78//436 171//436
f 77//437 38//437 47//437 91//437
f 91//438 47//438 43//438 95//438
f 95//439 43//439 37//439 78//439
f 62//440 97//440 101//440 67//440
f 67//441 101//441 106//441 71//441
f 71//442 106//442 99//442 63//442
f 169//443 146//443 152//443 172//443
f 172//444 152//444 148//444 176//444
f 176//445 148//445 145//445 170//445
f 6//446 74//446 83//446 22//446
f 22//447 83//447 79//447 8//447
f 8//448 79//448 73//448 1//448
f 98//449 26//449 32//449 103//449
f 103//450 32//450 28//450 107//450
f 107//451 28//451 25//451 99//451
f 5//452 181//452 185//452 19//452
f 19//453 185//453 190//453 23//453
f 23//454 190//454 183//454 6//454
f 182//455 193//455 197//455 187//455
f 187//456 197//456 202//456 191//456
f 191//457 202//457 195//457 183//457
f 194//458 75//458 86//458 199//458
f 199//459 86//459 82//459 203//459
f 203//460 82//460 74//460 195//460
f 193//461 205//461 209//461 196//461
f 196//462 209//462 214//462 200//462
f 200//463 214//463 207//463 194//463
f 206//464 109//464 116//464 211//464
f 211//465 116//465 130//465 215//465
f 215//466 130//466 114//466 207//466
f 113//467 76//467 89//467 127//467
f 127//468 89//468 85//468 131//468
f 131//469 85//469 75//469 114//469
f 97//470 133//470 137//470 100//470
f 100//426 137//426 142//426 104//426
f 104//471 142//471 135//471 98//471
f 205//472 182//472 188//472 208//472
f 208//473 188//473 184//473 212//473
f 212//474 184//474 181//474 206//474
f 4//475 110//475 119//475 16//475
f 16//476 119//476 115//476 20//476
f 20//477 115//477 109//477 5//477
f 134//478 27//478 35//478 139//478
f 139//479 35//479 31//479 143//479
f 143//480 31//480 26//480 135//480
f 3//481 217//481 221//481 13//481
f 13//482 221//482 226//482 17//482
f 17//483 226//483 219//483 4//483
f 218//484 229//484 233//484 223//484
f 223//485 233//485 238//485 227//485
f 227//486 238//486 231//486 219//486
f 230//487 111//487 122//487 235//487
f 235//488 122//488 118//488 239//488
f 239//489 118//489 110//489 231//489
f 229//490 241//490 245//490 232//490
f 232//491 245//491 250//491 236//491
f 236//492 250//492 243//492 230//492
f 242//493 41//493 56//493 247//493
f 247//494 56//494 52//494 251//494
f 251//495 52//495 40//495 243//495
f 39//496 112//496 125//496 49//496
f 49//497 125//497 121//497 53//497
f 53//498 121//498 111//498 40//498
f 133//499 62//499 68//499 136//499
f 136//500 68//500 64//500 140//500
f 140//501 64//501 61//501 134//501
f 241//502 218//502 224//502 244//502
f 244//503 224//503 220//503 248//503
f 248//504 220//504 217//504 242//504
f 38//505 253//505 257//505 46//505
f 46//506 257//506 262//506 50//506
f 50//507 262//507 255//507 39//507
f 254//508 265//508 269//508 259//508
f 259//509 269//509 274//509 263//509
f 263//510 274//510 267//510 255//510
f 266//511 113//511 128//511 271//511
f 271//512 128//512 124//512 275//512
f 275//513 124//513 112//513 267//513
f 265//514 277//514 281//514 268//514
f 268//515 281//515 286//515 272//515
f 272//516 286//516 279//516 266//516
f 278//517 77//517 92//517 283//517
f 283//518 92//518 88//518 287//518
f 287//519 88//519 76//519 279//519
f 277//520 254//520 260//520 280//520
f 280//521 260//521 256//521 284//521
f 284//522 256//522 253//522 278//522
f 294//523 482//523 489//523 310//523
f 310//524 489//524 485//524 296//524
f 296//525 485//525 481//525 289//525
f 482//526 498//526 505//526 488//526
f 488//527 505//527 501//527 492//527
f 492//528 501//528 497//528 483//528
f 498//529 338//529 347//529 504//529
f 504//530 347//530 343//530 508//530
f 508//531 343//531 337//531 499//531
f 338//532 294//532 311//532 346//532
f 346//429 311//429 307//429 350//429
f 350//533 307//533 293//533 339//533
f 366//534 497//534 502//534 382//534
f 382//535 502//535 510//535 368//535
f 368//536 510//536 500//536 361//536
f 483//537 314//537 323//537 491//537
f 491//538 323//538 319//538 495//538
f 495//539 319//539 313//539 484//539
f 314//540 366//540 383//540 322//540
f 322//426 383//426 379//426 326//426
f 326//541 379//541 365//541 315//541
f 499//542 514//542 521//542 507//542
f 507//543 521//543 517//543 511//543
f 511//544 517//544 513//544 500//544
f 514//545 386//545 395//545 520//545
f 520//546 395//546 391//546 524//546
f 524//547 391//547 385//547 515//547
f 386//548 337//548 344//548 394//548
f 394//549 344//549 358//549 398//549
f 398//550 358//550 342//550 387//550
f 414//551 513//551 518//551 430//551
f 430//552 518//552 526//552 416//552
f 416//553 526//553 516//553 409//553
f 361//554 414//554 431//554 367//554
f 367//479 431//479 427//479 371//479
f 371//555 427//555 413//555 362//555
f 515//556 481//556 486//556 523//556
f 523//557 486//557 494//557 527//557
f 527//558 494//558 484//558 516//558
f 289//559 385//559 392//559 295//559
f 295//497 392//497 406//497 299//497
f 299//560 406//560 390//560 290//560
f 409//561 313//561 320//561 415//561
f 415//562 320//562 334//562 419//562
f 419//563 334//563 318//563 410//563
f 290//564 530//564 537//564 298//564
f 298//565 537//565 533//565 302//565
f 302//566 533//566 529//566 291//566
f 530//567 546//567 553//567 536//567
f 536//568 553//568 549//568 540//568
f 540//569 549//569 545//569 531//569
f 546//570 390//570 407//570 552//570
f 552//571 407//571 403//571 556//571
f 556//572 403//572 389//572 547//572
f 410//573 545//573 550//573 418//573
f 418//574 550//574 558//574 422//574
f 422//575 558//575 548//575 411//575
f 531//576 318//576 335//576 539//576
f 539//577 335//577 331//577 543//577
f 543//578 331//578 317//578 532//578
f 547//579 562//579 569//579 555//579
f 555//580 569//580 565//580 559//580
f 559//581 565//581 561//581 548//581
f 562//582 434//582 443//582 568//582
f 568//583 443//583 439//583 572//583
f 572//584 439//584 433//584 563//584
f 434//585 389//585 404//585 442//585
f 442//426 404//426 400//426 446//426
f 446//586 400//586 388//586 435//586
f 462//587 561//587 566//587 478//587
f 478//588 566//588 574//588 464//588
f 464//589 574//589 564//589 457//589
f 411//590 462//590 479//590 421//590
f 421//429 479//429 475//429 425//429
f 425//591 475//591 461//591 412//591
f 563//592 529//592 534//592 571//592
f 571//593 534//593 542//593 575//593
f 575//594 542//594 532//594 564//594
f 291//595 433//595 440//595 301//595
f 301//596 440//596 454//596 305//596
f 305//597 454//597 438//597 292//597
f 457//598 317//598 332//598 463//598
f 463//441 332//441 328//441 467//441
f 467//599 328//599 316//599 458//599
f 292//600 578//600 585//600 304//600
f 304//601 585//601 581//601 308//601
f 308//602 581//602 577//602 293//602
f 578//603 594//603 601//603 584//603
f 584//604 601//604 597//604 588//604
f 588//605 597//605 593//605 579//605
f 594//606 438//606 455//606 600//606
f 600//607 455//607 451//607 604//607
f 604//608 451//608 437//608 595//608
f 458//609 593//609 598//609 466//609
f 466//610 598//610 606//610 470//610
f 470//611 606//611 596//611 459//611
f 579//612 316//612 329//612 587//612
f 587//613 329//613 325//613 591//613
f 591//614 325//614 315//614 580//614
f 595//615 610//615 617//615 603//615
f 603//616 617//616 613//616 607//616
f 607//617 613//617 609//617 596//617
f 610//618 340//618 353//618 616//618
f 616//619 353//619 349//619 620//619
f 620//620 349//620 339//620 611//620
f 340//621 437//621 452//621 352//621
f 352//500 452//500 448//500 356//500
f 356//622 448//622 436//622 341//622
f 364//623 609//623 614//623 376//623
f 376//624 614//624 622//624 380//624
f 380//625 622//625 612//625 365//625
f 459//626 364//626 377//626 469//626
f 469//450 377//450 373//450 473//450
f 473//627 373//627 363//627 460//627
f 611//628 577//628 582//628 619//628
f 619//629 582//629 590//629 623//629
f 623//630 590//630 580//630 612//630
f 341//631 626//631 633//631 355//631
f 355//632 633//632 629//632 359//632
f 359//633 629//633 625//633 342//633
f 626//634 642//634 649//634 632//634
f 632//635 649//635 645//635 636//635
f 636//636 645//636 641//636 627//636
f 642//637 436//637 449//637 648//637
f 648//638 449//638 445//638 652//638
f 652//639 445//639 435//639 643//639
f 460//640 641//640 646//640 472//640
f 472//641 646//641 654//641 476//641
f 476//642 654//642 644//642 461//642
f 627//643 363//643 374//643 635//643
f 635//644 374//644 370//644 639//644
f 639//645 370//645 362//645 628//645
f 643//646 658//646 665//646 651//646
f 651//647 665//647 661//647 655//647
f 655//648 661//648 657//648 644//648
f 658//649 388//649 401//649 664//649
f 664//650 401//650 397//650 668//650
f 668//651 397//651 387//651 659//651
f 412//652 657//652 662//652 424//652
f 424//653 662//653 670//653 428//653
f 428//654 670//654 660//654 413//654
f 659//655 625//655 630//655 667//655
f 667//656 630//656 638//656 671//656
f 671//657 638//657 628//657 660//657
f 170//658 145//658 1//658 73//658
