# Blender v3.1.2 OBJ File: ''
# www.blender.org
mtllib Wireoctahedron.mtl
o Wireoctahedron
v 0.478195 0.004505 0.000000
v 0.478195 0.000000 -0.004505
v 0.478195 -0.004505 0.000000
v 0.478195 0.000000 0.004505
v 0.478921 0.003352 -0.001716
v 0.478921 0.003352 0.001716
v 0.479746 0.001689 -0.000000
v 0.478921 -0.001716 -0.003352
v 0.478921 0.001716 -0.003352
v 0.479746 -0.000000 -0.001689
v 0.478921 -0.003352 0.001716
v 0.478921 -0.003352 -0.001716
v 0.479746 -0.001689 0.000000
v 0.478921 0.001716 0.003352
v 0.478921 -0.001716 0.003352
v 0.479746 0.000000 0.001689
v 0.506438 0.007489 0.002146
v 0.506438 0.002146 0.007489
v 0.506438 -0.002146 0.007489
v 0.506438 -0.007489 0.002146
v 0.506438 -0.007489 -0.002146
v 0.506438 -0.002146 -0.007489
v 0.506438 0.002146 -0.007489
v 0.506438 0.007489 -0.002146
v 0.506258 0.005503 0.003550
v 0.507259 0.008310 0.000756
v 0.509660 0.003984 0.001302
v 0.507259 0.000756 0.008310
v 0.506258 0.003550 0.005503
v 0.509660 0.001302 0.003984
v 0.506258 -0.003550 0.005503
v 0.507259 -0.000756 0.008310
v 0.509660 -0.001302 0.003984
v 0.507259 -0.008310 0.000756
v 0.506257 -0.005503 0.003550
v 0.509660 -0.003984 0.001302
v 0.506258 -0.005503 -0.003550
v 0.507259 -0.008310 -0.000756
v 0.509660 -0.003984 -0.001302
v 0.507259 -0.000756 -0.008310
v 0.506258 -0.003550 -0.005503
v 0.509660 -0.001302 -0.003984
v 0.506258 0.003550 -0.005503
v 0.507259 0.000756 -0.008310
v 0.509660 0.001302 -0.003984
v 0.507259 0.008310 -0.000756
v 0.506257 0.005503 -0.003550
v 0.509660 0.003984 -0.001302
v -0.478195 0.000000 0.004505
v -0.478195 -0.004505 0.000000
v -0.478195 0.000000 -0.004505
v -0.478195 0.004505 0.000000
v -0.478921 -0.001716 0.003352
v -0.478921 0.001716 0.003352
v -0.479746 -0.000000 0.001689
v -0.478921 -0.003352 -0.001716
v -0.478921 -0.003352 0.001716
v -0.479746 -0.001689 -0.000000
v -0.478921 0.001716 -0.003352
v -0.478921 -0.001716 -0.003352
v -0.479746 0.000000 -0.001689
v -0.478921 0.003352 0.001716
v -0.478921 0.003352 -0.001716
v -0.479746 0.001689 0.000000
v -0.506438 0.002146 0.007489
v -0.506438 0.007489 0.002146
v -0.506438 0.007489 -0.002146
v -0.506438 0.002146 -0.007489
v -0.506438 -0.002146 -0.007489
v -0.506438 -0.007489 -0.002146
v -0.506438 -0.007489 0.002146
v -0.506438 -0.002146 0.007489
v -0.506258 0.003550 0.005503
v -0.507259 0.000756 0.008310
v -0.509660 0.001302 0.003984
v -0.507259 0.008310 0.000756
v -0.506257 0.005503 0.003550
v -0.509660 0.003984 0.001302
v -0.506258 0.005503 -0.003550
v -0.507259 0.008310 -0.000756
v -0.509660 0.003984 -0.001302
v -0.507259 0.000756 -0.008310
v -0.506258 0.003550 -0.005503
v -0.509660 0.001302 -0.003984
v -0.506258 -0.003550 -0.005503
v -0.507259 -0.000756 -0.008310
v -0.509660 -0.001302 -0.003984
v -0.507259 -0.008310 -0.000756
v -0.506257 -0.005503 -0.003550
v -0.509660 -0.003984 -0.001302
v -0.506258 -0.005503 0.003550
v -0.507259 -0.008310 0.000756
v -0.509660 -0.003984 0.001302
v -0.507259 -0.000756 0.008310
v -0.506258 -0.003550 0.005503
v -0.509660 -0.001302 0.003984
v 0.000000 0.478195 0.004505
v -0.004505 0.478195 0.000000
v 0.000000 0.478195 -0.004505
v 0.004505 0.478195 0.000000
v -0.001716 0.478921 0.003352
v 0.001716 0.478921 0.003352
v -0.000000 0.479746 0.001689
v -0.003352 0.478921 -0.001716
v -0.003352 0.478921 0.001716
v -0.001689 0.479746 -0.000000
v 0.001716 0.478921 -0.003352
v -0.001716 0.478921 -0.003352
v 0.000000 0.479746 -0.001689
v 0.003352 0.478921 0.001716
v 0.003352 0.478921 -0.001716
v 0.001689 0.479746 0.000000
v 0.002146 0.506438 0.007489
v 0.007489 0.506438 0.002146
v 0.007489 0.506438 -0.002146
v 0.002146 0.506438 -0.007489
v -0.002146 0.506438 -0.007489
v -0.007489 0.506438 -0.002146
v -0.007489 0.506438 0.002146
v -0.002146 0.506438 0.007489
v 0.003550 0.506258 0.005503
v 0.000756 0.507259 0.008310
v 0.001302 0.509660 0.003984
v 0.008310 0.507259 0.000756
v 0.005503 0.506257 0.003550
v 0.003984 0.509660 0.001302
v 0.005503 0.506258 -0.003550
v 0.008310 0.507259 -0.000756
v 0.003984 0.509660 -0.001302
v 0.000756 0.507259 -0.008310
v 0.003550 0.506258 -0.005503
v 0.001302 0.509660 -0.003984
v -0.003550 0.506258 -0.005503
v -0.000756 0.507259 -0.008310
v -0.001302 0.509660 -0.003984
v -0.008310 0.507259 -0.000756
v -0.005503 0.506257 -0.003550
v -0.003984 0.509660 -0.001302
v -0.005503 0.506258 0.003550
v -0.008310 0.507259 0.000756
v -0.003984 0.509660 0.001302
v -0.000756 0.507259 0.008310
v -0.003550 0.506258 0.005503
v -0.001302 0.509660 0.003984
v 0.000000 -0.478195 0.004505
v 0.004505 -0.478195 0.000000
v 0.000000 -0.478195 -0.004505
v -0.004505 -0.478195 0.000000
v 0.001716 -0.478921 0.003352
v -0.001716 -0.478921 0.003352
v 0.000000 -0.479746 0.001689
v 0.003352 -0.478921 -0.001716
v 0.003352 -0.478921 0.001716
v 0.001689 -0.479746 -0.000000
v -0.001716 -0.478921 -0.003352
v 0.001716 -0.478921 -0.003352
v -0.000000 -0.479746 -0.001689
v -0.003352 -0.478921 0.001716
v -0.003352 -0.478921 -0.001716
v -0.001689 -0.479746 0.000000
v -0.002146 -0.506438 0.007489
v -0.007489 -0.506438 0.002146
v -0.007489 -0.506438 -0.002146
v -0.002146 -0.506438 -0.007489
v 0.002146 -0.506438 -0.007489
v 0.007489 -0.506438 -0.002146
v 0.007489 -0.506438 0.002146
v 0.002146 -0.506438 0.007489
v -0.003550 -0.506258 0.005503
v -0.000756 -0.507259 0.008310
v -0.001302 -0.509660 0.003984
v -0.008310 -0.507259 0.000756
v -0.005503 -0.506257 0.003550
v -0.003984 -0.509660 0.001302
v -0.005503 -0.506258 -0.003550
v -0.008310 -0.507259 -0.000756
v -0.003984 -0.509660 -0.001302
v -0.000756 -0.507259 -0.008310
v -0.003550 -0.506258 -0.005503
v -0.001302 -0.509660 -0.003984
v 0.003550 -0.506258 -0.005503
v 0.000756 -0.507259 -0.008310
v 0.001302 -0.509660 -0.003984
v 0.008310 -0.507259 -0.000756
v 0.005503 -0.506257 -0.003550
v 0.003984 -0.509660 -0.001302
v 0.005503 -0.506258 0.003550
v 0.008310 -0.507259 0.000756
v 0.003984 -0.509660 0.001302
v 0.000756 -0.507259 0.008310
v 0.003550 -0.506258 0.005503
v 0.001302 -0.509660 0.003984
v 0.004505 0.000000 0.478195
v 0.000000 -0.004505 0.478195
v -0.004505 0.000000 0.478195
v 0.000000 0.004505 0.478195
v 0.003352 -0.001716 0.478921
v 0.003352 0.001716 0.478921
v 0.001689 0.000000 0.479746
v -0.001716 -0.003352 0.478921
v 0.001716 -0.003352 0.478921
v 0.000000 -0.001689 0.479746
v -0.003352 0.001716 0.478921
v -0.003352 -0.001716 0.478921
v -0.001689 -0.000000 0.479746
v 0.001716 0.003352 0.478921
v -0.001716 0.003352 0.478921
v -0.000000 0.001689 0.479746
v 0.002146 0.007489 0.506438
v -0.002146 0.007489 0.506438
v -0.007489 0.002146 0.506438
v -0.007489 -0.002146 0.506438
v -0.002146 -0.007489 0.506438
v 0.002146 -0.007489 0.506438
v 0.007489 -0.002146 0.506438
v 0.007489 0.002146 0.506438
v 0.000756 0.008310 0.507259
v 0.003550 0.005503 0.506257
v 0.001302 0.003984 0.509660
v -0.003550 0.005503 0.506258
v -0.000756 0.008310 0.507259
v -0.001302 0.003984 0.509660
v -0.008310 0.000756 0.507259
v -0.005503 0.003550 0.506257
v -0.003984 0.001302 0.509660
v -0.005503 -0.003550 0.506258
v -0.008310 -0.000756 0.507259
v -0.003984 -0.001302 0.509660
v -0.000756 -0.008310 0.507259
v -0.003550 -0.005503 0.506257
v -0.001302 -0.003984 0.509660
v 0.003550 -0.005503 0.506258
v 0.000756 -0.008310 0.507259
v 0.001302 -0.003984 0.509660
v 0.008310 -0.000756 0.507259
v 0.005503 -0.003550 0.506257
v 0.003984 -0.001302 0.509660
v 0.005503 0.003550 0.506258
v 0.008310 0.000756 0.507259
v 0.003984 0.001302 0.509660
v 0.000000 0.004505 -0.478195
v -0.004505 0.000000 -0.478195
v 0.000000 -0.004505 -0.478195
v 0.004505 0.000000 -0.478195
v -0.001716 0.003352 -0.478921
v 0.001716 0.003352 -0.478921
v 0.000000 0.001689 -0.479746
v -0.003352 -0.001716 -0.478921
v -0.003352 0.001716 -0.478921
v -0.001689 0.000000 -0.479746
v 0.001716 -0.003352 -0.478921
v -0.001716 -0.003352 -0.478921
v -0.000000 -0.001689 -0.479746
v 0.003352 0.001716 -0.478921
v 0.003352 -0.001716 -0.478921
v 0.001689 -0.000000 -0.479746
v 0.007489 0.002146 -0.506438
v 0.007489 -0.002146 -0.506438
v 0.002146 -0.007489 -0.506438
v -0.002146 -0.007489 -0.506438
v -0.007489 -0.002146 -0.506438
v -0.007489 0.002146 -0.506438
v -0.002146 0.007489 -0.506438
v 0.002146 0.007489 -0.506438
v 0.008310 0.000756 -0.507259
v 0.005503 0.003550 -0.506257
v 0.003984 0.001302 -0.509660
v 0.005503 -0.003550 -0.506258
v 0.008310 -0.000756 -0.507259
v 0.003984 -0.001302 -0.509660
v 0.000756 -0.008310 -0.507259
v 0.003550 -0.005503 -0.506257
v 0.001302 -0.003984 -0.509660
v -0.003550 -0.005503 -0.506258
v -0.000756 -0.008310 -0.507259
v -0.001302 -0.003984 -0.509660
v -0.008310 -0.000756 -0.507259
v -0.005503 -0.003550 -0.506257
v -0.003984 -0.001302 -0.509660
v -0.005503 0.003550 -0.506258
v -0.008310 0.000756 -0.507259
v -0.003984 0.001302 -0.509660
v -0.000756 0.008310 -0.507259
v -0.003550 0.005503 -0.506257
v -0.001302 0.003984 -0.509660
v 0.003550 0.005503 -0.506258
v 0.000756 0.008310 -0.507259
v 0.001302 0.003984 -0.509660
v 0.010747 0.015252 0.469864
v 0.012551 0.017894 0.472883
v 0.017894 0.012551 0.472883
v 0.015252 0.010747 0.469864
v 0.012379 0.015772 0.470506
v 0.012462 0.014098 0.470590
v 0.013519 0.014688 0.470980
v 0.013956 0.015908 0.472703
v 0.013016 0.016705 0.471573
v 0.014019 0.015288 0.471687
v 0.016705 0.013016 0.471573
v 0.015908 0.013956 0.472703
v 0.015288 0.014019 0.471687
v 0.014098 0.012462 0.470590
v 0.015772 0.012379 0.470506
v 0.014688 0.013519 0.470980
v 0.472883 0.012551 0.017894
v 0.472883 0.017894 0.012551
v 0.469864 0.015252 0.010747
v 0.469864 0.010747 0.015252
v 0.472703 0.013956 0.015908
v 0.471573 0.013016 0.016705
v 0.471687 0.014019 0.015288
v 0.471573 0.016705 0.013016
v 0.472703 0.015908 0.013956
v 0.471687 0.015288 0.014019
v 0.470590 0.014098 0.012462
v 0.470506 0.015772 0.012379
v 0.470980 0.014688 0.013519
v 0.470506 0.012379 0.015772
v 0.470590 0.012462 0.014098
v 0.470980 0.013519 0.014688
v 0.017894 0.472883 0.012551
v 0.012551 0.472883 0.017894
v 0.010747 0.469864 0.015252
v 0.015252 0.469864 0.010747
v 0.015908 0.472703 0.013956
v 0.016705 0.471573 0.013016
v 0.015288 0.471687 0.014019
v 0.013016 0.471573 0.016705
v 0.013956 0.472703 0.015908
v 0.014019 0.471687 0.015288
v 0.012462 0.470590 0.014098
v 0.012379 0.470506 0.015772
v 0.013519 0.470980 0.014688
v 0.015772 0.470506 0.012379
v 0.014098 0.470590 0.012462
v 0.014688 0.470980 0.013519
v -0.015252 0.010747 0.469864
v -0.017894 0.012551 0.472883
v -0.012551 0.017894 0.472883
v -0.010747 0.015252 0.469864
v -0.015772 0.012379 0.470506
v -0.014098 0.012462 0.470590
v -0.014688 0.013519 0.470980
v -0.015908 0.013956 0.472703
v -0.016705 0.013016 0.471573
v -0.015288 0.014019 0.471687
v -0.013016 0.016705 0.471573
v -0.013956 0.015908 0.472703
v -0.014019 0.015288 0.471687
v -0.012462 0.014098 0.470590
v -0.012379 0.015772 0.470506
v -0.013519 0.014688 0.470980
v -0.012551 0.472883 0.017894
v -0.017894 0.472883 0.012551
v -0.015252 0.469864 0.010747
v -0.010747 0.469864 0.015252
v -0.013956 0.472703 0.015908
v -0.013016 0.471573 0.016705
v -0.014019 0.471687 0.015288
v -0.016705 0.471573 0.013016
v -0.015908 0.472703 0.013956
v -0.015288 0.471687 0.014019
v -0.014098 0.470590 0.012462
v -0.015772 0.470506 0.012379
v -0.014688 0.470980 0.013519
v -0.012379 0.470506 0.015772
v -0.012462 0.470590 0.014098
v -0.013519 0.470980 0.014688
v -0.472883 0.017894 0.012551
v -0.472883 0.012551 0.017894
v -0.469864 0.010747 0.015252
v -0.469864 0.015252 0.010747
v -0.472703 0.015908 0.013956
v -0.471573 0.016705 0.013016
v -0.471687 0.015288 0.014019
v -0.471573 0.013016 0.016705
v -0.472703 0.013956 0.015908
v -0.471687 0.014019 0.015288
v -0.470590 0.012462 0.014098
v -0.470506 0.012379 0.015772
v -0.470980 0.013519 0.014688
v -0.470506 0.015772 0.012379
v -0.470590 0.014098 0.012462
v -0.470980 0.014688 0.013519
v -0.010747 -0.015252 0.469864
v -0.012551 -0.017894 0.472883
v -0.017894 -0.012551 0.472883
v -0.015252 -0.010747 0.469864
v -0.012379 -0.015772 0.470506
v -0.012462 -0.014098 0.470590
v -0.013519 -0.014688 0.470980
v -0.013956 -0.015908 0.472703
v -0.013016 -0.016705 0.471573
v -0.014019 -0.015288 0.471687
v -0.016705 -0.013016 0.471573
v -0.015908 -0.013956 0.472703
v -0.015288 -0.014019 0.471687
v -0.014098 -0.012462 0.470590
v -0.015772 -0.012379 0.470506
v -0.014688 -0.013519 0.470980
v -0.472883 -0.012551 0.017894
v -0.472883 -0.017894 0.012551
v -0.469864 -0.015252 0.010747
v -0.469864 -0.010747 0.015252
v -0.472703 -0.013956 0.015908
v -0.471573 -0.013016 0.016705
v -0.471687 -0.014019 0.015288
v -0.471573 -0.016705 0.013016
v -0.472703 -0.015908 0.013956
v -0.471687 -0.015288 0.014019
v -0.470590 -0.014098 0.012462
v -0.470506 -0.015772 0.012379
v -0.470980 -0.014688 0.013519
v -0.470506 -0.012379 0.015772
v -0.470590 -0.012462 0.014098
v -0.470980 -0.013519 0.014688
v -0.017894 -0.472883 0.012551
v -0.012551 -0.472883 0.017894
v -0.010747 -0.469864 0.015252
v -0.015252 -0.469864 0.010747
v -0.015908 -0.472703 0.013956
v -0.016705 -0.471573 0.013016
v -0.015288 -0.471687 0.014019
v -0.013016 -0.471573 0.016705
v -0.013956 -0.472703 0.015908
v -0.014019 -0.471687 0.015288
v -0.012462 -0.470590 0.014098
v -0.012379 -0.470506 0.015772
v -0.013519 -0.470980 0.014688
v -0.015772 -0.470506 0.012379
v -0.014098 -0.470590 0.012462
v -0.014688 -0.470980 0.013519
v 0.015252 -0.010747 0.469864
v 0.017894 -0.012551 0.472883
v 0.012551 -0.017894 0.472883
v 0.010747 -0.015252 0.469864
v 0.015772 -0.012379 0.470506
v 0.014098 -0.012462 0.470590
v 0.014688 -0.013519 0.470980
v 0.015908 -0.013956 0.472703
v 0.016705 -0.013016 0.471573
v 0.015288 -0.014019 0.471687
v 0.013016 -0.016705 0.471573
v 0.013956 -0.015908 0.472703
v 0.014019 -0.015288 0.471687
v 0.012462 -0.014098 0.470590
v 0.012379 -0.015772 0.470506
v 0.013519 -0.014688 0.470980
v 0.012551 -0.472883 0.017894
v 0.017894 -0.472883 0.012551
v 0.015252 -0.469864 0.010747
v 0.010747 -0.469864 0.015252
v 0.013956 -0.472703 0.015908
v 0.013016 -0.471573 0.016705
v 0.014019 -0.471687 0.015288
v 0.016705 -0.471573 0.013016
v 0.015908 -0.472703 0.013956
v 0.015288 -0.471687 0.014019
v 0.014098 -0.470590 0.012462
v 0.015772 -0.470506 0.012379
v 0.014688 -0.470980 0.013519
v 0.012379 -0.470506 0.015772
v 0.012462 -0.470590 0.014098
v 0.013519 -0.470980 0.014688
v 0.472883 -0.017894 0.012551
v 0.472883 -0.012551 0.017894
v 0.469864 -0.010747 0.015252
v 0.469864 -0.015252 0.010747
v 0.472703 -0.015908 0.013956
v 0.471573 -0.016705 0.013016
v 0.471687 -0.015288 0.014019
v 0.471573 -0.013016 0.016705
v 0.472703 -0.013956 0.015908
v 0.471687 -0.014019 0.015288
v 0.470590 -0.012462 0.014098
v 0.470506 -0.012379 0.015772
v 0.470980 -0.013519 0.014688
v 0.470506 -0.015772 0.012379
v 0.470590 -0.014098 0.012462
v 0.470980 -0.014688 0.013519
v 0.015252 0.010747 -0.469864
v 0.017894 0.012551 -0.472883
v 0.012551 0.017894 -0.472883
v 0.010747 0.015252 -0.469864
v 0.015772 0.012379 -0.470506
v 0.014098 0.012462 -0.470590
v 0.014688 0.013519 -0.470980
v 0.015908 0.013956 -0.472703
v 0.016705 0.013016 -0.471573
v 0.015288 0.014019 -0.471687
v 0.013016 0.016705 -0.471573
v 0.013956 0.015908 -0.472703
v 0.014019 0.015288 -0.471687
v 0.012462 0.014098 -0.470590
v 0.012379 0.015772 -0.470506
v 0.013519 0.014688 -0.470980
v 0.012551 0.472883 -0.017894
v 0.017894 0.472883 -0.012551
v 0.015252 0.469864 -0.010747
v 0.010747 0.469864 -0.015252
v 0.013956 0.472703 -0.015908
v 0.013016 0.471573 -0.016705
v 0.014019 0.471687 -0.015288
v 0.016705 0.471573 -0.013016
v 0.015908 0.472703 -0.013956
v 0.015288 0.471687 -0.014019
v 0.014098 0.470590 -0.012462
v 0.015772 0.470506 -0.012379
v 0.014688 0.470980 -0.013519
v 0.012379 0.470506 -0.015772
v 0.012462 0.470590 -0.014098
v 0.013519 0.470980 -0.014688
v 0.472883 0.017894 -0.012551
v 0.472883 0.012551 -0.017894
v 0.469864 0.010747 -0.015252
v 0.469864 0.015252 -0.010747
v 0.472703 0.015908 -0.013956
v 0.471573 0.016705 -0.013016
v 0.471687 0.015288 -0.014019
v 0.471573 0.013016 -0.016705
v 0.472703 0.013956 -0.015908
v 0.471687 0.014019 -0.015288
v 0.470590 0.012462 -0.014098
v 0.470506 0.012379 -0.015772
v 0.470980 0.013519 -0.014688
v 0.470506 0.015772 -0.012379
v 0.470590 0.014098 -0.012462
v 0.470980 0.014688 -0.013519
v -0.010747 0.015252 -0.469864
v -0.012551 0.017894 -0.472883
v -0.017894 0.012551 -0.472883
v -0.015252 0.010747 -0.469864
v -0.012379 0.015772 -0.470506
v -0.012462 0.014098 -0.470590
v -0.013519 0.014688 -0.470980
v -0.013956 0.015908 -0.472703
v -0.013016 0.016705 -0.471573
v -0.014019 0.015288 -0.471687
v -0.016705 0.013016 -0.471573
v -0.015908 0.013956 -0.472703
v -0.015288 0.014019 -0.471687
v -0.014098 0.012462 -0.470590
v -0.015772 0.012379 -0.470506
v -0.014688 0.013519 -0.470980
v -0.472883 0.012551 -0.017894
v -0.472883 0.017894 -0.012551
v -0.469864 0.015252 -0.010747
v -0.469864 0.010747 -0.015252
v -0.472703 0.013956 -0.015908
v -0.471573 0.013016 -0.016705
v -0.471687 0.014019 -0.015288
v -0.471573 0.016705 -0.013016
v -0.472703 0.015908 -0.013956
v -0.471687 0.015288 -0.014019
v -0.470590 0.014098 -0.012462
v -0.470506 0.015772 -0.012379
v -0.470980 0.014688 -0.013519
v -0.470506 0.012379 -0.015772
v -0.470590 0.012462 -0.014098
v -0.470980 0.013519 -0.014688
v -0.017894 0.472883 -0.012551
v -0.012551 0.472883 -0.017894
v -0.010747 0.469864 -0.015252
v -0.015252 0.469864 -0.010747
v -0.015908 0.472703 -0.013956
v -0.016705 0.471573 -0.013016
v -0.015288 0.471687 -0.014019
v -0.013016 0.471573 -0.016705
v -0.013956 0.472703 -0.015908
v -0.014019 0.471687 -0.015288
v -0.012462 0.470590 -0.014098
v -0.012379 0.470506 -0.015772
v -0.013519 0.470980 -0.014688
v -0.015772 0.470506 -0.012379
v -0.014098 0.470590 -0.012462
v -0.014688 0.470980 -0.013519
v -0.015252 -0.010747 -0.469864
v -0.017894 -0.012551 -0.472883
v -0.012551 -0.017894 -0.472883
v -0.010747 -0.015252 -0.469864
v -0.015772 -0.012379 -0.470506
v -0.014098 -0.012462 -0.470590
v -0.014688 -0.013519 -0.470980
v -0.015908 -0.013956 -0.472703
v -0.016705 -0.013016 -0.471573
v -0.015288 -0.014019 -0.471687
v -0.013016 -0.016705 -0.471573
v -0.013956 -0.015908 -0.472703
v -0.014019 -0.015288 -0.471687
v -0.012462 -0.014098 -0.470590
v -0.012379 -0.015772 -0.470506
v -0.013519 -0.014688 -0.470980
v -0.012551 -0.472883 -0.017894
v -0.017894 -0.472883 -0.012551
v -0.015252 -0.469864 -0.010747
v -0.010747 -0.469864 -0.015252
v -0.013956 -0.472703 -0.015908
v -0.013016 -0.471573 -0.016705
v -0.014019 -0.471687 -0.015288
v -0.016705 -0.471573 -0.013016
v -0.015908 -0.472703 -0.013956
v -0.015288 -0.471687 -0.014019
v -0.014098 -0.470590 -0.012462
v -0.015772 -0.470506 -0.012379
v -0.014688 -0.470980 -0.013519
v -0.012379 -0.470506 -0.015772
v -0.012462 -0.470590 -0.014098
v -0.013519 -0.470980 -0.014688
v -0.472883 -0.017894 -0.012551
v -0.472883 -0.012551 -0.017894
v -0.469864 -0.010747 -0.015252
v -0.469864 -0.015252 -0.010747
v -0.472703 -0.015908 -0.013956
v -0.471573 -0.016705 -0.013016
v -0.471687 -0.015288 -0.014019
v -0.471573 -0.013016 -0.016705
v -0.472703 -0.013956 -0.015908
v -0.471687 -0.014019 -0.015288
v -0.470590 -0.012462 -0.014098
v -0.470506 -0.012379 -0.015772
v -0.470980 -0.013519 -0.014688
v -0.470506 -0.015772 -0.012379
v -0.470590 -0.014098 -0.012462
v -0.470980 -0.014688 -0.013519
v 0.010747 -0.015252 -0.469864
v 0.012551 -0.017894 -0.472883
v 0.017894 -0.012551 -0.472883
v 0.015252 -0.010747 -0.469864
v 0.012379 -0.015772 -0.470506
v 0.012462 -0.014098 -0.470590
v 0.013519 -0.014688 -0.470980
v 0.013956 -0.015908 -0.472703
v 0.013016 -0.016705 -0.471573
v 0.014019 -0.015288 -0.471687
v 0.016705 -0.013016 -0.471573
v 0.015908 -0.013956 -0.472703
v 0.015288 -0.014019 -0.471687
v 0.014098 -0.012462 -0.470590
v 0.015772 -0.012379 -0.470506
v 0.014688 -0.013519 -0.470980
v 0.472883 -0.012551 -0.017894
v 0.472883 -0.017894 -0.012551
v 0.469864 -0.015252 -0.010747
v 0.469864 -0.010747 -0.015252
v 0.472703 -0.013956 -0.015908
v 0.471573 -0.013016 -0.016705
v 0.471687 -0.014019 -0.015288
v 0.471573 -0.016705 -0.013016
v 0.472703 -0.015908 -0.013956
v 0.471687 -0.015288 -0.014019
v 0.470590 -0.014098 -0.012462
v 0.470506 -0.015772 -0.012379
v 0.470980 -0.014688 -0.013519
v 0.470506 -0.012379 -0.015772
v 0.470590 -0.012462 -0.014098
v 0.470980 -0.013519 -0.014688
v 0.017894 -0.472883 -0.012551
v 0.012551 -0.472883 -0.017894
v 0.010747 -0.469864 -0.015252
v 0.015252 -0.469864 -0.010747
v 0.015908 -0.472703 -0.013956
v 0.016705 -0.471573 -0.013016
v 0.015288 -0.471687 -0.014019
v 0.013016 -0.471573 -0.016705
v 0.013956 -0.472703 -0.015908
v 0.014019 -0.471687 -0.015288
v 0.012462 -0.470590 -0.014098
v 0.012379 -0.470506 -0.015772
v 0.013519 -0.470980 -0.014688
v 0.015772 -0.470506 -0.012379
v 0.014098 -0.470590 -0.012462
v 0.014688 -0.470980 -0.013519
vn -0.6983 -0.6983 -0.1570
vn 0.3793 -0.8439 0.3793
vn -0.6983 0.1570 -0.6983
vn 0.3793 -0.3793 0.8439
vn -0.1570 -0.6983 -0.6983
vn -0.8439 0.3793 0.3793
vn 0.1570 -0.6983 0.6983
vn 0.8439 0.3793 -0.3793
vn 0.6983 -0.1570 -0.6983
vn -0.3793 0.3793 -0.8439
vn 0.6983 -0.6983 0.1570
vn -0.3793 -0.8439 0.3793
vn 0.6983 0.6983 0.1570
vn -0.3793 -0.3793 0.8439
vn 0.6983 0.6983 -0.1570
vn -0.3793 0.8439 -0.3793
vn 0.1570 0.6983 -0.6983
vn 0.8439 -0.3793 0.3793
vn -0.1570 0.6983 0.6983
vn -0.8439 -0.3793 -0.3793
vn -0.6983 0.1570 0.6983
vn 0.3793 -0.3793 -0.8439
vn -0.6983 0.6983 0.1570
vn 0.6983 0.1570 -0.6983
vn -0.1570 -0.6983 0.6983
vn -0.8439 0.3793 -0.3793
vn -0.6983 -0.1570 -0.6983
vn 0.3793 0.8439 -0.3793
vn -0.6983 -0.1570 0.6983
vn 0.3793 -0.8439 -0.3793
vn 0.6983 -0.1570 0.6983
vn -0.3793 -0.8439 -0.3793
vn 0.6983 0.1570 0.6983
vn 0.1570 -0.6983 -0.6983
vn 0.8439 0.3793 0.3793
vn -0.1570 0.6983 -0.6983
vn 0.1570 0.6983 0.6983
vn 0.8439 -0.3793 -0.3793
vn 0.6983 -0.6983 -0.1570
vn -0.3793 0.3793 0.8439
vn -0.3793 0.8439 0.3793
vn -0.3793 -0.3793 -0.8439
vn -0.6983 0.6983 -0.1570
vn 0.3793 0.8439 0.3793
vn 0.3793 0.3793 0.8439
vn 0.3793 0.3793 -0.8439
vn -0.8439 -0.3793 0.3793
vn -0.8760 -0.4823 0.0000
vn -0.9452 -0.2308 0.2308
vn -0.8760 0.0000 0.4823
vn -0.9452 0.2308 0.2308
vn -0.8760 0.4823 -0.0000
vn -0.9452 0.2308 -0.2308
vn -0.8760 0.0000 -0.4823
vn -0.9452 -0.2308 -0.2308
vn -1.0000 0.0000 0.0000
vn 0.6305 0.4229 0.6508
vn 0.6165 0.5567 0.5567
vn 0.6305 0.6508 0.4229
vn 0.8744 0.0000 0.4852
vn 0.6305 -0.6508 0.4229
vn 0.6165 -0.5567 0.5567
vn 0.6305 -0.4229 0.6508
vn 0.8744 -0.4852 -0.0000
vn 0.6305 -0.4229 -0.6508
vn 0.6165 -0.5567 -0.5567
vn 0.6305 -0.6508 -0.4229
vn 0.8744 -0.0000 -0.4852
vn 0.6305 0.6508 -0.4229
vn 0.6165 0.5567 -0.5567
vn 0.6305 0.4229 -0.6508
vn 0.8744 0.4852 0.0000
vn 1.0000 0.0000 0.0000
vn 0.8760 0.0000 -0.4823
vn 0.9452 0.2308 -0.2308
vn 0.8760 0.4823 0.0000
vn 0.9452 0.2308 0.2308
vn 0.8760 0.0000 0.4823
vn 0.9452 -0.2308 0.2308
vn 0.8760 -0.4823 -0.0000
vn 0.9452 -0.2308 -0.2308
vn -0.6305 0.6508 0.4229
vn -0.6165 0.5567 0.5567
vn -0.6305 0.4229 0.6508
vn -0.8744 0.4852 -0.0000
vn -0.6305 0.4229 -0.6508
vn -0.6165 0.5567 -0.5567
vn -0.6305 0.6508 -0.4229
vn -0.8744 0.0000 -0.4852
vn -0.6305 -0.6508 -0.4229
vn -0.6165 -0.5567 -0.5567
vn -0.6305 -0.4229 -0.6508
vn -0.8744 -0.4852 0.0000
vn -0.6305 -0.4229 0.6508
vn -0.6165 -0.5567 0.5567
vn -0.6305 -0.6508 0.4229
vn -0.8744 -0.0000 0.4852
vn 0.0000 -0.8760 -0.4823
vn 0.2308 -0.9452 -0.2308
vn 0.4823 -0.8760 0.0000
vn 0.2308 -0.9452 0.2308
vn -0.0000 -0.8760 0.4823
vn -0.2308 -0.9452 0.2308
vn -0.4823 -0.8760 0.0000
vn -0.2308 -0.9452 -0.2308
vn 0.0000 -1.0000 0.0000
vn 0.6508 0.6305 0.4229
vn 0.5567 0.6165 0.5567
vn 0.4229 0.6305 0.6508
vn 0.4852 0.8744 -0.0000
vn 0.4229 0.6305 -0.6508
vn 0.5567 0.6165 -0.5567
vn 0.6508 0.6305 -0.4229
vn -0.0000 0.8744 -0.4852
vn -0.6508 0.6305 -0.4229
vn -0.5567 0.6165 -0.5567
vn -0.4229 0.6305 -0.6508
vn -0.4852 0.8744 -0.0000
vn -0.4229 0.6305 0.6508
vn -0.5567 0.6165 0.5567
vn -0.6508 0.6305 0.4229
vn 0.0000 0.8744 0.4852
vn 0.0000 1.0000 0.0000
vn -0.0000 0.8760 -0.4823
vn -0.2308 0.9452 -0.2308
vn -0.4823 0.8760 0.0000
vn -0.2308 0.9452 0.2308
vn 0.0000 0.8760 0.4823
vn 0.2308 0.9452 0.2308
vn 0.4823 0.8760 0.0000
vn 0.2308 0.9452 -0.2308
vn -0.6508 -0.6305 0.4229
vn -0.5567 -0.6165 0.5567
vn -0.4229 -0.6305 0.6508
vn -0.4852 -0.8744 -0.0000
vn -0.4229 -0.6305 -0.6508
vn -0.5567 -0.6165 -0.5567
vn -0.6508 -0.6305 -0.4229
vn 0.0000 -0.8744 -0.4852
vn 0.6508 -0.6305 -0.4229
vn 0.5567 -0.6165 -0.5567
vn 0.4229 -0.6305 -0.6508
vn 0.4852 -0.8744 -0.0000
vn 0.4229 -0.6305 0.6508
vn 0.5567 -0.6165 0.5567
vn 0.6508 -0.6305 0.4229
vn 0.0000 -0.8744 0.4852
vn -0.4823 -0.0000 -0.8760
vn -0.2308 0.2308 -0.9452
vn 0.0000 0.4823 -0.8760
vn 0.2308 0.2308 -0.9452
vn 0.4823 0.0000 -0.8760
vn 0.2308 -0.2308 -0.9452
vn 0.0000 -0.4823 -0.8760
vn -0.2308 -0.2308 -0.9452
vn -0.0000 0.0000 -1.0000
vn 0.6508 0.4229 0.6305
vn 0.0000 0.4852 0.8744
vn -0.6508 0.4229 0.6305
vn -0.5567 0.5567 0.6165
vn -0.4229 0.6508 0.6305
vn -0.4852 0.0000 0.8744
vn -0.4229 -0.6508 0.6305
vn -0.5567 -0.5567 0.6165
vn -0.6508 -0.4229 0.6305
vn -0.0000 -0.4852 0.8744
vn 0.6508 -0.4229 0.6305
vn 0.5567 -0.5567 0.6165
vn 0.4229 -0.6508 0.6305
vn 0.4852 0.0000 0.8744
vn 0.4229 0.6508 0.6305
vn 0.5567 0.5567 0.6165
vn 0.0000 0.0000 1.0000
vn 0.0000 -0.4823 0.8760
vn 0.2308 -0.2308 0.9452
vn 0.4823 -0.0000 0.8760
vn 0.2308 0.2308 0.9452
vn 0.0000 0.4823 0.8760
vn -0.2308 0.2308 0.9452
vn -0.4823 0.0000 0.8760
vn -0.2308 -0.2308 0.9452
vn 0.4229 0.6508 -0.6305
vn 0.4852 0.0000 -0.8744
vn 0.4229 -0.6508 -0.6305
vn 0.5567 -0.5567 -0.6165
vn 0.6508 -0.4229 -0.6305
vn 0.0000 -0.4852 -0.8744
vn -0.6508 -0.4229 -0.6305
vn -0.5567 -0.5567 -0.6165
vn -0.4229 -0.6508 -0.6305
vn -0.4852 0.0000 -0.8744
vn -0.4229 0.6508 -0.6305
vn -0.5567 0.5567 -0.6165
vn -0.6508 0.4229 -0.6305
vn -0.0000 0.4852 -0.8744
vn 0.6508 0.4229 -0.6305
vn 0.5567 0.5567 -0.6165
vn 0.3684 -0.0277 -0.9293
vn 0.6126 0.3595 -0.7039
vn 0.7864 0.5613 -0.2579
vn 0.6593 0.6593 -0.3614
vn 0.5613 0.7864 -0.2579
vn 0.3595 0.6126 -0.7039
vn -0.0277 0.3684 -0.9293
vn 0.2248 0.2248 -0.9481
vn 0.4755 0.4755 -0.7401
vn -0.2579 0.7864 0.5613
vn -0.3614 0.6593 0.6593
vn -0.2579 0.5613 0.7864
vn -0.7039 0.3595 0.6126
vn -0.9293 -0.0277 0.3684
vn -0.9481 0.2248 0.2248
vn -0.9293 0.3684 -0.0277
vn -0.7039 0.6126 0.3595
vn -0.7401 0.4755 0.4755
vn 0.5613 -0.2579 0.7864
vn 0.6593 -0.3614 0.6593
vn 0.7864 -0.2579 0.5613
vn 0.6126 -0.7039 0.3595
vn 0.3684 -0.9293 -0.0277
vn 0.2248 -0.9481 0.2248
vn -0.0277 -0.9293 0.3683
vn 0.3595 -0.7039 0.6126
vn 0.4755 -0.7401 0.4755
vn 0.0277 0.3683 -0.9293
vn -0.3595 0.6126 -0.7039
vn -0.5613 0.7864 -0.2579
vn -0.6593 0.6593 -0.3614
vn -0.7864 0.5613 -0.2579
vn -0.6126 0.3595 -0.7039
vn -0.3684 -0.0277 -0.9293
vn -0.2248 0.2248 -0.9481
vn -0.4755 0.4755 -0.7401
vn -0.7864 -0.2579 0.5613
vn -0.6593 -0.3614 0.6593
vn -0.5613 -0.2579 0.7864
vn -0.3595 -0.7039 0.6126
vn 0.0277 -0.9293 0.3684
vn -0.2248 -0.9481 0.2248
vn -0.3684 -0.9293 -0.0277
vn -0.6126 -0.7039 0.3595
vn -0.4755 -0.7402 0.4755
vn 0.2579 0.5613 0.7864
vn 0.3614 0.6593 0.6593
vn 0.2579 0.7864 0.5613
vn 0.7039 0.6126 0.3595
vn 0.9293 0.3684 -0.0277
vn 0.9481 0.2248 0.2248
vn 0.9293 -0.0277 0.3684
vn 0.7039 0.3595 0.6126
vn 0.7401 0.4755 0.4755
vn -0.3684 0.0277 -0.9293
vn -0.6126 -0.3595 -0.7039
vn -0.7864 -0.5613 -0.2579
vn -0.6593 -0.6593 -0.3614
vn -0.5613 -0.7864 -0.2579
vn -0.3595 -0.6126 -0.7039
vn 0.0277 -0.3684 -0.9293
vn -0.2248 -0.2248 -0.9481
vn -0.4755 -0.4755 -0.7401
vn 0.2579 -0.7864 0.5613
vn 0.3614 -0.6593 0.6593
vn 0.2579 -0.5613 0.7864
vn 0.7039 -0.3595 0.6126
vn 0.9293 0.0277 0.3684
vn 0.9481 -0.2248 0.2248
vn 0.9293 -0.3684 -0.0277
vn 0.7039 -0.6126 0.3595
vn 0.7401 -0.4755 0.4755
vn -0.5613 0.2579 0.7864
vn -0.6593 0.3614 0.6593
vn -0.7864 0.2579 0.5613
vn -0.6126 0.7039 0.3595
vn -0.3684 0.9293 -0.0277
vn -0.2248 0.9481 0.2248
vn 0.0277 0.9293 0.3683
vn -0.3595 0.7039 0.6126
vn -0.4755 0.7401 0.4755
vn -0.0277 -0.3683 -0.9293
vn 0.3595 -0.6126 -0.7039
vn 0.5613 -0.7864 -0.2579
vn 0.6593 -0.6593 -0.3614
vn 0.7864 -0.5613 -0.2579
vn 0.6126 -0.3595 -0.7039
vn 0.3684 0.0277 -0.9293
vn 0.2248 -0.2248 -0.9481
vn 0.4755 -0.4755 -0.7401
vn 0.7864 0.2579 0.5613
vn 0.6593 0.3614 0.6593
vn 0.5613 0.2579 0.7864
vn 0.3595 0.7039 0.6126
vn -0.0277 0.9293 0.3684
vn 0.2248 0.9481 0.2248
vn 0.3684 0.9293 -0.0277
vn 0.6126 0.7039 0.3595
vn 0.4755 0.7402 0.4755
vn -0.2579 -0.5613 0.7864
vn -0.3614 -0.6593 0.6593
vn -0.2579 -0.7864 0.5613
vn -0.7039 -0.6126 0.3595
vn -0.9293 -0.3684 -0.0277
vn -0.9481 -0.2248 0.2248
vn -0.9293 0.0277 0.3684
vn -0.7039 -0.3595 0.6126
vn -0.7401 -0.4755 0.4755
vn -0.0277 0.3683 0.9293
vn 0.3595 0.6126 0.7039
vn 0.5613 0.7864 0.2579
vn 0.6593 0.6593 0.3614
vn 0.7864 0.5613 0.2579
vn 0.6126 0.3595 0.7039
vn 0.3684 -0.0277 0.9293
vn 0.2248 0.2248 0.9481
vn 0.4755 0.4755 0.7401
vn 0.7864 -0.2579 -0.5613
vn 0.6593 -0.3614 -0.6593
vn 0.5613 -0.2579 -0.7864
vn 0.3595 -0.7039 -0.6126
vn -0.0277 -0.9293 -0.3684
vn 0.2248 -0.9481 -0.2248
vn 0.3684 -0.9293 0.0277
vn 0.6126 -0.7039 -0.3595
vn 0.4755 -0.7402 -0.4755
vn -0.2579 0.5613 -0.7864
vn -0.3614 0.6593 -0.6593
vn -0.2579 0.7864 -0.5613
vn -0.7039 0.6126 -0.3595
vn -0.9293 0.3684 0.0277
vn -0.9481 0.2248 -0.2248
vn -0.9293 -0.0277 -0.3684
vn -0.7039 0.3595 -0.6126
vn -0.7401 0.4755 -0.4755
vn -0.3684 -0.0277 0.9293
vn -0.6126 0.3595 0.7039
vn -0.7864 0.5613 0.2579
vn -0.6593 0.6593 0.3614
vn -0.5613 0.7864 0.2579
vn -0.3595 0.6126 0.7039
vn 0.0277 0.3684 0.9293
vn -0.2248 0.2248 0.9481
vn -0.4755 0.4755 0.7401
vn 0.2579 0.7864 -0.5613
vn 0.3614 0.6593 -0.6593
vn 0.2579 0.5613 -0.7864
vn 0.7039 0.3595 -0.6126
vn 0.9293 -0.0277 -0.3684
vn 0.9481 0.2248 -0.2248
vn 0.9293 0.3684 0.0277
vn 0.7039 0.6126 -0.3595
vn 0.7401 0.4755 -0.4755
vn -0.5613 -0.2579 -0.7864
vn -0.6593 -0.3614 -0.6593
vn -0.7864 -0.2579 -0.5613
vn -0.6126 -0.7039 -0.3595
vn -0.3684 -0.9293 0.0277
vn -0.2248 -0.9481 -0.2248
vn 0.0277 -0.9293 -0.3683
vn -0.3595 -0.7039 -0.6126
vn -0.4755 -0.7401 -0.4755
vn 0.0277 -0.3683 0.9293
vn -0.3595 -0.6126 0.7039
vn -0.5613 -0.7864 0.2579
vn -0.6593 -0.6593 0.3614
vn -0.7864 -0.5613 0.2579
vn -0.6126 -0.3595 0.7039
vn -0.3684 0.0277 0.9293
vn -0.2248 -0.2248 0.9481
vn -0.4755 -0.4755 0.7401
vn -0.7864 0.2579 -0.5613
vn -0.6593 0.3614 -0.6593
vn -0.5613 0.2579 -0.7864
vn -0.3595 0.7039 -0.6126
vn 0.0277 0.9293 -0.3684
vn -0.2248 0.9481 -0.2248
vn -0.3684 0.9293 0.0277
vn -0.6126 0.7039 -0.3595
vn -0.4755 0.7402 -0.4755
vn 0.2579 -0.5613 -0.7864
vn 0.3614 -0.6593 -0.6593
vn 0.2579 -0.7864 -0.5613
vn 0.7039 -0.6126 -0.3595
vn 0.9293 -0.3684 0.0277
vn 0.9481 -0.2248 -0.2248
vn 0.9293 0.0277 -0.3684
vn 0.7039 -0.3595 -0.6126
vn 0.7401 -0.4755 -0.4755
vn 0.3684 0.0277 0.9293
vn 0.6126 -0.3595 0.7039
vn 0.7864 -0.5613 0.2579
vn 0.6593 -0.6593 0.3614
vn 0.5613 -0.7864 0.2579
vn 0.3595 -0.6126 0.7039
vn -0.0277 -0.3684 0.9293
vn 0.2248 -0.2248 0.9481
vn 0.4755 -0.4755 0.7401
vn -0.2579 -0.7864 -0.5613
vn -0.3614 -0.6593 -0.6593
vn -0.2579 -0.5613 -0.7864
vn -0.7039 -0.3595 -0.6126
vn -0.9293 0.0277 -0.3684
vn -0.9481 -0.2248 -0.2248
vn -0.9293 -0.3684 0.0277
vn -0.7039 -0.6126 -0.3595
vn -0.7401 -0.4755 -0.4755
vn 0.5613 0.2579 -0.7864
vn 0.6593 0.3614 -0.6593
vn 0.7864 0.2579 -0.5613
vn 0.6126 0.7039 -0.3595
vn 0.3684 0.9293 0.0277
vn 0.2248 0.9481 -0.2248
vn -0.0277 0.9293 -0.3683
vn 0.3595 0.7039 -0.6126
vn 0.4755 0.7401 -0.4755
vn -0.0478 -0.5817 -0.8120
vn -0.3399 -0.3399 -0.8769
vn -0.5817 -0.0477 -0.8120
vn 0.1799 0.9671 0.1799
vn -0.2906 0.9117 -0.2906
vn -0.6315 0.4499 -0.6315
vn -0.8120 -0.5817 -0.0477
vn -0.8769 -0.3399 -0.3399
vn -0.8120 -0.0478 -0.5817
vn 0.3948 0.5064 0.7666
vn 0.4016 0.6476 0.6476
vn 0.3948 0.7666 0.5064
vn 0.7666 0.5064 0.3948
vn 0.6476 0.6476 0.4016
vn 0.5064 0.7666 0.3948
vn 0.5426 -0.6413 0.5426
vn 0.7071 0.0000 0.7071
vn 0.5426 0.6413 0.5426
vn 0.1799 0.1799 0.9671
vn -0.2906 -0.2906 0.9117
vn -0.6315 -0.6315 0.4499
vn -0.0477 -0.8120 -0.5817
vn -0.3399 -0.8769 -0.3399
vn -0.5817 -0.8120 -0.0478
vn 0.7666 0.3948 0.5064
vn 0.6476 0.4016 0.6476
vn 0.5064 0.3948 0.7666
vn 0.5426 0.5426 -0.6413
vn 0.7071 0.7071 -0.0000
vn 0.5426 0.5426 0.6413
vn 0.9671 0.1799 0.1799
vn 0.9117 -0.2906 -0.2906
vn 0.4499 -0.6315 -0.6315
vn -0.6413 0.5426 0.5426
vn 0.0000 0.7071 0.7071
vn 0.6413 0.5426 0.5426
vn 0.5817 -0.0477 -0.8120
vn 0.3399 -0.3399 -0.8769
vn 0.0477 -0.5817 -0.8120
vn -0.9671 0.1799 0.1799
vn -0.9117 -0.2906 -0.2906
vn -0.4499 -0.6315 -0.6315
vn 0.5817 -0.8120 -0.0478
vn 0.3399 -0.8769 -0.3399
vn 0.0477 -0.8120 -0.5817
vn -0.5064 0.3948 0.7666
vn -0.6476 0.4016 0.6476
vn -0.7666 0.3948 0.5064
vn -0.5064 0.7666 0.3948
vn -0.6476 0.6476 0.4016
vn -0.7666 0.5064 0.3948
vn -0.1799 0.1799 0.9671
vn 0.2906 -0.2906 0.9117
vn 0.6315 -0.6315 0.4499
vn 0.8120 -0.0477 -0.5817
vn 0.8769 -0.3399 -0.3399
vn 0.8120 -0.5817 -0.0477
vn -0.3948 0.7666 0.5064
vn -0.4016 0.6476 0.6476
vn -0.3948 0.5064 0.7666
vn -0.5426 0.5426 -0.6413
vn -0.7071 0.7071 -0.0000
vn -0.5426 0.5426 0.6413
vn -0.1799 0.9671 0.1799
vn 0.2906 0.9117 -0.2906
vn 0.6315 0.4499 -0.6315
vn -0.5426 -0.6413 0.5426
vn -0.7071 0.0000 0.7071
vn -0.5426 0.6413 0.5426
vn 0.0478 0.5817 -0.8120
vn 0.3399 0.3399 -0.8769
vn 0.5817 0.0477 -0.8120
vn -0.1799 -0.9671 0.1799
vn 0.2906 -0.9117 -0.2906
vn 0.6315 -0.4499 -0.6315
vn 0.8120 0.5817 -0.0477
vn 0.8769 0.3399 -0.3399
vn 0.8120 0.0478 -0.5817
vn -0.3948 -0.5064 0.7666
vn -0.4016 -0.6476 0.6476
vn -0.3948 -0.7666 0.5064
vn -0.7666 -0.5064 0.3948
vn -0.6476 -0.6476 0.4016
vn -0.5064 -0.7666 0.3948
vn -0.1799 -0.1799 0.9671
vn 0.2906 0.2906 0.9117
vn 0.6315 0.6315 0.4499
vn 0.0477 0.8120 -0.5817
vn 0.3399 0.8769 -0.3399
vn 0.5817 0.8120 -0.0478
vn -0.7666 -0.3948 0.5064
vn -0.6476 -0.4016 0.6476
vn -0.5064 -0.3948 0.7666
vn -0.5426 -0.5426 -0.6413
vn -0.7071 -0.7071 -0.0000
vn -0.5426 -0.5426 0.6413
vn -0.9671 -0.1799 0.1799
vn -0.9117 0.2906 -0.2906
vn -0.4499 0.6315 -0.6315
vn 0.6413 -0.5426 0.5426
vn 0.0000 -0.7071 0.7071
vn -0.6413 -0.5426 0.5426
vn -0.5817 0.0477 -0.8120
vn -0.3399 0.3399 -0.8769
vn -0.0477 0.5817 -0.8120
vn 0.9671 -0.1799 0.1799
vn 0.9117 0.2906 -0.2906
vn 0.4499 0.6315 -0.6315
vn -0.5817 0.8120 -0.0478
vn -0.3399 0.8769 -0.3399
vn -0.0477 0.8120 -0.5817
vn 0.5064 -0.3948 0.7666
vn 0.6476 -0.4016 0.6476
vn 0.7666 -0.3948 0.5064
vn 0.5064 -0.7666 0.3948
vn 0.6476 -0.6476 0.4016
vn 0.7666 -0.5064 0.3948
vn 0.1799 -0.1799 0.9671
vn -0.2906 0.2906 0.9117
vn -0.6315 0.6315 0.4499
vn -0.8120 0.0477 -0.5817
vn -0.8769 0.3399 -0.3399
vn -0.8120 0.5817 -0.0477
vn 0.3948 -0.7666 0.5064
vn 0.4016 -0.6476 0.6476
vn 0.3948 -0.5064 0.7666
vn 0.5426 -0.5426 -0.6413
vn 0.7071 -0.7071 -0.0000
vn 0.5426 -0.5426 0.6413
vn 0.1799 -0.9671 0.1799
vn -0.2906 -0.9117 -0.2906
vn -0.6315 -0.4499 -0.6315
vn -0.5817 -0.0477 0.8120
vn -0.3399 -0.3399 0.8769
vn -0.0477 -0.5817 0.8120
vn 0.9671 0.1799 -0.1799
vn 0.9117 -0.2906 0.2906
vn 0.4499 -0.6315 0.6315
vn -0.5817 -0.8120 0.0478
vn -0.3399 -0.8769 0.3399
vn -0.0477 -0.8120 0.5817
vn 0.5064 0.3948 -0.7666
vn 0.6476 0.4016 -0.6476
vn 0.7666 0.3948 -0.5064
vn 0.5064 0.7666 -0.3948
vn 0.6476 0.6476 -0.4016
vn 0.7666 0.5064 -0.3948
vn -0.6413 0.5426 -0.5426
vn 0.0000 0.7071 -0.7071
vn 0.6413 0.5426 -0.5426
vn 0.1799 0.1799 -0.9671
vn -0.2906 -0.2906 -0.9117
vn -0.6315 -0.6315 -0.4499
vn -0.8120 -0.0477 0.5817
vn -0.8769 -0.3399 0.3399
vn -0.8120 -0.5817 0.0477
vn 0.3948 0.7666 -0.5064
vn 0.4016 0.6476 -0.6476
vn 0.3948 0.5064 -0.7666
vn 0.1799 0.9671 -0.1799
vn -0.2906 0.9117 0.2906
vn -0.6315 0.4499 0.6315
vn 0.5426 -0.6413 -0.5426
vn 0.7071 0.0000 -0.7071
vn 0.5426 0.6413 -0.5426
vn 0.0478 -0.5817 0.8120
vn 0.3399 -0.3399 0.8769
vn 0.5817 -0.0477 0.8120
vn -0.1799 0.9671 -0.1799
vn 0.2906 0.9117 0.2906
vn 0.6315 0.4499 0.6315
vn 0.8120 -0.5817 0.0477
vn 0.8769 -0.3399 0.3399
vn 0.8120 -0.0478 0.5817
vn -0.3948 0.5064 -0.7666
vn -0.4016 0.6476 -0.6476
vn -0.3948 0.7666 -0.5064
vn -0.7666 0.5064 -0.3948
vn -0.6476 0.6476 -0.4016
vn -0.5064 0.7666 -0.3948
vn -0.5426 -0.6413 -0.5426
vn -0.7071 0.0000 -0.7071
vn -0.5426 0.6413 -0.5426
vn -0.1799 0.1799 -0.9671
vn 0.2906 -0.2906 -0.9117
vn 0.6315 -0.6315 -0.4499
vn 0.0477 -0.8120 0.5817
vn 0.3399 -0.8769 0.3399
vn 0.5817 -0.8120 0.0478
vn -0.7666 0.3948 -0.5064
vn -0.6476 0.4016 -0.6476
vn -0.5064 0.3948 -0.7666
vn -0.9671 0.1799 -0.1799
vn -0.9117 -0.2906 0.2906
vn -0.4499 -0.6315 0.6315
vn 0.5817 0.0477 0.8120
vn 0.3399 0.3399 0.8769
vn 0.0477 0.5817 0.8120
vn -0.9671 -0.1799 -0.1799
vn -0.9117 0.2906 0.2906
vn -0.4499 0.6315 0.6315
vn 0.5817 0.8120 0.0478
vn 0.3399 0.8769 0.3399
vn 0.0477 0.8120 0.5817
vn -0.5064 -0.3948 -0.7666
vn -0.6476 -0.4016 -0.6476
vn -0.7666 -0.3948 -0.5064
vn -0.5064 -0.7666 -0.3948
vn -0.6476 -0.6476 -0.4016
vn -0.7666 -0.5064 -0.3948
vn 0.6413 -0.5426 -0.5426
vn 0.0000 -0.7071 -0.7071
vn -0.6413 -0.5426 -0.5426
vn -0.1799 -0.1799 -0.9671
vn 0.2906 0.2906 -0.9117
vn 0.6315 0.6315 -0.4499
vn 0.8120 0.0477 0.5817
vn 0.8769 0.3399 0.3399
vn 0.8120 0.5817 0.0477
vn -0.3948 -0.7666 -0.5064
vn -0.4016 -0.6476 -0.6476
vn -0.3948 -0.5064 -0.7666
vn -0.1799 -0.9671 -0.1799
vn 0.2906 -0.9117 0.2906
vn 0.6315 -0.4499 0.6315
vn -0.0478 0.5817 0.8120
vn -0.3399 0.3399 0.8769
vn -0.5817 0.0477 0.8120
vn 0.1799 -0.9671 -0.1799
vn -0.2906 -0.9117 0.2906
vn -0.6315 -0.4499 0.6315
vn -0.8120 0.5817 0.0477
vn -0.8769 0.3399 0.3399
vn -0.8120 0.0478 0.5817
vn 0.3948 -0.5064 -0.7666
vn 0.4016 -0.6476 -0.6476
vn 0.3948 -0.7666 -0.5064
vn 0.7666 -0.5064 -0.3948
vn 0.6476 -0.6476 -0.4016
vn 0.5064 -0.7666 -0.3948
vn 0.1799 -0.1799 -0.9671
vn -0.2906 0.2906 -0.9117
vn -0.6315 0.6315 -0.4499
vn -0.0477 0.8120 0.5817
vn -0.3399 0.8769 0.3399
vn -0.5817 0.8120 0.0478
vn 0.7666 -0.3948 -0.5064
vn 0.6476 -0.4016 -0.6476
vn 0.5064 -0.3948 -0.7666
vn 0.9671 -0.1799 -0.1799
vn 0.9117 0.2906 0.2906
vn 0.4499 0.6315 0.6315
vn -0.6983 -0.6983 0.1570
usemtl dtmo_base_mat
s off
f 499//1 516//1 1//1 100//1
f 434//2 466//2 19//2 215//2
f 292//3 308//3 4//3 193//3
f 465//4 450//4 167//4 20//4
f 340//5 356//5 97//5 196//5
f 353//6 339//6 210//6 120//6
f 484//7 500//7 99//7 241//7
f 497//8 483//8 264//8 116//8
f 388//9 404//9 49//9 195//9
f 561//10 546//10 67//10 118//10
f 355//11 372//11 52//11 98//11
f 401//12 387//12 212//12 72//12
f 403//13 420//13 148//13 50//13
f 417//14 402//14 71//14 162//14
f 595//15 612//15 50//15 148//15
f 545//16 531//16 262//16 68//16
f 436//17 452//17 145//17 194//17
f 449//18 435//18 214//18 168//18
f 580//19 596//19 147//19 243//19
f 593//20 579//20 260//20 164//20
f 515//21 481//21 244//21 2//21
f 657//22 642//22 21//22 166//22
f 451//23 468//23 3//23 146//23
f 371//24 337//24 195//24 49//24
f 563//25 529//25 241//25 99//25
f 530//26 562//26 117//26 263//26
f 467//27 433//27 193//27 4//27
f 482//28 514//28 23//28 257//28
f 628//29 644//29 2//29 244//29
f 641//30 627//30 258//30 22//30
f 611//31 577//31 242//31 51//31
f 578//32 610//32 69//32 261//32
f 532//33 548//33 51//33 242//33
f 323//34 289//34 196//34 97//34
f 290//35 322//35 113//35 209//35
f 419//36 385//36 194//36 145//36
f 659//37 625//37 243//37 147//37
f 626//38 658//38 165//38 259//38
f 547//39 564//39 98//39 52//39
f 369//40 354//40 119//40 66//40
f 338//41 370//41 65//41 211//41
f 609//42 594//42 163//42 70//42
f 643//43 660//43 146//43 3//43
f 305//44 291//44 216//44 18//44
f 321//45 306//45 17//45 114//45
f 513//46 498//46 115//46 24//46
f 386//47 418//47 161//47 213//47
f 1//48 5//48 7//48 6//48
f 5//49 9//49 10//49 7//49
f 2//50 8//50 10//50 9//50
f 8//51 12//51 13//51 10//51
f 3//52 11//52 13//52 12//52
f 11//53 15//53 16//53 13//53
f 4//54 14//54 16//54 15//54
f 14//55 6//55 7//55 16//55
f 7//56 10//56 13//56 16//56
f 17//57 25//57 27//57 26//57
f 25//58 29//58 30//58 27//58
f 18//59 28//59 30//59 29//59
f 28//60 32//60 33//60 30//60
f 19//61 31//61 33//61 32//61
f 31//62 35//62 36//62 33//62
f 20//63 34//63 36//63 35//63
f 34//64 38//64 39//64 36//64
f 21//65 37//65 39//65 38//65
f 37//66 41//66 42//66 39//66
f 22//67 40//67 42//67 41//67
f 40//68 44//68 45//68 42//68
f 23//69 43//69 45//69 44//69
f 43//70 47//70 48//70 45//70
f 24//71 46//71 48//71 47//71
f 46//72 26//72 27//72 48//72
f 27//73 30//73 33//73 36//73 39//73 42//73 45//73 48//73
f 49//74 53//74 55//74 54//74
f 53//75 57//75 58//75 55//75
f 50//76 56//76 58//76 57//76
f 56//77 60//77 61//77 58//77
f 51//78 59//78 61//78 60//78
f 59//79 63//79 64//79 61//79
f 52//80 62//80 64//80 63//80
f 62//81 54//81 55//81 64//81
f 55//73 58//73 61//73 64//73
f 65//82 73//82 75//82 74//82
f 73//83 77//83 78//83 75//83
f 66//84 76//84 78//84 77//84
f 76//85 80//85 81//85 78//85
f 67//86 79//86 81//86 80//86
f 79//87 83//87 84//87 81//87
f 68//88 82//88 84//88 83//88
f 82//89 86//89 87//89 84//89
f 69//90 85//90 87//90 86//90
f 85//91 89//91 90//91 87//91
f 70//92 88//92 90//92 89//92
f 88//93 92//93 93//93 90//93
f 71//94 91//94 93//94 92//94
f 91//95 95//95 96//95 93//95
f 72//96 94//96 96//96 95//96
f 94//97 74//97 75//97 96//97
f 75//56 78//56 81//56 84//56 87//56 90//56 93//56 96//56
f 97//98 101//98 103//98 102//98
f 101//99 105//99 106//99 103//99
f 98//100 104//100 106//100 105//100
f 104//101 108//101 109//101 106//101
f 99//102 107//102 109//102 108//102
f 107//103 111//103 112//103 109//103
f 100//104 110//104 112//104 111//104
f 110//105 102//105 103//105 112//105
f 103//106 106//106 109//106 112//106
f 113//107 121//107 123//107 122//107
f 121//108 125//108 126//108 123//108
f 114//109 124//109 126//109 125//109
f 124//110 128//110 129//110 126//110
f 115//111 127//111 129//111 128//111
f 127//112 131//112 132//112 129//112
f 116//113 130//113 132//113 131//113
f 130//114 134//114 135//114 132//114
f 117//115 133//115 135//115 134//115
f 133//116 137//116 138//116 135//116
f 118//117 136//117 138//117 137//117
f 136//118 140//118 141//118 138//118
f 119//119 139//119 141//119 140//119
f 139//120 143//120 144//120 141//120
f 120//121 142//121 144//121 143//121
f 142//122 122//122 123//122 144//122
f 123//123 126//123 129//123 132//123 135//123 138//123 141//123 144//123
f 145//124 149//124 151//124 150//124
f 149//125 153//125 154//125 151//125
f 146//126 152//126 154//126 153//126
f 152//127 156//127 157//127 154//127
f 147//128 155//128 157//128 156//128
f 155//129 159//129 160//129 157//129
f 148//130 158//130 160//130 159//130
f 158//131 150//131 151//131 160//131
f 151//123 154//123 157//123 160//123
f 161//132 169//132 171//132 170//132
f 169//133 173//133 174//133 171//133
f 162//134 172//134 174//134 173//134
f 172//135 176//135 177//135 174//135
f 163//136 175//136 177//136 176//136
f 175//137 179//137 180//137 177//137
f 164//138 178//138 180//138 179//138
f 178//139 182//139 183//139 180//139
f 165//140 181//140 183//140 182//140
f 181//141 185//141 186//141 183//141
f 166//142 184//142 186//142 185//142
f 184//143 188//143 189//143 186//143
f 167//144 187//144 189//144 188//144
f 187//145 191//145 192//145 189//145
f 168//146 190//146 192//146 191//146
f 190//147 170//147 171//147 192//147
f 171//106 174//106 177//106 180//106 183//106 186//106 189//106 192//106
f 193//148 197//148 199//148 198//148
f 197//149 201//149 202//149 199//149
f 194//150 200//150 202//150 201//150
f 200//151 204//151 205//151 202//151
f 195//152 203//152 205//152 204//152
f 203//153 207//153 208//153 205//153
f 196//154 206//154 208//154 207//154
f 206//155 198//155 199//155 208//155
f 199//156 202//156 205//156 208//156
f 209//157 217//157 219//157 218//157
f 217//158 221//158 222//158 219//158
f 210//159 220//159 222//159 221//159
f 220//160 224//160 225//160 222//160
f 211//161 223//161 225//161 224//161
f 223//162 227//162 228//162 225//162
f 212//163 226//163 228//163 227//163
f 226//164 230//164 231//164 228//164
f 213//165 229//165 231//165 230//165
f 229//166 233//166 234//166 231//166
f 214//167 232//167 234//167 233//167
f 232//168 236//168 237//168 234//168
f 215//169 235//169 237//169 236//169
f 235//170 239//170 240//170 237//170
f 216//171 238//171 240//171 239//171
f 238//172 218//172 219//172 240//172
f 219//173 222//173 225//173 228//173 231//173 234//173 237//173 240//173
f 241//174 245//174 247//174 246//174
f 245//175 249//175 250//175 247//175
f 242//176 248//176 250//176 249//176
f 248//177 252//177 253//177 250//177
f 243//178 251//178 253//178 252//178
f 251//179 255//179 256//179 253//179
f 244//180 254//180 256//180 255//180
f 254//181 246//181 247//181 256//181
f 247//173 250//173 253//173 256//173
f 257//182 265//182 267//182 266//182
f 265//183 269//183 270//183 267//183
f 258//184 268//184 270//184 269//184
f 268//185 272//185 273//185 270//185
f 259//186 271//186 273//186 272//186
f 271//187 275//187 276//187 273//187
f 260//188 274//188 276//188 275//188
f 274//189 278//189 279//189 276//189
f 261//190 277//190 279//190 278//190
f 277//191 281//191 282//191 279//191
f 262//192 280//192 282//192 281//192
f 280//193 284//193 285//193 282//193
f 263//194 283//194 285//194 284//194
f 283//195 287//195 288//195 285//195
f 264//196 286//196 288//196 287//196
f 286//197 266//197 267//197 288//197
f 267//156 270//156 273//156 276//156 279//156 282//156 285//156 288//156
f 289//198 293//198 295//198 294//198
f 293//199 297//199 298//199 295//199
f 290//200 296//200 298//200 297//200
f 296//201 300//201 301//201 298//201
f 291//202 299//202 301//202 300//202
f 299//203 303//203 304//203 301//203
f 292//204 302//204 304//204 303//204
f 302//205 294//205 295//205 304//205
f 295//206 298//206 301//206 304//206
f 305//207 309//207 311//207 310//207
f 309//208 313//208 314//208 311//208
f 306//209 312//209 314//209 313//209
f 312//210 316//210 317//210 314//210
f 307//211 315//211 317//211 316//211
f 315//212 319//212 320//212 317//212
f 308//213 318//213 320//213 319//213
f 318//214 310//214 311//214 320//214
f 311//215 314//215 317//215 320//215
f 321//216 325//216 327//216 326//216
f 325//217 329//217 330//217 327//217
f 322//218 328//218 330//218 329//218
f 328//219 332//219 333//219 330//219
f 323//220 331//220 333//220 332//220
f 331//221 335//221 336//221 333//221
f 324//222 334//222 336//222 335//222
f 334//223 326//223 327//223 336//223
f 327//224 330//224 333//224 336//224
f 337//225 341//225 343//225 342//225
f 341//226 345//226 346//226 343//226
f 338//227 344//227 346//227 345//227
f 344//228 348//228 349//228 346//228
f 339//229 347//229 349//229 348//229
f 347//230 351//230 352//230 349//230
f 340//231 350//231 352//231 351//231
f 350//232 342//232 343//232 352//232
f 343//233 346//233 349//233 352//233
f 353//234 357//234 359//234 358//234
f 357//235 361//235 362//235 359//235
f 354//236 360//236 362//236 361//236
f 360//237 364//237 365//237 362//237
f 355//238 363//238 365//238 364//238
f 363//239 367//239 368//239 365//239
f 356//240 366//240 368//240 367//240
f 366//241 358//241 359//241 368//241
f 359//242 362//242 365//242 368//242
f 369//243 373//243 375//243 374//243
f 373//244 377//244 378//244 375//244
f 370//245 376//245 378//245 377//245
f 376//246 380//246 381//246 378//246
f 371//247 379//247 381//247 380//247
f 379//248 383//248 384//248 381//248
f 372//249 382//249 384//249 383//249
f 382//250 374//250 375//250 384//250
f 375//251 378//251 381//251 384//251
f 385//252 389//252 391//252 390//252
f 389//253 393//253 394//253 391//253
f 386//254 392//254 394//254 393//254
f 392//255 396//255 397//255 394//255
f 387//256 395//256 397//256 396//256
f 395//257 399//257 400//257 397//257
f 388//258 398//258 400//258 399//258
f 398//259 390//259 391//259 400//259
f 391//260 394//260 397//260 400//260
f 401//261 405//261 407//261 406//261
f 405//262 409//262 410//262 407//262
f 402//263 408//263 410//263 409//263
f 408//264 412//264 413//264 410//264
f 403//265 411//265 413//265 412//265
f 411//266 415//266 416//266 413//266
f 404//267 414//267 416//267 415//267
f 414//268 406//268 407//268 416//268
f 407//269 410//269 413//269 416//269
f 417//270 421//270 423//270 422//270
f 421//271 425//271 426//271 423//271
f 418//272 424//272 426//272 425//272
f 424//273 428//273 429//273 426//273
f 419//274 427//274 429//274 428//274
f 427//275 431//275 432//275 429//275
f 420//276 430//276 432//276 431//276
f 430//277 422//277 423//277 432//277
f 423//278 426//278 429//278 432//278
f 433//279 437//279 439//279 438//279
f 437//280 441//280 442//280 439//280
f 434//281 440//281 442//281 441//281
f 440//282 444//282 445//282 442//282
f 435//283 443//283 445//283 444//283
f 443//284 447//284 448//284 445//284
f 436//285 446//285 448//285 447//285
f 446//286 438//286 439//286 448//286
f 439//287 442//287 445//287 448//287
f 449//288 453//288 455//288 454//288
f 453//289 457//289 458//289 455//289
f 450//290 456//290 458//290 457//290
f 456//291 460//291 461//291 458//291
f 451//292 459//292 461//292 460//292
f 459//293 463//293 464//293 461//293
f 452//294 462//294 464//294 463//294
f 462//295 454//295 455//295 464//295
f 455//296 458//296 461//296 464//296
f 465//297 469//297 471//297 470//297
f 469//298 473//298 474//298 471//298
f 466//299 472//299 474//299 473//299
f 472//300 476//300 477//300 474//300
f 467//301 475//301 477//301 476//301
f 475//302 479//302 480//302 477//302
f 468//303 478//303 480//303 479//303
f 478//304 470//304 471//304 480//304
f 471//305 474//305 477//305 480//305
f 481//306 485//306 487//306 486//306
f 485//307 489//307 490//307 487//307
f 482//308 488//308 490//308 489//308
f 488//309 492//309 493//309 490//309
f 483//310 491//310 493//310 492//310
f 491//311 495//311 496//311 493//311
f 484//312 494//312 496//312 495//312
f 494//313 486//313 487//313 496//313
f 487//314 490//314 493//314 496//314
f 497//315 501//315 503//315 502//315
f 501//316 505//316 506//316 503//316
f 498//317 504//317 506//317 505//317
f 504//318 508//318 509//318 506//318
f 499//319 507//319 509//319 508//319
f 507//320 511//320 512//320 509//320
f 500//321 510//321 512//321 511//321
f 510//322 502//322 503//322 512//322
f 503//323 506//323 509//323 512//323
f 513//324 517//324 519//324 518//324
f 517//325 521//325 522//325 519//325
f 514//326 520//326 522//326 521//326
f 520//327 524//327 525//327 522//327
f 515//328 523//328 525//328 524//328
f 523//329 527//329 528//329 525//329
f 516//330 526//330 528//330 527//330
f 526//331 518//331 519//331 528//331
f 519//332 522//332 525//332 528//332
f 529//333 533//333 535//333 534//333
f 533//334 537//334 538//334 535//334
f 530//335 536//335 538//335 537//335
f 536//336 540//336 541//336 538//336
f 531//337 539//337 541//337 540//337
f 539//338 543//338 544//338 541//338
f 532//339 542//339 544//339 543//339
f 542//340 534//340 535//340 544//340
f 535//341 538//341 541//341 544//341
f 545//342 549//342 551//342 550//342
f 549//343 553//343 554//343 551//343
f 546//344 552//344 554//344 553//344
f 552//345 556//345 557//345 554//345
f 547//346 555//346 557//346 556//346
f 555//347 559//347 560//347 557//347
f 548//348 558//348 560//348 559//348
f 558//349 550//349 551//349 560//349
f 551//350 554//350 557//350 560//350
f 561//351 565//351 567//351 566//351
f 565//352 569//352 570//352 567//352
f 562//353 568//353 570//353 569//353
f 568//354 572//354 573//354 570//354
f 563//355 571//355 573//355 572//355
f 571//356 575//356 576//356 573//356
f 564//357 574//357 576//357 575//357
f 574//358 566//358 567//358 576//358
f 567//359 570//359 573//359 576//359
f 577//360 581//360 583//360 582//360
f 581//361 585//361 586//361 583//361
f 578//362 584//362 586//362 585//362
f 584//363 588//363 589//363 586//363
f 579//364 587//364 589//364 588//364
f 587//365 591//365 592//365 589//365
f 580//366 590//366 592//366 591//366
f 590//367 582//367 583//367 592//367
f 583//368 586//368 589//368 592//368
f 593//369 597//369 599//369 598//369
f 597//370 601//370 602//370 599//370
f 594//371 600//371 602//371 601//371
f 600//372 604//372 605//372 602//372
f 595//373 603//373 605//373 604//373
f 603//374 607//374 608//374 605//374
f 596//375 606//375 608//375 607//375
f 606//376 598//376 599//376 608//376
f 599//377 602//377 605//377 608//377
f 609//378 613//378 615//378 614//378
f 613//379 617//379 618//379 615//379
f 610//380 616//380 618//380 617//380
f 616//381 620//381 621//381 618//381
f 611//382 619//382 621//382 620//382
f 619//383 623//383 624//383 621//383
f 612//384 622//384 624//384 623//384
f 622//385 614//385 615//385 624//385
f 615//386 618//386 621//386 624//386
f 625//387 629//387 631//387 630//387
f 629//388 633//388 634//388 631//388
f 626//389 632//389 634//389 633//389
f 632//390 636//390 637//390 634//390
f 627//391 635//391 637//391 636//391
f 635//392 639//392 640//392 637//392
f 628//393 638//393 640//393 639//393
f 638//394 630//394 631//394 640//394
f 631//395 634//395 637//395 640//395
f 641//396 645//396 647//396 646//396
f 645//397 649//397 650//397 647//397
f 642//398 648//398 650//398 649//398
f 648//399 652//399 653//399 650//399
f 643//400 651//400 653//400 652//400
f 651//401 655//401 656//401 653//401
f 644//402 654//402 656//402 655//402
f 654//403 646//403 647//403 656//403
f 647//404 650//404 653//404 656//404
f 657//405 661//405 663//405 662//405
f 661//406 665//406 666//406 663//406
f 658//407 664//407 666//407 665//407
f 664//408 668//408 669//408 666//408
f 659//409 667//409 669//409 668//409
f 667//410 671//410 672//410 669//410
f 660//411 670//411 672//411 671//411
f 670//412 662//412 663//412 672//412
f 663//413 666//413 669//413 672//413
f 196//414 289//414 294//414 206//414
f 206//415 294//415 302//415 198//415
f 198//416 302//416 292//416 193//416
f 291//417 305//417 310//417 299//417
f 299//418 310//418 318//418 303//418
f 303//419 318//419 308//419 292//419
f 307//420 1//420 6//420 315//420
f 315//421 6//421 14//421 319//421
f 319//422 14//422 4//422 308//422
f 17//423 306//423 313//423 25//423
f 25//424 313//424 309//424 29//424
f 29//425 309//425 305//425 18//425
f 290//426 209//426 218//426 296//426
f 296//427 218//427 238//427 300//427
f 300//428 238//428 216//428 291//428
f 215//429 19//429 32//429 235//429
f 235//430 32//430 28//430 239//430
f 239//431 28//431 18//431 216//431
f 306//432 321//432 326//432 312//432
f 312//433 326//433 334//433 316//433
f 316//434 334//434 324//434 307//434
f 323//435 97//435 102//435 331//435
f 331//436 102//436 110//436 335//436
f 335//437 110//437 100//437 324//437
f 113//438 322//438 329//438 121//438
f 121//439 329//439 325//439 125//439
f 125//440 325//440 321//440 114//440
f 24//441 115//441 128//441 46//441
f 46//442 128//442 124//442 26//442
f 26//443 124//443 114//443 17//443
f 322//444 290//444 297//444 328//444
f 328//445 297//445 293//445 332//445
f 332//446 293//446 289//446 323//446
f 120//447 210//447 221//447 142//447
f 142//448 221//448 217//448 122//448
f 122//449 217//449 209//449 113//449
f 195//450 337//450 342//450 203//450
f 203//451 342//451 350//451 207//451
f 207//452 350//452 340//452 196//452
f 339//453 353//453 358//453 347//453
f 347//454 358//454 366//454 351//454
f 351//455 366//455 356//455 340//455
f 355//456 98//456 105//456 363//456
f 363//457 105//457 101//457 367//457
f 367//458 101//458 97//458 356//458
f 119//459 354//459 361//459 139//459
f 139//460 361//460 357//460 143//460
f 143//461 357//461 353//461 120//461
f 338//462 211//462 224//462 344//462
f 344//463 224//463 220//463 348//463
f 348//464 220//464 210//464 339//464
f 354//465 369//465 374//465 360//465
f 360//466 374//466 382//466 364//466
f 364//467 382//467 372//467 355//467
f 371//468 49//468 54//468 379//468
f 379//469 54//469 62//469 383//469
f 383//470 62//470 52//470 372//470
f 65//471 370//471 377//471 73//471
f 73//472 377//472 373//472 77//472
f 77//473 373//473 369//473 66//473
f 118//474 67//474 80//474 136//474
f 136//475 80//475 76//475 140//475
f 140//476 76//476 66//476 119//476
f 370//477 338//477 345//477 376//477
f 376//478 345//478 341//478 380//478
f 380//479 341//479 337//479 371//479
f 72//480 212//480 227//480 94//480
f 94//481 227//481 223//481 74//481
f 74//482 223//482 211//482 65//482
f 194//483 385//483 390//483 200//483
f 200//484 390//484 398//484 204//484
f 204//485 398//485 388//485 195//485
f 387//486 401//486 406//486 395//486
f 395//487 406//487 414//487 399//487
f 399//488 414//488 404//488 388//488
f 403//489 50//489 57//489 411//489
f 411//490 57//490 53//490 415//490
f 415//491 53//491 49//491 404//491
f 71//492 402//492 409//492 91//492
f 91//493 409//493 405//493 95//493
f 95//494 405//494 401//494 72//494
f 386//495 213//495 230//495 392//495
f 392//496 230//496 226//496 396//496
f 396//497 226//497 212//497 387//497
f 402//498 417//498 422//498 408//498
f 408//499 422//499 430//499 412//499
f 412//500 430//500 420//500 403//500
f 419//501 145//501 150//501 427//501
f 427//502 150//502 158//502 431//502
f 431//503 158//503 148//503 420//503
f 161//504 418//504 425//504 169//504
f 169//505 425//505 421//505 173//505
f 173//506 421//506 417//506 162//506
f 70//507 163//507 176//507 88//507
f 88//508 176//508 172//508 92//508
f 92//509 172//509 162//509 71//509
f 418//510 386//510 393//510 424//510
f 424//511 393//511 389//511 428//511
f 428//512 389//512 385//512 419//512
f 168//513 214//513 233//513 190//513
f 190//514 233//514 229//514 170//514
f 170//515 229//515 213//515 161//515
f 193//516 433//516 438//516 197//516
f 197//517 438//517 446//517 201//517
f 201//518 446//518 436//518 194//518
f 435//519 449//519 454//519 443//519
f 443//520 454//520 462//520 447//520
f 447//521 462//521 452//521 436//521
f 451//522 146//522 153//522 459//522
f 459//523 153//523 149//523 463//523
f 463//524 149//524 145//524 452//524
f 167//525 450//525 457//525 187//525
f 187//526 457//526 453//526 191//526
f 191//527 453//527 449//527 168//527
f 434//528 215//528 236//528 440//528
f 440//529 236//529 232//529 444//529
f 444//530 232//530 214//530 435//530
f 450//531 465//531 470//531 456//531
f 456//532 470//532 478//532 460//532
f 460//533 478//533 468//533 451//533
f 467//534 4//534 15//534 475//534
f 475//535 15//535 11//535 479//535
f 479//536 11//536 3//536 468//536
f 19//537 466//537 473//537 31//537
f 31//538 473//538 469//538 35//538
f 35//539 469//539 465//539 20//539
f 166//540 21//540 38//540 184//540
f 184//541 38//541 34//541 188//541
f 188//542 34//542 20//542 167//542
f 466//543 434//543 441//543 472//543
f 472//544 441//544 437//544 476//544
f 476//545 437//545 433//545 467//545
f 244//546 481//546 486//546 254//546
f 254//547 486//547 494//547 246//547
f 246//548 494//548 484//548 241//548
f 483//549 497//549 502//549 491//549
f 491//550 502//550 510//550 495//550
f 495//551 510//551 500//551 484//551
f 499//552 100//552 111//552 507//552
f 507//553 111//553 107//553 511//553
f 511//554 107//554 99//554 500//554
f 115//555 498//555 505//555 127//555
f 127//556 505//556 501//556 131//556
f 131//557 501//557 497//557 116//557
f 482//558 257//558 266//558 488//558
f 488//559 266//559 286//559 492//559
f 492//560 286//560 264//560 483//560
f 263//561 117//561 134//561 283//561
f 283//562 134//562 130//562 287//562
f 287//563 130//563 116//563 264//563
f 498//564 513//564 518//564 504//564
f 504//565 518//565 526//565 508//565
f 508//566 526//566 516//566 499//566
f 515//567 2//567 9//567 523//567
f 523//568 9//568 5//568 527//568
f 527//569 5//569 1//569 516//569
f 23//570 514//570 521//570 43//570
f 43//571 521//571 517//571 47//571
f 47//572 517//572 513//572 24//572
f 514//573 482//573 489//573 520//573
f 520//574 489//574 485//574 524//574
f 524//575 485//575 481//575 515//575
f 22//576 258//576 269//576 40//576
f 40//577 269//577 265//577 44//577
f 44//578 265//578 257//578 23//578
f 241//579 529//579 534//579 245//579
f 245//580 534//580 542//580 249//580
f 249//581 542//581 532//581 242//581
f 531//582 545//582 550//582 539//582
f 539//583 550//583 558//583 543//583
f 543//584 558//584 548//584 532//584
f 547//585 52//585 63//585 555//585
f 555//586 63//586 59//586 559//586
f 559//587 59//587 51//587 548//587
f 67//588 546//588 553//588 79//588
f 79//589 553//589 549//589 83//589
f 83//590 549//590 545//590 68//590
f 530//591 263//591 284//591 536//591
f 536//592 284//592 280//592 540//592
f 540//593 280//593 262//593 531//593
f 261//594 69//594 86//594 277//594
f 277//595 86//595 82//595 281//595
f 281//596 82//596 68//596 262//596
f 546//597 561//597 566//597 552//597
f 552//598 566//598 574//598 556//598
f 556//599 574//599 564//599 547//599
f 563//600 99//600 108//600 571//600
f 571//601 108//601 104//601 575//601
f 575//602 104//602 98//602 564//602
f 117//603 562//603 569//603 133//603
f 133//604 569//604 565//604 137//604
f 137//605 565//605 561//605 118//605
f 562//606 530//606 537//606 568//606
f 568//607 537//607 533//607 572//607
f 572//608 533//608 529//608 563//608
f 242//609 577//609 582//609 248//609
f 248//610 582//610 590//610 252//610
f 252//611 590//611 580//611 243//611
f 579//612 593//612 598//612 587//612
f 587//613 598//613 606//613 591//613
f 591//614 606//614 596//614 580//614
f 595//615 148//615 159//615 603//615
f 603//616 159//616 155//616 607//616
f 607//617 155//617 147//617 596//617
f 163//618 594//618 601//618 175//618
f 175//619 601//619 597//619 179//619
f 179//620 597//620 593//620 164//620
f 578//621 261//621 278//621 584//621
f 584//622 278//622 274//622 588//622
f 588//623 274//623 260//623 579//623
f 259//624 165//624 182//624 271//624
f 271//625 182//625 178//625 275//625
f 275//626 178//626 164//626 260//626
f 594//627 609//627 614//627 600//627
f 600//628 614//628 622//628 604//628
f 604//629 622//629 612//629 595//629
f 611//630 51//630 60//630 619//630
f 619//631 60//631 56//631 623//631
f 623//632 56//632 50//632 612//632
f 69//633 610//633 617//633 85//633
f 85//634 617//634 613//634 89//634
f 89//635 613//635 609//635 70//635
f 610//636 578//636 585//636 616//636
f 616//637 585//637 581//637 620//637
f 620//638 581//638 577//638 611//638
f 243//639 625//639 630//639 251//639
f 251//640 630//640 638//640 255//640
f 255//641 638//641 628//641 244//641
f 627//642 641//642 646//642 635//642
f 635//643 646//643 654//643 639//643
f 639//644 654//644 644//644 628//644
f 643//645 3//645 12//645 651//645
f 651//646 12//646 8//646 655//646
f 655//647 8//647 2//647 644//647
f 21//648 642//648 649//648 37//648
f 37//649 649//649 645//649 41//649
f 41//650 645//650 641//650 22//650
f 626//651 259//651 272//651 632//651
f 632//652 272//652 268//652 636//652
f 636//653 268//653 258//653 627//653
f 642//654 657//654 662//654 648//654
f 648//655 662//655 670//655 652//655
f 652//656 670//656 660//656 643//656
f 659//657 147//657 156//657 667//657
f 667//658 156//658 152//658 671//658
f 671//659 152//659 146//659 660//659
f 165//660 658//660 665//660 181//660
f 181//661 665//661 661//661 185//661
f 185//662 661//662 657//662 166//662
f 658//663 626//663 633//663 664//663
f 664//664 633//664 629//664 668//664
f 668//665 629//665 625//665 659//665
f 307//666 324//666 100//666 1//666
