# Blender v3.1.2 OBJ File: ''
# www.blender.org
mtllib Wirehexahedron.mtl
o Wirehexahedron
v -0.478921 -0.469630 -0.478921
v -0.478921 -0.478921 -0.469630
v -0.469630 -0.478921 -0.478921
v -0.479927 -0.472448 -0.477477
v -0.480281 -0.475204 -0.475204
v -0.477477 -0.472448 -0.479927
v -0.478175 -0.474547 -0.478175
v -0.478654 -0.476442 -0.476442
v -0.477216 -0.477216 -0.477216
v -0.477477 -0.479927 -0.472448
v -0.475204 -0.480281 -0.475204
v -0.479927 -0.477477 -0.472448
v -0.478175 -0.478175 -0.474547
v -0.476442 -0.478654 -0.476442
v -0.472448 -0.477477 -0.479927
v -0.475204 -0.475204 -0.480281
v -0.472448 -0.479927 -0.477477
v -0.474547 -0.478175 -0.478175
v -0.476442 -0.476442 -0.478654
v -0.515287 -0.515287 -0.520050
v -0.515287 -0.520050 -0.515287
v -0.520050 -0.515287 -0.515287
v -0.515709 -0.517531 -0.520109
v -0.515857 -0.519224 -0.519224
v -0.517531 -0.515709 -0.520109
v -0.518003 -0.518003 -0.520097
v -0.518002 -0.519354 -0.519354
v -0.519043 -0.519043 -0.519043
v -0.517531 -0.520109 -0.515709
v -0.519224 -0.519224 -0.515857
v -0.515709 -0.520109 -0.517531
v -0.518003 -0.520097 -0.518003
v -0.519354 -0.519354 -0.518002
v -0.520109 -0.515709 -0.517531
v -0.519224 -0.515857 -0.519224
v -0.520109 -0.517531 -0.515709
v -0.520097 -0.518003 -0.518003
v -0.519354 -0.518002 -0.519354
v 0.469630 -0.478921 -0.478921
v 0.478921 -0.478921 -0.469630
v 0.478921 -0.469630 -0.478921
v 0.472448 -0.479927 -0.477477
v 0.475204 -0.480281 -0.475204
v 0.472448 -0.477477 -0.479927
v 0.474547 -0.478175 -0.478175
v 0.476442 -0.478654 -0.476442
v 0.477216 -0.477216 -0.477216
v 0.479927 -0.477477 -0.472448
v 0.480281 -0.475204 -0.475204
v 0.477477 -0.479927 -0.472448
v 0.478175 -0.478175 -0.474547
v 0.478654 -0.476442 -0.476442
v 0.477477 -0.472448 -0.479927
v 0.475204 -0.475204 -0.480281
v 0.479927 -0.472448 -0.477477
v 0.478175 -0.474547 -0.478175
v 0.476442 -0.476442 -0.478654
v 0.520050 -0.515287 -0.515287
v 0.515287 -0.520050 -0.515287
v 0.515287 -0.515287 -0.520050
v 0.520530 -0.517953 -0.515287
v 0.519794 -0.519794 -0.515287
v 0.520530 -0.515287 -0.517953
v 0.520298 -0.517804 -0.517804
v 0.519686 -0.519686 -0.517759
v 0.519142 -0.519142 -0.519142
v 0.515287 -0.520530 -0.517953
v 0.515287 -0.519794 -0.519794
v 0.517953 -0.520530 -0.515287
v 0.517804 -0.520298 -0.517804
v 0.517759 -0.519686 -0.519686
v 0.517953 -0.515287 -0.520530
v 0.519794 -0.515287 -0.519794
v 0.515287 -0.517953 -0.520530
v 0.517804 -0.517804 -0.520298
v 0.519686 -0.517759 -0.519686
v 0.478921 0.469630 -0.478921
v 0.478921 0.478921 -0.469630
v 0.469630 0.478921 -0.478921
v 0.479927 0.472448 -0.477477
v 0.480281 0.475204 -0.475204
v 0.477477 0.472448 -0.479927
v 0.478175 0.474547 -0.478175
v 0.478654 0.476442 -0.476442
v 0.477216 0.477216 -0.477216
v 0.477477 0.479927 -0.472448
v 0.475204 0.480281 -0.475204
v 0.479927 0.477477 -0.472448
v 0.478175 0.478175 -0.474547
v 0.476442 0.478654 -0.476442
v 0.472448 0.477477 -0.479927
v 0.475204 0.475204 -0.480281
v 0.472448 0.479927 -0.477477
v 0.474547 0.478175 -0.478175
v 0.476442 0.476442 -0.478654
v 0.515287 0.520050 -0.515287
v 0.520050 0.515287 -0.515287
v 0.515287 0.515287 -0.520050
v 0.517953 0.520530 -0.515287
v 0.519794 0.519794 -0.515287
v 0.515287 0.520530 -0.517953
v 0.517804 0.520298 -0.517804
v 0.519686 0.519686 -0.517759
v 0.519142 0.519142 -0.519142
v 0.520530 0.515287 -0.517953
v 0.519794 0.515287 -0.519794
v 0.520530 0.517953 -0.515287
v 0.520298 0.517804 -0.517804
v 0.519686 0.517759 -0.519686
v 0.515287 0.517953 -0.520530
v 0.515287 0.519794 -0.519794
v 0.517953 0.515287 -0.520530
v 0.517804 0.517804 -0.520298
v 0.517759 0.519686 -0.519686
v -0.469630 0.478921 -0.478921
v -0.478921 0.478921 -0.469630
v -0.478921 0.469630 -0.478921
v -0.472448 0.479927 -0.477477
v -0.475204 0.480281 -0.475204
v -0.472448 0.477477 -0.479927
v -0.474547 0.478175 -0.478175
v -0.476442 0.478654 -0.476442
v -0.477216 0.477216 -0.477216
v -0.479927 0.477477 -0.472448
v -0.480281 0.475204 -0.475204
v -0.477477 0.479927 -0.472448
v -0.478175 0.478175 -0.474547
v -0.478654 0.476442 -0.476442
v -0.477477 0.472448 -0.479927
v -0.475204 0.475204 -0.480281
v -0.479927 0.472448 -0.477477
v -0.478175 0.474547 -0.478175
v -0.476442 0.476442 -0.478654
v -0.520050 0.515287 -0.515287
v -0.515287 0.520050 -0.515287
v -0.515287 0.515287 -0.520050
v -0.520530 0.517953 -0.515287
v -0.519794 0.519794 -0.515287
v -0.520530 0.515287 -0.517953
v -0.520298 0.517804 -0.517804
v -0.519686 0.519686 -0.517759
v -0.519142 0.519142 -0.519142
v -0.515287 0.520530 -0.517953
v -0.515287 0.519794 -0.519794
v -0.517953 0.520530 -0.515287
v -0.517804 0.520298 -0.517804
v -0.517759 0.519686 -0.519686
v -0.517953 0.515287 -0.520530
v -0.519794 0.515287 -0.519794
v -0.515287 0.517953 -0.520530
v -0.517804 0.517804 -0.520298
v -0.519686 0.517759 -0.519686
v -0.478921 -0.478921 0.469630
v -0.478921 -0.469630 0.478921
v -0.469630 -0.478921 0.478921
v -0.479927 -0.477477 0.472448
v -0.480281 -0.475204 0.475204
v -0.477477 -0.479927 0.472448
v -0.478175 -0.478175 0.474547
v -0.478654 -0.476442 0.476442
v -0.477216 -0.477216 0.477216
v -0.477477 -0.472448 0.479927
v -0.475204 -0.475204 0.480281
v -0.479927 -0.472448 0.477477
v -0.478175 -0.474547 0.478175
v -0.476442 -0.476442 0.478654
v -0.472448 -0.479927 0.477477
v -0.475204 -0.480281 0.475204
v -0.472448 -0.477477 0.479927
v -0.474547 -0.478175 0.478175
v -0.476442 -0.478654 0.476442
v -0.515287 -0.515287 0.520050
v -0.520050 -0.515287 0.515287
v -0.515287 -0.520050 0.515287
v -0.517953 -0.515287 0.520530
v -0.519794 -0.515287 0.519794
v -0.515287 -0.517953 0.520530
v -0.517804 -0.517804 0.520298
v -0.519686 -0.517759 0.519686
v -0.519142 -0.519142 0.519142
v -0.520530 -0.517953 0.515287
v -0.519794 -0.519794 0.515287
v -0.520530 -0.515287 0.517953
v -0.520298 -0.517804 0.517804
v -0.519686 -0.519686 0.517759
v -0.515287 -0.520530 0.517953
v -0.515287 -0.519794 0.519794
v -0.517953 -0.520530 0.515287
v -0.517804 -0.520298 0.517804
v -0.517759 -0.519686 0.519686
v 0.469630 -0.478921 0.478921
v 0.478921 -0.469630 0.478921
v 0.478921 -0.478921 0.469630
v 0.472448 -0.477477 0.479927
v 0.475204 -0.475204 0.480281
v 0.472448 -0.479927 0.477477
v 0.474547 -0.478175 0.478175
v 0.476442 -0.476442 0.478654
v 0.477216 -0.477216 0.477216
v 0.479927 -0.472448 0.477477
v 0.480281 -0.475204 0.475204
v 0.477477 -0.472448 0.479927
v 0.478175 -0.474547 0.478175
v 0.478654 -0.476442 0.476442
v 0.477477 -0.479927 0.472448
v 0.475204 -0.480281 0.475204
v 0.479927 -0.477477 0.472448
v 0.478175 -0.478175 0.474547
v 0.476442 -0.478654 0.476442
v 0.520050 -0.515287 0.515287
v 0.515287 -0.515287 0.520050
v 0.515287 -0.520050 0.515287
v 0.520530 -0.515287 0.517953
v 0.519794 -0.515287 0.519794
v 0.520530 -0.517953 0.515287
v 0.520298 -0.517804 0.517804
v 0.519686 -0.517759 0.519686
v 0.519142 -0.519142 0.519142
v 0.515287 -0.517953 0.520530
v 0.515287 -0.519794 0.519794
v 0.517953 -0.515287 0.520530
v 0.517804 -0.517804 0.520298
v 0.517759 -0.519686 0.519686
v 0.517953 -0.520530 0.515287
v 0.519794 -0.519794 0.515287
v 0.515287 -0.520530 0.517953
v 0.517804 -0.520298 0.517804
v 0.519686 -0.519686 0.517759
v 0.478921 0.469630 0.478921
v 0.469630 0.478921 0.478921
v 0.478921 0.478921 0.469630
v 0.477477 0.472448 0.479927
v 0.475204 0.475204 0.480281
v 0.479927 0.472448 0.477477
v 0.478175 0.474547 0.478175
v 0.476442 0.476442 0.478654
v 0.477216 0.477216 0.477216
v 0.472448 0.479927 0.477477
v 0.475204 0.480281 0.475204
v 0.472448 0.477477 0.479927
v 0.474547 0.478175 0.478175
v 0.476442 0.478654 0.476442
v 0.479927 0.477477 0.472448
v 0.480281 0.475204 0.475204
v 0.477477 0.479927 0.472448
v 0.478175 0.478175 0.474547
v 0.478654 0.476442 0.476442
v 0.520050 0.515287 0.515287
v 0.515287 0.520050 0.515287
v 0.515287 0.515287 0.520050
v 0.520109 0.517531 0.515709
v 0.519224 0.519224 0.515857
v 0.520109 0.515709 0.517531
v 0.520097 0.518003 0.518003
v 0.519354 0.519354 0.518002
v 0.519043 0.519043 0.519043
v 0.515709 0.520109 0.517531
v 0.515857 0.519224 0.519224
v 0.517531 0.520109 0.515709
v 0.518003 0.520097 0.518003
v 0.518002 0.519354 0.519354
v 0.517531 0.515709 0.520109
v 0.519224 0.515857 0.519224
v 0.515709 0.517531 0.520109
v 0.518003 0.518003 0.520097
v 0.519354 0.518002 0.519354
v -0.478921 0.478921 0.469630
v -0.469630 0.478921 0.478921
v -0.478921 0.469630 0.478921
v -0.477477 0.479927 0.472448
v -0.475204 0.480281 0.475204
v -0.479927 0.477477 0.472448
v -0.478175 0.478175 0.474547
v -0.476442 0.478654 0.476442
v -0.477216 0.477216 0.477216
v -0.472448 0.477477 0.479927
v -0.475204 0.475204 0.480281
v -0.472448 0.479927 0.477477
v -0.474547 0.478175 0.478175
v -0.476442 0.476442 0.478654
v -0.479927 0.472448 0.477477
v -0.480281 0.475204 0.475204
v -0.477477 0.472448 0.479927
v -0.478175 0.474547 0.478175
v -0.478654 0.476442 0.476442
v -0.515287 0.515287 0.520050
v -0.515287 0.520050 0.515287
v -0.520050 0.515287 0.515287
v -0.515287 0.517953 0.520530
v -0.515287 0.519794 0.519794
v -0.517953 0.515287 0.520530
v -0.517804 0.517804 0.520298
v -0.517759 0.519686 0.519686
v -0.519142 0.519142 0.519142
v -0.517953 0.520530 0.515287
v -0.519794 0.519794 0.515287
v -0.515287 0.520530 0.517953
v -0.517804 0.520298 0.517804
v -0.519686 0.519686 0.517759
v -0.520530 0.515287 0.517953
v -0.519794 0.515287 0.519794
v -0.520530 0.517953 0.515287
v -0.520298 0.517804 0.517804
v -0.519686 0.517759 0.519686
v -0.458294 -0.467586 -0.494405
v -0.470373 -0.470373 -0.503610
v -0.467586 -0.458294 -0.494405
v -0.461065 -0.466349 -0.497085
v -0.464334 -0.466445 -0.499775
v -0.461113 -0.466142 -0.495412
v -0.462704 -0.465343 -0.497499
v -0.464281 -0.465258 -0.499406
v -0.464487 -0.464487 -0.498866
v -0.467858 -0.467602 -0.502066
v -0.466445 -0.464334 -0.499775
v -0.467602 -0.467858 -0.502066
v -0.466079 -0.466079 -0.500753
v -0.465258 -0.464281 -0.499405
v -0.466142 -0.461113 -0.495412
v -0.463869 -0.463869 -0.495765
v -0.466349 -0.461065 -0.497085
v -0.465343 -0.462704 -0.497499
v -0.464059 -0.464059 -0.497639
v -0.470373 0.470373 -0.503610
v -0.458294 0.467586 -0.494405
v -0.467586 0.458294 -0.494405
v -0.467602 0.467858 -0.502066
v -0.464334 0.466445 -0.499775
v -0.467858 0.467602 -0.502066
v -0.466079 0.466079 -0.500753
v -0.464281 0.465258 -0.499405
v -0.464487 0.464487 -0.498866
v -0.461113 0.466142 -0.495412
v -0.463869 0.463869 -0.495765
v -0.461065 0.466349 -0.497085
v -0.462704 0.465343 -0.497499
v -0.464059 0.464059 -0.497639
v -0.466349 0.461065 -0.497085
v -0.466445 0.464334 -0.499775
v -0.466142 0.461113 -0.495412
v -0.465343 0.462704 -0.497499
v -0.465258 0.464281 -0.499406
v 0.470373 0.470373 -0.503610
v 0.467586 0.458294 -0.494405
v 0.458294 0.467586 -0.494405
v 0.467858 0.467602 -0.502066
v 0.466445 0.464334 -0.499775
v 0.467602 0.467858 -0.502066
v 0.466079 0.466079 -0.500753
v 0.465258 0.464281 -0.499405
v 0.464487 0.464487 -0.498866
v 0.466142 0.461113 -0.495412
v 0.463869 0.463869 -0.495765
v 0.466349 0.461065 -0.497085
v 0.465343 0.462704 -0.497499
v 0.464059 0.464059 -0.497639
v 0.461065 0.466349 -0.497085
v 0.464334 0.466445 -0.499775
v 0.461113 0.466142 -0.495412
v 0.462704 0.465343 -0.497499
v 0.464281 0.465258 -0.499406
v 0.470373 -0.470373 -0.503610
v 0.458294 -0.467586 -0.494405
v 0.467586 -0.458294 -0.494405
v 0.467602 -0.467858 -0.502066
v 0.464334 -0.466445 -0.499775
v 0.467858 -0.467602 -0.502066
v 0.466079 -0.466079 -0.500753
v 0.464281 -0.465258 -0.499405
v 0.464487 -0.464487 -0.498866
v 0.461113 -0.466142 -0.495412
v 0.463869 -0.463869 -0.495765
v 0.461065 -0.466349 -0.497085
v 0.462704 -0.465343 -0.497499
v 0.464059 -0.464059 -0.497639
v 0.466349 -0.461065 -0.497085
v 0.466445 -0.464334 -0.499775
v 0.466142 -0.461113 -0.495412
v 0.465343 -0.462704 -0.497499
v 0.465258 -0.464281 -0.499406
v -0.467586 -0.494405 -0.458294
v -0.470373 -0.503610 -0.470373
v -0.458294 -0.494405 -0.467586
v -0.466349 -0.497085 -0.461065
v -0.466445 -0.499775 -0.464334
v -0.466142 -0.495412 -0.461113
v -0.465343 -0.497499 -0.462704
v -0.465258 -0.499406 -0.464281
v -0.464487 -0.498866 -0.464487
v -0.467602 -0.502066 -0.467858
v -0.464334 -0.499775 -0.466445
v -0.467858 -0.502066 -0.467602
v -0.466079 -0.500753 -0.466079
v -0.464281 -0.499405 -0.465258
v -0.461113 -0.495412 -0.466142
v -0.463869 -0.495765 -0.463869
v -0.461065 -0.497085 -0.466349
v -0.462704 -0.497499 -0.465343
v -0.464059 -0.497639 -0.464059
v 0.470373 -0.503610 -0.470373
v 0.467586 -0.494405 -0.458294
v 0.458294 -0.494405 -0.467586
v 0.467858 -0.502066 -0.467602
v 0.466445 -0.499775 -0.464334
v 0.467602 -0.502066 -0.467858
v 0.466079 -0.500753 -0.466079
v 0.465258 -0.499405 -0.464281
v 0.464487 -0.498866 -0.464487
v 0.466142 -0.495412 -0.461113
v 0.463869 -0.495765 -0.463869
v 0.466349 -0.497085 -0.461065
v 0.465343 -0.497499 -0.462704
v 0.464059 -0.497639 -0.464059
v 0.461065 -0.497085 -0.466349
v 0.464334 -0.499775 -0.466445
v 0.461113 -0.495412 -0.466142
v 0.462704 -0.497499 -0.465343
v 0.464281 -0.499406 -0.465258
v 0.470373 -0.503610 0.470373
v 0.458294 -0.494405 0.467586
v 0.467586 -0.494405 0.458294
v 0.467602 -0.502066 0.467858
v 0.464334 -0.499775 0.466445
v 0.467858 -0.502066 0.467602
v 0.466079 -0.500753 0.466079
v 0.464281 -0.499405 0.465258
v 0.464487 -0.498866 0.464487
v 0.461113 -0.495412 0.466142
v 0.463869 -0.495765 0.463869
v 0.461065 -0.497085 0.466349
v 0.462704 -0.497499 0.465343
v 0.464059 -0.497639 0.464059
v 0.466349 -0.497085 0.461065
v 0.466445 -0.499775 0.464334
v 0.466142 -0.495412 0.461113
v 0.465343 -0.497499 0.462704
v 0.465258 -0.499406 0.464281
v -0.470373 -0.503610 0.470373
v -0.467586 -0.494405 0.458294
v -0.458294 -0.494405 0.467586
v -0.467858 -0.502066 0.467602
v -0.466445 -0.499775 0.464334
v -0.467602 -0.502066 0.467858
v -0.466079 -0.500753 0.466079
v -0.465258 -0.499405 0.464281
v -0.464487 -0.498866 0.464487
v -0.466142 -0.495412 0.461113
v -0.463869 -0.495765 0.463869
v -0.466349 -0.497085 0.461065
v -0.465343 -0.497499 0.462704
v -0.464059 -0.497639 0.464059
v -0.461065 -0.497085 0.466349
v -0.464334 -0.499775 0.466445
v -0.461113 -0.495412 0.466142
v -0.462704 -0.497499 0.465343
v -0.464281 -0.499406 0.465258
v -0.494405 -0.458294 -0.467586
v -0.503610 -0.470373 -0.470373
v -0.494405 -0.467586 -0.458294
v -0.497085 -0.461065 -0.466349
v -0.499775 -0.464334 -0.466445
v -0.495412 -0.461113 -0.466142
v -0.497499 -0.462704 -0.465343
v -0.499406 -0.464281 -0.465258
v -0.498866 -0.464487 -0.464487
v -0.502066 -0.467858 -0.467602
v -0.499775 -0.466445 -0.464334
v -0.502066 -0.467602 -0.467858
v -0.500753 -0.466079 -0.466079
v -0.499405 -0.465258 -0.464281
v -0.495412 -0.466142 -0.461113
v -0.495765 -0.463869 -0.463869
v -0.497085 -0.466349 -0.461065
v -0.497499 -0.465343 -0.462704
v -0.497639 -0.464059 -0.464059
v -0.503610 -0.470373 0.470373
v -0.494405 -0.458294 0.467586
v -0.494405 -0.467586 0.458294
v -0.502066 -0.467602 0.467858
v -0.499775 -0.464334 0.466445
v -0.502066 -0.467858 0.467602
v -0.500753 -0.466079 0.466079
v -0.499405 -0.464281 0.465258
v -0.498866 -0.464487 0.464487
v -0.495412 -0.461113 0.466142
v -0.495765 -0.463869 0.463869
v -0.497085 -0.461065 0.466349
v -0.497499 -0.462704 0.465343
v -0.497639 -0.464059 0.464059
v -0.497085 -0.466349 0.461065
v -0.499775 -0.466445 0.464334
v -0.495412 -0.466142 0.461113
v -0.497499 -0.465343 0.462704
v -0.499406 -0.465258 0.464281
v -0.503610 0.470373 0.470373
v -0.494405 0.467586 0.458294
v -0.494405 0.458294 0.467586
v -0.502066 0.467858 0.467602
v -0.499775 0.466445 0.464334
v -0.502066 0.467602 0.467858
v -0.500753 0.466079 0.466079
v -0.499405 0.465258 0.464281
v -0.498866 0.464487 0.464487
v -0.495412 0.466142 0.461113
v -0.495765 0.463869 0.463869
v -0.497085 0.466349 0.461065
v -0.497499 0.465343 0.462704
v -0.497639 0.464059 0.464059
v -0.497085 0.461065 0.466349
v -0.499775 0.464334 0.466445
v -0.495412 0.461113 0.466142
v -0.497499 0.462704 0.465343
v -0.499406 0.464281 0.465258
v -0.503610 0.470373 -0.470373
v -0.494405 0.458294 -0.467586
v -0.494405 0.467586 -0.458294
v -0.502066 0.467602 -0.467858
v -0.499775 0.464334 -0.466445
v -0.502066 0.467858 -0.467602
v -0.500753 0.466079 -0.466079
v -0.499405 0.464281 -0.465258
v -0.498866 0.464487 -0.464487
v -0.495412 0.461113 -0.466142
v -0.495765 0.463869 -0.463869
v -0.497085 0.461065 -0.466349
v -0.497499 0.462704 -0.465343
v -0.497639 0.464059 -0.464059
v -0.497085 0.466349 -0.461065
v -0.499775 0.466445 -0.464334
v -0.495412 0.466142 -0.461113
v -0.497499 0.465343 -0.462704
v -0.499406 0.465258 -0.464281
v 0.494405 0.467586 0.458294
v 0.503610 0.470373 0.470373
v 0.494405 0.458294 0.467586
v 0.497085 0.466349 0.461065
v 0.499775 0.466445 0.464334
v 0.495412 0.466142 0.461113
v 0.497499 0.465343 0.462704
v 0.499406 0.465258 0.464281
v 0.498866 0.464487 0.464487
v 0.502066 0.467602 0.467858
v 0.499775 0.464334 0.466445
v 0.502066 0.467858 0.467602
v 0.500753 0.466079 0.466079
v 0.499405 0.464281 0.465258
v 0.495412 0.461113 0.466142
v 0.495765 0.463869 0.463869
v 0.497085 0.461065 0.466349
v 0.497499 0.462704 0.465343
v 0.497639 0.464059 0.464059
v 0.503610 -0.470373 0.470373
v 0.494405 -0.467586 0.458294
v 0.494405 -0.458294 0.467586
v 0.502066 -0.467858 0.467602
v 0.499775 -0.466445 0.464334
v 0.502066 -0.467602 0.467858
v 0.500753 -0.466079 0.466079
v 0.499405 -0.465258 0.464281
v 0.498866 -0.464487 0.464487
v 0.495412 -0.466142 0.461113
v 0.495765 -0.463869 0.463869
v 0.497085 -0.466349 0.461065
v 0.497499 -0.465343 0.462704
v 0.497639 -0.464059 0.464059
v 0.497085 -0.461065 0.466349
v 0.499775 -0.464334 0.466445
v 0.495412 -0.461113 0.466142
v 0.497499 -0.462704 0.465343
v 0.499406 -0.464281 0.465258
v 0.503610 -0.470373 -0.470373
v 0.494405 -0.458294 -0.467586
v 0.494405 -0.467586 -0.458294
v 0.502066 -0.467602 -0.467858
v 0.499775 -0.464334 -0.466445
v 0.502066 -0.467858 -0.467602
v 0.500753 -0.466079 -0.466079
v 0.499405 -0.464281 -0.465258
v 0.498866 -0.464487 -0.464487
v 0.495412 -0.461113 -0.466142
v 0.495765 -0.463869 -0.463869
v 0.497085 -0.461065 -0.466349
v 0.497499 -0.462704 -0.465343
v 0.497639 -0.464059 -0.464059
v 0.497085 -0.466349 -0.461065
v 0.499775 -0.466445 -0.464334
v 0.495412 -0.466142 -0.461113
v 0.497499 -0.465343 -0.462704
v 0.499406 -0.465258 -0.464281
v 0.503610 0.470373 -0.470373
v 0.494405 0.467586 -0.458294
v 0.494405 0.458294 -0.467586
v 0.502066 0.467858 -0.467602
v 0.499775 0.466445 -0.464334
v 0.502066 0.467602 -0.467858
v 0.500753 0.466079 -0.466079
v 0.499405 0.465258 -0.464281
v 0.498866 0.464487 -0.464487
v 0.495412 0.466142 -0.461113
v 0.495765 0.463869 -0.463869
v 0.497085 0.466349 -0.461065
v 0.497499 0.465343 -0.462704
v 0.497639 0.464059 -0.464059
v 0.497085 0.461065 -0.466349
v 0.499775 0.464334 -0.466445
v 0.495412 0.461113 -0.466142
v 0.497499 0.462704 -0.465343
v 0.499406 0.464281 -0.465258
v 0.458294 0.494405 0.467586
v 0.470373 0.503610 0.470373
v 0.467586 0.494405 0.458294
v 0.461065 0.497085 0.466349
v 0.464334 0.499775 0.466445
v 0.461113 0.495412 0.466142
v 0.462704 0.497499 0.465343
v 0.464281 0.499406 0.465258
v 0.464487 0.498866 0.464487
v 0.467858 0.502066 0.467602
v 0.466445 0.499775 0.464334
v 0.467602 0.502066 0.467858
v 0.466079 0.500753 0.466079
v 0.465258 0.499405 0.464281
v 0.466142 0.495412 0.461113
v 0.463869 0.495765 0.463869
v 0.466349 0.497085 0.461065
v 0.465343 0.497499 0.462704
v 0.464059 0.497639 0.464059
v 0.470373 0.503610 -0.470373
v 0.458294 0.494405 -0.467586
v 0.467586 0.494405 -0.458294
v 0.467602 0.502066 -0.467858
v 0.464334 0.499775 -0.466445
v 0.467858 0.502066 -0.467602
v 0.466079 0.500753 -0.466079
v 0.464281 0.499405 -0.465258
v 0.464487 0.498866 -0.464487
v 0.461113 0.495412 -0.466142
v 0.463869 0.495765 -0.463869
v 0.461065 0.497085 -0.466349
v 0.462704 0.497499 -0.465343
v 0.464059 0.497639 -0.464059
v 0.466349 0.497085 -0.461065
v 0.466445 0.499775 -0.464334
v 0.466142 0.495412 -0.461113
v 0.465343 0.497499 -0.462704
v 0.465258 0.499406 -0.464281
v -0.470373 0.503610 -0.470373
v -0.467586 0.494405 -0.458294
v -0.458294 0.494405 -0.467586
v -0.467858 0.502066 -0.467602
v -0.466445 0.499775 -0.464334
v -0.467602 0.502066 -0.467858
v -0.466079 0.500753 -0.466079
v -0.465258 0.499405 -0.464281
v -0.464487 0.498866 -0.464487
v -0.466142 0.495412 -0.461113
v -0.463869 0.495765 -0.463869
v -0.466349 0.497085 -0.461065
v -0.465343 0.497499 -0.462704
v -0.464059 0.497639 -0.464059
v -0.461065 0.497085 -0.466349
v -0.464334 0.499775 -0.466445
v -0.461113 0.495412 -0.466142
v -0.462704 0.497499 -0.465343
v -0.464281 0.499406 -0.465258
v -0.470373 0.503610 0.470373
v -0.458294 0.494405 0.467586
v -0.467586 0.494405 0.458294
v -0.467602 0.502066 0.467858
v -0.464334 0.499775 0.466445
v -0.467858 0.502066 0.467602
v -0.466079 0.500753 0.466079
v -0.464281 0.499405 0.465258
v -0.464487 0.498866 0.464487
v -0.461113 0.495412 0.466142
v -0.463869 0.495765 0.463869
v -0.461065 0.497085 0.466349
v -0.462704 0.497499 0.465343
v -0.464059 0.497639 0.464059
v -0.466349 0.497085 0.461065
v -0.466445 0.499775 0.464334
v -0.466142 0.495412 0.461113
v -0.465343 0.497499 0.462704
v -0.465258 0.499406 0.464281
v 0.467586 0.458294 0.494405
v 0.470373 0.470373 0.503610
v 0.458294 0.467586 0.494405
v 0.466349 0.461065 0.497085
v 0.466445 0.464334 0.499775
v 0.466142 0.461113 0.495412
v 0.465343 0.462704 0.497499
v 0.465258 0.464281 0.499406
v 0.464487 0.464487 0.498866
v 0.467602 0.467858 0.502066
v 0.464334 0.466445 0.499775
v 0.467858 0.467602 0.502066
v 0.466079 0.466079 0.500753
v 0.464281 0.465258 0.499405
v 0.461113 0.466142 0.495412
v 0.463869 0.463869 0.495765
v 0.461065 0.466349 0.497085
v 0.462704 0.465343 0.497499
v 0.464059 0.464059 0.497639
v -0.470373 0.470373 0.503610
v -0.467586 0.458294 0.494405
v -0.458294 0.467586 0.494405
v -0.467858 0.467602 0.502066
v -0.466445 0.464334 0.499775
v -0.467602 0.467858 0.502066
v -0.466079 0.466079 0.500753
v -0.465258 0.464281 0.499405
v -0.464487 0.464487 0.498866
v -0.466142 0.461113 0.495412
v -0.463869 0.463869 0.495765
v -0.466349 0.461065 0.497085
v -0.465343 0.462704 0.497499
v -0.464059 0.464059 0.497639
v -0.461065 0.466349 0.497085
v -0.464334 0.466445 0.499775
v -0.461113 0.466142 0.495412
v -0.462704 0.465343 0.497499
v -0.464281 0.465258 0.499406
v -0.470373 -0.470373 0.503610
v -0.458294 -0.467586 0.494405
v -0.467586 -0.458294 0.494405
v -0.467602 -0.467858 0.502066
v -0.464334 -0.466445 0.499775
v -0.467858 -0.467602 0.502066
v -0.466079 -0.466079 0.500753
v -0.464281 -0.465258 0.499405
v -0.464487 -0.464487 0.498866
v -0.461113 -0.466142 0.495412
v -0.463869 -0.463869 0.495765
v -0.461065 -0.466349 0.497085
v -0.462704 -0.465343 0.497499
v -0.464059 -0.464059 0.497639
v -0.466349 -0.461065 0.497085
v -0.466445 -0.464334 0.499775
v -0.466142 -0.461113 0.495412
v -0.465343 -0.462704 0.497499
v -0.465258 -0.464281 0.499406
v 0.470373 -0.470373 0.503610
v 0.467586 -0.458294 0.494405
v 0.458294 -0.467586 0.494405
v 0.467858 -0.467602 0.502066
v 0.466445 -0.464334 0.499775
v 0.467602 -0.467858 0.502066
v 0.466079 -0.466079 0.500753
v 0.465258 -0.464281 0.499405
v 0.464487 -0.464487 0.498866
v 0.466142 -0.461113 0.495412
v 0.463869 -0.463869 0.495765
v 0.466349 -0.461065 0.497085
v 0.465343 -0.462704 0.497499
v 0.464059 -0.464059 0.497639
v 0.461065 -0.466349 0.497085
v 0.464334 -0.466445 0.499775
v 0.461113 -0.466142 0.495412
v 0.462704 -0.465343 0.497499
v 0.464281 -0.465258 0.499406
vn 0.5907 0.0000 0.8069
vn 0.0000 -0.9391 0.3437
vn -0.5907 -0.8069 0.0000
vn 0.0000 0.9391 0.3437
vn -0.8069 0.5907 0.0000
vn 0.9391 0.0000 0.3437
vn 0.0000 0.5907 0.8069
vn 0.3437 0.0000 -0.9391
vn 0.8069 0.5907 0.0000
vn 0.3437 -0.9391 0.0000
vn -0.5907 0.8069 0.0000
vn 0.9391 0.3437 0.0000
vn 0.5907 0.0000 -0.8069
vn 0.0000 0.3437 0.9391
vn 0.5907 0.8069 0.0000
vn -0.9391 0.3437 0.0000
vn 0.8069 0.0000 0.5907
vn -0.9391 0.0000 0.3437
vn 0.8069 0.0000 -0.5907
vn 0.3437 0.0000 0.9391
vn 0.8069 -0.5907 0.0000
vn 0.3437 0.9391 0.0000
vn 0.0000 0.3437 -0.9391
vn -0.8069 0.0000 0.5907
vn -0.8069 0.0000 -0.5907
vn -0.3437 0.0000 0.9391
vn -0.5907 0.0000 0.8069
vn 0.0000 -0.8069 0.5907
vn -0.3437 0.0000 -0.9391
vn -0.3437 -0.9391 0.0000
vn -0.8069 -0.5907 0.0000
vn -0.3437 0.9391 0.0000
vn 0.0000 -0.5907 0.8069
vn 0.5907 -0.8069 0.0000
vn 0.0000 -0.3437 -0.9391
vn 0.9391 -0.3437 0.0000
vn -0.9391 -0.3437 0.0000
vn 0.0000 0.5907 -0.8069
vn 0.0000 -0.8069 -0.5907
vn 0.0000 -0.3437 0.9391
vn 0.0000 0.9391 -0.3437
vn 0.0000 0.8069 -0.5907
vn -0.5907 0.0000 -0.8069
vn 0.0000 -0.9391 -0.3437
vn -0.9391 0.0000 -0.3437
vn 0.9391 0.0000 -0.3437
vn 0.0000 -0.5907 -0.8069
vn 0.6914 0.2098 0.6914
vn 0.7127 0.3802 0.5894
vn 0.5894 0.3802 0.7127
vn 0.6304 0.4531 0.6304
vn 0.6914 0.6914 0.2098
vn 0.5894 0.7127 0.3802
vn 0.7127 0.5894 0.3802
vn 0.6304 0.6304 0.4531
vn 0.2098 0.6914 0.6914
vn 0.3802 0.5894 0.7127
vn 0.3802 0.7127 0.5894
vn 0.4531 0.6304 0.6304
vn 0.0087 0.0088 -0.9999
vn 0.0875 -0.4729 -0.8767
vn -0.4729 0.0875 -0.8767
vn -0.4119 -0.4118 -0.8129
vn 0.0088 -0.9999 0.0087
vn -0.4729 -0.8767 0.0875
vn 0.0875 -0.8767 -0.4729
vn -0.4118 -0.8129 -0.4119
vn -0.9999 0.0087 0.0088
vn -0.8767 0.0875 -0.4729
vn -0.8767 -0.4729 0.0875
vn -0.8129 -0.4119 -0.4118
vn -0.2098 0.6914 0.6914
vn -0.3802 0.7127 0.5894
vn -0.3802 0.5894 0.7127
vn -0.4531 0.6304 0.6304
vn -0.6914 0.6914 0.2098
vn -0.7127 0.5894 0.3802
vn -0.5894 0.7127 0.3802
vn -0.6304 0.6304 0.4531
vn -0.6914 0.2098 0.6914
vn -0.5894 0.3802 0.7127
vn -0.7127 0.3802 0.5894
vn -0.6304 0.4531 0.6304
vn 0.9976 0.0493 0.0493
vn 0.9368 -0.3403 -0.0813
vn 0.9368 -0.0813 -0.3404
vn 0.8532 -0.3689 -0.3688
vn -0.0493 -0.9976 0.0493
vn 0.0813 -0.9368 -0.3403
vn 0.3404 -0.9368 -0.0813
vn 0.3689 -0.8531 -0.3689
vn -0.0493 0.0493 -0.9976
vn 0.3404 -0.0813 -0.9368
vn 0.0813 -0.3404 -0.9368
vn 0.3689 -0.3689 -0.8531
vn -0.6914 -0.2098 0.6914
vn -0.7127 -0.3802 0.5894
vn -0.5894 -0.3802 0.7127
vn -0.6304 -0.4531 0.6304
vn -0.6914 -0.6914 0.2098
vn -0.5894 -0.7127 0.3802
vn -0.7127 -0.5894 0.3802
vn -0.6304 -0.6304 0.4531
vn -0.2098 -0.6914 0.6914
vn -0.3802 -0.5894 0.7127
vn -0.3802 -0.7127 0.5894
vn -0.4531 -0.6304 0.6304
vn -0.0493 0.9976 0.0493
vn 0.3404 0.9368 -0.0813
vn 0.0813 0.9368 -0.3403
vn 0.3689 0.8532 -0.3689
vn 0.9976 -0.0493 0.0493
vn 0.9368 0.0813 -0.3404
vn 0.9368 0.3403 -0.0813
vn 0.8531 0.3689 -0.3689
vn -0.0493 -0.0493 -0.9976
vn 0.0813 0.3404 -0.9368
vn 0.3403 0.0813 -0.9368
vn 0.3689 0.3689 -0.8532
vn 0.2098 -0.6914 0.6914
vn 0.3802 -0.7127 0.5894
vn 0.3802 -0.5894 0.7127
vn 0.4531 -0.6304 0.6304
vn 0.6914 -0.6914 0.2098
vn 0.7127 -0.5894 0.3802
vn 0.5894 -0.7127 0.3802
vn 0.6304 -0.6304 0.4531
vn 0.6914 -0.2098 0.6914
vn 0.5894 -0.3802 0.7127
vn 0.7127 -0.3802 0.5894
vn 0.6304 -0.4531 0.6304
vn -0.9976 -0.0493 0.0493
vn -0.9368 0.3404 -0.0813
vn -0.9368 0.0813 -0.3404
vn -0.8532 0.3689 -0.3688
vn 0.0493 0.9976 0.0493
vn -0.0813 0.9368 -0.3403
vn -0.3404 0.9368 -0.0813
vn -0.3689 0.8532 -0.3689
vn 0.0493 -0.0493 -0.9976
vn -0.3404 0.0813 -0.9368
vn -0.0813 0.3404 -0.9368
vn -0.3689 0.3689 -0.8531
vn 0.6914 0.6914 -0.2098
vn 0.7127 0.5894 -0.3802
vn 0.5894 0.7127 -0.3802
vn 0.6304 0.6304 -0.4531
vn 0.6914 0.2098 -0.6914
vn 0.5894 0.3802 -0.7127
vn 0.7127 0.3802 -0.5894
vn 0.6304 0.4531 -0.6304
vn 0.2098 0.6914 -0.6914
vn 0.3802 0.7127 -0.5894
vn 0.3802 0.5894 -0.7127
vn 0.4531 0.6304 -0.6304
vn 0.0493 0.0493 0.9976
vn -0.3403 -0.0813 0.9368
vn -0.0813 -0.3404 0.9368
vn -0.3689 -0.3688 0.8532
vn -0.9976 0.0493 -0.0493
vn -0.9368 -0.3403 0.0813
vn -0.9368 -0.0813 0.3404
vn -0.8531 -0.3689 0.3689
vn 0.0493 -0.9976 -0.0493
vn -0.0813 -0.9368 0.3404
vn -0.3404 -0.9368 0.0813
vn -0.3689 -0.8531 0.3689
vn -0.2098 0.6914 -0.6914
vn -0.3802 0.5894 -0.7127
vn -0.3802 0.7127 -0.5894
vn -0.4531 0.6304 -0.6304
vn -0.6914 0.2098 -0.6914
vn -0.7127 0.3802 -0.5894
vn -0.5894 0.3802 -0.7127
vn -0.6304 0.4531 -0.6304
vn -0.6914 0.6914 -0.2098
vn -0.5894 0.7127 -0.3802
vn -0.7127 0.5894 -0.3802
vn -0.6304 0.6304 -0.4531
vn 0.9976 0.0493 -0.0493
vn 0.9368 -0.0813 0.3404
vn 0.9368 -0.3403 0.0813
vn 0.8532 -0.3688 0.3689
vn -0.0493 0.0493 0.9976
vn 0.0813 -0.3404 0.9368
vn 0.3403 -0.0813 0.9368
vn 0.3689 -0.3689 0.8531
vn -0.0493 -0.9976 -0.0493
vn 0.3404 -0.9368 0.0813
vn 0.0813 -0.9368 0.3403
vn 0.3689 -0.8531 0.3689
vn -0.6914 -0.2098 -0.6914
vn -0.5894 -0.3802 -0.7127
vn -0.7127 -0.3802 -0.5894
vn -0.6304 -0.4531 -0.6304
vn -0.2098 -0.6914 -0.6914
vn -0.3802 -0.7127 -0.5894
vn -0.3802 -0.5894 -0.7127
vn -0.4531 -0.6304 -0.6304
vn -0.6914 -0.6914 -0.2098
vn -0.7127 -0.5894 -0.3802
vn -0.5894 -0.7127 -0.3802
vn -0.6304 -0.6304 -0.4531
vn 0.9999 -0.0088 -0.0088
vn 0.8767 0.4729 -0.0875
vn 0.8767 -0.0875 0.4729
vn 0.8129 0.4118 0.4118
vn -0.0088 0.9999 -0.0088
vn -0.0875 0.8767 0.4729
vn 0.4729 0.8767 -0.0875
vn 0.4118 0.8129 0.4118
vn -0.0088 -0.0088 0.9999
vn 0.4729 -0.0875 0.8767
vn -0.0875 0.4729 0.8767
vn 0.4118 0.4118 0.8129
vn 0.6914 -0.6914 -0.2098
vn 0.5894 -0.7127 -0.3802
vn 0.7127 -0.5894 -0.3802
vn 0.6304 -0.6304 -0.4531
vn 0.2098 -0.6914 -0.6914
vn 0.3802 -0.5894 -0.7127
vn 0.3802 -0.7127 -0.5894
vn 0.4531 -0.6304 -0.6304
vn 0.6914 -0.2098 -0.6914
vn 0.7127 -0.3802 -0.5894
vn 0.5894 -0.3802 -0.7127
vn 0.6304 -0.4531 -0.6304
vn 0.0493 -0.0493 0.9976
vn -0.0813 0.3404 0.9368
vn -0.3403 0.0813 0.9368
vn -0.3689 0.3689 0.8532
vn 0.0493 0.9976 -0.0493
vn -0.3404 0.9368 0.0813
vn -0.0813 0.9368 0.3403
vn -0.3689 0.8531 0.3689
vn -0.9976 -0.0493 -0.0493
vn -0.9368 0.0813 0.3404
vn -0.9368 0.3403 0.0813
vn -0.8532 0.3689 0.3689
vn 0.5020 0.8599 -0.0922
vn 0.6194 0.4347 -0.6537
vn 0.6559 0.7325 -0.1822
vn 0.6509 0.5875 -0.4808
vn 0.3010 0.3010 -0.9049
vn 0.2029 0.5107 -0.8355
vn 0.5107 0.2028 -0.8355
vn 0.4542 0.4542 -0.7664
vn 0.8599 0.5021 -0.0922
vn 0.7325 0.6559 -0.1822
vn 0.4347 0.6194 -0.6538
vn 0.5875 0.6509 -0.4808
vn 0.3010 -0.3010 -0.9049
vn 0.5107 -0.2028 -0.8355
vn 0.2029 -0.5107 -0.8355
vn 0.4542 -0.4542 -0.7664
vn 0.5020 -0.8599 -0.0922
vn 0.6559 -0.7325 -0.1822
vn 0.6194 -0.4347 -0.6537
vn 0.6509 -0.5875 -0.4808
vn 0.8599 -0.5021 -0.0922
vn 0.4347 -0.6194 -0.6538
vn 0.7325 -0.6559 -0.1822
vn 0.5875 -0.6509 -0.4808
vn -0.3010 -0.3010 -0.9049
vn -0.2029 -0.5107 -0.8355
vn -0.5107 -0.2028 -0.8355
vn -0.4542 -0.4542 -0.7664
vn -0.8599 -0.5021 -0.0922
vn -0.7325 -0.6559 -0.1822
vn -0.4347 -0.6194 -0.6538
vn -0.5875 -0.6509 -0.4808
vn -0.5020 -0.8599 -0.0922
vn -0.6194 -0.4347 -0.6537
vn -0.6559 -0.7325 -0.1822
vn -0.6509 -0.5875 -0.4808
vn -0.3010 0.3010 -0.9049
vn -0.5107 0.2028 -0.8355
vn -0.2029 0.5107 -0.8355
vn -0.4542 0.4542 -0.7664
vn -0.5020 0.8599 -0.0922
vn -0.6559 0.7325 -0.1822
vn -0.6194 0.4347 -0.6537
vn -0.6509 0.5875 -0.4808
vn -0.8599 0.5021 -0.0922
vn -0.4347 0.6194 -0.6538
vn -0.7325 0.6559 -0.1822
vn -0.5875 0.6509 -0.4808
vn 0.8599 -0.0922 0.5020
vn 0.4347 -0.6537 0.6194
vn 0.7325 -0.1822 0.6559
vn 0.5875 -0.4808 0.6509
vn 0.3010 -0.9049 0.3010
vn 0.5107 -0.8355 0.2029
vn 0.2028 -0.8355 0.5107
vn 0.4542 -0.7664 0.4542
vn 0.5021 -0.0922 0.8599
vn 0.6559 -0.1822 0.7325
vn 0.6194 -0.6538 0.4347
vn 0.6509 -0.4808 0.5875
vn -0.3010 -0.9049 0.3010
vn -0.2028 -0.8355 0.5107
vn -0.5107 -0.8355 0.2029
vn -0.4542 -0.7664 0.4542
vn -0.8599 -0.0922 0.5020
vn -0.7325 -0.1822 0.6559
vn -0.4347 -0.6537 0.6194
vn -0.5875 -0.4808 0.6509
vn -0.5021 -0.0922 0.8599
vn -0.6194 -0.6538 0.4347
vn -0.6559 -0.1822 0.7325
vn -0.6509 -0.4808 0.5875
vn -0.3010 -0.9049 -0.3010
vn -0.5107 -0.8355 -0.2029
vn -0.2028 -0.8355 -0.5107
vn -0.4542 -0.7664 -0.4542
vn -0.5021 -0.0922 -0.8599
vn -0.6559 -0.1822 -0.7325
vn -0.6194 -0.6538 -0.4347
vn -0.6509 -0.4808 -0.5875
vn -0.8599 -0.0922 -0.5020
vn -0.4347 -0.6537 -0.6194
vn -0.7325 -0.1822 -0.6559
vn -0.5875 -0.4808 -0.6509
vn 0.3010 -0.9049 -0.3010
vn 0.2028 -0.8355 -0.5107
vn 0.5107 -0.8355 -0.2029
vn 0.4542 -0.7664 -0.4542
vn 0.8599 -0.0922 -0.5020
vn 0.7325 -0.1822 -0.6559
vn 0.4347 -0.6537 -0.6194
vn 0.5875 -0.4808 -0.6509
vn 0.5021 -0.0922 -0.8599
vn 0.6194 -0.6538 -0.4347
vn 0.6559 -0.1822 -0.7325
vn 0.6509 -0.4808 -0.5875
vn -0.0922 0.5020 0.8599
vn -0.6537 0.6194 0.4347
vn -0.1822 0.6559 0.7325
vn -0.4808 0.6509 0.5875
vn -0.9049 0.3010 0.3010
vn -0.8355 0.2029 0.5107
vn -0.8355 0.5107 0.2028
vn -0.7664 0.4542 0.4542
vn -0.0922 0.8599 0.5021
vn -0.1822 0.7325 0.6559
vn -0.6538 0.4347 0.6194
vn -0.4808 0.5875 0.6509
vn -0.9049 0.3010 -0.3010
vn -0.8355 0.5107 -0.2028
vn -0.8355 0.2029 -0.5107
vn -0.7664 0.4542 -0.4542
vn -0.0922 0.5020 -0.8599
vn -0.1822 0.6559 -0.7325
vn -0.6537 0.6194 -0.4347
vn -0.4808 0.6509 -0.5875
vn -0.0922 0.8599 -0.5021
vn -0.6538 0.4347 -0.6194
vn -0.1822 0.7325 -0.6559
vn -0.4808 0.5875 -0.6509
vn -0.9049 -0.3010 -0.3010
vn -0.8355 -0.2029 -0.5107
vn -0.8355 -0.5107 -0.2028
vn -0.7664 -0.4542 -0.4542
vn -0.0922 -0.8599 -0.5021
vn -0.1822 -0.7325 -0.6559
vn -0.6538 -0.4347 -0.6194
vn -0.4808 -0.5875 -0.6509
vn -0.0922 -0.5020 -0.8599
vn -0.6537 -0.6194 -0.4347
vn -0.1822 -0.6559 -0.7325
vn -0.4808 -0.6509 -0.5875
vn -0.9049 -0.3010 0.3010
vn -0.8355 -0.5107 0.2028
vn -0.8355 -0.2029 0.5107
vn -0.7664 -0.4542 0.4542
vn -0.0922 -0.5020 0.8599
vn -0.1822 -0.6559 0.7325
vn -0.6537 -0.6194 0.4347
vn -0.4808 -0.6509 0.5875
vn -0.0922 -0.8599 0.5021
vn -0.6538 -0.4347 0.6194
vn -0.1822 -0.7325 0.6559
vn -0.4808 -0.5875 0.6509
vn 0.0922 -0.8599 -0.5021
vn 0.6538 -0.4347 -0.6194
vn 0.1822 -0.7325 -0.6559
vn 0.4808 -0.5875 -0.6509
vn 0.9049 -0.3010 -0.3010
vn 0.8355 -0.5107 -0.2028
vn 0.8355 -0.2029 -0.5107
vn 0.7664 -0.4542 -0.4542
vn 0.0922 -0.5020 -0.8599
vn 0.1822 -0.6559 -0.7325
vn 0.6537 -0.6194 -0.4347
vn 0.4808 -0.6509 -0.5875
vn 0.9049 0.3010 -0.3010
vn 0.8355 0.2029 -0.5107
vn 0.8355 0.5107 -0.2028
vn 0.7664 0.4542 -0.4542
vn 0.0922 0.8599 -0.5021
vn 0.1822 0.7325 -0.6559
vn 0.6538 0.4347 -0.6194
vn 0.4808 0.5875 -0.6509
vn 0.0922 0.5020 -0.8599
vn 0.6537 0.6194 -0.4347
vn 0.1822 0.6559 -0.7325
vn 0.4808 0.6509 -0.5875
vn 0.9049 0.3010 0.3010
vn 0.8355 0.5107 0.2028
vn 0.8355 0.2029 0.5107
vn 0.7664 0.4542 0.4542
vn 0.0922 0.5020 0.8599
vn 0.1822 0.6559 0.7325
vn 0.6537 0.6194 0.4347
vn 0.4808 0.6509 0.5875
vn 0.0922 0.8599 0.5021
vn 0.6538 0.4347 0.6194
vn 0.1822 0.7325 0.6559
vn 0.4808 0.5875 0.6509
vn 0.9049 -0.3010 0.3010
vn 0.8355 -0.2029 0.5107
vn 0.8355 -0.5107 0.2028
vn 0.7664 -0.4542 0.4542
vn 0.0922 -0.8599 0.5021
vn 0.1822 -0.7325 0.6559
vn 0.6538 -0.4347 0.6194
vn 0.4808 -0.5875 0.6509
vn 0.0922 -0.5020 0.8599
vn 0.6537 -0.6194 0.4347
vn 0.1822 -0.6559 0.7325
vn 0.4808 -0.6509 0.5875
vn -0.5021 0.0922 -0.8599
vn -0.6194 0.6538 -0.4347
vn -0.6559 0.1822 -0.7325
vn -0.6509 0.4808 -0.5875
vn -0.3010 0.9049 -0.3010
vn -0.2028 0.8355 -0.5107
vn -0.5107 0.8355 -0.2029
vn -0.4542 0.7664 -0.4542
vn -0.8599 0.0922 -0.5020
vn -0.7325 0.1822 -0.6559
vn -0.4347 0.6537 -0.6194
vn -0.5875 0.4808 -0.6509
vn -0.3010 0.9049 0.3010
vn -0.5107 0.8355 0.2029
vn -0.2028 0.8355 0.5107
vn -0.4542 0.7664 0.4542
vn -0.5021 0.0922 0.8599
vn -0.6559 0.1822 0.7325
vn -0.6194 0.6538 0.4347
vn -0.6509 0.4808 0.5875
vn -0.8599 0.0922 0.5020
vn -0.4347 0.6537 0.6194
vn -0.7325 0.1822 0.6559
vn -0.5875 0.4808 0.6509
vn 0.3010 0.9049 0.3010
vn 0.2028 0.8355 0.5107
vn 0.5107 0.8355 0.2029
vn 0.4542 0.7664 0.4542
vn 0.8599 0.0922 0.5020
vn 0.7325 0.1822 0.6559
vn 0.4347 0.6537 0.6194
vn 0.5875 0.4808 0.6509
vn 0.5021 0.0922 0.8599
vn 0.6194 0.6538 0.4347
vn 0.6559 0.1822 0.7325
vn 0.6509 0.4808 0.5875
vn 0.3010 0.9049 -0.3010
vn 0.5107 0.8355 -0.2029
vn 0.2028 0.8355 -0.5107
vn 0.4542 0.7664 -0.4542
vn 0.5021 0.0922 -0.8599
vn 0.6559 0.1822 -0.7325
vn 0.6194 0.6538 -0.4347
vn 0.6509 0.4808 -0.5875
vn 0.8599 0.0922 -0.5020
vn 0.4347 0.6537 -0.6194
vn 0.7325 0.1822 -0.6559
vn 0.5875 0.4808 -0.6509
vn -0.8599 -0.5021 0.0922
vn -0.4347 -0.6194 0.6538
vn -0.7325 -0.6559 0.1822
vn -0.5875 -0.6509 0.4808
vn -0.3010 -0.3010 0.9049
vn -0.5107 -0.2028 0.8355
vn -0.2029 -0.5107 0.8355
vn -0.4542 -0.4542 0.7664
vn -0.5020 -0.8599 0.0922
vn -0.6559 -0.7325 0.1822
vn -0.6194 -0.4347 0.6537
vn -0.6509 -0.5875 0.4808
vn 0.3010 -0.3010 0.9049
vn 0.2029 -0.5107 0.8355
vn 0.5107 -0.2028 0.8355
vn 0.4542 -0.4542 0.7664
vn 0.8599 -0.5021 0.0922
vn 0.7325 -0.6559 0.1822
vn 0.4347 -0.6194 0.6538
vn 0.5875 -0.6509 0.4808
vn 0.5020 -0.8599 0.0922
vn 0.6194 -0.4347 0.6537
vn 0.6559 -0.7325 0.1822
vn 0.6509 -0.5875 0.4808
vn 0.3010 0.3010 0.9049
vn 0.5107 0.2028 0.8355
vn 0.2029 0.5107 0.8355
vn 0.4542 0.4542 0.7664
vn 0.5020 0.8599 0.0922
vn 0.6559 0.7325 0.1822
vn 0.6194 0.4347 0.6537
vn 0.6509 0.5875 0.4808
vn 0.8599 0.5021 0.0922
vn 0.4347 0.6194 0.6538
vn 0.7325 0.6559 0.1822
vn 0.5875 0.6509 0.4808
vn -0.3010 0.3010 0.9049
vn -0.2029 0.5107 0.8355
vn -0.5107 0.2028 0.8355
vn -0.4542 0.4542 0.7664
vn -0.8599 0.5021 0.0922
vn -0.7325 0.6559 0.1822
vn -0.4347 0.6194 0.6538
vn -0.5875 0.6509 0.4808
vn -0.5020 0.8599 0.0922
vn -0.6194 0.4347 0.6537
vn -0.6559 0.7325 0.1822
vn -0.6509 0.5875 0.4808
vn 0.1479 0.7433 0.6524
vn 0.3898 0.5834 0.7125
vn 0.5834 0.3898 0.7125
vn 0.7433 0.1479 0.6524
vn 0.5231 0.0000 -0.8523
vn 0.8512 0.0000 -0.5249
vn 0.9994 0.0000 -0.0355
vn 0.9080 0.0000 0.4190
vn 0.1479 -0.7433 0.6524
vn 0.3898 -0.5834 0.7125
vn 0.5834 -0.3898 0.7125
vn 0.7433 -0.1479 0.6524
vn -0.9940 -0.0002 0.1092
vn -0.9090 -0.0006 -0.4168
vn -0.4168 -0.0006 -0.9090
vn 0.1092 -0.0002 -0.9940
vn 0.0000 -0.5231 -0.8523
vn 0.0000 -0.8512 -0.5249
vn 0.0000 -0.9994 -0.0355
vn 0.0000 -0.9080 0.4190
vn -0.7433 -0.1479 0.6524
vn -0.5834 -0.3898 0.7125
vn -0.3898 -0.5834 0.7125
vn -0.1479 -0.7433 0.6524
vn 0.0000 0.9841 0.1774
vn 0.0000 0.9285 -0.3714
vn 0.0000 0.3714 -0.9285
vn 0.0000 -0.1774 -0.9841
vn -0.5231 0.0000 -0.8523
vn -0.8512 0.0000 -0.5249
vn -0.9994 0.0000 -0.0355
vn -0.9080 0.0000 0.4190
vn -0.1479 0.7433 0.6524
vn -0.3898 0.5834 0.7125
vn -0.5834 0.3898 0.7125
vn -0.7433 0.1479 0.6524
vn 0.9841 0.0000 0.1774
vn 0.9285 0.0000 -0.3714
vn 0.3714 0.0000 -0.9285
vn -0.1774 0.0000 -0.9841
vn 0.0000 0.5231 -0.8523
vn 0.0000 0.8512 -0.5249
vn 0.0000 0.9994 -0.0355
vn 0.0000 0.9080 0.4190
vn -0.0002 -0.9940 0.1092
vn -0.0006 -0.9090 -0.4168
vn -0.0006 -0.4168 -0.9090
vn -0.0002 0.1092 -0.9940
vn 0.7433 0.6524 0.1479
vn 0.5834 0.7125 0.3898
vn 0.3898 0.7125 0.5834
vn 0.1479 0.6524 0.7433
vn 0.0000 -0.8523 0.5231
vn 0.0000 -0.5249 0.8512
vn 0.0000 -0.0355 0.9994
vn 0.0000 0.4190 0.9080
vn -0.7433 0.6524 0.1479
vn -0.5834 0.7125 0.3898
vn -0.3898 0.7125 0.5834
vn -0.1479 0.6524 0.7433
vn -0.5231 -0.8523 0.0000
vn -0.8512 -0.5249 0.0000
vn -0.9994 -0.0355 0.0000
vn -0.9080 0.4190 0.0000
vn -0.1479 0.6524 -0.7433
vn -0.3898 0.7125 -0.5834
vn -0.5834 0.7125 -0.3898
vn -0.7433 0.6524 -0.1479
vn 0.9841 0.1774 0.0000
vn 0.9285 -0.3714 0.0000
vn 0.3714 -0.9285 0.0000
vn -0.1774 -0.9841 0.0000
vn 0.0000 -0.8523 -0.5231
vn 0.0000 -0.5249 -0.8512
vn 0.0000 -0.0355 -0.9994
vn 0.0000 0.4190 -0.9080
vn 0.7433 0.6524 -0.1479
vn 0.5834 0.7125 -0.3898
vn 0.3898 0.7125 -0.5834
vn 0.1479 0.6524 -0.7433
vn 0.0000 0.1774 0.9841
vn 0.0000 -0.3714 0.9285
vn 0.0000 -0.9285 0.3714
vn 0.0000 -0.9841 -0.1774
vn 0.5231 -0.8523 0.0000
vn 0.8512 -0.5249 0.0000
vn 0.9994 -0.0355 0.0000
vn 0.9080 0.4190 0.0000
vn -0.9940 0.1092 -0.0002
vn -0.9090 -0.4168 -0.0006
vn -0.4168 -0.9090 -0.0006
vn 0.1092 -0.9940 -0.0002
vn 0.6524 0.1479 0.7433
vn 0.7125 0.3898 0.5834
vn 0.7125 0.5834 0.3898
vn 0.6524 0.7433 0.1479
vn -0.8523 0.5231 0.0000
vn -0.5249 0.8512 0.0000
vn -0.0355 0.9994 0.0000
vn 0.4190 0.9080 0.0000
vn 0.6524 0.1479 -0.7433
vn 0.7125 0.3898 -0.5834
vn 0.7125 0.5834 -0.3898
vn 0.6524 0.7433 -0.1479
vn -0.8523 0.0000 -0.5231
vn -0.5249 0.0000 -0.8512
vn -0.0355 0.0000 -0.9994
vn 0.4190 0.0000 -0.9080
vn 0.6524 -0.7433 -0.1479
vn 0.7125 -0.5834 -0.3898
vn 0.7125 -0.3898 -0.5834
vn 0.6524 -0.1479 -0.7433
vn 0.1774 0.0000 0.9841
vn -0.3714 0.0000 0.9285
vn -0.9285 0.0000 0.3714
vn -0.9841 0.0000 -0.1774
vn -0.8523 -0.5231 0.0000
vn -0.5249 -0.8512 0.0000
vn -0.0355 -0.9994 0.0000
vn 0.4190 -0.9080 0.0000
vn 0.6524 -0.1479 0.7433
vn 0.7125 -0.3898 0.5834
vn 0.7125 -0.5834 0.3898
vn 0.6524 -0.7433 0.1479
vn 0.1774 0.9841 0.0000
vn -0.3714 0.9285 0.0000
vn -0.9285 0.3714 0.0000
vn -0.9841 -0.1774 0.0000
vn -0.8523 0.0000 0.5231
vn -0.5249 0.0000 0.8512
vn -0.0355 0.0000 0.9994
vn 0.4190 0.0000 0.9080
vn -0.6524 -0.7433 -0.1479
vn -0.7125 -0.5834 -0.3898
vn -0.7125 -0.3898 -0.5834
vn -0.6524 -0.1479 -0.7433
vn 0.8523 0.0000 -0.5231
vn 0.5249 0.0000 -0.8512
vn 0.0355 0.0000 -0.9994
vn -0.4190 0.0000 -0.9080
vn -0.6524 0.7433 -0.1479
vn -0.7125 0.5834 -0.3898
vn -0.7125 0.3898 -0.5834
vn -0.6524 0.1479 -0.7433
vn -0.1092 0.0002 0.9940
vn 0.4168 0.0006 0.9090
vn 0.9090 0.0006 0.4168
vn 0.9940 0.0002 -0.1092
vn 0.8523 0.5231 0.0000
vn 0.5249 0.8512 0.0000
vn 0.0355 0.9994 0.0000
vn -0.4190 0.9080 0.0000
vn -0.6524 0.1479 0.7433
vn -0.7125 0.3898 0.5834
vn -0.7125 0.5834 0.3898
vn -0.6524 0.7433 0.1479
vn 0.8523 0.0000 0.5231
vn 0.5249 0.0000 0.8512
vn 0.0355 0.0000 0.9994
vn -0.4190 0.0000 0.9080
vn -0.6524 -0.7433 0.1479
vn -0.7125 -0.5834 0.3898
vn -0.7125 -0.3898 0.5834
vn -0.6524 -0.1479 0.7433
vn 0.8523 -0.5231 0.0000
vn 0.5249 -0.8512 0.0000
vn 0.0355 -0.9994 0.0000
vn -0.4190 -0.9080 0.0000
vn -0.1092 0.9940 0.0002
vn 0.4168 0.9090 0.0006
vn 0.9090 0.4168 0.0006
vn 0.9940 -0.1092 0.0002
vn -0.1479 -0.6524 -0.7433
vn -0.3898 -0.7125 -0.5834
vn -0.5834 -0.7125 -0.3898
vn -0.7433 -0.6524 -0.1479
vn -0.5231 0.8523 0.0000
vn -0.8512 0.5249 0.0000
vn -0.9994 0.0355 0.0000
vn -0.9080 -0.4190 0.0000
vn -0.1479 -0.6524 0.7433
vn -0.3898 -0.7125 0.5834
vn -0.5834 -0.7125 0.3898
vn -0.7433 -0.6524 0.1479
vn 0.0000 0.8523 0.5231
vn 0.0000 0.5249 0.8512
vn 0.0000 0.0355 0.9994
vn 0.0000 -0.4190 0.9080
vn 0.7433 -0.6524 0.1479
vn 0.5834 -0.7125 0.3898
vn 0.3898 -0.7125 0.5834
vn 0.1479 -0.6524 0.7433
vn 0.5231 0.8523 0.0000
vn 0.8512 0.5249 0.0000
vn 0.9994 0.0355 0.0000
vn 0.9080 -0.4190 0.0000
vn 0.1479 -0.6524 -0.7433
vn 0.3898 -0.7125 -0.5834
vn 0.5834 -0.7125 -0.3898
vn 0.7433 -0.6524 -0.1479
vn 0.0000 0.8523 -0.5231
vn 0.0000 0.5249 -0.8512
vn 0.0000 0.0355 -0.9994
vn 0.0000 -0.4190 -0.9080
vn 0.0002 -0.1092 0.9940
vn 0.0006 0.4168 0.9090
vn 0.0006 0.9090 0.4168
vn 0.0002 0.9940 -0.1092
vn -0.7433 -0.1479 -0.6524
vn -0.5834 -0.3898 -0.7125
vn -0.3898 -0.5834 -0.7125
vn -0.1479 -0.7433 -0.6524
vn 0.0000 -0.5231 0.8523
vn 0.0000 -0.8512 0.5249
vn 0.0000 -0.9994 0.0355
vn 0.0000 -0.9080 -0.4190
vn 0.7433 -0.1479 -0.6524
vn 0.5834 -0.3898 -0.7125
vn 0.3898 -0.5834 -0.7125
vn 0.1479 -0.7433 -0.6524
vn 0.5231 0.0000 0.8523
vn 0.8512 0.0000 0.5249
vn 0.9994 0.0000 0.0355
vn 0.9080 0.0000 -0.4190
vn 0.1479 0.7433 -0.6524
vn 0.3898 0.5834 -0.7125
vn 0.5834 0.3898 -0.7125
vn 0.7433 0.1479 -0.6524
vn 0.0000 0.5231 0.8523
vn 0.0000 0.8512 0.5249
vn 0.0000 0.9994 0.0355
vn 0.0000 0.9080 -0.4190
vn -0.7433 0.1479 -0.6524
vn -0.5834 0.3898 -0.7125
vn -0.3898 0.5834 -0.7125
vn -0.1479 0.7433 -0.6524
vn -0.5231 0.0000 0.8523
vn -0.8512 0.0000 0.5249
vn -0.9994 0.0000 0.0355
vn -0.9080 0.0000 -0.4190
vn 0.0000 0.8069 0.5907
usemtl Wiretetrahedron
s off
f 515//1 457//1 1//1 117//1
f 400//2 382//2 21//2 59//2
f 591//3 533//3 231//3 78//3
f 647//4 628//4 96//4 135//4
f 401//5 421//5 193//5 40//5
f 590//6 571//6 58//6 97//6
f 383//7 402//7 39//7 3//7
f 324//8 306//8 20//8 136//8
f 439//9 381//9 2//9 153//9
f 382//10 438//10 174//10 21//10
f 553//11 573//11 40//11 193//11
f 571//12 552//12 210//12 58//12
f 477//13 497//13 269//13 154//13
f 742//14 723//14 172//14 211//14
f 459//15 478//15 153//15 2//15
f 476//16 458//16 22//16 173//16
f 307//17 326//17 117//17 1//17
f 458//18 514//18 134//18 22//18
f 705//19 725//19 154//19 269//19
f 723//20 704//20 286//20 172//20
f 648//21 668//21 267//21 116//21
f 666//22 647//22 135//22 287//22
f 306//23 362//23 60//23 20//23
f 344//24 364//24 41//24 77//24
f 743//25 685//25 229//25 192//25
f 686//26 742//26 211//26 250//26
f 572//27 592//27 77//27 41//27
f 325//28 345//28 79//28 115//28
f 362//29 343//29 98//29 60//29
f 419//30 400//30 59//30 212//30
f 611//31 630//31 78//31 231//31
f 628//32 610//32 249//32 96//32
f 629//33 649//33 115//33 79//33
f 496//34 516//34 116//34 267//34
f 343//35 324//35 136//35 98//35
f 534//36 590//36 97//36 248//36
f 514//37 495//37 288//37 134//37
f 420//38 440//38 155//38 191//38
f 687//39 706//39 268//39 230//39
f 704//40 686//40 250//40 286//40
f 610//41 666//41 287//41 249//41
f 724//42 744//42 191//42 155//42
f 535//43 554//43 192//43 229//43
f 438//44 419//44 212//44 174//44
f 495//45 476//45 173//45 288//45
f 552//46 534//46 248//46 210//46
f 667//47 609//47 230//47 268//47
f 1//48 4//48 7//48 6//48
f 4//49 5//49 8//49 7//49
f 6//50 7//50 19//50 16//50
f 7//51 8//51 9//51 19//51
f 2//52 10//52 13//52 12//52
f 10//53 11//53 14//53 13//53
f 12//54 13//54 8//54 5//54
f 13//55 14//55 9//55 8//55
f 3//56 15//56 18//56 17//56
f 15//57 16//57 19//57 18//57
f 17//58 18//58 14//58 11//58
f 18//59 19//59 9//59 14//59
f 20//60 23//60 26//60 25//60
f 23//61 24//61 27//61 26//61
f 25//62 26//62 38//62 35//62
f 26//63 27//63 28//63 38//63
f 21//64 29//64 32//64 31//64
f 29//65 30//65 33//65 32//65
f 31//66 32//66 27//66 24//66
f 32//67 33//67 28//67 27//67
f 22//68 34//68 37//68 36//68
f 34//69 35//69 38//69 37//69
f 36//70 37//70 33//70 30//70
f 37//71 38//71 28//71 33//71
f 39//72 42//72 45//72 44//72
f 42//73 43//73 46//73 45//73
f 44//74 45//74 57//74 54//74
f 45//75 46//75 47//75 57//75
f 40//76 48//76 51//76 50//76
f 48//77 49//77 52//77 51//77
f 50//78 51//78 46//78 43//78
f 51//79 52//79 47//79 46//79
f 41//80 53//80 56//80 55//80
f 53//81 54//81 57//81 56//81
f 55//82 56//82 52//82 49//82
f 56//83 57//83 47//83 52//83
f 58//84 61//84 64//84 63//84
f 61//85 62//85 65//85 64//85
f 63//86 64//86 76//86 73//86
f 64//87 65//87 66//87 76//87
f 59//88 67//88 70//88 69//88
f 67//89 68//89 71//89 70//89
f 69//90 70//90 65//90 62//90
f 70//91 71//91 66//91 65//91
f 60//92 72//92 75//92 74//92
f 72//93 73//93 76//93 75//93
f 74//94 75//94 71//94 68//94
f 75//95 76//95 66//95 71//95
f 77//96 80//96 83//96 82//96
f 80//97 81//97 84//97 83//97
f 82//98 83//98 95//98 92//98
f 83//99 84//99 85//99 95//99
f 78//100 86//100 89//100 88//100
f 86//101 87//101 90//101 89//101
f 88//102 89//102 84//102 81//102
f 89//103 90//103 85//103 84//103
f 79//104 91//104 94//104 93//104
f 91//105 92//105 95//105 94//105
f 93//106 94//106 90//106 87//106
f 94//107 95//107 85//107 90//107
f 96//108 99//108 102//108 101//108
f 99//109 100//109 103//109 102//109
f 101//110 102//110 114//110 111//110
f 102//111 103//111 104//111 114//111
f 97//112 105//112 108//112 107//112
f 105//113 106//113 109//113 108//113
f 107//114 108//114 103//114 100//114
f 108//115 109//115 104//115 103//115
f 98//116 110//116 113//116 112//116
f 110//117 111//117 114//117 113//117
f 112//118 113//118 109//118 106//118
f 113//119 114//119 104//119 109//119
f 115//120 118//120 121//120 120//120
f 118//121 119//121 122//121 121//121
f 120//122 121//122 133//122 130//122
f 121//123 122//123 123//123 133//123
f 116//124 124//124 127//124 126//124
f 124//125 125//125 128//125 127//125
f 126//126 127//126 122//126 119//126
f 127//127 128//127 123//127 122//127
f 117//128 129//128 132//128 131//128
f 129//129 130//129 133//129 132//129
f 131//130 132//130 128//130 125//130
f 132//131 133//131 123//131 128//131
f 134//132 137//132 140//132 139//132
f 137//133 138//133 141//133 140//133
f 139//134 140//134 152//134 149//134
f 140//135 141//135 142//135 152//135
f 135//136 143//136 146//136 145//136
f 143//137 144//137 147//137 146//137
f 145//138 146//138 141//138 138//138
f 146//139 147//139 142//139 141//139
f 136//140 148//140 151//140 150//140
f 148//141 149//141 152//141 151//141
f 150//142 151//142 147//142 144//142
f 151//143 152//143 142//143 147//143
f 153//144 156//144 159//144 158//144
f 156//145 157//145 160//145 159//145
f 158//146 159//146 171//146 168//146
f 159//147 160//147 161//147 171//147
f 154//148 162//148 165//148 164//148
f 162//149 163//149 166//149 165//149
f 164//150 165//150 160//150 157//150
f 165//151 166//151 161//151 160//151
f 155//152 167//152 170//152 169//152
f 167//153 168//153 171//153 170//153
f 169//154 170//154 166//154 163//154
f 170//155 171//155 161//155 166//155
f 172//156 175//156 178//156 177//156
f 175//157 176//157 179//157 178//157
f 177//158 178//158 190//158 187//158
f 178//159 179//159 180//159 190//159
f 173//160 181//160 184//160 183//160
f 181//161 182//161 185//161 184//161
f 183//162 184//162 179//162 176//162
f 184//163 185//163 180//163 179//163
f 174//164 186//164 189//164 188//164
f 186//165 187//165 190//165 189//165
f 188//166 189//166 185//166 182//166
f 189//167 190//167 180//167 185//167
f 191//168 194//168 197//168 196//168
f 194//169 195//169 198//169 197//169
f 196//170 197//170 209//170 206//170
f 197//171 198//171 199//171 209//171
f 192//172 200//172 203//172 202//172
f 200//173 201//173 204//173 203//173
f 202//174 203//174 198//174 195//174
f 203//175 204//175 199//175 198//175
f 193//176 205//176 208//176 207//176
f 205//177 206//177 209//177 208//177
f 207//178 208//178 204//178 201//178
f 208//179 209//179 199//179 204//179
f 210//180 213//180 216//180 215//180
f 213//181 214//181 217//181 216//181
f 215//182 216//182 228//182 225//182
f 216//183 217//183 218//183 228//183
f 211//184 219//184 222//184 221//184
f 219//185 220//185 223//185 222//185
f 221//186 222//186 217//186 214//186
f 222//187 223//187 218//187 217//187
f 212//188 224//188 227//188 226//188
f 224//189 225//189 228//189 227//189
f 226//190 227//190 223//190 220//190
f 227//191 228//191 218//191 223//191
f 229//192 232//192 235//192 234//192
f 232//193 233//193 236//193 235//193
f 234//194 235//194 247//194 244//194
f 235//195 236//195 237//195 247//195
f 230//196 238//196 241//196 240//196
f 238//197 239//197 242//197 241//197
f 240//198 241//198 236//198 233//198
f 241//199 242//199 237//199 236//199
f 231//200 243//200 246//200 245//200
f 243//201 244//201 247//201 246//201
f 245//202 246//202 242//202 239//202
f 246//203 247//203 237//203 242//203
f 248//204 251//204 254//204 253//204
f 251//205 252//205 255//205 254//205
f 253//206 254//206 266//206 263//206
f 254//207 255//207 256//207 266//207
f 249//208 257//208 260//208 259//208
f 257//209 258//209 261//209 260//209
f 259//210 260//210 255//210 252//210
f 260//211 261//211 256//211 255//211
f 250//212 262//212 265//212 264//212
f 262//213 263//213 266//213 265//213
f 264//214 265//214 261//214 258//214
f 265//215 266//215 256//215 261//215
f 267//216 270//216 273//216 272//216
f 270//217 271//217 274//217 273//217
f 272//218 273//218 285//218 282//218
f 273//219 274//219 275//219 285//219
f 268//220 276//220 279//220 278//220
f 276//221 277//221 280//221 279//221
f 278//222 279//222 274//222 271//222
f 279//223 280//223 275//223 274//223
f 269//224 281//224 284//224 283//224
f 281//225 282//225 285//225 284//225
f 283//226 284//226 280//226 277//226
f 284//227 285//227 275//227 280//227
f 286//228 289//228 292//228 291//228
f 289//229 290//229 293//229 292//229
f 291//230 292//230 304//230 301//230
f 292//231 293//231 294//231 304//231
f 287//232 295//232 298//232 297//232
f 295//233 296//233 299//233 298//233
f 297//234 298//234 293//234 290//234
f 298//235 299//235 294//235 293//235
f 288//236 300//236 303//236 302//236
f 300//237 301//237 304//237 303//237
f 302//238 303//238 299//238 296//238
f 303//239 304//239 294//239 299//239
f 305//240 308//240 311//240 310//240
f 308//241 309//241 312//241 311//241
f 310//242 311//242 323//242 320//242
f 311//243 312//243 313//243 323//243
f 306//244 314//244 317//244 316//244
f 314//245 315//245 318//245 317//245
f 316//246 317//246 312//246 309//246
f 317//247 318//247 313//247 312//247
f 307//248 319//248 322//248 321//248
f 319//249 320//249 323//249 322//249
f 321//250 322//250 318//250 315//250
f 322//251 323//251 313//251 318//251
f 324//252 327//252 330//252 329//252
f 327//253 328//253 331//253 330//253
f 329//254 330//254 342//254 339//254
f 330//255 331//255 332//255 342//255
f 325//256 333//256 336//256 335//256
f 333//257 334//257 337//257 336//257
f 335//258 336//258 331//258 328//258
f 336//259 337//259 332//259 331//259
f 326//260 338//260 341//260 340//260
f 338//261 339//261 342//261 341//261
f 340//262 341//262 337//262 334//262
f 341//263 342//263 332//263 337//263
f 343//264 346//264 349//264 348//264
f 346//265 347//265 350//265 349//265
f 348//266 349//266 361//266 358//266
f 349//267 350//267 351//267 361//267
f 344//268 352//268 355//268 354//268
f 352//269 353//269 356//269 355//269
f 354//270 355//270 350//270 347//270
f 355//271 356//271 351//271 350//271
f 345//272 357//272 360//272 359//272
f 357//273 358//273 361//273 360//273
f 359//274 360//274 356//274 353//274
f 360//275 361//275 351//275 356//275
f 362//276 365//276 368//276 367//276
f 365//277 366//277 369//277 368//277
f 367//278 368//278 380//278 377//278
f 368//279 369//279 370//279 380//279
f 363//280 371//280 374//280 373//280
f 371//281 372//281 375//281 374//281
f 373//282 374//282 369//282 366//282
f 374//283 375//283 370//283 369//283
f 364//284 376//284 379//284 378//284
f 376//285 377//285 380//285 379//285
f 378//286 379//286 375//286 372//286
f 379//287 380//287 370//287 375//287
f 381//288 384//288 387//288 386//288
f 384//289 385//289 388//289 387//289
f 386//290 387//290 399//290 396//290
f 387//291 388//291 389//291 399//291
f 382//292 390//292 393//292 392//292
f 390//293 391//293 394//293 393//293
f 392//294 393//294 388//294 385//294
f 393//295 394//295 389//295 388//295
f 383//296 395//296 398//296 397//296
f 395//297 396//297 399//297 398//297
f 397//298 398//298 394//298 391//298
f 398//299 399//299 389//299 394//299
f 400//300 403//300 406//300 405//300
f 403//301 404//301 407//301 406//301
f 405//302 406//302 418//302 415//302
f 406//303 407//303 408//303 418//303
f 401//304 409//304 412//304 411//304
f 409//305 410//305 413//305 412//305
f 411//306 412//306 407//306 404//306
f 412//307 413//307 408//307 407//307
f 402//308 414//308 417//308 416//308
f 414//309 415//309 418//309 417//309
f 416//310 417//310 413//310 410//310
f 417//311 418//311 408//311 413//311
f 419//312 422//312 425//312 424//312
f 422//313 423//313 426//313 425//313
f 424//314 425//314 437//314 434//314
f 425//315 426//315 427//315 437//315
f 420//316 428//316 431//316 430//316
f 428//317 429//317 432//317 431//317
f 430//318 431//318 426//318 423//318
f 431//319 432//319 427//319 426//319
f 421//320 433//320 436//320 435//320
f 433//321 434//321 437//321 436//321
f 435//322 436//322 432//322 429//322
f 436//323 437//323 427//323 432//323
f 438//324 441//324 444//324 443//324
f 441//325 442//325 445//325 444//325
f 443//326 444//326 456//326 453//326
f 444//327 445//327 446//327 456//327
f 439//328 447//328 450//328 449//328
f 447//329 448//329 451//329 450//329
f 449//330 450//330 445//330 442//330
f 450//331 451//331 446//331 445//331
f 440//332 452//332 455//332 454//332
f 452//333 453//333 456//333 455//333
f 454//334 455//334 451//334 448//334
f 455//335 456//335 446//335 451//335
f 457//336 460//336 463//336 462//336
f 460//337 461//337 464//337 463//337
f 462//338 463//338 475//338 472//338
f 463//339 464//339 465//339 475//339
f 458//340 466//340 469//340 468//340
f 466//341 467//341 470//341 469//341
f 468//342 469//342 464//342 461//342
f 469//343 470//343 465//343 464//343
f 459//344 471//344 474//344 473//344
f 471//345 472//345 475//345 474//345
f 473//346 474//346 470//346 467//346
f 474//347 475//347 465//347 470//347
f 476//348 479//348 482//348 481//348
f 479//349 480//349 483//349 482//349
f 481//350 482//350 494//350 491//350
f 482//351 483//351 484//351 494//351
f 477//352 485//352 488//352 487//352
f 485//353 486//353 489//353 488//353
f 487//354 488//354 483//354 480//354
f 488//355 489//355 484//355 483//355
f 478//356 490//356 493//356 492//356
f 490//357 491//357 494//357 493//357
f 492//358 493//358 489//358 486//358
f 493//359 494//359 484//359 489//359
f 495//360 498//360 501//360 500//360
f 498//361 499//361 502//361 501//361
f 500//362 501//362 513//362 510//362
f 501//363 502//363 503//363 513//363
f 496//364 504//364 507//364 506//364
f 504//365 505//365 508//365 507//365
f 506//366 507//366 502//366 499//366
f 507//367 508//367 503//367 502//367
f 497//368 509//368 512//368 511//368
f 509//369 510//369 513//369 512//369
f 511//370 512//370 508//370 505//370
f 512//371 513//371 503//371 508//371
f 514//372 517//372 520//372 519//372
f 517//373 518//373 521//373 520//373
f 519//374 520//374 532//374 529//374
f 520//375 521//375 522//375 532//375
f 515//376 523//376 526//376 525//376
f 523//377 524//377 527//377 526//377
f 525//378 526//378 521//378 518//378
f 526//379 527//379 522//379 521//379
f 516//380 528//380 531//380 530//380
f 528//381 529//381 532//381 531//381
f 530//382 531//382 527//382 524//382
f 531//383 532//383 522//383 527//383
f 533//384 536//384 539//384 538//384
f 536//385 537//385 540//385 539//385
f 538//386 539//386 551//386 548//386
f 539//387 540//387 541//387 551//387
f 534//388 542//388 545//388 544//388
f 542//389 543//389 546//389 545//389
f 544//390 545//390 540//390 537//390
f 545//391 546//391 541//391 540//391
f 535//392 547//392 550//392 549//392
f 547//393 548//393 551//393 550//393
f 549//394 550//394 546//394 543//394
f 550//395 551//395 541//395 546//395
f 552//396 555//396 558//396 557//396
f 555//397 556//397 559//397 558//397
f 557//398 558//398 570//398 567//398
f 558//399 559//399 560//399 570//399
f 553//400 561//400 564//400 563//400
f 561//401 562//401 565//401 564//401
f 563//402 564//402 559//402 556//402
f 564//403 565//403 560//403 559//403
f 554//404 566//404 569//404 568//404
f 566//405 567//405 570//405 569//405
f 568//406 569//406 565//406 562//406
f 569//407 570//407 560//407 565//407
f 571//408 574//408 577//408 576//408
f 574//409 575//409 578//409 577//409
f 576//410 577//410 589//410 586//410
f 577//411 578//411 579//411 589//411
f 572//412 580//412 583//412 582//412
f 580//413 581//413 584//413 583//413
f 582//414 583//414 578//414 575//414
f 583//415 584//415 579//415 578//415
f 573//416 585//416 588//416 587//416
f 585//417 586//417 589//417 588//417
f 587//418 588//418 584//418 581//418
f 588//419 589//419 579//419 584//419
f 590//420 593//420 596//420 595//420
f 593//421 594//421 597//421 596//421
f 595//422 596//422 608//422 605//422
f 596//423 597//423 598//423 608//423
f 591//424 599//424 602//424 601//424
f 599//425 600//425 603//425 602//425
f 601//426 602//426 597//426 594//426
f 602//427 603//427 598//427 597//427
f 592//428 604//428 607//428 606//428
f 604//429 605//429 608//429 607//429
f 606//430 607//430 603//430 600//430
f 607//431 608//431 598//431 603//431
f 609//432 612//432 615//432 614//432
f 612//433 613//433 616//433 615//433
f 614//434 615//434 627//434 624//434
f 615//435 616//435 617//435 627//435
f 610//436 618//436 621//436 620//436
f 618//437 619//437 622//437 621//437
f 620//438 621//438 616//438 613//438
f 621//439 622//439 617//439 616//439
f 611//440 623//440 626//440 625//440
f 623//441 624//441 627//441 626//441
f 625//442 626//442 622//442 619//442
f 626//443 627//443 617//443 622//443
f 628//444 631//444 634//444 633//444
f 631//445 632//445 635//445 634//445
f 633//446 634//446 646//446 643//446
f 634//447 635//447 636//447 646//447
f 629//448 637//448 640//448 639//448
f 637//449 638//449 641//449 640//449
f 639//450 640//450 635//450 632//450
f 640//451 641//451 636//451 635//451
f 630//452 642//452 645//452 644//452
f 642//453 643//453 646//453 645//453
f 644//454 645//454 641//454 638//454
f 645//455 646//455 636//455 641//455
f 647//456 650//456 653//456 652//456
f 650//457 651//457 654//457 653//457
f 652//458 653//458 665//458 662//458
f 653//459 654//459 655//459 665//459
f 648//460 656//460 659//460 658//460
f 656//461 657//461 660//461 659//461
f 658//462 659//462 654//462 651//462
f 659//463 660//463 655//463 654//463
f 649//464 661//464 664//464 663//464
f 661//465 662//465 665//465 664//465
f 663//466 664//466 660//466 657//466
f 664//467 665//467 655//467 660//467
f 666//468 669//468 672//468 671//468
f 669//469 670//469 673//469 672//469
f 671//470 672//470 684//470 681//470
f 672//471 673//471 674//471 684//471
f 667//472 675//472 678//472 677//472
f 675//473 676//473 679//473 678//473
f 677//474 678//474 673//474 670//474
f 678//475 679//475 674//475 673//475
f 668//476 680//476 683//476 682//476
f 680//477 681//477 684//477 683//477
f 682//478 683//478 679//478 676//478
f 683//479 684//479 674//479 679//479
f 685//480 688//480 691//480 690//480
f 688//481 689//481 692//481 691//481
f 690//482 691//482 703//482 700//482
f 691//483 692//483 693//483 703//483
f 686//484 694//484 697//484 696//484
f 694//485 695//485 698//485 697//485
f 696//486 697//486 692//486 689//486
f 697//487 698//487 693//487 692//487
f 687//488 699//488 702//488 701//488
f 699//489 700//489 703//489 702//489
f 701//490 702//490 698//490 695//490
f 702//491 703//491 693//491 698//491
f 704//492 707//492 710//492 709//492
f 707//493 708//493 711//493 710//493
f 709//494 710//494 722//494 719//494
f 710//495 711//495 712//495 722//495
f 705//496 713//496 716//496 715//496
f 713//497 714//497 717//497 716//497
f 715//498 716//498 711//498 708//498
f 716//499 717//499 712//499 711//499
f 706//500 718//500 721//500 720//500
f 718//501 719//501 722//501 721//501
f 720//502 721//502 717//502 714//502
f 721//503 722//503 712//503 717//503
f 723//504 726//504 729//504 728//504
f 726//505 727//505 730//505 729//505
f 728//506 729//506 741//506 738//506
f 729//507 730//507 731//507 741//507
f 724//508 732//508 735//508 734//508
f 732//509 733//509 736//509 735//509
f 734//510 735//510 730//510 727//510
f 735//511 736//511 731//511 730//511
f 725//512 737//512 740//512 739//512
f 737//513 738//513 741//513 740//513
f 739//514 740//514 736//514 733//514
f 740//515 741//515 731//515 736//515
f 742//516 745//516 748//516 747//516
f 745//517 746//517 749//517 748//517
f 747//518 748//518 760//518 757//518
f 748//519 749//519 750//519 760//519
f 743//520 751//520 754//520 753//520
f 751//521 752//521 755//521 754//521
f 753//522 754//522 749//522 746//522
f 754//523 755//523 750//523 749//523
f 744//524 756//524 759//524 758//524
f 756//525 757//525 760//525 759//525
f 758//526 759//526 755//526 752//526
f 759//527 760//527 750//527 755//527
f 3//528 305//528 310//528 15//528
f 15//529 310//529 320//529 16//529
f 16//530 320//530 319//530 6//530
f 6//531 319//531 307//531 1//531
f 306//532 324//532 329//532 314//532
f 314//533 329//533 339//533 315//533
f 315//534 339//534 338//534 321//534
f 321//535 338//535 326//535 307//535
f 325//536 115//536 120//536 333//536
f 333//537 120//537 130//537 334//537
f 334//538 130//538 129//538 340//538
f 340//539 129//539 117//539 326//539
f 22//540 134//540 139//540 34//540
f 34//541 139//541 149//541 35//541
f 35//542 149//542 148//542 25//542
f 25//543 148//543 136//543 20//543
f 324//544 343//544 348//544 327//544
f 327//545 348//545 358//545 328//545
f 328//546 358//546 357//546 335//546
f 335//547 357//547 345//547 325//547
f 344//548 77//548 82//548 352//548
f 352//549 82//549 92//549 353//549
f 353//550 92//550 91//550 359//550
f 359//551 91//551 79//551 345//551
f 135//552 96//552 101//552 143//552
f 143//553 101//553 111//553 144//553
f 144//554 111//554 110//554 150//554
f 150//555 110//555 98//555 136//555
f 343//556 362//556 367//556 346//556
f 346//557 367//557 377//557 347//557
f 347//558 377//558 376//558 354//558
f 354//559 376//559 364//559 344//559
f 363//560 39//560 44//560 371//560
f 371//561 44//561 54//561 372//561
f 372//562 54//562 53//562 378//562
f 378//563 53//563 41//563 364//563
f 97//564 58//564 63//564 105//564
f 105//565 63//565 73//565 106//565
f 106//566 73//566 72//566 112//566
f 112//567 72//567 60//567 98//567
f 362//568 306//568 316//568 365//568
f 365//569 316//569 309//569 366//569
f 366//570 309//570 308//570 373//570
f 373//571 308//571 305//571 363//571
f 59//572 21//572 31//572 67//572
f 67//573 31//573 24//573 68//573
f 68//574 24//574 23//574 74//574
f 74//575 23//575 20//575 60//575
f 2//576 381//576 386//576 10//576
f 10//577 386//577 396//577 11//577
f 11//578 396//578 395//578 17//578
f 17//579 395//579 383//579 3//579
f 382//580 400//580 405//580 390//580
f 390//581 405//581 415//581 391//581
f 391//582 415//582 414//582 397//582
f 397//583 414//583 402//583 383//583
f 401//584 40//584 50//584 409//584
f 409//585 50//585 43//585 410//585
f 410//586 43//586 42//586 416//586
f 416//587 42//587 39//587 402//587
f 400//588 419//588 424//588 403//588
f 403//589 424//589 434//589 404//589
f 404//590 434//590 433//590 411//590
f 411//591 433//591 421//591 401//591
f 420//592 191//592 196//592 428//592
f 428//593 196//593 206//593 429//593
f 429//594 206//594 205//594 435//594
f 435//595 205//595 193//595 421//595
f 58//596 210//596 215//596 61//596
f 61//597 215//597 225//597 62//597
f 62//598 225//598 224//598 69//598
f 69//599 224//599 212//599 59//599
f 419//600 438//600 443//600 422//600
f 422//601 443//601 453//601 423//601
f 423//602 453//602 452//602 430//602
f 430//603 452//603 440//603 420//603
f 439//604 153//604 158//604 447//604
f 447//605 158//605 168//605 448//605
f 448//606 168//606 167//606 454//606
f 454//607 167//607 155//607 440//607
f 211//608 172//608 177//608 219//608
f 219//609 177//609 187//609 220//609
f 220//610 187//610 186//610 226//610
f 226//611 186//611 174//611 212//611
f 438//612 382//612 392//612 441//612
f 441//613 392//613 385//613 442//613
f 442//614 385//614 384//614 449//614
f 449//615 384//615 381//615 439//615
f 173//616 22//616 36//616 181//616
f 181//617 36//617 30//617 182//617
f 182//618 30//618 29//618 188//618
f 188//619 29//619 21//619 174//619
f 1//620 457//620 462//620 4//620
f 4//621 462//621 472//621 5//621
f 5//622 472//622 471//622 12//622
f 12//623 471//623 459//623 2//623
f 458//624 476//624 481//624 466//624
f 466//625 481//625 491//625 467//625
f 467//626 491//626 490//626 473//626
f 473//627 490//627 478//627 459//627
f 477//628 154//628 164//628 485//628
f 485//629 164//629 157//629 486//629
f 486//630 157//630 156//630 492//630
f 492//631 156//631 153//631 478//631
f 476//632 495//632 500//632 479//632
f 479//633 500//633 510//633 480//633
f 480//634 510//634 509//634 487//634
f 487//635 509//635 497//635 477//635
f 496//636 267//636 272//636 504//636
f 504//637 272//637 282//637 505//637
f 505//638 282//638 281//638 511//638
f 511//639 281//639 269//639 497//639
f 172//640 286//640 291//640 175//640
f 175//641 291//641 301//641 176//641
f 176//642 301//642 300//642 183//642
f 183//643 300//643 288//643 173//643
f 495//644 514//644 519//644 498//644
f 498//645 519//645 529//645 499//645
f 499//646 529//646 528//646 506//646
f 506//647 528//647 516//647 496//647
f 515//648 117//648 131//648 523//648
f 523//649 131//649 125//649 524//649
f 524//650 125//650 124//650 530//650
f 530//651 124//651 116//651 516//651
f 287//652 135//652 145//652 295//652
f 295//653 145//653 138//653 296//653
f 296//654 138//654 137//654 302//654
f 302//655 137//655 134//655 288//655
f 514//656 458//656 468//656 517//656
f 517//657 468//657 461//657 518//657
f 518//658 461//658 460//658 525//658
f 525//659 460//659 457//659 515//659
f 231//660 533//660 538//660 243//660
f 243//661 538//661 548//661 244//661
f 244//662 548//662 547//662 234//662
f 234//663 547//663 535//663 229//663
f 534//664 552//664 557//664 542//664
f 542//665 557//665 567//665 543//665
f 543//666 567//666 566//666 549//666
f 549//667 566//667 554//667 535//667
f 553//668 193//668 207//668 561//668
f 561//669 207//669 201//669 562//669
f 562//670 201//670 200//670 568//670
f 568//671 200//671 192//671 554//671
f 250//672 211//672 221//672 262//672
f 262//673 221//673 214//673 263//673
f 263//674 214//674 213//674 253//674
f 253//675 213//675 210//675 248//675
f 552//676 571//676 576//676 555//676
f 555//677 576//677 586//677 556//677
f 556//678 586//678 585//678 563//678
f 563//679 585//679 573//679 553//679
f 572//680 41//680 55//680 580//680
f 580//681 55//681 49//681 581//681
f 581//682 49//682 48//682 587//682
f 587//683 48//683 40//683 573//683
f 571//684 590//684 595//684 574//684
f 574//685 595//685 605//685 575//685
f 575//686 605//686 604//686 582//686
f 582//687 604//687 592//687 572//687
f 591//688 78//688 88//688 599//688
f 599//689 88//689 81//689 600//689
f 600//690 81//690 80//690 606//690
f 606//691 80//691 77//691 592//691
f 590//692 534//692 544//692 593//692
f 593//693 544//693 537//693 594//693
f 594//694 537//694 536//694 601//694
f 601//695 536//695 533//695 591//695
f 96//696 249//696 259//696 99//696
f 99//697 259//697 252//697 100//697
f 100//698 252//698 251//698 107//698
f 107//699 251//699 248//699 97//699
f 230//700 609//700 614//700 238//700
f 238//701 614//701 624//701 239//701
f 239//702 624//702 623//702 245//702
f 245//703 623//703 611//703 231//703
f 610//704 628//704 633//704 618//704
f 618//705 633//705 643//705 619//705
f 619//706 643//706 642//706 625//706
f 625//707 642//707 630//707 611//707
f 629//708 79//708 93//708 637//708
f 637//709 93//709 87//709 638//709
f 638//710 87//710 86//710 644//710
f 644//711 86//711 78//711 630//711
f 628//712 647//712 652//712 631//712
f 631//713 652//713 662//713 632//713
f 632//714 662//714 661//714 639//714
f 639//715 661//715 649//715 629//715
f 648//716 116//716 126//716 656//716
f 656//717 126//717 119//717 657//717
f 657//718 119//718 118//718 663//718
f 663//719 118//719 115//719 649//719
f 647//720 666//720 671//720 650//720
f 650//721 671//721 681//721 651//721
f 651//722 681//722 680//722 658//722
f 658//723 680//723 668//723 648//723
f 667//724 268//724 278//724 675//724
f 675//725 278//725 271//725 676//725
f 676//726 271//726 270//726 682//726
f 682//727 270//727 267//727 668//727
f 666//728 610//728 620//728 669//728
f 669//729 620//729 613//729 670//729
f 670//730 613//730 612//730 677//730
f 677//731 612//731 609//731 667//731
f 286//732 250//732 264//732 289//732
f 289//733 264//733 258//733 290//733
f 290//734 258//734 257//734 297//734
f 297//735 257//735 249//735 287//735
f 229//736 685//736 690//736 232//736
f 232//737 690//737 700//737 233//737
f 233//738 700//738 699//738 240//738
f 240//739 699//739 687//739 230//739
f 686//740 704//740 709//740 694//740
f 694//741 709//741 719//741 695//741
f 695//742 719//742 718//742 701//742
f 701//743 718//743 706//743 687//743
f 705//744 269//744 283//744 713//744
f 713//745 283//745 277//745 714//745
f 714//746 277//746 276//746 720//746
f 720//747 276//747 268//747 706//747
f 704//748 723//748 728//748 707//748
f 707//749 728//749 738//749 708//749
f 708//750 738//750 737//750 715//750
f 715//751 737//751 725//751 705//751
f 724//752 155//752 169//752 732//752
f 732//753 169//753 163//753 733//753
f 733//754 163//754 162//754 739//754
f 739//755 162//755 154//755 725//755
f 723//756 742//756 747//756 726//756
f 726//757 747//757 757//757 727//757
f 727//758 757//758 756//758 734//758
f 734//759 756//759 744//759 724//759
f 743//760 192//760 202//760 751//760
f 751//761 202//761 195//761 752//761
f 752//762 195//762 194//762 758//762
f 758//763 194//763 191//763 744//763
f 742//764 686//764 696//764 745//764
f 745//765 696//765 689//765 746//765
f 746//766 689//766 688//766 753//766
f 753//767 688//767 685//767 743//767
f 363//768 305//768 3//768 39//768
